<svg enable-background="new 0 0 520 520" height="512" viewBox="0 0 520 520" width="512" xmlns="http://www.w3.org/2000/svg"><g id="_x34_51_x2C__Flash_x2C__Light_x2C__Torch"><g><path d="m347.904 277.197-70.709 70.709c120.699 120.701-21.583-21.584 98.99 98.99l70.709-70.709c-10.633-10.634-83.986-83.988-98.99-98.99z" fill="#232b3f"/><path d="m403.705 173.707c11.05 0 20 8.95 20 20s-8.95 20-20 20c-11.04 0-20-8.95-20-20s8.96-20 20-20z" fill="#4380a0"/><path d="m138.705 388.707c16.57 0 30 13.43 30 30s-13.43 30-30 30c-16.56 0-30-13.43-30-30s13.44-30 30-30z" fill="#4380a0"/><path d="m365.585 344.367c5.86 5.859 5.86 15.359 0 21.209-5.86 5.861-15.36 5.861-21.21 0l-14.15-14.139c-5.85-5.861-5.85-15.352 0-21.211 2.93-2.93 6.77-4.4 10.61-4.4s7.68 1.471 10.61 4.4z" fill="#fb2b3a"/><path d="m461.045 390.336-70.71 70.701v.01l-14.149-14.151 70.709-70.708z" fill="#abbfcf"/><path d="m347.904 277.197-70.709 70.709-14.14-14.14v-.01l70.71-70.699z" fill="#abbfcf"/><path d="m471.645 400.938c9.771 9.77 14.65 22.559 14.65 35.35 0 12.799-4.88 25.6-14.65 35.359-19.52 19.529-51.18 19.529-70.709 0l-10.601-10.6v-.01l70.71-70.701z" fill="#232b3f"/><path d="m333.765 263.057-70.71 70.699v.01l-28.57-28.568c15.56-6.102 30.14-15.432 42.71-28 12.569-12.57 21.91-27.151 28-42.711z" fill="#232b3f"/><path d="m290.225 115.727c22.051 30.49 28.631 68.69 19.76 103.79-6.75-3.12-13.08-7.47-18.649-13.03-25.001-25.01-25.361-65.3-1.111-90.76z" fill="#232b3f"/><path d="m206.485 291.336c5.57 5.57 9.91 11.891 13.04 18.65-35.1 8.871-73.3 2.279-103.8-19.76 25.46-24.249 65.76-23.9 90.76 1.11z" fill="#232b3f"/><path d="m305.195 234.486c-6.09 15.56-15.431 30.141-28 42.711-12.57 12.568-27.15 21.898-42.71 28-4.9 1.92-9.9 3.52-14.96 4.789-3.13-6.76-7.47-13.08-13.04-18.65-25-25.01-65.3-25.359-90.76-1.109-5.36-3.859-10.48-8.199-15.31-13.029l17.68-17.682 17.68-17.679 17.68-17.68 17.67-17.67 17.68-17.68 17.68-17.68 17.68-17.68 17.68-17.67 17.67-17.68 17.681-17.68c4.83 4.83 9.18 9.95 13.029 15.31-24.25 25.46-23.89 65.75 1.11 90.76 5.569 5.56 11.899 9.91 18.649 13.03-1.259 5.069-2.859 10.069-4.789 14.969z" fill="#313a52"/><g fill="#414a56"><path d="m243.478 79.381h25.004v35.002h-25.004z" transform="matrix(.707 -.707 .707 .707 6.468 209.378)"/><path d="m241.845 135.776-17.68 17.671-24.75-24.75 17.68-17.671 24.74 24.741z"/><path d="m172.768 150.091h25.004v35.002h-25.004z" transform="matrix(.707 -.707 .707 .707 -64.241 180.092)"/><path d="m146.385 181.736 24.74 24.75-17.67 17.671-24.75-24.75z"/><path d="m102.058 220.801h25.003v35.001h-25.003z" transform="matrix(.707 -.707 .707 .707 -134.948 150.796)"/></g><path d="m259.515 118.097-17.67 17.679-.01-.009-24.74-24.741 17.67-17.679z" fill="#57606f"/><path d="m190.448 132.411h25.003v35.002h-25.003z" fill="#57606f" transform="matrix(.707 -.707 .707 .707 -46.561 187.412)"/><path d="m188.805 188.807-17.68 17.679-24.74-24.75 17.67-17.679z" fill="#57606f"/><path d="m119.738 203.121h25.003v35.002h-25.003z" fill="#57606f" transform="matrix(.707 -.707 .707 .707 -117.27 158.123)"/><path d="m84.378 238.48h25.004v35.002h-25.004z" fill="#57606f" transform="matrix(.707 -.707 .707 .707 -152.637 143.493)"/><path d="m456.205 283.707c4.15 0 7.5 3.359 7.5 7.5 0 4.139-3.35 7.5-7.5 7.5-4.141 0-7.5-3.361-7.5-7.5 0-4.141 3.359-7.5 7.5-7.5z"/><path d="m381.205 73.707c4.15 0 7.5 3.36 7.5 7.5s-3.35 7.5-7.5 7.5c-4.141 0-7.5-3.36-7.5-7.5s3.359-7.5 7.5-7.5z"/><path d="m346.205 473.707c4.15 0 7.5 3.359 7.5 7.5 0 4.139-3.35 7.5-7.5 7.5-4.141 0-7.5-3.361-7.5-7.5 0-4.141 3.359-7.5 7.5-7.5z"/><path d="m296.205 48.707c4.15 0 7.5 3.36 7.5 7.5s-3.35 7.5-7.5 7.5c-4.141 0-7.5-3.36-7.5-7.5s3.359-7.5 7.5-7.5z"/><path d="m251.205 388.707c4.15 0 7.5 3.359 7.5 7.5 0 4.139-3.35 7.5-7.5 7.5-4.14 0-7.5-3.361-7.5-7.5 0-4.141 3.36-7.5 7.5-7.5z"/><path d="m76.205 338.707c4.15 0 7.5 3.359 7.5 7.5 0 4.139-3.35 7.5-7.5 7.5-4.14 0-7.5-3.361-7.5-7.5 0-4.141 3.36-7.5 7.5-7.5z"/><path d="m119.695 124.687c-1.28 0-2.559-.488-3.536-1.464l-36.95-36.95c-1.953-1.953-1.953-5.119 0-7.071s5.118-1.952 7.071 0l36.95 36.95c1.953 1.953 1.953 5.119 0 7.071-.976.975-2.255 1.464-3.535 1.464z"/><path d="m200.795 91.046c-2.761 0-5-2.239-5-5v-52.34c0-2.761 2.239-5 5-5s5 2.239 5 5v52.34c0 2.762-2.239 5-5 5z"/><path d="m86.045 205.787h-52.34c-2.761 0-5-2.239-5-5s2.239-5 5-5h52.34c2.761 0 5 2.239 5 5s-2.239 5-5 5z"/><path d="m143.42 106.428c-1.726 0-3.404-.894-4.331-2.494l-13.08-22.57c-1.384-2.389-.57-5.448 1.819-6.833 2.391-1.384 5.449-.57 6.833 1.819l13.08 22.57c1.384 2.389.57 5.448-1.819 6.833-.789.457-1.651.675-2.502.675z"/><path d="m171.171 95.068c-2.212 0-4.234-1.479-4.829-3.718l-6.76-25.45c-.709-2.669.88-5.407 3.549-6.116 2.669-.708 5.407.88 6.116 3.549l6.76 25.45c.709 2.669-.88 5.407-3.549 6.116-.43.114-.861.169-1.287.169z"/><path d="m90.078 176.168c-.425 0-.857-.055-1.287-.169l-25.45-6.76c-2.669-.709-4.258-3.447-3.549-6.116s3.448-4.258 6.116-3.549l25.45 6.76c2.669.709 4.258 3.447 3.549 6.116-.594 2.239-2.617 3.718-4.829 3.718z"/><path d="m101.431 148.417c-.839 0-1.689-.211-2.47-.656l-22.72-12.94c-2.399-1.367-3.237-4.419-1.87-6.819 1.367-2.399 4.42-3.236 6.819-1.87l22.72 12.94c2.399 1.367 3.237 4.419 1.87 6.819-.922 1.618-2.612 2.526-4.349 2.526z"/><path d="m436.294 491.293c-14.691 0-28.505-5.721-38.895-16.111l-166.438-166.438c-1.926-1.912-1.982-5.025-.103-7 1.905-2.002 5.064-2.08 7.064-.178l.01.01c.029.027.059.057.087.086l166.45 166.449c8.501 8.5 19.803 13.182 31.823 13.182s23.318-4.68 31.814-13.182c8.505-8.496 13.187-19.797 13.187-31.824 0-12.014-4.683-23.313-13.186-31.814l-166.45-166.451c-1.952-1.953-1.958-5.124-.005-7.076s5.114-1.957 7.066-.005l166.46 166.461c10.392 10.391 16.114 24.199 16.114 38.885 0 14.701-5.724 28.514-16.116 38.896-10.379 10.389-24.191 16.11-38.882 16.11z"/><path d="m100.415 282.197c-1.28 0-2.559-.488-3.536-1.465l-24.75-24.75c-1.953-1.952-1.953-5.118 0-7.071l176.78-176.78c1.953-1.952 5.118-1.952 7.071 0l24.75 24.75c1.953 1.953 1.953 5.119 0 7.071s-5.118 1.952-7.071 0l-21.214-21.215-169.709 169.71 21.215 21.215c1.953 1.951 1.953 5.117 0 7.07-.977.977-2.256 1.465-3.536 1.465z"/><path d="m390.335 466.037c-1.28 0-2.56-.488-3.536-1.465-1.952-1.953-1.952-5.119.001-7.072l70.62-70.609c.911-.961 2.198-1.559 3.625-1.559 2.762 0 5 2.232 5 4.994 0 1.326-.527 2.607-1.465 3.547l-70.71 70.699c-.975.977-2.256 1.465-3.535 1.465z"/><path d="m376.186 451.896c-1.28 0-2.56-.488-3.536-1.465-1.952-1.951-1.952-5.117 0-7.07l70.71-70.709c.938-.939 2.209-1.465 3.535-1.465 2.762 0 5.006 2.238 5.006 5 0 1.463-.629 2.781-1.63 3.695l-70.55 70.549c-.977.977-2.256 1.465-3.535 1.465z"/><path d="m277.195 352.906c-1.28 0-2.56-.488-3.536-1.465-1.952-1.951-1.952-5.117 0-7.07l70.71-70.709c1.953-1.953 5.118-1.953 7.071 0 1.952 1.951 1.952 5.117 0 7.07l-70.71 70.709c-.976.977-2.255 1.465-3.535 1.465z"/><path d="m263.055 338.756c-1.279 0-2.56-.488-3.535-1.465-1.953-1.951-1.953-5.117 0-7.07l70.62-70.611c.911-.959 2.198-1.559 3.625-1.559 2.761 0 5 2.234 5 4.996 0 1.326-.526 2.607-1.465 3.545l-70.71 70.701c-.977.975-2.256 1.463-3.535 1.463z"/><path d="m354.977 374.973c-5.345 0-10.367-2.082-14.141-5.863l-14.146-14.135c-7.786-7.801-7.786-20.484-.005-28.281 3.785-3.785 8.809-5.867 14.149-5.867s10.363 2.082 14.146 5.863l14.141 14.143c3.777 3.777 5.859 8.801 5.859 14.143 0 5.344-2.082 10.365-5.863 14.141-3.775 3.774-8.799 5.856-14.14 5.856zm-14.142-44.147c-2.669 0-5.183 1.043-7.075 2.936-3.889 3.896-3.889 10.242.004 14.143l14.146 14.135c1.89 1.893 4.397 2.934 7.067 2.934 2.671 0 5.184-1.041 7.072-2.932 1.891-1.887 2.932-4.396 2.932-7.066 0-2.672-1.041-5.184-2.931-7.072l-14.141-14.141c-1.892-1.894-4.405-2.937-7.074-2.937z"/><path d="m118.095 264.516c-1.28 0-2.559-.488-3.536-1.465l-24.75-24.749c-1.953-1.953-1.953-5.119 0-7.071s5.118-1.952 7.071 0l24.75 24.75c1.953 1.953 1.953 5.119 0 7.07-.976.976-2.255 1.465-3.535 1.465z"/><path d="m135.775 246.836c-1.28 0-2.559-.488-3.536-1.464l-24.75-24.75c-1.953-1.953-1.953-5.119 0-7.071s5.118-1.952 7.071 0l24.75 24.75c1.953 1.953 1.953 5.119 0 7.071-.976.976-2.255 1.464-3.535 1.464z"/><path d="m153.455 229.157c-1.28 0-2.559-.488-3.536-1.464l-24.75-24.75c-1.953-1.953-1.953-5.119 0-7.071s5.118-1.952 7.071 0l24.75 24.75c1.953 1.953 1.953 5.119 0 7.071-.976.975-2.255 1.464-3.535 1.464z"/><path d="m171.125 211.486c-1.28 0-2.56-.488-3.536-1.465l-24.74-24.75c-1.952-1.953-1.952-5.119.001-7.071 1.953-1.953 5.118-1.953 7.071.001l24.74 24.75c1.952 1.953 1.952 5.119-.001 7.071-.976.977-2.256 1.464-3.535 1.464z"/><path d="m188.805 193.807c-1.28 0-2.559-.488-3.536-1.464l-24.75-24.75c-1.953-1.953-1.953-5.119 0-7.071s5.118-1.952 7.071 0l24.75 24.75c1.953 1.953 1.953 5.119 0 7.071-.976.975-2.256 1.464-3.535 1.464z"/><path d="m206.485 176.126c-1.28 0-2.559-.488-3.536-1.464l-24.75-24.75c-1.953-1.953-1.953-5.119 0-7.071s5.118-1.952 7.071 0l24.75 24.75c1.953 1.953 1.953 5.119 0 7.071-.976.976-2.255 1.464-3.535 1.464z"/><path d="m224.165 158.447c-1.28 0-2.559-.488-3.536-1.464l-24.75-24.75c-1.953-1.953-1.953-5.119 0-7.071s5.118-1.952 7.071 0l24.75 24.75c1.953 1.953 1.953 5.119 0 7.071-.976.975-2.255 1.464-3.535 1.464z"/><path d="m241.835 140.767c-1.28 0-2.559-.488-3.536-1.464l-24.74-24.74c-1.953-1.953-1.953-5.119 0-7.071s5.118-1.952 7.071 0l24.74 24.74c1.953 1.953 1.953 5.119 0 7.071-.976.975-2.255 1.464-3.535 1.464z"/><path d="m259.515 123.097c-1.28 0-2.559-.488-3.536-1.464l-24.75-24.75c-1.953-1.953-1.953-5.119 0-7.071s5.118-1.952 7.071 0l24.75 24.75c1.952 1.953 1.952 5.119 0 7.071-.976.975-2.255 1.464-3.535 1.464z"/><path d="m219.528 314.988c-1.888 0-3.695-1.074-4.541-2.9-2.961-6.396-7.012-12.189-12.039-17.217-22.82-22.828-60.402-23.287-83.776-1.025-2 1.904-5.164 1.828-7.069-.172-1.904-1.998-1.827-5.164.172-7.068 13.28-12.648 30.736-19.486 49.057-19.297 18.393.205 35.684 7.482 48.688 20.492 5.86 5.861 10.585 12.619 14.041 20.086 1.16 2.506.069 5.477-2.437 6.637-.678.316-1.393.464-2.096.464z"/><path d="m309.981 224.518c-.702 0-1.415-.148-2.095-.462-7.451-3.444-14.209-8.165-20.084-14.03-13.01-13.014-20.285-30.306-20.491-48.693-.206-18.354 6.646-35.775 19.292-49.053 1.905-2 5.07-2.077 7.069-.172 2 1.905 2.077 5.069.173 7.069-22.633 23.761-22.182 60.561 1.025 83.777 5.038 5.029 10.83 9.077 17.212 12.026 2.507 1.159 3.599 4.13 2.44 6.637-.843 1.825-2.651 2.901-4.541 2.901z"/><path d="m188.805 318.805c-27.522 0-53.806-8.482-76.009-24.525-5.617-4.045-10.975-8.605-15.917-13.547-1.953-1.953-1.953-5.119 0-7.07l176.78-176.781c1.953-1.952 5.118-1.952 7.071 0 4.98 4.98 9.541 10.339 13.555 15.929 22.52 31.137 30.012 70.481 20.547 107.932-1.304 5.247-2.982 10.494-4.985 15.577-6.525 16.673-16.323 31.619-29.116 44.414-12.775 12.775-27.721 22.572-44.42 29.119-5.072 1.988-10.31 3.664-15.567 4.984-10.416 2.632-21.164 3.968-31.939 3.968zm-81.245-41.682c3.523 3.242 7.238 6.273 11.087 9.045 20.494 14.811 44.752 22.637 70.159 22.637 9.949 0 19.873-1.234 29.495-3.666 4.855-1.219 9.684-2.766 14.361-4.598 15.409-6.041 29.203-15.084 40.999-26.879 11.813-11.814 20.856-25.607 26.88-40.998 1.846-4.687 3.391-9.513 4.594-14.354 8.742-34.593 1.829-70.908-18.959-99.654-2.758-3.838-5.789-7.554-9.052-11.097z"/><path d="m277.195 282.197c-1.28 0-2.561-.488-3.536-1.465l-53.03-53.041c-1.953-1.953-1.952-5.119 0-7.071 1.953-1.952 5.12-1.952 7.071 0l53.03 53.041c1.953 1.953 1.952 5.117 0 7.07-.976.978-2.255 1.466-3.535 1.466z"/><path d="m362.045 437.756c-1.279 0-2.559-.488-3.535-1.465-1.953-1.951-1.953-5.117 0-7.07l10.609-10.609c1.954-1.953 5.119-1.951 7.071 0 1.952 1.953 1.952 5.119 0 7.07l-10.61 10.609c-.976.977-2.256 1.465-3.535 1.465z"/><path d="m347.904 423.617c-1.279 0-2.559-.488-3.535-1.465-1.953-1.953-1.953-5.119 0-7.07l10.609-10.611c1.953-1.953 5.119-1.953 7.072 0 1.952 1.953 1.952 5.119 0 7.07l-10.61 10.611c-.976.977-2.255 1.465-3.536 1.465z"/><path d="m333.765 409.477c-1.28 0-2.56-.488-3.536-1.465-1.952-1.953-1.952-5.119.001-7.072l10.61-10.609c1.953-1.951 5.119-1.951 7.07.002 1.953 1.951 1.953 5.117 0 7.07l-10.61 10.609c-.976.976-2.256 1.465-3.535 1.465z"/><path d="m319.625 395.326c-1.279 0-2.559-.488-3.535-1.463-1.953-1.953-1.953-5.119 0-7.072l10.6-10.6c1.951-1.953 5.118-1.953 7.07-.002 1.953 1.953 1.953 5.119 0 7.072l-10.6 10.6c-.975.977-2.256 1.465-3.535 1.465z"/><path d="m422.154 377.656c-1.278 0-2.557-.486-3.533-1.463-1.953-1.951-1.955-5.117-.004-7.07l10.601-10.611c1.95-1.951 5.117-1.955 7.071-.002 1.953 1.951 1.955 5.117.003 7.07l-10.601 10.611c-.975.977-2.255 1.465-3.537 1.465z"/><path d="m408.005 363.506c-1.28 0-2.561-.488-3.537-1.465-1.952-1.955-1.95-5.121.003-7.072l10.61-10.6c1.954-1.951 5.12-1.951 7.071.004 1.951 1.953 1.949 5.119-.004 7.07l-10.609 10.6c-.976.977-2.256 1.463-3.534 1.463z"/><path d="m393.865 349.367c-1.281 0-2.561-.488-3.537-1.467-1.952-1.953-1.951-5.119.002-7.07l10.521-10.512c.911-.959 2.198-1.557 3.624-1.557 2.762 0 5 2.232 5 4.994v.01c0 1.328-.527 2.6-1.466 3.537l-10.61 10.602c-.977.975-2.255 1.463-3.534 1.463z"/><path d="m379.725 335.227c-1.281 0-2.561-.488-3.537-1.467-1.951-1.953-1.95-5.119.004-7.07l10.52-10.51c.912-.959 2.197-1.559 3.624-1.559 2.761 0 5 2.234 5 4.996v.01c0 1.326-.527 2.6-1.466 3.537l-10.611 10.6c-.977.974-2.255 1.463-3.534 1.463z"/><path d="m138.705 453.707c-19.299 0-35-15.701-35-35s15.701-35 35-35 35 15.701 35 35-15.701 35-35 35zm0-60c-13.785 0-25 11.215-25 25s11.215 25 25 25 25-11.215 25-25-11.215-25-25-25z"/><path d="m403.705 218.707c-13.785 0-25-11.215-25-25s11.215-25 25-25 25 11.215 25 25-11.215 25-25 25zm0-40c-8.271 0-15 6.729-15 15s6.729 15 15 15 15-6.729 15-15-6.728-15-15-15z"/></g></g></svg>