<svg enable-background="new 0 0 520 520" height="512" viewBox="0 0 520 520" width="512" xmlns="http://www.w3.org/2000/svg"><g id="_x34_52_x2C__Case_x2C__Portfolio_x2C__Thing"><g><path d="m404.84 285c19.75 0 37.18-9.93 47.561-25.07l.1.07v115h-380v-115h.04l.07-.05c10.389 15.13 27.819 25.05 47.559 25.05z" fill="#c73b10"/><path d="m120.17 285c-19.74 0-37.17-9.92-47.56-25.05-6.38-9.28-10.11-20.51-10.11-32.62v-27.33h400v27.33c0 12.1-3.721 23.33-10.1 32.6-10.38 15.14-27.81 25.07-47.56 25.07z" fill="#c86d36"/><path d="m202.5 115h120v25h-120z" fill="#a85120"/><path d="m282.5 320v15c0 8.28-6.711 15-15 15-8.28 0-15-6.72-15-15v-15z" fill="#ffe0b2"/><g fill="#ffd54f"><path d="m387.5 285v10c0 11.05-8.95 20-20 20-11.04 0-20-8.95-20-20v-10-25h40z"/><path d="m302.5 285v35h-20-30-20v-35z"/><path d="m187.5 285v10c0 11.05-8.95 20-20 20-11.04 0-20-8.95-20-20v-10-25h40z"/></g><path d="m427.5 40c16.57 0 30 13.43 30 30s-13.43 30-30 30c-16.561 0-30-13.43-30-30s13.439-30 30-30z" fill="#313a52"/><path d="m107.5 430c11.05 0 20 8.95 20 20s-8.95 20-20 20c-11.04 0-20-8.95-20-20s8.96-20 20-20z" fill="#313a52"/><path d="m452.5 375v6.67c0 12.88-10.44 23.33-23.33 23.33h-333.33c-12.89 0-23.34-10.45-23.34-23.33v-6.67z" fill="#c86d36"/><path d="m62.5 180h400v20h-400z" fill="#c73b10"/><path d="m462.5 163.33v16.67h-400v-16.67c0-12.88 10.45-23.33 23.34-23.33h116.66 120 116.67c12.89 0 23.33 10.45 23.33 23.33z" fill="#c86d36"/><path d="m475 90c4.15 0 7.5 3.36 7.5 7.5s-3.35 7.5-7.5 7.5c-4.141 0-7.5-3.36-7.5-7.5s3.359-7.5 7.5-7.5z"/><path d="m475 410c4.15 0 7.5 3.36 7.5 7.5s-3.35 7.5-7.5 7.5c-4.141 0-7.5-3.36-7.5-7.5s3.359-7.5 7.5-7.5z"/><path d="m350 470c4.15 0 7.5 3.36 7.5 7.5s-3.35 7.5-7.5 7.5c-4.141 0-7.5-3.36-7.5-7.5s3.359-7.5 7.5-7.5z"/><path d="m340 40c4.15 0 7.5 3.36 7.5 7.5s-3.35 7.5-7.5 7.5c-4.141 0-7.5-3.36-7.5-7.5s3.359-7.5 7.5-7.5z"/><path d="m185 430c4.15 0 7.5 3.36 7.5 7.5s-3.35 7.5-7.5 7.5c-4.14 0-7.5-3.36-7.5-7.5s3.36-7.5 7.5-7.5z"/><path d="m170 40c4.15 0 7.5 3.36 7.5 7.5s-3.35 7.5-7.5 7.5c-4.14 0-7.5-3.36-7.5-7.5s3.36-7.5 7.5-7.5z"/><path d="m70 90c4.15 0 7.5 3.36 7.5 7.5s-3.35 7.5-7.5 7.5c-4.14 0-7.5-3.36-7.5-7.5s3.36-7.5 7.5-7.5z"/><path d="m45 380c4.15 0 7.5 3.36 7.5 7.5s-3.35 7.5-7.5 7.5c-4.14 0-7.5-3.36-7.5-7.5s3.36-7.5 7.5-7.5z"/><path d="m429.17 410h-333.33c-15.626 0-28.34-12.709-28.34-28.33v-121.67c0-2.762 2.239-5 5-5s5.02 2.238 5.02 5c0 .151-.006.302-.02.449v121.221c0 10.107 8.227 18.33 18.34 18.33h333.33c10.107 0 18.33-8.223 18.33-18.33v-121.67c0-2.762 2.238-5 5-5s5 2.238 5 5v121.67c0 15.621-12.709 28.33-28.33 28.33z"/><path d="m332.5 120h-140c-2.761 0-5-2.239-5-5v-19.67c0-13.967 11.367-25.33 25.34-25.33h99.33c13.967 0 25.33 11.363 25.33 25.33v19.67c0 2.761-2.238 5-5 5zm-135-10h130v-14.67c0-8.453-6.877-15.33-15.33-15.33h-99.33c-8.458 0-15.34 6.877-15.34 15.33z"/><path d="m322.5 145c-2.762 0-5-2.239-5-5v-25c0-2.761 2.238-5 5-5s5 2.239 5 5v25c0 2.761-2.238 5-5 5z"/><path d="m202.5 145c-2.761 0-5-2.239-5-5v-25c0-2.761 2.239-5 5-5s5 2.239 5 5v25c0 2.761-2.239 5-5 5z"/><path d="m404.84 290h-17.34c-2.762 0-5-2.238-5-5s2.238-5 5-5h17.34c17.368 0 33.606-8.56 43.436-22.897 6.037-8.771 9.225-19.063 9.225-29.772v-64c0-10.107-8.223-18.33-18.33-18.33h-353.331c-10.113 0-18.34 8.223-18.34 18.33v64c0 10.704 3.192 21.004 9.23 29.787 9.84 14.328 26.079 22.882 43.44 22.882h27.33c2.761 0 5 2.238 5 5s-2.239 5-5 5h-27.33c-20.657 0-39.977-10.176-51.682-27.22-7.188-10.455-10.988-22.715-10.988-35.45v-64c0-15.621 12.713-28.33 28.34-28.33h353.33c15.621 0 28.33 12.709 28.33 28.33v64c0 12.744-3.797 24.996-10.981 35.435-11.691 17.05-31.011 27.235-51.679 27.235z"/><path d="m347.5 290h-45c-2.762 0-5-2.238-5-5s2.238-5 5-5h45c2.762 0 5 2.238 5 5s-2.238 5-5 5z"/><path d="m232.5 290h-45c-2.761 0-5-2.238-5-5s2.239-5 5-5h45c2.761 0 5 2.238 5 5s-2.239 5-5 5z"/><path d="m462.5 185h-400c-2.761 0-5-2.239-5-5s2.239-5 5-5h400c2.762 0 5 2.239 5 5s-2.238 5-5 5z"/><path d="m462.5 205h-400c-2.761 0-5-2.239-5-5s2.239-5 5-5h400c2.762 0 5 2.239 5 5s-2.238 5-5 5z"/><path d="m167.5 320c-13.785 0-25-11.215-25-25v-35c0-2.762 2.239-5 5-5s5 2.238 5 5v35c0 8.271 6.729 15 15 15s15-6.729 15-15v-35c0-2.762 2.239-5 5-5s5 2.238 5 5v35c0 13.785-11.215 25-25 25z"/><path d="m197.5 265h-60c-2.761 0-5-2.238-5-5s2.239-5 5-5h60c2.761 0 5 2.238 5 5s-2.239 5-5 5z"/><path d="m367.5 320c-13.785 0-25-11.215-25-25v-35c0-2.762 2.238-5 5-5s5 2.238 5 5v35c0 8.271 6.729 15 15 15s15-6.729 15-15v-35c0-2.762 2.238-5 5-5s5 2.238 5 5v35c0 13.785-11.215 25-25 25z"/><path d="m397.5 265h-60c-2.762 0-5-2.238-5-5s2.238-5 5-5h60c2.762 0 5 2.238 5 5s-2.238 5-5 5z"/><path d="m302.5 325h-20c-2.762 0-5-2.238-5-5s2.238-5 5-5h15v-25h-60v25h15c2.761 0 5 2.238 5 5s-2.239 5-5 5h-20c-2.761 0-5-2.238-5-5v-35c0-2.762 2.239-5 5-5h70c2.762 0 5 2.238 5 5v35c0 2.762-2.238 5-5 5z"/><path d="m267.5 355c-11.028 0-20-8.972-20-20v-15c0-2.762 2.239-5 5-5h30c2.762 0 5 2.238 5 5v15c0 11.028-8.973 20-20 20zm-10-30v10c0 5.514 4.486 10 10 10s10-4.486 10-10v-10z"/><path d="m452.5 380h-380c-2.761 0-5-2.238-5-5s2.239-5 5-5h380c2.762 0 5 2.238 5 5s-2.238 5-5 5z"/><path d="m427.5 105c-19.299 0-35-15.701-35-35s15.701-35 35-35 35 15.701 35 35-15.701 35-35 35zm0-60c-13.785 0-25 11.215-25 25s11.215 25 25 25 25-11.215 25-25-11.215-25-25-25z"/><path d="m107.5 475c-13.785 0-25-11.215-25-25s11.215-25 25-25 25 11.215 25 25-11.215 25-25 25zm0-40c-8.271 0-15 6.729-15 15s6.729 15 15 15 15-6.729 15-15-6.729-15-15-15z"/></g></g></svg>