<svg enable-background="new 0 0 520 520" height="512" viewBox="0 0 520 520" width="512" xmlns="http://www.w3.org/2000/svg"><g id="_x34_53_x2C__Landing_x2C__Page_x2C__Web"><g><path d="m292.5 192.5h-230v262.83c0 15.01 12.17 27.17 27.17 27.17h335.67c15 0 27.16-12.16 27.16-27.17v-262.83z" fill="#ecebed"/><path d="m102.5 232.5h310v210h-310z" fill="#bde1ff"/><g fill="#26c6da"><path d="m352.5 382.5h30v30h-30z"/><path d="m352.5 332.5h30v30h-30z"/><path d="m297.5 382.5h30v30h-30z"/><path d="m297.5 332.5h30v30h-30z"/><path d="m242.5 382.5h30v30h-30z"/><path d="m242.5 332.5h30v30h-30z"/><path d="m187.5 382.5h30v30h-30z"/><path d="m187.5 332.5h30v30h-30z"/><path d="m132.5 382.5h30v30h-30z"/><path d="m132.5 332.5h30v30h-30z"/></g><path d="m127.5 257.5h260v55h-260z" fill="#ffd54f"/><path d="m395 37.5c12.43 0 22.5 10.07 22.5 22.5s-10.07 22.5-22.5 22.5c-12.42 0-22.5-10.07-22.5-22.5s10.08-22.5 22.5-22.5z" fill="#cfe0e9"/><path d="m117.5 57.5c8.29 0 15 6.72 15 15s-6.71 15-15 15c-8.28 0-15-6.72-15-15s6.72-15 15-15z" fill="#cfe0e9"/><path d="m62.5 152.5h230v40h-230z" fill="#232b3f"/><path d="m292.5 112.5v40h-230v-12.83c0-15.01 12.17-27.17 27.17-27.17z" fill="#313a52"/><path d="m425.34 112.5h-132.84v40 40h160v-52.83c0-15.01-12.16-27.17-27.16-27.17z" fill="#57606f"/><path d="m475 102.5c4.15 0 7.5 3.36 7.5 7.5s-3.35 7.5-7.5 7.5c-4.141 0-7.5-3.36-7.5-7.5s3.359-7.5 7.5-7.5z"/><path d="m412.5 142.5c5.529 0 10 4.48 10 10s-4.471 10-10 10c-5.52 0-10-4.48-10-10s4.48-10 10-10z"/><path d="m382.5 142.5c5.529 0 10 4.48 10 10s-4.471 10-10 10c-5.52 0-10-4.48-10-10s4.48-10 10-10z"/><path d="m352.5 142.5c5.529 0 10 4.48 10 10s-4.471 10-10 10c-5.52 0-10-4.48-10-10s4.48-10 10-10z"/><path d="m325 62.5c4.15 0 7.5 3.36 7.5 7.5s-3.35 7.5-7.5 7.5c-4.141 0-7.5-3.36-7.5-7.5s3.359-7.5 7.5-7.5z"/><path d="m185 52.5c4.15 0 7.5 3.36 7.5 7.5s-3.35 7.5-7.5 7.5c-4.14 0-7.5-3.36-7.5-7.5s3.36-7.5 7.5-7.5z"/><path d="m45 102.5c4.15 0 7.5 3.36 7.5 7.5s-3.35 7.5-7.5 7.5c-4.14 0-7.5-3.36-7.5-7.5s3.36-7.5 7.5-7.5z"/><path d="m452.5 197.5h-390c-2.761 0-5-2.239-5-5s2.239-5 5-5h390c2.762 0 5 2.239 5 5s-2.238 5-5 5z"/><path d="m292.5 157.5h-230c-2.761 0-5-2.239-5-5s2.239-5 5-5h230c2.762 0 5 2.239 5 5s-2.238 5-5 5z"/><path d="m292.5 197.5c-2.762 0-5-2.239-5-5v-80c0-2.761 2.238-5 5-5s5 2.239 5 5v80c0 2.761-2.238 5-5 5z"/><path d="m117.5 92.5c-11.028 0-20-8.972-20-20s8.972-20 20-20 20 8.972 20 20-8.972 20-20 20zm0-30c-5.514 0-10 4.486-10 10s4.486 10 10 10 10-4.486 10-10-4.486-10-10-10z"/><path d="m395 87.5c-15.164 0-27.5-12.336-27.5-27.5s12.336-27.5 27.5-27.5 27.5 12.336 27.5 27.5-12.336 27.5-27.5 27.5zm0-45c-9.649 0-17.5 7.851-17.5 17.5s7.851 17.5 17.5 17.5 17.5-7.851 17.5-17.5-7.851-17.5-17.5-17.5z"/><path d="m412.5 447.5h-310c-2.761 0-5-2.238-5-5v-210c0-2.761 2.239-5 5-5h310c2.762 0 5 2.239 5 5v210c0 2.762-2.238 5-5 5zm-305-10h300v-200h-300z"/><path d="m425.34 487.5h-335.67c-17.739 0-32.17-14.432-32.17-32.17v-315.66c0-17.739 14.431-32.17 32.17-32.17h335.67c17.733 0 32.16 14.431 32.16 32.17v315.66c0 17.738-14.427 32.17-32.16 32.17zm-335.67-370c-12.225 0-22.17 9.945-22.17 22.17v315.66c0 12.225 9.945 22.17 22.17 22.17h335.67c12.219 0 22.16-9.945 22.16-22.17v-315.66c0-12.225-9.941-22.17-22.16-22.17z"/><path d="m387.5 317.5h-260c-2.761 0-5-2.238-5-5v-55c0-2.761 2.239-5 5-5h260c2.762 0 5 2.239 5 5v55c0 2.762-2.238 5-5 5zm-255-10h250v-45h-250z"/><path d="m162.5 367.5h-30c-2.761 0-5-2.238-5-5v-30c0-2.762 2.239-5 5-5h30c2.761 0 5 2.238 5 5v30c0 2.762-2.239 5-5 5zm-25-10h20v-20h-20z"/><path d="m217.5 367.5h-30c-2.761 0-5-2.238-5-5v-30c0-2.762 2.239-5 5-5h30c2.761 0 5 2.238 5 5v30c0 2.762-2.239 5-5 5zm-25-10h20v-20h-20z"/><path d="m272.5 367.5h-30c-2.761 0-5-2.238-5-5v-30c0-2.762 2.239-5 5-5h30c2.762 0 5 2.238 5 5v30c0 2.762-2.238 5-5 5zm-25-10h20v-20h-20z"/><path d="m327.5 367.5h-30c-2.762 0-5-2.238-5-5v-30c0-2.762 2.238-5 5-5h30c2.762 0 5 2.238 5 5v30c0 2.762-2.238 5-5 5zm-25-10h20v-20h-20z"/><path d="m382.5 367.5h-30c-2.762 0-5-2.238-5-5v-30c0-2.762 2.238-5 5-5h30c2.762 0 5 2.238 5 5v30c0 2.762-2.238 5-5 5zm-25-10h20v-20h-20z"/><path d="m162.5 417.5h-30c-2.761 0-5-2.238-5-5v-30c0-2.762 2.239-5 5-5h30c2.761 0 5 2.238 5 5v30c0 2.762-2.239 5-5 5zm-25-10h20v-20h-20z"/><path d="m217.5 417.5h-30c-2.761 0-5-2.238-5-5v-30c0-2.762 2.239-5 5-5h30c2.761 0 5 2.238 5 5v30c0 2.762-2.239 5-5 5zm-25-10h20v-20h-20z"/><path d="m272.5 417.5h-30c-2.761 0-5-2.238-5-5v-30c0-2.762 2.239-5 5-5h30c2.762 0 5 2.238 5 5v30c0 2.762-2.238 5-5 5zm-25-10h20v-20h-20z"/><path d="m327.5 417.5h-30c-2.762 0-5-2.238-5-5v-30c0-2.762 2.238-5 5-5h30c2.762 0 5 2.238 5 5v30c0 2.762-2.238 5-5 5zm-25-10h20v-20h-20z"/><path d="m382.5 417.5h-30c-2.762 0-5-2.238-5-5v-30c0-2.762 2.238-5 5-5h30c2.762 0 5 2.238 5 5v30c0 2.762-2.238 5-5 5zm-25-10h20v-20h-20z"/></g></g></svg>