<svg enable-background="new 0 0 520 520" height="512" viewBox="0 0 520 520" width="512" xmlns="http://www.w3.org/2000/svg"><g id="_x34_54_x2C__Hosting_x2C__Rack_x2C__Server"><g><g fill="#57606f"><path d="m431.34 370h-18.84-300-18.83c-8.93 0-16.17 7.24-16.17 16.17v47.66c0 8.93 7.24 16.17 16.17 16.17h18.83 300 18.84c8.93 0 16.16-7.24 16.16-16.17v-47.66c0-8.93-7.23-16.17-16.16-16.17z"/><path d="m431.34 260h-18.84-300-18.83c-8.93 0-16.17 7.24-16.17 16.17v47.66c0 8.93 7.24 16.17 16.17 16.17h18.83 300 18.84c8.93 0 16.16-7.24 16.16-16.17v-47.66c0-8.93-7.23-16.17-16.16-16.17z"/><path d="m431.34 150h-18.84-300-18.83c-8.93 0-16.17 7.24-16.17 16.17v47.66c0 8.93 7.24 16.17 16.17 16.17h18.83 300 18.84c8.93 0 16.16-7.24 16.16-16.17v-47.66c0-8.93-7.23-16.17-16.16-16.17z"/><path d="m431.34 40h-337.67c-8.93 0-16.17 7.24-16.17 16.17v47.66c0 8.93 7.24 16.17 16.17 16.17h18.83 300 18.84c8.93 0 16.16-7.24 16.16-16.17v-47.66c0-8.93-7.23-16.17-16.16-16.17z"/></g><path d="m470 115c9.67 0 17.5 7.83 17.5 17.5s-7.83 17.5-17.5 17.5c-9.66 0-17.5-7.83-17.5-17.5s7.84-17.5 17.5-17.5z" fill="#bdf9ff"/><path d="m47.5 355c8.29 0 15 6.72 15 15s-6.71 15-15 15c-8.28 0-15-6.72-15-15s6.72-15 15-15z" fill="#bdf9ff"/><path d="m172.5 395c8.29 0 15 6.72 15 15s-6.71 15-15 15c-8.28 0-15-6.72-15-15s6.72-15 15-15z" fill="#68ca44"/><path d="m172.5 285c8.29 0 15 6.72 15 15s-6.71 15-15 15c-8.28 0-15-6.72-15-15s6.72-15 15-15z" fill="#68ca44"/><path d="m172.5 175c8.29 0 15 6.72 15 15s-6.71 15-15 15c-8.28 0-15-6.72-15-15s6.72-15 15-15z" fill="#68ca44"/><path d="m172.5 65c8.29 0 15 6.72 15 15s-6.71 15-15 15c-8.28 0-15-6.72-15-15s6.72-15 15-15z" fill="#68ca44"/><path d="m157.5 410c0 8.28-6.71 15-15 15-8.28 0-15-6.72-15-15s6.72-15 15-15c8.29 0 15 6.72 15 15z" fill="#ffd54f"/><path d="m157.5 300c0 8.28-6.71 15-15 15-8.28 0-15-6.72-15-15s6.72-15 15-15c8.29 0 15 6.72 15 15z" fill="#ffd54f"/><path d="m157.5 190c0 8.28-6.71 15-15 15-8.28 0-15-6.72-15-15s6.72-15 15-15c8.29 0 15 6.72 15 15z" fill="#ffd54f"/><path d="m157.5 80c0 8.28-6.71 15-15 15-8.28 0-15-6.72-15-15s6.72-15 15-15c8.29 0 15 6.72 15 15z" fill="#ffd54f"/><path d="m127.5 410c0 8.28-6.71 15-15 15-8.28 0-15-6.72-15-15s6.72-15 15-15c8.29 0 15 6.72 15 15z" fill="#fb2b3a"/><path d="m127.5 300c0 8.28-6.71 15-15 15-8.28 0-15-6.72-15-15s6.72-15 15-15c8.29 0 15 6.72 15 15z" fill="#fb2b3a"/><path d="m127.5 190c0 8.28-6.71 15-15 15-8.28 0-15-6.72-15-15s6.72-15 15-15c8.29 0 15 6.72 15 15z" fill="#fb2b3a"/><path d="m127.5 80c0 8.28-6.71 15-15 15-8.28 0-15-6.72-15-15s6.72-15 15-15c8.29 0 15 6.72 15 15z" fill="#fb2b3a"/><path d="m112.5 120h300v30h-300z" fill="#313a52"/><path d="m112.5 230h300v30h-300z" fill="#313a52"/><path d="m112.5 340h300v30h-300z" fill="#313a52"/><path d="m112.5 450h300v30h-300z" fill="#313a52"/><path d="m475 60c4.15 0 7.5 3.36 7.5 7.5s-3.35 7.5-7.5 7.5c-4.141 0-7.5-3.36-7.5-7.5s3.359-7.5 7.5-7.5z"/><path d="m475 240c4.15 0 7.5 3.36 7.5 7.5s-3.35 7.5-7.5 7.5c-4.141 0-7.5-3.36-7.5-7.5s3.359-7.5 7.5-7.5z"/><path d="m465 460c4.15 0 7.5 3.36 7.5 7.5s-3.35 7.5-7.5 7.5c-4.141 0-7.5-3.36-7.5-7.5s3.359-7.5 7.5-7.5z"/><path d="m55 245c4.15 0 7.5 3.36 7.5 7.5s-3.35 7.5-7.5 7.5c-4.14 0-7.5-3.36-7.5-7.5s3.36-7.5 7.5-7.5z"/><path d="m55 445c4.15 0 7.5 3.36 7.5 7.5s-3.35 7.5-7.5 7.5c-4.14 0-7.5-3.36-7.5-7.5s3.36-7.5 7.5-7.5z"/><path d="m40 65c4.15 0 7.5 3.36 7.5 7.5s-3.35 7.5-7.5 7.5c-4.14 0-7.5-3.36-7.5-7.5s3.36-7.5 7.5-7.5z"/><path d="m112.5 455h-18.83c-11.673 0-21.17-9.497-21.17-21.17v-47.66c0-11.673 9.497-21.17 21.17-21.17h18.83c2.761 0 5 2.238 5 5s-2.239 5-5 5h-18.83c-6.159 0-11.17 5.011-11.17 11.17v47.66c0 6.159 5.011 11.17 11.17 11.17h18.83c2.761 0 5 2.238 5 5s-2.239 5-5 5z"/><path d="m431.34 455h-18.84c-2.762 0-5-2.238-5-5s2.238-5 5-5h18.84c6.154 0 11.16-5.011 11.16-11.17v-47.66c0-6.159-5.006-11.17-11.16-11.17h-18.84c-2.762 0-5-2.238-5-5s2.238-5 5-5h18.84c11.668 0 21.16 9.497 21.16 21.17v47.66c0 11.673-9.492 21.17-21.16 21.17z"/><path d="m412.5 485h-300c-2.761 0-5-2.238-5-5v-30c0-2.762 2.239-5 5-5h300c2.762 0 5 2.238 5 5v30c0 2.762-2.238 5-5 5zm-295-10h290v-20h-290z"/><path d="m112.5 430c-11.028 0-20-8.972-20-20s8.972-20 20-20 20 8.972 20 20-8.972 20-20 20zm0-30c-5.514 0-10 4.486-10 10s4.486 10 10 10 10-4.486 10-10-4.486-10-10-10z"/><path d="m142.5 430c-11.028 0-20-8.972-20-20s8.972-20 20-20 20 8.972 20 20-8.972 20-20 20zm0-30c-5.514 0-10 4.486-10 10s4.486 10 10 10 10-4.486 10-10-4.486-10-10-10z"/><path d="m172.5 430c-11.028 0-20-8.972-20-20s8.972-20 20-20 20 8.972 20 20-8.972 20-20 20zm0-30c-5.514 0-10 4.486-10 10s4.486 10 10 10 10-4.486 10-10-4.486-10-10-10z"/><path d="m392.5 415h-120c-2.762 0-5-2.238-5-5s2.238-5 5-5h120c2.762 0 5 2.238 5 5s-2.238 5-5 5z"/><path d="m112.5 345h-18.83c-11.673 0-21.17-9.497-21.17-21.17v-47.66c0-11.673 9.497-21.17 21.17-21.17h18.83c2.761 0 5 2.238 5 5s-2.239 5-5 5h-18.83c-6.159 0-11.17 5.011-11.17 11.17v47.66c0 6.159 5.011 11.17 11.17 11.17h18.83c2.761 0 5 2.238 5 5s-2.239 5-5 5z"/><path d="m431.34 345h-18.84c-2.762 0-5-2.238-5-5s2.238-5 5-5h18.84c6.154 0 11.16-5.011 11.16-11.17v-47.66c0-6.159-5.006-11.17-11.16-11.17h-18.84c-2.762 0-5-2.238-5-5s2.238-5 5-5h18.84c11.668 0 21.16 9.497 21.16 21.17v47.66c0 11.673-9.492 21.17-21.16 21.17z"/><path d="m412.5 375h-300c-2.761 0-5-2.238-5-5v-30c0-2.762 2.239-5 5-5h300c2.762 0 5 2.238 5 5v30c0 2.762-2.238 5-5 5zm-295-10h290v-20h-290z"/><path d="m112.5 320c-11.028 0-20-8.972-20-20s8.972-20 20-20 20 8.972 20 20-8.972 20-20 20zm0-30c-5.514 0-10 4.486-10 10s4.486 10 10 10 10-4.486 10-10-4.486-10-10-10z"/><path d="m142.5 320c-11.028 0-20-8.972-20-20s8.972-20 20-20 20 8.972 20 20-8.972 20-20 20zm0-30c-5.514 0-10 4.486-10 10s4.486 10 10 10 10-4.486 10-10-4.486-10-10-10z"/><path d="m172.5 320c-11.028 0-20-8.972-20-20s8.972-20 20-20 20 8.972 20 20-8.972 20-20 20zm0-30c-5.514 0-10 4.486-10 10s4.486 10 10 10 10-4.486 10-10-4.486-10-10-10z"/><path d="m392.5 305h-120c-2.762 0-5-2.238-5-5s2.238-5 5-5h120c2.762 0 5 2.238 5 5s-2.238 5-5 5z"/><path d="m112.5 235h-18.83c-11.673 0-21.17-9.497-21.17-21.17v-47.66c0-11.673 9.497-21.17 21.17-21.17h18.83c2.761 0 5 2.239 5 5s-2.239 5-5 5h-18.83c-6.159 0-11.17 5.011-11.17 11.17v47.66c0 6.159 5.011 11.17 11.17 11.17h18.83c2.761 0 5 2.239 5 5s-2.239 5-5 5z"/><path d="m431.34 235h-18.84c-2.762 0-5-2.239-5-5s2.238-5 5-5h18.84c6.154 0 11.16-5.011 11.16-11.17v-47.66c0-6.159-5.006-11.17-11.16-11.17h-18.84c-2.762 0-5-2.239-5-5s2.238-5 5-5h18.84c11.668 0 21.16 9.497 21.16 21.17v47.66c0 11.673-9.492 21.17-21.16 21.17z"/><path d="m412.5 265h-300c-2.761 0-5-2.238-5-5v-30c0-2.761 2.239-5 5-5h300c2.762 0 5 2.239 5 5v30c0 2.762-2.238 5-5 5zm-295-10h290v-20h-290z"/><path d="m112.5 210c-11.028 0-20-8.972-20-20s8.972-20 20-20 20 8.972 20 20-8.972 20-20 20zm0-30c-5.514 0-10 4.486-10 10s4.486 10 10 10 10-4.486 10-10-4.486-10-10-10z"/><path d="m142.5 210c-11.028 0-20-8.972-20-20s8.972-20 20-20 20 8.972 20 20-8.972 20-20 20zm0-30c-5.514 0-10 4.486-10 10s4.486 10 10 10 10-4.486 10-10-4.486-10-10-10z"/><path d="m172.5 210c-11.028 0-20-8.972-20-20s8.972-20 20-20 20 8.972 20 20-8.972 20-20 20zm0-30c-5.514 0-10 4.486-10 10s4.486 10 10 10 10-4.486 10-10-4.486-10-10-10z"/><path d="m392.5 195h-120c-2.762 0-5-2.239-5-5s2.238-5 5-5h120c2.762 0 5 2.239 5 5s-2.238 5-5 5z"/><path d="m431.34 125h-18.84c-2.762 0-5-2.239-5-5s2.238-5 5-5h18.84c6.154 0 11.16-5.011 11.16-11.17v-47.66c0-6.159-5.006-11.17-11.16-11.17h-337.67c-6.159 0-11.17 5.011-11.17 11.17v47.66c0 6.159 5.011 11.17 11.17 11.17h18.83c2.761 0 5 2.239 5 5s-2.239 5-5 5h-18.83c-11.673 0-21.17-9.497-21.17-21.17v-47.66c0-11.673 9.497-21.17 21.17-21.17h337.67c11.668 0 21.16 9.497 21.16 21.17v47.66c0 11.673-9.492 21.17-21.16 21.17z"/><path d="m412.5 155h-300c-2.761 0-5-2.239-5-5v-30c0-2.761 2.239-5 5-5h300c2.762 0 5 2.239 5 5v30c0 2.761-2.238 5-5 5zm-295-10h290v-20h-290z"/><path d="m112.5 100c-11.028 0-20-8.972-20-20s8.972-20 20-20 20 8.972 20 20-8.972 20-20 20zm0-30c-5.514 0-10 4.486-10 10s4.486 10 10 10 10-4.486 10-10-4.486-10-10-10z"/><path d="m142.5 100c-11.028 0-20-8.972-20-20s8.972-20 20-20 20 8.972 20 20-8.972 20-20 20zm0-30c-5.514 0-10 4.486-10 10s4.486 10 10 10 10-4.486 10-10-4.486-10-10-10z"/><path d="m172.5 100c-11.028 0-20-8.972-20-20s8.972-20 20-20 20 8.972 20 20-8.972 20-20 20zm0-30c-5.514 0-10 4.486-10 10s4.486 10 10 10 10-4.486 10-10-4.486-10-10-10z"/><path d="m392.5 85h-120c-2.762 0-5-2.239-5-5s2.238-5 5-5h120c2.762 0 5 2.239 5 5s-2.238 5-5 5z"/><path d="m47.5 390c-11.028 0-20-8.972-20-20s8.972-20 20-20 20 8.972 20 20-8.972 20-20 20zm0-30c-5.514 0-10 4.486-10 10s4.486 10 10 10 10-4.486 10-10-4.486-10-10-10z"/><path d="m470 375c-9.649 0-17.5-7.851-17.5-17.5s7.851-17.5 17.5-17.5 17.5 7.851 17.5 17.5-7.851 17.5-17.5 17.5zm0-25c-4.136 0-7.5 3.364-7.5 7.5s3.364 7.5 7.5 7.5 7.5-3.364 7.5-7.5-3.364-7.5-7.5-7.5z"/><path d="m470 155c-12.406 0-22.5-10.093-22.5-22.5s10.094-22.5 22.5-22.5 22.5 10.093 22.5 22.5-10.094 22.5-22.5 22.5zm0-35c-6.893 0-12.5 5.607-12.5 12.5s5.607 12.5 12.5 12.5 12.5-5.607 12.5-12.5-5.607-12.5-12.5-12.5z"/></g></g></svg>