<svg enable-background="new 0 0 520 520" height="512" viewBox="0 0 520 520" width="512" xmlns="http://www.w3.org/2000/svg"><g id="_x34_55_x2C__Gps_x2C__Location_x2C__Map"><g><path d="m375 35c16.57 0 30 13.43 30 30s-13.43 30-30 30c-16.561 0-30-13.43-30-30s13.439-30 30-30z" fill="#ff5622"/><path d="m145 65c8.29 0 15 6.72 15 15s-6.71 15-15 15c-8.28 0-15-6.72-15-15s6.72-15 15-15z" fill="#ff5622"/><path d="m360 145-100-40-100 40-100-40v340l100 40 100-40 100 40 100-40c0-111.543 0-212.023 0-340z" fill="#bdf9ff"/><path d="m460 255v50l-100 40v-50z" fill="#4aa525"/><path d="m360 295v50l-100-40v-50z" fill="#68ca44"/><path d="m260 255v50l-100 40-100-40v-50l100 40z" fill="#4aa525"/><path d="m460 305v140l-100 40v-140z" fill="#8cf2ff"/><path d="m460 105v150l-100 40v-150z" fill="#8cf2ff"/><path d="m452.5 45c4.15 0 7.5 3.36 7.5 7.5s-3.35 7.5-7.5 7.5c-4.141 0-7.5-3.36-7.5-7.5s3.359-7.5 7.5-7.5z"/><path d="m307.5 35c4.15 0 7.5 3.36 7.5 7.5s-3.35 7.5-7.5 7.5c-4.141 0-7.5-3.36-7.5-7.5s3.359-7.5 7.5-7.5z"/><path d="m260 305v140l-100 40v-140z" fill="#8cf2ff"/><path d="m260 105v150l-100 40v-150z" fill="#8cf2ff"/><path d="m212.5 75c4.15 0 7.5 3.36 7.5 7.5s-3.35 7.5-7.5 7.5c-4.14 0-7.5-3.36-7.5-7.5s3.36-7.5 7.5-7.5z"/><path d="m67.5 50c4.15 0 7.5 3.36 7.5 7.5s-3.35 7.5-7.5 7.5c-4.14 0-7.5-3.36-7.5-7.5s3.36-7.5 7.5-7.5z"/><path d="m359.998 150.001c-.617 0-1.246-.115-1.855-.359l-100-40c-2.563-1.026-3.811-3.936-2.785-6.5 1.025-2.564 3.935-3.812 6.5-2.786l100 40c2.563 1.026 3.811 3.936 2.785 6.5-.783 1.956-2.661 3.145-4.645 3.145z"/><path d="m359.998 490c-.617 0-1.246-.115-1.855-.357l-100-40c-2.563-1.025-3.811-3.936-2.785-6.5s3.935-3.811 6.5-2.785l100 40c2.563 1.025 3.811 3.936 2.785 6.5-.783 1.953-2.661 3.142-4.645 3.142z"/><path d="m360 300c-2.762 0-5-2.238-5-5v-150c0-2.044 1.244-3.883 3.143-4.643l100-40c1.541-.616 3.287-.427 4.66.502 1.374.93 2.197 2.481 2.197 4.14v150c0 2.762-2.238 5-5 5s-5-2.238-5-5v-142.614l-90 36v146.615c0 2.762-2.238 5-5 5z"/><path d="m360 490c-.985 0-1.963-.291-2.803-.859-1.374-.932-2.197-2.483-2.197-4.141v-140c0-2.762 2.238-5 5-5s5 2.238 5 5v132.615l90-36v-136.615c0-2.762 2.238-5 5-5s5 2.238 5 5v140c0 2.045-1.244 3.883-3.143 4.643l-100 40c-.599.238-1.23.357-1.857.357z"/><path d="m359.998 300c-.617 0-1.246-.115-1.855-.357l-100-40c-2.563-1.025-3.811-3.936-2.785-6.5 1.025-2.563 3.935-3.812 6.5-2.785l100 40c2.563 1.025 3.811 3.936 2.785 6.5-.783 1.953-2.661 3.142-4.645 3.142z"/><path d="m359.998 350c-.617 0-1.246-.115-1.855-.357l-100-40c-2.563-1.025-3.811-3.936-2.785-6.5s3.935-3.811 6.5-2.785l100 40c2.563 1.025 3.811 3.936 2.785 6.5-.783 1.953-2.661 3.142-4.645 3.142z"/><path d="m360 350c-.985 0-1.963-.291-2.803-.859-1.374-.932-2.197-2.483-2.197-4.141v-50c0-2.045 1.244-3.883 3.143-4.643l100-40c1.541-.616 3.287-.427 4.66.502 1.374.93 2.197 2.481 2.197 4.14v50c0 2.045-1.244 3.883-3.143 4.643l-100 40c-.599.239-1.23.358-1.857.358zm5-51.615v39.23l90-36v-39.23z"/><path d="m159.999 490c-.618 0-1.247-.115-1.855-.357l-100-40c-1.899-.76-3.144-2.598-3.144-4.643v-140c0-2.762 2.239-5 5-5s5 2.238 5 5v136.615l96.857 38.742c2.564 1.025 3.811 3.936 2.786 6.5-.783 1.954-2.661 3.143-4.644 3.143z"/><path d="m60 260c-2.761 0-5-2.238-5-5v-150c0-1.659.823-3.21 2.197-4.14s3.12-1.117 4.66-.502l100 40c2.564 1.026 3.811 3.936 2.786 6.5-1.026 2.563-3.937 3.81-6.5 2.786l-93.143-37.259v142.615c0 2.762-2.239 5-5 5z"/><path d="m160 490c-.986 0-1.964-.291-2.804-.859-1.373-.932-2.196-2.483-2.196-4.141v-140c0-2.762 2.239-5 5-5s5 2.238 5 5v132.615l90-36v-136.615c0-2.762 2.238-5 5-5s5 2.238 5 5v140c0 2.045-1.244 3.883-3.143 4.643l-100 40c-.599.238-1.23.357-1.857.357z"/><path d="m160 300c-2.761 0-5-2.238-5-5v-150c0-2.044 1.245-3.883 3.143-4.643l100-40c1.541-.616 3.286-.427 4.66.502 1.374.93 2.197 2.481 2.197 4.14v150c0 2.762-2.238 5-5 5s-5-2.238-5-5v-142.614l-90 36v146.615c0 2.762-2.239 5-5 5z"/><path d="m375 100c-19.299 0-35-15.701-35-35s15.701-35 35-35 35 15.701 35 35-15.701 35-35 35zm0-60c-13.785 0-25 11.215-25 25s11.215 25 25 25 25-11.215 25-25-11.215-25-25-25z"/><path d="m145 100c-11.028 0-20-8.972-20-20s8.972-20 20-20 20 8.972 20 20-8.972 20-20 20zm0-30c-5.514 0-10 4.486-10 10s4.486 10 10 10 10-4.486 10-10-4.486-10-10-10z"/><path d="m160 350c-.63 0-1.261-.119-1.857-.357l-100-40c-1.898-.76-3.143-2.598-3.143-4.643v-50c0-1.659.823-3.21 2.197-4.14 1.375-.93 3.121-1.117 4.66-.502l98.143 39.257 98.143-39.258c1.541-.616 3.286-.429 4.66.502 1.374.93 2.197 2.481 2.197 4.14v50c0 2.045-1.244 3.883-3.143 4.643l-100 40c-.596.239-1.227.358-1.857.358zm-95-48.385 95 38 95-38v-39.23l-93.143 37.258c-1.192.477-2.521.477-3.714 0l-93.143-37.258z"/><path d="m185.001 260c-1.984 0-3.862-1.189-4.644-3.143-1.025-2.564.222-5.474 2.786-6.5l50-20c2.563-1.024 5.474.222 6.5 2.786 1.025 2.564-.222 5.474-2.786 6.5l-50 20c-.609.242-1.237.357-1.856.357z"/><path d="m390.002 370c-1.984 0-3.862-1.189-4.645-3.143-1.025-2.564.222-5.475 2.785-6.5l50-20c2.563-1.025 5.475.223 6.5 2.785 1.025 2.564-.222 5.475-2.785 6.5l-50 20c-.609.243-1.238.358-1.855.358z"/></g></g></svg>