<svg enable-background="new 0 0 520 520" height="512" viewBox="0 0 520 520" width="512" xmlns="http://www.w3.org/2000/svg"><g id="_x34_56_x2C__Headset_x2C__Help_x2C__Support"><g><path d="m432.5 75c16.57 0 30 13.43 30 30s-13.43 30-30 30c-16.561 0-30-13.43-30-30s13.439-30 30-30z" fill="#313a52"/><path d="m87.5 425c11.05 0 20 8.95 20 20s-8.95 20-20 20c-11.04 0-20-8.95-20-20s8.96-20 20-20z" fill="#313a52"/><g fill="#414a56"><path d="m372.47 207.23h-27.74c0-42.65-34.58-77.23-77.23-77.23-21.33 0-40.63 8.64-54.6 22.62-13.98 13.98-22.62 33.28-22.62 54.61h-27.75c1.47-56.71 47.91-102.23 104.97-102.23 28.99 0 55.25 11.75 74.25 30.75 18.39 18.4 29.99 43.58 30.72 71.48z"/><path d="m372.5 225h30v25h-30z"/><path d="m132.5 225h30v25h-30z"/></g><path d="m402.5 290v.06c-.82-.04-1.66-.06-2.5-.06h-27.5v-40h30z" fill="#57606f"/><path d="m162.5 294.02h.03c-.02.32-.03.65-.03.98h-27.5c-.84 0-1.67.02-2.5.06v-.06-45h30z" fill="#57606f"/><path d="m162.53 207.23c-.02.92-.03 1.84-.03 2.77v15h-30v-15c0-37.28 15.11-71.03 39.54-95.46s58.19-39.54 95.46-39.54c74.56 0 135 60.44 135 135v15h-30v-15c0-.93-.01-1.85-.03-2.77-.729-27.9-12.33-53.08-30.72-71.48-19-19-45.26-30.75-74.25-30.75-57.06 0-103.5 45.52-104.97 102.23z" fill="#57606f"/><path d="m402.5 290.06c25.08 1.311 45 22.051 45 47.44 0 13.12-5.311 24.99-13.91 33.59-8.6 8.59-20.471 13.91-33.59 13.91h-27.5v-90.98-4.02h27.5c.84 0 1.68.02 2.5.06z" fill="#b70422"/><path d="m162.5 295v95h-27.5c-13.11 0-24.99-5.32-33.59-13.91-8.59-8.6-13.91-20.47-13.91-33.59 0-25.39 19.93-46.13 45-47.44.83-.04 1.66-.06 2.5-.06z" fill="#b70422"/><path d="m342.5 415c-16.561 0-30-13.43-30-30v-95c0-16.57 13.439-30 30-30 8.289 0 15.789 3.36 21.21 8.79 5.43 5.43 8.79 12.93 8.79 21.21v4.02 90.98c0 16.57-13.43 30-30 30z" fill="#fb2b3a"/><path d="m222.5 390c0 16.57-13.43 30-30 30-16.56 0-30-13.43-30-30v-95c0-.33.01-.66.03-.98.24-7.89 3.55-15.02 8.76-20.229 5.43-5.43 12.93-8.79 21.21-8.79 16.57 0 30 13.43 30 30z" fill="#fb2b3a"/><path d="m460 185c4.15 0 7.5 3.36 7.5 7.5s-3.35 7.5-7.5 7.5c-4.141 0-7.5-3.36-7.5-7.5s3.359-7.5 7.5-7.5z"/><path d="m445 405c4.15 0 7.5 3.36 7.5 7.5s-3.35 7.5-7.5 7.5c-4.141 0-7.5-3.36-7.5-7.5s3.359-7.5 7.5-7.5z"/><path d="m365 470c4.15 0 7.5 3.36 7.5 7.5s-3.35 7.5-7.5 7.5c-4.141 0-7.5-3.36-7.5-7.5s3.359-7.5 7.5-7.5z"/><path d="m340 35c4.15 0 7.5 3.36 7.5 7.5s-3.35 7.5-7.5 7.5c-4.141 0-7.5-3.36-7.5-7.5s3.359-7.5 7.5-7.5z"/><path d="m165 55c4.15 0 7.5 3.36 7.5 7.5s-3.35 7.5-7.5 7.5c-4.14 0-7.5-3.36-7.5-7.5s3.36-7.5 7.5-7.5z"/><path d="m75 205c4.15 0 7.5 3.36 7.5 7.5s-3.35 7.5-7.5 7.5c-4.14 0-7.5-3.36-7.5-7.5s3.36-7.5 7.5-7.5z"/><path d="m60 365c4.15 0 7.5 3.36 7.5 7.5s-3.35 7.5-7.5 7.5c-4.14 0-7.5-3.36-7.5-7.5s3.36-7.5 7.5-7.5z"/><path d="m400 390h-27.5c-2.762 0-5-2.238-5-5s2.238-5 5-5h27.5c11.346 0 22.02-4.421 30.057-12.448 8.023-8.022 12.443-18.696 12.443-30.052 0-22.622-17.685-41.268-40.261-42.447-.723-.035-1.481-.053-2.239-.053h-27.5c-2.762 0-5-2.238-5-5s2.238-5 5-5h27.5c.93 0 1.854.022 2.744.065 27.908 1.458 49.756 24.49 49.756 52.435 0 14.026-5.46 27.212-15.375 37.125-9.927 9.916-23.111 15.375-37.125 15.375z"/><path d="m402.5 230h-30c-2.762 0-5-2.239-5-5s2.238-5 5-5h30c2.762 0 5 2.239 5 5s-2.238 5-5 5z"/><path d="m162.5 230h-30c-2.761 0-5-2.239-5-5s2.239-5 5-5h30c2.761 0 5 2.239 5 5s-2.239 5-5 5z"/><path d="m402.5 255h-30c-2.762 0-5-2.239-5-5s2.238-5 5-5h30c2.762 0 5 2.239 5 5s-2.238 5-5 5z"/><path d="m162.5 255h-30c-2.761 0-5-2.239-5-5s2.239-5 5-5h30c2.761 0 5 2.239 5 5s-2.239 5-5 5z"/><path d="m342.5 420c-2.762 0-5-2.238-5-5v-60c0-2.762 2.238-5 5-5s5 2.238 5 5v60c0 2.762-2.238 5-5 5z"/><path d="m132.5 300c-2.761 0-5-2.238-5-5v-85c0-37.396 14.562-72.553 41.004-98.996 26.442-26.441 61.6-41.004 98.996-41.004 77.196 0 140 62.804 140 140v80c0 2.762-2.238 5-5 5s-5-2.238-5-5v-80c0-71.682-58.318-130-130-130-34.725 0-67.372 13.522-91.925 38.076-24.553 24.553-38.075 57.199-38.075 91.924v85c0 2.762-2.239 5-5 5z"/><path d="m162.5 299.02c-2.761 0-5-2.238-5-5v-84.02c0-.967.01-1.923.031-2.879.747-28.791 12.518-55.721 33.146-75.851 20.664-20.165 47.947-31.27 76.823-31.27 29.387 0 57.012 11.44 77.785 32.214 20.014 20.025 31.443 46.62 32.183 74.885.021.978.032 1.934.032 2.901v80c0 2.762-2.238 5-5 5s-5-2.238-5-5v-80c0-.894-.01-1.777-.029-2.661-.672-25.672-11.063-49.849-29.258-68.054-18.883-18.885-43.997-29.285-70.713-29.285-54.644 0-98.557 42.766-99.972 97.359-.019.863-.028 1.747-.028 2.641v84.02c0 2.761-2.239 5-5 5z"/><path d="m372.5 212.23h-27.77c-2.762 0-5-2.239-5-5 0-39.828-32.402-72.23-72.23-72.23-19.297 0-37.432 7.513-51.063 21.154-13.644 13.644-21.157 31.782-21.157 51.076 0 2.761-2.239 5-5 5h-27.75c-2.761 0-5.015-2.239-5.015-5s2.224-5 4.985-5h22.928c1.196-20.084 9.589-38.798 23.936-53.146 15.52-15.53 36.166-24.084 58.136-24.084 43.662 0 79.485 34.209 82.08 77.23h22.89c2.761 0 5.015 2.239 5.015 5s-2.223 5-4.985 5z"/><path d="m162.5 395h-27.5c-14.015 0-27.199-5.459-37.124-15.372-9.917-9.929-15.376-23.112-15.376-37.128 0-27.944 21.848-50.976 49.739-52.434.93-.045 1.84-.066 2.761-.066h27.5c2.761 0 5 2.238 5 5s-2.239 5-5 5h-27.5c-.759 0-1.509.018-2.259.054-22.556 1.179-40.241 19.824-40.241 42.446 0 11.347 4.42 22.021 12.447 30.057 8.033 8.022 18.707 12.443 30.053 12.443h27.5c2.761 0 5 2.238 5 5s-2.239 5-5 5z"/><path d="m192.5 425c-2.761 0-5-2.238-5-5v-60c0-2.762 2.239-5 5-5s5 2.238 5 5v60c0 2.762-2.239 5-5 5z"/><path d="m342.5 420c-19.299 0-35-15.701-35-35v-95c0-19.299 15.701-35 35-35 9.355 0 18.145 3.643 24.748 10.258 6.61 6.609 10.252 15.397 10.252 24.742v95c0 19.299-15.701 35-35 35zm0-155c-13.785 0-25 11.215-25 25v95c0 13.785 11.215 25 25 25s25-11.215 25-25v-95c0-6.674-2.602-12.95-7.326-17.675-4.717-4.724-10.992-7.325-17.674-7.325z"/><path d="m192.5 425c-19.299 0-35-15.701-35-35v-95c0-.406.012-.813.035-1.209.289-8.878 3.917-17.233 10.219-23.536 6.613-6.613 15.402-10.255 24.746-10.255 19.299 0 35 15.701 35 35v95c0 19.299-15.701 35-35 35zm0-155c-6.673 0-12.951 2.602-17.675 7.326-4.513 4.513-7.104 10.495-7.297 16.846-.001.053-.004.106-.007.159-.014.219-.02.443-.02.669v95c0 13.785 11.215 25 25 25s25-11.215 25-25v-95c-.001-13.785-11.216-25-25.001-25z"/><path d="m432.5 140c-19.299 0-35-15.701-35-35s15.701-35 35-35 35 15.701 35 35-15.701 35-35 35zm0-60c-13.785 0-25 11.215-25 25s11.215 25 25 25 25-11.215 25-25-11.215-25-25-25z"/><path d="m87.5 470c-13.785 0-25-11.215-25-25s11.215-25 25-25 25 11.215 25 25-11.215 25-25 25zm0-40c-8.271 0-15 6.729-15 15s6.729 15 15 15 15-6.729 15-15-6.729-15-15-15z"/></g></g></svg>