<svg enable-background="new 0 0 520 520" height="512" viewBox="0 0 520 520" width="512" xmlns="http://www.w3.org/2000/svg"><g id="_x34_57_x2C__Focus_x2C__Arrow_x2C__Goal_x2C__Target"><g><path d="m432.5 92.5c8.289 0 15 6.72 15 15s-6.711 15-15 15c-8.28 0-15-6.72-15-15s6.72-15 15-15z" fill="#bdf9ff"/><path d="m82.5 402.5c16.57 0 30 13.43 30 30s-13.43 30-30 30c-16.56 0-30-13.43-30-30s13.44-30 30-30z" fill="#bdf9ff"/><circle cx="253.5" cy="258.5" fill="#fb2b3a" r="70"/><path d="m465 342.5c4.15 0 7.5 3.36 7.5 7.5s-3.35 7.5-7.5 7.5c-4.141 0-7.5-3.36-7.5-7.5s3.359-7.5 7.5-7.5z"/><path d="m450 182.5c4.15 0 7.5 3.36 7.5 7.5s-3.35 7.5-7.5 7.5c-4.141 0-7.5-3.36-7.5-7.5s3.359-7.5 7.5-7.5z"/><path d="m365 437.5c4.15 0 7.5 3.36 7.5 7.5s-3.35 7.5-7.5 7.5c-4.141 0-7.5-3.36-7.5-7.5s3.359-7.5 7.5-7.5z"/><path d="m350 57.5c4.15 0 7.5 3.36 7.5 7.5s-3.35 7.5-7.5 7.5c-4.141 0-7.5-3.36-7.5-7.5s3.359-7.5 7.5-7.5z"/><path d="m185 442.5c4.15 0 7.5 3.36 7.5 7.5s-3.35 7.5-7.5 7.5c-4.14 0-7.5-3.36-7.5-7.5s3.36-7.5 7.5-7.5z"/><path d="m140 52.5c4.15 0 7.5 3.36 7.5 7.5s-3.35 7.5-7.5 7.5c-4.14 0-7.5-3.36-7.5-7.5s3.36-7.5 7.5-7.5z"/><path d="m65 342.5c4.15 0 7.5 3.36 7.5 7.5s-3.35 7.5-7.5 7.5c-4.14 0-7.5-3.36-7.5-7.5s3.36-7.5 7.5-7.5z"/><path d="m60 147.5c4.15 0 7.5 3.36 7.5 7.5s-3.35 7.5-7.5 7.5c-4.14 0-7.5-3.36-7.5-7.5s3.36-7.5 7.5-7.5z"/><path d="m253.5 403.5c-79.953 0-145-65.047-145-145s65.047-145 145-145 145 65.047 145 145-65.047 145-145 145zm0-280c-74.439 0-135 60.561-135 135s60.561 135 135 135 135-60.561 135-135-60.561-135-135-135z"/><path d="m253.5 368.5c-60.654 0-110-49.346-110-110s49.346-110 110-110 110 49.346 110 110-49.346 110-110 110zm0-210c-55.14 0-100 44.86-100 100 0 55.141 44.86 100 100 100 55.141 0 100-44.859 100-100 0-55.14-44.859-100-100-100z"/><path d="m253.5 333.5c-41.355 0-75-33.645-75-75s33.645-75 75-75 75 33.645 75 75-33.645 75-75 75zm0-140c-35.841 0-65 29.159-65 65s29.159 65 65 65c35.842 0 65-29.159 65-65s-29.158-65-65-65z"/><path d="m253.5 211.5c-2.761 0-5-2.239-5-5v-129c0-2.761 2.239-5 5-5s5 2.239 5 5v129c0 2.761-2.239 5-5 5z"/><path d="m253.5 447.5c-2.761 0-5-2.238-5-5v-130c0-2.762 2.239-5 5-5s5 2.238 5 5v130c0 2.762-2.239 5-5 5z"/><path d="m433.5 263.5h-131c-2.762 0-5-2.238-5-5 0-2.761 2.238-5 5-5h131c2.762 0 5 2.239 5 5 0 2.762-2.238 5-5 5z"/><path d="m201.5 263.5h-129c-2.761 0-5-2.238-5-5 0-2.761 2.239-5 5-5h129c2.761 0 5 2.239 5 5 0 2.762-2.239 5-5 5z"/><path d="m281.804 431.001c-2.397 0-4.515-1.73-4.925-4.173-.457-2.724 1.379-5.302 4.104-5.759 69.193-11.616 123.48-65.903 135.086-135.087.457-2.724 3.034-4.568 5.759-4.104 2.724.456 4.561 3.034 4.104 5.758-12.311 73.388-69.896 130.974-143.295 143.294-.28.048-.559.071-.833.071z"/><path d="m86.016 235.191c-.275 0-.553-.023-.833-.07-2.723-.457-4.561-3.035-4.104-5.758 12.309-73.387 69.89-130.972 143.284-143.294 2.723-.456 5.302 1.38 5.759 4.104s-1.38 5.301-4.104 5.759c-69.19 11.616-123.473 65.903-135.077 135.086-.41 2.442-2.527 4.173-4.925 4.173z"/><path d="m225.196 431.001c-.275 0-.554-.023-.833-.07-73.393-12.322-130.974-69.908-143.284-143.294-.457-2.724 1.38-5.302 4.104-5.758 2.726-.466 5.301 1.381 5.758 4.104 11.605 69.184 65.889 123.471 135.077 135.087 2.724.457 4.561 3.035 4.104 5.759-.411 2.442-2.529 4.172-4.926 4.172z"/><path d="m420.994 235.191c-2.398 0-4.516-1.73-4.926-4.174-11.604-69.184-65.891-123.471-135.086-135.086-2.725-.458-4.561-3.036-4.104-5.759.457-2.724 3.035-4.561 5.758-4.104 73.4 12.321 130.985 69.906 143.295 143.294.456 2.724-1.381 5.301-4.104 5.758-.28.048-.558.071-.833.071z"/><path d="m82.5 467.5c-19.299 0-35-15.701-35-35s15.701-35 35-35 35 15.701 35 35-15.701 35-35 35zm0-60c-13.785 0-25 11.215-25 25s11.215 25 25 25 25-11.215 25-25-11.215-25-25-25z"/><path d="m432.5 127.5c-11.027 0-20-8.972-20-20s8.973-20 20-20 20 8.972 20 20-8.973 20-20 20zm0-30c-5.514 0-10 4.486-10 10s4.486 10 10 10 10-4.486 10-10-4.486-10-10-10z"/></g></g></svg>