<svg enable-background="new 0 0 520 520" height="512" viewBox="0 0 520 520" width="512" xmlns="http://www.w3.org/2000/svg"><g id="_x34_58_x2C__Mic_x2C__Recording_x2C__Voice"><g><path d="m410 132.5c13.81 0 25 11.19 25 25s-11.19 25-25 25c-13.801 0-25-11.19-25-25s11.199-25 25-25z" fill="#bdf9ff"/><path d="m90 357.5c16.57 0 30 13.43 30 30s-13.43 30-30 30c-16.56 0-30-13.43-30-30s13.44-30 30-30z" fill="#bdf9ff"/><path d="m282.5 402.5c9.67 0 17.5 7.83 17.5 17.5 0 4.84-1.961 9.21-5.12 12.38-3.17 3.16-7.55 5.12-12.38 5.12h-75c-9.66 0-17.5-7.83-17.5-17.5 0-4.84 1.96-9.21 5.13-12.38 3.16-3.16 7.54-5.12 12.37-5.12h37.5z" fill="#57606f"/><path d="m310 262.5c0 35.9-29.1 65-65 65-35.89 0-65-29.1-65-65v-5-15-15-15h130v15 15 15z" fill="#757d8c"/><path d="m290.96 111.54c-11.761-11.76-28.011-19.04-45.96-19.04-35.89 0-65 29.1-65 65v55h130v-55c0-17.95-7.27-34.2-19.04-45.96z" fill="#757d8c"/><path d="m457.5 97.5c4.15 0 7.5 3.36 7.5 7.5s-3.35 7.5-7.5 7.5c-4.141 0-7.5-3.36-7.5-7.5s3.359-7.5 7.5-7.5z"/><path d="m397.5 302.5c4.15 0 7.5 3.36 7.5 7.5s-3.35 7.5-7.5 7.5c-4.141 0-7.5-3.36-7.5-7.5s3.359-7.5 7.5-7.5z"/><path d="m382.5 437.5c4.15 0 7.5 3.36 7.5 7.5s-3.35 7.5-7.5 7.5c-4.141 0-7.5-3.36-7.5-7.5s3.359-7.5 7.5-7.5z"/><path d="m327.5 57.5c4.15 0 7.5 3.36 7.5 7.5s-3.35 7.5-7.5 7.5c-4.141 0-7.5-3.36-7.5-7.5s3.359-7.5 7.5-7.5z"/><path d="m285 147.5c0-2.76 2.24-5 5-5 2.77 0 5 2.24 5 5s-2.23 5-5 5c-2.76 0-5-2.24-5-5z"/><path d="m285 162.5c0-2.76 2.24-5 5-5 2.77 0 5 2.24 5 5s-2.23 5-5 5c-2.76 0-5-2.24-5-5z"/><path d="m285 177.5c0-2.76 2.24-5 5-5 2.77 0 5 2.24 5 5s-2.23 5-5 5c-2.76 0-5-2.24-5-5z"/><path d="m290 187.5c2.77 0 5 2.24 5 5s-2.23 5-5 5c-2.76 0-5-2.24-5-5s2.24-5 5-5z"/><path d="m270 132.5c0-2.76 2.24-5 5-5 2.77 0 5 2.24 5 5s-2.23 5-5 5c-2.76 0-5-2.24-5-5z"/><path d="m270 147.5c0-2.76 2.24-5 5-5 2.77 0 5 2.24 5 5s-2.23 5-5 5c-2.76 0-5-2.24-5-5z"/><path d="m270 162.5c0-2.76 2.24-5 5-5 2.77 0 5 2.24 5 5s-2.23 5-5 5c-2.76 0-5-2.24-5-5z"/><path d="m275 172.5c2.77 0 5 2.24 5 5s-2.23 5-5 5c-2.76 0-5-2.24-5-5s2.24-5 5-5z"/><path d="m275 187.5c2.77 0 5 2.24 5 5s-2.23 5-5 5c-2.76 0-5-2.24-5-5s2.24-5 5-5z"/><path d="m255 117.5c0-2.76 2.24-5 5-5 2.77 0 5 2.24 5 5s-2.23 5-5 5c-2.76 0-5-2.24-5-5z"/><path d="m255 132.5c0-2.76 2.24-5 5-5 2.77 0 5 2.24 5 5s-2.23 5-5 5c-2.76 0-5-2.24-5-5z"/><path d="m255 147.5c0-2.76 2.24-5 5-5 2.77 0 5 2.24 5 5s-2.23 5-5 5c-2.76 0-5-2.24-5-5z"/><path d="m255 162.5c0-2.76 2.24-5 5-5 2.77 0 5 2.24 5 5s-2.23 5-5 5c-2.76 0-5-2.24-5-5z"/><path d="m255 177.5c0-2.76 2.24-5 5-5 2.77 0 5 2.24 5 5s-2.23 5-5 5c-2.76 0-5-2.24-5-5z"/><path d="m255 192.5c0-2.76 2.24-5 5-5 2.77 0 5 2.24 5 5s-2.23 5-5 5c-2.76 0-5-2.24-5-5z"/><path d="m240 117.5c0-2.76 2.24-5 5-5 2.77 0 5 2.24 5 5s-2.23 5-5 5c-2.76 0-5-2.24-5-5z"/><path d="m240 132.5c0-2.76 2.24-5 5-5 2.77 0 5 2.24 5 5s-2.23 5-5 5c-2.76 0-5-2.24-5-5z"/><path d="m240 147.5c0-2.76 2.24-5 5-5 2.77 0 5 2.24 5 5s-2.23 5-5 5c-2.76 0-5-2.24-5-5z"/><path d="m240 162.5c0-2.76 2.24-5 5-5 2.77 0 5 2.24 5 5s-2.23 5-5 5c-2.76 0-5-2.24-5-5z"/><path d="m240 177.5c0-2.76 2.24-5 5-5 2.77 0 5 2.24 5 5s-2.23 5-5 5c-2.76 0-5-2.24-5-5z"/><path d="m240 192.5c0-2.76 2.24-5 5-5 2.77 0 5 2.24 5 5s-2.23 5-5 5c-2.76 0-5-2.24-5-5z"/><path d="m225 117.5c0-2.76 2.24-5 5-5 2.77 0 5 2.24 5 5s-2.23 5-5 5c-2.76 0-5-2.24-5-5z"/><path d="m225 132.5c0-2.76 2.24-5 5-5 2.77 0 5 2.24 5 5s-2.23 5-5 5c-2.76 0-5-2.24-5-5z"/><path d="m225 147.5c0-2.76 2.24-5 5-5 2.77 0 5 2.24 5 5s-2.23 5-5 5c-2.76 0-5-2.24-5-5z"/><path d="m235 162.5c0 2.76-2.23 5-5 5-2.76 0-5-2.24-5-5s2.24-5 5-5c2.77 0 5 2.24 5 5z"/><path d="m225 177.5c0-2.76 2.24-5 5-5 2.77 0 5 2.24 5 5s-2.23 5-5 5c-2.76 0-5-2.24-5-5z"/><path d="m225 192.5c0-2.76 2.24-5 5-5 2.77 0 5 2.24 5 5s-2.23 5-5 5c-2.76 0-5-2.24-5-5z"/><path d="m220 132.5c0 2.76-2.23 5-5 5-2.76 0-5-2.24-5-5s2.24-5 5-5c2.77 0 5 2.24 5 5z"/><path d="m220 147.5c0 2.76-2.23 5-5 5-2.76 0-5-2.24-5-5s2.24-5 5-5c2.77 0 5 2.24 5 5z"/><path d="m220 162.5c0 2.76-2.23 5-5 5-2.76 0-5-2.24-5-5s2.24-5 5-5c2.77 0 5 2.24 5 5z"/><path d="m210 177.5c0-2.76 2.24-5 5-5 2.77 0 5 2.24 5 5s-2.23 5-5 5c-2.76 0-5-2.24-5-5z"/><path d="m210 192.5c0-2.76 2.24-5 5-5 2.77 0 5 2.24 5 5s-2.23 5-5 5c-2.76 0-5-2.24-5-5z"/><path d="m195 147.5c0-2.76 2.24-5 5-5 2.77 0 5 2.24 5 5s-2.23 5-5 5c-2.76 0-5-2.24-5-5z"/><path d="m195 162.5c0-2.76 2.24-5 5-5 2.77 0 5 2.24 5 5s-2.23 5-5 5c-2.76 0-5-2.24-5-5z"/><path d="m195 177.5c0-2.76 2.24-5 5-5 2.77 0 5 2.24 5 5s-2.23 5-5 5c-2.76 0-5-2.24-5-5z"/><path d="m195 192.5c0-2.76 2.24-5 5-5 2.77 0 5 2.24 5 5s-2.23 5-5 5c-2.76 0-5-2.24-5-5z"/><path d="m152.5 447.5c4.15 0 7.5 3.36 7.5 7.5s-3.35 7.5-7.5 7.5c-4.14 0-7.5-3.36-7.5-7.5s3.36-7.5 7.5-7.5z"/><path d="m127.5 77.5c4.15 0 7.5 3.36 7.5 7.5s-3.35 7.5-7.5 7.5c-4.14 0-7.5-3.36-7.5-7.5s3.36-7.5 7.5-7.5z"/><path d="m87.5 227.5c4.15 0 7.5 3.36 7.5 7.5s-3.35 7.5-7.5 7.5c-4.14 0-7.5-3.36-7.5-7.5s3.36-7.5 7.5-7.5z"/><path d="m245 332.5c-38.598 0-70-31.402-70-70v-105c0-38.598 31.402-70 70-70 18.695 0 36.273 7.282 49.496 20.504 13.221 13.211 20.504 30.789 20.504 49.496v105c0 38.598-31.402 70-70 70zm0-235c-33.084 0-60 26.916-60 60v105c0 33.084 26.916 60 60 60s60-26.916 60-60v-105c0-16.034-6.241-31.1-17.574-42.423-11.335-11.335-26.403-17.577-42.426-17.577z"/><path d="m245 357.5c-25.376 0-49.232-9.882-67.176-27.825-17.942-17.93-27.824-41.787-27.824-67.175v-45c0-2.761 2.239-5 5-5s5 2.239 5 5v45c0 22.715 8.841 44.061 24.894 60.103 16.056 16.055 37.401 24.897 60.106 24.897 46.869 0 85-38.131 85-85v-45c0-2.761 2.238-5 5-5s5 2.239 5 5v45c0 52.383-42.617 95-95 95z"/><path d="m282.5 442.5h-75c-12.407 0-22.5-10.094-22.5-22.5 0-6.011 2.342-11.663 6.594-15.915 4.246-4.246 9.895-6.585 15.906-6.585h75c12.406 0 22.5 10.094 22.5 22.5 0 6.003-2.336 11.653-6.578 15.91-4.268 4.253-9.918 6.59-15.922 6.59zm-75-35c-3.34 0-6.478 1.298-8.834 3.655-2.364 2.365-3.666 5.505-3.666 8.845 0 6.893 5.607 12.5 12.5 12.5h75c3.339 0 6.481-1.3 8.85-3.661 2.35-2.357 3.65-5.501 3.65-8.839 0-6.893-5.607-12.5-12.5-12.5z"/><path d="m245 407.5c-2.761 0-5-2.238-5-5v-50c0-2.762 2.239-5 5-5s5 2.238 5 5v50c0 2.762-2.239 5-5 5z"/><path d="m310 217.5h-130c-2.761 0-5-2.239-5-5s2.239-5 5-5h130c2.762 0 5 2.239 5 5s-2.238 5-5 5z"/><path d="m310 232.5h-20c-2.762 0-5-2.239-5-5s2.238-5 5-5h20c2.762 0 5 2.239 5 5s-2.238 5-5 5z"/><path d="m310 247.5h-20c-2.762 0-5-2.239-5-5s2.238-5 5-5h20c2.762 0 5 2.239 5 5s-2.238 5-5 5z"/><path d="m310 262.5h-20c-2.762 0-5-2.238-5-5 0-2.761 2.238-5 5-5h20c2.762 0 5 2.239 5 5 0 2.762-2.238 5-5 5z"/><path d="m200 232.5h-20c-2.761 0-5-2.239-5-5s2.239-5 5-5h20c2.761 0 5 2.239 5 5s-2.239 5-5 5z"/><path d="m200 247.5h-20c-2.761 0-5-2.239-5-5s2.239-5 5-5h20c2.761 0 5 2.239 5 5s-2.239 5-5 5z"/><path d="m200 262.5h-20c-2.761 0-5-2.238-5-5 0-2.761 2.239-5 5-5h20c2.761 0 5 2.239 5 5 0 2.762-2.239 5-5 5z"/><path d="m90 422.5c-19.299 0-35-15.701-35-35s15.701-35 35-35 35 15.701 35 35-15.701 35-35 35zm0-60c-13.785 0-25 11.215-25 25s11.215 25 25 25 25-11.215 25-25-11.215-25-25-25z"/><path d="m410 187.5c-16.542 0-30-13.458-30-30s13.458-30 30-30 30 13.458 30 30-13.458 30-30 30zm0-50c-11.027 0-20 8.972-20 20s8.973 20 20 20 20-8.972 20-20-8.973-20-20-20z"/><path d="m245 332.5c-2.761 0-5-2.238-5-5v-75c0-2.761 2.239-5 5-5s5 2.239 5 5v75c0 2.762-2.239 5-5 5z"/></g></g></svg>