<svg enable-background="new 0 0 520 520" height="512" viewBox="0 0 520 520" width="512" xmlns="http://www.w3.org/2000/svg"><g id="_x34_59_x2C__Account_x2C__Login_x2C__Page_x2C__Web"><g><path d="m290 197.5h-230v262.83c0 15.01 12.17 27.17 27.17 27.17h335.67c15 0 27.16-12.16 27.16-27.17v-262.83z" fill="#ecebed"/><path d="m100 237.5h310v210h-310z" fill="#bde1ff"/><path d="m130 377.5h250v40h-250z" fill="#68ca44"/><path d="m130 312.5h250v40h-250z" fill="#fb2b3a"/><path d="m60 157.5h230v40h-230z" fill="#8c9fb0"/><path d="m290 117.5v40h-230v-12.83c0-15.01 12.17-27.17 27.17-27.17z" fill="#abbfcf"/><path d="m422.84 117.5h-132.84v40 40h160v-52.83c0-15.01-12.16-27.17-27.16-27.17z" fill="#57606f"/><path d="m472.5 107.5c4.15 0 7.5 3.36 7.5 7.5s-3.35 7.5-7.5 7.5c-4.141 0-7.5-3.36-7.5-7.5s3.359-7.5 7.5-7.5z"/><path d="m410 147.5c5.529 0 10 4.48 10 10s-4.471 10-10 10c-5.52 0-10-4.48-10-10s4.48-10 10-10z"/><path d="m380 147.5c5.529 0 10 4.48 10 10s-4.471 10-10 10c-5.52 0-10-4.48-10-10s4.48-10 10-10z"/><path d="m350 147.5c5.529 0 10 4.48 10 10s-4.471 10-10 10c-5.52 0-10-4.48-10-10s4.48-10 10-10z"/><path d="m322.5 67.5c4.15 0 7.5 3.36 7.5 7.5s-3.35 7.5-7.5 7.5c-4.141 0-7.5-3.36-7.5-7.5s3.359-7.5 7.5-7.5z"/><path d="m182.5 57.5c4.15 0 7.5 3.36 7.5 7.5s-3.35 7.5-7.5 7.5c-4.14 0-7.5-3.36-7.5-7.5s3.36-7.5 7.5-7.5z"/><path d="m47.5 77.5c4.15 0 7.5 3.36 7.5 7.5s-3.35 7.5-7.5 7.5c-4.14 0-7.5-3.36-7.5-7.5s3.36-7.5 7.5-7.5z"/><path d="m450 202.5h-390c-2.761 0-5-2.239-5-5s2.239-5 5-5h390c2.762 0 5 2.239 5 5s-2.238 5-5 5z"/><path d="m290 162.5h-230c-2.761 0-5-2.239-5-5s2.239-5 5-5h230c2.762 0 5 2.239 5 5s-2.238 5-5 5z"/><path d="m290 202.5c-2.762 0-5-2.239-5-5v-80c0-2.761 2.238-5 5-5s5 2.239 5 5v80c0 2.761-2.238 5-5 5z"/><path d="m410 452.5h-310c-2.761 0-5-2.238-5-5v-210c0-2.761 2.239-5 5-5h310c2.762 0 5 2.239 5 5v210c0 2.762-2.238 5-5 5zm-305-10h300v-200h-300z"/><path d="m422.84 492.5h-335.67c-17.739 0-32.17-14.432-32.17-32.17v-315.66c0-17.739 14.431-32.17 32.17-32.17h335.67c17.733 0 32.16 14.431 32.16 32.17v315.66c0 17.738-14.427 32.17-32.16 32.17zm-335.67-370c-12.225 0-22.17 9.945-22.17 22.17v315.66c0 12.225 9.945 22.17 22.17 22.17h335.67c12.219 0 22.16-9.945 22.16-22.17v-315.66c0-12.225-9.941-22.17-22.16-22.17z"/><path d="m380 422.5h-250c-2.761 0-5-2.238-5-5v-40c0-2.762 2.239-5 5-5h250c2.762 0 5 2.238 5 5v40c0 2.762-2.238 5-5 5zm-245-10h240v-30h-240z"/><path d="m380 357.5h-250c-2.761 0-5-2.238-5-5v-40c0-2.762 2.239-5 5-5h250c2.762 0 5 2.238 5 5v40c0 2.762-2.238 5-5 5zm-245-10h240v-30h-240z"/><path d="m380 287.5h-250c-2.761 0-5-2.238-5-5s2.239-5 5-5h250c2.762 0 5 2.238 5 5s-2.238 5-5 5z"/><path d="m165 402.5h-15c-2.761 0-5-2.238-5-5s2.239-5 5-5h15c2.761 0 5 2.238 5 5s-2.239 5-5 5z"/><path d="m195 402.5h-15c-2.761 0-5-2.238-5-5s2.239-5 5-5h15c2.761 0 5 2.238 5 5s-2.239 5-5 5z"/><path d="m225 402.5h-15c-2.761 0-5-2.238-5-5s2.239-5 5-5h15c2.761 0 5 2.238 5 5s-2.239 5-5 5z"/><path d="m255 402.5h-15c-2.761 0-5-2.238-5-5s2.239-5 5-5h15c2.762 0 5 2.238 5 5s-2.238 5-5 5z"/><path d="m285 402.5h-15c-2.762 0-5-2.238-5-5s2.238-5 5-5h15c2.762 0 5 2.238 5 5s-2.238 5-5 5z"/><path d="m392.5 35c16.57 0 30 13.43 30 30s-13.43 30-30 30c-16.561 0-30-13.43-30-30s13.439-30 30-30z" fill="#313a52"/><path d="m392.5 100c-19.299 0-35-15.701-35-35s15.701-35 35-35 35 15.701 35 35-15.701 35-35 35zm0-60c-13.785 0-25 11.215-25 25s11.215 25 25 25 25-11.215 25-25-11.215-25-25-25z"/><path d="m110 32.5c16.57 0 30 13.43 30 30s-13.43 30-30 30c-16.56 0-30-13.43-30-30s13.44-30 30-30z" fill="#313a52"/><path d="m110 97.5c-19.299 0-35-15.701-35-35s15.701-35 35-35 35 15.701 35 35-15.701 35-35 35zm0-60c-13.785 0-25 11.215-25 25s11.215 25 25 25 25-11.215 25-25-11.215-25-25-25z"/></g></g></svg>