<svg enable-background="new 0 0 520 520" height="512" viewBox="0 0 520 520" width="512" xmlns="http://www.w3.org/2000/svg"><g id="_x34_60_x2C__Technology_x2C__Wifi_x2C__Wireless"><g><path d="m430 90c11.05 0 20 8.95 20 20s-8.95 20-20 20c-11.04 0-20-8.95-20-20s8.96-20 20-20z" fill="#ff5622"/><circle cx="95" cy="410" fill="#ff5622" r="35"/><path d="m321.82 339.32-61.82 61.82-61.82-61.819c34.15-34.141 89.5-34.141 123.64-.001z" fill="#00acc1"/><path d="m404.25 256.89-41.211 41.22c-56.909-56.91-149.169-56.91-206.069 0l-41.21-41.22c79.66-79.66 208.83-79.66 288.49 0z" fill="#00acc1"/><path d="m363.039 298.11-41.219 41.21c-34.141-34.141-89.491-34.141-123.641 0l-41.21-41.21c56.901-56.91 149.161-56.91 206.07 0z" fill="#26c6da"/><path d="m445.46 215.68-41.21 41.21c-79.66-79.66-208.83-79.66-288.49 0l-41.22-41.21c102.43-102.43 268.499-102.43 370.92 0z" fill="#26c6da"/><path d="m467.5 160c4.15 0 7.5 3.36 7.5 7.5s-3.35 7.5-7.5 7.5c-4.141 0-7.5-3.36-7.5-7.5s3.359-7.5 7.5-7.5z"/><path d="m442.5 335c4.15 0 7.5 3.36 7.5 7.5s-3.35 7.5-7.5 7.5c-4.141 0-7.5-3.36-7.5-7.5s3.359-7.5 7.5-7.5z"/><path d="m367.5 440c4.15 0 7.5 3.36 7.5 7.5s-3.35 7.5-7.5 7.5c-4.141 0-7.5-3.36-7.5-7.5s3.359-7.5 7.5-7.5z"/><path d="m327.5 65c4.15 0 7.5 3.36 7.5 7.5s-3.35 7.5-7.5 7.5c-4.141 0-7.5-3.36-7.5-7.5s3.359-7.5 7.5-7.5z"/><path d="m202.5 435c4.15 0 7.5 3.36 7.5 7.5s-3.35 7.5-7.5 7.5c-4.14 0-7.5-3.36-7.5-7.5s3.36-7.5 7.5-7.5z"/><path d="m127.5 75c4.15 0 7.5 3.36 7.5 7.5s-3.35 7.5-7.5 7.5c-4.14 0-7.5-3.36-7.5-7.5s3.36-7.5 7.5-7.5z"/><path d="m82.5 290c4.15 0 7.5 3.36 7.5 7.5s-3.35 7.5-7.5 7.5c-4.14 0-7.5-3.36-7.5-7.5s3.36-7.5 7.5-7.5z"/><path d="m52.5 170c4.15 0 7.5 3.36 7.5 7.5s-3.35 7.5-7.5 7.5c-4.14 0-7.5-3.36-7.5-7.5s3.36-7.5 7.5-7.5z"/><path d="m404.25 261.891c-1.279 0-2.559-.488-3.535-1.465-1.953-1.953-1.953-5.119 0-7.071l37.641-37.641c-48.162-46.377-111.299-71.856-178.352-71.856-67.054 0-130.192 25.479-178.359 71.856l37.65 37.641c1.953 1.953 1.953 5.119.001 7.072-1.953 1.952-5.118 1.953-7.071 0l-41.22-41.209c-.938-.938-1.465-2.209-1.465-3.536s.527-2.598 1.464-3.536c50.484-50.484 117.605-78.287 189-78.287 71.394 0 138.512 27.803 188.992 78.288 1.952 1.953 1.952 5.118 0 7.071l-41.211 41.21c-.976.974-2.256 1.463-3.535 1.463z"/><path d="m156.97 303.11c-1.28 0-2.56-.488-3.536-1.465l-41.21-41.22c-1.952-1.953-1.952-5.119 0-7.071 81.486-81.486 214.075-81.486 295.561 0 1.953 1.953 1.953 5.118.001 7.071l-41.21 41.22c-1.953 1.953-5.118 1.952-7.072.001-1.952-1.952-1.953-5.118 0-7.071l37.632-37.641c-76.638-72.924-197.624-72.924-274.262 0l37.632 37.641c1.952 1.953 1.952 5.119-.001 7.071-.976.976-2.256 1.464-3.535 1.464z"/><path d="m321.82 344.32c-1.28 0-2.561-.488-3.537-1.465-1.951-1.953-1.951-5.119.002-7.071l37.621-37.613c-26.129-24.377-59.992-37.743-95.905-37.743-35.916 0-69.773 13.364-95.899 37.743l37.614 37.614c1.953 1.952 1.953 5.118 0 7.07-1.953 1.953-5.118 1.953-7.071 0l-41.21-41.21c-1.952-1.952-1.953-5.118 0-7.07 28.463-28.469 66.31-44.147 106.567-44.147s78.105 15.678 106.574 44.147c.938.938 1.464 2.209 1.464 3.535s-.526 2.599-1.465 3.536l-41.219 41.21c-.977.976-2.256 1.464-3.536 1.464z"/><path d="m260 406.14c-1.279 0-2.559-.488-3.536-1.465l-61.82-61.819c-.938-.938-1.464-2.209-1.464-3.535s.527-2.599 1.465-3.536c17.461-17.456 40.672-27.069 65.359-27.069s47.896 9.613 65.352 27.07c1.953 1.952 1.953 5.118 0 7.07l-61.82 61.819c-.977.976-2.257 1.465-3.536 1.465zm-54.644-66.714 54.644 54.642 54.645-54.644c-15.084-13.392-34.3-20.71-54.641-20.71-20.342.001-39.56 7.319-54.648 20.712z"/><path d="m95 450c-22.056 0-40-17.944-40-40s17.944-40 40-40 40 17.944 40 40-17.944 40-40 40zm0-70c-16.542 0-30 13.458-30 30s13.458 30 30 30 30-13.458 30-30-13.458-30-30-30z"/><path d="m430 135c-13.785 0-25-11.215-25-25s11.215-25 25-25 25 11.215 25 25-11.215 25-25 25zm0-40c-8.271 0-15 6.729-15 15s6.729 15 15 15 15-6.729 15-15-6.729-15-15-15z"/></g></g></svg>