<svg enable-background="new 0 0 520 520" height="512" viewBox="0 0 520 520" width="512" xmlns="http://www.w3.org/2000/svg"><g id="_x34_61_x2C__Lock_x2C__Padlock_x2C__Unlock"><g><path d="m355.25 220h-10.25-30-160.25c-13.66 0-24.75 11.08-24.75 24.75v85.25 70.25c0 13.67 11.09 24.75 24.75 24.75h200.5c13.67 0 24.75-11.08 24.75-24.75v-115.25-40.25c0-13.67-11.08-24.75-24.75-24.75z" fill="#57606f"/><path d="m315 267.5h-120c0 9.67-7.83 17.5-17.5 17.5v75c9.67 0 17.5 7.83 17.5 17.5h120c0-9.67 7.84-17.5 17.5-17.5v-75c-9.66 0-17.5-7.83-17.5-17.5z" fill="#bde1ff"/><path d="m437.5 160c12.43 0 22.5 10.07 22.5 22.5s-10.07 22.5-22.5 22.5c-12.42 0-22.5-10.07-22.5-22.5s10.08-22.5 22.5-22.5z" fill="#4380a0"/><path d="m70 120c16.57 0 30 13.43 30 30s-13.43 30-30 30c-16.56 0-30-13.43-30-30s13.44-30 30-30z" fill="#4380a0"/><g fill="#fb2b3a"><path d="m240 310h30v25h-30z"/><path d="m332.5 250c9.67 0 17.5 7.83 17.5 17.5s-7.83 17.5-17.5 17.5c-9.66 0-17.5-7.83-17.5-17.5s7.84-17.5 17.5-17.5z"/><path d="m332.5 360c9.67 0 17.5 7.83 17.5 17.5s-7.83 17.5-17.5 17.5c-9.66 0-17.5-7.83-17.5-17.5s7.84-17.5 17.5-17.5z"/><path d="m177.5 360c9.67 0 17.5 7.83 17.5 17.5s-7.83 17.5-17.5 17.5c-9.66 0-17.5-7.83-17.5-17.5s7.84-17.5 17.5-17.5z"/><path d="m177.5 395h-17.5v-17.5c0 9.67 7.84 17.5 17.5 17.5z"/><path d="m177.5 250c9.67 0 17.5 7.83 17.5 17.5s-7.83 17.5-17.5 17.5c-9.66 0-17.5-7.83-17.5-17.5s7.84-17.5 17.5-17.5z"/></g><path d="m177.5 285v75c-9.66 0-17.5 7.83-17.5 17.5v-110c0 9.67 7.84 17.5 17.5 17.5z" fill="#bdf9ff"/><path d="m457.5 340c4.15 0 7.5 3.36 7.5 7.5s-3.35 7.5-7.5 7.5c-4.141 0-7.5-3.36-7.5-7.5s3.359-7.5 7.5-7.5z"/><path d="m452.5 105c4.15 0 7.5 3.36 7.5 7.5s-3.35 7.5-7.5 7.5c-4.141 0-7.5-3.36-7.5-7.5s3.359-7.5 7.5-7.5z"/><path d="m392.5 445c4.15 0 7.5 3.36 7.5 7.5s-3.35 7.5-7.5 7.5c-4.141 0-7.5-3.36-7.5-7.5s3.359-7.5 7.5-7.5z"/><path d="m377.5 45c4.15 0 7.5 3.36 7.5 7.5s-3.35 7.5-7.5 7.5c-4.141 0-7.5-3.36-7.5-7.5s3.359-7.5 7.5-7.5z"/><path d="m350 267.5v110c0-9.67-7.83-17.5-17.5-17.5v-75c9.67 0 17.5-7.83 17.5-17.5z" fill="#bdf9ff"/><path d="m345 175v45h-30v-45c0-16.57-6.711-31.57-17.57-42.43-10.86-10.85-25.86-17.57-42.43-17.57-33.13 0-60 26.86-60 60v10h-30v-10c0-24.86 10.07-47.36 26.36-63.64 16.29-16.29 38.79-26.36 63.64-26.36 49.71 0 90 40.29 90 90z" fill="#abbfcf"/><path d="m177.5 250h155c-9.66 0-17.5 7.83-17.5 17.5h-120c0-9.67-7.83-17.5-17.5-17.5z" fill="#bdf9ff"/><path d="m332.5 395h-155c9.67 0 17.5-7.83 17.5-17.5h120c0 9.67 7.84 17.5 17.5 17.5z" fill="#bdf9ff"/><path d="m137.5 460c4.15 0 7.5 3.36 7.5 7.5s-3.35 7.5-7.5 7.5c-4.14 0-7.5-3.36-7.5-7.5s3.36-7.5 7.5-7.5z"/><path d="m102.5 55c4.15 0 7.5 3.36 7.5 7.5s-3.35 7.5-7.5 7.5c-4.14 0-7.5-3.36-7.5-7.5s3.36-7.5 7.5-7.5z"/><path d="m87.5 220c4.15 0 7.5 3.36 7.5 7.5s-3.35 7.5-7.5 7.5c-4.14 0-7.5-3.36-7.5-7.5s3.36-7.5 7.5-7.5z"/><path d="m62.5 360c4.15 0 7.5 3.36 7.5 7.5s-3.35 7.5-7.5 7.5c-4.14 0-7.5-3.36-7.5-7.5s3.36-7.5 7.5-7.5z"/><path d="m355.25 430h-200.5c-16.404 0-29.75-13.346-29.75-29.75v-155.5c0-16.404 13.346-29.75 29.75-29.75h200.5c16.404 0 29.75 13.346 29.75 29.75v155.5c0 16.404-13.346 29.75-29.75 29.75zm-200.5-205c-10.89 0-19.75 8.86-19.75 19.75v155.5c0 10.891 8.86 19.75 19.75 19.75h200.5c10.891 0 19.75-8.859 19.75-19.75v-155.5c0-10.89-8.859-19.75-19.75-19.75z"/><path d="m345 225c-2.762 0-5-2.239-5-5v-45c0-46.869-38.131-85-85-85-22.705 0-44.051 8.841-60.104 24.896-16.055 16.044-24.896 37.389-24.896 60.104v5h20v-5c0-35.841 29.159-65 65-65 17.355 0 33.679 6.759 45.963 19.033 12.277 12.277 19.037 28.601 19.037 45.967v45c0 2.761-2.238 5-5 5s-5-2.239-5-5v-45c0-14.695-5.72-28.508-16.105-38.895-10.396-10.385-24.209-16.105-38.895-16.105-30.327 0-55 24.673-55 55v10c0 2.761-2.239 5-5 5h-30c-2.761 0-5-2.239-5-5v-10c0-25.387 9.882-49.244 27.825-67.177 17.942-17.942 41.799-27.823 67.175-27.823 52.383 0 95 42.617 95 95v45c0 2.761-2.238 5-5 5z"/><path d="m350 400h-190c-2.761 0-5-2.238-5-5v-145c0-2.761 2.239-5 5-5h190c2.762 0 5 2.239 5 5v145c0 2.762-2.238 5-5 5zm-185-10h180v-135h-180z"/><path d="m177.5 290c-12.407 0-22.5-10.094-22.5-22.5 0-12.407 10.093-22.5 22.5-22.5s22.5 10.093 22.5 22.5c0 12.406-10.093 22.5-22.5 22.5zm0-35c-6.893 0-12.5 5.607-12.5 12.5s5.607 12.5 12.5 12.5 12.5-5.607 12.5-12.5-5.607-12.5-12.5-12.5z"/><path d="m177.5 400c-12.407 0-22.5-10.094-22.5-22.5s10.093-22.5 22.5-22.5 22.5 10.094 22.5 22.5-10.093 22.5-22.5 22.5zm0-35c-6.893 0-12.5 5.607-12.5 12.5s5.607 12.5 12.5 12.5 12.5-5.607 12.5-12.5-5.607-12.5-12.5-12.5z"/><path d="m332.5 290c-12.406 0-22.5-10.094-22.5-22.5 0-12.407 10.094-22.5 22.5-22.5s22.5 10.093 22.5 22.5c0 12.406-10.094 22.5-22.5 22.5zm0-35c-6.893 0-12.5 5.607-12.5 12.5s5.607 12.5 12.5 12.5 12.5-5.607 12.5-12.5-5.607-12.5-12.5-12.5z"/><path d="m332.5 400c-12.406 0-22.5-10.094-22.5-22.5s10.094-22.5 22.5-22.5 22.5 10.094 22.5 22.5-10.094 22.5-22.5 22.5zm0-35c-6.893 0-12.5 5.607-12.5 12.5s5.607 12.5 12.5 12.5 12.5-5.607 12.5-12.5-5.607-12.5-12.5-12.5z"/><path d="m315 272.5h-120c-2.761 0-5-2.238-5-5s2.239-5 5-5h120c2.762 0 5 2.238 5 5s-2.238 5-5 5z"/><path d="m332.5 365c-2.762 0-5-2.238-5-5v-75c0-2.762 2.238-5 5-5s5 2.238 5 5v75c0 2.762-2.238 5-5 5z"/><path d="m315 382.5h-120c-2.761 0-5-2.238-5-5s2.239-5 5-5h120c2.762 0 5 2.238 5 5s-2.238 5-5 5z"/><path d="m177.5 365c-2.761 0-5-2.238-5-5v-75c0-2.762 2.239-5 5-5s5 2.238 5 5v75c0 2.762-2.239 5-5 5z"/><path d="m460 290h-80c-2.762 0-5-2.238-5-5s2.238-5 5-5h80c2.762 0 5 2.238 5 5s-2.238 5-5 5z"/><path d="m485 315h-75c-2.762 0-5-2.238-5-5s2.238-5 5-5h75c2.762 0 5 2.238 5 5s-2.238 5-5 5z"/><path d="m130 335h-95c-2.761 0-5-2.238-5-5s2.239-5 5-5h95c2.761 0 5 2.238 5 5s-2.239 5-5 5z"/><path d="m105 310h-55c-2.761 0-5-2.238-5-5s2.239-5 5-5h55c2.761 0 5 2.238 5 5s-2.239 5-5 5z"/><path d="m70 185c-19.299 0-35-15.701-35-35s15.701-35 35-35 35 15.701 35 35-15.701 35-35 35zm0-60c-13.785 0-25 11.215-25 25s11.215 25 25 25 25-11.215 25-25-11.215-25-25-25z"/><path d="m437.5 210c-15.164 0-27.5-12.336-27.5-27.5s12.336-27.5 27.5-27.5 27.5 12.336 27.5 27.5-12.336 27.5-27.5 27.5zm0-45c-9.649 0-17.5 7.851-17.5 17.5s7.851 17.5 17.5 17.5 17.5-7.851 17.5-17.5-7.851-17.5-17.5-17.5z"/><path d="m270 340c-2.762 0-5-2.238-5-5v-20h-20v20c0 2.762-2.239 5-5 5s-5-2.238-5-5v-25c0-2.762 2.239-5 5-5h30c2.762 0 5 2.238 5 5v25c0 2.762-2.238 5-5 5z"/><path d="m280 340h-50c-2.761 0-5-2.238-5-5s2.239-5 5-5h50c2.762 0 5 2.238 5 5s-2.238 5-5 5z"/></g></g></svg>