<svg enable-background="new 0 0 520 520" height="512" viewBox="0 0 520 520" width="512" xmlns="http://www.w3.org/2000/svg"><g id="_x34_62_x2C__Book_x2C__Open_x2C__Page_x2C__Reading"><g><path d="m472.755 153.29v244c0 17.3-14.021 31.33-31.33 31.33h-58.67-60-30c0 11.05-8.95 20-20 20h-40c-5.521 0-10.521-2.24-14.141-5.86s-5.859-8.62-5.859-14.14h-148.66c-17.311 0-31.34-14.03-31.34-31.33v-244c0-13.63 11.05-24.67 24.67-24.67h25.33v250h170 170v-250h25.34c13.62 0 24.66 11.04 24.66 24.67z" fill="#57606f"/><path d="m422.755 78.62v50 250h-170v-263.75c0-20.02 16.229-36.25 36.25-36.25z" fill="#bcb7c6"/><path d="m252.755 114.87v263.75h-170v-250-50h133.75c20.029 0 36.25 16.231 36.25 36.25z" fill="#ecebed"/><path d="m382.755 78.62v160l-30-30-30 30v-160z" fill="#fb2b3a"/><path d="m455.255 463.62c4.149 0 7.5 3.36 7.5 7.5s-3.351 7.5-7.5 7.5c-4.141 0-7.5-3.36-7.5-7.5s3.359-7.5 7.5-7.5z"/><path d="m385.255 38.62c4.149 0 7.5 3.36 7.5 7.5 0 4.141-3.351 7.5-7.5 7.5-4.141 0-7.5-3.359-7.5-7.5 0-4.14 3.359-7.5 7.5-7.5z"/><path d="m330.255 448.62c4.149 0 7.5 3.36 7.5 7.5s-3.351 7.5-7.5 7.5c-4.141 0-7.5-3.36-7.5-7.5s3.359-7.5 7.5-7.5z"/><path d="m180.255 468.62c4.149 0 7.5 3.36 7.5 7.5s-3.351 7.5-7.5 7.5c-4.141 0-7.5-3.36-7.5-7.5s3.359-7.5 7.5-7.5z"/><path d="m145.255 33.62c4.149 0 7.5 3.36 7.5 7.5 0 4.141-3.351 7.5-7.5 7.5-4.141 0-7.5-3.359-7.5-7.5 0-4.14 3.359-7.5 7.5-7.5z"/><path d="m55.255 443.62c4.149 0 7.5 3.36 7.5 7.5s-3.351 7.5-7.5 7.5c-4.141 0-7.5-3.36-7.5-7.5s3.359-7.5 7.5-7.5z"/><path d="m45.255 63.62c4.149 0 7.5 3.36 7.5 7.5 0 4.141-3.351 7.5-7.5 7.5-4.141 0-7.5-3.359-7.5-7.5 0-4.14 3.359-7.5 7.5-7.5z"/><path d="m272.755 453.62h-40c-6.675 0-12.952-2.602-17.676-7.325-3.521-3.521-5.863-7.905-6.827-12.675h-144.157c-20.038 0-36.34-16.298-36.34-36.33v-244c0-16.359 13.31-29.67 29.67-29.67h25.33c2.761 0 5 2.239 5 5 0 2.762-2.239 5-5 5h-25.33c-10.847 0-19.67 8.824-19.67 19.67v244c0 14.519 11.815 26.33 26.34 26.33h148.66c2.761 0 5 2.238 5 5 0 4.004 1.561 7.77 4.396 10.604 2.834 2.834 6.601 4.396 10.604 4.396h40c8.271 0 15-6.729 15-15 0-2.762 2.238-5 5-5h148.67c14.519 0 26.33-11.812 26.33-26.33v-244c0-10.846-8.819-19.67-19.66-19.67h-25.34c-2.762 0-5-2.238-5-5 0-2.761 2.238-5 5-5h25.34c16.354 0 29.66 13.311 29.66 29.67v244c0 20.032-16.298 36.33-36.33 36.33h-144.173c-2.322 11.397-12.425 20-24.497 20z"/><path d="m252.755 383.62h-170c-2.762 0-5-2.238-5-5v-300c0-2.761 2.238-5 5-5h133.75c22.745 0 41.25 18.505 41.25 41.25 0 2.762-2.239 5-5 5-2.762 0-5-2.238-5-5 0-17.231-14.019-31.25-31.25-31.25h-128.75v290h165c2.761 0 5 2.238 5 5s-2.239 5-5 5z"/><path d="m422.755 383.62h-170c-2.762 0-5-2.238-5-5v-263.75c0-22.745 18.505-41.25 41.25-41.25h33.75c2.761 0 5 2.239 5 5 0 2.762-2.239 5-5 5h-33.75c-17.231 0-31.25 14.019-31.25 31.25v258.75h160v-290h-35c-2.762 0-5-2.238-5-5 0-2.761 2.238-5 5-5h40c2.761 0 5 2.239 5 5v300c0 2.762-2.239 5-5 5z"/><path d="m382.756 243.62c-1.302 0-2.58-.508-3.537-1.464l-26.464-26.465-26.465 26.465c-1.43 1.43-3.581 1.857-5.449 1.084-1.868-.774-3.086-2.598-3.086-4.62v-160c0-2.761 2.238-5 5-5h60c2.761 0 5 2.239 5 5v160c0 2.022-1.219 3.846-3.087 4.62-.618.256-1.269.38-1.912.38zm-30.001-40c1.279 0 2.559.488 3.535 1.465l21.465 21.464v-142.929h-50v142.929l21.464-21.464c.976-.977 2.256-1.465 3.536-1.465z"/><path d="m222.755 158.62h-110c-2.762 0-5-2.238-5-5 0-2.761 2.238-5 5-5h110c2.761 0 5 2.239 5 5 0 2.762-2.239 5-5 5z"/><path d="m222.755 178.62h-110c-2.762 0-5-2.238-5-5 0-2.761 2.238-5 5-5h110c2.761 0 5 2.239 5 5 0 2.762-2.239 5-5 5z"/><path d="m222.755 198.62h-110c-2.762 0-5-2.238-5-5 0-2.761 2.238-5 5-5h110c2.761 0 5 2.239 5 5 0 2.762-2.239 5-5 5z"/><path d="m222.755 218.62h-110c-2.762 0-5-2.238-5-5 0-2.761 2.238-5 5-5h110c2.761 0 5 2.239 5 5 0 2.762-2.239 5-5 5z"/><path d="m222.755 238.62h-110c-2.762 0-5-2.238-5-5 0-2.761 2.238-5 5-5h110c2.761 0 5 2.239 5 5 0 2.762-2.239 5-5 5z"/><path d="m222.755 258.62h-110c-2.762 0-5-2.238-5-5 0-2.761 2.238-5 5-5h110c2.761 0 5 2.239 5 5 0 2.762-2.239 5-5 5z"/><path d="m222.755 278.62h-110c-2.762 0-5-2.238-5-5s2.238-5 5-5h110c2.761 0 5 2.238 5 5s-2.239 5-5 5z"/><path d="m222.755 298.62h-110c-2.762 0-5-2.238-5-5s2.238-5 5-5h110c2.761 0 5 2.238 5 5s-2.239 5-5 5z"/><path d="m462.755 28.343c13.961 0 25.277 11.316 25.277 25.277 0 13.962-11.316 25.278-25.277 25.278-13.953 0-25.278-11.316-25.278-25.278 0-13.961 11.325-25.277 25.278-25.277z" fill="#313a52"/><path d="m462.755 83.111c-16.262 0-29.491-13.229-29.491-29.491 0-16.261 13.229-29.49 29.491-29.49 16.261 0 29.49 13.229 29.49 29.49 0 16.262-13.229 29.491-29.49 29.491zm0-50.555c-11.615 0-21.065 9.449-21.065 21.064s9.45 21.065 21.065 21.065 21.064-9.45 21.064-21.065-9.449-21.064-21.064-21.064z"/><path d="m112.245 449.906c11.718 0 21.215 9.497 21.215 21.214s-9.497 21.214-21.215 21.214c-11.71 0-21.214-9.497-21.214-21.214s9.504-21.214 21.214-21.214z" fill="#313a52"/><path d="m112.245 495.87c-13.646 0-24.75-11.103-24.75-24.75s11.104-24.75 24.75-24.75c13.647 0 24.75 11.103 24.75 24.75s-11.102 24.75-24.75 24.75zm0-42.429c-9.748 0-17.679 7.931-17.679 17.679s7.931 17.679 17.679 17.679 17.679-7.931 17.679-17.679-7.931-17.679-17.679-17.679z"/></g></g></svg>