<svg enable-background="new 0 0 520 520" height="512" viewBox="0 0 520 520" width="512" xmlns="http://www.w3.org/2000/svg"><g id="_x34_63_x2C__Hand_Watch_x2C__Time_x2C__Watch"><g><path d="m315 181.7v-74.2h-100v20 54.21c-27.01 16.75-45 46.67-45 80.79s17.99 64.04 45 80.79v74.21h100v-20-54.2c27.01-16.75 45-46.67 45-80.8 0-34.12-17.99-64.04-45-80.8z" fill="#57606f"/><path d="m219.04 216.54c11.77-11.76 28.01-19.04 45.96-19.04 17.949 0 34.199 7.28 45.96 19.04v.01c11.77 11.76 19.04 28.01 19.04 45.95s-7.27 34.19-19.04 45.95v.01c-11.761 11.76-28.011 19.04-45.96 19.04-17.95 0-34.19-7.28-45.96-19.04-11.76-11.76-19.04-28.01-19.04-45.96s7.28-34.2 19.04-45.96z" fill="#bdf9ff"/><path d="m432.5 122.5c12.43 0 22.5 10.07 22.5 22.5s-10.07 22.5-22.5 22.5c-12.42 0-22.5-10.07-22.5-22.5s10.08-22.5 22.5-22.5z" fill="#313a52"/><circle cx="100" cy="392.5" fill="#313a52" r="35"/><path d="m315 417.5v17c0 7.18-5.82 13-13 13h-74c-7.18 0-13-5.82-13-13v-17z" fill="#ffd54f"/><path d="m315 90.5v17h-100v-17c0-7.18 5.82-13 13-13h74c7.18 0 13 5.82 13 13z" fill="#ffd54f"/><path d="m452.5 252.5c4.15 0 7.5 3.36 7.5 7.5s-3.35 7.5-7.5 7.5c-4.141 0-7.5-3.36-7.5-7.5s3.359-7.5 7.5-7.5z"/><path d="m417.5 352.5c4.15 0 7.5 3.36 7.5 7.5s-3.35 7.5-7.5 7.5c-4.141 0-7.5-3.36-7.5-7.5s3.359-7.5 7.5-7.5z"/><path d="m357.5 82.5c4.15 0 7.5 3.36 7.5 7.5s-3.35 7.5-7.5 7.5c-4.141 0-7.5-3.36-7.5-7.5s3.359-7.5 7.5-7.5z"/><path d="m240 392.5c2.77 0 5 2.24 5 5s-2.23 5-5 5c-2.76 0-5-2.24-5-5s2.24-5 5-5z"/><path d="m177.5 432.5c4.15 0 7.5 3.36 7.5 7.5s-3.35 7.5-7.5 7.5c-4.14 0-7.5-3.36-7.5-7.5s3.36-7.5 7.5-7.5z"/><path d="m162.5 142.5c4.15 0 7.5 3.36 7.5 7.5s-3.35 7.5-7.5 7.5c-4.14 0-7.5-3.36-7.5-7.5s3.36-7.5 7.5-7.5z"/><path d="m97.5 252.5c4.15 0 7.5 3.36 7.5 7.5s-3.35 7.5-7.5 7.5c-4.14 0-7.5-3.36-7.5-7.5s3.36-7.5 7.5-7.5z"/><path d="m77.5 67.5c4.15 0 7.5 3.36 7.5 7.5s-3.35 7.5-7.5 7.5c-4.14 0-7.5-3.36-7.5-7.5s3.36-7.5 7.5-7.5z"/><path d="m310.96 313.45c-1.28 0-2.561-.488-3.537-1.466-1.952-1.954-1.95-5.119.003-7.071 11.333-11.323 17.574-26.386 17.574-42.413s-6.241-31.09-17.574-42.413c-1.953-1.952-1.955-5.118-.003-7.071s5.116-1.955 7.071-.003c13.223 13.212 20.506 30.787 20.506 49.487s-7.283 36.275-20.506 49.487c-.976.976-2.256 1.463-3.534 1.463z"/><path d="m265 332.5c-18.684 0-36.261-7.281-49.495-20.503-13.223-13.224-20.505-30.802-20.505-49.497s7.282-36.273 20.504-49.496c13.234-13.223 30.811-20.504 49.496-20.504 18.695 0 36.273 7.282 49.496 20.504 1.952 1.953 1.952 5.119 0 7.071-1.953 1.952-5.119 1.952-7.072 0-11.333-11.333-26.401-17.575-42.424-17.575-16.015 0-31.082 6.242-42.426 17.577-11.332 11.332-17.574 26.399-17.574 42.423s6.242 31.091 17.575 42.425c11.343 11.333 26.41 17.575 42.425 17.575 16.023 0 31.09-6.242 42.424-17.575 1.954-1.953 5.119-1.952 7.072 0 1.952 1.952 1.952 5.118 0 7.07-13.224 13.223-30.802 20.505-49.496 20.505z"/><path d="m315 112.5c-2.762 0-5-2.239-5-5v-17c0-4.411-3.589-8-8-8h-74c-4.411 0-8 3.589-8 8v17c0 2.761-2.239 5-5 5s-5-2.239-5-5v-17c0-9.925 8.075-18 18-18h74c9.926 0 18 8.075 18 18v17c0 2.761-2.238 5-5 5z"/><path d="m302 452.5h-74c-9.925 0-18-8.075-18-18v-17c0-2.762 2.239-5 5-5s5 2.238 5 5v17c0 4.411 3.589 8 8 8h74c4.411 0 8-3.589 8-8v-17c0-2.762 2.238-5 5-5s5 2.238 5 5v17c0 9.925-8.074 18-18 18z"/><path d="m215 186.71c-2.761 0-5-2.239-5-5v-74.21c0-2.761 2.239-5 5-5h100c2.762 0 5 2.239 5 5v74.2c0 2.761-2.238 5.005-5 5.005s-5-2.234-5-4.995v-69.21h-90v69.21c0 2.761-2.239 5-5 5z"/><path d="m315 422.5h-100c-2.761 0-5-2.238-5-5v-74.21c0-2.762 2.239-5 5-5s5 2.238 5 5v69.21h90v-69.2c0-2.762 2.238-5.005 5-5.005s5 2.233 5 4.995v74.21c0 2.762-2.238 5-5 5z"/><path d="m245.005 360.391c-.347 0-.699-.036-1.051-.111-11.2-2.397-21.828-6.684-31.59-12.74-29.657-18.393-47.364-50.184-47.364-85.04 0-34.857 17.707-66.647 47.365-85.039 6.582-4.096 13.669-7.419 21.058-9.875 2.621-.875 5.451.547 6.322 3.167.871 2.621-.547 5.451-3.167 6.322-6.644 2.208-13.015 5.196-18.936 8.88-26.704 16.56-42.642 45.173-42.642 76.545s15.938 59.985 42.635 76.541c8.782 5.448 18.34 9.304 28.411 11.459 2.7.578 4.421 3.236 3.843 5.937-.502 2.346-2.576 3.954-4.884 3.954z"/><path d="m284.995 360.391c-2.308 0-4.382-1.606-4.884-3.954-.578-2.7 1.143-5.358 3.842-5.937 10.049-2.15 19.609-6.004 28.416-11.452 26.693-16.553 42.631-45.17 42.631-76.548 0-31.368-15.939-59.985-42.637-76.551-5.975-3.698-12.346-6.685-18.931-8.874-2.62-.871-4.038-3.701-3.167-6.322.871-2.62 3.703-4.04 6.321-3.167 7.323 2.434 14.403 5.753 21.044 9.863 29.664 18.405 47.37 50.199 47.37 85.051 0 34.862-17.707 66.656-47.365 85.049-9.789 6.057-20.415 10.339-31.588 12.73-.354.075-.705.112-1.052.112z"/><path d="m315 402.5h-60c-2.761 0-5-2.238-5-5s2.239-5 5-5h60c2.762 0 5 2.238 5 5s-2.238 5-5 5z"/><path d="m290 132.5h-75c-2.761 0-5-2.239-5-5s2.239-5 5-5h75c2.762 0 5 2.239 5 5s-2.238 5-5 5z"/><path d="m265 217.5c-2.762 0-5-2.239-5-5v-15c0-2.761 2.238-5 5-5s5 2.239 5 5v15c0 2.761-2.238 5-5 5z"/><path d="m265 332.5c-2.762 0-5-2.238-5-5v-15c0-2.762 2.238-5 5-5s5 2.238 5 5v15c0 2.762-2.238 5-5 5z"/><path d="m300.359 232.14c-1.279 0-2.561-.489-3.537-1.466-1.951-1.953-1.949-5.119.004-7.071l10.475-10.466c.913-.982 2.215-1.597 3.659-1.597 2.761 0 5.005 2.239 5.005 5 0 1.152-.389 2.213-1.043 3.059-.131.171-.273.334-.428.488l-10.601 10.59c-.975.975-2.254 1.463-3.534 1.463z"/><path d="m219.04 313.46c-1.281 0-2.561-.488-3.537-1.466-1.952-1.954-1.95-5.12.003-7.071l10.61-10.6c1.954-1.952 5.12-1.951 7.071.003 1.952 1.954 1.95 5.12-.003 7.071l-10.61 10.6c-.977.976-2.256 1.463-3.534 1.463z"/><path d="m330 267.5h-15c-2.762 0-5-2.238-5-5s2.238-5 5-5h15c2.762 0 5 2.238 5 5s-2.238 5-5 5z"/><path d="m215 267.5h-15c-2.761 0-5-2.238-5-5s2.239-5 5-5h15c2.761 0 5 2.238 5 5s-2.239 5-5 5z"/><path d="m229.65 232.14c-1.279 0-2.558-.487-3.534-1.463l-10.61-10.6c-1.954-1.952-1.955-5.117-.003-7.071 1.951-1.955 5.117-1.956 7.071-.003l10.61 10.6c1.954 1.952 1.955 5.117.003 7.071-.976.977-2.257 1.466-3.537 1.466z"/><path d="m310.97 313.46c-1.449 0-2.757-.616-3.673-1.602l-10.471-10.461c-1.953-1.951-1.955-5.117-.004-7.071 1.951-1.952 5.117-1.955 7.071-.003l10.601 10.59c.373.373.682.799.918 1.261.354.686.553 1.463.553 2.286 0 2.762-2.235 5-4.995 5z"/><path d="m265.002 267.5c-1.298 0-2.577-.504-3.537-1.465l-20-20c-1.953-1.953-1.953-5.119 0-7.071s5.118-1.952 7.071 0l17.452 17.452 16.776-8.388c2.468-1.236 5.473-.234 6.709 2.236 1.234 2.47.233 5.473-2.236 6.708l-20 10c-.712.355-1.477.528-2.235.528z"/><path d="m375 267.5h-15c-2.762 0-5-2.238-5-5s2.238-5 5-5h15c2.762 0 5 2.238 5 5s-2.238 5-5 5z"/><path d="m375 277.5c-2.762 0-5-2.238-5-5v-20c0-2.761 2.238-5 5-5s5 2.239 5 5v20c0 2.762-2.238 5-5 5z"/><path d="m100 432.5c-22.056 0-40-17.944-40-40s17.944-40 40-40 40 17.944 40 40-17.944 40-40 40zm0-70c-16.542 0-30 13.458-30 30s13.458 30 30 30 30-13.458 30-30-13.458-30-30-30z"/><path d="m432.5 172.5c-15.164 0-27.5-12.336-27.5-27.5s12.336-27.5 27.5-27.5 27.5 12.336 27.5 27.5-12.336 27.5-27.5 27.5zm0-45c-9.649 0-17.5 7.851-17.5 17.5s7.851 17.5 17.5 17.5 17.5-7.851 17.5-17.5-7.851-17.5-17.5-17.5z"/></g></g></svg>