<svg enable-background="new 0 0 520 520" height="512" viewBox="0 0 520 520" width="512" xmlns="http://www.w3.org/2000/svg"><g id="_x34_64_x2C__Button_x2C__Off_x2C__On_x2C__Power_x2C__Switch"><g><path d="m435 90c13.81 0 25 11.19 25 25s-11.19 25-25 25c-13.801 0-25-11.19-25-25s11.199-25 25-25z" fill="#4380a0"/><circle cx="95" cy="420" fill="#4380a0" r="35"/><path d="m320 138.55c58.26 20.59 100 76.14 100 141.45 0 82.84-67.15 150-150 150-82.84 0-150-67.16-150-150 0-65.31 41.75-120.86 100-141.45v54.83c-29.89 17.29-50 49.61-50 86.62 0 55.23 44.78 100 100 100 55.23 0 100-44.77 100-100 0-37.01-20.11-69.33-50-86.62z" fill="#b70422"/><path d="m297.5 112.5v95c0 15.19-12.311 27.5-27.5 27.5-15.18 0-27.5-12.31-27.5-27.5v-95c0-15.19 12.32-27.5 27.5-27.5 7.59 0 14.47 3.08 19.449 8.05 4.971 4.98 8.051 11.85 8.051 19.45z" fill="#fb2b3a"/><path d="m457.5 210c4.15 0 7.5 3.36 7.5 7.5s-3.35 7.5-7.5 7.5c-4.141 0-7.5-3.36-7.5-7.5s3.359-7.5 7.5-7.5z"/><path d="m447.5 400c4.15 0 7.5 3.36 7.5 7.5s-3.35 7.5-7.5 7.5c-4.141 0-7.5-3.36-7.5-7.5s3.359-7.5 7.5-7.5z"/><path d="m362.5 80c4.15 0 7.5 3.36 7.5 7.5s-3.35 7.5-7.5 7.5c-4.141 0-7.5-3.36-7.5-7.5s3.359-7.5 7.5-7.5z"/><path d="m297.5 455c4.15 0 7.5 3.36 7.5 7.5s-3.35 7.5-7.5 7.5c-4.141 0-7.5-3.36-7.5-7.5s3.359-7.5 7.5-7.5z"/><path d="m222.5 50c4.15 0 7.5 3.36 7.5 7.5s-3.35 7.5-7.5 7.5c-4.14 0-7.5-3.36-7.5-7.5s3.36-7.5 7.5-7.5z"/><path d="m167.5 420c4.15 0 7.5 3.36 7.5 7.5s-3.35 7.5-7.5 7.5c-4.14 0-7.5-3.36-7.5-7.5s3.36-7.5 7.5-7.5z"/><path d="m92.5 100c4.15 0 7.5 3.36 7.5 7.5s-3.35 7.5-7.5 7.5c-4.14 0-7.5-3.36-7.5-7.5s3.36-7.5 7.5-7.5z"/><path d="m82.5 290c4.15 0 7.5 3.36 7.5 7.5s-3.35 7.5-7.5 7.5c-4.14 0-7.5-3.36-7.5-7.5s3.36-7.5 7.5-7.5z"/><path d="m270 240c-17.92 0-32.5-14.58-32.5-32.5v-95c0-17.92 14.58-32.5 32.5-32.5 8.674 0 16.836 3.377 22.981 9.511 6.141 6.152 9.519 14.314 9.519 22.989v95c0 17.92-14.58 32.5-32.5 32.5zm0-150c-12.406 0-22.5 10.093-22.5 22.5v95c0 12.407 10.094 22.5 22.5 22.5s22.5-10.093 22.5-22.5v-95c0-6.007-2.34-11.661-6.59-15.918-4.25-4.242-9.903-6.582-15.91-6.582z"/><path d="m270 435c-85.467 0-155-69.532-155-155 0-65.578 41.526-124.317 103.333-146.165 1.532-.541 3.229-.306 4.553.632 1.325.937 2.113 2.459 2.113 4.083v54.83c0 1.785-.952 3.435-2.497 4.328-29.3 16.949-47.502 48.482-47.502 82.292 0 52.383 42.617 95 95 95s95-42.617 95-95c0-33.81-18.202-65.342-47.504-82.292-1.545-.894-2.496-2.543-2.496-4.328v-54.83c0-1.623.788-3.145 2.113-4.083 1.324-.938 3.021-1.173 4.553-.632 61.807 21.845 103.334 80.583 103.334 146.165 0 85.468-69.533 155-155 155zm-55-289.193c-54.119 22.185-90 75.234-90 134.193 0 79.953 65.047 145 145 145s145-65.047 145-145c0-58.962-35.881-112.013-90-134.194v44.736c30.916 19.051 50 53.059 50 89.458 0 57.897-47.104 105-105 105-57.897 0-105-47.103-105-105 0-36.399 19.084-70.407 50-89.458z"/><path d="m270 360c-44.112 0-80-35.888-80-80 0-2.762 2.239-5 5-5s5 2.238 5 5c0 38.598 31.402 70 70 70s70-31.402 70-70c0-2.762 2.238-5 5-5s5 2.238 5 5c0 44.112-35.888 80-80 80z"/><path d="m95 460c-22.056 0-40-17.944-40-40s17.944-40 40-40 40 17.944 40 40-17.944 40-40 40zm0-70c-16.542 0-30 13.458-30 30s13.458 30 30 30 30-13.458 30-30-13.458-30-30-30z"/><path d="m435 145c-16.542 0-30-13.458-30-30s13.458-30 30-30 30 13.458 30 30-13.458 30-30 30zm0-50c-11.027 0-20 8.972-20 20s8.973 20 20 20 20-8.972 20-20-8.973-20-20-20z"/></g></g></svg>