<svg enable-background="new 0 0 520 520" height="512" viewBox="0 0 520 520" width="512" xmlns="http://www.w3.org/2000/svg"><g id="_x34_65_x2C__Photo_x2C__Camera_x2C__Photography"><g><path d="m414.84 215h-82.34v-16.5c0-15.74-12.76-28.5-28.5-28.5h-103c-15.74 0-28.5 12.76-28.5 28.5v16.5h-30-50-2.33c-20.8 0-37.67 16.86-37.67 37.67v2.33h30 20 150 200v-2.33c0-20.81-16.86-37.67-37.66-37.67z" fill="#414a56"/><path d="m427.5 110c13.81 0 25 11.19 25 25s-11.19 25-25 25c-13.801 0-25-11.19-25-25s11.199-25 25-25z" fill="#4380a0"/><circle cx="97.5" cy="95" fill="#4380a0" r="35"/><path d="m92.5 195h50v20h-50z" fill="#fb2b3a"/><path d="m202.5 190h100v25h-100z" fill="#bdf9ff"/><path d="m452.5 425v2.33c0 20.81-16.86 37.67-37.66 37.67h-324.67c-20.8 0-37.67-16.86-37.67-37.67v-2.33h200 130 20z" fill="#414a56"/><path d="m252.5 255h-150-20-30v170h200 130 20 50v-170z" fill="#57606f"/><path d="m252.5 255c46.949 0 85 38.06 85 85s-38.051 85-85 85c-46.94 0-85-38.06-85-85s38.06-85 85-85zm63 85c0-5.76-.78-11.34-2.24-16.64-4.46-16.23-15.27-29.87-29.58-38.07-9.199-5.271-19.85-8.28-31.18-8.28-5.75 0-11.33.78-16.63 2.24-16.23 4.45-29.88 15.27-38.07 29.58-5.27 9.2-8.29 19.85-8.29 31.17 0 5.76.78 11.34 2.24 16.64 4.46 16.23 15.27 29.87 29.58 38.07 9.2 5.271 19.84 8.28 31.17 8.28 5.76 0 11.34-.78 16.65-2.25 16.229-4.45 29.879-15.271 38.06-29.57 5.28-9.2 8.29-19.85 8.29-31.17z" fill="#757d8c"/><path d="m276.08 321.91 7.49 9.77-1.6 12.2-1.611 12.21-9.759 7.49-9.77 7.49-12.2-1.61-12.21-1.6-7.49-9.77-7.5-9.76 1.61-12.21 1.61-12.2 9.76-7.5 9.77-7.49 12.21 1.61 12.2 1.6z" fill="#bde1ff"/><path d="m244.18 308.93-9.77 7.49-9.76 7.5-32.67 32.66-.23.06c-1.46-5.3-2.24-10.88-2.24-16.64 0-11.32 3.02-21.97 8.29-31.17l.18.1z" fill="#8cf2ff"/><path d="m465 195c4.15 0 7.5 3.36 7.5 7.5s-3.35 7.5-7.5 7.5c-4.141 0-7.5-3.36-7.5-7.5s3.359-7.5 7.5-7.5z"/><path d="m425 50c4.15 0 7.5 3.36 7.5 7.5s-3.35 7.5-7.5 7.5c-4.141 0-7.5-3.36-7.5-7.5s3.359-7.5 7.5-7.5z"/><path d="m382.5 300c2.77 0 5 2.24 5 5s-2.23 5-5 5c-2.76 0-5-2.24-5-5s2.24-5 5-5z"/><path d="m335 120c4.15 0 7.5 3.36 7.5 7.5s-3.35 7.5-7.5 7.5c-4.141 0-7.5-3.36-7.5-7.5s3.359-7.5 7.5-7.5z"/><path d="m313.26 323.36c1.46 5.3 2.24 10.88 2.24 16.64 0 11.32-3.01 21.97-8.29 31.17l-.181-.1h-46.199l9.77-7.49 9.76-7.49 32.67-32.67z" fill="#8cf2ff"/><path d="m313.26 323.36-.23.06-32.67 32.67 1.61-12.21 1.601-12.2v-46.2l.109-.19c14.31 8.2 25.12 21.84 29.58 38.07z" fill="#bdf9ff"/><path d="m307.029 371.07.181.1c-8.181 14.3-21.83 25.12-38.06 29.57l-.061-.221-32.67-32.659 12.21 1.6 12.2 1.61z" fill="#bdf9ff"/><path d="m283.68 285.29-.109.19v46.199l-7.49-9.77-7.49-9.771-32.66-32.659-.06-.23c5.3-1.46 10.88-2.24 16.63-2.24 11.329.001 21.979 3.011 31.179 8.281z" fill="#8cf2ff"/><path d="m269.09 400.52.061.221c-5.311 1.47-10.891 2.25-16.65 2.25-11.33 0-21.97-3.01-31.17-8.28l.1-.19v-46.191l7.5 9.76 7.49 9.771z" fill="#8cf2ff"/><path d="m268.59 312.14-12.2-1.6-12.21-1.61h-46.2l-.18-.1c8.19-14.311 21.84-25.13 38.07-29.58l.06.23z" fill="#bdf9ff"/><path d="m224.65 323.92-1.61 12.2-1.61 12.21v46.189l-.1.19c-14.31-8.2-25.12-21.84-29.58-38.07l.23-.06z" fill="#bdf9ff"/><path d="m205 55c4.15 0 7.5 3.36 7.5 7.5s-3.35 7.5-7.5 7.5c-4.14 0-7.5-3.36-7.5-7.5s3.36-7.5 7.5-7.5z"/><path d="m102.5 310c2.77 0 5 2.24 5 5s-2.23 5-5 5c-2.76 0-5-2.24-5-5s2.24-5 5-5z"/><path d="m60 165c4.15 0 7.5 3.36 7.5 7.5s-3.35 7.5-7.5 7.5c-4.14 0-7.5-3.36-7.5-7.5s3.36-7.5 7.5-7.5z"/><path d="m414.84 470h-324.67c-23.528 0-42.67-19.142-42.67-42.67v-174.66c0-23.528 19.142-42.67 42.67-42.67h2.33c2.761 0 5 2.239 5 5s-2.239 5-5 5h-2.33c-18.014 0-32.67 14.656-32.67 32.67v174.66c0 18.015 14.656 32.67 32.67 32.67h324.67c18.009 0 32.66-14.655 32.66-32.67v-174.66c0-18.014-14.651-32.67-32.66-32.67h-82.34c-2.762 0-5-2.239-5-5v-16.5c0-12.958-10.542-23.5-23.5-23.5h-103c-12.958 0-23.5 10.542-23.5 23.5v16.5c0 2.761-2.239 5-5 5h-30c-2.761 0-5-2.239-5-5s2.239-5 5-5h25v-11.5c0-18.472 15.028-33.5 33.5-33.5h103c18.473 0 33.5 15.028 33.5 33.5v11.5h77.34c23.523 0 42.66 19.142 42.66 42.67v174.66c0 23.528-19.137 42.67-42.66 42.67z"/><path d="m142.5 220h-50c-2.761 0-5-2.239-5-5v-20c0-2.761 2.239-5 5-5h50c2.761 0 5 2.239 5 5v20c0 2.761-2.239 5-5 5zm-45-10h40v-10h-40z"/><path d="m452.5 260h-400c-2.761 0-5-2.238-5-5s2.239-5 5-5h400c2.762 0 5 2.238 5 5s-2.238 5-5 5z"/><path d="m452.5 430h-400c-2.761 0-5-2.238-5-5s2.239-5 5-5h400c2.762 0 5 2.238 5 5s-2.238 5-5 5z"/><path d="m252.5 430c-49.626 0-90-40.374-90-90s40.374-90 90-90 90 40.374 90 90-40.374 90-90 90zm0-170c-44.112 0-80 35.888-80 80s35.888 80 80 80 80-35.888 80-80-35.888-80-80-80z"/><path d="m252.5 407.99c-11.807 0-23.444-3.092-33.656-8.941-15.558-8.916-27.191-23.891-31.916-41.084-1.605-5.824-2.419-11.869-2.419-17.965 0-11.794 3.095-23.432 8.952-33.655 8.908-15.566 23.884-27.2 41.086-31.917 5.824-1.604 11.866-2.418 17.953-2.418 11.813 0 23.455 3.092 33.665 8.941 15.559 8.916 27.191 23.891 31.916 41.084 1.604 5.826 2.419 11.871 2.419 17.965 0 11.813-3.096 23.452-8.953 33.658-8.898 15.557-23.871 27.187-41.074 31.904-5.818 1.61-11.869 2.428-17.973 2.428zm0-125.98c-5.19 0-10.338.693-15.303 2.061-14.676 4.024-27.452 13.953-35.058 27.243-4.991 8.715-7.629 18.634-7.629 28.687 0 5.198.693 10.35 2.061 15.312 4.031 14.67 13.961 27.448 27.245 35.061 8.7 4.983 18.619 7.618 28.685 7.618 5.203 0 10.356-.696 15.316-2.068 14.683-4.026 27.455-13.952 35.054-27.234 4.993-8.7 7.63-18.618 7.63-28.688 0-5.196-.693-10.348-2.061-15.312-4.031-14.67-13.961-27.448-27.246-35.061-8.7-4.984-18.622-7.619-28.694-7.619z"/><path d="m260.83 376.07c-.219 0-.437-.015-.654-.043l-24.405-3.209c-1.317-.173-2.511-.862-3.319-1.916l-14.987-19.525c-.809-1.053-1.166-2.384-.992-3.7l3.22-24.411c.173-1.313.86-2.503 1.91-3.311l19.535-14.993c1.052-.806 2.379-1.165 3.696-.989l24.407 3.209c1.316.173 2.51.862 3.318 1.916l14.979 19.54c.807 1.051 1.162 2.379.99 3.692l-3.211 24.413c-.173 1.314-.861 2.506-1.912 3.313l-19.533 14.981c-.878.674-1.948 1.033-3.042 1.033zm-21.704-12.898 20.305 2.671 16.243-12.459 2.67-20.304-12.461-16.253-20.304-2.67-16.242 12.467-2.679 20.304z"/><path d="m283.57 336.68c-2.762 0-5-2.238-5-5v-46.2c0-2.762 2.238-5 5-5 2.761 0 5 2.238 5 5v46.199c0 2.762-2.239 5.001-5 5.001z"/><path d="m280.359 361.09c-1.279 0-2.559-.488-3.535-1.465-1.953-1.952-1.953-5.118 0-7.07l32.67-32.67c1.953-1.953 5.118-1.953 7.071 0 1.952 1.952 1.952 5.118 0 7.07l-32.67 32.67c-.976.977-2.255 1.465-3.536 1.465z"/><path d="m307.029 376.07h-46.199c-2.762 0-5-2.238-5-5s2.239-5 5-5h46.199c2.762 0 5 2.238 5 5s-2.238 5-5 5z"/><path d="m269.09 405.52c-1.279 0-2.559-.488-3.535-1.464l-32.67-32.659c-1.953-1.952-1.953-5.118-.001-7.071s5.118-1.952 7.071-.001l32.67 32.659c1.953 1.952 1.953 5.118.001 7.071-.976.976-2.257 1.465-3.536 1.465z"/><path d="m221.43 399.52c-2.761 0-5-2.238-5-5v-46.19c0-2.762 2.239-5 5-5s5 2.238 5 5v46.189c0 2.762-2.239 5.001-5 5.001z"/><path d="m191.98 361.58c-1.28 0-2.56-.488-3.536-1.465-1.952-1.953-1.952-5.119.001-7.071l32.67-32.66c1.954-1.951 5.119-1.951 7.071.001 1.952 1.953 1.952 5.119-.001 7.071l-32.67 32.66c-.976.976-2.256 1.464-3.535 1.464z"/><path d="m244.18 313.93h-46.2c-2.761 0-5-2.238-5-5s2.239-5 5-5h46.2c2.761 0 5 2.238 5 5s-2.239 5-5 5z"/><path d="m268.59 317.14c-1.279 0-2.559-.488-3.535-1.465l-32.661-32.659c-1.953-1.952-1.953-5.118 0-7.07 1.953-1.953 5.118-1.953 7.071 0l32.66 32.659c1.953 1.952 1.953 5.118 0 7.07-.977.976-2.256 1.465-3.535 1.465z"/><path d="m82.5 365c-2.761 0-5-2.238-5-5v-105c0-2.762 2.239-5 5-5s5 2.238 5 5v105c0 2.762-2.239 5-5 5z"/><path d="m102.5 305c-2.761 0-5-2.238-5-5v-45c0-2.762 2.239-5 5-5s5 2.238 5 5v45c0 2.762-2.239 5-5 5z"/><path d="m382.5 430c-2.762 0-5-2.238-5-5v-105c0-2.762 2.238-5 5-5s5 2.238 5 5v105c0 2.762-2.238 5-5 5z"/><path d="m402.5 430c-2.762 0-5-2.238-5-5v-45c0-2.762 2.238-5 5-5s5 2.238 5 5v45c0 2.762-2.238 5-5 5z"/><path d="m302.5 220h-100c-2.761 0-5-2.239-5-5v-25c0-2.761 2.239-5 5-5h100c2.762 0 5 2.239 5 5v25c0 2.761-2.238 5-5 5zm-95-10h90v-15h-90z"/><path d="m97.5 135c-22.056 0-40-17.944-40-40s17.944-40 40-40 40 17.944 40 40-17.944 40-40 40zm0-70c-16.542 0-30 13.458-30 30s13.458 30 30 30 30-13.458 30-30-13.458-30-30-30z"/><path d="m427.5 165c-16.542 0-30-13.458-30-30s13.458-30 30-30 30 13.458 30 30-13.458 30-30 30zm0-50c-11.027 0-20 8.972-20 20s8.973 20 20 20 20-8.972 20-20-8.973-20-20-20z"/></g></g></svg>