<svg enable-background="new 0 0 520 520" height="512" viewBox="0 0 520 520" width="512" xmlns="http://www.w3.org/2000/svg"><g id="_x34_66_x2C__Shop_App_x2C__Online_x2C__Shop_x2C__Shopping"><g><path d="m452.5 70c16.57 0 30 13.43 30 30s-13.43 30-30 30c-16.561 0-30-13.43-30-30s13.439-30 30-30z" fill="#bdf9ff"/><path d="m57.5 310c11.05 0 20 8.95 20 20s-8.95 20-20 20c-11.04 0-20-8.95-20-20s8.96-20 20-20z" fill="#bdf9ff"/><path d="m152.5 406-40 39v-300h45 35v240 21 39z" fill="#a85120"/><path d="m192.5 445h-80l40-39z" fill="#a85120"/><path d="m402.5 445h-25-185v-39-21-240h51 11.02 12.98 30.96 55.04 49z" fill="#c86d36"/><path d="m402.5 255.27c-10.62-9.49-24.631-15.27-40-15.27-33.131 0-60 26.86-60 60s26.869 60 60 60c15.369 0 29.38-5.78 40-15.27 12.27-10.99 20-26.961 20-44.73s-7.73-33.74-20-44.73z" fill="#313a52"/><path d="m376.66 297.14c3.709 2.15 3.709 7.5 0 9.641l-18.89 10.899c-3.71 2.141-8.34-.529-8.34-4.81v-21.82c0-4.28 4.63-6.95 8.34-4.81z" fill="#fb2b3a"/><path d="m455 175c4.15 0 7.5 3.36 7.5 7.5s-3.35 7.5-7.5 7.5c-4.141 0-7.5-3.36-7.5-7.5s3.359-7.5 7.5-7.5z"/><path d="m440 365c4.15 0 7.5 3.36 7.5 7.5s-3.35 7.5-7.5 7.5c-4.141 0-7.5-3.36-7.5-7.5s3.359-7.5 7.5-7.5z"/><path d="m390 50c4.15 0 7.5 3.36 7.5 7.5s-3.35 7.5-7.5 7.5c-4.141 0-7.5-3.36-7.5-7.5s3.359-7.5 7.5-7.5z"/><path d="m312.5 385c0-2.76 2.24-5 5-5 2.77 0 5 2.24 5 5s-2.23 5-5 5c-2.76 0-5-2.24-5-5z"/><path d="m310 465c4.15 0 7.5 3.36 7.5 7.5s-3.35 7.5-7.5 7.5c-4.141 0-7.5-3.36-7.5-7.5s3.359-7.5 7.5-7.5z"/><path d="m302.5 380c2.77 0 5 2.24 5 5s-2.23 5-5 5c-2.76 0-5-2.24-5-5s2.24-5 5-5z"/><path d="m120 40c4.15 0 7.5 3.36 7.5 7.5s-3.35 7.5-7.5 7.5c-4.14 0-7.5-3.36-7.5-7.5s3.36-7.5 7.5-7.5z"/><path d="m75 200c4.15 0 7.5 3.36 7.5 7.5s-3.35 7.5-7.5 7.5c-4.14 0-7.5-3.36-7.5-7.5s3.36-7.5 7.5-7.5z"/><path d="m75 405c4.15 0 7.5 3.36 7.5 7.5s-3.35 7.5-7.5 7.5c-4.14 0-7.5-3.36-7.5-7.5s3.36-7.5 7.5-7.5z"/><path d="m192.5 450h-80c-2.761 0-5-2.238-5-5v-300c0-2.761 2.239-5 5-5h80c2.761 0 5 2.239 5 5s-2.239 5-5 5h-75v290h75c2.761 0 5 2.238 5 5s-2.239 5-5 5z"/><path d="m353.5 195c-2.762 0-5-2.239-5-5v-75c0-27.57-22.43-50-50-50-13.345 0-25.901 5.202-35.356 14.647-1.276 1.275-2.538 2.686-3.751 4.19-7.122 8.914-10.893 19.696-10.893 31.163v75c0 2.761-2.239 5-5 5s-5-2.239-5-5v-75c0-13.563 4.65-26.853 13.094-37.421 1.449-1.797 2.952-3.476 4.48-5.005 11.346-11.333 26.412-17.574 42.426-17.574 33.084 0 60 26.916 60 60v75c0 2.761-2.238 5-5 5z"/><path d="m267.5 150c-2.762 0-5-2.239-5-5v-30c0-11.466-3.771-22.248-10.906-31.179-9.554-11.961-23.803-18.821-39.094-18.821-13.345 0-25.901 5.202-35.356 14.647-9.443 9.443-14.644 21.999-14.644 35.353v30c0 2.761-2.239 5-5 5s-5-2.239-5-5v-30c0-16.025 6.241-31.093 17.574-42.426 11.345-11.333 26.412-17.574 42.426-17.574 18.348 0 35.445 8.23 46.906 22.58 8.444 10.568 13.094 23.858 13.094 37.42v30c0 2.761-2.238 5-5 5z"/><path d="m192.5 450c-1.258 0-2.518-.472-3.49-1.42l-36.51-35.597-36.509 35.597c-1.977 1.928-5.143 1.887-7.071-.09s-1.888-5.143.089-7.07l40-39c1.942-1.893 5.039-1.893 6.981 0l40 39c1.977 1.928 2.017 5.094.089 7.07-.979 1.005-2.279 1.51-3.579 1.51z"/><path d="m152.5 411c-2.761 0-5-2.238-5-5v-130c0-2.762 2.239-5 5-5s5 2.238 5 5v130c0 2.762-2.239 5-5 5z"/><path d="m363.5 195h-20c-2.762 0-5-2.239-5-5s2.238-5 5-5h20c2.762 0 5 2.239 5 5s-2.238 5-5 5z"/><path d="m253.5 195h-20c-2.761 0-5-2.239-5-5s2.239-5 5-5h20c2.761 0 5 2.239 5 5s-2.239 5-5 5z"/><path d="m377.5 411h-185c-2.761 0-5-2.238-5-5s2.239-5 5-5h185c2.762 0 5 2.238 5 5s-2.238 5-5 5z"/><path d="m287.5 390h-95c-2.761 0-5-2.238-5-5s2.239-5 5-5h95c2.762 0 5 2.238 5 5s-2.238 5-5 5z"/><path d="m402.5 450h-210c-2.761 0-5-2.238-5-5v-300c0-2.761 2.239-5 5-5h210c2.762 0 5 2.239 5 5v110.27c0 2.761-2.238 5.01-5 5.01s-5-2.229-5-4.99v-105.29h-200v290h200v-95.27c0-2.762 2.238-5.011 5-5.011s5 2.229 5 4.99v100.291c0 2.762-2.238 5-5 5z"/><path d="m354.994 323.434c-5.826 0-10.564-4.738-10.564-10.563v-21.82c0-5.825 4.738-10.563 10.564-10.563 1.836 0 3.66.492 5.274 1.423l18.89 10.899c3.316 1.922 5.287 5.347 5.283 9.166-.003 3.814-1.979 7.229-5.283 9.137l-18.89 10.899c-1.614.929-3.438 1.422-5.274 1.422zm0-32.948c-.006 0-.564.033-.564.563v21.82c0 .53.559.563.564.563.055 0 .145-.009.276-.085l18.89-10.899c.085-.048.281-.162.281-.485.001-.33-.21-.452-.289-.498l-18.882-10.895c-.131-.075-.221-.084-.276-.084z"/><path d="m362.5 365c-35.842 0-65-29.159-65-65s29.158-65 65-65c16.006 0 31.395 5.875 43.332 16.542 13.772 12.335 21.668 29.996 21.668 48.458s-7.896 36.122-21.664 48.455c-11.942 10.671-27.331 16.545-43.336 16.545zm0-120c-30.327 0-55 24.673-55 55s24.673 55 55 55c13.543 0 26.566-4.972 36.668-13.998 11.648-10.434 18.332-25.38 18.332-41.002s-6.684-30.568-18.336-41.006c-10.098-9.023-23.119-13.994-36.664-13.994z"/><path d="m362.5 345c-24.813 0-45-20.187-45-45s20.188-45 45-45 45 20.187 45 45c0 2.762-2.238 5-5 5s-5-2.238-5-5c0-19.299-15.701-35-35-35s-35 15.701-35 35 15.701 35 35 35c2.762 0 5 2.238 5 5s-2.238 5-5 5z"/><path d="m57.5 355c-13.785 0-25-11.215-25-25s11.215-25 25-25 25 11.215 25 25-11.215 25-25 25zm0-40c-8.271 0-15 6.729-15 15s6.729 15 15 15 15-6.729 15-15-6.729-15-15-15z"/><path d="m452.5 135c-19.299 0-35-15.701-35-35s15.701-35 35-35 35 15.701 35 35-15.701 35-35 35zm0-60c-13.785 0-25 11.215-25 25s11.215 25 25 25 25-11.215 25-25-11.215-25-25-25z"/></g></g></svg>