<svg enable-background="new 0 0 520 520" height="512" viewBox="0 0 520 520" width="512" xmlns="http://www.w3.org/2000/svg"><g id="_x34_67_x2C__Calendar_x2C__Date_x2C__Schedule"><g><path d="m445 50c16.57 0 30 13.43 30 30s-13.43 30-30 30c-16.561 0-30-13.43-30-30s13.439-30 30-30z" fill="#4380a0"/><path d="m85 90c11.05 0 20 8.95 20 20s-8.95 20-20 20c-11.04 0-20-8.95-20-20s8.96-20 20-20z" fill="#4380a0"/><path d="m239.88 155h55 55 55 5.96c18.87 0 34.16 15.3 34.16 34.17v10.83h-365v-10.83c0-18.87 15.3-34.17 34.17-34.17h15.83 54.88z" fill="#57606f"/><path d="m445 200v25h-15-335-15v-25z" fill="#bcb7c6"/><path d="m95 225v20 20 20 20 90 18.83c0 17.22 13.96 31.17 31.17 31.17h272.67c17.21 0 31.16-13.95 31.16-31.17v-18.83-170z" fill="#ecebed"/><path d="m325.55 316.68c2.149 6.551 3.319 13.54 3.319 20.811 0 36.97-29.969 66.939-66.93 66.939-36.97 0-66.939-29.97-66.939-66.939 0-36.96 29.97-66.931 66.939-66.931 18.43 0 35.11 7.45 47.221 19.5l-40.93 40.931-10.761-10.75c-5.94-5.94-15.56-5.94-21.5 0-2.97 2.97-4.46 6.859-4.46 10.75 0 3.89 1.49 7.79 4.46 10.75l10.75 10.76 21.511 21.499 21.5-21.5z" fill="#313a52"/><path d="m348.869 271.85c5.94 5.94 5.94 15.57 0 21.511l-23.319 23.319-35.82 35.82-21.5 21.5-21.511-21.5-10.75-10.76c-2.97-2.96-4.46-6.86-4.46-10.75 0-3.891 1.49-7.78 4.46-10.75 5.94-5.94 15.56-5.94 21.5 0l10.761 10.75 40.93-40.931 18.209-18.21c2.961-2.97 6.861-4.449 10.75-4.449 3.891 0 7.781 1.48 10.75 4.45z" fill="#68ca44"/><path d="m472.5 165c4.15 0 7.5 3.36 7.5 7.5s-3.35 7.5-7.5 7.5c-4.141 0-7.5-3.36-7.5-7.5s3.359-7.5 7.5-7.5z"/><path d="m457.5 365c4.15 0 7.5 3.36 7.5 7.5s-3.35 7.5-7.5 7.5c-4.141 0-7.5-3.36-7.5-7.5s3.359-7.5 7.5-7.5z"/><path d="m382.5 50c4.15 0 7.5 3.36 7.5 7.5s-3.35 7.5-7.5 7.5c-4.141 0-7.5-3.36-7.5-7.5s3.359-7.5 7.5-7.5z"/><path d="m312.5 460c4.15 0 7.5 3.36 7.5 7.5s-3.35 7.5-7.5 7.5c-4.141 0-7.5-3.36-7.5-7.5s3.359-7.5 7.5-7.5z"/><path d="m267.5 80c4.15 0 7.5 3.36 7.5 7.5s-3.35 7.5-7.5 7.5c-4.141 0-7.5-3.36-7.5-7.5s3.359-7.5 7.5-7.5z"/><path d="m142.5 45c4.15 0 7.5 3.36 7.5 7.5s-3.35 7.5-7.5 7.5c-4.14 0-7.5-3.36-7.5-7.5s3.36-7.5 7.5-7.5z"/><path d="m67.5 420c4.15 0 7.5 3.36 7.5 7.5s-3.35 7.5-7.5 7.5c-4.14 0-7.5-3.36-7.5-7.5s3.36-7.5 7.5-7.5z"/><path d="m47.5 245c4.15 0 7.5 3.36 7.5 7.5s-3.35 7.5-7.5 7.5c-4.14 0-7.5-3.36-7.5-7.5s3.36-7.5 7.5-7.5z"/><path d="m445 230h-15c-2.762 0-5-2.239-5-5s2.238-5 5-5h10v-30.83c0-16.084-13.081-29.17-29.16-29.17h-296.67c-16.085 0-29.17 13.085-29.17 29.17v30.83h10c2.761 0 5 2.239 5 5s-2.239 5-5 5h-15c-2.761 0-5-2.239-5-5v-35.83c0-21.599 17.571-39.17 39.17-39.17h296.67c21.593 0 39.16 17.571 39.16 39.17v35.83c0 2.761-2.238 5-5 5z"/><path d="m398.84 450h-272.67c-19.944 0-36.17-16.226-36.17-36.17v-188.83c0-2.761 2.239-5 5-5h335c2.762 0 5 2.239 5 5v188.83c0 19.944-16.221 36.17-36.16 36.17zm-298.84-220v183.83c0 14.43 11.74 26.17 26.17 26.17h272.67c14.425 0 26.16-11.74 26.16-26.17v-183.83z"/><path d="m157.5 185c-2.761 0-5-2.239-5-5s2.239-5 5-5c11.722 0 21.352-8.791 22.4-20.448.068-.693.1-1.371.1-2.052 0-12.407-10.093-22.5-22.5-22.5s-22.5 10.093-22.5 22.5c0 2.761-2.239 5-5 5s-5-2.239-5-5c0-17.92 14.58-32.5 32.5-32.5s32.5 14.58 32.5 32.5c0 1.004-.048 2.009-.144 2.986-1.511 16.809-15.422 29.514-32.356 29.514z"/><path d="m212.5 185c-2.761 0-5-2.239-5-5s2.239-5 5-5c11.722 0 21.352-8.791 22.4-20.448.068-.693.1-1.371.1-2.052 0-12.407-10.093-22.5-22.5-22.5s-22.5 10.093-22.5 22.5c0 2.761-2.239 5-5 5s-5-2.239-5-5c0-17.92 14.58-32.5 32.5-32.5s32.5 14.58 32.5 32.5c0 1.004-.048 2.009-.144 2.986-1.511 16.809-15.422 29.514-32.356 29.514z"/><path d="m267.5 185c-2.762 0-5-2.239-5-5s2.238-5 5-5c11.723 0 21.352-8.791 22.4-20.448.067-.693.1-1.371.1-2.052 0-12.407-10.094-22.5-22.5-22.5-12.407 0-22.5 10.093-22.5 22.5 0 2.761-2.239 5-5 5s-5-2.239-5-5c0-17.92 14.58-32.5 32.5-32.5s32.5 14.58 32.5 32.5c0 1.004-.049 2.009-.145 2.986-1.509 16.809-15.421 29.514-32.355 29.514z"/><path d="m322.5 185c-2.762 0-5-2.239-5-5s2.238-5 5-5c11.723 0 21.352-8.791 22.4-20.448.067-.693.1-1.371.1-2.052 0-12.407-10.094-22.5-22.5-22.5s-22.5 10.093-22.5 22.5c0 2.761-2.238 5-5 5s-5-2.239-5-5c0-17.92 14.58-32.5 32.5-32.5s32.5 14.58 32.5 32.5c0 1.004-.049 2.009-.145 2.986-1.509 16.809-15.421 29.514-32.355 29.514z"/><path d="m377.5 185c-2.762 0-5-2.239-5-5s2.238-5 5-5c11.723 0 21.352-8.791 22.4-20.448.067-.693.1-1.371.1-2.052 0-12.407-10.094-22.5-22.5-22.5s-22.5 10.093-22.5 22.5c0 2.761-2.238 5-5 5s-5-2.239-5-5c0-17.92 14.58-32.5 32.5-32.5s32.5 14.58 32.5 32.5c0 1.004-.049 2.009-.145 2.986-1.509 16.809-15.421 29.514-32.355 29.514z"/><path d="m261.939 409.43c-39.667 0-71.939-32.271-71.939-71.939 0-39.663 32.272-71.931 71.939-71.931 19.145 0 37.166 7.442 50.747 20.956 1.958 1.947 1.966 5.113.018 7.07-1.948 1.959-5.114 1.965-7.071.018-11.693-11.636-27.211-18.044-43.693-18.044-34.153 0-61.939 27.782-61.939 61.931 0 34.153 27.786 61.939 61.939 61.939 34.148 0 61.93-27.786 61.93-61.939 0-6.566-1.033-13.043-3.07-19.251-.861-2.624.568-5.449 3.191-6.311 2.623-.859 5.449.568 6.311 3.191 2.368 7.217 3.568 14.743 3.568 22.37-.001 39.668-32.268 71.94-71.931 71.94z"/><path d="m268.23 379c-1.279 0-2.559-.488-3.535-1.464l-32.263-32.262c-3.817-3.805-5.923-8.88-5.923-14.284 0-5.392 2.104-10.465 5.924-14.285 3.817-3.817 8.891-5.92 14.286-5.92s10.468 2.103 14.286 5.92l7.223 7.216 55.605-55.606c3.799-3.812 8.875-5.914 14.285-5.914 5.398 0 10.473 2.101 14.286 5.914 7.88 7.88 7.88 20.701 0 28.581l-80.64 80.64c-.975.976-2.254 1.464-3.534 1.464zm-21.51-58.215c-2.724 0-5.286 1.062-7.214 2.99-1.932 1.932-2.996 4.494-2.996 7.215 0 2.727 1.062 5.287 2.99 7.209l28.729 28.73 77.105-77.104c3.98-3.981 3.98-10.459 0-14.44-1.925-1.925-4.486-2.984-7.215-2.984-2.733 0-5.293 1.058-7.208 2.979l-59.146 59.146c-1.951 1.952-5.117 1.954-7.069.002l-10.76-10.75c-1.931-1.931-4.493-2.993-7.216-2.993z"/><path d="m180 400h-85c-2.761 0-5-2.238-5-5s2.239-5 5-5h85c2.761 0 5 2.238 5 5s-2.239 5-5 5z"/><path d="m430 400h-85c-2.762 0-5-2.238-5-5s2.238-5 5-5h85c2.762 0 5 2.238 5 5s-2.238 5-5 5z"/><path d="m445 205h-365c-2.761 0-5-2.239-5-5s2.239-5 5-5h365c2.762 0 5 2.239 5 5s-2.238 5-5 5z"/><path d="m185 250h-90c-2.761 0-5-2.239-5-5s2.239-5 5-5h90c2.761 0 5 2.239 5 5s-2.239 5-5 5z"/><path d="m170 270h-75c-2.761 0-5-2.238-5-5s2.239-5 5-5h75c2.761 0 5 2.238 5 5s-2.239 5-5 5z"/><path d="m155 290h-60c-2.761 0-5-2.238-5-5s2.239-5 5-5h60c2.761 0 5 2.238 5 5s-2.239 5-5 5z"/><path d="m140 310h-45c-2.761 0-5-2.238-5-5s2.239-5 5-5h45c2.761 0 5 2.238 5 5s-2.239 5-5 5z"/><path d="m85 135c-13.785 0-25-11.215-25-25s11.215-25 25-25 25 11.215 25 25-11.215 25-25 25zm0-40c-8.271 0-15 6.729-15 15s6.729 15 15 15 15-6.729 15-15-6.729-15-15-15z"/><path d="m445 115c-19.299 0-35-15.701-35-35s15.701-35 35-35 35 15.701 35 35-15.701 35-35 35zm0-60c-13.785 0-25 11.215-25 25s11.215 25 25 25 25-11.215 25-25-11.215-25-25-25z"/></g></g></svg>