<svg enable-background="new 0 0 520 520" height="512" viewBox="0 0 520 520" width="512" xmlns="http://www.w3.org/2000/svg"><g id="_x34_68_x2C__Camera_x2C__Movie_x2C__Video"><g><path d="m420 422.5c8.289 0 15 6.72 15 15 0 4.14-1.68 7.89-4.391 10.6-2.72 2.721-6.459 4.4-10.609 4.4h-350c-8.28 0-15-6.72-15-15 0-4.14 1.68-7.89 4.39-10.6 2.72-2.721 6.47-4.4 10.61-4.4z" fill="#fb2b3a"/><path d="m475 192.5v180l-90-50v-80z" fill="#414a56"/><path d="m440 57.5c16.57 0 30 13.43 30 30s-13.43 30-30 30c-16.561 0-30-13.43-30-30s13.439-30 30-30z" fill="#4380a0"/><path d="m75 62.5c11.05 0 20 8.95 20 20s-8.95 20-20 20c-11.04 0-20-8.95-20-20s8.96-20 20-20z" fill="#4380a0"/><path d="m255 87.5c16.57 0 30 13.43 30 30s-13.43 30-30 30c-16.56 0-30-13.43-30-30s13.44-30 30-30z" fill="#414a56"/><path d="m170 117.5c8.29 0 15 6.72 15 15s-6.71 15-15 15c-8.28 0-15-6.72-15-15s6.72-15 15-15z" fill="#57606f"/><path d="m255 67.5c27.619 0 50 22.39 50 50s-22.381 50-50 50c-24.59 0-45.04-17.76-49.22-41.15-.51-2.87-.78-5.83-.78-8.85 0-27.61 22.39-50 50-50zm30 50c0-16.57-13.43-30-30-30-16.56 0-30 13.43-30 30s13.44 30 30 30c16.57 0 30-13.43 30-30z" fill="#545b66"/><path d="m205 132.5c0 19.33-15.67 35-35 35s-35-15.67-35-35 15.67-35 35-35c17.31 0 31.68 12.56 34.5 29.07.33 1.93.5 3.91.5 5.93zm-20 0c0-8.28-6.71-15-15-15-8.28 0-15 6.72-15 15s6.72 15 15 15c8.29 0 15-6.72 15-15z" fill="#757d8c"/><path d="m359.84 167.5c-11.243 0-268.433 0-279.67 0-13.9 0-25.17 11.27-25.17 25.17v179.66c0 13.9 11.27 25.17 25.17 25.17h279.67c13.9 0 25.16-11.27 25.16-25.17 0-16.475 0-161.682 0-179.66 0-13.9-11.26-25.17-25.16-25.17z" fill="#57606f"/><path d="m135 217.5h-20-30v130h205 20 45v-130z" fill="#bde1ff"/><path d="m220 242.5c-22.09 0-40 17.91-40 40s17.91 40 40 40c22.1 0 40-17.91 40-40s-17.9-40-40-40z" fill="#313a52"/><path d="m235 283.81-23.71 13.69v-27.39z" fill="#fb2b3a"/><path d="m447.5 387.5c4.15 0 7.5 3.36 7.5 7.5s-3.35 7.5-7.5 7.5c-4.141 0-7.5-3.36-7.5-7.5s3.359-7.5 7.5-7.5z"/><path d="m442.5 152.5c4.15 0 7.5 3.36 7.5 7.5s-3.35 7.5-7.5 7.5c-4.141 0-7.5-3.36-7.5-7.5s3.359-7.5 7.5-7.5z"/><path d="m392.5 472.5c4.15 0 7.5 3.36 7.5 7.5s-3.35 7.5-7.5 7.5c-4.141 0-7.5-3.36-7.5-7.5s3.359-7.5 7.5-7.5z"/><path d="m362.5 112.5c4.15 0 7.5 3.36 7.5 7.5s-3.35 7.5-7.5 7.5c-4.141 0-7.5-3.36-7.5-7.5s3.359-7.5 7.5-7.5z"/><path d="m317.5 32.5c4.15 0 7.5 3.36 7.5 7.5s-3.35 7.5-7.5 7.5c-4.141 0-7.5-3.36-7.5-7.5s3.359-7.5 7.5-7.5z"/><path d="m157.5 47.5c4.15 0 7.5 3.36 7.5 7.5s-3.35 7.5-7.5 7.5c-4.14 0-7.5-3.36-7.5-7.5s3.36-7.5 7.5-7.5z"/><path d="m107.5 462.5c4.15 0 7.5 3.36 7.5 7.5s-3.35 7.5-7.5 7.5c-4.14 0-7.5-3.36-7.5-7.5s3.36-7.5 7.5-7.5z"/><path d="m47.5 127.5c4.15 0 7.5 3.36 7.5 7.5s-3.35 7.5-7.5 7.5c-4.14 0-7.5-3.36-7.5-7.5s3.36-7.5 7.5-7.5z"/><path d="m220 327.5c-24.813 0-45-20.187-45-45s20.187-45 45-45 45 20.188 45 45c0 24.813-20.187 45-45 45zm0-80c-19.299 0-35 15.701-35 35s15.701 35 35 35 35-15.701 35-35-15.701-35-35-35z"/><path d="m359.84 402.5h-279.67c-16.636 0-30.17-13.534-30.17-30.17v-179.66c0-16.636 13.534-30.17 30.17-30.17h279.67c16.631 0 30.16 13.534 30.16 30.17v49.83c0 2.761-2.238 5-5 5s-5-2.239-5-5v-49.83c0-11.122-9.044-20.17-20.16-20.17h-279.67c-11.122 0-20.17 9.048-20.17 20.17v179.66c0 11.122 9.048 20.17 20.17 20.17h279.67c11.116 0 20.16-9.048 20.16-20.17v-49.83c0-2.762 2.238-5 5-5s5 2.238 5 5v49.83c0 16.636-13.529 30.17-30.16 30.17z"/><path d="m475 377.5c-.836 0-1.672-.209-2.428-.629l-90-50c-1.588-.882-2.572-2.556-2.572-4.371v-80c0-1.816.984-3.489 2.572-4.371l90-50c1.548-.86 3.438-.837 4.963.061 1.527.898 2.465 2.538 2.465 4.31v180c0 1.771-.938 3.411-2.465 4.31-.781.46-1.658.69-2.535.69zm-85-57.942 80 44.444v-163.004l-80 44.444z"/><path d="m355 352.5h-270c-2.761 0-5-2.238-5-5v-130c0-2.761 2.239-5 5-5h270c2.762 0 5 2.239 5 5v130c0 2.762-2.238 5-5 5zm-265-10h260v-120h-260z"/><path d="m211.29 302.5c-.863 0-1.727-.224-2.5-.67-1.547-.893-2.5-2.544-2.5-4.33v-27.39c0-1.786.953-3.438 2.5-4.33 1.547-.894 3.454-.894 5.001.001l23.71 13.699c1.546.894 2.499 2.544 2.499 4.33s-.953 3.436-2.5 4.329l-23.71 13.69c-.774.447-1.637.671-2.5.671zm5-23.727v10.066l8.713-5.031z"/><path d="m115 292.5c-2.761 0-5-2.238-5-5v-70c0-2.761 2.239-5 5-5s5 2.239 5 5v70c0 2.762-2.239 5-5 5z"/><path d="m135 262.5c-2.761 0-5-2.238-5-5v-40c0-2.761 2.239-5 5-5s5 2.239 5 5v40c0 2.762-2.239 5-5 5z"/><path d="m310 352.5c-2.762 0-5-2.238-5-5v-80c0-2.762 2.238-5 5-5s5 2.238 5 5v80c0 2.762-2.238 5-5 5z"/><path d="m290 352.5c-2.762 0-5-2.238-5-5v-40c0-2.762 2.238-5 5-5s5 2.238 5 5v40c0 2.762-2.238 5-5 5z"/><path d="m170 172.5c-22.056 0-40-17.944-40-40s17.944-40 40-40c19.558 0 36.14 13.974 39.429 33.228.379 2.22.571 4.499.571 6.772 0 22.056-17.944 40-40 40zm0-70c-16.542 0-30 13.458-30 30s13.458 30 30 30 30-13.458 30-30c0-1.711-.144-3.423-.429-5.088-2.466-14.435-14.902-24.912-29.571-24.912z"/><path d="m170 152.5c-11.028 0-20-8.972-20-20s8.972-20 20-20 20 8.972 20 20-8.972 20-20 20zm0-30c-5.514 0-10 4.486-10 10s4.486 10 10 10 10-4.486 10-10-4.486-10-10-10z"/><path d="m255 172.5c-26.684 0-49.454-19.039-54.142-45.27-.57-3.203-.858-6.475-.858-9.73 0-30.327 24.673-55 55-55s55 24.673 55 55-24.673 55-55 55zm0-100c-24.813 0-45 20.187-45 45 0 2.669.236 5.353.703 7.975 3.833 21.452 22.464 37.025 44.297 37.025 24.813 0 45-20.187 45-45s-20.187-45-45-45z"/><path d="m255 152.5c-19.299 0-35-15.701-35-35s15.701-35 35-35 35 15.701 35 35-15.701 35-35 35zm0-60c-13.785 0-25 11.215-25 25s11.215 25 25 25 25-11.215 25-25-11.215-25-25-25z"/><path d="m420 457.5h-350c-11.028 0-20-8.972-20-20 0-5.34 2.079-10.36 5.854-14.135 3.781-3.782 8.805-5.865 14.146-5.865h350c11.027 0 20 8.972 20 20 0 5.34-2.079 10.359-5.854 14.135-3.782 3.782-8.806 5.865-14.146 5.865zm-350-30c-2.669 0-5.182 1.043-7.075 2.936-1.886 1.886-2.925 4.395-2.925 7.064 0 5.514 4.486 10 10 10h350c2.669 0 5.182-1.043 7.074-2.936 1.887-1.887 2.926-4.396 2.926-7.064 0-5.514-4.486-10-10-10z"/><path d="m440 122.5c-19.299 0-35-15.701-35-35s15.701-35 35-35 35 15.701 35 35-15.701 35-35 35zm0-60c-13.785 0-25 11.215-25 25s11.215 25 25 25 25-11.215 25-25-11.215-25-25-25z"/><path d="m75 107.5c-13.785 0-25-11.215-25-25s11.215-25 25-25 25 11.215 25 25-11.215 25-25 25zm0-40c-8.271 0-15 6.729-15 15s6.729 15 15 15 15-6.729 15-15-6.729-15-15-15z"/></g></g></svg>