<svg enable-background="new 0 0 520 520" height="512" viewBox="0 0 520 520" width="512" xmlns="http://www.w3.org/2000/svg"><g id="_x34_69_x2C__Email_x2C__Inbox_x2C__Message"><g><path d="m377.5 440c11.05 0 20 8.95 20 20s-8.95 20-20 20c-11.04 0-20-8.95-20-20s8.96-20 20-20z" fill="#4380a0"/><path d="m87.5 40c16.57 0 30 13.43 30 30s-13.43 30-30 30c-16.56 0-30-13.43-30-30s13.44-30 30-30z" fill="#4380a0"/><path d="m487.5 152.83v229.34c0 8.061-3.43 15.33-8.91 20.4l-147.45-122.87-.01-.01 146.3-148.271c6.15 5.091 10.07 12.791 10.07 21.411z" fill="#abbfcf"/><path d="m261.67 278.95-142.16 121.67c-4.36-4.91-7.01-11.37-7.01-18.45v-37.17-25-25-25-25-25-67.17c0-7.93 3.32-15.09 8.65-20.15z" fill="#abbfcf"/><path d="m331.14 279.7 147.45 122.87c-4.971 4.609-11.62 7.43-18.92 7.43h-319.33c-8.29 0-15.74-3.63-20.83-9.38l142.16-121.67 34.63 36.05 34.83-35.31z" fill="#8c9fb0"/><path d="m477.43 131.42-146.3 148.27-34.83 35.31-34.63-36.05-140.52-146.27c4.99-4.76 11.75-7.68 19.19-7.68h319.33c6.75 0 12.939 2.41 17.76 6.42z" fill="#cfe0e9"/><path d="m465 60c4.15 0 7.5 3.36 7.5 7.5s-3.35 7.5-7.5 7.5c-4.141 0-7.5-3.36-7.5-7.5s3.359-7.5 7.5-7.5z"/><path d="m465 430c4.15 0 7.5 3.36 7.5 7.5s-3.35 7.5-7.5 7.5c-4.141 0-7.5-3.36-7.5-7.5s3.359-7.5 7.5-7.5z"/><path d="m335 80c4.15 0 7.5 3.36 7.5 7.5s-3.35 7.5-7.5 7.5c-4.141 0-7.5-3.36-7.5-7.5s3.359-7.5 7.5-7.5z"/><path d="m280 440c4.15 0 7.5 3.36 7.5 7.5s-3.35 7.5-7.5 7.5c-4.141 0-7.5-3.36-7.5-7.5s3.359-7.5 7.5-7.5z"/><path d="m190 60c4.15 0 7.5 3.36 7.5 7.5s-3.35 7.5-7.5 7.5c-4.14 0-7.5-3.36-7.5-7.5s3.36-7.5 7.5-7.5z"/><path d="m75 420c4.15 0 7.5 3.36 7.5 7.5s-3.35 7.5-7.5 7.5c-4.14 0-7.5-3.36-7.5-7.5s3.36-7.5 7.5-7.5z"/><path d="m60 145c4.15 0 7.5 3.36 7.5 7.5s-3.35 7.5-7.5 7.5c-4.14 0-7.5-3.36-7.5-7.5s3.36-7.5 7.5-7.5z"/><path d="m478.588 407.57c-1.129 0-2.264-.38-3.199-1.159l-147.449-122.87c-2.122-1.768-2.408-4.92-.641-7.042 1.768-2.121 4.92-2.408 7.041-.64l147.451 122.87c2.121 1.768 2.408 4.92.641 7.042-.99 1.187-2.412 1.799-3.844 1.799z"/><path d="m119.512 405.62c-1.411 0-2.812-.594-3.801-1.749-1.795-2.098-1.55-5.254.548-7.05l142.16-121.67c2.099-1.796 5.253-1.549 7.05.548 1.795 2.098 1.551 5.254-.548 7.05l-142.16 121.67c-.943.807-2.098 1.201-3.249 1.201z"/><path d="m296.3 320c-.011 0-.022 0-.033 0-1.349-.009-2.638-.563-3.573-1.536l-175.149-182.32c-1.913-1.991-1.85-5.156.142-7.069 1.991-1.914 5.157-1.85 7.069.142l171.592 178.616 31.223-31.653 146.301-148.271c.035-.037.072-.073.11-.109 2-1.905 5.17-1.833 7.074.167 1.884 1.978 1.833 5.09-.103 7.001l-146.264 148.234-34.83 35.31c-.939.952-2.222 1.488-3.559 1.488z"/><path d="m459.67 415h-319.33c-9.392 0-18.349-4.033-24.574-11.065-5.328-6.001-8.266-13.732-8.266-21.765v-229.34c0-8.952 3.721-17.618 10.208-23.776 6.117-5.836 14.158-9.054 22.632-9.054h319.33c7.643 0 15.085 2.69 20.957 7.576 7.542 6.242 11.873 15.449 11.873 25.254v229.34c0 9.114-3.832 17.888-10.515 24.07-6.089 5.648-14.015 8.76-22.315 8.76zm-319.33-285c-5.892 0-11.481 2.237-15.739 6.298-4.583 4.351-7.101 10.219-7.101 16.532v229.34c0 5.582 2.042 10.955 5.749 15.131 4.333 4.895 10.561 7.699 17.091 7.699h319.33c5.77 0 11.281-2.165 15.52-6.096 4.647-4.3 7.311-10.397 7.311-16.734v-229.34c0-6.815-3.01-13.215-8.258-17.558-4.09-3.403-9.262-5.272-14.572-5.272z"/><path d="m392.5 165h-190c-2.761 0-5-2.239-5-5s2.239-5 5-5h190c2.762 0 5 2.239 5 5s-2.238 5-5 5z"/><path d="m372.5 190h-150c-2.761 0-5-2.239-5-5s2.239-5 5-5h150c2.762 0 5 2.239 5 5s-2.238 5-5 5z"/><path d="m347.5 215h-100c-2.761 0-5-2.239-5-5s2.239-5 5-5h100c2.762 0 5 2.239 5 5s-2.238 5-5 5z"/><path d="m112.5 225h-80c-2.761 0-5-2.239-5-5s2.239-5 5-5h80c2.761 0 5 2.239 5 5s-2.239 5-5 5z"/><path d="m112.5 250h-70c-2.761 0-5-2.239-5-5s2.239-5 5-5h70c2.761 0 5 2.239 5 5s-2.239 5-5 5z"/><path d="m112.5 275h-60c-2.761 0-5-2.238-5-5s2.239-5 5-5h60c2.761 0 5 2.238 5 5s-2.239 5-5 5z"/><path d="m112.5 300h-50c-2.761 0-5-2.238-5-5s2.239-5 5-5h50c2.761 0 5 2.238 5 5s-2.239 5-5 5z"/><path d="m112.5 325h-40c-2.761 0-5-2.238-5-5s2.239-5 5-5h40c2.761 0 5 2.238 5 5s-2.239 5-5 5z"/><path d="m112.5 350h-30c-2.761 0-5-2.238-5-5s2.239-5 5-5h30c2.761 0 5 2.238 5 5s-2.239 5-5 5z"/><path d="m87.5 105c-19.299 0-35-15.701-35-35s15.701-35 35-35 35 15.701 35 35-15.701 35-35 35zm0-60c-13.785 0-25 11.215-25 25s11.215 25 25 25 25-11.215 25-25-11.215-25-25-25z"/><path d="m377.5 485c-13.785 0-25-11.215-25-25s11.215-25 25-25 25 11.215 25 25-11.215 25-25 25zm0-40c-8.271 0-15 6.729-15 15s6.729 15 15 15 15-6.729 15-15-6.729-15-15-15z"/></g></g></svg>