<svg enable-background="new 0 0 520 520" height="512" viewBox="0 0 520 520" width="512" xmlns="http://www.w3.org/2000/svg"><g id="_x34_70_x2C__Compass_x2C__Direction_x2C__Gps"><g><path d="m257.5 117.5c-79.44 0-143.83 64.4-143.83 143.84s64.39 143.84 143.83 143.84c79.439 0 143.84-64.399 143.84-143.84 0-79.44-64.401-143.84-143.84-143.84z" fill="#abbfcf"/><path d="m257.5 147.5c-62.87 0-113.83 50.97-113.83 113.84s50.96 113.84 113.83 113.84c62.88 0 113.84-50.97 113.84-113.84s-50.96-113.84-113.84-113.84z" fill="#ecebed"/><path d="m442.5 92.5c13.81 0 25 11.19 25 25s-11.19 25-25 25c-13.801 0-25-11.19-25-25s11.199-25 25-25z" fill="#ff5622"/><circle cx="87.5" cy="432.5" fill="#ff5622" r="35"/><path d="m426.34 261.34h-25c0-79.44-64.4-143.84-143.84-143.84v-25c93.25 0 168.84 75.59 168.84 168.84z" fill="#313a52"/><path d="m257.5 405.18v25c-93.24 0-168.83-75.59-168.83-168.84h25c0 79.44 64.39 143.84 143.83 143.84z" fill="#313a52"/><path d="m401.34 261.34h25c0 93.25-75.59 168.84-168.84 168.84v-25c79.439 0 143.84-64.4 143.84-143.84z" fill="#57606f"/><path d="m257.5 92.5v25c-79.44 0-143.83 64.4-143.83 143.84h-25c0-93.25 75.59-168.84 168.83-168.84z" fill="#57606f"/><g fill="#ff5622"><path d="m257.5 336.34c5.529 0 10 4.48 10 10 0 5.521-4.471 10-10 10-5.52 0-10-4.479-10-10 0-5.52 4.48-10 10-10z"/><path d="m342.5 251.34c5.529 0 10 4.48 10 10 0 5.521-4.471 10-10 10-5.52 0-10-4.479-10-10 0-5.52 4.48-10 10-10z"/><path d="m257.5 166.34c5.529 0 10 4.48 10 10s-4.471 10-10 10c-5.52 0-10-4.48-10-10s4.48-10 10-10z"/><path d="m172.5 251.34c5.53 0 10 4.48 10 10 0 5.521-4.47 10-10 10-5.52 0-10-4.479-10-10 0-5.52 4.48-10 10-10z"/></g><path d="m317.609 201.23-42.429 77.79-35.35-35.36z" fill="#313a52"/><path d="m239.83 243.66 35.35 35.36-77.78 42.42z" fill="#fb2b3a"/><path d="m455 207.5c4.15 0 7.5 3.36 7.5 7.5s-3.35 7.5-7.5 7.5c-4.141 0-7.5-3.36-7.5-7.5s3.359-7.5 7.5-7.5z"/><path d="m445 372.5c4.15 0 7.5 3.36 7.5 7.5s-3.35 7.5-7.5 7.5c-4.141 0-7.5-3.36-7.5-7.5s3.359-7.5 7.5-7.5z"/><path d="m370 62.5c4.15 0 7.5 3.36 7.5 7.5s-3.35 7.5-7.5 7.5c-4.141 0-7.5-3.36-7.5-7.5s3.359-7.5 7.5-7.5z"/><path d="m340 452.5c4.15 0 7.5 3.36 7.5 7.5s-3.35 7.5-7.5 7.5c-4.141 0-7.5-3.36-7.5-7.5s3.359-7.5 7.5-7.5z"/><path d="m175 442.5c4.15 0 7.5 3.36 7.5 7.5s-3.35 7.5-7.5 7.5c-4.14 0-7.5-3.36-7.5-7.5s3.36-7.5 7.5-7.5z"/><path d="m145 47.5c4.15 0 7.5 3.36 7.5 7.5s-3.35 7.5-7.5 7.5c-4.14 0-7.5-3.36-7.5-7.5s3.36-7.5 7.5-7.5z"/><path d="m65 137.5c4.15 0 7.5 3.36 7.5 7.5s-3.35 7.5-7.5 7.5c-4.14 0-7.5-3.36-7.5-7.5s3.36-7.5 7.5-7.5z"/><path d="m65 322.5c4.15 0 7.5 3.36 7.5 7.5s-3.35 7.5-7.5 7.5c-4.14 0-7.5-3.36-7.5-7.5s3.36-7.5 7.5-7.5z"/><path d="m257.5 191.34c-8.271 0-15-6.729-15-15s6.729-15 15-15 15 6.729 15 15-6.729 15-15 15zm0-20c-2.757 0-5 2.243-5 5s2.243 5 5 5 5-2.243 5-5-2.243-5-5-5z"/><path d="m257.5 361.34c-8.271 0-15-6.729-15-15s6.729-15 15-15 15 6.729 15 15-6.729 15-15 15zm0-20c-2.757 0-5 2.243-5 5s2.243 5 5 5 5-2.243 5-5-2.243-5-5-5z"/><path d="m342.5 276.34c-8.271 0-15-6.729-15-15s6.729-15 15-15 15 6.729 15 15-6.729 15-15 15zm0-20c-2.757 0-5 2.243-5 5s2.243 5 5 5 5-2.243 5-5-2.243-5-5-5z"/><path d="m172.5 276.34c-8.271 0-15-6.729-15-15s6.729-15 15-15 15 6.729 15 15-6.729 15-15 15zm0-20c-2.757 0-5 2.243-5 5s2.243 5 5 5 5-2.243 5-5-2.243-5-5-5z"/><path d="m275.176 284.021c-.81 0-1.63-.196-2.391-.611-2.424-1.322-3.317-4.359-1.995-6.784l34.29-62.864-62.856 34.288c-2.424 1.324-5.461.43-6.784-1.995-1.323-2.424-.43-5.461 1.995-6.784l77.78-42.43c1.947-1.063 4.362-.715 5.931.854s1.916 3.982.854 5.93l-42.431 77.79c-.907 1.662-2.624 2.606-4.393 2.606z"/><path d="m197.401 326.44c-1.295 0-2.575-.503-3.537-1.465-1.568-1.568-1.916-3.982-.854-5.93l42.43-77.78c.754-1.383 2.117-2.33 3.677-2.555 1.559-.222 3.134.3 4.249 1.414l35.35 35.359c1.114 1.114 1.638 2.688 1.413 4.248s-1.172 2.922-2.555 3.677l-77.78 42.421c-.753.411-1.576.611-2.393.611zm43.618-74.519-31.088 56.99 56.99-31.082z"/><path d="m257.5 380.18c-65.523 0-118.83-53.312-118.83-118.84s53.307-118.84 118.83-118.84c65.528 0 118.84 53.312 118.84 118.84s-53.312 118.84-118.84 118.84zm0-227.68c-60.009 0-108.83 48.825-108.83 108.84s48.821 108.84 108.83 108.84c60.015 0 108.84-48.825 108.84-108.84s-48.825-108.84-108.84-108.84z"/><path d="m257.5 410.18c-82.065 0-148.83-66.77-148.83-148.84s66.765-148.84 148.83-148.84c82.07 0 148.84 66.77 148.84 148.84s-66.77 148.84-148.84 148.84zm0-287.68c-76.551 0-138.83 62.283-138.83 138.84s62.279 138.84 138.83 138.84c76.557 0 138.84-62.283 138.84-138.84s-62.283-138.84-138.84-138.84z"/><path d="m257.5 435.18c-95.85 0-173.83-77.984-173.83-173.84s77.98-173.84 173.83-173.84c95.855 0 173.84 77.984 173.84 173.84s-77.985 173.84-173.84 173.84zm0-337.68c-90.336 0-163.83 73.498-163.83 163.84s73.494 163.84 163.83 163.84c90.342 0 163.84-73.498 163.84-163.84s-73.498-163.84-163.84-163.84z"/><path d="m257.5 122.5c-2.761 0-5-2.239-5-5v-25c0-2.761 2.239-5 5-5 2.762 0 5 2.239 5 5v25c0 2.761-2.238 5-5 5z"/><path d="m87.5 472.5c-22.056 0-40-17.944-40-40s17.944-40 40-40 40 17.944 40 40-17.944 40-40 40zm0-70c-16.542 0-30 13.458-30 30s13.458 30 30 30 30-13.458 30-30-13.458-30-30-30z"/><path d="m442.5 147.5c-16.542 0-30-13.458-30-30s13.458-30 30-30 30 13.458 30 30-13.458 30-30 30zm0-50c-11.027 0-20 8.972-20 20s8.973 20 20 20 20-8.972 20-20-8.973-20-20-20z"/><path d="m257.5 435.18c-2.761 0-5-2.238-5-5v-25c0-2.762 2.239-5 5-5 2.762 0 5 2.238 5 5v25c0 2.761-2.238 5-5 5z"/><path d="m426.34 266.34h-25c-2.762 0-5-2.238-5-5s2.238-5 5-5h25c2.762 0 5 2.238 5 5s-2.238 5-5 5z"/><path d="m113.67 266.34h-25c-2.761 0-5-2.238-5-5s2.239-5 5-5h25c2.761 0 5 2.238 5 5s-2.239 5-5 5z"/></g></g></svg>