<svg enable-background="new 0 0 520 520" height="512" viewBox="0 0 520 520" width="512" xmlns="http://www.w3.org/2000/svg"><g id="_x34_71_x2C__Clock_x2C__Timer_x2C__Wall_Clock_x2C__Watch"><g><path d="m257.5 117.5c-79.44 0-143.83 64.4-143.83 143.84s64.39 143.84 143.83 143.84c79.439 0 143.84-64.399 143.84-143.84 0-79.44-64.401-143.84-143.84-143.84z" fill="#abbfcf"/><path d="m257.5 147.5c-62.87 0-113.83 50.97-113.83 113.84s50.96 113.84 113.83 113.84c62.88 0 113.84-50.97 113.84-113.84s-50.96-113.84-113.84-113.84z" fill="#bdf9ff"/><path d="m442.5 92.5c13.81 0 25 11.19 25 25s-11.19 25-25 25c-13.801 0-25-11.19-25-25s11.199-25 25-25z" fill="#ff5622"/><circle cx="87.5" cy="432.5" fill="#ff5622" r="35"/><path d="m426.34 261.34h-25c0-79.44-64.4-143.84-143.84-143.84v-25c93.25 0 168.84 75.59 168.84 168.84z" fill="#57606f"/><path d="m257.5 405.18v25c-93.24 0-168.83-75.59-168.83-168.84h25c0 79.44 64.39 143.84 143.83 143.84z" fill="#57606f"/><path d="m401.34 261.34h25c0 93.25-75.59 168.84-168.84 168.84v-25c79.439 0 143.84-64.4 143.84-143.84z" fill="#313a52"/><path d="m257.5 92.5v25c-79.44 0-143.83 64.4-143.83 143.84h-25c0-93.25 75.59-168.84 168.83-168.84z" fill="#313a52"/><circle cx="257.5" cy="265.87" fill="#fb2b3a" r="12.15"/><path d="m455 207.5c4.15 0 7.5 3.36 7.5 7.5s-3.35 7.5-7.5 7.5c-4.141 0-7.5-3.36-7.5-7.5s3.359-7.5 7.5-7.5z"/><path d="m445 372.5c4.15 0 7.5 3.36 7.5 7.5s-3.35 7.5-7.5 7.5c-4.141 0-7.5-3.36-7.5-7.5s3.359-7.5 7.5-7.5z"/><path d="m370 62.5c4.15 0 7.5 3.36 7.5 7.5s-3.35 7.5-7.5 7.5c-4.141 0-7.5-3.36-7.5-7.5s3.359-7.5 7.5-7.5z"/><path d="m340 452.5c4.15 0 7.5 3.36 7.5 7.5s-3.35 7.5-7.5 7.5c-4.141 0-7.5-3.36-7.5-7.5s3.359-7.5 7.5-7.5z"/><path d="m175 442.5c4.15 0 7.5 3.36 7.5 7.5s-3.35 7.5-7.5 7.5c-4.14 0-7.5-3.36-7.5-7.5s3.36-7.5 7.5-7.5z"/><path d="m145 47.5c4.15 0 7.5 3.36 7.5 7.5s-3.35 7.5-7.5 7.5c-4.14 0-7.5-3.36-7.5-7.5s3.36-7.5 7.5-7.5z"/><path d="m65 137.5c4.15 0 7.5 3.36 7.5 7.5s-3.35 7.5-7.5 7.5c-4.14 0-7.5-3.36-7.5-7.5s3.36-7.5 7.5-7.5z"/><path d="m65 322.5c4.15 0 7.5 3.36 7.5 7.5s-3.35 7.5-7.5 7.5c-4.14 0-7.5-3.36-7.5-7.5s3.36-7.5 7.5-7.5z"/><path d="m257.5 380.18c-65.523 0-118.83-53.312-118.83-118.84s53.307-118.84 118.83-118.84c65.528 0 118.84 53.312 118.84 118.84s-53.312 118.84-118.84 118.84zm0-227.68c-60.009 0-108.83 48.825-108.83 108.84s48.821 108.84 108.83 108.84c60.015 0 108.84-48.825 108.84-108.84s-48.825-108.84-108.84-108.84z"/><path d="m257.5 283.02c-9.457 0-17.15-7.693-17.15-17.149 0-9.457 7.694-17.15 17.15-17.15 9.457 0 17.15 7.693 17.15 17.15 0 9.455-7.693 17.149-17.15 17.149zm0-24.299c-3.943 0-7.15 3.207-7.15 7.149s3.208 7.149 7.15 7.149 7.15-3.207 7.15-7.149-3.208-7.149-7.15-7.149z"/><path d="m257.5 258.721c-2.761 0-5-2.239-5-5v-49.3c0-2.761 2.239-5 5-5 2.762 0 5 2.239 5 5v49.3c0 2.76-2.238 5-5 5z"/><path d="m292.619 305.99c-1.279 0-2.559-.488-3.535-1.465l-26.521-26.53c-1.952-1.953-1.952-5.119.001-7.071s5.119-1.952 7.071.001l26.521 26.53c1.951 1.953 1.951 5.119-.002 7.071-.976.976-2.256 1.464-3.535 1.464z"/><path d="m257.5 169.42c-2.761 0-5-2.239-5-5v-16.92c0-2.761 2.239-5 5-5 2.762 0 5 2.239 5 5v16.92c0 2.761-2.238 5-5 5z"/><path d="m257.5 379.42c-2.761 0-5-2.238-5-5v-16.92c0-2.762 2.239-5 5-5 2.762 0 5 2.238 5 5v16.92c0 2.762-2.238 5-5 5z"/><path d="m325.77 197.69c-1.279 0-2.559-.488-3.535-1.464-1.953-1.953-1.953-5.119 0-7.071l11.96-11.96c1.954-1.952 5.119-1.951 7.071 0 1.953 1.953 1.953 5.119 0 7.071l-11.961 11.96c-.977.976-2.256 1.464-3.535 1.464z"/><path d="m177.28 346.18c-1.28 0-2.559-.488-3.536-1.465-1.953-1.952-1.953-5.118 0-7.07l11.96-11.96c1.953-1.953 5.118-1.953 7.071 0 1.953 1.952 1.953 5.118 0 7.07l-11.96 11.96c-.976.976-2.255 1.465-3.535 1.465z"/><path d="m370.96 265.96h-16.91c-2.761 0-5-2.238-5-5 0-2.761 2.239-5 5-5h16.91c2.761 0 5 2.239 5 5 0 2.762-2.239 5-5 5z"/><path d="m160.96 265.96h-16.91c-2.761 0-5-2.238-5-5 0-2.761 2.239-5 5-5h16.91c2.761 0 5 2.239 5 5 0 2.762-2.239 5-5 5z"/><path d="m189.24 197.69c-1.28 0-2.559-.488-3.536-1.464l-11.96-11.96c-1.953-1.953-1.953-5.119 0-7.071s5.118-1.952 7.071 0l11.96 11.96c1.953 1.953 1.953 5.119 0 7.071-.976.976-2.255 1.464-3.535 1.464z"/><path d="m337.73 346.18c-1.28 0-2.56-.488-3.536-1.465l-11.96-11.96c-1.953-1.952-1.953-5.118 0-7.07 1.953-1.953 5.117-1.953 7.07 0l11.961 11.96c1.953 1.952 1.953 5.118 0 7.07-.976.976-2.255 1.465-3.535 1.465z"/><path d="m257.5 410.18c-82.065 0-148.83-66.77-148.83-148.84s66.765-148.84 148.83-148.84c82.07 0 148.84 66.77 148.84 148.84s-66.77 148.84-148.84 148.84zm0-287.68c-76.551 0-138.83 62.283-138.83 138.84s62.279 138.84 138.83 138.84c76.557 0 138.84-62.283 138.84-138.84s-62.283-138.84-138.84-138.84z"/><path d="m257.5 435.18c-95.85 0-173.83-77.984-173.83-173.84s77.98-173.84 173.83-173.84c95.855 0 173.84 77.984 173.84 173.84s-77.985 173.84-173.84 173.84zm0-337.68c-90.336 0-163.83 73.498-163.83 163.84s73.494 163.84 163.83 163.84c90.342 0 163.84-73.498 163.84-163.84s-73.498-163.84-163.84-163.84z"/><path d="m257.5 122.5c-2.761 0-5-2.239-5-5v-25c0-2.761 2.239-5 5-5 2.762 0 5 2.239 5 5v25c0 2.761-2.238 5-5 5z"/><path d="m87.5 472.5c-22.056 0-40-17.944-40-40s17.944-40 40-40 40 17.944 40 40-17.944 40-40 40zm0-70c-16.542 0-30 13.458-30 30s13.458 30 30 30 30-13.458 30-30-13.458-30-30-30z"/><path d="m442.5 147.5c-16.542 0-30-13.458-30-30s13.458-30 30-30 30 13.458 30 30-13.458 30-30 30zm0-50c-11.027 0-20 8.972-20 20s8.973 20 20 20 20-8.972 20-20-8.973-20-20-20z"/><path d="m257.5 435.18c-2.761 0-5-2.238-5-5v-25c0-2.762 2.239-5 5-5 2.762 0 5 2.238 5 5v25c0 2.761-2.238 5-5 5z"/><path d="m426.34 266.34h-25c-2.762 0-5-2.238-5-5s2.238-5 5-5h25c2.762 0 5 2.238 5 5s-2.238 5-5 5z"/><path d="m113.67 266.34h-25c-2.761 0-5-2.238-5-5s2.239-5 5-5h25c2.761 0 5 2.238 5 5s-2.239 5-5 5z"/></g></g></svg>