<svg enable-background="new 0 0 520 520" height="512" viewBox="0 0 520 520" width="512" xmlns="http://www.w3.org/2000/svg"><g id="_x34_72_x2C__Hyperlink_x2C__Link_x2C__Web_x2C__Web_Link"><g><path d="m400 117.165c22.1 0 40 17.91 40 40s-17.9 40-40 40c-22.09 0-40-17.91-40-40s17.91-40 40-40z" fill="#c86d36"/><path d="m145 362.165c13.81 0 25 11.19 25 25s-11.19 25-25 25c-13.8 0-25-11.19-25-25s11.2-25 25-25z" fill="#c86d36"/><path d="m318.039 296.646c10.74 10.739 10.74 28.149 0 38.89-5.369 5.37-12.409 8.05-19.449 8.05-7.03 0-14.07-2.68-19.439-8.05l-2.631-2.63-20.06-20.061-21.8-21.8-20.06-20.061-2.63-2.629c-10.74-10.74-10.74-28.15 0-38.891 5.37-5.37 12.41-8.06 19.44-8.06 7.04 0 14.08 2.69 19.45 8.06l2.63 2.63 20.06 20.06 21.8 21.8 20.061 20.06z" fill="#ffd54f"/><path d="m424.1 339.065c14.16 14.159 21.24 32.72 21.24 51.27s-7.08 37.11-21.24 51.26c-28.311 28.32-74.21 28.32-102.529 0l-49.49-49.489c-21.43-21.431-26.63-52.931-15.62-79.261l20.06 20.061c-2.47 14.64 1.93 30.22 13.23 41.52l49.5 49.49c9.279 9.27 21.43 13.91 33.59 13.91s24.311-4.641 33.59-13.91c18.551-18.54 18.551-48.62 0-67.17l-49.5-49.5c-11.3-11.3-26.88-15.7-41.52-13.23l-20.061-20.06c26.33-11.01 57.83-5.811 79.26 15.61z" fill="#4380a0"/><path d="m257.93 172.895c21.43 21.43 26.63 52.93 15.62 79.26l-20.06-20.06c2.47-14.64-1.93-30.22-13.23-41.52l-49.5-49.5c-9.27-9.27-21.43-13.91-33.59-13.91s-24.32 4.64-33.59 13.91c-18.55 18.55-18.55 48.63 0 67.18l49.5 49.49c11.3 11.31 26.88 15.71 41.52 13.239l20.06 20.061c-26.33 11.01-57.83 5.811-79.26-15.62l-49.49-49.49c-14.16-14.16-21.24-32.71-21.24-51.27s7.08-37.11 21.24-51.27c28.31-28.31 74.21-28.31 102.53 0z" fill="#4380a0"/><path d="m462.5 442.165c4.15 0 7.5 3.36 7.5 7.5s-3.35 7.5-7.5 7.5c-4.141 0-7.5-3.36-7.5-7.5s3.359-7.5 7.5-7.5z"/><path d="m457.5 222.165c4.15 0 7.5 3.36 7.5 7.5s-3.35 7.5-7.5 7.5c-4.141 0-7.5-3.36-7.5-7.5s3.359-7.5 7.5-7.5z"/><path d="m312.5 137.165c4.15 0 7.5 3.36 7.5 7.5s-3.35 7.5-7.5 7.5c-4.141 0-7.5-3.36-7.5-7.5s3.359-7.5 7.5-7.5z"/><path d="m257.5 442.165c4.15 0 7.5 3.36 7.5 7.5s-3.35 7.5-7.5 7.5c-4.14 0-7.5-3.36-7.5-7.5s3.36-7.5 7.5-7.5z"/><path d="m227.5 52.165c4.15 0 7.5 3.36 7.5 7.5s-3.35 7.5-7.5 7.5c-4.14 0-7.5-3.36-7.5-7.5s3.36-7.5 7.5-7.5z"/><path d="m72.5 422.165c4.15 0 7.5 3.36 7.5 7.5s-3.35 7.5-7.5 7.5c-4.14 0-7.5-3.36-7.5-7.5s3.36-7.5 7.5-7.5z"/><path d="m57.5 247.165c4.15 0 7.5 3.36 7.5 7.5s-3.35 7.5-7.5 7.5c-4.14 0-7.5-3.36-7.5-7.5s3.36-7.5 7.5-7.5z"/><path d="m206.578 301.706c-20.124.001-39.842-7.873-54.714-22.746l-49.49-49.489c-14.641-14.642-22.704-34.105-22.704-54.806s8.063-40.164 22.704-54.806c30.213-30.212 79.38-30.211 109.601 0l49.491 49.501c22.327 22.328 28.882 55.584 16.696 84.724-1.064 2.548-3.994 3.75-6.541 2.684-2.548-1.065-3.75-3.994-2.684-6.542 10.613-25.382 4.904-54.349-14.543-73.796l-49.49-49.5c-26.322-26.313-69.146-26.312-95.459 0-12.752 12.752-19.775 29.705-19.775 47.734s7.023 34.982 19.775 47.734l49.49 49.489c19.446 19.448 48.411 25.156 73.795 14.543 2.545-1.065 5.476.136 6.542 2.685 1.065 2.548-.136 5.477-2.684 6.542-9.73 4.07-19.921 6.049-30.01 6.049z"/><path d="m206.702 276.646c-13.822 0-27.257-5.457-37.159-15.367l-49.498-49.488c-20.471-20.472-20.471-53.78 0-74.251 9.915-9.915 23.1-15.375 37.126-15.375s27.211 5.46 37.125 15.375l49.5 49.5c11.983 11.984 17.451 29.138 14.625 45.888-.459 2.723-3.04 4.56-5.762 4.098-2.723-.459-4.558-3.039-4.098-5.762 2.289-13.564-2.136-27.453-11.835-37.152l-49.5-49.5c-8.025-8.026-18.699-12.446-30.054-12.446s-22.029 4.42-30.055 12.446c-16.572 16.572-16.572 43.537 0 60.108l49.5 49.49c9.699 9.707 23.588 14.134 37.153 11.845 2.726-.461 5.303 1.375 5.762 4.098.459 2.724-1.375 5.304-4.098 5.763-2.91.489-5.83.73-8.732.73z"/><path d="m372.838 467.835c-20.699 0-40.162-8.063-54.804-22.705l-49.49-49.489c-22.328-22.329-28.882-55.585-16.697-84.725 1.065-2.549 3.995-3.75 6.542-2.685 2.548 1.065 3.75 3.994 2.684 6.542-10.613 25.382-4.905 54.348 14.543 73.797l49.49 49.489c12.752 12.752 29.704 19.775 47.732 19.775 18.029 0 34.979-7.022 47.726-19.775 12.754-12.744 19.776-29.692 19.776-47.725 0-18.03-7.023-34.982-19.775-47.734l-49.49-49.5c-19.449-19.44-48.417-25.147-73.795-14.532-2.549 1.061-5.477-.136-6.543-2.685-1.064-2.548.137-5.476 2.684-6.542 29.139-12.185 62.395-5.633 84.725 16.688l49.49 49.501c14.642 14.64 22.705 34.104 22.705 54.805 0 20.705-8.064 40.166-22.706 54.797-14.635 14.639-34.096 22.703-54.797 22.703z"/><path d="m372.84 442.825c-14.016 0-27.199-5.459-37.123-15.373l-49.502-49.491c-11.984-11.983-17.451-29.138-14.625-45.888.459-2.723 3.04-4.553 5.762-4.099 2.723.46 4.558 3.039 4.098 5.763-2.287 13.564 2.137 27.453 11.836 37.152l49.5 49.489c8.034 8.025 18.709 12.446 30.055 12.446s22.021-4.421 30.057-12.447c8.025-8.021 12.445-18.691 12.445-30.044 0-11.354-4.42-22.026-12.447-30.054l-49.5-49.5c-9.699-9.699-23.586-14.123-37.153-11.835-2.726.453-5.303-1.376-5.762-4.099-.46-2.724 1.376-5.303 4.099-5.763 16.748-2.824 33.904 2.643 45.887 14.626l49.5 49.5c9.916 9.915 15.377 23.1 15.377 37.124s-5.461 27.206-15.377 37.117c-9.928 9.917-23.112 15.376-37.127 15.376z"/><path d="m298.59 348.585c-8.682 0-16.841-3.379-22.976-9.515l-67.18-67.18c-12.671-12.672-12.671-33.29 0-45.961 6.143-6.142 14.302-9.524 22.976-9.524 8.68 0 16.843 3.382 22.985 9.524l67.181 67.181c6.138 6.138 9.519 14.299 9.519 22.979s-3.381 16.842-9.52 22.98c-6.135 6.137-14.298 9.516-22.985 9.516zm-67.18-122.18c-6.003 0-11.651 2.342-15.905 6.595-8.772 8.772-8.772 23.046 0 31.819l67.18 67.18c4.246 4.247 9.895 6.586 15.904 6.586 6.016 0 11.668-2.339 15.914-6.585 4.25-4.25 6.591-9.9 6.591-15.91 0-6.009-2.341-11.659-6.591-15.908l-67.179-67.182c-4.253-4.252-9.905-6.595-15.914-6.595z"/><path d="m290.99 313.015c-1.28 0-2.56-.488-3.536-1.465l-56.57-56.569c-1.953-1.953-1.953-5.119 0-7.071s5.118-1.952 7.071 0l56.57 56.57c1.953 1.952 1.953 5.118 0 7.07-.976.976-2.255 1.465-3.535 1.465z"/><path d="m400 202.165c-24.813 0-45-20.187-45-45s20.188-45 45-45 45 20.187 45 45-20.187 45-45 45zm0-80c-19.299 0-35 15.701-35 35s15.701 35 35 35 35-15.701 35-35-15.701-35-35-35z"/><path d="m145 417.165c-16.542 0-30-13.458-30-30s13.458-30 30-30 30 13.458 30 30-13.458 30-30 30zm0-50c-11.028 0-20 8.972-20 20s8.972 20 20 20 20-8.972 20-20-8.972-20-20-20z"/></g></g></svg>