<svg enable-background="new 0 0 520 520" height="512" viewBox="0 0 520 520" width="512" xmlns="http://www.w3.org/2000/svg"><g id="_x34_73_x2C__Chat_x2C__Communication_x2C__Message"><g><path d="m462.5 147.5v25 101c0 21.54-17.461 39-39 39h-56v-66c0-21.54-17.461-39-39-39h-166v-81c0-21.54 17.47-39 39-39h103.699l107.301-45-24.23 45h35.23c21.539 0 39 17.46 39 39z" fill="#26c6da"/><path d="m367.5 312.5v81c0 21.54-17.461 39-39 39h-103.69l-107.31 45 24.24-45h-35.24c-21.53 0-39-17.46-39-39v-147c0-21.54 17.47-39 39-39h56 166c21.539 0 39 17.46 39 39z" fill="#ffd54f"/><path d="m437.5 377.5c13.81 0 25 11.19 25 25s-11.19 25-25 25c-13.801 0-25-11.19-25-25s11.199-25 25-25z" fill="#fb2b3a"/><path d="m77.5 77.5c16.57 0 30 13.43 30 30s-13.43 30-30 30c-16.56 0-30-13.43-30-30s13.44-30 30-30z" fill="#fb2b3a"/><path d="m470 322.5c4.15 0 7.5 3.36 7.5 7.5s-3.35 7.5-7.5 7.5c-4.141 0-7.5-3.36-7.5-7.5s3.359-7.5 7.5-7.5z"/><path d="m465 52.5c4.15 0 7.5 3.36 7.5 7.5s-3.35 7.5-7.5 7.5c-4.141 0-7.5-3.36-7.5-7.5s3.359-7.5 7.5-7.5z"/><path d="m375 447.5c4.15 0 7.5 3.36 7.5 7.5s-3.35 7.5-7.5 7.5c-4.141 0-7.5-3.36-7.5-7.5s3.359-7.5 7.5-7.5z"/><path d="m225 37.5c4.15 0 7.5 3.36 7.5 7.5s-3.35 7.5-7.5 7.5c-4.14 0-7.5-3.36-7.5-7.5s3.36-7.5 7.5-7.5z"/><path d="m135 52.5c4.15 0 7.5 3.36 7.5 7.5s-3.35 7.5-7.5 7.5c-4.14 0-7.5-3.36-7.5-7.5s3.36-7.5 7.5-7.5z"/><path d="m50 177.5c4.15 0 7.5 3.36 7.5 7.5s-3.35 7.5-7.5 7.5c-4.14 0-7.5-3.36-7.5-7.5s3.36-7.5 7.5-7.5z"/><path d="m50 452.5c4.15 0 7.5 3.36 7.5 7.5s-3.35 7.5-7.5 7.5c-4.14 0-7.5-3.36-7.5-7.5s3.36-7.5 7.5-7.5z"/><path d="m423.5 317.5h-56c-2.762 0-5-2.238-5-5s2.238-5 5-5h56c18.748 0 34-15.252 34-34v-147c0-18.748-15.252-34-34-34h-35.23c-1.76 0-3.391-.925-4.293-2.436s-.943-3.385-.109-4.935l17.527-32.55-94.262 39.531c-.611.257-1.27.389-1.934.389h-103.699c-18.748 0-34 15.252-34 34v81c0 2.761-2.239 5-5 5s-5-2.239-5-5v-81c0-24.262 19.738-44 44-44h102.693l106.373-44.611c1.953-.819 4.212-.318 5.637 1.25 1.424 1.569 1.703 3.865.699 5.731l-20.261 37.631h26.859c24.262 0 44 19.738 44 44v147c0 24.262-19.738 44-44 44z"/><path d="m117.501 482.5c-1.382 0-2.736-.573-3.704-1.64-1.424-1.569-1.704-3.866-.699-5.731l20.269-37.629h-26.867c-24.262 0-44-19.738-44-44v-147c0-24.262 19.738-44 44-44h222c24.262 0 44 19.738 44 44v147c0 24.262-19.738 44-44 44h-102.685l-106.382 44.611c-.625.262-1.281.389-1.932.389zm-11.001-270c-18.748 0-34 15.252-34 34v147c0 18.748 15.252 34 34 34h35.24c1.76 0 3.391.926 4.293 2.437s.944 3.385.109 4.935l-17.532 32.549 94.267-39.531c.612-.257 1.27-.389 1.934-.389h103.689c18.748 0 34-15.252 34-34v-147c0-18.748-15.252-34-34-34h-222z"/><path d="m337.5 262.5h-240c-2.761 0-5-2.238-5-5 0-2.761 2.239-5 5-5h240c2.762 0 5 2.239 5 5 0 2.762-2.238 5-5 5z"/><path d="m337.5 287.5h-240c-2.761 0-5-2.238-5-5s2.239-5 5-5h240c2.762 0 5 2.238 5 5s-2.238 5-5 5z"/><path d="m337.5 312.5h-240c-2.761 0-5-2.238-5-5s2.239-5 5-5h240c2.762 0 5 2.238 5 5s-2.238 5-5 5z"/><path d="m337.5 337.5h-240c-2.761 0-5-2.238-5-5s2.239-5 5-5h240c2.762 0 5 2.238 5 5s-2.238 5-5 5z"/><path d="m337.5 362.5h-240c-2.761 0-5-2.238-5-5s2.239-5 5-5h240c2.762 0 5 2.238 5 5s-2.238 5-5 5z"/><path d="m197.5 387.5h-100c-2.761 0-5-2.238-5-5s2.239-5 5-5h100c2.761 0 5 2.238 5 5s-2.239 5-5 5z"/><path d="m77.5 142.5c-19.299 0-35-15.701-35-35s15.701-35 35-35 35 15.701 35 35-15.701 35-35 35zm0-60c-13.785 0-25 11.215-25 25s11.215 25 25 25 25-11.215 25-25-11.215-25-25-25z"/><path d="m437.5 432.5c-16.542 0-30-13.458-30-30s13.458-30 30-30 30 13.458 30 30-13.458 30-30 30zm0-50c-11.027 0-20 8.972-20 20s8.973 20 20 20 20-8.972 20-20-8.973-20-20-20z"/><path d="m462.5 152.5h-140c-2.762 0-5-2.239-5-5s2.238-5 5-5h140c2.762 0 5 2.239 5 5s-2.238 5-5 5z"/><path d="m462.5 177.5h-60c-2.762 0-5-2.239-5-5s2.238-5 5-5h60c2.762 0 5 2.239 5 5s-2.238 5-5 5z"/></g></g></svg>