<svg enable-background="new 0 0 520 520" height="512" viewBox="0 0 520 520" width="512" xmlns="http://www.w3.org/2000/svg"><g id="_x34_74_x2C__Attached_Document_x2C__Attachment_x2C__Document_x2C__File"><g><path d="m467.5 145c11.05 0 20 8.95 20 20s-8.95 20-20 20c-11.04 0-20-8.95-20-20s8.96-20 20-20z" fill="#4380a0"/><path d="m47.5 385c8.29 0 15 6.72 15 15s-6.71 15-15 15c-8.28 0-15-6.72-15-15s6.72-15 15-15z" fill="#4380a0"/><path d="m367.5 35c18.55 18.55 41.449 41.45 60 60h-60z" fill="#bcb7c6"/><path d="m367.5 445v40h-280v-155-125-120h40v120 125 90 25z" fill="#cfe0e9"/><path d="m427.5 420v25h-60-240v-25z" fill="#bcb7c6"/><path d="m367.5 95v-60h-195-45v50 120 125 90h300v-325z" fill="#ecebed"/><path d="m465 390c4.15 0 7.5 3.36 7.5 7.5s-3.35 7.5-7.5 7.5c-4.141 0-7.5-3.36-7.5-7.5s3.359-7.5 7.5-7.5z"/><path d="m450 45c4.15 0 7.5 3.36 7.5 7.5s-3.35 7.5-7.5 7.5c-4.141 0-7.5-3.36-7.5-7.5s3.359-7.5 7.5-7.5z"/><path d="m450 240c4.15 0 7.5 3.36 7.5 7.5s-3.35 7.5-7.5 7.5c-4.141 0-7.5-3.36-7.5-7.5s3.359-7.5 7.5-7.5z"/><path d="m172.5 110c2.77 0 5 2.24 5 5s-2.23 5-5 5c-2.76 0-5-2.24-5-5s2.24-5 5-5z"/><path d="m75 50c4.15 0 7.5 3.36 7.5 7.5s-3.35 7.5-7.5 7.5c-4.14 0-7.5-3.36-7.5-7.5s3.36-7.5 7.5-7.5z"/><path d="m65 435c4.15 0 7.5 3.36 7.5 7.5s-3.35 7.5-7.5 7.5c-4.14 0-7.5-3.36-7.5-7.5s3.36-7.5 7.5-7.5z"/><path d="m50 170c4.15 0 7.5 3.36 7.5 7.5s-3.35 7.5-7.5 7.5c-4.14 0-7.5-3.36-7.5-7.5s3.36-7.5 7.5-7.5z"/><path d="m427.5 450h-300c-2.761 0-5-2.238-5-5v-410c0-2.761 2.239-5 5-5h240c1.326 0 2.598.527 3.535 1.464l60 60c.938.938 1.465 2.209 1.465 3.536v350c0 2.762-2.238 5-5 5zm-295-10h290v-342.929l-57.071-57.071h-232.929z"/><path d="m367.5 490h-280c-2.761 0-5-2.238-5-5v-400c0-2.761 2.239-5 5-5h40c2.761 0 5 2.239 5 5s-2.239 5-5 5h-35v390h270v-35c0-2.762 2.238-5 5-5s5 2.238 5 5v40c0 2.762-2.238 5-5 5z"/><path d="m427.5 100h-60c-2.762 0-5-2.239-5-5v-60c0-2.761 2.238-5 5-5s5 2.239 5 5v55h55c2.762 0 5 2.239 5 5s-2.238 5-5 5z"/><path d="m47.5 420c-11.028 0-20-8.972-20-20s8.972-20 20-20 20 8.972 20 20-8.972 20-20 20zm0-30c-5.514 0-10 4.486-10 10s4.486 10 10 10 10-4.486 10-10-4.486-10-10-10z"/><path d="m467.5 190c-13.785 0-25-11.215-25-25s11.215-25 25-25 25 11.215 25 25-11.215 25-25 25zm0-40c-8.271 0-15 6.729-15 15s6.729 15 15 15 15-6.729 15-15-6.729-15-15-15z"/><path d="m172.5 105c-2.761 0-5-2.239-5-5v-65c0-2.761 2.239-5 5-5s5 2.239 5 5v65c0 2.761-2.239 5-5 5z"/><path d="m427.5 425h-300c-2.761 0-5-2.238-5-5s2.239-5 5-5h300c2.762 0 5 2.238 5 5s-2.238 5-5 5z"/><path d="m282 325.81c-1.279 0-2.56-.488-3.535-1.465-1.953-1.952-1.953-5.118 0-7.071l91.93-91.919c19.484-19.494 19.484-51.215-.001-70.71-9.445-9.444-22.003-14.645-35.365-14.645-13.354 0-25.91 5.201-35.354 14.646l-91.92 91.92c-6.61 6.61-10.25 15.4-10.25 24.75s3.64 18.139 10.25 24.749c6.613 6.613 15.405 10.256 24.754 10.256 9.344 0 18.131-3.643 24.744-10.256l91.92-91.92c7.8-7.799 7.8-20.49 0-28.289-3.775-3.776-8.799-5.855-14.145-5.855-5.338 0-10.357 2.08-14.134 5.855l-38.89 38.89c-1.953 1.952-5.119 1.952-7.072 0-1.952-1.953-1.952-5.119 0-7.071l38.891-38.89c5.664-5.665 13.195-8.784 21.205-8.784 8.017 0 15.551 3.12 21.216 8.784 11.698 11.699 11.698 30.733.001 42.432l-91.921 91.919c-8.501 8.503-19.801 13.186-31.815 13.186-12.021 0-23.324-4.683-31.826-13.186-8.499-8.498-13.179-19.799-13.179-31.819 0-12.021 4.68-23.322 13.179-31.821l91.919-91.92c11.336-11.335 26.403-17.576 42.427-17.576 16.032 0 31.104 6.241 42.436 17.574 23.384 23.394 23.384 61.458.001 84.851l-91.931 91.921c-.976.975-2.256 1.464-3.535 1.464z"/></g></g></svg>