<svg enable-background="new 0 0 520 520" height="512" viewBox="0 0 520 520" width="512" xmlns="http://www.w3.org/2000/svg"><g id="_x34_75_x2C__Filter_x2C__Funnel_x2C__Sort"><g><path d="m304.999 370v75l-100 45v-120h20 60z" fill="#757d8c"/><path d="m454.999 155v60h-80-240-80v-60h65 50z" fill="#757d8c"/><path d="m374.999 215-90 155h-60l-90-155z" fill="#414a56"/><path d="m454.999 215-150 155h-20l90-155z" fill="#57606f"/><path d="m134.999 215 90 155h-20l-150-155z" fill="#57606f"/><g fill="#ffd54f"><circle cx="94.999" cy="395" r="35"/><path d="m434.999 335c11.05 0 20 8.95 20 20s-8.95 20-20 20c-11.04 0-20-8.95-20-20s8.96-20 20-20z"/><path d="m404.999 30c13.81 0 25 11.19 25 25s-11.19 25-25 25c-13.8 0-25-11.19-25-25s11.2-25 25-25z"/><path d="m309.999 65c13.81 0 25 11.19 25 25s-11.19 25-25 25c-13.8 0-25-11.19-25-25s11.2-25 25-25z"/><path d="m204.999 55c13.81 0 25 11.19 25 25s-11.19 25-25 25c-13.8 0-25-11.19-25-25s11.2-25 25-25z"/><path d="m169.999 155h-50c0-13.81 11.2-25 25-25 13.81 0 25 11.19 25 25z"/></g><path d="m464.559 275.29c3.99 1.14 6.29 5.29 5.15 9.27-1.13 3.98-5.29 6.29-9.27 5.15-3.98-1.13-6.29-5.29-5.15-9.27s5.29-6.29 9.27-5.15z"/><path d="m439.569 105.29c3.979 1.14 6.29 5.29 5.149 9.27-1.14 3.98-5.29 6.29-9.27 5.15-3.99-1.13-6.29-5.29-5.16-9.27 1.141-3.98 5.291-6.29 9.281-5.15z"/><path d="m364.559 385.29c3.99 1.13 6.29 5.29 5.15 9.27-1.13 3.98-5.29 6.29-9.27 5.15s-6.29-5.29-5.15-9.27 5.29-6.29 9.27-5.15z"/><path d="m169.569 425.29c3.98 1.13 6.29 5.29 5.15 9.27s-5.29 6.29-9.27 5.15c-3.99-1.14-6.29-5.29-5.16-9.27 1.14-3.98 5.29-6.29 9.28-5.15z"/><path d="m79.559 85.29c3.99 1.13 6.29 5.29 5.15 9.27-1.13 3.98-5.29 6.29-9.27 5.15s-6.29-5.29-5.15-9.27 5.29-6.29 9.27-5.15z"/><path d="m69.569 300.29c3.98 1.13 6.29 5.29 5.15 9.27s-5.29 6.29-9.27 5.15c-3.99-1.14-6.29-5.29-5.16-9.27 1.14-3.98 5.29-6.29 9.28-5.15z"/><path d="m454.999 220c-2.761 0-5-2.239-5-5v-55h-390v55c0 2.761-2.239 5-5 5s-5-2.239-5-5v-60c0-2.761 2.239-5 5-5h400c2.762 0 5 2.239 5 5v60c0 2.761-2.238 5-5 5z"/><path d="m304.999 375c-1.252 0-2.506-.468-3.477-1.407-1.984-1.92-2.036-5.086-.116-7.07l141.796-146.523h-68.203c-2.761 0-5-2.239-5-5s2.239-5 5-5h80c2.008 0 3.82 1.201 4.604 3.049s.386 3.986-1.011 5.428l-150 155c-.981 1.013-2.286 1.523-3.593 1.523z"/><path d="m205 375c-1.307 0-2.613-.51-3.593-1.522l-150-155c-1.396-1.442-1.794-3.58-1.011-5.428s2.596-3.05 4.603-3.05h80c2.761 0 5 2.239 5 5s-2.239 5-5 5h-68.203l141.796 146.522c1.92 1.984 1.869 5.15-.116 7.07-.971.94-2.225 1.408-3.476 1.408z"/><path d="m284.994 375.001c-.852 0-1.716-.218-2.506-.677-2.388-1.387-3.199-4.447-1.813-6.835l85.639-147.489h-222.63l85.639 147.489c1.387 2.388.575 5.448-1.813 6.835-2.389 1.384-5.449.573-6.834-1.813l-90-155c-.898-1.547-.902-3.456-.009-5.005.892-1.55 2.544-2.505 4.333-2.505h240c1.789 0 3.441.956 4.333 2.505.893 1.55.89 3.458-.009 5.005l-90 155c-.928 1.597-2.606 2.49-4.33 2.49z"/><path d="m205 495c-.949 0-1.894-.27-2.715-.801-1.425-.922-2.285-2.503-2.285-4.199v-120c0-2.762 2.239-5 5-5h100c2.762 0 5 2.238 5 5v75c0 1.968-1.153 3.752-2.948 4.56l-100 45c-.656.294-1.356.44-2.052.44zm4.999-120v107.267l90-40.5v-66.767z"/><path d="m204.999 110c-16.542 0-30-13.458-30-30s13.458-30 30-30 30 13.458 30 30-13.458 30-30 30zm0-50c-11.028 0-20 8.972-20 20s8.972 20 20 20 20-8.972 20-20-8.972-20-20-20z"/><path d="m404.999 85c-16.542 0-30-13.458-30-30s13.458-30 30-30 30 13.458 30 30-13.458 30-30 30zm0-50c-11.027 0-20 8.972-20 20s8.973 20 20 20c11.028 0 20-8.972 20-20s-8.972-20-20-20z"/><path d="m309.999 120c-16.542 0-30-13.458-30-30s13.458-30 30-30 30 13.458 30 30-13.458 30-30 30zm0-50c-11.027 0-20 8.972-20 20s8.973 20 20 20c11.028 0 20-8.972 20-20s-8.972-20-20-20z"/><path d="m169.999 160c-2.761 0-5-2.239-5-5 0-11.028-8.972-20-20-20s-20 8.972-20 20c0 2.761-2.239 5-5 5s-5-2.239-5-5c0-16.542 13.458-30 30-30s30 13.458 30 30c0 2.761-2.239 5-5 5z"/><path d="m94.999 435c-22.056 0-40-17.944-40-40s17.944-40 40-40 40 17.944 40 40-17.944 40-40 40zm0-70c-16.542 0-30 13.458-30 30s13.458 30 30 30 30-13.458 30-30-13.458-30-30-30z"/><path d="m434.999 380c-13.785 0-25-11.215-25-25s11.215-25 25-25 25 11.215 25 25-11.215 25-25 25zm0-40c-8.271 0-15 6.729-15 15s6.729 15 15 15 15-6.729 15-15-6.728-15-15-15z"/></g></g></svg>