<svg enable-background="new 0 0 520 520" height="512" viewBox="0 0 520 520" width="512" xmlns="http://www.w3.org/2000/svg"><g id="_x34_76_x2C__Alarm_x2C__Bell_x2C__Sound"><g><path d="m452.5 247.5c11.05 0 20 8.95 20 20s-8.95 20-20 20c-11.04 0-20-8.95-20-20s8.96-20 20-20z" fill="#4380a0"/><path d="m75 77.5c15.19 0 27.5 12.31 27.5 27.5s-12.31 27.5-27.5 27.5c-15.18 0-27.5-12.31-27.5-27.5s12.32-27.5 27.5-27.5z" fill="#4380a0"/><path d="m282.5 442.5v10c0 16.57-13.43 30-30 30-16.56 0-30-13.43-30-30v-10z" fill="#bdf9ff"/><path d="m122.5 317.5h260v25h-260z" fill="#e5b429"/><path d="m390 387.5c15.189 0 27.5 12.31 27.5 27.5 0 7.6-3.08 14.47-8.051 19.45-4.979 4.97-11.859 8.05-19.449 8.05h-107.5-60-107.5c-15.18 0-27.5-12.31-27.5-27.5 0-7.6 3.08-14.47 8.06-19.45 4.97-4.97 11.85-8.05 19.44-8.05h7.5 260z" fill="#e5b429"/><path d="m122.5 342.5h260v45h-260z" fill="#ffd54f"/><path d="m272.5 104.03v-46.53c0-11.05-8.95-20-20-20s-20 8.95-20 20v46.53c-62.646 9.67-110 63.877-110 128.47v85h260c0-9.843 0-74.614 0-85 0-64.393-47.088-118.759-110-128.47z" fill="#ffd54f"/><path d="m370.63 178.16c-5.44 2.78-11.601 4.34-18.13 4.34-22.09 0-40-17.91-40-40 0-8.02 2.359-15.49 6.43-21.75 7.13-10.99 19.5-18.25 33.57-18.25 22.1 0 40 17.91 40 40 0 15.56-8.891 29.05-21.87 35.66z" fill="#fb2b3a"/><path d="m442.06 342.79c3.99 1.13 6.29 5.29 5.15 9.27-1.13 3.98-5.29 6.29-9.271 5.15-3.979-1.14-6.289-5.29-5.15-9.27 1.141-3.98 5.291-6.29 9.271-5.15z"/><path d="m437.07 172.79c3.979 1.14 6.289 5.29 5.149 9.27s-5.29 6.29-9.271 5.15c-3.989-1.13-6.289-5.29-5.16-9.27 1.142-3.98 5.292-6.29 9.282-5.15z"/><path d="m427.06 457.79c3.99 1.14 6.29 5.29 5.15 9.27-1.13 3.98-5.29 6.29-9.271 5.15-3.979-1.13-6.289-5.29-5.15-9.27 1.141-3.98 5.291-6.29 9.271-5.15z"/><path d="m392.35 63.23c3.99 1.14 6.29 5.29 5.15 9.27-1.131 3.98-5.28 6.29-9.27 5.15-3.98-1.14-6.291-5.29-5.15-9.27 1.14-3.98 5.289-6.29 9.27-5.15z"/><path d="m162.06 52.79c3.99 1.14 6.29 5.29 5.15 9.27-1.13 3.98-5.29 6.29-9.27 5.15-3.98-1.13-6.29-5.29-5.15-9.27s5.29-6.29 9.27-5.15z"/><path d="m146.95 261.93c-2.71-.779-4.27-3.6-3.5-6.3.77-2.71 3.6-4.28 6.3-3.5 2.71.77 4.27 3.59 3.5 6.3-.77 2.7-3.59 4.27-6.3 3.5z"/><path d="m102.07 162.79c3.98 1.14 6.29 5.29 5.15 9.27s-5.29 6.29-9.27 5.15c-3.99-1.13-6.29-5.29-5.16-9.27 1.14-3.98 5.29-6.29 9.28-5.15z"/><path d="m87.07 467.79c3.98 1.13 6.29 5.29 5.15 9.27s-5.29 6.29-9.27 5.15c-3.99-1.14-6.29-5.29-5.16-9.27 1.14-3.98 5.29-6.29 9.28-5.15z"/><path d="m52.07 307.79c3.98 1.14 6.29 5.29 5.15 9.27s-5.29 6.29-9.27 5.15c-3.99-1.13-6.29-5.29-5.16-9.27 1.14-3.98 5.29-6.29 9.28-5.15z"/><path d="m222.5 447.5h-107.5c-17.92 0-32.5-14.579-32.5-32.5 0-8.681 3.382-16.844 9.524-22.985 6.136-6.136 14.296-9.515 22.976-9.515h7.5c2.761 0 5 2.238 5 5s-2.239 5-5 5h-7.5c-6.009 0-11.658 2.339-15.905 6.586-4.253 4.253-6.595 9.904-6.595 15.914 0 12.406 10.093 22.5 22.5 22.5h107.5c2.761 0 5 2.238 5 5s-2.239 5-5 5z"/><path d="m390 447.5h-107.5c-2.762 0-5-2.238-5-5s2.238-5 5-5h107.5c6.007 0 11.66-2.34 15.918-6.589 4.242-4.251 6.582-9.904 6.582-15.911 0-12.406-10.094-22.5-22.5-22.5h-7.5c-2.762 0-5-2.238-5-5s2.238-5 5-5h7.5c17.92 0 32.5 14.579 32.5 32.5 0 8.674-3.378 16.836-9.512 22.982-6.152 6.14-14.314 9.518-22.988 9.518z"/><path d="m382.5 347.5h-260c-2.761 0-5-2.238-5-5s2.239-5 5-5h260c2.762 0 5 2.238 5 5s-2.238 5-5 5z"/><path d="m382.5 322.5h-260c-2.761 0-5-2.238-5-5s2.239-5 5-5h260c2.762 0 5 2.238 5 5s-2.238 5-5 5z"/><path d="m257.5 297.5h-135c-2.761 0-5-2.238-5-5s2.239-5 5-5h135c2.762 0 5 2.238 5 5s-2.238 5-5 5z"/><path d="m252.5 487.5c-19.299 0-35-15.701-35-35v-10c0-2.762 2.239-5 5-5h60c2.762 0 5 2.238 5 5v10c0 19.299-15.701 35-35 35zm-25-40v5c0 13.785 11.215 25 25 25s25-11.215 25-25v-5z"/><path d="m382.5 392.5h-260c-2.761 0-5-2.238-5-5v-155c0-32.429 11.668-63.778 32.856-88.273 20.025-23.151 47.285-38.813 77.144-44.414v-42.313c0-13.785 11.215-25 25-25s25 11.215 25 25v42.312c15.51 2.902 30.251 8.47 43.883 16.58 1.522.857 2.553 2.488 2.553 4.358 0 2.761-2.234 5-4.996 5h-.01c-.901 0-1.786-.244-2.561-.705-13.787-8.219-28.804-13.627-44.633-16.074-2.438-.377-4.236-2.475-4.236-4.941v-46.53c0-8.271-6.729-15-15-15s-15 6.729-15 15v46.53c0 2.467-1.799 4.565-4.237 4.941-60.295 9.311-105.763 62.417-105.763 123.529v150h250v-150c0-18.233-3.84-35.812-11.411-52.248-.302-.656-.459-1.37-.459-2.092 0-2.761 2.239-5.005 5-5.005 2.097 0 3.894 1.289 4.636 3.118 8.118 17.698 12.234 36.614 12.234 56.227v155c0 2.762-2.238 5-5 5z"/><path d="m147.557 245.35c-2.687 0-4.907-2.133-4.995-4.838-.865-26.705 7.911-52.835 24.711-73.577 16.625-20.524 40.001-34.499 65.824-39.349 2.713-.507 5.328 1.277 5.837 3.991.51 2.714-1.277 5.327-3.991 5.837-48.57 9.123-83.988 53.306-82.385 102.774.089 2.76-2.076 5.07-4.835 5.16-.056.001-.112.002-.166.002z"/><path d="m352.5 187.5c-24.813 0-45-20.187-45-45 0-8.729 2.503-17.192 7.238-24.476 8.336-12.85 22.453-20.524 37.762-20.524 24.813 0 45 20.187 45 45 0 17.016-9.427 32.388-24.602 40.116-6.339 3.239-13.205 4.884-20.398 4.884zm0-80c-11.906 0-22.888 5.971-29.375 15.971-3.682 5.661-5.625 12.239-5.625 19.029 0 19.299 15.701 35 35 35 5.596 0 10.93-1.276 15.855-3.792 11.811-6.015 19.145-17.972 19.145-31.208 0-19.299-15.701-35-35-35z"/><path d="m357.5 167.5c-2.762 0-5-2.239-5-5v-30.657l-7.227 4.817c-2.297 1.532-5.402.911-6.934-1.387-1.531-2.297-.911-5.402 1.387-6.934l15-10c1.534-1.021 3.506-1.119 5.133-.248 1.625.87 2.641 2.564 2.641 4.408v40c0 2.762-2.238 5.001-5 5.001z"/><path d="m75 137.5c-17.92 0-32.5-14.58-32.5-32.5s14.58-32.5 32.5-32.5 32.5 14.58 32.5 32.5-14.58 32.5-32.5 32.5zm0-55c-12.407 0-22.5 10.093-22.5 22.5s10.093 22.5 22.5 22.5 22.5-10.093 22.5-22.5-10.093-22.5-22.5-22.5z"/><path d="m452.5 292.5c-13.785 0-25-11.215-25-25s11.215-25 25-25 25 11.215 25 25-11.215 25-25 25zm0-40c-8.271 0-15 6.729-15 15s6.729 15 15 15 15-6.729 15-15-6.729-15-15-15z"/></g></g></svg>