<svg enable-background="new 0 0 520 520" height="512" viewBox="0 0 520 520" width="512" xmlns="http://www.w3.org/2000/svg"><g id="_x34_77_x2C__Action_x2C__People_x2C__Protect_x2C__User"><g><circle cx="442.499" cy="80" fill="#bde1ff" r="35"/><path d="m87.499 405c13.81 0 25 11.19 25 25s-11.19 25-25 25c-13.8 0-25-11.19-25-25s11.2-25 25-25z" fill="#bde1ff"/><path d="m420.078 253c5.461 58.79-20.5 116.09-68.289 150.74l-98.28 71.26-98.29-71.26c-47.8-34.65-73.75-91.95-68.29-150.74l8.72-93.71c95.09-1.88 157.86-78.93 157.86-78.93s62.76 77.05 157.851 78.93zm-92.939 122.24c35.811-25.96 55.26-68.891 51.16-112.93l-6.53-70.21c-71.239-1.41-118.26-59.13-118.26-59.13s-47.03 57.72-118.27 59.13l-6.53 70.21c-4.1 44.039 15.35 86.97 51.16 112.93l73.64 53.39z" fill="#fb2b3a"/><path d="m299.689 350h-98.44-18.75v-35.97c0-8.9 7.22-16.12 16.12-16.12h21.38l18.75 23.97 16.63-12.03 16.189 12.03 18.75-23.97h16.69c8.899 0 16.12 7.22 16.12 16.12v35.97z" fill="#26c6da"/><path d="m283.578 289.06 6.74 8.85-18.75 23.97-16.189-12.03z" fill="#4380a0"/><path d="m255.379 309.85-16.63 12.03-18.75-23.97 6.74-8.85z" fill="#4380a0"/><path d="m285.469 223.12v28.91c0 7.99-3.24 15.21-8.46 20.44-5.24 5.23-12.46 8.471-20.44 8.471-15.97 0-28.91-12.94-28.91-28.911v-28.91z" fill="#ffe0b2"/><path d="m285.469 218.36v4.76h-57.81-4.37c-10.36 0-18.75-8.39-18.75-18.74v-4.38h62.571c10.139 0 18.359 8.22 18.359 18.36z" fill="#c86d36"/><path d="m462.068 205.29c3.98 1.14 6.291 5.29 5.15 9.27s-5.29 6.29-9.27 5.15c-3.99-1.13-6.291-5.29-5.16-9.27 1.141-3.98 5.29-6.29 9.28-5.15z"/><path d="m462.059 380.29c3.99 1.13 6.29 5.29 5.15 9.27-1.131 3.98-5.29 6.29-9.27 5.15s-6.291-5.29-5.15-9.27c1.14-3.98 5.289-6.29 9.27-5.15z"/><path d="m362.068 440.29c3.98 1.13 6.291 5.29 5.15 9.27s-5.29 6.29-9.27 5.15c-3.99-1.14-6.291-5.29-5.16-9.27 1.141-3.98 5.29-6.29 9.28-5.15z"/><path d="m342.059 80.29c3.99 1.14 6.29 5.29 5.15 9.27-1.131 3.98-5.29 6.29-9.27 5.15-3.98-1.13-6.291-5.29-5.15-9.27 1.14-3.98 5.289-6.29 9.27-5.15z"/><path d="m162.069 455.29c3.98 1.14 6.29 5.29 5.15 9.27s-5.29 6.29-9.27 5.15c-3.99-1.13-6.29-5.29-5.16-9.27 1.14-3.98 5.29-6.29 9.28-5.15z"/><path d="m97.069 75.29c3.98 1.13 6.29 5.29 5.15 9.27s-5.29 6.29-9.27 5.15c-3.99-1.14-6.29-5.29-5.16-9.27 1.14-3.98 5.29-6.29 9.28-5.15z"/><path d="m47.069 245.29c3.98 1.14 6.29 5.29 5.15 9.27s-5.29 6.29-9.27 5.15c-3.99-1.13-6.29-5.29-5.16-9.27 1.14-3.98 5.29-6.29 9.28-5.15z"/><path d="m253.509 433.63c-1.03 0-2.06-.317-2.935-.952l-73.64-53.39c-37.06-26.866-57.446-71.867-53.203-117.441l6.53-70.209c.236-2.533 2.336-4.486 4.879-4.536 67.996-1.346 114.038-56.733 114.495-57.292.95-1.162 2.373-1.837 3.873-1.837h.004c1.502.001 2.925.676 3.873 1.841.455.556 46.487 55.943 114.482 57.289 2.544.05 4.645 2.003 4.88 4.536l6.53 70.21c4.242 45.573-16.144 90.574-53.204 117.44l-73.629 53.39c-.876.634-1.905.951-2.935.951zm-113.698-236.692-6.123 65.836c-3.917 42.073 14.903 83.616 49.116 108.419l70.706 51.262 70.694-51.262c34.214-24.803 53.034-66.346 49.117-108.419l-6.123-65.836c-36.036-1.891-65.504-17.659-84.16-30.849-14.297-10.108-24.393-20.071-29.529-25.585-5.138 5.514-15.234 15.478-29.533 25.585-18.659 13.189-48.13 28.958-84.165 30.849z"/><path d="m253.509 480c-1.03 0-2.06-.317-2.935-.952l-98.29-71.26c-24.154-17.509-43.427-41.128-55.737-68.303-12.309-27.171-17.356-57.237-14.597-86.948l8.72-93.711c.236-2.533 2.336-4.485 4.88-4.536 47.733-.944 87.009-21.771 111.551-39.077 26.783-18.886 42.378-37.825 42.533-38.014.949-1.163 2.372-1.839 3.874-1.839h.003c1.502.001 2.926.676 3.874 1.841.153.187 15.747 19.126 42.527 38.012 24.539 17.306 63.812 38.133 111.545 39.077 2.545.05 4.645 2.002 4.881 4.536l8.719 93.71c2.76 29.709-2.289 59.776-14.6 86.949-12.311 27.174-31.583 50.793-55.733 68.303l-98.28 71.26c-.876.635-1.905.952-2.935.952zm-153.29-315.854-8.312 89.318c-5.271 56.754 20.113 112.787 66.246 146.229l95.355 69.132 95.345-69.132c46.133-33.449 71.518-89.48 66.246-146.23l-8.311-89.317c-48.358-2.151-87.934-23.29-112.9-40.943-20.203-14.284-34.057-28.327-40.38-35.253-6.324 6.927-20.18 20.97-40.384 35.253-24.969 17.652-64.547 38.792-112.905 40.943z"/><path d="m87.499 460c-16.542 0-30-13.458-30-30s13.458-30 30-30 30 13.458 30 30-13.458 30-30 30zm0-50c-11.028 0-20 8.972-20 20s8.972 20 20 20 20-8.972 20-20-8.972-20-20-20z"/><path d="m442.499 120c-22.056 0-40-17.944-40-40s17.944-40 40-40 40 17.944 40 40-17.944 40-40 40zm0-70c-16.542 0-30 13.458-30 30s13.458 30 30 30 30-13.458 30-30-13.458-30-30-30z"/><path d="m323.129 355h-140.63c-2.761 0-5-2.238-5-5v-35.97c0-11.646 9.474-21.12 21.12-21.12h21.38c2.761 0 5 2.238 5 5s-2.239 5-5 5h-21.38c-6.131 0-11.12 4.988-11.12 11.12v30.97h130.63v-30.97c0-6.132-4.988-11.12-11.12-11.12h-16.69c-2.761 0-5-2.238-5-5s2.239-5 5-5h16.69c11.646 0 21.12 9.475 21.12 21.12v35.97c0 2.762-2.238 5-5 5z"/><path d="m271.565 326.88c-1.038 0-2.083-.321-2.979-.986l-16.19-12.03c-1.272-.945-2.021-2.438-2.018-4.023s.757-3.074 2.033-4.015l28.199-20.79c2.198-1.621 5.29-1.178 6.945.995l6.74 8.851c1.377 1.809 1.361 4.319-.039 6.11l-18.75 23.97c-.984 1.257-2.453 1.918-3.941 1.918zm-7.782-17.015 6.853 5.092 13.367-17.088-1.419-1.864z"/><path d="m238.752 326.88c-1.488 0-2.958-.661-3.941-1.919l-18.75-23.97c-1.401-1.791-1.417-4.302-.04-6.11l6.74-8.851c1.646-2.16 4.716-2.613 6.915-1.017l28.641 20.79c1.297.941 2.064 2.447 2.063 4.05s-.771 3.107-2.069 4.047l-16.63 12.03c-.886.64-1.911.95-2.929.95zm-12.437-29.011 13.405 17.137 7.138-5.163-19.102-13.866z"/><path d="m256.569 285.94c-18.698 0-33.91-15.212-33.91-33.911v-28.91c0-2.761 2.239-5 5-5s5 2.239 5 5v28.91c0 13.185 10.726 23.911 23.91 23.911 6.375 0 12.378-2.489 16.908-7.01 4.507-4.515 6.992-10.519 6.992-16.901v-28.91c0-2.761 2.238-5 5-5s5 2.239 5 5v28.91c0 9.05-3.523 17.563-9.922 23.972-6.422 6.412-14.936 9.939-23.978 9.939z"/><path d="m285.469 228.12h-62.18c-13.096 0-23.75-10.65-23.75-23.74v-4.38c0-2.761 2.239-5 5-5h62.571c12.881 0 23.359 10.479 23.359 23.36v4.76c0 2.761-2.239 5-5 5zm-75.917-23.12c.326 7.29 6.362 13.12 13.736 13.12h57.178c-.129-7.256-6.071-13.12-13.357-13.12z"/><path d="m299.689 355c-2.762 0-5-2.238-5-5v-18.75c0-2.762 2.238-5 5-5 2.761 0 5 2.238 5 5v18.75c0 2.762-2.239 5-5 5z"/><path d="m201.249 355c-2.761 0-5-2.238-5-5v-18.75c0-2.762 2.239-5 5-5s5 2.238 5 5v18.75c0 2.762-2.239 5-5 5z"/><path d="m338.971 290.001c-.457 0-.923-.063-1.385-.196-2.654-.764-4.186-3.534-3.422-6.188 5.906-20.523 3.944-42.327-5.523-61.394-1.229-2.473-.219-5.474 2.254-6.702 2.475-1.23 5.475-.219 6.703 2.254 10.582 21.311 12.775 45.675 6.176 68.606-.631 2.193-2.63 3.62-4.803 3.62z"/><path d="m166.036 290.001c-2.171 0-4.17-1.426-4.802-3.616-6.604-22.913-4.415-47.278 6.166-68.607 1.227-2.474 4.228-3.483 6.701-2.257 2.474 1.227 3.484 4.227 2.257 6.701-9.467 19.084-11.425 40.887-5.515 61.393.765 2.653-.766 5.425-3.419 6.189-.463.134-.929.197-1.388.197z"/></g></g></svg>