<svg enable-background="new 0 0 520 520" height="512" viewBox="0 0 520 520" width="512" xmlns="http://www.w3.org/2000/svg"><g id="_x34_78_x2C__Market_x2C__Market_Store_x2C__Shop_x2C__Store"><g><path d="m465 32.5c13.81 0 25 11.19 25 25s-11.19 25-25 25c-13.801 0-25-11.19-25-25s11.199-25 25-25z" fill="#4380a0"/><path d="m45 257.5c8.29 0 15 6.72 15 15s-6.71 15-15 15c-8.28 0-15-6.72-15-15s6.72-15 15-15z" fill="#4380a0"/><path d="m444.93 212.09c-1.6.27-3.25.41-4.93.41-16.561 0-30-13.43-30-30 0 16.57-13.43 30-30 30-16.561 0-30-13.43-30-30 0 16.57-13.43 30-30 30-16.561 0-30-13.43-30-30 0 16.57-13.43 30-30 30-16.56 0-30-13.43-30-30 0 16.57-13.43 30-30 30-16.56 0-30-13.43-30-30 0 16.57-13.43 30-30 30-16.56 0-30-13.43-30-30 0 16.57-13.43 30-30 30-1.68 0-3.33-.14-4.93-.41l-.07.41v245h35 120 215v-55-40-80-70z" fill="#c86d36"/><path d="m110 262.5v195h120v-55-140z" fill="#313a52"/><path d="m355 282.5h90v80h-90z" fill="#8cf2ff"/><path d="m265 282.5h90v80h-90z" fill="#bdf9ff"/><path d="m470 457.5v30h-420v-30h25 35 120 215z" fill="#757d8c"/><path d="m230 402.5h215v55h-215z" fill="#a85120"/><path d="m350 157.5h60v20h-60z" fill="#e8491d"/><path d="m477.5 247.5c4.15 0 7.5 3.36 7.5 7.5s-3.35 7.5-7.5 7.5c-4.141 0-7.5-3.36-7.5-7.5s3.359-7.5 7.5-7.5z"/><path d="m467.5 417.5c4.15 0 7.5 3.36 7.5 7.5s-3.35 7.5-7.5 7.5c-4.141 0-7.5-3.36-7.5-7.5s3.359-7.5 7.5-7.5z"/><path d="m470 177.5v5c0 14.89-10.85 27.25-25.07 29.59-1.6.27-3.25.41-4.93.41-16.561 0-30-13.43-30-30v-5z" fill="#c73b10"/><path d="m410 157.5h60v20h-60z" fill="#ad330e"/><path d="m430 87.5 40 70h-60l-20-70z" fill="#c73b10"/><path d="m410 177.5v5c0 16.57-13.43 30-30 30-16.561 0-30-13.43-30-30v-5z" fill="#ff5622"/><path d="m390 87.5 20 70h-60l-10-70z" fill="#ff5622"/><path d="m392.5 37.5c4.15 0 7.5 3.36 7.5 7.5s-3.35 7.5-7.5 7.5c-4.141 0-7.5-3.36-7.5-7.5s3.359-7.5 7.5-7.5z"/><path d="m350 177.5v5c0 16.57-13.43 30-30 30-16.561 0-30-13.43-30-30v-5z" fill="#c73b10"/><path d="m290 157.5h60v20h-60z" fill="#ad330e"/><path d="m340 87.5 10 70h-60v-70z" fill="#c73b10"/><path d="m290 177.5v5c0 16.57-13.43 30-30 30-16.56 0-30-13.43-30-30v-5z" fill="#ff5622"/><path d="m230 157.5h60v20h-60z" fill="#e8491d"/><path d="m230 87.5h60v70h-60z" fill="#ff5622"/><path d="m282.5 52.5c4.15 0 7.5 3.36 7.5 7.5s-3.35 7.5-7.5 7.5c-4.141 0-7.5-3.36-7.5-7.5s3.359-7.5 7.5-7.5z"/><path d="m230 177.5v5c0 16.57-13.43 30-30 30-16.56 0-30-13.43-30-30v-5z" fill="#c73b10"/><path d="m170 157.5h60v20h-60z" fill="#ad330e"/><path d="m230 87.5v70h-60l10-70z" fill="#c73b10"/><path d="m180 87.5-10 70h-60l20-70z" fill="#ff5622"/><path d="m170 177.5v5c0 16.57-13.43 30-30 30-16.56 0-30-13.43-30-30v-5z" fill="#ff5622"/><path d="m110 157.5h60v20h-60z" fill="#e8491d"/><path d="m142.5 42.5c4.15 0 7.5 3.36 7.5 7.5s-3.35 7.5-7.5 7.5c-4.14 0-7.5-3.36-7.5-7.5s3.36-7.5 7.5-7.5z"/><path d="m130 87.5-20 70h-60l40-70z" fill="#c73b10"/><path d="m110 177.5v5c0 16.57-13.43 30-30 30-1.68 0-3.33-.14-4.93-.41-14.22-2.35-25.07-14.7-25.07-29.59v-5z" fill="#c73b10"/><path d="m50 157.5h60v20h-60z" fill="#ad330e"/><path d="m52.5 352.5c4.15 0 7.5 3.36 7.5 7.5s-3.35 7.5-7.5 7.5c-4.14 0-7.5-3.36-7.5-7.5s3.36-7.5 7.5-7.5z"/><path d="m47.5 77.5c4.15 0 7.5 3.36 7.5 7.5s-3.35 7.5-7.5 7.5c-4.14 0-7.5-3.36-7.5-7.5s3.36-7.5 7.5-7.5z"/><path d="m80 217.5c-1.937 0-3.875-.162-5.762-.48-16.935-2.798-29.238-17.317-29.238-34.52v-25c0-2.761 2.239-5 5-5s5 2.239 5 5v25c0 12.288 8.783 22.657 20.885 24.657 1.356.229 2.734.343 4.115.343 13.785 0 25-11.215 25-25 0-2.761 2.239-5 5-5s5 2.239 5 5c0 19.299-15.701 35-35 35z"/><path d="m140 217.5c-19.299 0-35-15.701-35-35v-25c0-2.761 2.239-5 5-5s5 2.239 5 5v25c0 13.785 11.215 25 25 25s25-11.215 25-25c0-2.761 2.239-5 5-5s5 2.239 5 5c0 19.299-15.701 35-35 35z"/><path d="m200 217.5c-19.299 0-35-15.701-35-35v-25c0-2.761 2.239-5 5-5s5 2.239 5 5v25c0 13.785 11.215 25 25 25s25-11.215 25-25c0-2.761 2.239-5 5-5s5 2.239 5 5c0 19.299-15.701 35-35 35z"/><path d="m260 217.5c-19.299 0-35-15.701-35-35v-25c0-2.761 2.239-5 5-5s5 2.239 5 5v25c0 13.785 11.215 25 25 25s25-11.215 25-25c0-2.761 2.238-5 5-5s5 2.239 5 5c0 19.299-15.701 35-35 35z"/><path d="m320 217.5c-19.299 0-35-15.701-35-35v-25c0-2.761 2.238-5 5-5s5 2.239 5 5v25c0 13.785 11.215 25 25 25s25-11.215 25-25c0-2.761 2.238-5 5-5s5 2.239 5 5c0 19.299-15.701 35-35 35z"/><path d="m380 217.5c-19.299 0-35-15.701-35-35v-25c0-2.761 2.238-5 5-5s5 2.239 5 5v25c0 13.785 11.215 25 25 25s25-11.215 25-25c0-2.761 2.238-5 5-5s5 2.239 5 5c0 19.299-15.701 35-35 35z"/><path d="m440 217.5c-19.299 0-35-15.701-35-35v-25c0-2.761 2.238-5 5-5s5 2.239 5 5v25c0 13.785 11.215 25 25 25 1.381 0 2.759-.115 4.098-.34 12.12-1.995 20.902-12.364 20.902-24.66v-25c0-2.761 2.238-5 5-5s5 2.239 5 5v25c0 17.215-12.305 31.734-29.258 34.523-1.867.315-3.805.477-5.742.477z"/><path d="m110 162.5h-60c-1.782 0-3.43-.949-4.325-2.49s-.901-3.443-.017-4.99l40-70c.89-1.558 2.547-2.52 4.341-2.52h40c2.761 0 5 2.239 5 5s-2.239 5-5 5h-37.097l-34.286 60h51.384c2.761 0 5 2.239 5 5s-2.239 5-5 5z"/><path d="m170 162.5h-60c-1.569 0-3.047-.736-3.992-1.989-.945-1.252-1.247-2.876-.816-4.384l20-70c.613-2.146 2.575-3.626 4.808-3.626h50c2.761 0 5 2.239 5 5s-2.239 5-5 5h-46.229l-17.143 60h53.372c2.761 0 5 2.239 5 5s-2.239 4.999-5 4.999z"/><path d="m230 162.5h-60c-1.449 0-2.828-.629-3.777-1.724-.95-1.095-1.377-2.548-1.172-3.983l10-70c.352-2.463 2.461-4.293 4.95-4.293h50c2.761 0 5 2.239 5 5s-2.239 5-5 5h-45.664l-8.571 60h54.234c2.761 0 5 2.239 5 5s-2.239 5-5 5z"/><path d="m290 162.5h-60c-2.761 0-5-2.239-5-5v-70c0-2.761 2.239-5 5-5h60c2.762 0 5 2.239 5 5s-2.238 5-5 5h-55v60h55c2.762 0 5 2.239 5 5s-2.238 5-5 5z"/><path d="m350 162.5h-60c-2.762 0-5-2.239-5-5v-70c0-2.761 2.238-5 5-5h50c2.762 0 5 2.239 5 5s-2.238 5-5 5h-45v60h55c2.762 0 5 2.239 5 5s-2.238 5-5 5z"/><path d="m410 162.5h-60c-2.488 0-4.598-1.83-4.949-4.293l-10-70c-.205-1.435.223-2.888 1.172-3.983s2.328-1.724 3.777-1.724h50c2.762 0 5 2.239 5 5s-2.238 5-5 5h-44.234l8.57 60h55.664c2.762 0 5 2.239 5 5s-2.238 5-5 5z"/><path d="m470 162.5h-60c-2.232 0-4.194-1.48-4.808-3.626l-20-70c-.431-1.508-.129-3.132.815-4.384.945-1.253 2.424-1.989 3.992-1.989h40c1.795 0 3.451.961 4.342 2.52l40 70c.884 1.547.877 3.449-.018 4.99s-2.541 2.489-4.323 2.489zm-56.229-10h47.613l-34.287-60h-30.469z"/><path d="m470 182.5h-420c-2.761 0-5-2.239-5-5s2.239-5 5-5h420c2.762 0 5 2.239 5 5s-2.238 5-5 5z"/><path d="m75 462.5c-2.761 0-5-2.238-5-5v-245c0-2.761 2.239-5 5-5s5 2.239 5 5v245c0 2.762-2.239 5-5 5z"/><path d="m445 462.5c-2.762 0-5-2.238-5-5v-95c0-2.762 2.238-5 5-5s5 2.238 5 5v95c0 2.762-2.238 5-5 5z"/><path d="m445 287.5c-2.762 0-5-2.238-5-5v-70c0-2.761 2.238-5 5-5s5 2.239 5 5v70c0 2.762-2.238 5-5 5z"/><path d="m470 492.5c-2.762 0-5-2.238-5-5v-25h-235c-2.761 0-5-2.238-5-5s2.239-5 5-5h240c2.762 0 5 2.238 5 5v30c0 2.762-2.238 5-5 5z"/><path d="m50 492.5c-2.761 0-5-2.238-5-5v-30c0-2.762 2.239-5 5-5h60c2.761 0 5 2.238 5 5s-2.239 5-5 5h-55v25c0 2.762-2.239 5-5 5z"/><path d="m480 492.5h-440c-2.761 0-5-2.238-5-5s2.239-5 5-5h440c2.762 0 5 2.238 5 5s-2.238 5-5 5z"/><path d="m230 462.5h-120c-2.761 0-5-2.238-5-5v-195c0-2.762 2.239-5 5-5h120c2.761 0 5 2.238 5 5v195c0 2.762-2.239 5-5 5zm-115-10h110v-185h-110z"/><path d="m355 367.5h-90c-2.762 0-5-2.238-5-5v-80c0-2.762 2.238-5 5-5h90c2.762 0 5 2.238 5 5s-2.238 5-5 5h-85v70h85c2.762 0 5 2.238 5 5s-2.238 5-5 5z"/><path d="m445 367.5h-90c-2.762 0-5-2.238-5-5v-80c0-2.762 2.238-5 5-5h90c2.762 0 5 2.238 5 5v80c0 2.762-2.238 5-5 5zm-85-10h80v-70h-80z"/><path d="m445 407.5h-215c-2.761 0-5-2.238-5-5s2.239-5 5-5h215c2.762 0 5 2.238 5 5s-2.238 5-5 5z"/><path d="m205 382.5c-5.514 0-10-4.486-10-10s4.486-10 10-10 10 4.486 10 10-4.486 10-10 10z"/><path d="m407.5 325c-1.279 0-2.559-.488-3.535-1.465-1.953-1.952-1.953-5.118 0-7.07l37.5-37.5c1.953-1.953 5.117-1.953 7.07 0 1.953 1.952 1.953 5.118 0 7.07l-37.5 37.5c-.976.977-2.256 1.465-3.535 1.465z"/><path d="m385 325c-1.279 0-2.559-.488-3.535-1.465-1.953-1.952-1.953-5.118 0-7.07l17.5-17.5c1.953-1.953 5.117-1.953 7.07 0 1.953 1.952 1.953 5.118 0 7.07l-17.5 17.5c-.976.977-2.256 1.465-3.535 1.465z"/><path d="m317.5 325c-1.279 0-2.559-.488-3.535-1.465-1.953-1.952-1.953-5.118 0-7.07l37.5-37.5c1.953-1.953 5.117-1.953 7.07 0 1.953 1.952 1.953 5.118 0 7.07l-37.5 37.5c-.976.977-2.256 1.465-3.535 1.465z"/><path d="m295 325c-1.279 0-2.559-.488-3.535-1.465-1.953-1.952-1.953-5.118 0-7.07l17.5-17.5c1.953-1.953 5.117-1.953 7.07 0 1.953 1.952 1.953 5.118 0 7.07l-17.5 17.5c-.976.977-2.256 1.465-3.535 1.465z"/><path d="m45 292.5c-11.028 0-20-8.972-20-20s8.972-20 20-20 20 8.972 20 20-8.972 20-20 20zm0-30c-5.514 0-10 4.486-10 10s4.486 10 10 10 10-4.486 10-10-4.486-10-10-10z"/><path d="m465 87.5c-16.542 0-30-13.458-30-30s13.458-30 30-30 30 13.458 30 30-13.458 30-30 30zm0-50c-11.027 0-20 8.972-20 20s8.973 20 20 20 20-8.972 20-20-8.973-20-20-20z"/></g></g></svg>