<svg enable-background="new 0 0 520 520" height="512" viewBox="0 0 520 520" width="512" xmlns="http://www.w3.org/2000/svg"><g id="_x34_79_x2C__Cup_x2C__Mug_x2C__Tea"><g><path d="m307.5 207.5h-190v163.17h250v-48.17-25-90z" fill="#414a56"/><path d="m440 47.5c20.72 0 37.5 16.79 37.5 37.5s-16.78 37.5-37.5 37.5c-20.711 0-37.5-16.79-37.5-37.5s16.789-37.5 37.5-37.5z" fill="#4380a0"/><path d="m67.5 297.5c13.81 0 25 11.19 25 25s-11.19 25-25 25c-13.8 0-25-11.19-25-25s11.2-25 25-25z" fill="#4380a0"/><path d="m332.5 272.5v60h-50v-60l25-20z" fill="#ffe0b2"/><g fill="#57606f"><path d="m117.5 370.67h250c0 31.38-25.44 56.83-56.83 56.83h-136.33c-31.39 0-56.84-25.45-56.84-56.83z"/><path d="m367.5 202.5v5h-60v-65h60v35z"/><path d="m117.5 187.5v-45h190v65h-190z"/></g><path d="m442.5 196.67v106.66c0 10.59-8.58 19.17-19.16 19.17h-55.84v-25h50v-95h-50v-25h55.84c10.58 0 19.16 8.58 19.16 19.17z" fill="#757d8c"/><path d="m425 372.5c4.15 0 7.5 3.36 7.5 7.5s-3.35 7.5-7.5 7.5c-4.141 0-7.5-3.36-7.5-7.5s3.359-7.5 7.5-7.5z"/><path d="m365 57.5c4.15 0 7.5 3.36 7.5 7.5s-3.35 7.5-7.5 7.5c-4.141 0-7.5-3.36-7.5-7.5s3.359-7.5 7.5-7.5z"/><path d="m285 462.5c4.15 0 7.5 3.36 7.5 7.5s-3.35 7.5-7.5 7.5c-4.141 0-7.5-3.36-7.5-7.5s3.359-7.5 7.5-7.5z"/><path d="m235 87.5c4.15 0 7.5 3.36 7.5 7.5s-3.35 7.5-7.5 7.5c-4.14 0-7.5-3.36-7.5-7.5s3.36-7.5 7.5-7.5z"/><path d="m90 62.5c4.15 0 7.5 3.36 7.5 7.5s-3.35 7.5-7.5 7.5c-4.14 0-7.5-3.36-7.5-7.5s3.36-7.5 7.5-7.5z"/><path d="m85 422.5c4.15 0 7.5 3.36 7.5 7.5s-3.35 7.5-7.5 7.5c-4.14 0-7.5-3.36-7.5-7.5s3.36-7.5 7.5-7.5z"/><path d="m75 222.5c4.15 0 7.5 3.36 7.5 7.5s-3.35 7.5-7.5 7.5c-4.14 0-7.5-3.36-7.5-7.5s3.36-7.5 7.5-7.5z"/><path d="m310.67 432.5h-136.33c-34.099 0-61.84-27.737-61.84-61.83v-228.17c0-2.761 2.239-5 5-5h250c2.762 0 5 2.239 5 5v35c0 2.761-2.238 5-5 5s-5-2.239-5-5v-30h-240v223.17c0 28.579 23.255 51.83 51.84 51.83h136.33c28.579 0 51.83-23.251 51.83-51.83v-48.17c0-2.762 2.238-5 5-5s5 2.238 5 5v48.17c0 34.093-27.736 61.83-61.83 61.83z"/><path d="m417.5 302.5h-50c-2.762 0-5-2.238-5-5s2.238-5 5-5h45v-85h-45c-2.762 0-5-2.239-5-5s2.238-5 5-5h50c2.762 0 5 2.239 5 5v95c0 2.762-2.238 5-5 5z"/><path d="m423.34 327.5h-55.84c-2.762 0-5-2.238-5-5v-145c0-2.761 2.238-5 5-5h55.84c13.322 0 24.16 10.843 24.16 24.17v106.66c0 13.327-10.838 24.17-24.16 24.17zm-50.84-10h50.84c7.809 0 14.16-6.356 14.16-14.17v-106.66c0-7.813-6.352-14.17-14.16-14.17h-50.84z"/><path d="m262.5 192.5h-145c-2.761 0-5-2.239-5-5s2.239-5 5-5h145c2.762 0 5 2.239 5 5s-2.238 5-5 5z"/><path d="m367.5 212.5h-250c-2.761 0-5-2.239-5-5s2.239-5 5-5h250c2.762 0 5 2.239 5 5s-2.238 5-5 5z"/><path d="m307.5 257.5c-2.762 0-5-2.238-5-5v-110c0-2.761 2.238-5 5-5s5 2.239 5 5v110c0 2.762-2.238 5-5 5z"/><path d="m332.5 337.5h-50c-2.762 0-5-2.238-5-5v-60c0-1.519.69-2.955 1.877-3.904l25-20c1.826-1.461 4.42-1.461 6.246 0l25 20c1.187.949 1.877 2.386 1.877 3.904v60c0 2.762-2.238 5-5 5zm-45-10h40v-52.597l-20-16-20 16z"/><path d="m367.5 375.67h-250c-2.761 0-5-2.238-5-5s2.239-5 5-5h250c2.762 0 5 2.238 5 5s-2.238 5-5 5z"/><path d="m67.5 352.5c-16.542 0-30-13.458-30-30s13.458-30 30-30 30 13.458 30 30-13.458 30-30 30zm0-50c-11.028 0-20 8.972-20 20s8.972 20 20 20 20-8.972 20-20-8.972-20-20-20z"/><path d="m440 127.5c-23.435 0-42.5-19.065-42.5-42.5s19.065-42.5 42.5-42.5 42.5 19.065 42.5 42.5-19.065 42.5-42.5 42.5zm0-75c-17.92 0-32.5 14.58-32.5 32.5s14.58 32.5 32.5 32.5 32.5-14.58 32.5-32.5-14.58-32.5-32.5-32.5z"/></g></g></svg>