<svg enable-background="new 0 0 520 520" height="512" viewBox="0 0 520 520" width="512" xmlns="http://www.w3.org/2000/svg"><g id="_x34_80_x2C__Cloud_x2C__Rainy_x2C__Weather"><g><path d="m430 400c9.67 0 17.5 7.83 17.5 17.5s-7.83 17.5-17.5 17.5c-9.66 0-17.5-7.83-17.5-17.5s7.84-17.5 17.5-17.5z" fill="#c73b10"/><path d="m82.5 65c13.81 0 25 11.19 25 25s-11.19 25-25 25c-13.8 0-25-11.19-25-25s11.2-25 25-25z" fill="#c73b10"/><path d="m417.5 75c30.38 0 55 24.62 55 55s-24.62 55-55 55c-4.01 0-7.91-.44-11.68-1.26.01-.69.02-1.38.02-2.07 0-31.66-13.801-60.1-35.7-79.63 9.58-16.18 27.2-27.04 47.36-27.04z" fill="#ffd54f"/><path d="m99.17 355c-36.82 0-66.67-29.85-66.67-66.67 0-38.282 32.42-69.611 72.35-66.41-3.64-8.23-5.68-17.34-5.68-26.92 0-36.82 29.85-66.67 66.67-66.67 13.14 0 25.37 3.82 35.7 10.38 16.53-37.51 54.01-63.71 97.63-63.71 27.25 0 52.109 10.22 70.97 27.04 34.383 30.662 44.612 78.961 27.72 120.12 40.136-4.75 74.641 26.523 74.641 66.17 0 36.82-29.84 66.67-66.66 66.67-108.619 0-197.63 0-306.671 0z" fill="#26c6da"/><path d="m485 385c4.15 0 7.5 3.36 7.5 7.5s-3.35 7.5-7.5 7.5c-4.141 0-7.5-3.36-7.5-7.5s3.359-7.5 7.5-7.5z"/><path d="m475 205c4.15 0 7.5 3.36 7.5 7.5s-3.35 7.5-7.5 7.5c-4.141 0-7.5-3.36-7.5-7.5s3.359-7.5 7.5-7.5z"/><path d="m370 50c4.15 0 7.5 3.36 7.5 7.5s-3.35 7.5-7.5 7.5c-4.141 0-7.5-3.36-7.5-7.5s3.359-7.5 7.5-7.5z"/><path d="m365 440c4.15 0 7.5 3.36 7.5 7.5s-3.35 7.5-7.5 7.5c-4.141 0-7.5-3.36-7.5-7.5s3.359-7.5 7.5-7.5z"/><path d="m205 55c4.15 0 7.5 3.36 7.5 7.5s-3.35 7.5-7.5 7.5c-4.14 0-7.5-3.36-7.5-7.5s3.36-7.5 7.5-7.5z"/><path d="m75 430c4.15 0 7.5 3.36 7.5 7.5s-3.35 7.5-7.5 7.5c-4.14 0-7.5-3.36-7.5-7.5s3.36-7.5 7.5-7.5z"/><path d="m60 155c4.15 0 7.5 3.36 7.5 7.5s-3.35 7.5-7.5 7.5c-4.14 0-7.5-3.36-7.5-7.5s3.36-7.5 7.5-7.5z"/><path d="m188.803 190.77c-.059 0-.119-.001-.178-.003-2.76-.097-4.918-2.413-4.822-5.172.601-17.11 5.211-34.141 13.333-49.252 1.308-2.432 4.338-3.345 6.771-2.037 2.432 1.307 3.344 4.339 2.037 6.771-7.399 13.768-11.6 29.283-12.147 44.868-.095 2.701-2.314 4.825-4.994 4.825z"/><path d="m417.5 190c-4.229 0-8.481-.455-12.643-1.352-2.302-.448-4.043-2.475-4.043-4.908 0-2.761 2.234-5 4.995-5h.011c.357 0 .713.038 1.063.114 3.495.76 7.067 1.146 10.617 1.146 27.57 0 50-22.43 50-50s-22.43-50-50-50c-17.58 0-34.078 9.421-43.059 24.587-1.405 2.376-4.472 3.165-6.85 1.755-2.375-1.407-3.162-4.474-1.754-6.85 10.771-18.191 30.567-29.492 51.663-29.492 33.084 0 60 26.916 60 60s-26.916 60-60 60z"/><path d="m405.84 360h-306.67c-39.519 0-71.67-32.151-71.67-71.67 0-38.964 31.262-70.764 70.024-71.642-2.228-6.99-3.354-14.256-3.354-21.688 0-39.519 32.151-71.67 71.67-71.67 11.725 0 23.196 2.863 33.498 8.321 18.868-37.632 57.462-61.651 99.832-61.651 27.442 0 53.828 10.053 74.298 28.309 23.751 21.18 37.372 51.564 37.372 83.361 0 .683-.01 1.366-.02 2.05 0 .008-.002.108-.002.116-.215 11.229-2.095 22.241-5.6 32.837.207-.002.414-.003.621-.003 39.514 0 71.66 32.146 71.66 71.66.001 39.519-32.145 71.67-71.659 71.67zm-306.67-133.33c-34.005 0-61.67 27.66-61.67 61.66 0 34.005 27.665 61.67 61.67 61.67h306.67c34 0 61.66-27.665 61.66-61.67 0-34-27.66-61.66-61.66-61.66-2.384 0-4.803.149-7.393.456-1.761.212-3.498-.531-4.569-1.941-1.071-1.411-1.316-3.284-.644-4.923 4.792-11.676 7.345-23.996 7.586-36.617.01-.703.02-1.339.02-1.975 0-28.949-12.402-56.613-34.027-75.898-18.636-16.62-42.659-25.772-67.643-25.772-40.271 0-76.798 23.836-93.055 60.726-.587 1.333-1.728 2.344-3.122 2.768-1.393.422-2.904.218-4.134-.563-9.89-6.281-21.308-9.601-33.019-9.601-34.005 0-61.67 27.665-61.67 61.67 0 8.64 1.767 17.017 5.252 24.897.713 1.612.524 3.479-.495 4.917-1.021 1.437-2.721 2.231-4.478 2.09-1.963-.157-3.69-.234-5.279-.234z"/><path d="m265 467.5c-1.279 0-2.559-.488-3.535-1.465-1.953-1.952-1.953-5.118 0-7.07l85-85c1.953-1.953 5.117-1.953 7.07 0 1.953 1.952 1.953 5.118 0 7.07l-85 85c-.976.977-2.256 1.465-3.535 1.465z"/><path d="m277.5 415c-1.279 0-2.559-.488-3.535-1.465-1.953-1.952-1.953-5.118 0-7.07l75-75c1.953-1.953 5.117-1.953 7.07 0 1.953 1.952 1.953 5.118 0 7.07l-75 75c-.976.977-2.256 1.465-3.535 1.465z"/><path d="m182.5 470c-1.28 0-2.559-.488-3.536-1.465-1.953-1.952-1.953-5.118 0-7.07l140-140c1.953-1.953 5.117-1.953 7.07 0 1.953 1.952 1.953 5.118 0 7.07l-140 140c-.975.977-2.254 1.465-3.534 1.465z"/><path d="m197.5 415c-1.28 0-2.559-.488-3.536-1.465-1.953-1.952-1.953-5.118 0-7.07l70-70c1.953-1.953 5.117-1.953 7.07 0 1.953 1.952 1.953 5.118 0 7.07l-70 70c-.975.977-2.254 1.465-3.534 1.465z"/><path d="m157.5 415c-1.28 0-2.559-.488-3.536-1.465-1.953-1.952-1.953-5.118 0-7.07l130-130c1.953-1.953 5.117-1.953 7.07 0 1.953 1.952 1.953 5.118 0 7.07l-130 130c-.975.977-2.254 1.465-3.534 1.465z"/><path d="m117.5 415c-1.28 0-2.559-.488-3.536-1.465-1.953-1.952-1.953-5.118 0-7.07l85-85c1.953-1.953 5.118-1.953 7.071 0 1.953 1.952 1.953 5.118 0 7.07l-85 85c-.976.977-2.255 1.465-3.535 1.465z"/><path d="m82.5 120c-16.542 0-30-13.458-30-30s13.458-30 30-30 30 13.458 30 30-13.458 30-30 30zm0-50c-11.028 0-20 8.972-20 20s8.972 20 20 20 20-8.972 20-20-8.972-20-20-20z"/><path d="m430 440c-12.406 0-22.5-10.094-22.5-22.5s10.094-22.5 22.5-22.5 22.5 10.094 22.5 22.5-10.094 22.5-22.5 22.5zm0-35c-6.893 0-12.5 5.607-12.5 12.5s5.607 12.5 12.5 12.5 12.5-5.607 12.5-12.5-5.607-12.5-12.5-12.5z"/></g></g></svg>