<svg enable-background="new 0 0 520 520" height="512" viewBox="0 0 520 520" width="512" xmlns="http://www.w3.org/2000/svg"><g id="_x34_81_x2C__Battery_x2C__Charge_x2C__Power"><g><circle cx="450" cy="192.5" fill="#bde1ff" r="35"/><path d="m60 327.5c13.81 0 25 11.19 25 25s-11.19 25-25 25c-13.8 0-25-11.19-25-25s11.2-25 25-25z" fill="#bde1ff"/><path d="m320 83.83v23.84h-130v-23.84c0-11.69 9.48-21.16 21.17-21.16h87.67c11.689 0 21.16 9.47 21.16 21.16z" fill="#414a56"/><path d="m350.17 107.67h-30.17-130-30.16c-13.72 0-24.84 11.11-24.84 24.83v310.17c0 13.71 11.12 24.83 24.84 24.83h190.33c13.72 0 24.83-11.12 24.83-24.83v-310.17c0-13.72-11.11-24.83-24.83-24.83z" fill="#757d8c"/><path d="m165 137.5v90 35h180v-125z" fill="#ecebed"/><path d="m165 367.5h180v35h-180z" fill="#b70422"/><path d="m165 297.5h180v35h-180z" fill="#b70422"/><g fill="#fb2b3a"><path d="m165 402.5h180v35h-180z"/><path d="m165 332.5h180v35h-180z"/><path d="m165 262.5h180v35h-180z"/></g><path d="m475 107.5c4.15 0 7.5 3.36 7.5 7.5s-3.35 7.5-7.5 7.5c-4.141 0-7.5-3.36-7.5-7.5s3.359-7.5 7.5-7.5z"/><path d="m462.5 277.5c4.15 0 7.5 3.36 7.5 7.5s-3.35 7.5-7.5 7.5c-4.141 0-7.5-3.36-7.5-7.5s3.359-7.5 7.5-7.5z"/><path d="m412.5 397.5c4.15 0 7.5 3.36 7.5 7.5s-3.35 7.5-7.5 7.5c-4.141 0-7.5-3.36-7.5-7.5s3.359-7.5 7.5-7.5z"/><path d="m387.5 47.5c4.15 0 7.5 3.36 7.5 7.5s-3.35 7.5-7.5 7.5c-4.141 0-7.5-3.36-7.5-7.5s3.359-7.5 7.5-7.5z"/><path d="m260 222.5c2.77 0 5 2.24 5 5s-2.23 5-5 5c-2.76 0-5-2.24-5-5s2.24-5 5-5z"/><path d="m97.5 47.5c4.15 0 7.5 3.36 7.5 7.5s-3.35 7.5-7.5 7.5c-4.14 0-7.5-3.36-7.5-7.5s3.36-7.5 7.5-7.5z"/><path d="m97.5 177.5c4.15 0 7.5 3.36 7.5 7.5s-3.35 7.5-7.5 7.5c-4.14 0-7.5-3.36-7.5-7.5s3.36-7.5 7.5-7.5z"/><path d="m87.5 412.5c4.15 0 7.5 3.36 7.5 7.5s-3.35 7.5-7.5 7.5c-4.14 0-7.5-3.36-7.5-7.5s3.36-7.5 7.5-7.5z"/><path d="m62.5 277.5c4.15 0 7.5 3.36 7.5 7.5s-3.35 7.5-7.5 7.5c-4.14 0-7.5-3.36-7.5-7.5s3.36-7.5 7.5-7.5z"/><path d="m350.17 472.5h-190.33c-16.454 0-29.84-13.382-29.84-29.83v-310.17c0-16.448 13.386-29.83 29.84-29.83h30.16c2.761 0 5 2.239 5 5s-2.239 5-5 5h-30.16c-10.94 0-19.84 8.896-19.84 19.83v310.17c0 10.935 8.9 19.83 19.84 19.83h190.33c10.935 0 19.83-8.896 19.83-19.83v-310.17c0-10.934-8.896-19.83-19.83-19.83h-30.17c-2.762 0-5-2.239-5-5s2.238-5 5-5h30.17c16.448 0 29.83 13.382 29.83 29.83v310.17c0 16.448-13.382 29.83-29.83 29.83z"/><path d="m320 112.67h-130c-2.761 0-5-2.239-5-5v-23.84c0-14.425 11.74-26.16 26.17-26.16h87.67c14.425 0 26.16 11.735 26.16 26.16v23.84c0 2.761-2.238 5-5 5zm-125-10h120v-18.84c0-8.911-7.25-16.16-16.16-16.16h-87.67c-8.916 0-16.17 7.25-16.17 16.16z"/><path d="m345 442.5h-180c-2.761 0-5-2.238-5-5v-300c0-2.761 2.239-5 5-5h180c2.762 0 5 2.239 5 5v300c0 2.762-2.238 5-5 5zm-175-10h170v-290h-170z"/><path d="m345 407.5h-180c-2.761 0-5-2.238-5-5s2.239-5 5-5h180c2.762 0 5 2.238 5 5s-2.238 5-5 5z"/><path d="m345 372.5h-180c-2.761 0-5-2.238-5-5s2.239-5 5-5h180c2.762 0 5 2.238 5 5s-2.238 5-5 5z"/><path d="m345 337.5h-180c-2.761 0-5-2.238-5-5s2.239-5 5-5h180c2.762 0 5 2.238 5 5s-2.238 5-5 5z"/><path d="m345 302.5h-180c-2.761 0-5-2.238-5-5s2.239-5 5-5h180c2.762 0 5 2.238 5 5s-2.238 5-5 5z"/><path d="m345 267.5h-180c-2.761 0-5-2.238-5-5s2.239-5 5-5h180c2.762 0 5 2.238 5 5s-2.238 5-5 5z"/><path d="m245 232.5h-80c-2.761 0-5-2.239-5-5s2.239-5 5-5h80c2.761 0 5 2.239 5 5s-2.239 5-5 5z"/><path d="m60 382.5c-16.542 0-30-13.458-30-30s13.458-30 30-30 30 13.458 30 30-13.458 30-30 30zm0-50c-11.028 0-20 8.972-20 20s8.972 20 20 20 20-8.972 20-20-8.972-20-20-20z"/><path d="m450 232.5c-22.057 0-40-17.944-40-40s17.943-40 40-40 40 17.944 40 40-17.943 40-40 40zm0-70c-16.542 0-30 13.458-30 30s13.458 30 30 30 30-13.458 30-30-13.458-30-30-30z"/></g></g></svg>