<svg enable-background="new 0 0 520 520" height="512" viewBox="0 0 520 520" width="512" xmlns="http://www.w3.org/2000/svg"><g id="_x34_82_x2C__Computer_x2C__Play_x2C__Screen_x2C__Youtube"><g><path d="m454.34 115c-125.54 0-274.23 0-388.67 0-14.17 0-25.67 11.49-25.67 25.67v268.66c0 14.18 11.5 25.67 25.67 25.67h124.33 140 124.34c14.17 0 25.66-11.49 25.66-25.67 0-10.061 0-260.09 0-268.66 0-14.18-11.49-25.67-25.66-25.67z" fill="#757d8c"/><path d="m70 145v230h380c0-31.1 0-198.16 0-230-18.61 0-361.54 0-380 0z" fill="#ecebed"/><path d="m452.5 45c12.43 0 22.5 10.07 22.5 22.5s-10.07 22.5-22.5 22.5c-12.42 0-22.5-10.07-22.5-22.5s10.08-22.5 22.5-22.5z" fill="#ff5622"/><path d="m95 55c8.29 0 15 6.72 15 15s-6.71 15-15 15c-8.28 0-15-6.72-15-15s6.72-15 15-15z" fill="#ff5622"/><path d="m415 345h-242.69c1.71-2.94 2.69-6.36 2.69-10s-.98-7.06-2.69-10h242.69c5.529 0 10 4.48 10 10s-4.471 10-10 10z" fill="#414a56"/><path d="m110 325h27.69c-1.71 2.94-2.69 6.36-2.69 10s.98 7.06 2.69 10h-27.69c-5.52 0-10-4.48-10-10s4.48-10 10-10z" fill="#414a56"/><path d="m137.69 325c3.45-5.98 9.91-10 17.31-10s13.86 4.02 17.31 10c1.71 2.94 2.69 6.36 2.69 10s-.98 7.06-2.69 10c-3.45 5.98-9.91 10-17.31 10s-13.86-4.02-17.31-10c-1.71-2.94-2.69-6.36-2.69-10s.98-7.06 2.69-10z" fill="#fb2b3a"/><path d="m344.14 440.86c3.62 3.62 5.86 8.62 5.86 14.14 0 11.05-8.95 20-20 20h-140c-5.52 0-10.52-2.24-14.14-5.86s-5.86-8.62-5.86-14.14c0-11.05 8.96-20 20-20h140c5.529 0 10.529 2.24 14.14 5.86z" fill="#414a56"/><path d="m343.67 180h-182.33c-9.02 0-16.34 7.31-16.34 16.33v62.34c0 9.021 7.32 16.33 16.34 16.33h182.33c9.02 0 16.33-7.31 16.33-16.33v-62.34c0-9.02-7.311-16.33-16.33-16.33z" fill="#bde1ff"/><path d="m271.21 220.28c5.67 3.27 5.67 11.46 0 14.73l-28.89 16.68c-5.67 3.28-12.76-.82-12.76-7.36v-33.36c0-6.55 7.09-10.64 12.76-7.37z" fill="#fb2b3a"/><path d="m457.5 460c4.15 0 7.5 3.36 7.5 7.5s-3.35 7.5-7.5 7.5c-4.141 0-7.5-3.36-7.5-7.5s3.359-7.5 7.5-7.5z"/><path d="m392.5 55c4.15 0 7.5 3.36 7.5 7.5s-3.35 7.5-7.5 7.5c-4.141 0-7.5-3.36-7.5-7.5s3.359-7.5 7.5-7.5z"/><path d="m382.5 450c4.15 0 7.5 3.36 7.5 7.5s-3.35 7.5-7.5 7.5c-4.141 0-7.5-3.36-7.5-7.5s3.359-7.5 7.5-7.5z"/><path d="m332.5 80c4.15 0 7.5 3.36 7.5 7.5s-3.35 7.5-7.5 7.5c-4.141 0-7.5-3.36-7.5-7.5s3.359-7.5 7.5-7.5z"/><path d="m267.07 397.93c1.81 1.811 2.93 4.311 2.93 7.07s-1.12 5.26-2.93 7.07c-1.801 1.81-4.301 2.93-7.07 2.93-5.52 0-10-4.48-10-10 0-2.76 1.12-5.26 2.93-7.07s4.311-2.93 7.07-2.93c2.77 0 5.27 1.12 7.07 2.93z"/><path d="m252.5 60c4.15 0 7.5 3.36 7.5 7.5s-3.35 7.5-7.5 7.5c-4.14 0-7.5-3.36-7.5-7.5s3.36-7.5 7.5-7.5z"/><path d="m177.5 65c4.15 0 7.5 3.36 7.5 7.5s-3.35 7.5-7.5 7.5c-4.14 0-7.5-3.36-7.5-7.5s3.36-7.5 7.5-7.5z"/><path d="m127.5 450c4.15 0 7.5 3.36 7.5 7.5s-3.35 7.5-7.5 7.5c-4.14 0-7.5-3.36-7.5-7.5s3.36-7.5 7.5-7.5z"/><path d="m62.5 460c4.15 0 7.5 3.36 7.5 7.5s-3.35 7.5-7.5 7.5c-4.14 0-7.5-3.36-7.5-7.5s3.36-7.5 7.5-7.5z"/><path d="m238.078 257.845c-7.454 0-13.519-6.063-13.519-13.515v-33.36c0-7.455 6.066-13.521 13.522-13.521 2.343 0 4.672.629 6.736 1.819l28.892 16.681c4.228 2.438 6.753 6.811 6.753 11.696s-2.525 9.257-6.756 11.696l-28.886 16.679c-2.062 1.193-4.395 1.825-6.742 1.825zm.004-50.395c-1.694 0-3.522 1.346-3.522 3.521v33.36c0 2.171 1.826 3.515 3.519 3.515.6 0 1.184-.163 1.738-.483l28.894-16.682c1.582-.912 1.753-2.426 1.753-3.035s-.171-2.123-1.751-3.034l-28.893-16.682c-.552-.318-1.138-.48-1.738-.48z"/><path d="m330 480h-140c-6.675 0-12.952-2.602-17.676-7.325-4.723-4.723-7.324-11-7.324-17.675 0-13.785 11.215-25 25-25 2.761 0 5 2.238 5 5s-2.239 5-5 5c-8.271 0-15 6.729-15 15 0 4.004 1.561 7.77 4.396 10.604 2.834 2.834 6.6 4.396 10.604 4.396h140c8.271 0 15-6.729 15-15 0-4.004-1.561-7.77-4.396-10.604-2.829-2.836-6.592-4.396-10.604-4.396-2.762 0-5-2.238-5-5s2.238-5 5-5c6.688 0 12.967 2.604 17.68 7.33 4.719 4.718 7.32 10.995 7.32 17.67 0 13.785-11.215 25-25 25z"/><path d="m95 90c-11.028 0-20-8.972-20-20s8.972-20 20-20 20 8.972 20 20-8.972 20-20 20zm0-30c-5.514 0-10 4.486-10 10s4.486 10 10 10 10-4.486 10-10-4.486-10-10-10z"/><path d="m452.5 95c-15.164 0-27.5-12.336-27.5-27.5s12.336-27.5 27.5-27.5 27.5 12.336 27.5 27.5-12.336 27.5-27.5 27.5zm0-45c-9.649 0-17.5 7.851-17.5 17.5s7.851 17.5 17.5 17.5 17.5-7.851 17.5-17.5-7.851-17.5-17.5-17.5z"/><path d="m454.34 440h-388.67c-16.912 0-30.67-13.759-30.67-30.67v-268.66c0-16.912 13.758-30.67 30.67-30.67h388.67c16.906 0 30.66 13.758 30.66 30.67v268.66c0 16.911-13.754 30.67-30.66 30.67zm-388.67-320c-11.398 0-20.67 9.272-20.67 20.67v268.66c0 11.398 9.272 20.67 20.67 20.67h388.67c11.393 0 20.66-9.272 20.66-20.67v-268.66c0-11.397-9.268-20.67-20.66-20.67z"/><path d="m450 380h-380c-2.761 0-5-2.238-5-5v-230c0-2.761 2.239-5 5-5h380c2.762 0 5 2.239 5 5v230c0 2.762-2.238 5-5 5zm-375-10h370v-220h-370z"/><path d="m137.7 350h-27.7c-8.271 0-15-6.729-15-15s6.729-15 15-15h27.69c2.761 0 5.005 2.238 5.005 5s-2.234 5-4.995 5h-27.7c-2.757 0-5 2.243-5 5s2.243 5 5 5h27.69c2.761 0 5.005 2.238 5.005 5s-2.234 5-4.995 5z"/><path d="m415 350h-242.69c-2.761 0-5-2.238-5-5s2.239-5 5-5h242.69c2.757 0 5-2.243 5-5s-2.243-5-5-5h-242.69c-2.761 0-5-2.238-5-5s2.239-5 5-5h242.69c8.271 0 15 6.729 15 15s-6.729 15-15 15z"/><path d="m155 360c-8.901 0-17.193-4.79-21.641-12.502-2.194-3.773-3.359-8.101-3.359-12.498s1.165-8.725 3.368-12.514c4.439-7.696 12.731-12.486 21.632-12.486 8.9 0 17.192 4.79 21.641 12.502 2.194 3.773 3.359 8.101 3.359 12.498s-1.165 8.725-3.368 12.514c-4.44 7.696-12.732 12.486-21.632 12.486zm0-40c-5.338 0-10.311 2.873-12.979 7.498-1.325 2.279-2.021 4.868-2.021 7.502s.696 5.223 2.012 7.486c2.677 4.641 7.65 7.514 12.988 7.514 5.337 0 10.311-2.873 12.979-7.498 1.326-2.279 2.021-4.868 2.021-7.502s-.696-5.223-2.013-7.486c-2.676-4.641-7.65-7.514-12.987-7.514z"/><path d="m343.67 280h-182.33c-11.767 0-21.34-9.568-21.34-21.33v-62.34c0-11.761 9.573-21.33 21.34-21.33h182.33c11.762 0 21.33 9.569 21.33 21.33v62.34c0 11.762-9.568 21.33-21.33 21.33zm-182.33-95c-6.253 0-11.34 5.083-11.34 11.33v62.34c0 6.247 5.087 11.33 11.34 11.33h182.33c6.248 0 11.33-5.083 11.33-11.33v-62.34c0-6.248-5.082-11.33-11.33-11.33z"/></g></g></svg>