<svg enable-background="new 0 0 520 520" height="512" viewBox="0 0 520 520" width="512" xmlns="http://www.w3.org/2000/svg"><g id="_x34_83_x2C__Music_x2C__Play_x2C__Quaver_x2C__Sound"><g><circle cx="447.501" cy="120" fill="#4380a0" r="32.5"/><path d="m60.001 377.501c11.05 0 20 8.96 20 20 0 11.05-8.95 20-20 20-11.04 0-20-8.95-20-20 0-11.04 8.96-20 20-20z" fill="#4380a0"/><path d="m323.301 307.691s2.62-32.131-29.71-34.66c-32.11-2.521-32.21-22.151-32.21-22.391v-44.72c.51 8.07 5.67 31.04 46.85 40.2 27.559 7.32 15.07 61.571 15.07 61.571z" fill="#57606f"/><path d="m222.631 298.651c21.35 0 38.75 14.22 38.75 31.649 0 17.431-17.4 31.641-38.75 31.641-21.341 0-38.75-14.21-38.75-31.641 0-17.429 17.409-31.649 38.75-31.649z" fill="#57606f"/><path d="m255.001 107.5c96.649 0 175 78.35 175 175s-78.351 175-175 175c-96.65 0-175-78.35-175-175s78.35-175 175-175zm135 175.001c0-74.55-60.44-135-135-135-74.551 0-135 60.45-135 135 0 74.56 60.449 135 135 135 74.56 0 135-60.44 135-135z" fill="#ffd54f"/><path d="m464.561 217.791c3.99 1.14 6.29 5.29 5.15 9.28-1.131 3.98-5.29 6.28-9.271 5.15-3.979-1.14-6.29-5.29-5.15-9.27 1.141-3.991 5.29-6.29 9.271-5.16z"/><path d="m439.561 392.791c3.99 1.14 6.29 5.29 5.15 9.27-1.131 3.98-5.29 6.29-9.271 5.15-3.979-1.13-6.29-5.29-5.15-9.27 1.141-3.98 5.29-6.29 9.271-5.15z"/><path d="m339.57 57.791c3.98 1.14 6.29 5.29 5.15 9.27-1.141 3.98-5.29 6.29-9.271 5.15-3.989-1.13-6.29-5.29-5.16-9.27 1.142-3.981 5.291-6.291 9.281-5.15z"/><path d="m129.561 437.791c3.99 1.14 6.29 5.29 5.15 9.28-1.131 3.979-5.29 6.29-9.271 5.149-3.979-1.14-6.29-5.29-5.15-9.27 1.141-3.989 5.29-6.289 9.271-5.159z"/><path d="m114.561 102.791c3.99 1.14 6.29 5.29 5.15 9.28-1.131 3.98-5.29 6.28-9.271 5.15-3.979-1.14-6.29-5.29-5.15-9.27 1.141-3.991 5.29-6.29 9.271-5.16z"/><path d="m44.561 197.791c3.99 1.14 6.29 5.29 5.15 9.28-1.131 3.98-5.29 6.28-9.271 5.15-3.979-1.14-6.29-5.29-5.15-9.27 1.141-3.991 5.29-6.29 9.271-5.16z"/><path d="m222.631 366.941c-24.124 0-43.75-16.437-43.75-36.641 0-20.209 19.626-36.649 43.75-36.649s43.75 16.44 43.75 36.649c0 20.205-19.626 36.641-43.75 36.641zm0-63.29c-18.61 0-33.75 11.955-33.75 26.649 0 14.689 15.14 26.641 33.75 26.641 18.609 0 33.75-11.951 33.75-26.641 0-14.694-15.141-26.649-33.75-26.649z"/><path d="m308.235 251.122c-.359 0-.725-.039-1.09-.12-45.104-10.033-50.252-36.801-50.755-44.766-.174-2.756 1.919-5.131 4.675-5.306 2.756-.168 5.131 1.919 5.306 4.675.502 7.954 5.692 27.348 42.945 35.635 2.695.6 4.395 3.271 3.795 5.966-.518 2.33-2.584 3.916-4.876 3.916z"/><path d="m261.378 210.92c-2.621 0-4.811-2.033-4.986-4.667-.143-2.14-.008-3.504.021-3.756.299-2.635 2.606-4.58 5.25-4.429 2.648.15 4.719 2.34 4.719 4.992v2.86c0 2.697-2.139 4.907-4.834 4.997-.058.002-.114.003-.17.003z"/><path d="m261.381 335.301c-2.762 0-5-2.238-5-5v-124.381c0-2.761 2.238-5 5-5 2.761 0 5 2.239 5 5v124.38c0 2.763-2.239 5.001-5 5.001z"/><path d="m323.305 312.692c-.371 0-.748-.041-1.126-.129-2.69-.619-4.369-3.301-3.751-5.991.113-.496 10.734-49.719-11.48-55.619-2.669-.709-4.258-3.447-3.549-6.116s3.448-4.258 6.116-3.549c31.867 8.464 19.213 65.117 18.658 67.525-.532 2.314-2.591 3.879-4.868 3.879z"/><path d="m323.306 312.691c-.136 0-.273-.005-.411-.017-2.753-.225-4.802-2.638-4.577-5.39.004-.055.497-7.221-2.5-14.385-3.766-8.997-11.374-14.005-22.617-14.885-36.401-2.857-36.819-26.375-36.819-27.375 0-2.761 2.238-5 5-5 2.746 0 4.976 2.215 5 4.956.023.754.852 15.351 27.601 17.451 10.939.855 19.532 4.863 25.538 11.913 9.979 11.71 8.818 27.473 8.765 28.138-.215 2.615-2.402 4.594-4.98 4.594z"/><path d="m255.001 462.501c-99.253 0-180-80.748-180-180 0-99.253 80.747-180 180-180 99.252 0 180 80.748 180 180s-80.748 180-180 180zm0-350.001c-93.738 0-170 76.262-170 170s76.262 170 170 170 170-76.262 170-170-76.262-170-170-170z"/><path d="m60.001 422.501c-13.785 0-25-11.215-25-25s11.215-25 25-25 25 11.215 25 25-11.215 25-25 25zm0-40c-8.271 0-15 6.729-15 15s6.729 15 15 15 15-6.729 15-15-6.73-15-15-15z"/><path d="m447.501 157.5c-20.678 0-37.5-16.822-37.5-37.5s16.822-37.5 37.5-37.5 37.5 16.822 37.5 37.5-16.822 37.5-37.5 37.5zm0-65c-15.164 0-27.5 12.336-27.5 27.5s12.336 27.5 27.5 27.5c15.163 0 27.5-12.336 27.5-27.5s-12.337-27.5-27.5-27.5z"/><path d="m255.001 422.501c-77.196 0-140-62.804-140-140 0-77.197 62.804-140 140-140s140 62.804 140 140-62.804 140-140 140zm0-270.001c-71.683 0-130 58.318-130 130s58.317 130 130 130c71.682 0 130-58.317 130-130s-58.318-130-130-130z"/><path d="m255.001 392.501c-2.762 0-5-2.238-5-5s2.238-5 5-5c55.14 0 100-44.859 100-100 0-2.762 2.238-5 5-5 2.761 0 5 2.238 5 5 0 60.654-49.346 110-110 110z"/><path d="m150.001 287.501c-2.762 0-5-2.238-5-5 0-60.655 49.346-110 110-110 2.761 0 5 2.239 5 5s-2.239 5-5 5c-55.141 0-100 44.86-100 100 0 2.762-2.239 5-5 5z"/></g></g></svg>