<svg enable-background="new 0 0 520 520" height="512" viewBox="0 0 520 520" width="512" xmlns="http://www.w3.org/2000/svg"><g id="_x34_84_x2C__Gps_x2C__Home_x2C__Location_x2C__Map_x2C__Navigation"><g><circle cx="455" cy="292.5" fill="#bdf9ff" r="35"/><path d="m55 307.5c13.81 0 25 11.19 25 25s-11.19 25-25 25c-13.8 0-25-11.19-25-25s11.2-25 25-25z" fill="#bdf9ff"/><path d="m198.31 272.5h123.39c-16.18 15.13-37.89 24.4-61.699 24.4-23.801 0-45.511-9.27-61.691-24.4z" fill="#313a52"/><path d="m260 90.9c63.619 0 115.5 51.88 115.5 115.5 0 63.61-51.881 115.5-115.5 115.5-63.61 0-115.5-51.891-115.5-115.5 0-63.62 51.89-115.5 115.5-115.5zm90.5 115.5c0-49.85-40.65-90.5-90.5-90.5-49.84 0-90.5 40.65-90.5 90.5 0 26.04 11.1 49.57 28.81 66.1 16.18 15.13 37.89 24.4 61.69 24.4 23.81 0 45.52-9.271 61.699-24.4 17.711-16.54 28.801-40.07 28.801-66.1z" fill="#a1d4ff"/><path d="m303.4 212.85v34.65h-28.32v-31.24c0-4.1-1.66-7.81-4.35-10.5-2.691-2.69-6.4-4.35-10.5-4.35-8.201 0-14.851 6.65-14.851 14.85v31.24h-28.79v-34.65-40.04h86.811z" fill="#a85120"/><g fill="#c86d36"><path d="m303.4 212.85h17.159v34.65h-17.159z"/><path d="m199.45 212.85h17.14v34.65h-17.14z"/><path d="m259.779 138.5 60.781 34.31h-17.16-86.81-17.14z"/></g><path d="m306.47 371.52c7.55-7.289 15.12-14.31 22.569-21.199 48.101 9.989 80.961 30.099 80.961 53.279 0 33.141-67.15 60-150 60-82.84 0-150-26.859-150-60 0-23.18 32.87-43.29 80.97-53.279 23.37 21.649 48.05 44.52 69.03 73.279 14.3-19.6 30.32-36.47 46.47-52.08z" fill="#fb2b3a"/><path d="m329.039 350.32c-7.449 6.89-15.02 13.91-22.569 21.199-16.15 15.611-32.17 32.481-46.47 52.081-20.98-28.76-45.66-51.63-69.03-73.279-44.82-41.521-84.86-78.53-84.86-143.92 0-85.011 68.89-153.901 153.89-153.901 85.01 0 153.9 68.89 153.9 153.9 0 65.39-40.041 102.4-84.861 143.92zm46.461-143.92c0-63.62-51.881-115.5-115.5-115.5-63.61 0-115.5 51.88-115.5 115.5 0 63.61 51.89 115.5 115.5 115.5 63.619 0 115.5-51.89 115.5-115.5z" fill="#bde1ff"/><path d="m465 372.5c4.15 0 7.5 3.36 7.5 7.5s-3.35 7.5-7.5 7.5c-4.141 0-7.5-3.36-7.5-7.5s3.359-7.5 7.5-7.5z"/><path d="m457.5 147.5c4.15 0 7.5 3.36 7.5 7.5s-3.35 7.5-7.5 7.5c-4.141 0-7.5-3.36-7.5-7.5s3.359-7.5 7.5-7.5z"/><path d="m397.5 467.5c4.15 0 7.5 3.36 7.5 7.5s-3.35 7.5-7.5 7.5c-4.141 0-7.5-3.36-7.5-7.5s3.359-7.5 7.5-7.5z"/><path d="m382.5 37.5c4.15 0 7.5 3.36 7.5 7.5s-3.35 7.5-7.5 7.5c-4.141 0-7.5-3.36-7.5-7.5s3.359-7.5 7.5-7.5z"/><path d="m87.5 422.5c4.15 0 7.5 3.36 7.5 7.5s-3.35 7.5-7.5 7.5c-4.14 0-7.5-3.36-7.5-7.5s3.36-7.5 7.5-7.5z"/><path d="m72.5 52.5c4.15 0 7.5 3.36 7.5 7.5s-3.35 7.5-7.5 7.5c-4.14 0-7.5-3.36-7.5-7.5s3.36-7.5 7.5-7.5z"/><path d="m67.5 207.5c4.15 0 7.5 3.36 7.5 7.5s-3.35 7.5-7.5 7.5c-4.14 0-7.5-3.36-7.5-7.5s3.36-7.5 7.5-7.5z"/><path d="m260 468.6c-86.916 0-155-28.552-155-65 0-12.979 8.554-25.355 24.738-35.788 14.792-9.537 35.614-17.277 60.215-22.387.334-.069.675-.104 1.017-.104 2.761 0 5.005 2.238 5.005 5 0 2.471-1.788 4.523-4.143 4.928-46.68 9.721-76.832 28.692-76.832 48.351 0 13.645 14.868 27.416 40.792 37.785 27.754 11.101 64.762 17.215 104.208 17.215 39.449 0 76.459-6.113 104.211-17.215 25.922-10.368 40.789-24.141 40.789-37.785 0-19.667-30.176-38.647-76.885-48.364-2.32-.434-4.08-2.469-4.08-4.915 0-2.762 2.233-5 4.994-5 .342 0 .692.035 1.027.104 24.6 5.108 45.42 12.85 60.21 22.387 16.181 10.432 24.734 22.808 24.734 35.788 0 36.448-68.084 65-155 65z"/><path d="m325 438.611c-2.047 0-3.967-1.266-4.703-3.302-.938-2.598.407-5.463 3.004-6.401 17.996-6.502 28.738-15.519 28.738-24.118 0-10.259-18.783-21.676-46.74-28.409-2.685-.647-4.337-3.348-3.689-6.032.646-2.685 3.345-4.339 6.031-3.69 34.063 8.205 54.398 22.46 54.398 38.132 0 13.384-12.551 25.289-35.34 33.522-.56.203-1.135.298-1.699.298z"/><path d="m215.005 444.181c-.339 0-.684-.035-1.03-.107-35.068-7.347-56.005-22.031-56.005-39.283 0-13.394 12.548-25.299 35.333-33.523 2.598-.937 5.463.408 6.401 3.006.938 2.597-.408 5.463-3.005 6.4-17.989 6.493-28.728 15.509-28.728 24.117 0 11.621 19.312 23.475 48.056 29.496 2.703.566 4.435 3.216 3.868 5.919-.495 2.356-2.574 3.975-4.89 3.975z"/><path d="m260 428.6c-1.598 0-3.098-.763-4.04-2.053-20.711-28.392-44.949-50.845-68.389-72.559l-.17-.157c-44.376-41.11-86.292-79.939-86.292-147.431 0-87.618 71.278-158.9 158.89-158.9 87.617 0 158.9 71.282 158.9 158.9 0 67.492-41.916 106.322-86.294 147.432l-.169.156c-7.647 7.072-15.119 14.008-22.495 21.128-19.66 19.004-33.817 34.866-45.903 51.431-.94 1.29-2.44 2.053-4.038 2.053zm0-371.1c-82.098 0-148.89 66.796-148.89 148.9 0 63.124 38.504 98.793 83.088 140.095l.17.157c22.298 20.656 45.308 41.973 65.632 68.589 11.543-15.126 25.038-29.96 42.994-47.316 7.449-7.191 14.965-14.167 22.65-21.275l.166-.153c44.584-41.303 83.09-76.972 83.09-140.096 0-82.105-66.796-148.901-148.9-148.901z"/><path d="m55 362.5c-16.542 0-30-13.458-30-30s13.458-30 30-30 30 13.458 30 30-13.458 30-30 30zm0-50c-11.028 0-20 8.972-20 20s8.972 20 20 20 20-8.972 20-20-8.972-20-20-20z"/><path d="m455 332.5c-22.057 0-40-17.944-40-40s17.943-40 40-40 40 17.944 40 40-17.943 40-40 40zm0-70c-16.542 0-30 13.458-30 30s13.458 30 30 30 30-13.458 30-30-13.458-30-30-30z"/><path d="m320.56 177.81h-17.16c-2.762 0-5-2.239-5-5 0-2.248 1.482-4.148 3.523-4.778l-42.135-23.785-41.788 23.765c2.074.609 3.589 2.527 3.589 4.798 0 2.761-2.239 5-5 5h-17.14c-2.269 0-4.253-1.528-4.834-3.722-.58-2.194.39-4.503 2.362-5.625l60.331-34.31c1.527-.869 3.398-.872 4.93-.008l60.779 34.31c1.979 1.117 2.955 3.427 2.378 5.625s-2.563 3.73-4.835 3.73z"/><path d="m303.4 217.85c-2.762 0-5-2.239-5-5v-35.04h-76.81v35.04c0 2.761-2.239 5-5 5s-5-2.239-5-5v-40.04c0-2.761 2.239-5 5-5h86.81c2.761 0 5 2.239 5 5v40.04c0 2.761-2.239 5-5 5z"/><path d="m303.4 252.5h-28.32c-2.762 0-5-2.238-5-5v-31.24c0-2.63-1.025-5.104-2.886-6.965-1.86-1.86-4.334-2.885-6.964-2.885-5.432 0-9.851 4.418-9.851 9.85v31.24c0 2.762-2.239 5-5 5h-28.79c-2.761 0-5-2.238-5-5 0-2.761 2.239-5 5-5h23.79v-26.24c0-10.945 8.905-19.85 19.851-19.85 5.301 0 10.285 2.064 14.035 5.814 3.749 3.75 5.814 8.735 5.814 14.036v26.24h23.32c2.761 0 5 2.239 5 5 .001 2.762-2.238 5-4.999 5z"/><path d="m320.56 252.5h-17.16c-2.762 0-5-2.238-5-5v-34.65c0-2.761 2.238-5 5-5h17.159c2.761 0 5 2.239 5 5v34.65c.001 2.762-2.239 5-4.999 5zm-12.16-10h7.159v-24.65h-7.159z"/><path d="m216.59 252.5h-17.14c-2.761 0-5-2.238-5-5v-34.65c0-2.761 2.239-5 5-5h17.14c2.761 0 5 2.239 5 5v34.65c0 2.762-2.239 5-5 5zm-12.14-10h7.14v-24.65h-7.14z"/><path d="m321.699 277.5h-123.389c-2.761 0-5-2.238-5-5s2.239-5 5-5h123.39c2.762 0 5 2.238 5 5s-2.239 5-5.001 5z"/><path d="m260 301.9c-24.227 0-47.349-9.145-65.105-25.748-19.315-18.028-30.395-43.453-30.395-69.752 0-52.659 42.841-95.5 95.5-95.5 52.658 0 95.5 42.841 95.5 95.5 0 26.294-11.076 51.718-30.388 69.754-17.755 16.602-40.879 25.746-65.112 25.746zm0-181c-47.145 0-85.5 38.355-85.5 85.5 0 23.538 9.922 46.297 27.221 62.445 15.901 14.869 36.597 23.055 58.279 23.055 21.688 0 42.387-8.187 58.285-23.053 17.296-16.153 27.215-38.914 27.215-62.448 0-47.144-38.355-85.499-85.5-85.499z"/><path d="m260 326.9c-66.444 0-120.5-54.057-120.5-120.5s54.056-120.5 120.5-120.5c66.443 0 120.5 54.056 120.5 120.5s-54.057 120.5-120.5 120.5zm0-231c-60.93 0-110.5 49.57-110.5 110.5s49.57 110.5 110.5 110.5 110.5-49.57 110.5-110.5-49.57-110.5-110.5-110.5z"/></g></g></svg>