<svg enable-background="new 0 0 520 520" height="512" viewBox="0 0 520 520" width="512" xmlns="http://www.w3.org/2000/svg"><g id="_x34_85_x2C__Bookmark_x2C__Favorite_x2C__Star_x2C__Tag"><g><path d="m452.5 157.5c15.189 0 27.5 12.31 27.5 27.5s-12.311 27.5-27.5 27.5c-15.18 0-27.5-12.31-27.5-27.5s12.32-27.5 27.5-27.5z" fill="#fb2b3a"/><path d="m60 327.5c11.05 0 20 8.95 20 20s-8.95 20-20 20c-11.04 0-20-8.95-20-20s8.96-20 20-20z" fill="#fb2b3a"/><path d="m120 67.5h260v40h-260z" fill="#bdf9ff"/><path d="m120 132.5h260v25h-260z" fill="#bdf9ff"/><path d="m444.57 242.79c3.979 1.13 6.289 5.29 5.149 9.27s-5.29 6.29-9.271 5.15c-3.989-1.14-6.289-5.29-5.16-9.27 1.142-3.98 5.292-6.29 9.282-5.15z"/><path d="m434.56 57.79c3.99 1.14 6.29 5.29 5.15 9.27-1.13 3.98-5.29 6.29-9.271 5.15-3.979-1.13-6.289-5.29-5.15-9.27 1.141-3.98 5.291-6.29 9.271-5.15z"/><path d="m424.57 382.79c3.979 1.14 6.289 5.29 5.149 9.27s-5.29 6.29-9.271 5.15c-3.989-1.13-6.289-5.29-5.16-9.27 1.142-3.98 5.292-6.29 9.282-5.15z"/><path d="m120 157.5v300l130-85 130 85v-300z" fill="#313a52"/><path d="m120 107.5h260v25h-260z" fill="#313a52"/><path d="m323.46 250.87-45.4 32.98 17.34 53.37-45.4-32.98-45.39 32.98 17.34-53.37-45.4-32.98h56.11l17.34-53.37 17.34 53.37z" fill="#ffd54f"/><path d="m274.57 437.79c3.979 1.13 6.289 5.29 5.149 9.27s-5.29 6.29-9.271 5.15c-3.989-1.14-6.289-5.29-5.16-9.27 1.142-3.98 5.292-6.29 9.282-5.15z"/><path d="m89.56 252.79c3.99 1.13 6.29 5.29 5.15 9.27-1.13 3.98-5.29 6.29-9.27 5.15s-6.29-5.29-5.15-9.27 5.29-6.29 9.27-5.15z"/><path d="m79.57 402.79c3.98 1.14 6.29 5.29 5.15 9.27s-5.29 6.29-9.27 5.15c-3.99-1.13-6.29-5.29-5.16-9.27 1.14-3.98 5.29-6.29 9.28-5.15z"/><path d="m64.56 92.79c3.99 1.13 6.29 5.29 5.15 9.27-1.13 3.98-5.29 6.29-9.27 5.15s-6.29-5.29-5.15-9.27 5.29-6.29 9.27-5.15z"/><path d="m204.61 342.22c-1.031 0-2.063-.318-2.939-.955-1.752-1.273-2.486-3.53-1.816-5.59l16.217-49.915-42.46-30.845c-1.753-1.273-2.486-3.53-1.817-5.59s2.589-3.455 4.755-3.455h52.477l16.218-49.915c.669-2.06 2.589-3.455 4.755-3.455s4.086 1.395 4.755 3.455l16.217 49.915h52.487c2.166 0 4.086 1.395 4.755 3.455.67 2.06-.063 4.317-1.816 5.59l-42.461 30.845 16.218 49.915c.669 2.06-.063 4.316-1.816 5.59-1.752 1.273-4.126 1.273-5.878 0l-42.461-30.844-42.452 30.844c-.875.636-1.907.955-2.938.955zm45.39-42.98c1.031 0 2.063.318 2.938.955l32.952 23.937-12.586-38.737c-.67-2.061.063-4.317 1.816-5.59l32.948-23.935h-40.728c-2.166 0-4.086-1.395-4.756-3.455l-12.584-38.734-12.585 38.734c-.669 2.06-2.589 3.455-4.755 3.455h-40.72l32.948 23.935c1.753 1.272 2.486 3.529 1.817 5.59l-12.585 38.734 32.941-23.934c.876-.636 1.908-.955 2.939-.955z"/><path d="m380 462.5c-.955 0-1.908-.273-2.736-.815l-127.264-83.211-127.264 83.211c-1.537 1.006-3.5 1.088-5.115.213-1.615-.873-2.621-2.562-2.621-4.397v-390c0-2.761 2.239-5 5-5h260c2.762 0 5 2.239 5 5v390c0 1.836-1.006 3.524-2.621 4.397-.744.402-1.563.602-2.379.602zm-130-95c.953 0 1.905.271 2.736.815l122.264 79.942v-375.757h-250v375.757l122.264-79.941c.831-.545 1.783-.816 2.736-.816z"/><path d="m380 112.5h-260c-2.761 0-5-2.239-5-5s2.239-5 5-5h260c2.762 0 5 2.239 5 5s-2.238 5-5 5z"/><path d="m380 137.5h-260c-2.761 0-5-2.239-5-5s2.239-5 5-5h260c2.762 0 5 2.239 5 5s-2.238 5-5 5z"/><path d="m380 162.5h-260c-2.761 0-5-2.239-5-5s2.239-5 5-5h260c2.762 0 5 2.239 5 5s-2.238 5-5 5z"/><path d="m60 372.5c-13.785 0-25-11.215-25-25s11.215-25 25-25 25 11.215 25 25-11.215 25-25 25zm0-40c-8.271 0-15 6.729-15 15s6.729 15 15 15 15-6.729 15-15-6.729-15-15-15z"/><path d="m452.5 217.5c-17.92 0-32.5-14.58-32.5-32.5s14.58-32.5 32.5-32.5 32.5 14.58 32.5 32.5-14.58 32.5-32.5 32.5zm0-55c-12.406 0-22.5 10.093-22.5 22.5s10.094 22.5 22.5 22.5 22.5-10.093 22.5-22.5-10.094-22.5-22.5-22.5z"/></g></g></svg>