<svg enable-background="new 0 0 520 520" height="512" viewBox="0 0 520 520" width="512" xmlns="http://www.w3.org/2000/svg"><g id="_x34_86_x2C__Configuration_x2C__Equalizer_x2C__Options_x2C__Preference_x2C__Slider_x2C_"><g><path d="m462.5 322.5c11.05 0 20 8.949 20 20 0 11.049-8.95 20-20 20-11.04 0-20-8.951-20-20 0-11.051 8.96-20 20-20z" fill="#4380a0"/><path d="m62.5 42.5c13.81 0 25 11.19 25 25s-11.19 25-25 25c-13.8 0-25-11.19-25-25s11.2-25 25-25z" fill="#4380a0"/><g fill="#bdf9ff"><path d="m95 372.5h52.61c-6.31 7.41-10.11 17.01-10.11 27.5s3.8 20.09 10.11 27.5h-52.61c-7.59 0-14.47-3.08-19.44-8.051-4.98-4.98-8.06-11.85-8.06-19.449 0-15.191 12.32-27.5 27.5-27.5z"/><path d="m444.449 380.549c4.971 4.98 8.051 11.852 8.051 19.451 0 15.189-12.311 27.5-27.5 27.5h-212.6c6.31-7.41 10.1-17.01 10.1-27.5s-3.79-20.09-10.1-27.5h212.6c7.59 0 14.47 3.08 19.449 8.049z"/><path d="m95 242.5h212.609c-6.31 7.41-10.109 17.01-10.109 27.5s3.8 20.09 10.109 27.5h-212.609c-15.18 0-27.5-12.311-27.5-27.5 0-7.601 3.08-14.471 8.06-19.451 4.97-4.969 11.85-8.049 19.44-8.049z"/><path d="m425 242.5c15.189 0 27.5 12.31 27.5 27.5 0 7.6-3.08 14.469-8.051 19.449-4.979 4.971-11.859 8.051-19.449 8.051h-52.6c6.31-7.41 10.1-17.01 10.1-27.5s-3.79-20.09-10.1-27.5z"/><path d="m444.449 120.549c4.971 4.98 8.051 11.85 8.051 19.45 0 15.19-12.311 27.5-27.5 27.5h-212.6c6.31-7.41 10.1-17.01 10.1-27.5s-3.79-20.09-10.1-27.5h212.6c7.59.001 14.47 3.081 19.449 8.05z"/><path d="m95 112.5h52.61c-6.31 7.41-10.11 17.01-10.11 27.5s3.8 20.09 10.11 27.5h-52.61c-7.59 0-14.47-3.08-19.44-8.05-4.98-4.98-8.06-11.85-8.06-19.45 0-15.19 12.32-27.5 27.5-27.5z"/></g><path d="m212.4 372.5c6.31 7.41 10.1 17.01 10.1 27.5s-3.79 20.09-10.1 27.5c-7.79 9.18-19.41 15-32.4 15-12.98 0-24.6-5.82-32.39-15-6.31-7.41-10.11-17.01-10.11-27.5s3.8-20.09 10.11-27.5c7.79-9.18 19.41-15 32.39-15 12.99 0 24.61 5.82 32.4 15z" fill="#ffd54f"/><path d="m372.4 242.5c6.31 7.41 10.1 17.01 10.1 27.5s-3.79 20.09-10.1 27.5c-7.791 9.18-19.41 15-32.4 15-12.98 0-24.6-5.82-32.391-15-6.31-7.41-10.109-17.01-10.109-27.5s3.8-20.09 10.109-27.5c7.791-9.18 19.41-15 32.391-15 12.99 0 24.609 5.819 32.4 15z" fill="#68ca44"/><path d="m212.4 112.5c6.31 7.41 10.1 17.01 10.1 27.5s-3.79 20.09-10.1 27.5c-7.79 9.18-19.41 15-32.4 15-12.98 0-24.6-5.82-32.39-15-6.31-7.41-10.11-17.01-10.11-27.5s3.8-20.09 10.11-27.5c7.79-9.18 19.41-15 32.39-15 12.99 0 24.61 5.819 32.4 15z" fill="#fb2b3a"/><path d="m457.07 77.79c3.979 1.14 6.289 5.29 5.149 9.27s-5.29 6.29-9.271 5.15c-3.989-1.13-6.289-5.29-5.16-9.27 1.142-3.981 5.292-6.291 9.282-5.15z"/><path d="m432.06 202.79c3.99 1.14 6.29 5.29 5.15 9.27-1.13 3.98-5.29 6.29-9.271 5.15-3.979-1.13-6.289-5.29-5.15-9.27 1.141-3.981 5.291-6.291 9.271-5.15z"/><path d="m332.06 467.789c3.99 1.131 6.29 5.291 5.15 9.27-1.13 3.98-5.29 6.291-9.271 5.15-3.979-1.139-6.289-5.289-5.15-9.27 1.141-3.98 5.291-6.289 9.271-5.15z"/><path d="m307.06 327.789c3.99 1.131 6.29 5.291 5.15 9.27-1.13 3.98-5.29 6.291-9.271 5.15-3.979-1.139-6.289-5.289-5.15-9.27 1.141-3.98 5.291-6.289 9.271-5.15z"/><path d="m297.07 52.79c3.979 1.14 6.289 5.29 5.149 9.27s-5.29 6.29-9.271 5.15c-3.989-1.13-6.289-5.29-5.16-9.27 1.142-3.981 5.292-6.291 9.282-5.15z"/><path d="m122.07 72.79c3.98 1.13 6.29 5.29 5.15 9.27s-5.29 6.29-9.27 5.15c-3.99-1.14-6.29-5.29-5.16-9.27 1.14-3.981 5.29-6.291 9.28-5.15z"/><path d="m107.07 332.789c3.98 1.131 6.29 5.291 5.15 9.27-1.14 3.98-5.29 6.291-9.27 5.15-3.99-1.139-6.29-5.289-5.16-9.27 1.14-3.98 5.29-6.289 9.28-5.15z"/><path d="m77.06 447.789c3.99 1.131 6.29 5.291 5.15 9.27-1.13 3.98-5.29 6.291-9.27 5.15-3.98-1.139-6.29-5.289-5.15-9.27 1.14-3.98 5.29-6.289 9.27-5.15z"/><path d="m67.07 187.79c3.98 1.13 6.29 5.29 5.15 9.27s-5.29 6.29-9.27 5.15c-3.99-1.14-6.29-5.29-5.16-9.27 1.14-3.981 5.29-6.291 9.28-5.15z"/><path d="m147.61 432.5h-52.61c-8.68 0-16.84-3.379-22.976-9.514-6.142-6.142-9.524-14.306-9.524-22.986 0-17.922 14.58-32.5 32.5-32.5h52.61c2.761 0 5 2.238 5 5s-2.239 5-5 5h-52.61c-12.407 0-22.5 10.094-22.5 22.5 0 6.01 2.342 11.66 6.595 15.914 4.247 4.246 9.896 6.586 15.905 6.586h52.61c2.761 0 5 2.238 5 5s-2.239 5-5 5z"/><path d="m425 432.5h-212.6c-2.761 0-5-2.238-5-5s2.239-5 5-5h212.6c12.406 0 22.5-10.094 22.5-22.5 0-6.008-2.34-11.66-6.59-15.918-4.25-4.242-9.903-6.582-15.91-6.582h-212.6c-2.761 0-5-2.238-5-5s2.239-5 5-5h212.6c8.674 0 16.836 3.377 22.981 9.51 6.141 6.154 9.519 14.316 9.519 22.99 0 17.92-14.58 32.5-32.5 32.5z"/><path d="m180 447.5c-13.966 0-27.161-6.111-36.203-16.766-7.283-8.552-11.297-19.47-11.297-30.734 0-11.266 4.014-22.182 11.303-30.742 9.036-10.649 22.231-16.758 36.197-16.758 13.972 0 27.171 6.109 36.212 16.764 7.277 8.547 11.288 19.465 11.288 30.736s-4.011 22.189-11.293 30.74c-9.036 10.649-22.235 16.76-36.207 16.76zm0-85c-11.024 0-21.44 4.824-28.578 13.234-5.756 6.76-8.922 15.375-8.922 24.266s3.167 17.506 8.917 24.258c7.144 8.418 17.56 13.242 28.583 13.242 11.03 0 21.45-4.824 28.587-13.236 5.75-6.75 8.913-15.365 8.913-24.264s-3.163-17.514-8.907-24.26c-7.143-8.416-17.563-13.24-28.593-13.24z"/><path d="m202.5 405c-2.761 0-5-2.238-5-5 0-9.65-7.851-17.5-17.5-17.5-2.761 0-5-2.238-5-5s2.239-5 5-5c15.164 0 27.5 12.336 27.5 27.5 0 2.762-2.239 5-5 5z"/><path d="m425 302.5h-52.6c-2.762 0-5-2.238-5-5s2.238-5 5-5h52.6c6.007 0 11.66-2.34 15.918-6.59 4.242-4.25 6.582-9.904 6.582-15.91 0-12.407-10.094-22.5-22.5-22.5h-52.6c-2.762 0-5-2.239-5-5s2.238-5 5-5h52.6c17.92 0 32.5 14.58 32.5 32.5 0 8.674-3.378 16.836-9.512 22.982-6.152 6.139-14.314 9.518-22.988 9.518z"/><path d="m307.609 302.5h-212.609c-17.92 0-32.5-14.58-32.5-32.5 0-8.682 3.382-16.845 9.524-22.986 6.136-6.136 14.296-9.514 22.976-9.514h212.609c2.762 0 5 2.239 5 5s-2.238 5-5 5h-212.609c-6.009 0-11.658 2.339-15.905 6.585-4.253 4.253-6.595 9.905-6.595 15.915 0 12.406 10.093 22.5 22.5 22.5h212.609c2.762 0 5 2.238 5 5s-2.238 5-5 5z"/><path d="m340 317.5c-13.966 0-27.161-6.111-36.203-16.766-7.283-8.552-11.297-19.47-11.297-30.734 0-11.266 4.014-22.183 11.303-30.742 9.035-10.648 22.23-16.758 36.197-16.758 13.973 0 27.172 6.11 36.213 16.765 7.276 8.545 11.287 19.463 11.287 30.735 0 11.271-4.011 22.189-11.293 30.74-9.036 10.649-22.234 16.76-36.207 16.76zm0-85c-11.023 0-21.44 4.824-28.578 13.235-5.756 6.759-8.922 15.375-8.922 24.266s3.166 17.506 8.916 24.258c7.145 8.418 17.561 13.242 28.584 13.242 11.029 0 21.449-4.824 28.588-13.236 5.749-6.75 8.912-15.365 8.912-24.264s-3.163-17.514-8.906-24.259c-7.144-8.418-17.564-13.242-28.594-13.242z"/><path d="m362.5 275c-2.762 0-5-2.238-5-5 0-9.65-7.851-17.5-17.5-17.5-2.762 0-5-2.239-5-5s2.238-5 5-5c15.164 0 27.5 12.336 27.5 27.5 0 2.762-2.238 5-5 5z"/><path d="m147.61 172.5h-52.61c-8.68 0-16.84-3.379-22.976-9.514-6.142-6.142-9.524-14.305-9.524-22.986 0-17.92 14.58-32.5 32.5-32.5h52.61c2.761 0 5 2.239 5 5s-2.239 5-5 5h-52.61c-12.407 0-22.5 10.093-22.5 22.5 0 6.01 2.342 11.662 6.595 15.915 4.247 4.247 9.896 6.585 15.905 6.585h52.61c2.761 0 5 2.239 5 5s-2.239 5-5 5z"/><path d="m425 172.5h-212.6c-2.761 0-5-2.239-5-5s2.239-5 5-5h212.6c12.406 0 22.5-10.093 22.5-22.5 0-6.007-2.34-11.661-6.59-15.918-4.25-4.242-9.903-6.582-15.91-6.582h-212.6c-2.761 0-5-2.239-5-5s2.239-5 5-5h212.6c8.674 0 16.836 3.377 22.981 9.511 6.141 6.152 9.519 14.314 9.519 22.989 0 17.92-14.58 32.5-32.5 32.5z"/><path d="m180 187.5c-13.966 0-27.162-6.11-36.203-16.765-7.283-8.553-11.297-19.47-11.297-30.735s4.014-22.182 11.303-30.742c9.035-10.648 22.231-16.758 36.197-16.758 13.973 0 27.171 6.11 36.212 16.765 7.277 8.545 11.288 19.463 11.288 30.735s-4.011 22.189-11.293 30.742c-9.036 10.647-22.234 16.758-36.207 16.758zm0-85c-11.024 0-21.44 4.824-28.578 13.235-5.756 6.759-8.922 15.375-8.922 24.265s3.167 17.506 8.917 24.258c7.143 8.417 17.56 13.242 28.583 13.242 11.03 0 21.45-4.824 28.587-13.235 5.75-6.752 8.913-15.367 8.913-24.265s-3.163-17.513-8.907-24.258c-7.143-8.418-17.563-13.242-28.593-13.242z"/><path d="m202.5 145c-2.761 0-5-2.239-5-5 0-9.649-7.851-17.5-17.5-17.5-2.761 0-5-2.239-5-5s2.239-5 5-5c15.164 0 27.5 12.336 27.5 27.5 0 2.761-2.239 5-5 5z"/><path d="m462.5 367.5c-13.785 0-25-11.215-25-25s11.215-25 25-25 25 11.215 25 25-11.215 25-25 25zm0-40c-8.271 0-15 6.729-15 15s6.729 15 15 15 15-6.729 15-15-6.729-15-15-15z"/><path d="m62.5 97.5c-16.542 0-30-13.458-30-30s13.458-30 30-30 30 13.458 30 30-13.458 30-30 30zm0-50c-11.028 0-20 8.972-20 20s8.972 20 20 20 20-8.972 20-20-8.972-20-20-20z"/></g></g></svg>