<svg enable-background="new 0 0 520 520" height="512" viewBox="0 0 520 520" width="512" xmlns="http://www.w3.org/2000/svg"><g id="_x34_88_x2C__Book_x2C__Directory_x2C__Phone_x2C__Phone_Book"><g><path d="m456.906 107.57c15.16 1.05 26.58 14.19 25.529 29.34-1.06 15.15-14.189 26.58-29.35 25.52-15.15-1.05-26.57-14.19-25.52-29.34 1.061-15.15 14.191-26.58 29.341-25.52z" fill="#4380a0"/><path d="m57.496 357.5c11.05 0 20 8.95 20 20s-8.95 20-20 20c-11.04 0-20-8.95-20-20s8.96-20 20-20z" fill="#4380a0"/><path d="m382.496 432.5v25h-55-60-135c-19.33 0-35-15.67-35-35 0-1.7.12-3.37.35-5h.01c1.09-7.66 4.67-14.53 9.89-19.75 6.34-6.33 15.08-10.25 24.75-10.25h25 225v25z" fill="#757d8c"/><path d="m157.496 127.5v260h-25c-9.67 0-18.41 3.92-24.75 10.25-5.22 5.22-8.8 12.09-9.89 19.75h-.01-.35v-283c0-31.48 25.52-57 57-57h3z" fill="#cfe0e9"/><path d="m157.496 77.5h240v50h-240z" fill="#8c9fb0"/><path d="m157.496 127.5v260h225 15v-95.2-139.6-25.2z" fill="#abbfcf"/><path d="m325.506 294.31-5.07 5.07c-4.75 4.74-10.97 7.12-17.189 7.12-6.221 0-12.44-2.38-17.19-7.12l-86.44-86.44c-9.49-9.49-9.49-24.88 0-34.38l5.07-5.06 39.74 39.74 41.33 41.33z" fill="#4aa525"/><path d="m329.846 260.5c8.141 8.14 8.141 21.33 0 29.47l-4.34 4.34-39.75-39.74 4.35-4.34c8.131-8.14 21.33-8.14 29.461 0z" fill="#68ca44"/><path d="m248.766 179.43c8.14 8.14 8.14 21.33 0 29.47l-4.34 4.34-39.74-39.74 4.34-4.34c8.14-8.14 21.33-8.14 29.47 0z" fill="#68ca44"/><path d="m454.996 192.5c4.15 0 7.5 3.36 7.5 7.5s-3.35 7.5-7.5 7.5c-4.141 0-7.5-3.36-7.5-7.5s3.359-7.5 7.5-7.5z"/><path d="m454.996 417.5c4.15 0 7.5 3.36 7.5 7.5s-3.35 7.5-7.5 7.5c-4.141 0-7.5-3.36-7.5-7.5s3.359-7.5 7.5-7.5z"/><path d="m424.996 52.5c4.15 0 7.5 3.36 7.5 7.5s-3.35 7.5-7.5 7.5c-4.141 0-7.5-3.36-7.5-7.5s3.359-7.5 7.5-7.5z"/><path d="m424.996 292.5c4.15 0 7.5 3.36 7.5 7.5s-3.35 7.5-7.5 7.5c-4.141 0-7.5-3.36-7.5-7.5s3.359-7.5 7.5-7.5z"/><path d="m79.996 452.5c4.15 0 7.5 3.36 7.5 7.5s-3.35 7.5-7.5 7.5c-4.14 0-7.5-3.36-7.5-7.5s3.36-7.5 7.5-7.5z"/><path d="m54.996 212.5c4.15 0 7.5 3.36 7.5 7.5s-3.35 7.5-7.5 7.5c-4.14 0-7.5-3.36-7.5-7.5s3.36-7.5 7.5-7.5z"/><path d="m44.996 57.5c4.15 0 7.5 3.36 7.5 7.5s-3.35 7.5-7.5 7.5c-4.14 0-7.5-3.36-7.5-7.5s3.36-7.5 7.5-7.5z"/><path d="m97.846 422.5h-.35c-2.761 0-5-2.238-5-5v-283c0-34.187 27.813-62 62-62h243c2.762 0 5 2.239 5 5v310c0 2.762-2.238 5-5 5s-5-2.238-5-5v-305h-238c-28.673 0-52 23.327-52 52v281.159c.226.57.35 1.19.35 1.841 0 2.762-2.239 5-5 5z"/><path d="m397.496 462.5h-265c-22.056 0-40-17.944-40-40 0-1.906.134-3.824.398-5.698.017-.116.037-.231.061-.344 1.264-8.354 5.252-16.241 11.255-22.244 7.566-7.555 17.611-11.714 28.285-11.714h265c2.762 0 5 2.238 5 5s-2.238 5-5 5h-265c-8.006 0-15.541 3.121-21.217 8.788-4.625 4.626-7.557 10.476-8.473 16.916-.014.097-.03.192-.049.287-.173 1.32-.261 2.667-.261 4.009 0 16.542 13.458 30 30 30h265c2.762 0 5 2.238 5 5s-2.237 5-4.999 5z"/><path d="m157.496 392.5c-2.761 0-5-2.238-5-5v-310c0-2.761 2.239-5 5-5s5 2.239 5 5v310c0 2.762-2.239 5-5 5z"/><path d="m397.496 132.5h-240c-2.761 0-5-2.239-5-5s2.239-5 5-5h240c2.762 0 5 2.239 5 5s-2.238 5-5 5z"/><path d="m336.496 311.5h-150c-2.761 0-5-2.238-5-5s2.239-5 5-5h150c2.762 0 5 2.238 5 5s-2.238 5-5 5z"/><path d="m336.496 331.5h-150c-2.761 0-5-2.238-5-5s2.239-5 5-5h150c2.762 0 5 2.238 5 5s-2.238 5-5 5z"/><path d="m301.496 351.5h-115c-2.761 0-5-2.238-5-5s2.239-5 5-5h115c2.762 0 5 2.238 5 5s-2.238 5-5 5z"/><path d="m382.496 462.5c-2.762 0-5-2.238-5-5v-70c0-2.762 2.238-5 5-5s5 2.238 5 5v70c0 2.762-2.238 5-5 5z"/><path d="m303.246 311.5c-7.818 0-15.178-3.048-20.723-8.581l-86.443-86.443c-11.422-11.422-11.423-30.016-.002-41.449l5.076-5.065c1.953-1.95 5.116-1.947 7.067.003l120.819 120.809c.938.938 1.465 2.21 1.465 3.536s-.527 2.598-1.465 3.535l-5.069 5.07c-5.548 5.537-12.907 8.585-20.725 8.585zm-98.563-130.933-1.535 1.532c-7.521 7.529-7.521 19.78.004 27.305l86.44 86.44c3.652 3.646 8.504 5.655 13.654 5.655s10.001-2.01 13.658-5.659l1.53-1.53z"/><path d="m244.426 218.24c-1.28 0-2.559-.488-3.535-1.464-1.953-1.953-1.953-5.118 0-7.071l4.34-4.34c2.993-2.993 4.641-6.97 4.641-11.2s-1.648-8.207-4.641-11.199l-10.27-10.27c-6.176-6.176-16.225-6.176-22.399 0l-4.34 4.34c-1.953 1.952-5.118 1.952-7.071 0-1.953-1.953-1.953-5.119 0-7.071l4.34-4.34c10.074-10.075 26.467-10.074 36.542 0l10.27 10.27c4.881 4.881 7.57 11.37 7.57 18.271 0 6.9-2.688 13.389-7.57 18.271l-4.34 4.34c-.978.975-2.257 1.463-3.537 1.463z"/><path d="m325.506 299.31c-1.279 0-2.559-.488-3.535-1.465-1.953-1.952-1.953-5.118 0-7.07l4.34-4.34c2.992-2.993 4.641-6.97 4.641-11.2 0-4.229-1.648-8.206-4.641-11.199l-10.278-10.268c-2.991-2.995-6.966-4.642-11.196-4.642s-8.205 1.647-11.192 4.638l-4.356 4.346c-1.953 1.951-5.12 1.947-7.07-.008-1.951-1.955-1.947-5.121.008-7.071l4.35-4.34c4.871-4.876 11.358-7.565 18.262-7.565s13.391 2.689 18.268 7.572l10.275 10.266c4.884 4.883 7.572 11.371 7.572 18.271 0 6.901-2.688 13.39-7.57 18.271l-4.34 4.34c-.98.975-2.259 1.464-3.538 1.464z"/><path d="m397.496 157.7c-.004 0-.006 0-.01 0l-105-.2c-2.762-.005-4.996-2.248-4.99-5.01.006-2.758 2.243-4.99 5-4.99h.01l105 .2c2.762.005 4.996 2.248 4.99 5.01-.006 2.758-2.243 4.99-5 4.99z"/><path d="m382.496 417.5h-220c-2.761 0-5-2.238-5-5s2.239-5 5-5h220c2.762 0 5 2.238 5 5s-2.238 5-5 5z"/><path d="m382.496 437.5h-220c-2.761 0-5-2.238-5-5s2.239-5 5-5h220c2.762 0 5 2.238 5 5s-2.238 5-5 5z"/><path d="m57.496 402.5c-13.785 0-25-11.215-25-25s11.215-25 25-25 25 11.215 25 25-11.215 25-25 25zm0-40c-8.271 0-15 6.729-15 15s6.729 15 15 15 15-6.729 15-15-6.729-15-15-15z"/><path d="m455.033 167.499c-.762 0-1.533-.027-2.296-.081-17.868-1.239-31.399-16.793-30.159-34.674 1.187-16.96 15.41-30.243 32.381-30.243.762 0 1.533.027 2.296.081 8.66.6 16.569 4.538 22.267 11.089 5.696 6.548 8.503 14.924 7.902 23.585-1.187 16.96-15.414 30.243-32.391 30.243zm-.074-54.998c-11.742 0-21.584 9.197-22.405 20.938-.858 12.376 8.508 23.146 20.878 24.003.534.037 1.072.056 1.602.056 11.748 0 21.594-9.197 22.415-20.938.415-5.994-1.528-11.793-5.472-16.327-3.943-4.535-9.419-7.261-15.416-7.676-.536-.036-1.073-.056-1.602-.056z"/></g></g></svg>