<svg enable-background="new 0 0 520 520" height="512" viewBox="0 0 520 520" width="512" xmlns="http://www.w3.org/2000/svg"><g id="_x34_89_x2C__Arrow_x2C__Goal_x2C__Target"><g><path d="m379.449 155.56h-.01c-69.9-69.9-183.209-69.9-253.11 0-69.9 69.89-69.9 183.22 0 253.11 69.9 69.9 183.22 69.9 253.12 0 69.891-69.89 69.891-183.22 0-253.11z" fill="#fb2b3a"/><path d="m345.949 189.06h-.01c-51.4-51.4-134.72-51.4-186.11 0-51.39 51.39-51.39 134.72 0 186.11 51.39 51.4 134.72 51.4 186.12 0 51.391-51.39 51.391-134.72 0-186.11z" fill="#ecebed"/><path d="m312.439 222.56c-32.89-32.89-86.22-32.89-119.11 0s-32.89 86.22 0 119.11c32.89 32.9 86.22 32.9 119.11 0 32.901-32.89 32.901-86.22 0-119.11z" fill="#fb2b3a"/><path d="m72.5 422.5c13.81 0 25 11.19 25 25s-11.19 25-25 25c-13.8 0-25-11.19-25-25s11.2-25 25-25z" fill="#4380a0"/><path d="m102.5 52.5c16.57 0 30 13.43 30 30s-13.43 30-30 30c-16.56 0-30-13.43-30-30s13.44-30 30-30z" fill="#4380a0"/><path d="m472.5 99.72-40.94 40.95-40.951 3.72 40.951-40.94z" fill="#232b3f"/><path d="m435.279 62.5-3.719 40.95-40.951 40.94 3.731-40.94z" fill="#313a52"/><path d="m282.659 252.34h.011c16.439 16.44 16.439 43.11 0 59.55-16.45 16.45-43.11 16.45-59.56 0-16.45-16.439-16.45-43.109 0-59.55 16.45-16.45 43.1-16.45 59.549 0z" fill="#ecebed"/><path d="m470 362.5c4.149 0 7.5 3.36 7.5 7.5s-3.351 7.5-7.5 7.5c-4.141 0-7.5-3.36-7.5-7.5s3.359-7.5 7.5-7.5z"/><path d="m465 192.5c4.149 0 7.5 3.36 7.5 7.5s-3.351 7.5-7.5 7.5c-4.141 0-7.5-3.36-7.5-7.5s3.359-7.5 7.5-7.5z"/><path d="m380 62.5c4.149 0 7.5 3.36 7.5 7.5s-3.351 7.5-7.5 7.5c-4.141 0-7.5-3.36-7.5-7.5s3.359-7.5 7.5-7.5z"/><path d="m375 457.5c4.149 0 7.5 3.36 7.5 7.5s-3.351 7.5-7.5 7.5c-4.141 0-7.5-3.36-7.5-7.5s3.359-7.5 7.5-7.5z"/><path d="m175 42.5c4.15 0 7.5 3.36 7.5 7.5s-3.35 7.5-7.5 7.5c-4.14 0-7.5-3.36-7.5-7.5s3.36-7.5 7.5-7.5z"/><path d="m165 462.5c4.15 0 7.5 3.36 7.5 7.5s-3.35 7.5-7.5 7.5c-4.14 0-7.5-3.36-7.5-7.5s3.36-7.5 7.5-7.5z"/><path d="m65 167.5c4.15 0 7.5 3.36 7.5 7.5s-3.35 7.5-7.5 7.5c-4.14 0-7.5-3.36-7.5-7.5s3.36-7.5 7.5-7.5z"/><path d="m50 342.5c4.15 0 7.5 3.36 7.5 7.5s-3.35 7.5-7.5 7.5c-4.14 0-7.5-3.36-7.5-7.5s3.36-7.5 7.5-7.5z"/><path d="m252.89 329.228c-12.583 0-24.415-4.902-33.315-13.803-8.9-8.894-13.802-20.724-13.802-33.31s4.902-24.416 13.803-33.312c18.301-18.301 48.039-18.365 66.422-.196.07.063.141.129.208.197 8.895 8.896 13.794 20.726 13.794 33.311s-4.899 24.415-13.795 33.31c-8.9 8.9-20.732 13.803-33.315 13.803zm-.005-84.226c-9.909 0-19.228 3.861-26.239 10.873-7.012 7.007-10.873 16.327-10.873 26.24s3.861 19.231 10.872 26.237c7.013 7.014 16.333 10.875 26.246 10.875 9.912 0 19.232-3.861 26.244-10.873 7.007-7.007 10.866-16.325 10.866-26.239 0-9.831-3.795-19.076-10.69-26.063-.063-.057-.125-.116-.186-.176-7.013-7.012-16.331-10.874-26.24-10.874z"/><path d="m252.885 371.346c-23.833 0-46.24-9.284-63.091-26.141-34.787-34.787-34.787-91.392 0-126.181 16.852-16.852 39.258-26.132 63.091-26.132s46.239 9.28 63.091 26.132c16.855 16.851 26.139 39.257 26.139 63.091 0 23.833-9.283 46.239-26.14 63.091-16.851 16.856-39.257 26.14-63.09 26.14zm0-168.453c-21.162 0-41.057 8.24-56.02 23.203-30.889 30.889-30.889 81.149 0 112.039 14.963 14.968 34.858 23.211 56.02 23.211 21.161 0 41.056-8.243 56.019-23.211 14.969-14.964 23.211-34.857 23.211-56.02s-8.242-41.057-23.21-56.019c-14.964-14.963-34.858-23.203-56.02-23.203z"/><path d="m252.886 418.721c-36.49 0-70.793-14.212-96.593-40.016-53.259-53.26-53.259-139.92 0-193.181 25.799-25.803 60.101-40.014 96.587-40.014 36.399 0 70.626 14.142 96.408 39.829.066.06.132.122.196.186 25.799 25.799 40.007 60.102 40.007 96.591 0 36.488-14.208 70.791-40.007 96.59-25.802 25.804-60.109 40.015-96.598 40.015zm-.005-263.211c-33.815 0-65.605 13.17-89.516 37.085-49.361 49.362-49.361 129.678 0 179.04 23.911 23.915 55.703 37.086 89.521 37.086s65.613-13.171 89.528-37.086c23.91-23.91 37.078-55.702 37.078-89.52 0-33.733-13.104-65.451-36.899-89.341-.064-.058-.127-.117-.188-.179-23.916-23.914-55.71-37.085-89.524-37.085z"/><path d="m252.89 466.096c-49.142 0-95.344-19.139-130.096-53.891-34.751-34.745-53.889-80.946-53.889-130.09s19.138-95.345 53.89-130.091c71.67-71.67 188.249-71.732 259.996-.185.066.06.131.121.195.185 34.746 34.747 53.882 80.947 53.882 130.091s-19.136 95.344-53.882 130.09c-34.752 34.752-80.954 53.891-130.096 53.891zm-.005-357.875c-44.551 0-89.103 16.958-123.02 50.875-32.862 32.858-50.96 76.547-50.96 123.02s18.098 90.161 50.96 123.019c32.863 32.863 76.554 50.962 123.025 50.962s90.162-18.099 123.024-50.961c32.857-32.857 50.953-76.547 50.953-123.02 0-46.388-18.029-90.002-50.773-122.839-.064-.058-.128-.118-.189-.18-33.918-33.918-78.469-50.876-123.02-50.876z"/><path d="m256.61 283.39c-1.28 0-2.559-.488-3.536-1.465-1.953-1.952-1.953-5.118 0-7.07l26.05-26.05c.063-.063.128-.125.195-.185l63.085-63.095c.062-.062.125-.122.189-.18l33.31-33.319c.063-.062.125-.122.189-.18l10.979-10.989c1.952-1.954 5.117-1.956 7.071-.003 1.953 1.952 1.955 5.118.003 7.071l-11.16 11.17c-.063.063-.126.123-.191.182l-33.31 33.319c-.063.062-.126.123-.191.181l-63.088 63.099c-.064.063-.129.125-.196.186l-25.864 25.864c-.976.975-2.255 1.464-3.535 1.464z"/><path d="m390.615 149.391c-.152 0-.305-.007-.459-.021-2.75-.25-4.776-2.683-4.526-5.433l3.73-40.94c.105-1.165.616-2.255 1.443-3.082l40.939-40.95c1.489-1.489 3.751-1.886 5.656-.993 1.907.893 3.05 2.884 2.859 4.98l-3.72 40.95c-.25 2.75-2.688 4.783-5.432 4.527-2.751-.25-4.777-2.682-4.527-5.432l2.471-27.195-29.896 29.903-3.566 39.138c-.234 2.596-2.415 4.548-4.972 4.548z"/><path d="m390.607 149.39c-1.925 0-3.698-1.111-4.526-2.88-.893-1.906-.495-4.167.993-5.656l40.95-40.94c.826-.827 1.917-1.337 3.081-1.443l40.94-3.73c2.092-.188 4.088.952 4.981 2.858s.497 4.168-.991 5.657l-40.94 40.95c-.828.827-1.919 1.338-3.084 1.444l-40.95 3.72c-.151.013-.302.02-.454.02zm43.207-41.124-29.902 29.896 25.392-2.307 29.895-29.902z"/><path d="m72.5 477.5c-16.542 0-30-13.458-30-30s13.458-30 30-30 30 13.458 30 30-13.458 30-30 30zm0-50c-11.028 0-20 8.972-20 20s8.972 20 20 20 20-8.972 20-20-8.972-20-20-20z"/><path d="m102.5 117.5c-19.299 0-35-15.701-35-35s15.701-35 35-35 35 15.701 35 35-15.701 35-35 35zm0-60c-13.785 0-25 11.215-25 25s11.215 25 25 25 25-11.215 25-25-11.215-25-25-25z"/></g></g></svg>