<svg enable-background="new 0 0 520 520" height="512" viewBox="0 0 520 520" width="512" xmlns="http://www.w3.org/2000/svg"><g id="_x34_90_x2C__Eye_x2C__Eyeball_x2C__View"><g><path d="m434.995 90c11.05 0 20 8.95 20 20s-8.95 20-20 20c-11.04 0-20-8.95-20-20s8.96-20 20-20z" fill="#4380a0"/><path d="m99.995 400c16.57 0 30 13.43 30 30s-13.43 30-30 30c-16.56 0-30-13.43-30-30s13.44-30 30-30z" fill="#4380a0"/><path d="m259.995 124.67c-97.99 0-183.2 54.75-226.7 135.33 43.5 80.58 128.71 135.33 226.7 135.33 98 0 183.2-54.75 226.71-135.33-43.51-80.58-128.71-135.33-226.71-135.33z" fill="#57606f"/><circle cx="259.995" cy="260" fill="#8cf2ff" r="105"/><path d="m259.995 188.16c-39.67 0-71.84 32.16-71.84 71.84s32.17 71.84 71.84 71.84c39.68 0 71.85-32.16 71.85-71.84s-32.17-71.84-71.85-71.84z" fill="#bdf9ff"/><path d="m293.605 244.9c2.069 4.61 3.239 9.72 3.239 15.1 0 20.35-16.5 36.84-36.85 36.84-20.34 0-36.84-16.49-36.84-36.84s16.5-36.84 36.84-36.84c2.52 0 4.989.25 7.36.74-2.601 2.96-4.201 6.84-4.201 11.1 0 9.3 7.541 16.84 16.841 16.84 5.601 0 10.551-2.74 13.611-6.94z" fill="#26c6da"/><path d="m457.495 365c4.149 0 7.5 3.36 7.5 7.5s-3.351 7.5-7.5 7.5c-4.14 0-7.5-3.36-7.5-7.5s3.36-7.5 7.5-7.5z"/><path d="m377.495 55c4.149 0 7.5 3.36 7.5 7.5s-3.351 7.5-7.5 7.5c-4.14 0-7.5-3.36-7.5-7.5s3.36-7.5 7.5-7.5z"/><path d="m337.495 445c4.149 0 7.5 3.36 7.5 7.5s-3.351 7.5-7.5 7.5c-4.14 0-7.5-3.36-7.5-7.5s3.36-7.5 7.5-7.5z"/><path d="m207.495 75c4.15 0 7.5 3.36 7.5 7.5s-3.35 7.5-7.5 7.5c-4.14 0-7.5-3.36-7.5-7.5s3.36-7.5 7.5-7.5z"/><path d="m182.495 415c4.15 0 7.5 3.36 7.5 7.5s-3.35 7.5-7.5 7.5c-4.14 0-7.5-3.36-7.5-7.5s3.36-7.5 7.5-7.5z"/><path d="m62.495 65c4.15 0 7.5 3.36 7.5 7.5s-3.35 7.5-7.5 7.5c-4.14 0-7.5-3.36-7.5-7.5s3.36-7.5 7.5-7.5z"/><path d="m37.495 345c4.15 0 7.5 3.36 7.5 7.5s-3.35 7.5-7.5 7.5c-4.14 0-7.5-3.36-7.5-7.5s3.36-7.5 7.5-7.5z"/><path d="m259.995 370c-60.654 0-110-49.346-110-110s49.346-110 110-110 110 49.346 110 110-49.346 110-110 110zm0-210c-55.14 0-100 44.86-100 100 0 55.141 44.86 100 100 100s100-44.859 100-100c0-55.14-44.86-100-100-100z"/><path d="m259.995 336.84c-42.37 0-76.84-34.47-76.84-76.84s34.47-76.84 76.84-76.84c42.375 0 76.85 34.47 76.85 76.84s-34.475 76.84-76.85 76.84zm0-143.68c-36.856 0-66.84 29.984-66.84 66.84s29.984 66.84 66.84 66.84c36.86 0 66.85-29.984 66.85-66.84s-29.99-66.84-66.85-66.84z"/><path d="m259.995 301.84c-23.071 0-41.84-18.77-41.84-41.84 0-23.071 18.77-41.84 41.84-41.84 2.847 0 5.664.284 8.372.843 1.743.36 3.164 1.621 3.729 3.309.566 1.688.191 3.55-.984 4.888-1.906 2.17-2.957 4.941-2.957 7.8 0 6.528 5.313 11.84 11.841 11.84 3.819 0 7.308-1.78 9.569-4.884 1.049-1.441 2.787-2.216 4.559-2.029 1.773.185 3.313 1.299 4.043 2.925 2.441 5.436 3.679 11.206 3.679 17.148-.001 23.07-18.775 41.84-41.851 41.84zm-.737-73.672c-17.218.394-31.103 14.521-31.103 31.832 0 17.557 14.284 31.84 31.84 31.84 17.562 0 31.85-14.283 31.85-31.84 0-2.128-.209-4.227-.624-6.285-3.354 2.014-7.232 3.125-11.226 3.125-12.043 0-21.841-9.797-21.841-21.84 0-2.339.379-4.643 1.104-6.832z"/><path d="m259.995 400.33c-96.611 0-185.164-52.861-231.1-137.955-.8-1.482-.8-3.268 0-4.75 45.937-85.094 134.489-137.955 231.1-137.955 96.606 0 185.162 52.861 231.109 137.954.801 1.483.801 3.269 0 4.752-45.947 85.093-134.502 137.954-231.109 137.954zm-221.002-140.33c44.545 80.464 128.973 130.33 221.002 130.33 92.024 0 176.456-49.866 221.011-130.33-44.555-80.464-128.986-130.33-221.011-130.33-92.029 0-176.457 49.867-221.002 130.33z"/><path d="m99.995 465c-19.299 0-35-15.701-35-35s15.701-35 35-35 35 15.701 35 35-15.701 35-35 35zm0-60c-13.785 0-25 11.215-25 25s11.215 25 25 25 25-11.215 25-25-11.215-25-25-25z"/><path d="m434.995 135c-13.785 0-25-11.215-25-25s11.215-25 25-25 25 11.215 25 25-11.215 25-25 25zm0-40c-8.271 0-15 6.729-15 15s6.729 15 15 15 15-6.729 15-15-6.729-15-15-15z"/></g></g></svg>