<svg enable-background="new 0 0 520 520" height="512" viewBox="0 0 520 520" width="512" xmlns="http://www.w3.org/2000/svg"><g id="_x34_91_x2C__Mobile_x2C__Network_x2C__Wifi"><g><path d="m257.5 440c8.289 0 15 6.72 15 15s-6.711 15-15 15c-8.28 0-15-6.72-15-15s6.72-15 15-15z" fill="#cfe0e9"/><path d="m387.5 70.33v14.67h-178.4-81.6v-14.67c0-22.27 18.06-40.33 40.34-40.33h179.33c22.279 0 40.33 18.06 40.33 40.33z" fill="#57606f"/><path d="m305.91 420h-178.41v29.67c0 22.271 18.06 40.33 40.34 40.33h179.33c22.279 0 40.33-18.06 40.33-40.33v-29.67z" fill="#57606f"/><path d="m127.5 85v335h260c0-18.754 0-315.756 0-335-15.844 0-245.159 0-260 0z" fill="#ecebed"/><path d="m387.5 338.41v81.59h-81.59z" fill="#bcb7c6"/><path d="m209.1 85-81.6 81.59v-6.51-75.08z" fill="#bcb7c6"/><circle cx="447.5" cy="195" fill="#4380a0" r="35"/><path d="m450 75c4.15 0 7.5 3.36 7.5 7.5s-3.35 7.5-7.5 7.5c-4.141 0-7.5-3.36-7.5-7.5s3.359-7.5 7.5-7.5z"/><path d="m435 425c4.15 0 7.5 3.36 7.5 7.5s-3.35 7.5-7.5 7.5c-4.141 0-7.5-3.36-7.5-7.5s3.359-7.5 7.5-7.5z"/><path d="m420 265c4.15 0 7.5 3.36 7.5 7.5s-3.35 7.5-7.5 7.5c-4.141 0-7.5-3.36-7.5-7.5s3.359-7.5 7.5-7.5z"/><g fill="#26c6da"><path d="m340 205.66c4.5 3.81 4.76 10.67.59 14.84l-.21.21c-3.74 3.74-9.7 3.93-13.74.52-40.62-34.29-100.33-34.29-140.95 0-4.04 3.41-10 3.22-13.74-.52l-.21-.21c-4.17-4.17-3.91-11.03.59-14.84 48.29-40.88 119.38-40.88 167.67 0z"/><path d="m310.46 234.52c4.819 3.73 5.26 10.84.96 15.15l-.21.21c-3.591 3.59-9.29 3.97-13.3.87-24.521-18.95-58.97-18.95-83.49 0-4.01 3.1-9.71 2.72-13.3-.87l-.21-.21c-4.3-4.31-3.86-11.42.96-15.15 31.89-24.66 76.7-24.66 108.59 0z"/><path d="m279.779 263.27c5.791 3.29 6.82 11.211 2.11 15.921l-.21.22c-3.18 3.17-8.1 3.939-12.01 1.72-8.35-4.75-18.66-4.75-27.01 0-3.91 2.22-8.83 1.45-12.01-1.72l-.21-.22c-4.71-4.71-3.68-12.631 2.11-15.921 14.601-8.29 32.631-8.29 47.23 0z"/></g><path d="m95 190c4.15 0 7.5 3.36 7.5 7.5s-3.35 7.5-7.5 7.5c-4.14 0-7.5-3.36-7.5-7.5s3.36-7.5 7.5-7.5z"/><path d="m80 405c4.15 0 7.5 3.36 7.5 7.5s-3.35 7.5-7.5 7.5c-4.14 0-7.5-3.36-7.5-7.5s3.36-7.5 7.5-7.5z"/><path d="m60 295c12.43 0 22.5 10.07 22.5 22.5s-10.07 22.5-22.5 22.5c-12.42 0-22.5-10.07-22.5-22.5s10.08-22.5 22.5-22.5z" fill="#4380a0"/><path d="m60 65c4.15 0 7.5 3.36 7.5 7.5s-3.35 7.5-7.5 7.5c-4.14 0-7.5-3.36-7.5-7.5s3.36-7.5 7.5-7.5z"/><path d="m257.5 475c-11.028 0-20-8.972-20-20s8.972-20 20-20c11.027 0 20 8.972 20 20s-8.973 20-20 20zm0-30c-5.514 0-10 4.486-10 10s4.486 10 10 10 10-4.486 10-10-4.486-10-10-10z"/><path d="m272.5 65h-30.33c-2.761 0-5-2.239-5-5s2.239-5 5-5h30.33c2.762 0 5 2.239 5 5s-2.238 5-5 5z"/><path d="m305.91 425c-1.28 0-2.56-.488-3.536-1.465-1.952-1.952-1.952-5.118 0-7.07l81.591-81.59c1.953-1.953 5.119-1.952 7.07 0 1.953 1.952 1.953 5.118 0 7.07l-81.59 81.59c-.976.977-2.256 1.465-3.535 1.465z"/><path d="m127.5 171.59c-1.28 0-2.56-.488-3.536-1.465-1.953-1.953-1.953-5.118 0-7.071l81.6-81.59c1.953-1.952 5.119-1.952 7.071 0 1.953 1.953 1.953 5.118 0 7.071l-81.6 81.59c-.976.977-2.256 1.465-3.535 1.465z"/><path d="m387.5 90h-260c-2.761 0-5-2.239-5-5s2.239-5 5-5h260c2.762 0 5 2.239 5 5s-2.238 5-5 5z"/><path d="m387.5 425h-260c-2.761 0-5-2.238-5-5s2.239-5 5-5h260c2.762 0 5 2.238 5 5s-2.238 5-5 5z"/><path d="m347.17 495h-179.33c-25 0-45.34-20.335-45.34-45.33v-379.34c0-24.995 20.339-45.33 45.34-45.33h179.33c24.995 0 45.33 20.335 45.33 45.33v379.34c0 24.995-20.335 45.33-45.33 45.33zm-179.33-460c-19.486 0-35.34 15.849-35.34 35.33v379.34c0 19.481 15.854 35.33 35.34 35.33h179.33c19.48 0 35.33-15.849 35.33-35.33v-379.34c0-19.481-15.85-35.33-35.33-35.33z"/><path d="m447.5 235c-22.057 0-40-17.944-40-40s17.943-40 40-40 40 17.944 40 40-17.943 40-40 40zm0-70c-16.542 0-30 13.458-30 30s13.458 30 30 30 30-13.458 30-30-13.458-30-30-30z"/><path d="m60 345c-15.164 0-27.5-12.337-27.5-27.5s12.336-27.5 27.5-27.5 27.5 12.337 27.5 27.5-12.336 27.5-27.5 27.5zm0-45c-9.649 0-17.5 7.851-17.5 17.5s7.851 17.5 17.5 17.5 17.5-7.851 17.5-17.5-7.851-17.5-17.5-17.5z"/><path d="m192.5 385h-65c-2.761 0-5-2.238-5-5s2.239-5 5-5h65c2.761 0 5 2.238 5 5s-2.239 5-5 5z"/><path d="m212.5 365h-85c-2.761 0-5-2.238-5-5s2.239-5 5-5h85c2.761 0 5 2.238 5 5s-2.239 5-5 5z"/><path d="m167.5 405h-40c-2.761 0-5-2.238-5-5s2.239-5 5-5h40c2.761 0 5 2.238 5 5s-2.239 5-5 5z"/><path d="m274.49 287.398c-2.556 0-5.076-.664-7.289-1.921-3.349-1.904-7.164-2.91-11.036-2.91-3.873 0-7.688 1.006-11.033 2.908-2.216 1.259-4.736 1.923-7.292 1.923-3.978 0-7.885-1.621-10.72-4.447-.028-.028-.057-.058-.084-.087l-.175-.183c-3.339-3.365-4.889-7.986-4.253-12.688.635-4.698 3.359-8.733 7.473-11.071 7.917-4.494 16.936-6.87 26.085-6.87s18.169 2.375 26.083 6.87c4.115 2.338 6.84 6.373 7.475 11.071.635 4.702-.915 9.323-4.254 12.689l-.174.182c-.028.029-.057.059-.085.087-2.836 2.826-6.742 4.446-10.721 4.447zm-18.325-14.831c5.603 0 11.128 1.458 15.978 4.217 1.855 1.052 4.389.668 5.971-.88l.162-.168c.025-.027.052-.055.078-.081 1.145-1.144 1.676-2.72 1.459-4.322-.213-1.579-1.125-2.934-2.503-3.716-6.411-3.641-13.724-5.564-21.145-5.564-7.422 0-14.734 1.924-21.146 5.564-1.376.782-2.288 2.137-2.501 3.716-.217 1.603.315 3.179 1.458 4.322.027.026.053.054.079.081l.161.168c1.583 1.549 4.112 1.935 5.975.878 4.846-2.757 10.371-4.215 15.974-4.215z"/><path d="m304.053 257.846c-3.314 0-6.582-1.115-9.201-3.14-10.987-8.492-24.727-13.168-38.687-13.168-13.959 0-27.699 4.677-38.687 13.168-2.619 2.024-5.886 3.14-9.2 3.14-4.039 0-7.837-1.573-10.694-4.43l-.21-.21c-3.071-3.079-4.671-7.327-4.393-11.66.277-4.326 2.401-8.328 5.829-10.98 16.296-12.602 36.665-19.541 57.355-19.541 20.691 0 41.06 6.939 57.354 19.54 3.429 2.653 5.554 6.656 5.83 10.981.278 4.333-1.321 8.581-4.39 11.655l-.214.214c-2.856 2.857-6.653 4.431-10.692 4.431zm-47.888-26.308c16.162 0 32.073 5.418 44.802 15.256.891.688 1.957 1.052 3.085 1.052 1.368 0 2.655-.533 3.622-1.501l.211-.21c1.051-1.054 1.58-2.458 1.484-3.949-.095-1.484-.795-2.802-1.969-3.711-14.551-11.252-32.748-17.449-51.236-17.449s-36.684 6.197-51.236 17.451c-1.173.908-1.873 2.226-1.968 3.709-.096 1.491.433 2.895 1.489 3.954l.206.206c.968.968 2.254 1.501 3.623 1.501 1.127 0 2.194-.364 3.084-1.052 12.73-9.839 28.641-15.257 44.803-15.257z"/><path d="m333.256 228.658c-3.59 0-7.086-1.281-9.842-3.607-18.744-15.824-42.627-24.538-67.25-24.538-24.622 0-48.505 8.714-67.25 24.538-2.756 2.326-6.25 3.607-9.841 3.607-4.029 0-7.814-1.567-10.66-4.413l-.21-.21c-2.98-2.981-4.59-7.107-4.416-11.321.174-4.199 2.109-8.161 5.31-10.871 24.259-20.534 55.179-31.843 87.068-31.843s62.809 11.309 87.066 31.844c3.201 2.71 5.137 6.672 5.311 10.871.174 4.214-1.436 8.34-4.416 11.321l-.209.21c-2.847 2.845-6.632 4.412-10.661 4.412zm-77.091-38.145c26.98 0 53.154 9.552 73.701 26.896.953.805 2.158 1.249 3.39 1.249 1.358 0 2.633-.527 3.589-1.484l.211-.21c1.023-1.024 1.555-2.386 1.494-3.835-.059-1.434-.691-2.731-1.779-3.653-22.455-19.008-51.082-29.476-80.606-29.476s-58.151 10.468-80.604 29.476c-1.088.922-1.721 2.219-1.78 3.653-.06 1.449.471 2.812 1.495 3.835l.21.21c.957.957 2.231 1.484 3.589 1.484 1.232 0 2.437-.444 3.391-1.249 20.545-17.345 46.719-26.896 73.699-26.896z"/></g></g></svg>