<svg enable-background="new 0 0 520 520" height="512" viewBox="0 0 520 520" width="512" xmlns="http://www.w3.org/2000/svg"><g id="_x34_92_x2C__Book_x2C__Edit_x2C__Write"><g><path d="m358.619 410.83c0 23.01-18.649 41.67-41.659 41.67h-184.46v-385h184.46c23.01 0 41.659 18.65 41.659 41.67z" fill="#cfe0e9"/><path d="m400.939 201.19 38.991 39-19.491 19.5-.009-.01-38.991-38.99z" fill="#57606f"/><path d="m459.43 181.7c5.38 5.38 8.08 12.44 8.08 19.49 0 7.06-2.7 14.11-8.08 19.5l-19.5 19.5-38.99-39 19.49-19.49c10.769-10.77 28.229-10.77 39 0z" fill="#b70422"/><path d="m352.359 327.77-19.5 19.49-39-38.99 19.5-19.5 38.991 38.99z" fill="#232b3f"/><path d="m332.859 347.26-24.37 24.37-48.75 9.75 9.75-48.74 24.37-24.37z" fill="#ffe0b2"/><path d="m352.35 327.76-38.991-38.99 45.26-45.26 22.82-22.82 38.991 38.99.009.01-61.82 61.81-6.26 6.27z" fill="#313a52"/><path d="m63.62 387.5v-25-25-25-25-25-25-25-25-25-25-25-3.33c0-23.02 18.66-41.67 41.67-41.67h27.21v385h-27.21c-23.01 0-41.67-18.66-41.67-41.67z" fill="#8c9fb0"/><path d="m415 382.5c12.43 0 22.5 10.07 22.5 22.5s-10.07 22.5-22.5 22.5c-12.421 0-22.5-10.07-22.5-22.5s10.079-22.5 22.5-22.5z" fill="#4380a0"/><path d="m437.5 72.5c16.569 0 30 13.43 30 30s-13.431 30-30 30c-16.561 0-30-13.43-30-30s13.439-30 30-30z" fill="#4380a0"/><path d="m472.06 152.79c3.99 1.14 6.29 5.29 5.15 9.27-1.131 3.98-5.29 6.29-9.271 5.15-3.979-1.13-6.29-5.29-5.15-9.27 1.141-3.98 5.29-6.29 9.271-5.15z"/><path d="m462.069 282.79c3.98 1.13 6.29 5.29 5.15 9.27-1.141 3.98-5.29 6.29-9.271 5.15-3.989-1.14-6.29-5.29-5.16-9.27 1.142-3.98 5.291-6.29 9.281-5.15z"/><path d="m387.069 42.79c3.98 1.13 6.29 5.29 5.15 9.27-1.141 3.98-5.29 6.29-9.271 5.15-3.989-1.14-6.29-5.29-5.16-9.27 1.142-3.98 5.291-6.29 9.281-5.15z"/><path d="m387.06 462.79c3.99 1.14 6.29 5.29 5.15 9.27-1.131 3.98-5.29 6.29-9.271 5.15-3.979-1.13-6.29-5.29-5.15-9.27 1.141-3.98 5.29-6.29 9.271-5.15z"/><path d="m62.07 452.79c3.98 1.13 6.29 5.29 5.15 9.27s-5.29 6.29-9.27 5.15c-3.99-1.14-6.29-5.29-5.16-9.27 1.14-3.98 5.29-6.29 9.28-5.15z"/><path d="m52.06 42.79c3.99 1.14 6.29 5.29 5.15 9.27-1.13 3.98-5.29 6.29-9.27 5.15-3.98-1.13-6.29-5.29-5.15-9.27s5.29-6.29 9.27-5.15z"/><path d="m91.12 142.5h-28.57c-9.649 0-17.5-7.851-17.5-17.5 0-4.676 1.82-9.072 5.125-12.376 3.303-3.304 7.699-5.124 12.375-5.124 2.761 0 5 2.239 5 5s-2.239 5-5 5c-2.005 0-3.889.78-5.304 2.195-1.417 1.416-2.196 3.3-2.196 5.305 0 4.136 3.364 7.5 7.5 7.5h28.57c2.005 0 3.889-.78 5.305-2.196s2.195-3.299 2.195-5.304c0-4.136-3.364-7.5-7.5-7.5-2.761 0-5-2.239-5-5s2.239-5 5-5c9.649 0 17.5 7.851 17.5 17.5 0 4.676-1.82 9.071-5.124 12.375-3.305 3.305-7.7 5.125-12.376 5.125z"/><path d="m91.12 192.5h-28.57c-9.649 0-17.5-7.851-17.5-17.5 0-4.676 1.82-9.072 5.125-12.376 3.303-3.304 7.699-5.124 12.375-5.124 2.761 0 5 2.239 5 5s-2.239 5-5 5c-2.005 0-3.889.78-5.304 2.195-1.417 1.416-2.196 3.3-2.196 5.305 0 4.136 3.364 7.5 7.5 7.5h28.57c2.005 0 3.889-.78 5.305-2.196s2.195-3.299 2.195-5.304c0-4.136-3.364-7.5-7.5-7.5-2.761 0-5-2.239-5-5s2.239-5 5-5c9.649 0 17.5 7.851 17.5 17.5 0 4.676-1.82 9.071-5.124 12.375-3.305 3.305-7.7 5.125-12.376 5.125z"/><path d="m91.12 242.5h-28.57c-9.649 0-17.5-7.851-17.5-17.5 0-4.676 1.82-9.072 5.125-12.376 3.303-3.304 7.699-5.124 12.375-5.124 2.761 0 5 2.239 5 5s-2.239 5-5 5c-2.005 0-3.889.78-5.304 2.195-1.417 1.416-2.196 3.3-2.196 5.305 0 4.136 3.364 7.5 7.5 7.5h28.57c2.005 0 3.889-.78 5.305-2.196s2.195-3.299 2.195-5.304c0-4.136-3.364-7.5-7.5-7.5-2.761 0-5-2.239-5-5s2.239-5 5-5c9.649 0 17.5 7.851 17.5 17.5 0 4.676-1.82 9.071-5.124 12.375-3.305 3.305-7.7 5.125-12.376 5.125z"/><path d="m91.12 292.5h-28.57c-9.649 0-17.5-7.851-17.5-17.5 0-4.677 1.82-9.071 5.125-12.376 3.304-3.304 7.699-5.124 12.375-5.124 2.761 0 5 2.238 5 5s-2.239 5-5 5c-2.004 0-3.888.779-5.304 2.195s-2.196 3.3-2.196 5.305c0 4.136 3.364 7.5 7.5 7.5h28.57c2.004 0 3.889-.78 5.305-2.196 1.415-1.415 2.195-3.299 2.195-5.304 0-4.136-3.364-7.5-7.5-7.5-2.761 0-5-2.238-5-5s2.239-5 5-5c9.649 0 17.5 7.851 17.5 17.5 0 4.676-1.82 9.071-5.124 12.375-3.306 3.306-7.701 5.125-12.376 5.125z"/><path d="m91.12 342.5h-28.57c-9.649 0-17.5-7.851-17.5-17.5 0-4.677 1.82-9.071 5.125-12.376 3.304-3.304 7.699-5.124 12.375-5.124 2.761 0 5 2.238 5 5s-2.239 5-5 5c-2.004 0-3.888.779-5.304 2.195s-2.196 3.3-2.196 5.305c0 4.136 3.364 7.5 7.5 7.5h28.57c2.004 0 3.889-.78 5.305-2.196 1.415-1.415 2.195-3.299 2.195-5.304 0-4.136-3.364-7.5-7.5-7.5-2.761 0-5-2.238-5-5s2.239-5 5-5c9.649 0 17.5 7.851 17.5 17.5 0 4.676-1.82 9.071-5.124 12.375-3.306 3.306-7.701 5.125-12.376 5.125z"/><path d="m91.12 392.5h-28.57c-9.649 0-17.5-7.851-17.5-17.5 0-4.677 1.82-9.071 5.125-12.376 3.304-3.304 7.699-5.124 12.375-5.124 2.761 0 5 2.238 5 5s-2.239 5-5 5c-2.004 0-3.888.779-5.304 2.195s-2.196 3.3-2.196 5.305c0 4.136 3.364 7.5 7.5 7.5h28.57c2.004 0 3.889-.78 5.305-2.196 1.415-1.415 2.195-3.299 2.195-5.304 0-4.136-3.364-7.5-7.5-7.5-2.761 0-5-2.238-5-5s2.239-5 5-5c9.649 0 17.5 7.851 17.5 17.5 0 4.676-1.82 9.071-5.124 12.375-3.306 3.306-7.701 5.125-12.376 5.125z"/><path d="m316.96 457.5h-211.67c-25.734 0-46.67-20.937-46.67-46.67v-301.66c0-25.734 20.936-46.67 46.67-46.67h211.67c25.728 0 46.659 20.936 46.659 46.67v134.34c0 2.761-2.238 5-5 5-2.761 0-5-2.239-5-5v-134.34c0-20.22-16.445-36.67-36.659-36.67h-211.67c-20.22 0-36.67 16.45-36.67 36.67v301.66c0 20.22 16.45 36.67 36.67 36.67h211.67c20.214 0 36.659-16.45 36.659-36.67v-89.33c0-2.762 2.239-5.005 5-5.005 2.762 0 5 2.233 5 4.995v89.34c0 25.733-20.931 46.67-46.659 46.67z"/><path d="m420.43 264.68c-1.28 0-2.56-.488-3.536-1.465l-38.989-38.989c-1.953-1.953-1.953-5.119 0-7.071s5.118-1.952 7.071 0l38.989 38.99c1.953 1.953 1.953 5.119 0 7.071-.977.975-2.256 1.464-3.535 1.464z"/><path d="m439.93 245.19c-1.28 0-2.56-.488-3.536-1.465l-38.99-39c-1.952-1.953-1.951-5.119.001-7.071 1.953-1.951 5.119-1.951 7.071.001l38.99 39c1.952 1.953 1.951 5.119-.001 7.071-.977.976-2.256 1.464-3.535 1.464z"/><path d="m352.35 332.76c-1.28 0-2.56-.488-3.536-1.465l-38.989-38.99c-1.953-1.952-1.953-5.118 0-7.07 1.953-1.953 5.118-1.952 7.071 0l38.989 38.99c1.953 1.952 1.953 5.118 0 7.07-.977.976-2.256 1.465-3.535 1.465z"/><path d="m332.859 352.26c-1.279 0-2.559-.488-3.535-1.464l-39-38.99c-1.952-1.952-1.953-5.118-.001-7.071 1.953-1.952 5.118-1.953 7.071-.001l39 38.99c1.953 1.952 1.953 5.118.001 7.071-.976.976-2.255 1.465-3.536 1.465z"/><path d="m259.739 386.38c-1.313 0-2.589-.518-3.535-1.465-1.182-1.182-1.695-2.877-1.367-4.516l9.75-48.74c.193-.968.669-1.857 1.367-2.555l150.939-150.94c6.153-6.153 14.334-9.542 23.036-9.542 8.701 0 16.882 3.389 23.035 9.542 6.155 6.155 9.545 14.332 9.545 23.025 0 8.688-3.389 16.868-9.541 23.032l-150.943 150.944c-.698.698-1.587 1.174-2.556 1.368l-48.75 9.75c-.325.065-.654.097-.98.097zm14.357-51.276-7.982 39.901 39.911-7.982 149.869-149.869c4.266-4.273 6.616-9.944 6.616-15.964 0-6.022-2.35-11.688-6.616-15.954-4.264-4.265-9.934-6.613-15.964-6.613s-11.7 2.349-15.965 6.613z"/><path d="m132.5 457.5c-2.761 0-5-2.238-5-5v-385c0-2.761 2.239-5 5-5s5 2.239 5 5v385c0 2.762-2.239 5-5 5z"/><path d="m323.619 132.5h-155c-2.761 0-5-2.239-5-5s2.239-5 5-5h155c2.762 0 5 2.239 5 5s-2.238 5-5 5z"/><path d="m323.619 162.5h-155c-2.761 0-5-2.239-5-5s2.239-5 5-5h155c2.762 0 5 2.239 5 5s-2.238 5-5 5z"/><path d="m323.619 192.5h-155c-2.761 0-5-2.239-5-5s2.239-5 5-5h155c2.762 0 5 2.239 5 5s-2.238 5-5 5z"/><path d="m323.619 222.5h-155c-2.761 0-5-2.239-5-5s2.239-5 5-5h155c2.762 0 5 2.239 5 5s-2.238 5-5 5z"/><path d="m323.619 252.5h-155c-2.761 0-5-2.239-5-5s2.239-5 5-5h155c2.762 0 5 2.239 5 5s-2.238 5-5 5z"/><path d="m248.62 282.5h-80c-2.761 0-5-2.238-5-5s2.239-5 5-5h80c2.761 0 5 2.238 5 5s-2.239 5-5 5z"/><path d="m437.5 137.5c-19.299 0-35-15.701-35-35s15.701-35 35-35 35 15.701 35 35-15.701 35-35 35zm0-60c-13.785 0-25 11.215-25 25s11.215 25 25 25 25-11.215 25-25-11.215-25-25-25z"/><path d="m415 432.5c-15.164 0-27.5-12.337-27.5-27.5s12.336-27.5 27.5-27.5c15.163 0 27.5 12.337 27.5 27.5s-12.337 27.5-27.5 27.5zm0-45c-9.649 0-17.5 7.851-17.5 17.5s7.851 17.5 17.5 17.5 17.5-7.851 17.5-17.5-7.851-17.5-17.5-17.5z"/></g></g></svg>