<svg enable-background="new 0 0 520 520" height="512" viewBox="0 0 520 520" width="512" xmlns="http://www.w3.org/2000/svg"><g id="_x34_93_x2C__Appointment_x2C__Calendar_x2C__Schedule"><g><path d="m439.998 87.5c8.29 0 15 6.72 15 15s-6.71 15-15 15c-8.28 0-15-6.72-15-15s6.72-15 15-15z" fill="#4380a0"/><path d="m82.498 52.5c15.19 0 27.5 12.31 27.5 27.5s-12.31 27.5-27.5 27.5c-15.18 0-27.5-12.31-27.5-27.5s12.32-27.5 27.5-27.5z" fill="#4380a0"/><path d="m362.498 167.5h52.5 4.67c22.28 0 40.33 18.06 40.33 40.33v19.67h-405v-19.67c0-22.27 18.06-40.33 40.34-40.33h4.66 52.5 52.5 52.5 52.5z" fill="#57606f"/><path d="m54.998 227.5v199.67c0 22.271 18.06 40.33 40.34 40.33h324.33c22.28 0 40.33-18.06 40.33-40.33v-9.67-190z" fill="#ecebed"/><g fill="#26c6da"><path d="m209.998 387.5h35v35h-35z"/><path d="m149.998 387.5h35v35h-35z"/><path d="m89.998 387.5h35v35h-35z"/><path d="m89.998 327.5h35v35h-35z"/><path d="m149.998 327.5h35v35h-35z"/><path d="m209.998 327.5h35v35h-35z"/><path d="m269.998 327.5h35v35h-35z"/><path d="m329.998 327.5h35v35h-35z"/><path d="m389.998 327.5h35v35h-35z"/><path d="m389.998 267.5h35v35h-35z"/><path d="m329.998 267.5h35v35h-35z"/><path d="m269.998 267.5h35v35h-35z"/><path d="m209.998 267.5h35v35h-35z"/><path d="m149.998 267.5h35v35h-35z"/><path d="m89.998 267.5h35v35h-35z"/></g><path d="m474.558 157.79c3.99 1.14 6.29 5.29 5.15 9.27-1.13 3.98-5.29 6.29-9.27 5.15-3.98-1.13-6.29-5.29-5.15-9.27s5.29-6.29 9.27-5.15z"/><path d="m404.558 52.79c3.99 1.13 6.29 5.29 5.15 9.27-1.13 3.98-5.29 6.29-9.27 5.15s-6.29-5.29-5.15-9.27 5.29-6.29 9.27-5.15z"/><path d="m329.568 87.79c3.979 1.13 6.29 5.29 5.149 9.27-1.14 3.98-5.29 6.29-9.27 5.15-3.99-1.14-6.29-5.29-5.16-9.27 1.141-3.98 5.291-6.29 9.281-5.15z"/><path d="m234.558 62.79c3.99 1.14 6.29 5.29 5.15 9.27-1.13 3.98-5.29 6.29-9.27 5.15-3.98-1.13-6.29-5.29-5.15-9.27s5.29-6.29 9.27-5.15z"/><path d="m144.558 97.79c3.99 1.13 6.29 5.29 5.15 9.27-1.13 3.98-5.29 6.29-9.27 5.15s-6.29-5.29-5.15-9.27 5.29-6.29 9.27-5.15z"/><path d="m49.568 137.79c3.98 1.14 6.29 5.29 5.15 9.27s-5.29 6.29-9.27 5.15c-3.99-1.13-6.29-5.29-5.16-9.27 1.14-3.98 5.29-6.29 9.28-5.15z"/><path d="m419.668 472.5h-324.33c-25 0-45.34-20.335-45.34-45.33v-219.34c0-24.995 20.339-45.33 45.34-45.33h324.33c24.995 0 45.33 20.335 45.33 45.33v219.34c0 24.995-20.335 45.33-45.33 45.33zm-324.33-300c-19.486 0-35.34 15.849-35.34 35.33v219.34c0 19.481 15.854 35.33 35.34 35.33h324.33c19.481 0 35.33-15.849 35.33-35.33v-219.34c0-19.481-15.849-35.33-35.33-35.33z"/><path d="m459.998 232.5h-405c-2.761 0-5-2.239-5-5s2.239-5 5-5h405c2.762 0 5 2.239 5 5s-2.238 5-5 5z"/><path d="m124.998 307.5h-35c-2.761 0-5-2.238-5-5v-35c0-2.762 2.239-5 5-5h35c2.761 0 5 2.238 5 5v35c0 2.762-2.239 5-5 5zm-30-10h25v-25h-25z"/><path d="m184.998 307.5h-35c-2.761 0-5-2.238-5-5v-35c0-2.762 2.239-5 5-5h35c2.761 0 5 2.238 5 5v35c0 2.762-2.239 5-5 5zm-30-10h25v-25h-25z"/><path d="m244.998 307.5h-35c-2.761 0-5-2.238-5-5v-35c0-2.762 2.239-5 5-5h35c2.761 0 5 2.238 5 5v35c0 2.762-2.239 5-5 5zm-30-10h25v-25h-25z"/><path d="m304.998 307.5h-35c-2.761 0-5-2.238-5-5v-35c0-2.762 2.239-5 5-5h35c2.762 0 5 2.238 5 5v35c0 2.762-2.238 5-5 5zm-30-10h25v-25h-25z"/><path d="m364.998 307.5h-35c-2.761 0-5-2.238-5-5v-35c0-2.762 2.239-5 5-5h35c2.762 0 5 2.238 5 5v35c0 2.762-2.238 5-5 5zm-30-10h25v-25h-25z"/><path d="m424.998 307.5h-35c-2.761 0-5-2.238-5-5v-35c0-2.762 2.239-5 5-5h35c2.762 0 5 2.238 5 5v35c0 2.762-2.238 5-5 5zm-30-10h25v-25h-25z"/><path d="m124.998 367.5h-35c-2.761 0-5-2.238-5-5v-35c0-2.762 2.239-5 5-5h35c2.761 0 5 2.238 5 5v35c0 2.762-2.239 5-5 5zm-30-10h25v-25h-25z"/><path d="m184.998 367.5h-35c-2.761 0-5-2.238-5-5v-35c0-2.762 2.239-5 5-5h35c2.761 0 5 2.238 5 5v35c0 2.762-2.239 5-5 5zm-30-10h25v-25h-25z"/><path d="m244.998 367.5h-35c-2.761 0-5-2.238-5-5v-35c0-2.762 2.239-5 5-5h35c2.761 0 5 2.238 5 5v35c0 2.762-2.239 5-5 5zm-30-10h25v-25h-25z"/><path d="m304.998 367.5h-35c-2.761 0-5-2.238-5-5v-35c0-2.762 2.239-5 5-5h35c2.762 0 5 2.238 5 5v35c0 2.762-2.238 5-5 5zm-30-10h25v-25h-25z"/><path d="m364.998 367.5h-35c-2.761 0-5-2.238-5-5v-35c0-2.762 2.239-5 5-5h35c2.762 0 5 2.238 5 5v35c0 2.762-2.238 5-5 5zm-30-10h25v-25h-25z"/><path d="m424.998 367.5h-35c-2.761 0-5-2.238-5-5v-35c0-2.762 2.239-5 5-5h35c2.762 0 5 2.238 5 5v35c0 2.762-2.238 5-5 5zm-30-10h25v-25h-25z"/><path d="m124.998 427.5h-35c-2.761 0-5-2.238-5-5v-35c0-2.762 2.239-5 5-5h35c2.761 0 5 2.238 5 5v35c0 2.762-2.239 5-5 5zm-30-10h25v-25h-25z"/><path d="m184.998 427.5h-35c-2.761 0-5-2.238-5-5v-35c0-2.762 2.239-5 5-5h35c2.761 0 5 2.238 5 5v35c0 2.762-2.239 5-5 5zm-30-10h25v-25h-25z"/><path d="m244.998 427.5h-35c-2.761 0-5-2.238-5-5v-35c0-2.762 2.239-5 5-5h35c2.761 0 5 2.238 5 5v35c0 2.762-2.239 5-5 5zm-30-10h25v-25h-25z"/><path d="m126.248 198.75c-2.761 0-5-2.239-5-5s2.239-5 5-5c11.717 0 21.25-9.533 21.25-21.25s-9.533-21.25-21.25-21.25-21.25 9.533-21.25 21.25c0 2.761-2.239 5-5 5s-5-2.239-5-5c0-17.231 14.019-31.25 31.25-31.25s31.25 14.019 31.25 31.25-14.019 31.25-31.25 31.25z"/><path d="m178.748 198.75c-2.761 0-5-2.239-5-5s2.239-5 5-5c11.717 0 21.25-9.533 21.25-21.25s-9.533-21.25-21.25-21.25-21.25 9.533-21.25 21.25c0 2.761-2.239 5-5 5s-5-2.239-5-5c0-17.231 14.019-31.25 31.25-31.25s31.25 14.019 31.25 31.25-14.019 31.25-31.25 31.25z"/><path d="m231.248 198.75c-2.761 0-5-2.239-5-5s2.239-5 5-5c11.717 0 21.25-9.533 21.25-21.25s-9.533-21.25-21.25-21.25-21.25 9.533-21.25 21.25c0 2.761-2.239 5-5 5s-5-2.239-5-5c0-17.231 14.019-31.25 31.25-31.25s31.25 14.019 31.25 31.25-14.019 31.25-31.25 31.25z"/><path d="m283.748 198.75c-2.761 0-5-2.239-5-5s2.239-5 5-5c11.718 0 21.25-9.533 21.25-21.25s-9.532-21.25-21.25-21.25c-11.717 0-21.25 9.533-21.25 21.25 0 2.761-2.238 5-5 5-2.761 0-5-2.239-5-5 0-17.231 14.019-31.25 31.25-31.25s31.25 14.019 31.25 31.25-14.019 31.25-31.25 31.25z"/><path d="m336.248 198.75c-2.761 0-5-2.239-5-5s2.239-5 5-5c11.718 0 21.25-9.533 21.25-21.25s-9.532-21.25-21.25-21.25c-11.717 0-21.25 9.533-21.25 21.25 0 2.761-2.238 5-5 5-2.761 0-5-2.239-5-5 0-17.231 14.019-31.25 31.25-31.25s31.25 14.019 31.25 31.25-14.019 31.25-31.25 31.25z"/><path d="m388.748 198.75c-2.761 0-5-2.239-5-5s2.239-5 5-5c11.718 0 21.25-9.533 21.25-21.25s-9.532-21.25-21.25-21.25c-11.717 0-21.25 9.533-21.25 21.25 0 2.761-2.238 5-5 5-2.761 0-5-2.239-5-5 0-17.231 14.019-31.25 31.25-31.25s31.25 14.019 31.25 31.25-14.019 31.25-31.25 31.25z"/><path d="m459.998 422.5h-150c-2.761 0-5-2.238-5-5s2.239-5 5-5h150c2.762 0 5 2.238 5 5s-2.238 5-5 5z"/><path d="m82.498 112.5c-17.92 0-32.5-14.58-32.5-32.5s14.58-32.5 32.5-32.5 32.5 14.58 32.5 32.5-14.58 32.5-32.5 32.5zm0-55c-12.407 0-22.5 10.093-22.5 22.5s10.093 22.5 22.5 22.5 22.5-10.093 22.5-22.5-10.093-22.5-22.5-22.5z"/><path d="m439.998 122.5c-11.027 0-20-8.972-20-20s8.973-20 20-20c11.028 0 20 8.972 20 20s-8.972 20-20 20zm0-30c-5.514 0-10 4.486-10 10s4.486 10 10 10c5.515 0 10-4.486 10-10s-4.485-10-10-10z"/></g></g></svg>