<svg id="Layer_1" height="512" viewBox="0 0 520 520" width="512" xmlns="http://www.w3.org/2000/svg"><g><g id="_x34_94_x2C__Atm_x2C__Banking_x2C__Card_x2C__Payment"><g><path d="m67.5 327.5v94.85 16.82c0 21.17 17.17 38.33 38.34 38.33h343.33c21.17 0 38.33-17.16 38.33-38.33v-111.67z" fill="#cfe0e9"/><path d="m457.5 67.5c11.05 0 20 8.95 20 20s-8.95 20-20 20c-11.04 0-20-8.95-20-20s8.96-20 20-20z" fill="#ff5622"/><path d="m112.5 87.5c13.81 0 25 11.19 25 25s-11.19 25-25 25c-13.8 0-25-11.19-25-25s11.2-25 25-25z" fill="#ff5622"/><path d="m449.17 217.5c1.119 0 2.23.05 3.33.15 19.609 1.68 35 18.13 35 38.18v21.67h-420v-21.67c0-21.17 17.17-38.33 38.34-38.33h129.48 205.73z" fill="#cfe0e9"/><path d="m67.5 277.5h420v50h-420z" fill="#57606f"/><path d="m449.17 217.5h-8.12-205.73-129.48c-21.17 0-38.34 17.16-38.34 38.33v21.67 50 94.85c-19.6-1.688-35-18.14-35-38.18v-183.34c0-21.17 17.17-38.33 38.34-38.33h129.48 122.18 83.55 8.12c21.17 0 38.33 17.16 38.33 38.33v16.82c-1.1-.1-2.211-.15-3.33-.15z" fill="#abbfcf"/><path d="m322.5 42.5c-33.131 0-60 26.86-60 60s26.869 60 60 60c33.14 0 60-26.86 60-60s-26.86-60-60-60z" fill="#ffd54f"/><path d="m477.06 147.79c3.99 1.14 6.29 5.29 5.15 9.27-1.13 3.98-5.29 6.29-9.271 5.15-3.979-1.13-6.289-5.29-5.15-9.27 1.141-3.98 5.291-6.29 9.271-5.15z"/><path d="m407.06 52.79c3.99 1.13 6.29 5.29 5.15 9.27-1.13 3.98-5.29 6.29-9.271 5.15-3.979-1.14-6.289-5.29-5.15-9.27 1.141-3.98 5.291-6.29 9.271-5.15z"/><path d="m237.06 117.79c3.99 1.13 6.29 5.29 5.15 9.27-1.13 3.98-5.29 6.29-9.27 5.15s-6.29-5.29-5.15-9.27 5.29-6.29 9.27-5.15z"/><path d="m186.7 420.25c.77-2.7 3.6-4.27 6.3-3.5 2.71.78 4.28 3.6 3.5 6.3-.77 2.71-3.59 4.28-6.3 3.5-2.7-.77-4.27-3.59-3.5-6.3z"/><path d="m182.06 57.79c3.99 1.14 6.29 5.29 5.15 9.27-1.13 3.98-5.29 6.29-9.27 5.15-3.98-1.13-6.29-5.29-5.15-9.27s5.29-6.29 9.27-5.15z"/><path d="m67.06 67.79c3.99 1.13 6.29 5.29 5.15 9.27-1.13 3.98-5.29 6.29-9.27 5.15s-6.29-5.29-5.15-9.27 5.29-6.29 9.27-5.15z"/><path d="m487.5 282.5h-420c-2.761 0-5-2.238-5-5s2.239-5 5-5h420c2.762 0 5 2.238 5 5s-2.238 5-5 5z"/><path d="m67.506 427.35c-.144 0-.289-.006-.435-.019-22.19-1.912-39.571-20.871-39.571-43.161v-183.34c0-23.892 19.442-43.33 43.34-43.33h343.33c23.893 0 43.33 19.438 43.33 43.33v16.82c0 2.761-2.238 5-5 5s-5-2.239-5-5v-16.82c0-18.378-14.951-33.33-33.33-33.33h-343.33c-18.384 0-33.34 14.952-33.34 33.33v183.34c0 17.146 13.366 31.729 30.429 33.198 2.751.237 4.79 2.659 4.552 5.411-.224 2.605-2.408 4.571-4.975 4.571z"/><path d="m487.5 332.5h-420c-2.761 0-5-2.238-5-5s2.239-5 5-5h420c2.762 0 5 2.238 5 5s-2.238 5-5 5z"/><path d="m247.5 377.5h-140c-2.761 0-5-2.238-5-5s2.239-5 5-5h140c2.761 0 5 2.238 5 5s-2.239 5-5 5z"/><path d="m247.5 402.5h-140c-2.761 0-5-2.238-5-5s2.239-5 5-5h140c2.761 0 5 2.238 5 5s-2.239 5-5 5z"/><path d="m177.5 427.5h-70c-2.761 0-5-2.238-5-5s2.239-5 5-5h70c2.761 0 5 2.238 5 5s-2.239 5-5 5z"/><path d="m449.17 482.5h-343.33c-23.897 0-43.34-19.438-43.34-43.33v-183.34c0-23.892 19.442-43.33 43.34-43.33h343.33c1.268 0 2.54.058 3.783.17 22.164 1.899 39.547 20.858 39.547 43.16v183.34c0 23.893-19.437 43.33-43.33 43.33zm-343.33-260c-18.384 0-33.34 14.952-33.34 33.33v183.34c0 18.378 14.956 33.33 33.34 33.33h343.33c18.379 0 33.33-14.952 33.33-33.33v-183.34c0-17.154-13.365-31.737-30.427-33.198-.97-.088-1.938-.132-2.903-.132z"/><path d="m322.5 167.5c-35.842 0-65-29.159-65-65s29.158-65 65-65 65 29.159 65 65-29.158 65-65 65zm0-120c-30.327 0-55 24.673-55 55s24.673 55 55 55 55-24.673 55-55-24.673-55-55-55z"/><path d="m112.5 142.5c-16.542 0-30-13.458-30-30s13.458-30 30-30 30 13.458 30 30-13.458 30-30 30zm0-50c-11.028 0-20 8.972-20 20s8.972 20 20 20 20-8.972 20-20-8.972-20-20-20z"/><path d="m457.5 112.5c-13.785 0-25-11.215-25-25s11.215-25 25-25 25 11.215 25 25-11.215 25-25 25zm0-40c-8.271 0-15 6.729-15 15s6.729 15 15 15 15-6.729 15-15-6.729-15-15-15z"/></g></g><path d="m328.891 96.96c-.883-.312-1.784-.639-2.684-.975v-15.623c1.854.629 2.964 1.537 3.116 1.667l3.261 3.01 6.078-6.592-3.296-3.039c-.209-.191-3.604-3.228-9.159-4.271v-7.337h-8.965v7.664c-.356.089-.707.16-1.069.27-5.528 1.664-9.658 6.387-10.776 12.322-1.023 5.439.733 10.7 4.596 13.727 1.866 1.465 4.178 2.809 7.252 4.208v20.486c-2.321-.285-4.027-1.002-6.716-2.762l-3.752-2.453-4.906 7.503 3.752 2.452c4.541 2.97 7.728 3.97 11.622 4.278v7.673h8.966v-8.105c7.878-1.913 12.941-8.587 14.051-15.185 1.434-8.541-3.029-15.968-11.371-18.918zm-13.367-6.232c-1.197-.939-1.716-2.907-1.318-5.012.31-1.642 1.272-3.545 3.036-4.682v10.859c-.621-.382-1.21-.767-1.718-1.165zm15.894 23.663c-.465 2.764-2.233 5.677-5.211 7.199v-16.052c5.82 2.241 5.469 7.324 5.211 8.853z"/></g></svg>