<svg enable-background="new 0 0 520 520" height="512" viewBox="0 0 520 520" width="512" xmlns="http://www.w3.org/2000/svg"><g id="_x34_95_x2C__Cog_x2C__Gear_x2C__Settings"><g><path d="m256.035 184.23c42.52 0 77.241 34.71 77.241 77.31 0 42.52-34.721 77.229-77.241 77.229-42.6 0-77.31-34.71-77.31-77.229 0-42.6 34.71-77.31 77.31-77.31zm45.86 77.29c0-25.299-20.619-45.919-45.87-45.919-25.3 0-45.92 20.62-45.92 45.919 0 25.261 20.62 45.881 45.92 45.881 25.25-.001 45.87-20.621 45.87-45.881z" fill="#8cf2ff"/><path d="m455.995 36.5c16.569 0 30 13.43 30 30s-13.431 30-30 30c-16.56 0-30-13.43-30-30s13.441-30 30-30z" fill="#4380a0"/><path d="m60.995 426.5c11.05 0 20 8.95 20 20s-8.95 20-20 20c-11.04 0-20-8.95-20-20s8.96-20 20-20z" fill="#4380a0"/><path d="m256.055 147.62c62.67 0 113.82 51.16 113.82 113.939 0 62.66-51.15 113.82-113.82 113.82-62.78 0-113.94-51.16-113.94-113.82 0-62.779 51.16-113.939 113.94-113.939zm77.22 113.92c0-42.6-34.721-77.31-77.241-77.31-42.6 0-77.31 34.71-77.31 77.31 0 42.52 34.71 77.229 77.31 77.229 42.521.001 77.241-34.709 77.241-77.229z" fill="#bdf9ff"/><path d="m477.995 227.55v67.91l-64.81 6.76c-3.761 14.84-9.671 28.83-17.281 41.7l41.141 50.53-48.09 48.09-50.53-41.14c-12.87 7.609-26.87 13.529-41.71 17.29l-6.76 64.81h-67.91l-6.76-64.81c-14.75-3.761-28.84-9.681-41.71-17.29l-50.53 41.14-48-48.09 41.05-50.53c-7.61-12.87-13.53-26.86-17.28-41.7l-64.81-6.76v-67.91l64.81-6.77c3.75-14.74 9.67-28.83 17.28-41.7l-41.05-50.53 48-48 50.53 41.05c12.87-7.61 26.96-13.53 41.71-17.29l6.76-64.81h67.91l6.76 64.81c14.84 3.76 28.84 9.68 41.71 17.29l50.53-41.05 48.09 48-41.141 50.53c7.61 12.87 13.521 26.96 17.281 41.7zm-108.12 34.01c0-62.78-51.15-113.939-113.82-113.939-62.78 0-113.94 51.16-113.94 113.939 0 62.66 51.16 113.82 113.94 113.82 62.67 0 113.82-51.16 113.82-113.82z" fill="#57606f"/><path d="m453.495 166.5c4.149 0 7.5 3.36 7.5 7.5s-3.351 7.5-7.5 7.5c-4.14 0-7.5-3.36-7.5-7.5s3.36-7.5 7.5-7.5z"/><path d="m453.495 354c4.149 0 7.5 3.36 7.5 7.5s-3.351 7.5-7.5 7.5c-4.14 0-7.5-3.36-7.5-7.5s3.36-7.5 7.5-7.5z"/><path d="m353.495 456.5c4.149 0 7.5 3.36 7.5 7.5s-3.351 7.5-7.5 7.5c-4.14 0-7.5-3.36-7.5-7.5s3.36-7.5 7.5-7.5z"/><path d="m343.495 46.5c4.149 0 7.5 3.36 7.5 7.5s-3.351 7.5-7.5 7.5c-4.14 0-7.5-3.36-7.5-7.5s3.36-7.5 7.5-7.5z"/><path d="m178.495 36.5c4.15 0 7.5 3.36 7.5 7.5s-3.35 7.5-7.5 7.5c-4.14 0-7.5-3.36-7.5-7.5s3.36-7.5 7.5-7.5z"/><path d="m58.495 336.5c4.15 0 7.5 3.36 7.5 7.5s-3.35 7.5-7.5 7.5c-4.14 0-7.5-3.36-7.5-7.5s3.36-7.5 7.5-7.5z"/><path d="m48.495 121.5c4.15 0 7.5 3.36 7.5 7.5s-3.35 7.5-7.5 7.5c-4.14 0-7.5-3.36-7.5-7.5s3.36-7.5 7.5-7.5z"/><path d="m289.955 488.5h-67.91c-2.561 0-4.708-1.935-4.973-4.481l-6.403-61.385c-12.69-3.53-24.977-8.626-36.609-15.181l-47.858 38.964c-1.99 1.619-4.883 1.472-6.696-.345l-48-48.09c-1.809-1.813-1.956-4.697-.342-6.685l38.879-47.858c-6.592-11.691-11.686-23.976-15.179-36.604l-61.378-6.402c-2.547-.266-4.481-2.412-4.481-4.973v-67.91c0-2.561 1.934-4.707 4.48-4.973l61.384-6.412c3.523-12.682 8.615-24.965 15.174-36.603l-38.879-47.859c-1.615-1.989-1.466-4.876.345-6.688l48-48c1.812-1.813 4.7-1.96 6.688-.345l47.858 38.88c11.635-6.557 23.921-11.652 36.613-15.183l6.403-61.385c.266-2.547 2.413-4.481 4.973-4.481h67.91c2.561 0 4.707 1.935 4.973 4.481l6.402 61.38c12.645 3.504 24.93 8.6 36.613 15.188l47.859-38.88c1.986-1.615 4.871-1.467 6.685.342l48.09 48c1.815 1.813 1.966 4.706.345 6.696l-38.965 47.858c6.545 11.616 11.637 23.898 15.172 36.6l61.386 6.412c2.546.266 4.48 2.413 4.48 4.973v67.91c0 2.561-1.935 4.707-4.481 4.973l-61.38 6.402c-3.505 12.648-8.598 24.931-15.176 36.601l38.964 47.857c1.619 1.989 1.472 4.88-.342 6.692l-48.09 48.09c-1.813 1.814-4.704 1.96-6.691.342l-47.858-38.964c-11.681 6.586-23.967 11.682-36.61 15.186l-6.402 61.38c-.266 2.545-2.412 4.48-4.973 4.48zm-63.405-10h58.899l6.293-60.328c.217-2.085 1.713-3.813 3.744-4.328 14.016-3.552 27.605-9.187 40.394-16.747 1.805-1.066 4.079-.896 5.702.427l47.029 38.289 41.706-41.706-38.29-47.029c-1.322-1.624-1.492-3.899-.426-5.702 7.553-12.773 13.184-26.36 16.736-40.384.516-2.032 2.243-3.527 4.328-3.744l60.329-6.293v-58.899l-60.329-6.302c-2.082-.218-3.809-1.709-4.326-3.737-3.597-14.099-9.229-27.688-16.738-40.391-1.066-1.802-.896-4.078.426-5.702l38.287-47.026-41.703-41.626-47.033 38.21c-1.624 1.32-3.896 1.489-5.698.423-12.79-7.562-26.38-13.197-40.394-16.747-2.031-.515-3.527-2.243-3.744-4.328l-6.293-60.33h-58.899l-6.292 60.329c-.217 2.083-1.709 3.81-3.738 4.327-14.082 3.589-27.675 9.225-40.4 16.749-1.801 1.064-4.075.895-5.698-.423l-47.03-38.207-41.623 41.623 38.207 47.03c1.319 1.624 1.488 3.897.423 5.698-7.527 12.73-13.159 26.319-16.738 40.388-.517 2.03-2.243 3.522-4.326 3.74l-60.33 6.302v58.899l60.329 6.293c2.086.217 3.815 1.714 4.329 3.748 3.536 13.992 9.167 27.578 16.736 40.38 1.065 1.801.896 4.074-.423 5.697l-38.209 47.034 41.626 41.703 47.026-38.286c1.624-1.322 3.898-1.493 5.702-.427 12.724 7.522 26.316 13.158 40.4 16.749 2.029.517 3.521 2.243 3.738 4.326z"/><path d="m256.055 380.38c-65.583 0-118.94-53.303-118.94-118.82 0-65.583 53.356-118.939 118.94-118.939 65.518 0 118.82 53.356 118.82 118.939 0 65.517-53.303 118.82-118.82 118.82zm0-227.76c-60.07 0-108.94 48.87-108.94 108.939 0 60.004 48.87 108.82 108.94 108.82 60.004 0 108.82-48.816 108.82-108.82 0-60.069-48.816-108.939-108.82-108.939z"/><path d="m256.035 343.77c-45.386 0-82.31-36.888-82.31-82.229 0-45.386 36.924-82.31 82.31-82.31 45.348 0 82.241 36.924 82.241 82.31-.001 45.341-36.893 82.229-82.241 82.229zm0-154.54c-39.872 0-72.31 32.438-72.31 72.31 0 39.827 32.438 72.229 72.31 72.229 39.833 0 72.241-32.402 72.241-72.229-.001-39.872-32.408-72.31-72.241-72.31z"/><path d="m256.025 312.4c-28.077 0-50.92-22.825-50.92-50.881 0-28.077 22.843-50.919 50.92-50.919 28.049 0 50.87 22.842 50.87 50.919 0 28.056-22.821 50.881-50.87 50.881zm0-91.8c-22.563 0-40.92 18.356-40.92 40.919 0 22.542 18.356 40.881 40.92 40.881 22.536 0 40.87-18.339 40.87-40.881 0-22.562-18.334-40.919-40.87-40.919z"/><path d="m60.995 471.5c-13.785 0-25-11.215-25-25s11.215-25 25-25 25 11.215 25 25-11.215 25-25 25zm0-40c-8.271 0-15 6.729-15 15s6.729 15 15 15 15-6.729 15-15-6.729-15-15-15z"/><path d="m455.995 101.5c-19.299 0-35-15.701-35-35s15.701-35 35-35 35 15.701 35 35-15.701 35-35 35zm0-60c-13.785 0-25 11.215-25 25s11.215 25 25 25 25-11.215 25-25-11.215-25-25-25z"/></g></g></svg>