<svg enable-background="new 0 0 520 520" height="512" viewBox="0 0 520 520" width="512" xmlns="http://www.w3.org/2000/svg"><g id="_x34_97_x2C__Map_x2C__Pin_x2C__Streamline"><g><circle cx="455" cy="292.5" fill="#4380a0" r="35"/><path d="m55 307.5c13.81 0 25 11.19 25 25s-11.19 25-25 25c-13.8 0-25-11.19-25-25s11.2-25 25-25z" fill="#4380a0"/><path d="m306.48 371.52c7.549-7.3 15.119-14.31 22.559-21.199 48.101 9.989 80.961 30.099 80.961 53.279 0 33.141-67.15 60-150 60-82.84 0-150-26.859-150-60 0-23.18 32.87-43.29 80.97-53.279 23.37 21.649 48.05 44.52 69.03 73.279 14.3-19.61 30.33-36.48 46.48-52.08z" fill="#313a52"/><path d="m329.039 350.32c-7.439 6.89-15.01 13.899-22.559 21.199-16.15 15.601-32.18 32.471-46.48 52.081-20.98-28.76-45.66-51.63-69.03-73.279-44.82-41.521-84.86-78.53-84.86-143.92 0-85.011 68.89-153.901 153.89-153.901 85.01 0 153.9 68.89 153.9 153.9 0 65.39-40.041 102.4-84.861 143.92zm21.461-143.92c0-49.85-40.65-90.5-90.5-90.5-49.84 0-90.5 40.65-90.5 90.5 0 49.84 40.66 90.5 90.5 90.5 49.85 0 90.5-40.66 90.5-90.5z" fill="#fb2b3a"/><path d="m465 372.5c4.15 0 7.5 3.36 7.5 7.5s-3.35 7.5-7.5 7.5c-4.141 0-7.5-3.36-7.5-7.5s3.359-7.5 7.5-7.5z"/><path d="m457.5 147.5c4.15 0 7.5 3.36 7.5 7.5s-3.35 7.5-7.5 7.5c-4.141 0-7.5-3.36-7.5-7.5s3.359-7.5 7.5-7.5z"/><path d="m397.5 467.5c4.15 0 7.5 3.36 7.5 7.5s-3.35 7.5-7.5 7.5c-4.141 0-7.5-3.36-7.5-7.5s3.359-7.5 7.5-7.5z"/><path d="m382.5 37.5c4.15 0 7.5 3.36 7.5 7.5s-3.35 7.5-7.5 7.5c-4.141 0-7.5-3.36-7.5-7.5s3.359-7.5 7.5-7.5z"/><path d="m87.5 422.5c4.15 0 7.5 3.36 7.5 7.5s-3.35 7.5-7.5 7.5c-4.14 0-7.5-3.36-7.5-7.5s3.36-7.5 7.5-7.5z"/><path d="m72.5 52.5c4.15 0 7.5 3.36 7.5 7.5s-3.35 7.5-7.5 7.5c-4.14 0-7.5-3.36-7.5-7.5s3.36-7.5 7.5-7.5z"/><path d="m67.5 207.5c4.15 0 7.5 3.36 7.5 7.5s-3.35 7.5-7.5 7.5c-4.14 0-7.5-3.36-7.5-7.5s3.36-7.5 7.5-7.5z"/><path d="m260 468.6c-86.916 0-155-28.552-155-65 0-12.979 8.554-25.355 24.738-35.788 14.792-9.537 35.614-17.277 60.215-22.387.334-.069.675-.104 1.017-.104 2.761 0 5.005 2.238 5.005 5 0 2.471-1.788 4.523-4.143 4.928-46.68 9.721-76.832 28.692-76.832 48.351 0 13.645 14.868 27.416 40.792 37.785 27.754 11.101 64.762 17.215 104.208 17.215 39.449 0 76.459-6.113 104.211-17.215 25.922-10.368 40.789-24.141 40.789-37.785 0-19.667-30.176-38.647-76.885-48.364-2.32-.434-4.08-2.469-4.08-4.915 0-2.762 2.233-5 4.994-5 .342 0 .692.035 1.027.104 24.6 5.108 45.42 12.85 60.21 22.387 16.181 10.432 24.734 22.808 24.734 35.788 0 36.448-68.084 65-155 65z"/><path d="m325 438.611c-2.047 0-3.967-1.266-4.703-3.302-.938-2.598.407-5.463 3.004-6.401 17.996-6.502 28.738-15.519 28.738-24.118 0-10.258-18.779-21.675-46.73-28.409-2.685-.647-4.336-3.348-3.689-6.032s3.345-4.337 6.032-3.69c34.056 8.206 54.388 22.461 54.388 38.132 0 13.384-12.551 25.289-35.34 33.522-.561.203-1.136.298-1.7.298z"/><path d="m215.005 444.181c-.339 0-.684-.035-1.03-.107-35.068-7.347-56.005-22.031-56.005-39.283 0-13.394 12.548-25.299 35.333-33.523 2.598-.937 5.463.408 6.401 3.006.938 2.597-.408 5.463-3.005 6.4-17.989 6.493-28.728 15.509-28.728 24.117 0 11.621 19.312 23.475 48.056 29.496 2.703.566 4.435 3.216 3.868 5.919-.495 2.356-2.574 3.975-4.89 3.975z"/><path d="m260 301.9c-52.659 0-95.5-42.842-95.5-95.5s42.841-95.5 95.5-95.5c52.658 0 95.5 42.841 95.5 95.5s-42.842 95.5-95.5 95.5zm0-181c-47.145 0-85.5 38.355-85.5 85.5s38.355 85.5 85.5 85.5 85.5-38.355 85.5-85.5-38.355-85.5-85.5-85.5z"/><path d="m310.5 211.4c-2.762 0-5-2.239-5-5 0-25.089-20.411-45.5-45.5-45.5-2.762 0-5-2.239-5-5s2.238-5 5-5c30.604 0 55.5 24.897 55.5 55.5 0 2.761-2.238 5-5 5z"/><path d="m260 261.9c-30.603 0-55.5-24.897-55.5-55.5 0-2.761 2.239-5 5-5s5 2.239 5 5c0 25.089 20.411 45.5 45.5 45.5 2.762 0 5 2.238 5 5s-2.238 5-5 5z"/><path d="m260 428.6c-1.597 0-3.098-.763-4.04-2.053-20.711-28.392-44.949-50.845-68.389-72.559l-.17-.157c-44.376-41.11-86.292-79.939-86.292-147.431 0-87.618 71.278-158.9 158.89-158.9 87.617 0 158.9 71.282 158.9 158.9 0 67.492-41.916 106.322-86.294 147.432l-.169.156c-7.368 6.823-14.975 13.867-22.482 21.126-19.677 19.007-33.837 34.868-45.915 51.432-.94 1.29-2.441 2.054-4.039 2.054zm0-371.1c-82.098 0-148.89 66.796-148.89 148.9 0 63.124 38.504 98.793 83.088 140.095l.17.157c22.298 20.656 45.307 41.972 65.63 68.588 11.541-15.126 25.039-29.959 43.008-47.317 7.584-7.331 15.23-14.412 22.625-21.261l.18-.166c44.584-41.303 83.09-76.972 83.09-140.096-.001-82.104-66.797-148.9-148.901-148.9z"/><path d="m55 362.5c-16.542 0-30-13.458-30-30s13.458-30 30-30 30 13.458 30 30-13.458 30-30 30zm0-50c-11.028 0-20 8.972-20 20s8.972 20 20 20 20-8.972 20-20-8.972-20-20-20z"/><path d="m455 332.5c-22.057 0-40-17.944-40-40s17.943-40 40-40 40 17.944 40 40-17.943 40-40 40zm0-70c-16.542 0-30 13.458-30 30s13.458 30 30 30 30-13.458 30-30-13.458-30-30-30z"/></g></g></svg>