<svg enable-background="new 0 0 520 520" height="512" viewBox="0 0 520 520" width="512" xmlns="http://www.w3.org/2000/svg"><g id="_x34_98_x2C__Magnifier_x2C__Search_x2C__Zoom"><g><path d="m295.46 114.54c-52.72-52.72-138.19-52.72-190.92 0-52.72 52.72-52.72 138.2 0 190.92 46.68 46.68 119.04 52.021 171.611 16.04l22.849 22.85 35.35-35.35-22.85-22.86c35.98-52.56 30.64-124.92-16.04-171.6z" fill="#757d8c"/><circle cx="430" cy="155" fill="#fb2b3a" r="35"/><path d="m263.64 146.36c35.149 35.15 35.149 92.13 0 127.28-35.14 35.15-92.13 35.15-127.28 0-35.14-35.149-35.14-92.13 0-127.28 35.15-35.15 92.14-35.15 127.28 0z" fill="#bdf9ff"/><path d="m125 385c11.05 0 20 8.95 20 20s-8.95 20-20 20c-11.04 0-20-8.95-20-20s8.96-20 20-20z" fill="#fb2b3a"/><path d="m373.25 326.68-56.57 56.56-14.151-14.14 56.571-56.57z" fill="#a85120"/><path d="m429.81 383.24c15.62 15.62 15.62 40.95 0 56.569-15.62 15.62-40.94 15.62-56.56 0l-56.57-56.569 56.57-56.561zm-17.67 38.89c5.851-5.86 5.851-15.35 0-21.21-5.86-5.86-15.36-5.86-21.22 0s-5.86 15.35 0 21.21c5.859 5.86 15.359 5.86 21.22 0z" fill="#c86d36"/><path d="m359.1 312.53-56.571 56.57-14.139-14.14 10.61-10.61 35.35-35.35 10.61-10.61z" fill="#c86d36"/><path d="m432.5 272.5c4.15 0 7.5 3.36 7.5 7.5s-3.35 7.5-7.5 7.5c-4.141 0-7.5-3.36-7.5-7.5s3.359-7.5 7.5-7.5z"/><path d="m422.5 50c4.15 0 7.5 3.36 7.5 7.5s-3.35 7.5-7.5 7.5c-4.141 0-7.5-3.36-7.5-7.5s3.359-7.5 7.5-7.5z"/><path d="m302.5 455c4.15 0 7.5 3.36 7.5 7.5s-3.35 7.5-7.5 7.5c-4.141 0-7.5-3.36-7.5-7.5s3.359-7.5 7.5-7.5z"/><path d="m282.5 55c4.15 0 7.5 3.36 7.5 7.5s-3.35 7.5-7.5 7.5c-4.141 0-7.5-3.36-7.5-7.5s3.359-7.5 7.5-7.5z"/><path d="m212.5 385c4.15 0 7.5 3.36 7.5 7.5s-3.35 7.5-7.5 7.5c-4.14 0-7.5-3.36-7.5-7.5s3.36-7.5 7.5-7.5z"/><path d="m72.5 60c4.15 0 7.5 3.36 7.5 7.5s-3.35 7.5-7.5 7.5c-4.14 0-7.5-3.36-7.5-7.5s3.36-7.5 7.5-7.5z"/><path d="m57.5 340c4.15 0 7.5 3.36 7.5 7.5s-3.35 7.5-7.5 7.5c-4.14 0-7.5-3.36-7.5-7.5s3.36-7.5 7.5-7.5z"/><path d="m200.112 350.023c-36.133.002-72.021-13.941-99.108-41.028-26.442-26.441-41.004-61.599-41.004-98.995s14.563-72.554 41.004-98.996c54.592-54.581 143.411-54.581 197.992 0 46.638 46.639 54.311 119.382 18.93 174.492l19.96 19.969c1.952 1.953 1.952 5.119-.001 7.071-1.954 1.951-5.121 1.951-7.071-.001l-22.85-22.86c-1.701-1.702-1.948-4.374-.59-6.359 35.271-51.523 28.772-121.017-15.45-165.24-50.682-50.683-133.157-50.682-183.849 0-24.553 24.553-38.075 57.199-38.075 91.924s13.522 67.371 38.076 91.925c44.222 44.221 113.72 50.72 165.251 15.449 1.986-1.358 4.658-1.112 6.359.591l22.85 22.85c1.953 1.952 1.953 5.118 0 7.07-1.953 1.953-5.117 1.953-7.07 0l-19.96-19.959c-23.106 14.831-49.316 22.096-75.394 22.097z"/><path d="m401.529 456.524c-12.018 0-23.316-4.681-31.814-13.18l-84.861-84.85c-.938-.938-1.464-2.209-1.464-3.535s.526-2.598 1.464-3.535l56.57-56.57c.938-.938 2.21-1.465 3.536-1.465 1.326 0 2.599.526 3.536 1.465l84.85 84.851c8.498 8.499 13.18 19.8 13.18 31.82s-4.682 23.321-13.18 31.82c-8.5 8.499-19.799 13.179-31.817 13.179zm-106.068-101.564 81.324 81.314c6.61 6.61 15.398 10.25 24.744 10.25 9.348 0 18.135-3.64 24.744-10.25 6.611-6.61 10.252-15.399 10.252-24.749s-3.641-18.14-10.252-24.75l-81.313-81.314z"/><path d="m200.003 305.003c-25.376 0-49.235-9.883-67.179-27.828-37.031-37.04-37.031-97.31 0-134.35 17.945-17.945 41.803-27.827 67.18-27.827s49.233 9.882 67.172 27.827c17.943 17.944 27.826 41.801 27.826 67.175s-9.883 49.231-27.826 67.175c-17.94 17.945-41.795 27.828-67.173 27.828zm0-180.005c-22.706 0-44.052 8.842-60.108 24.898-33.132 33.142-33.133 87.067 0 120.209 16.055 16.056 37.402 24.898 60.107 24.898s44.049-8.843 60.1-24.898c16.057-16.056 24.898-37.401 24.898-60.104 0-22.704-8.842-44.049-24.898-60.104-16.049-16.058-37.393-24.899-60.099-24.899z"/><path d="m238.64 176.36c-1.28 0-2.559-.488-3.536-1.464-9.376-9.376-21.843-14.541-35.104-14.541s-25.728 5.164-35.104 14.541c-1.953 1.952-5.118 1.952-7.071 0-1.953-1.953-1.953-5.119 0-7.071 11.266-11.265 26.244-17.469 42.176-17.469s30.91 6.204 42.175 17.469c1.953 1.953 1.953 5.119 0 7.071-.977.976-2.257 1.464-3.536 1.464z"/><path d="m302.529 374.1c-1.279 0-2.559-.488-3.535-1.465-1.953-1.952-1.953-5.118 0-7.07l56.57-56.569c1.953-1.953 5.119-1.952 7.07 0 1.953 1.952 1.953 5.118 0 7.07l-56.569 56.569c-.975.976-2.256 1.465-3.536 1.465z"/><path d="m316.68 388.24c-1.279 0-2.56-.488-3.535-1.465-1.953-1.953-1.953-5.118 0-7.071l56.48-56.471c.911-.96 2.198-1.559 3.625-1.559 2.762 0 5 2.233 5 4.995 0 1.326-.527 2.607-1.465 3.546l-56.57 56.561c-.977.976-2.256 1.464-3.535 1.464z"/><path d="m401.529 431.525c-5.343 0-10.367-2.081-14.145-5.86-7.797-7.797-7.797-20.483 0-28.28 3.777-3.779 8.802-5.86 14.145-5.86 5.344 0 10.367 2.081 14.146 5.86 7.784 7.798 7.784 20.482.002 28.277-3.781 3.782-8.804 5.863-14.148 5.863zm0-30.001c-2.672 0-5.184 1.041-7.074 2.931-3.898 3.898-3.898 10.241 0 14.14 1.891 1.89 4.402 2.931 7.074 2.931 2.673 0 5.186-1.041 7.074-2.931 3.891-3.897 3.891-10.242-.002-14.143-1.886-1.887-4.399-2.928-7.072-2.928z"/><path d="m125 430c-13.785 0-25-11.215-25-25s11.215-25 25-25 25 11.215 25 25-11.215 25-25 25zm0-40c-8.271 0-15 6.729-15 15s6.729 15 15 15 15-6.729 15-15-6.729-15-15-15z"/><path d="m430 195c-22.057 0-40-17.944-40-40s17.943-40 40-40 40 17.944 40 40-17.943 40-40 40zm0-70c-16.542 0-30 13.458-30 30s13.458 30 30 30 30-13.458 30-30-13.458-30-30-30z"/></g></g></svg>