<svg enable-background="new 0 0 520 520" height="512" viewBox="0 0 520 520" width="512" xmlns="http://www.w3.org/2000/svg"><g id="_x34_99_x2C__Bulb_x2C__Idea_x2C__Light_x2C__Tips"><g><path d="m250 42.5c-88.36 0-160 71.63-160 160 0 68.1 42.55 126.25 102.5 149.35v35.65h47.5 20 47.5v-35.65c59.96-23.1 102.5-81.25 102.5-149.35 0-88.37-71.631-160-160-160z" fill="#bdf9ff"/><path d="m432.5 307.5c12.43 0 22.5 10.07 22.5 22.5s-10.07 22.5-22.5 22.5c-12.42 0-22.5-10.07-22.5-22.5s10.08-22.5 22.5-22.5z" fill="#fb2b3a"/><path d="m85 352.5c16.57 0 30 13.43 30 30s-13.43 30-30 30c-16.56 0-30-13.43-30-30s13.44-30 30-30z" fill="#fb2b3a"/><path d="m270 447.5v10c0 11.05-8.95 20-20 20-11.04 0-20-8.95-20-20v-10z" fill="#757d8c"/><path d="m307.5 417.5v6.75c0 12.84-10.41 23.25-23.25 23.25h-14.25-40-14.25c-12.84 0-23.25-10.41-23.25-23.25v-6.75z" fill="#414a56"/><path d="m307.5 387.5v30h-115v-30h47.5 20z" fill="#757d8c"/><path d="m368.26 205.76-20.68-.69c0-53.89-43.69-97.57-97.58-97.57-53.88 0-97.57 43.68-97.57 97.57l-20.69.69c0-65.31 52.95-118.26 118.26-118.26 65.32 0 118.26 52.95 118.26 118.26z" fill="#8cf2ff"/><path d="m467.5 222.5c4.15 0 7.5 3.36 7.5 7.5s-3.35 7.5-7.5 7.5c-4.141 0-7.5-3.36-7.5-7.5s3.359-7.5 7.5-7.5z"/><path d="m412.5 37.5c4.15 0 7.5 3.36 7.5 7.5s-3.35 7.5-7.5 7.5c-4.141 0-7.5-3.36-7.5-7.5s3.359-7.5 7.5-7.5z"/><path d="m367.5 392.5c4.15 0 7.5 3.36 7.5 7.5s-3.35 7.5-7.5 7.5c-4.141 0-7.5-3.36-7.5-7.5s3.359-7.5 7.5-7.5z"/><path d="m157.5 402.5c4.15 0 7.5 3.36 7.5 7.5s-3.35 7.5-7.5 7.5c-4.14 0-7.5-3.36-7.5-7.5s3.36-7.5 7.5-7.5z"/><path d="m122.5 42.5c4.15 0 7.5 3.36 7.5 7.5s-3.35 7.5-7.5 7.5c-4.14 0-7.5-3.36-7.5-7.5s3.36-7.5 7.5-7.5z"/><path d="m67.5 282.5c4.15 0 7.5 3.36 7.5 7.5s-3.35 7.5-7.5 7.5c-4.14 0-7.5-3.36-7.5-7.5s3.36-7.5 7.5-7.5z"/><path d="m52.5 127.5c4.15 0 7.5 3.36 7.5 7.5s-3.35 7.5-7.5 7.5c-4.14 0-7.5-3.36-7.5-7.5s3.36-7.5 7.5-7.5z"/><path d="m307.5 392.5c-2.762 0-5-2.238-5-5v-35.65c0-2.067 1.273-3.922 3.203-4.666 59.393-22.881 99.297-81.025 99.297-144.684 0-85.467-69.533-155-155-155s-155 69.533-155 155c0 63.655 39.905 121.799 99.298 144.684 1.929.744 3.202 2.599 3.202 4.666v35.65c0 2.762-2.239 5-5 5s-5-2.238-5-5v-32.257c-29.396-12.03-54.523-32.141-72.829-58.329-19.411-27.768-29.671-60.415-29.671-94.414 0-90.981 74.019-165 165-165s165 74.019 165 165c0 34-10.259 66.648-29.667 94.414-18.306 26.189-43.435 46.3-72.833 58.329v32.257c0 2.762-2.238 5-5 5z"/><path d="m292.501 321.151c-2.008 0-3.901-1.218-4.667-3.203-.992-2.576.291-5.471 2.868-6.464 43.399-16.725 72.558-59.212 72.558-105.725 0-62.452-50.809-113.26-113.26-113.26-62.452 0-113.26 50.808-113.26 113.26 0 46.509 29.159 88.996 72.559 105.726 2.577.993 3.86 3.887 2.867 6.464-.994 2.576-3.888 3.861-6.464 2.866-22.988-8.86-42.627-24.258-56.796-44.527-14.501-20.744-22.166-45.133-22.166-70.528 0-67.966 55.294-123.26 123.26-123.26s123.26 55.294 123.26 123.26c0 25.397-7.664 49.785-22.162 70.528-14.168 20.271-33.809 35.668-56.8 44.527-.591.229-1.199.336-1.797.336z"/><path d="m131.737 210.76c-2.685 0-4.904-2.13-4.994-4.833-.092-2.76 2.07-5.072 4.831-5.164l15.969-.533c2.536-54.319 47.522-97.73 102.458-97.73 54.939 0 99.931 43.411 102.467 97.73l15.959.533c2.761.092 4.924 2.404 4.831 5.164-.092 2.76-2.438 4.923-5.163 4.831l-20.681-.69c-2.695-.09-4.833-2.301-4.833-4.997 0-51.043-41.531-92.57-92.58-92.57-51.043 0-92.57 41.527-92.57 92.57 0 2.697-2.138 4.907-4.833 4.997l-20.69.69c-.058.001-.115.002-.171.002z"/><path d="m307.5 422.5c-2.762 0-5-2.238-5-5v-25h-105v25c0 2.762-2.239 5-5 5s-5-2.238-5-5v-30c0-2.762 2.239-5 5-5h115c2.762 0 5 2.238 5 5v30c0 2.762-2.238 5-5 5z"/><path d="m284.25 452.5h-14.25c-2.762 0-5-2.238-5-5s2.238-5 5-5h14.25c10.063 0 18.25-8.187 18.25-18.25v-1.75h-105v1.75c0 10.063 8.187 18.25 18.25 18.25h14.25c2.761 0 5 2.238 5 5s-2.239 5-5 5h-14.25c-15.577 0-28.25-12.673-28.25-28.25v-6.75c0-2.762 2.239-5 5-5h115c2.762 0 5 2.238 5 5v6.75c0 15.577-12.673 28.25-28.25 28.25z"/><path d="m250 482.5c-13.785 0-25-11.215-25-25v-10c0-2.762 2.239-5 5-5h40c2.762 0 5 2.238 5 5v10c0 13.785-11.215 25-25 25zm-15-30v5c0 8.271 6.729 15 15 15s15-6.729 15-15v-5z"/><path d="m220 222.68c-2.761 0-5-2.239-5-5v-15.18c0-2.761 2.239-5 5-5s5 2.239 5 5v15.18c0 2.761-2.239 5-5 5z"/><path d="m205 252.5c-5.34 0-10.364-2.083-14.146-5.864-3.775-3.776-5.854-8.796-5.854-14.136 0-11.028 8.972-20 20-20h12.17c1.166 0 2.333.075 3.47.221 2.493.322 4.36 2.445 4.36 4.959v14.82c0 5.34-2.079 10.36-5.854 14.136-3.782 3.781-8.806 5.864-14.146 5.864zm0-30c-5.514 0-10 4.486-10 10 0 2.669 1.039 5.178 2.925 7.064 1.893 1.893 4.405 2.936 7.075 2.936 2.669 0 5.181-1.042 7.074-2.936 1.887-1.887 2.926-4.396 2.926-7.064v-10z"/><path d="m240 392.5c-2.761 0-5-2.238-5-5v-147.17c0-8.987-6.711-16.591-15.611-17.688-2.741-.337-4.689-2.833-4.351-5.574.337-2.741 2.833-4.692 5.574-4.351 13.903 1.714 24.388 13.584 24.388 27.613v147.17c0 2.762-2.239 5-5 5z"/><path d="m260 392.5c-2.762 0-5-2.238-5-5v-147.17c0-14.027 10.484-25.898 24.389-27.612 2.737-.335 5.235 1.609 5.574 4.351.338 2.741-1.61 5.236-4.352 5.574-8.9 1.098-15.611 8.702-15.611 17.688v147.169c0 2.762-2.238 5-5 5z"/><path d="m295 252.5c-11.027 0-20-8.972-20-20v-14.82c0-2.514 1.866-4.637 4.359-4.959 1.137-.146 2.309-.221 3.48-.221h12.161c5.34 0 10.363 2.083 14.145 5.864 3.776 3.776 5.855 8.796 5.855 14.136s-2.079 10.36-5.854 14.136c-3.783 3.781-8.806 5.864-14.146 5.864zm-10-30v10c0 5.514 4.486 10 10 10 2.669 0 5.182-1.042 7.074-2.936 1.887-1.887 2.926-4.396 2.926-7.064s-1.039-5.178-2.926-7.064c-1.893-1.893-4.406-2.936-7.074-2.936z"/><path d="m280 222.68c-2.762 0-5-2.239-5-5v-15.18c0-2.761 2.238-5 5-5s5 2.239 5 5v15.18c0 2.761-2.238 5-5 5z"/><path d="m85 417.5c-19.299 0-35-15.701-35-35s15.701-35 35-35 35 15.701 35 35-15.701 35-35 35zm0-60c-13.785 0-25 11.215-25 25s11.215 25 25 25 25-11.215 25-25-11.215-25-25-25z"/><path d="m432.5 357.5c-15.164 0-27.5-12.337-27.5-27.5s12.336-27.5 27.5-27.5 27.5 12.337 27.5 27.5-12.336 27.5-27.5 27.5zm0-45c-9.649 0-17.5 7.851-17.5 17.5s7.851 17.5 17.5 17.5 17.5-7.851 17.5-17.5-7.851-17.5-17.5-17.5z"/></g></g></svg>