<svg enable-background="new 0 0 520 520" height="512" viewBox="0 0 520 520" width="512" xmlns="http://www.w3.org/2000/svg"><g id="_x35_00_x2C__Disk_x2C__Dvd_x2C__Multimedia"><g><path d="m440 52.5c16.57 0 30 13.43 30 30s-13.43 30-30 30c-16.561 0-30-13.43-30-30s13.439-30 30-30z" fill="#ff5622"/><path d="m70 407.5c13.81 0 25 11.19 25 25s-11.19 25-25 25c-13.8 0-25-11.19-25-25s11.2-25 25-25z" fill="#ff5622"/><path d="m271.68 194.5c12.03 2.94 23.42 9.11 32.82 18.5 9.72 9.72 15.98 21.58 18.789 34.06 5.101 22.64-1.17 47.32-18.789 64.94-18.32 18.32-44.29 24.36-67.65 18.12-11.48-3.08-22.34-9.12-31.34-18.12-9.28-9.28-15.4-20.51-18.38-32.37-5.81-23.09.32-48.57 18.38-66.63 17.94-17.94 43.2-24.1 66.17-18.5zm9.53 94.2c14.47-14.47 14.47-37.93 0-52.4-14.47-14.48-37.94-14.48-52.41 0-14.47 14.47-14.47 37.931 0 52.4 14.47 14.48 37.94 14.48 52.41 0z" fill="#57606f"/><path d="m438.08 195.22c-9.45-25.76-24.51-49.93-45.19-70.61-19.75-19.74-42.67-34.37-67.13-43.87-69.87-27.16-152.23-12.54-208.64 43.87-55.9 55.91-70.77 137.31-44.59 206.77 9.48 25.16 24.34 48.76 44.59 69.01 19.37 19.37 41.8 33.811 65.74 43.32 70.16 27.9 153.25 13.46 210.03-43.32 55.469-55.48 70.54-136.06 45.19-205.17zm-133.58 116.78c-18.32 18.32-44.29 24.36-67.65 18.12-11.48-3.08-22.34-9.12-31.34-18.12-9.28-9.28-15.4-20.51-18.38-32.37-5.81-23.09.32-48.57 18.38-66.63 17.94-17.94 43.2-24.1 66.17-18.5 12.03 2.94 23.42 9.11 32.82 18.5 9.72 9.72 15.98 21.58 18.789 34.06 5.101 22.64-1.17 47.32-18.789 64.94z" fill="#757d8c"/><path d="m236.85 330.12-.01.04-53.98 113.55c-23.94-9.51-46.37-23.95-65.74-43.32-20.25-20.25-35.11-43.85-44.59-69.01l114.6-51.75c2.98 11.86 9.1 23.09 18.38 32.37 9 9 19.86 15.04 31.34 18.12z" fill="#414a56"/><path d="m438.08 195.22h-.01l-114.781 51.84c-2.809-12.48-9.069-24.34-18.789-34.06-9.4-9.39-20.79-15.56-32.82-18.5l54.08-113.75v-.01c24.46 9.5 47.38 24.13 67.13 43.87 20.68 20.68 35.74 44.85 45.19 70.61z" fill="#414a56"/><path d="m472.5 162.5c4.15 0 7.5 3.36 7.5 7.5s-3.35 7.5-7.5 7.5c-4.141 0-7.5-3.36-7.5-7.5s3.359-7.5 7.5-7.5z"/><path d="m457.5 372.5c4.15 0 7.5 3.36 7.5 7.5s-3.35 7.5-7.5 7.5c-4.141 0-7.5-3.36-7.5-7.5s3.359-7.5 7.5-7.5z"/><path d="m382.5 462.5c4.15 0 7.5 3.36 7.5 7.5s-3.35 7.5-7.5 7.5c-4.141 0-7.5-3.36-7.5-7.5s3.359-7.5 7.5-7.5z"/><path d="m367.5 42.5c4.15 0 7.5 3.36 7.5 7.5s-3.35 7.5-7.5 7.5c-4.141 0-7.5-3.36-7.5-7.5s3.359-7.5 7.5-7.5z"/><path d="m137.5 452.5c4.15 0 7.5 3.36 7.5 7.5s-3.35 7.5-7.5 7.5c-4.14 0-7.5-3.36-7.5-7.5s3.36-7.5 7.5-7.5z"/><path d="m107.5 57.5c4.15 0 7.5 3.36 7.5 7.5s-3.35 7.5-7.5 7.5c-4.14 0-7.5-3.36-7.5-7.5s3.36-7.5 7.5-7.5z"/><path d="m57.5 357.5c4.15 0 7.5 3.36 7.5 7.5s-3.35 7.5-7.5 7.5c-4.14 0-7.5-3.36-7.5-7.5s3.36-7.5 7.5-7.5z"/><path d="m52.5 127.5c4.15 0 7.5 3.36 7.5 7.5s-3.35 7.5-7.5 7.5c-4.14 0-7.5-3.36-7.5-7.5s3.36-7.5 7.5-7.5z"/><path d="m255.005 304.56c-11.237 0-21.799-4.377-29.742-12.325-7.942-7.941-12.316-18.502-12.316-29.734s4.374-21.793 12.317-29.736c7.941-7.947 18.504-12.324 29.741-12.324 11.236 0 21.799 4.377 29.741 12.326 16.396 16.396 16.396 43.074 0 59.47-7.942 7.946-18.505 12.323-29.741 12.323zm0-74.12c-8.564 0-16.615 3.336-22.668 9.394-6.055 6.056-9.389 14.104-9.389 22.666s3.334 16.61 9.388 22.665c6.055 6.059 14.105 9.395 22.669 9.395 8.563 0 16.614-3.336 22.669-9.394 12.498-12.498 12.498-32.833 0-45.331-6.055-6.059-14.106-9.395-22.669-9.395z"/><path d="m271.68 199.505c-2.762 0-5-2.234-5-4.995 0-.743.166-1.486.484-2.157l54.08-113.75c1.186-2.494 4.166-3.556 6.662-2.369 2.494 1.186 3.555 4.168 2.369 6.663l-54.025 113.636c-.779 1.75-2.532 2.972-4.57 2.972z"/><path d="m323.287 252.062c-1.854 0-3.636-1.03-4.502-2.805-1.21-2.481-.189-5.47 2.293-6.681l.02-.01c.044-.022.089-.043.134-.063l114.78-51.84c2.516-1.138 5.479-.019 6.615 2.499 1.137 2.517.018 5.479-2.499 6.615l-114.77 51.835c-.67.305-1.376.45-2.071.45z"/><path d="m182.756 448.911c-.751 0-1.514-.17-2.232-.529-2.47-1.234-3.471-4.238-2.236-6.708l.1-.2 53.937-113.46c1.185-2.494 4.168-3.554 6.662-2.369 2.494 1.186 3.555 4.168 2.369 6.662l-54.124 113.84c-.876 1.751-2.642 2.764-4.476 2.764z"/><path d="m72.443 336.421c-1.914 0-3.741-1.104-4.57-2.966-1.124-2.522.009-5.479 2.532-6.603l114.598-51.749c2.474-1.229 5.475-.223 6.704 2.249 1.23 2.473.223 5.474-2.249 6.704l-.1.05c-.056.027-.113.055-.17.08l-114.6 51.75c-.007.004-.104.047-.112.051-.662.294-1.353.434-2.033.434z"/><path d="m254.993 337.498c-6.567 0-13.105-.856-19.434-2.547-12.671-3.4-24.282-10.113-33.585-19.416-9.592-9.593-16.402-21.587-19.693-34.687-6.41-25.474 1.136-52.827 19.693-71.384 14.164-14.164 33.001-21.964 53.042-21.964 6.013 0 12.018.72 17.847 2.142 13.277 3.245 25.438 10.098 35.17 19.82 10.063 10.063 17.023 22.683 20.135 36.5 5.691 25.267-1.834 51.275-20.133 69.573-14.162 14.163-33 21.963-53.042 21.963zm.023-139.998c-17.37 0-33.696 6.76-45.971 19.035-16.083 16.083-22.623 39.792-17.067 61.875 2.852 11.348 8.753 21.74 17.067 30.055 8.063 8.063 18.126 13.882 29.1 16.826 5.481 1.464 11.151 2.207 16.847 2.207 17.371 0 33.698-6.76 45.972-19.033 15.858-15.859 22.381-38.403 17.447-60.306-2.695-11.968-8.729-22.903-17.447-31.623-8.438-8.428-18.975-14.369-30.473-17.179-5.052-1.232-10.259-1.857-15.475-1.857z"/><path d="m255.015 462.499c-25.506 0-50.405-4.759-74.003-14.143-25.316-10.057-48.002-25.006-67.428-44.432-20.297-20.297-35.684-44.111-45.733-70.782-27.657-73.377-9.706-156.619 45.733-212.068 37.773-37.773 87.994-58.576 141.409-58.576 24.976 0 49.395 4.569 72.578 13.582 25.868 10.047 49.034 25.185 68.853 44.993 20.732 20.731 36.326 45.098 46.35 72.425 12.962 35.336 15.697 73.528 7.911 110.45-7.991 37.896-26.754 72.467-54.259 99.977-37.772 37.772-87.992 58.574-141.411 58.574zm-.022-390c-50.745 0-98.453 19.763-134.338 55.647-52.668 52.677-69.722 131.76-43.447 201.471 9.544 25.331 24.162 47.953 43.447 67.238 18.457 18.456 40.006 32.657 64.05 42.209 22.419 8.915 46.074 13.436 70.31 13.436 50.747 0 98.457-19.762 134.338-55.645 52.159-52.168 69.442-130.638 44.031-199.913-9.52-25.954-24.334-49.1-44.031-68.796-18.83-18.821-40.836-33.202-65.404-42.745-22.025-8.562-45.224-12.902-68.956-12.902z"/><path d="m360.39 372.89c-1.279 0-2.559-.488-3.535-1.464-1.952-1.952-1.953-5.118-.001-7.071 30.697-30.705 45.809-73.115 41.461-116.354-.275-2.748 1.728-5.199 4.475-5.475 2.759-.271 5.199 1.728 5.476 4.475 4.648 46.237-11.513 91.588-44.339 124.425-.978.975-2.257 1.464-3.537 1.464z"/><path d="m107.303 287.501c-2.464 0-4.61-1.823-4.949-4.333-6.483-48.084 9.456-95.319 43.729-129.594 29.094-29.092 67.774-45.114 108.917-45.114 2.762 0 5 2.239 5 5s-2.238 5-5 5c-38.472 0-74.641 14.982-101.845 42.186-32.049 32.05-46.953 76.22-40.891 121.187.369 2.736-1.55 5.254-4.287 5.623-.226.029-.451.045-.674.045z"/><path d="m70 462.5c-16.542 0-30-13.458-30-30s13.458-30 30-30 30 13.458 30 30-13.458 30-30 30zm0-50c-11.028 0-20 8.972-20 20s8.972 20 20 20 20-8.972 20-20-8.972-20-20-20z"/><path d="m440 117.5c-19.299 0-35-15.701-35-35s15.701-35 35-35 35 15.701 35 35-15.701 35-35 35zm0-60c-13.785 0-25 11.215-25 25s11.215 25 25 25 25-11.215 25-25-11.215-25-25-25z"/></g></g></svg>