<svg enable-background="new 0 0 512 512" height="512" viewBox="0 0 512 512" width="512" xmlns="http://www.w3.org/2000/svg"><g id="_x38_51-Headset_x2C__Help_x2C__Support"><g fill="#ffd400"><path d="m425 80c13.81 0 25 11.19 25 25s-11.19 25-25 25-25-11.19-25-25 11.19-25 25-25z"/><path d="m280 350c11.05 0 20 8.95 20 20s-8.95 20-20 20-20-8.95-20-20 8.95-20 20-20z"/><path d="m60 130c11.05 0 20 8.95 20 20s-8.95 20-20 20-20-8.95-20-20 8.95-20 20-20z"/></g><path d="m430 290h50v150h-50z" fill="#545b66"/><path d="m40 290h50v150h-50z" fill="#545b66"/><path d="m430 440v30h-70v-210h70v30z" fill="#757d8c"/><path d="m160 260v210h-70c0-10.385 0-199.608 0-210z" fill="#757d8c"/><path d="m460 40c5.52 0 10 4.48 10 10s-4.48 10-10 10-10-4.48-10-10 4.48-10 10-10z"/><path d="m450 210c5.52 0 10 4.48 10 10s-4.48 10-10 10-10-4.48-10-10 4.48-10 10-10z"/><path d="m280 210c5.52 0 10 4.48 10 10s-4.48 10-10 10-10-4.48-10-10 4.48-10 10-10z"/><path d="m220 280c5.52 0 10 4.48 10 10s-4.48 10-10 10-10-4.48-10-10 4.48-10 10-10z"/><path d="m100 60c5.52 0 10 4.48 10 10s-4.48 10-10 10-10-4.48-10-10 4.48-10 10-10z"/><path d="m70 210c5.52 0 10 4.48 10 10s-4.48 10-10 10-10-4.48-10-10 4.48-10 10-10z"/><path d="m430 480h-70c-5.522 0-10-4.478-10-10v-210c0-5.523 4.478-10 10-10h70c5.522 0 10 4.477 10 10v30c0 5.522-4.478 10-10 10s-10-4.478-10-10v-20h-50v190h50v-20c0-5.522 4.478-10 10-10s10 4.478 10 10v30c0 5.522-4.478 10-10 10z"/><path d="m480 450h-50c-5.522 0-10-4.478-10-10v-150c0-5.522 4.478-10 10-10h50c5.522 0 10 4.478 10 10v150c0 5.522-4.478 10-10 10zm-40-20h30v-130h-30z"/><path d="m160 480h-70c-5.523 0-10-4.478-10-10v-30c0-5.522 4.477-10 10-10s10 4.478 10 10v20h50v-190h-50v20c0 5.522-4.477 10-10 10s-10-4.478-10-10v-30c0-5.523 4.477-10 10-10h70c5.523 0 10 4.477 10 10v210c0 5.522-4.477 10-10 10z"/><path d="m90 450h-50c-5.523 0-10-4.478-10-10v-150c0-5.522 4.477-10 10-10h50c5.523 0 10 4.478 10 10v150c0 5.522-4.477 10-10 10zm-40-20h30v-130h-30z"/><path d="m390 240h-30c-5.522 0-10-4.477-10-10v-160h-190v160c0 5.523-4.477 10-10 10h-30c-5.523 0-10-4.477-10-10s4.477-10 10-10h20v-160c0-5.523 4.477-10 10-10h210c5.522 0 10 4.477 10 10v160h20c5.522 0 10 4.477 10 10s-4.478 10-10 10z"/><path d="m330 110h-150c-5.523 0-10-4.477-10-10s4.477-10 10-10h150c5.522 0 10 4.477 10 10s-4.478 10-10 10z"/><path d="m60 180c-16.542 0-30-13.458-30-30s13.458-30 30-30 30 13.458 30 30-13.458 30-30 30zm0-40c-5.514 0-10 4.486-10 10s4.486 10 10 10 10-4.486 10-10-4.486-10-10-10z"/><path d="m280 400c-16.542 0-30-13.458-30-30s13.458-30 30-30 30 13.458 30 30-13.458 30-30 30zm0-40c-5.514 0-10 4.486-10 10s4.486 10 10 10 10-4.486 10-10-4.486-10-10-10z"/><path d="m425 140c-19.299 0-35-15.701-35-35s15.701-35 35-35 35 15.701 35 35-15.701 35-35 35zm0-50c-8.271 0-15 6.729-15 15s6.729 15 15 15 15-6.729 15-15-6.729-15-15-15z"/></g></svg>