<svg enable-background="new 0 0 512 512" height="512" viewBox="0 0 512 512" width="512" xmlns="http://www.w3.org/2000/svg"><g id="_x38_52-Error_x2C__Notice_x2C__Warning"><path d="m425 90c13.81 0 25 11.19 25 25s-11.19 25-25 25-25-11.19-25-25 11.19-25 25-25z" fill="#07cc66"/><path d="m80 150c11.05 0 20 8.95 20 20s-8.95 20-20 20-20-8.95-20-20 8.95-20 20-20z" fill="#07cc66"/><path d="m458.75 386.26c16.36 28.33-4.09 63.74-36.8 63.74h-323.9c-32.71 0-53.16-35.41-36.8-63.74l161.95-280.51c16.35-28.33 57.25-28.33 73.6 0z" fill="#313a52"/><path d="m277.68 367.32c4.52 4.52 7.32 10.78 7.32 17.68s-2.8 13.16-7.32 17.68-10.78 7.32-17.68 7.32c-13.81 0-25-11.19-25-25 0-6.9 2.8-13.16 7.32-17.68s10.78-7.32 17.68-7.32 13.16 2.8 17.68 7.32z" fill="#ffd400"/><path d="m285 165v140c0 13.81-11.19 25-25 25s-25-11.19-25-25v-140c0-13.81 11.19-25 25-25 6.9 0 13.16 2.8 17.68 7.32s7.32 10.78 7.32 17.68z" fill="#ffd400"/><path d="m450 210c5.52 0 10 4.48 10 10s-4.48 10-10 10-10-4.48-10-10 4.48-10 10-10z"/><path d="m350 60c5.52 0 10 4.48 10 10s-4.48 10-10 10-10-4.48-10-10 4.48-10 10-10z"/><path d="m60 90c5.52 0 10 4.48 10 10s-4.48 10-10 10-10-4.48-10-10 4.48-10 10-10z"/><path d="m60 260c5.52 0 10 4.48 10 10s-4.48 10-10 10-10-4.48-10-10 4.48-10 10-10z"/><path d="m260 340c-19.299 0-35-15.701-35-35v-140c0-19.299 15.701-35 35-35 9.353 0 18.143 3.64 24.751 10.249 6.609 6.608 10.249 15.398 10.249 24.751v140c0 19.299-15.701 35-35 35zm0-190c-8.271 0-15 6.729-15 15v140c0 8.271 6.729 15 15 15s15-6.729 15-15v-140c0-4.01-1.56-7.777-4.391-10.609-2.832-2.832-6.599-4.391-10.609-4.391z"/><path d="m260 420c-19.299 0-35-15.701-35-35 0-9.353 3.64-18.143 10.249-24.751 6.608-6.609 15.398-10.249 24.751-10.249s18.144 3.641 24.752 10.25c6.607 6.606 10.248 15.397 10.248 24.75s-3.641 18.144-10.25 24.752c-6.606 6.607-15.397 10.248-24.75 10.248zm0-50c-4.01 0-7.777 1.56-10.609 4.391-2.832 2.832-4.391 6.599-4.391 10.609 0 8.271 6.729 15 15 15 4.01 0 7.777-1.56 10.607-4.391 2.833-2.832 4.393-6.599 4.393-10.609s-1.56-7.777-4.391-10.607c-2.832-2.833-6.599-4.393-10.609-4.393z"/><path d="m421.95 460h-323.9c-18.979 0-35.975-9.813-45.463-26.25-9.488-16.435-9.486-36.058.004-52.491l161.949-280.509c9.484-16.435 26.479-26.248 45.46-26.248s35.976 9.813 45.461 26.249l161.949 280.509c9.489 16.433 9.491 36.056.004 52.49-9.489 16.437-26.484 26.25-45.464 26.25zm-161.95-365.498c-11.749 0-22.268 6.073-28.139 16.246l-161.951 280.512c-5.875 10.173-5.875 22.318-.003 32.491 5.874 10.175 16.395 16.249 28.143 16.249h323.9c11.748 0 22.269-6.074 28.143-16.249 5.873-10.173 5.871-22.318-.003-32.49l-161.95-280.511c-5.872-10.174-16.391-16.248-28.14-16.248z"/><path d="m80 200c-16.542 0-30-13.458-30-30s13.458-30 30-30 30 13.458 30 30-13.458 30-30 30zm0-40c-5.514 0-10 4.486-10 10s4.486 10 10 10 10-4.486 10-10-4.486-10-10-10z"/><path d="m425 150c-19.299 0-35-15.701-35-35s15.701-35 35-35 35 15.701 35 35-15.701 35-35 35zm0-50c-8.271 0-15 6.729-15 15s6.729 15 15 15 15-6.729 15-15-6.729-15-15-15z"/></g></svg>