<svg enable-background="new 0 0 512 512" height="512" viewBox="0 0 512 512" width="512" xmlns="http://www.w3.org/2000/svg"><g id="_x38_53-Note_x2C__Pad_Icon"><path d="m60 340c11.05 0 20 8.95 20 20s-8.95 20-20 20-20-8.95-20-20 8.95-20 20-20z" fill="#d94556"/><path d="m465 130c13.81 0 25 11.19 25 25s-11.19 25-25 25-25-11.19-25-25 11.19-25 25-25z" fill="#d94556"/><path d="m350 420h60c-20.11 20.11-39.89 39.89-60 60z" fill="#94d4ff"/><path d="m410 70v350h-60v60h-240v-410z" fill="#bce4ff"/><path d="m460 260c5.52 0 10 4.48 10 10s-4.48 10-10 10-10-4.48-10-10 4.48-10 10-10z"/><path d="m450 70c5.52 0 10 4.48 10 10s-4.48 10-10 10-10-4.48-10-10 4.48-10 10-10z"/><path d="m430 450c5.52 0 10 4.48 10 10s-4.48 10-10 10-10-4.48-10-10 4.48-10 10-10z"/><path d="m300 390c5.52 0 10 4.48 10 10s-4.48 10-10 10-10-4.48-10-10 4.48-10 10-10z"/><path d="m80 410c5.52 0 10 4.48 10 10s-4.48 10-10 10-10-4.48-10-10 4.48-10 10-10z"/><path d="m70 240c5.52 0 10 4.48 10 10s-4.48 10-10 10-10-4.48-10-10 4.48-10 10-10z"/><path d="m60 90c5.52 0 10 4.48 10 10s-4.48 10-10 10-10-4.48-10-10 4.48-10 10-10z"/><path d="m350 490c-5.522 0-10-4.478-10-10v-60c0-5.522 4.478-10 10-10h60c5.522 0 10 4.478 10 10s-4.478 10-10 10h-50v50c0 5.522-4.478 10-10 10z"/><path d="m350 490h-240c-5.523 0-10-4.478-10-10v-410c0-5.523 4.477-10 10-10h300c5.522 0 10 4.477 10 10v350c0 2.652-1.054 5.195-2.929 7.071l-60 60c-1.876 1.875-4.419 2.929-7.071 2.929zm-230-20h225.857l54.143-54.143v-335.857h-280z"/><path d="m155 100c-5.523 0-10-4.477-10-10s4.477-10 10-10c7.105 0 13.288-5.043 14.701-11.992.198-.977.299-1.988.299-3.008 0-8.271-6.729-15-15-15s-15 6.729-15 15c0 5.523-4.477 10-10 10s-10-4.477-10-10c0-19.299 15.701-35 35-35s35 15.701 35 35c0 2.358-.236 4.712-.701 6.997-3.299 16.224-17.724 28.003-34.299 28.003z"/><path d="m205 100c-5.523 0-10-4.477-10-10s4.477-10 10-10c7.105 0 13.288-5.043 14.701-11.992.198-.977.299-1.988.299-3.008 0-8.271-6.729-15-15-15s-15 6.729-15 15c0 5.523-4.477 10-10 10s-10-4.477-10-10c0-19.299 15.701-35 35-35s35 15.701 35 35c0 2.358-.236 4.712-.701 6.997-3.299 16.224-17.724 28.003-34.299 28.003z"/><path d="m255 100c-5.523 0-10-4.477-10-10s4.477-10 10-10c7.104 0 13.287-5.043 14.7-11.993.199-.977.3-1.987.3-3.007 0-8.271-6.729-15-15-15s-15 6.729-15 15c0 5.523-4.477 10-10 10s-10-4.477-10-10c0-19.299 15.701-35 35-35s35 15.701 35 35c0 2.358-.236 4.712-.701 6.997-3.3 16.224-17.725 28.003-34.299 28.003z"/><path d="m305 100c-5.522 0-10-4.477-10-10s4.478-10 10-10c7.104 0 13.287-5.043 14.7-11.993.199-.977.3-1.987.3-3.007 0-8.271-6.729-15-15-15s-15 6.729-15 15c0 5.523-4.478 10-10 10s-10-4.477-10-10c0-19.299 15.701-35 35-35s35 15.701 35 35c0 2.358-.236 4.712-.701 6.997-3.3 16.224-17.725 28.003-34.299 28.003z"/><path d="m355 100c-5.522 0-10-4.477-10-10s4.478-10 10-10c7.104 0 13.287-5.043 14.7-11.993.199-.977.3-1.987.3-3.007 0-8.271-6.729-15-15-15s-15 6.729-15 15c0 5.523-4.478 10-10 10s-10-4.477-10-10c0-19.299 15.701-35 35-35s35 15.701 35 35c0 2.358-.236 4.712-.701 6.997-3.3 16.224-17.725 28.003-34.299 28.003z"/><path d="m370 200h-220c-5.523 0-10-4.477-10-10s4.477-10 10-10h220c5.522 0 10 4.477 10 10s-4.478 10-10 10z"/><path d="m370 230h-220c-5.523 0-10-4.477-10-10s4.477-10 10-10h220c5.522 0 10 4.477 10 10s-4.478 10-10 10z"/><path d="m370 260h-220c-5.523 0-10-4.477-10-10s4.477-10 10-10h220c5.522 0 10 4.477 10 10s-4.478 10-10 10z"/><path d="m370 290h-220c-5.523 0-10-4.478-10-10s4.477-10 10-10h220c5.522 0 10 4.478 10 10s-4.478 10-10 10z"/><path d="m370 320h-220c-5.523 0-10-4.478-10-10s4.477-10 10-10h220c5.522 0 10 4.478 10 10s-4.478 10-10 10z"/><path d="m370 350h-220c-5.523 0-10-4.478-10-10s4.477-10 10-10h220c5.522 0 10 4.478 10 10s-4.478 10-10 10z"/><path d="m370 380h-220c-5.523 0-10-4.478-10-10s4.477-10 10-10h220c5.522 0 10 4.478 10 10s-4.478 10-10 10z"/><path d="m270 410h-120c-5.523 0-10-4.478-10-10s4.477-10 10-10h120c5.522 0 10 4.478 10 10s-4.478 10-10 10z"/><path d="m270 440h-120c-5.523 0-10-4.478-10-10s4.477-10 10-10h120c5.522 0 10 4.478 10 10s-4.478 10-10 10z"/><path d="m60 390c-16.542 0-30-13.458-30-30s13.458-30 30-30 30 13.458 30 30-13.458 30-30 30zm0-40c-5.514 0-10 4.486-10 10s4.486 10 10 10 10-4.486 10-10-4.486-10-10-10z"/><path d="m465 190c-19.299 0-35-15.701-35-35s15.701-35 35-35 35 15.701 35 35-15.701 35-35 35zm0-50c-8.271 0-15 6.729-15 15s6.729 15 15 15 15-6.729 15-15-6.729-15-15-15z"/><path d="m170 140h-20c-5.523 0-10-4.477-10-10s4.477-10 10-10h20c5.523 0 10 4.477 10 10s-4.477 10-10 10z"/><path d="m220 140h-20c-5.523 0-10-4.477-10-10s4.477-10 10-10h20c5.523 0 10 4.477 10 10s-4.477 10-10 10z"/><path d="m270 140h-20c-5.523 0-10-4.477-10-10s4.477-10 10-10h20c5.522 0 10 4.477 10 10s-4.478 10-10 10z"/><path d="m320 140h-20c-5.522 0-10-4.477-10-10s4.478-10 10-10h20c5.522 0 10 4.477 10 10s-4.478 10-10 10z"/><path d="m370 140h-20c-5.522 0-10-4.477-10-10s4.478-10 10-10h20c5.522 0 10 4.477 10 10s-4.478 10-10 10z"/></g></svg>