<svg enable-background="new 0 0 512 512" height="512" viewBox="0 0 512 512" width="512" xmlns="http://www.w3.org/2000/svg"><g id="_x38_54-Cd_x2C__Disk_x2C__Dvd"><path d="m60 420c11.05 0 20 8.95 20 20s-8.95 20-20 20-20-8.95-20-20 8.95-20 20-20z" fill="#5cbeff"/><path d="m455 40c13.81 0 25 11.19 25 25s-11.19 25-25 25-25-11.19-25-25 11.19-25 25-25z" fill="#5cbeff"/><path d="m260 180c44.18 0 80 35.82 80 80s-35.82 80-80 80-80-35.82-80-80 35.82-80 80-80zm40 80c0-22.09-17.91-40-40-40s-40 17.91-40 40 17.91 40 40 40 40-17.91 40-40z" fill="#545b66"/><path d="m260 50c115.98 0 210 94.02 210 210s-94.02 210-210 210-210-94.02-210-210 94.02-210 210-210zm80 210c0-44.18-35.82-80-80-80s-80 35.82-80 80 35.82 80 80 80 80-35.82 80-80z" fill="#757d8c"/><path d="m470 370c5.52 0 10 4.48 10 10s-4.48 10-10 10-10-4.48-10-10 4.48-10 10-10z"/><path d="m410 280c5.52 0 10 4.48 10 10s-4.48 10-10 10-10-4.48-10-10 4.48-10 10-10z"/><path d="m410 460c5.52 0 10 4.48 10 10s-4.48 10-10 10-10-4.48-10-10 4.48-10 10-10z"/><path d="m130 460c5.52 0 10 4.48 10 10s-4.48 10-10 10-10-4.48-10-10 4.48-10 10-10z"/><path d="m120 40c5.52 0 10 4.48 10 10s-4.48 10-10 10-10-4.48-10-10 4.48-10 10-10z"/><path d="m50 100c5.52 0 10 4.48 10 10s-4.48 10-10 10-10-4.48-10-10 4.48-10 10-10z"/><path d="m260 310c-27.57 0-50-22.43-50-50s22.43-50 50-50 50 22.43 50 50-22.43 50-50 50zm0-80c-16.542 0-30 13.458-30 30s13.458 30 30 30 30-13.458 30-30-13.458-30-30-30z"/><path d="m260 350c-49.626 0-90-40.374-90-90s40.374-90 90-90 90 40.374 90 90-40.374 90-90 90zm0-160c-38.598 0-70 31.402-70 70s31.402 70 70 70 70-31.402 70-70-31.402-70-70-70z"/><path d="m260 480c-58.764 0-114.011-22.884-155.563-64.437-41.553-41.551-64.437-96.798-64.437-155.563 0-58.764 22.884-114.011 64.437-155.563 41.552-41.553 96.799-64.437 155.563-64.437 58.765 0 114.012 22.884 155.563 64.437 41.553 41.552 64.437 96.799 64.437 155.563 0 58.765-22.884 114.012-64.437 155.563-41.551 41.553-96.798 64.437-155.563 64.437zm0-420c-110.28 0-200 89.72-200 200s89.72 200 200 200 200-89.72 200-200-89.72-200-200-200z"/><path d="m410 270c-5.522 0-10-4.478-10-10 0-77.196-62.804-140-140-140-5.523 0-10-4.477-10-10s4.477-10 10-10c88.225 0 160 71.776 160 160 0 5.522-4.478 10-10 10z"/><path d="m60 470c-16.542 0-30-13.458-30-30s13.458-30 30-30 30 13.458 30 30-13.458 30-30 30zm0-40c-5.514 0-10 4.486-10 10s4.486 10 10 10 10-4.486 10-10-4.486-10-10-10z"/><path d="m455 100c-19.299 0-35-15.701-35-35s15.701-35 35-35 35 15.701 35 35-15.701 35-35 35zm0-50c-8.271 0-15 6.729-15 15s6.729 15 15 15 15-6.729 15-15-6.729-15-15-15z"/></g></svg>