<svg enable-background="new 0 0 512 512" height="512" viewBox="0 0 512 512" width="512" xmlns="http://www.w3.org/2000/svg"><g id="_x38_55-Book_x2C__Education_x2C__Read"><path d="m120 60c11.05 0 20 8.95 20 20s-8.95 20-20 20-20-8.95-20-20 8.95-20 20-20z" fill="#d94556"/><circle cx="430" cy="70" fill="#d94556" r="30"/><path d="m470 380v40h-210l15.49-15.49c15.69-15.69 36.98-24.51 59.17-24.51z" fill="#079cff"/><path d="m260 420h-210v-40h135.34c22.19 0 43.48 8.82 59.17 24.51z" fill="#5cbeff"/><path d="m470 130v250h-135.34c-22.19 0-43.48 8.82-59.17 24.51l-15.49 15.49v-250c0-22.09 17.91-40 40-40z" fill="#94d4ff"/><path d="m260 170v250l-15.49-15.49c-15.69-15.69-36.98-24.51-59.17-24.51h-135.34v-250h170c22.09 0 40 17.91 40 40z" fill="#bce4ff"/><path d="m360 50c5.52 0 10 4.48 10 10s-4.48 10-10 10-10-4.48-10-10 4.48-10 10-10z"/><path d="m340 320c5.52 0 10 4.48 10 10s-4.48 10-10 10-10-4.48-10-10 4.48-10 10-10z"/><path d="m330 230c5.52 0 10 4.48 10 10s-4.48 10-10 10-10-4.48-10-10 4.48-10 10-10z"/><path d="m330 450c5.52 0 10 4.48 10 10s-4.48 10-10 10-10-4.48-10-10 4.48-10 10-10z"/><path d="m240 50c5.52 0 10 4.48 10 10s-4.48 10-10 10-10-4.48-10-10 4.48-10 10-10z"/><path d="m190 230c5.52 0 10 4.48 10 10s-4.48 10-10 10-10-4.48-10-10 4.48-10 10-10z"/><path d="m180 320c5.52 0 10 4.48 10 10s-4.48 10-10 10-10-4.48-10-10 4.48-10 10-10z"/><path d="m120 450c5.52 0 10 4.48 10 10s-4.48 10-10 10-10-4.48-10-10 4.48-10 10-10z"/><path d="m60 80c5.52 0 10 4.48 10 10s-4.48 10-10 10-10-4.48-10-10 4.48-10 10-10z"/><path d="m260 430c-2.56 0-5.119-.977-7.071-2.929l-15.49-15.49c-13.716-13.715-32.705-21.581-52.099-21.581h-135.34c-5.523 0-10-4.478-10-10v-250c0-5.523 4.477-10 10-10h170c27.57 0 50 22.43 50 50 0 5.523-4.478 10-10 10-5.523 0-10-4.477-10-10 0-16.542-13.458-30-30-30h-160v230h125.34c25.021 0 48.546 9.744 66.241 27.438l15.491 15.49c3.905 3.905 3.905 10.237 0 14.143-1.954 1.952-4.512 2.929-7.072 2.929z"/><path d="m259.998 430c-1.288 0-2.588-.249-3.825-.761-3.736-1.548-6.173-5.194-6.173-9.239v-250c0-27.57 22.43-50 50-50h170c5.522 0 10 4.477 10 10v250c0 5.522-4.478 10-10 10h-135.34c-19.395 0-38.384 7.866-52.099 21.581l-15.49 15.49c-1.913 1.913-4.47 2.929-7.073 2.929zm40.002-290c-16.542 0-30 13.458-30 30v225.894c17.503-16.716 40.376-25.894 64.66-25.894h125.34v-230z"/><path d="m470 430h-420c-5.523 0-10-4.478-10-10v-40c0-5.522 4.477-10 10-10s10 4.478 10 10v30h400v-30c0-5.522 4.478-10 10-10s10 4.478 10 10v40c0 5.522-4.478 10-10 10z"/><path d="m150 190h-60c-5.523 0-10-4.477-10-10s4.477-10 10-10h60c5.523 0 10 4.477 10 10s-4.477 10-10 10z"/><path d="m200 220h-110c-5.523 0-10-4.477-10-10s4.477-10 10-10h110c5.523 0 10 4.477 10 10s-4.477 10-10 10z"/><path d="m160 250h-50c-5.523 0-10-4.477-10-10s4.477-10 10-10h50c5.523 0 10 4.477 10 10s-4.477 10-10 10z"/><path d="m220 280h-130c-5.523 0-10-4.478-10-10s4.477-10 10-10h130c5.523 0 10 4.478 10 10s-4.477 10-10 10z"/><path d="m220 310h-130c-5.523 0-10-4.478-10-10s4.477-10 10-10h130c5.523 0 10 4.478 10 10s-4.477 10-10 10z"/><path d="m150 340h-60c-5.523 0-10-4.478-10-10s4.477-10 10-10h60c5.523 0 10 4.478 10 10s-4.477 10-10 10z"/><path d="m430 190h-60c-5.522 0-10-4.477-10-10s4.478-10 10-10h60c5.522 0 10 4.477 10 10s-4.478 10-10 10z"/><path d="m430 220h-110c-5.522 0-10-4.477-10-10s4.478-10 10-10h110c5.522 0 10 4.477 10 10s-4.478 10-10 10z"/><path d="m410 250h-50c-5.522 0-10-4.477-10-10s4.478-10 10-10h50c5.522 0 10 4.477 10 10s-4.478 10-10 10z"/><path d="m430 280h-130c-5.522 0-10-4.478-10-10s4.478-10 10-10h130c5.522 0 10 4.478 10 10s-4.478 10-10 10z"/><path d="m430 310h-130c-5.522 0-10-4.478-10-10s4.478-10 10-10h130c5.522 0 10 4.478 10 10s-4.478 10-10 10z"/><path d="m430 340h-60c-5.522 0-10-4.478-10-10s4.478-10 10-10h60c5.522 0 10 4.478 10 10s-4.478 10-10 10z"/><path d="m120 110c-16.542 0-30-13.458-30-30s13.458-30 30-30 30 13.458 30 30-13.458 30-30 30zm0-40c-5.514 0-10 4.486-10 10s4.486 10 10 10 10-4.486 10-10-4.486-10-10-10z"/><path d="m430 110c-22.056 0-40-17.944-40-40s17.944-40 40-40 40 17.944 40 40-17.944 40-40 40zm0-60c-11.028 0-20 8.972-20 20s8.972 20 20 20 20-8.972 20-20-8.972-20-20-20z"/></g></svg>