<svg enable-background="new 0 0 512 512" height="512" viewBox="0 0 512 512" width="512" xmlns="http://www.w3.org/2000/svg"><g id="_x38_56-Approved_x2C__Checked_x2C__Mobile_Access"><path d="m400 400v49.67c0 22.271-18.06 40.33-40.33 40.33h-199.34c-22.27 0-40.33-18.06-40.33-40.33v-49.67z" fill="#757d8c"/><path d="m455 100c13.81 0 25 11.19 25 25s-11.19 25-25 25-25-11.19-25-25 11.19-25 25-25z" fill="#d94556"/><path d="m70 320c11.05 0 20 8.95 20 20s-8.95 20-20 20-20-8.95-20-20 8.95-20 20-20z" fill="#d94556"/><path d="m260 430c8.28 0 15 6.72 15 15s-6.72 15-15 15-15-6.72-15-15 6.72-15 15-15z" fill="#d0dce7"/><path d="m359.67 30c22.27 0 40.33 18.06 40.33 40.33v19.67h-280v-19.67c0-22.27 18.06-40.33 40.33-40.33z" fill="#757d8c"/><path d="m400 400h-280c0-24.068 0-296.38 0-310h280z" fill="#bce4ff"/><path d="m334.35 212.72c7.811 7.81 7.811 20.47 0 28.28l-70.71 70.72-28.28 28.28-28.29-28.28-21.21-21.22c-3.9-3.9-5.86-9.02-5.86-14.14s1.96-10.24 5.86-14.141c7.81-7.81 20.47-7.81 28.28 0l21.22 21.21 70.71-70.709c3.91-3.9 9.02-5.86 14.14-5.86s10.23 1.96 14.14 5.86z" fill="#07cc66"/><path d="m470 380c5.52 0 10 4.48 10 10s-4.48 10-10 10-10-4.48-10-10 4.48-10 10-10z"/><path d="m440 260c5.52 0 10 4.48 10 10s-4.48 10-10 10-10-4.48-10-10 4.48-10 10-10z"/><path d="m290 330c5.52 0 10 4.48 10 10s-4.48 10-10 10-10-4.48-10-10 4.48-10 10-10z"/><path d="m240 190c5.52 0 10 4.48 10 10s-4.48 10-10 10-10-4.48-10-10 4.48-10 10-10z"/><path d="m80 240c5.52 0 10 4.48 10 10s-4.48 10-10 10-10-4.48-10-10 4.48-10 10-10z"/><path d="m60 70c5.52 0 10 4.48 10 10s-4.48 10-10 10-10-4.48-10-10 4.48-10 10-10z"/><path d="m235.36 350c-2.559 0-5.117-.976-7.07-2.928l-49.503-49.503c-5.666-5.667-8.787-13.199-8.787-21.209 0-8.011 3.121-15.543 8.789-21.211 5.667-5.666 13.199-8.786 21.211-8.786s15.545 3.12 21.211 8.786l14.147 14.141 63.641-63.64c5.686-5.671 13.215-8.789 21.211-8.789 7.997 0 15.527 3.119 21.203 8.781 5.674 5.673 8.795 13.207 8.795 21.219s-3.121 15.545-8.787 21.211l-98.99 99c-1.952 1.951-4.512 2.928-7.071 2.928zm-35.36-83.638c-2.67 0-5.181 1.04-7.069 2.929-1.89 1.89-2.931 4.4-2.931 7.069 0 2.668 1.041 5.179 2.931 7.069l42.427 42.43 91.92-91.93c1.889-1.889 2.93-4.399 2.93-7.069 0-2.669-1.04-5.18-2.929-7.068-1.893-1.888-4.405-2.932-7.069-2.932-2.663 0-5.177 1.044-7.077 2.94l-70.702 70.701c-3.903 3.904-10.235 3.906-14.14.001l-21.22-21.21c-1.89-1.89-4.401-2.93-7.071-2.93z"/><path d="m359.67 500h-199.34c-27.752 0-50.33-22.578-50.33-50.33v-259.67c0-5.523 4.477-10 10-10s10 4.477 10 10v259.67c0 16.724 13.606 30.33 30.33 30.33h199.34c16.724 0 30.33-13.606 30.33-30.33v-209.67c0-5.523 4.478-10 10-10s10 4.477 10 10v209.67c0 27.752-22.578 50.33-50.33 50.33z"/><path d="m400 200c-5.522 0-10-4.477-10-10v-119.67c0-16.724-13.606-30.33-30.33-30.33h-199.34c-16.724 0-30.33 13.606-30.33 30.33v49.67c0 5.523-4.477 10-10 10s-10-4.477-10-10v-49.67c0-27.752 22.578-50.33 50.33-50.33h199.34c27.752 0 50.33 22.578 50.33 50.33v119.67c0 5.523-4.478 10-10 10z"/><path d="m120 180c-5.523 0-10-4.477-10-10v-30c0-5.523 4.477-10 10-10s10 4.477 10 10v30c0 5.523-4.477 10-10 10z"/><path d="m260 470c-13.785 0-25-11.215-25-25s11.215-25 25-25 25 11.215 25 25-11.215 25-25 25zm0-30c-2.757 0-5 2.243-5 5s2.243 5 5 5 5-2.243 5-5-2.243-5-5-5z"/><path d="m400 410h-280c-5.523 0-10-4.478-10-10s4.477-10 10-10h280c5.522 0 10 4.478 10 10s-4.478 10-10 10z"/><path d="m400 100h-280c-5.523 0-10-4.477-10-10s4.477-10 10-10h280c5.522 0 10 4.477 10 10s-4.478 10-10 10z"/><path d="m280 70h-40c-5.523 0-10-4.477-10-10s4.477-10 10-10h40c5.522 0 10 4.477 10 10s-4.478 10-10 10z"/><path d="m410 250h-10c-5.522 0-10-4.477-10-10v-50c0-5.523 4.478-10 10-10h10c5.522 0 10 4.477 10 10v50c0 5.523-4.478 10-10 10z"/><path d="m120 150h-10c-5.523 0-10-4.477-10-10v-20c0-5.523 4.477-10 10-10h10c5.523 0 10 4.477 10 10v20c0 5.523-4.477 10-10 10z"/><path d="m120 200h-10c-5.523 0-10-4.477-10-10v-20c0-5.523 4.477-10 10-10h10c5.523 0 10 4.477 10 10v20c0 5.523-4.477 10-10 10z"/><path d="m400 350h-80c-5.522 0-10-4.478-10-10s4.478-10 10-10h80c5.522 0 10 4.478 10 10s-4.478 10-10 10z"/><path d="m210 210h-40c-5.523 0-10-4.477-10-10s4.477-10 10-10h40c5.523 0 10 4.477 10 10s-4.477 10-10 10z"/><path d="m70 370c-16.542 0-30-13.458-30-30s13.458-30 30-30 30 13.458 30 30-13.458 30-30 30zm0-40c-5.514 0-10 4.486-10 10s4.486 10 10 10 10-4.486 10-10-4.486-10-10-10z"/><path d="m455 160c-19.299 0-35-15.701-35-35s15.701-35 35-35 35 15.701 35 35-15.701 35-35 35zm0-50c-8.271 0-15 6.729-15 15s6.729 15 15 15 15-6.729 15-15-6.729-15-15-15z"/></g></svg>