<svg enable-background="new 0 0 512 512" height="512" viewBox="0 0 512 512" width="512" xmlns="http://www.w3.org/2000/svg"><g id="_x38_57-Market_x2C__Market_Store_x2C__Shop_x2C__Store"><path d="m70 210v230h380c0-1.697 0-224.532 0-230-8.834 0-354.526 0-380 0z" fill="#757d8c"/><path d="m465 50c8.28 0 15 6.72 15 15s-6.72 15-15 15-15-6.72-15-15 6.72-15 15-15z" fill="#07cc66"/><path d="m50 50c11.05 0 20 8.95 20 20s-8.95 20-20 20-20-8.95-20-20 8.95-20 20-20z" fill="#07cc66"/><path d="m470 440v40h-420v-40h20 50 100 230z" fill="#3f4751"/><path d="m360 300h50v50h-50z" fill="#94d4ff"/><path d="m310 350h50v50h-50z" fill="#94d4ff"/><path d="m360 350h50v50h-50z" fill="#bce4ff"/><path d="m310 300h50v50h-50z" fill="#bce4ff"/><path d="m220 400v40h-100v-40-100h100z" fill="#bce4ff"/><path d="m410 210c0 16.57-13.43 30-30 30s-30-13.43-30-30z" fill="#a0b5c5"/><path d="m290 210c0 16.57-13.43 30-30 30s-30-13.43-30-30z" fill="#a0b5c5"/><path d="m170 210c0 16.57-13.43 30-30 30s-30-13.43-30-30z" fill="#a0b5c5"/><path d="m390 90 20 120h-60l-10-120z" fill="#d0dce7"/><path d="m230 90h60v120h-60z" fill="#d0dce7"/><path d="m180 90-10 120h-60l20-120z" fill="#d0dce7"/><g fill="#cd2738"><path d="m450 238.28c-3.13 1.12-6.49 1.72-10 1.72-16.57 0-30-13.43-30-30h60c0 13.06-8.34 24.17-20 28.28z"/><path d="m290 210h60c0 16.57-13.43 30-30 30s-30-13.43-30-30z"/><path d="m230 210c0 16.57-13.43 30-30 30s-30-13.43-30-30z"/><path d="m110 210c0 16.57-13.43 30-30 30-3.49 0-6.84-.6-9.95-1.7-11.68-4.1-20.05-15.22-20.05-28.3z"/></g><path d="m430 90 40 120h-60l-20-120z" fill="#d94556"/><path d="m340 90 10 120h-60v-120z" fill="#d94556"/><path d="m230 90v120h-60l10-120z" fill="#d94556"/><path d="m130 90-20 120h-60l40-120z" fill="#d94556"/><path d="m400 30c5.52 0 10 4.48 10 10s-4.48 10-10 10-10-4.48-10-10 4.48-10 10-10z"/><path d="m280 390c5.52 0 10 4.48 10 10s-4.48 10-10 10-10-4.48-10-10 4.48-10 10-10z"/><path d="m180 50c5.52 0 10 4.48 10 10s-4.48 10-10 10-10-4.48-10-10 4.48-10 10-10z"/><path d="m80 250c-4.552 0-9.021-.765-13.285-2.272-15.97-5.606-26.715-20.771-26.715-37.728 0-5.523 4.477-10 10-10s10 4.477 10 10c0 8.478 5.37 16.059 13.362 18.864 2.138.757 4.364 1.136 6.638 1.136 11.028 0 20-8.972 20-20 0-5.523 4.477-10 10-10s10 4.477 10 10c0 22.056-17.944 40-40 40z"/><path d="m470 490c-5.522 0-10-4.478-10-10v-30h-10c-5.522 0-10-4.478-10-10s4.478-10 10-10h20c5.522 0 10 4.478 10 10v40c0 5.522-4.478 10-10 10z"/><path d="m50 490c-5.523 0-10-4.478-10-10v-40c0-5.522 4.477-10 10-10h20c5.523 0 10 4.478 10 10s-4.477 10-10 10h-10v30c0 5.522-4.477 10-10 10z"/><path d="m490 490h-460c-5.523 0-10-4.478-10-10s4.477-10 10-10h460c5.522 0 10 4.478 10 10s-4.478 10-10 10z"/><path d="m110 220h-60c-3.214 0-6.233-1.545-8.112-4.153s-2.391-5.96-1.375-9.009l40-120c1.362-4.084 5.183-6.838 9.487-6.838h40c5.523 0 10 4.477 10 10s-4.477 10-10 10h-32.792l-33.334 100h46.126c5.523 0 10 4.477 10 10s-4.477 10-10 10z"/><path d="m140 250c-22.056 0-40-17.944-40-40 0-5.523 4.477-10 10-10s10 4.477 10 10c0 11.028 8.972 20 20 20s20-8.972 20-20c0-5.523 4.477-10 10-10s10 4.477 10 10c0 22.056-17.944 40-40 40z"/><path d="m170 220h-60c-2.939 0-5.73-1.293-7.63-3.536s-2.717-5.208-2.233-8.108l20-120c.803-4.822 4.975-8.356 9.863-8.356h50c5.523 0 10 4.477 10 10s-4.477 10-10 10h-41.529l-16.667 100h48.196c5.523 0 10 4.477 10 10s-4.477 10-10 10z"/><path d="m200 250c-22.056 0-40-17.944-40-40 0-5.523 4.477-10 10-10s10 4.477 10 10c0 11.028 8.972 20 20 20s20-8.972 20-20c0-5.523 4.477-10 10-10s10 4.477 10 10c0 22.056-17.944 40-40 40z"/><path d="m230 220h-60c-2.796 0-5.465-1.171-7.359-3.229s-2.839-4.814-2.606-7.602l10-120c.431-5.182 4.764-9.169 9.965-9.169h50c5.523 0 10 4.477 10 10s-4.477 10-10 10h-40.799l-8.333 100h49.132c5.523 0 10 4.477 10 10s-4.477 10-10 10z"/><path d="m260 250c-22.056 0-40-17.944-40-40 0-5.523 4.477-10 10-10s10 4.477 10 10c0 11.028 8.972 20 20 20s20-8.972 20-20c0-5.523 4.478-10 10-10s10 4.477 10 10c0 22.056-17.944 40-40 40z"/><path d="m290 220h-60c-5.523 0-10-4.477-10-10v-120c0-5.523 4.477-10 10-10h60c5.522 0 10 4.477 10 10s-4.478 10-10 10h-50v100h50c5.522 0 10 4.477 10 10s-4.478 10-10 10z"/><path d="m320 250c-22.056 0-40-17.944-40-40 0-5.523 4.478-10 10-10s10 4.477 10 10c0 11.028 8.972 20 20 20s20-8.972 20-20c0-5.523 4.478-10 10-10s10 4.477 10 10c0 22.056-17.944 40-40 40z"/><path d="m350 220h-60c-5.522 0-10-4.477-10-10v-120c0-5.523 4.478-10 10-10h50c5.522 0 10 4.477 10 10s-4.478 10-10 10h-40v100h50c5.522 0 10 4.477 10 10s-4.478 10-10 10z"/><path d="m380 250c-22.056 0-40-17.944-40-40 0-5.523 4.478-10 10-10s10 4.477 10 10c0 11.028 8.972 20 20 20s20-8.972 20-20c0-5.523 4.478-10 10-10s10 4.477 10 10c0 22.056-17.944 40-40 40z"/><path d="m410 220h-60c-5.201 0-9.533-3.987-9.966-9.169l-10-120c-.231-2.787.714-5.544 2.607-7.602 1.894-2.058 4.562-3.229 7.359-3.229h50c5.522 0 10 4.477 10 10s-4.478 10-10 10h-39.132l8.333 100h50.799c5.522 0 10 4.477 10 10s-4.478 10-10 10z"/><path d="m440 250c-22.056 0-40-17.944-40-40 0-5.523 4.478-10 10-10s10 4.477 10 10c0 11.028 8.972 20 20 20 2.294 0 4.525-.382 6.631-1.135 8.015-2.825 13.369-10.4 13.369-18.865 0-5.523 4.478-10 10-10s10 4.477 10 10c0 16.932-10.72 32.087-26.676 37.711-4.228 1.514-8.726 2.289-13.324 2.289z"/><path d="m470 220h-60c-4.889 0-9.061-3.534-9.864-8.356l-20-120c-.483-2.899.334-5.865 2.234-8.108s4.691-3.536 7.63-3.536h40c4.305 0 8.126 2.754 9.487 6.838l40 120c1.016 3.049.505 6.401-1.375 9.009-1.879 2.608-4.897 4.153-8.112 4.153zm-51.528-20h37.654l-33.334-100h-20.987z"/><path d="m120 450h-50c-5.523 0-10-4.478-10-10v-201.55c0-5.523 4.477-10 10-10s10 4.477 10 10v191.55h40c5.523 0 10 4.478 10 10s-4.477 10-10 10z"/><path d="m450 450h-230c-5.523 0-10-4.478-10-10s4.477-10 10-10h220v-193.1c0-5.523 4.478-10 10-10s10 4.477 10 10v203.1c0 5.522-4.478 10-10 10z"/><path d="m220 450h-100c-5.523 0-10-4.478-10-10v-140c0-5.522 4.477-10 10-10h100c5.523 0 10 4.478 10 10v140c0 5.522-4.477 10-10 10zm-90-20h80v-120h-80z"/><path d="m310 360c-5.522 0-10-4.478-10-10v-50c0-5.522 4.478-10 10-10h50c5.522 0 10 4.478 10 10s-4.478 10-10 10h-40v40c0 5.522-4.478 10-10 10z"/><path d="m410 360c-5.522 0-10-4.478-10-10v-40h-30v40c0 5.522-4.478 10-10 10s-10-4.478-10-10v-50c0-5.522 4.478-10 10-10h50c5.522 0 10 4.478 10 10v50c0 5.522-4.478 10-10 10z"/><path d="m360 410h-50c-5.522 0-10-4.478-10-10v-50c0-5.522 4.478-10 10-10h50c5.522 0 10 4.478 10 10s-4.478 10-10 10h-40v30h40c5.522 0 10 4.478 10 10s-4.478 10-10 10z"/><path d="m410 410h-50c-5.522 0-10-4.478-10-10v-50c0-5.522 4.478-10 10-10h50c5.522 0 10 4.478 10 10v50c0 5.522-4.478 10-10 10zm-40-20h30v-30h-30z"/><path d="m120 410h-50c-5.523 0-10-4.478-10-10s4.477-10 10-10h50c5.523 0 10 4.478 10 10s-4.477 10-10 10z"/><path d="m250 410h-30c-5.523 0-10-4.478-10-10s4.477-10 10-10h30c5.523 0 10 4.478 10 10s-4.477 10-10 10z"/><path d="m450 410h-40c-5.522 0-10-4.478-10-10s4.478-10 10-10h40c5.522 0 10 4.478 10 10s-4.478 10-10 10z"/><path d="m50 100c-16.542 0-30-13.458-30-30s13.458-30 30-30 30 13.458 30 30-13.458 30-30 30zm0-40c-5.514 0-10 4.486-10 10s4.486 10 10 10 10-4.486 10-10-4.486-10-10-10z"/><path d="m465 90c-13.785 0-25-11.215-25-25s11.215-25 25-25 25 11.215 25 25-11.215 25-25 25zm0-30c-2.757 0-5 2.243-5 5s2.243 5 5 5 5-2.243 5-5-2.243-5-5-5z"/></g></svg>