<svg enable-background="new 0 0 512 512" height="512" viewBox="0 0 512 512" width="512" xmlns="http://www.w3.org/2000/svg"><g id="_x38_58-Brilliant_x2C__Diamond_x2C__Jewel"><path d="m192.94 180 67.06 279.41c-17.019-25.027-188.124-276.651-190-279.41z" fill="#94d4ff"/><g fill="#f88f19"><path d="m100 390c11.05 0 20 8.95 20 20s-8.95 20-20 20-20-8.95-20-20 8.95-20 20-20z"/><path d="m85 50c8.28 0 15 6.72 15 15s-6.72 15-15 15-15-6.72-15-15 6.72-15 15-15z"/><circle cx="455" cy="275" r="25"/></g><path d="m395.25 404.75c6.33 6.33 15.09 10.25 24.75 10.25-9.66 0-18.42 3.92-24.75 10.25s-10.25 15.09-10.25 24.75c0-19.33-15.67-35-35-35 9.66 0 18.42-3.92 24.75-10.25s10.25-15.09 10.25-24.75c0 9.66 3.92 18.42 10.25 24.75z" fill="#ffd400"/><path d="m145.25 264.75c6.33 6.33 15.09 10.25 24.75 10.25-9.66 0-18.42 3.92-24.75 10.25-.74.74-1.44 1.51-2.11 2.31-5.08 6.08-8.14 13.91-8.14 22.44 0-19.33-15.67-35-35-35 9.66 0 18.42-3.92 24.75-10.25.58-.58 1.14-1.18 1.67-1.79 5.34-6.15 8.58-14.18 8.58-22.96 0 9.66 3.92 18.42 10.25 24.75z" fill="#ffd400"/><path d="m450 180-190 279.41 67.06-279.41z" fill="#94d4ff"/><path d="m327.06 180-67.06 279.41-67.06-279.41z" fill="#7cc4ed"/><path d="m400 100-72.94 80-67.06-80z" fill="#94d4ff"/><path d="m260 100-67.06 80-72.94-80z" fill="#94d4ff"/><path d="m400 100 50 80h-122.94z" fill="#bce4ff"/><path d="m260 100 67.06 80h-134.12z" fill="#bce4ff"/><path d="m120 100 72.94 80h-122.94z" fill="#bce4ff"/><path d="m470 120c5.52 0 10 4.48 10 10s-4.48 10-10 10-10-4.48-10-10 4.48-10 10-10z"/><path d="m440 340c5.52 0 10 4.48 10 10s-4.48 10-10 10-10-4.48-10-10 4.48-10 10-10z"/><path d="m400 30c5.52 0 10 4.48 10 10s-4.48 10-10 10-10-4.48-10-10 4.48-10 10-10z"/><path d="m190 50c5.52 0 10 4.48 10 10s-4.48 10-10 10-10-4.48-10-10 4.48-10 10-10z"/><path d="m160 440c5.52 0 10 4.48 10 10s-4.48 10-10 10-10-4.48-10-10 4.48-10 10-10z"/><path d="m60 240c5.52 0 10 4.48 10 10s-4.48 10-10 10-10-4.48-10-10 4.48-10 10-10z"/><path d="m260 469.41c-4.624 0-8.645-3.17-9.724-7.666l-67.06-279.41c-1.289-5.371 2.02-10.769 7.39-12.058 5.373-1.292 10.769 2.02 12.058 7.39l57.336 238.895 57.336-238.895c1.289-5.37 6.686-8.681 12.058-7.39 5.37 1.289 8.679 6.687 7.39 12.058l-67.06 279.41c-1.079 4.496-5.1 7.666-9.724 7.666z"/><path d="m450 190h-380c-3.635 0-6.984-1.973-8.747-5.152s-1.66-7.065.267-10.147l50-80c1.828-2.924 5.032-4.7 8.48-4.7h280c3.448 0 6.652 1.776 8.48 4.7l50 80c1.926 3.083 2.028 6.968.266 10.147s-5.11 5.152-8.746 5.152zm-361.958-20h343.915l-37.5-60h-268.915z"/><path d="m327.06 190c-.069 0-.139 0-.208-.002-2.885-.06-5.603-1.363-7.456-3.574l-59.396-70.858-59.396 70.857c-1.853 2.211-4.571 3.514-7.456 3.574-2.881.066-5.654-1.129-7.598-3.261l-72.94-80c-3.721-4.081-3.429-10.406.652-14.127s10.406-3.428 14.127.652l65.234 71.548 59.713-71.235c1.9-2.265 4.706-3.574 7.664-3.574s5.764 1.309 7.664 3.576l59.712 71.234 65.234-71.548c3.721-4.082 10.046-4.373 14.127-.652s4.373 10.046.652 14.127l-72.94 80c-1.896 2.081-4.58 3.263-7.389 3.263z"/><path d="m126.419 272.951c-3.2 0-6.343-1.532-8.278-4.378l-56.41-82.95c-3.106-4.567-1.921-10.787 2.646-13.893 4.568-3.107 10.788-1.92 13.893 2.646l56.41 82.951c3.106 4.566 1.921 10.786-2.646 13.893-1.722 1.17-3.679 1.731-5.615 1.731z"/><path d="m260 469.41c-3.311 0-6.407-1.639-8.269-4.377l-116.86-171.851c-3.106-4.566-1.921-10.787 2.646-13.893 4.567-3.104 10.788-1.92 13.892 2.646l108.591 159.692 181.73-267.25c3.105-4.568 9.327-5.751 13.893-2.646 4.567 3.105 5.752 9.325 2.646 13.892l-190 279.41c-1.862 2.738-4.957 4.377-8.269 4.377z"/><path d="m385 460c-5.522 0-10-4.478-10-10 0-13.785-11.215-25-25-25-5.522 0-10-4.478-10-10s4.478-10 10-10c6.68 0 12.958-2.6 17.679-7.321s7.321-10.999 7.321-17.679c0-5.522 4.478-10 10-10s10 4.478 10 10c0 6.68 2.6 12.958 7.321 17.679s10.999 7.321 17.679 7.321c5.522 0 10 4.478 10 10s-4.478 10-10 10c-6.68 0-12.958 2.6-17.679 7.321s-7.321 10.999-7.321 17.679c0 5.522-4.478 10-10 10zm-6.725-44.983c2.464 1.995 4.713 4.244 6.708 6.708.996-1.229 2.062-2.412 3.195-3.546 1.128-1.128 2.305-2.188 3.526-3.179-1.222-.991-2.398-2.051-3.526-3.179s-2.188-2.305-3.179-3.526c-.991 1.222-2.051 2.398-3.179 3.526-1.132 1.134-2.316 2.2-3.545 3.196z"/><path d="m135 320c-5.523 0-10-4.478-10-10 0-13.785-11.215-25-25-25-5.523 0-10-4.478-10-10s4.477-10 10-10c6.679 0 12.958-2.6 17.679-7.321.418-.418.819-.847 1.189-1.274 3.955-4.554 6.132-10.38 6.132-16.405 0-5.523 4.477-10 10-10s10 4.477 10 10c0 6.679 2.6 12.958 7.321 17.679 4.721 4.722 11 7.321 17.679 7.321 5.523 0 10 4.478 10 10s-4.477 10-10 10c-6.679 0-12.958 2.6-17.679 7.321-.517.517-1.013 1.06-1.515 1.659-3.741 4.479-5.806 10.171-5.806 16.02 0 5.522-4.477 10-10 10zm-6.725-44.983c2.465 1.996 4.717 4.248 6.713 6.714.158-.195.317-.39.479-.583.879-1.05 1.789-2.045 2.712-2.969 1.128-1.128 2.304-2.188 3.526-3.179-1.222-.991-2.398-2.051-3.526-3.179-1.128-1.129-2.19-2.308-3.182-3.53-.334.414-.676.822-1.026 1.226-.677.779-1.4 1.555-2.149 2.305-1.135 1.133-2.318 2.199-3.547 3.195z"/><path d="m100 440c-16.542 0-30-13.458-30-30s13.458-30 30-30 30 13.458 30 30-13.458 30-30 30zm0-40c-5.514 0-10 4.486-10 10s4.486 10 10 10 10-4.486 10-10-4.486-10-10-10z"/><path d="m85 90c-13.785 0-25-11.215-25-25s11.215-25 25-25 25 11.215 25 25-11.215 25-25 25zm0-30c-2.757 0-5 2.243-5 5s2.243 5 5 5 5-2.243 5-5-2.243-5-5-5z"/><path d="m455 310c-19.299 0-35-15.701-35-35s15.701-35 35-35 35 15.701 35 35-15.701 35-35 35zm0-50c-8.271 0-15 6.729-15 15s6.729 15 15 15 15-6.729 15-15-6.729-15-15-15z"/></g></svg>