<svg enable-background="new 0 0 512 512" height="512" viewBox="0 0 512 512" width="512" xmlns="http://www.w3.org/2000/svg"><g id="_x38_59-Interface_x2C__Tick_x2C__User"><path d="m470 120c5.52 0 10 4.48 10 10s-4.48 10-10 10-10-4.48-10-10 4.48-10 10-10z"/><path d="m470 380c5.52 0 10 4.48 10 10s-4.48 10-10 10-10-4.48-10-10 4.48-10 10-10z"/><path d="m420 440c11.05 0 20 8.95 20 20s-8.95 20-20 20-20-8.95-20-20 8.95-20 20-20z" fill="#3256c1"/><path d="m400 30c5.52 0 10 4.48 10 10s-4.48 10-10 10-10-4.48-10-10 4.48-10 10-10z"/><path d="m260 60c-110.46 0-200 89.54-200 200s89.54 200 200 200 200-89.54 200-200-89.54-200-200-200z" fill="#ffd400"/><path d="m260 410c-82.84 0-150-67.16-150-150s67.16-150 150-150 150 67.16 150 150-67.16 150-150 150z" fill="#fff"/><path d="m334.35 212.72c7.811 7.81 7.811 20.47 0 28.28l-70.71 70.72-28.28 28.28-28.29-28.28-21.21-21.22c-3.9-3.9-5.86-9.02-5.86-14.14s1.96-10.24 5.86-14.141c7.81-7.81 20.47-7.81 28.28 0l21.22 21.21 70.71-70.709c3.91-3.9 9.02-5.86 14.14-5.86s10.23 1.96 14.14 5.86z" fill="#07cc66"/><path d="m110 460c5.52 0 10 4.48 10 10s-4.48 10-10 10-10-4.48-10-10 4.48-10 10-10z"/><path d="m85 50c13.81 0 25 11.19 25 25s-11.19 25-25 25-25-11.19-25-25 11.19-25 25-25z" fill="#3256c1"/><path d="m50 130c5.52 0 10 4.48 10 10s-4.48 10-10 10-10-4.48-10-10 4.48-10 10-10z"/><path d="m50 380c5.52 0 10 4.48 10 10s-4.48 10-10 10-10-4.48-10-10 4.48-10 10-10z"/><path d="m260 470c-115.794 0-210-94.206-210-210s94.206-210 210-210 210 94.206 210 210-94.206 210-210 210zm0-400c-104.767 0-190 85.233-190 190s85.233 190 190 190 190-85.233 190-190-85.233-190-190-190z"/><path d="m260 420c-88.224 0-160-71.775-160-160 0-88.224 71.776-160 160-160 88.225 0 160 71.776 160 160 0 88.225-71.775 160-160 160zm0-300c-77.196 0-140 62.804-140 140s62.804 140 140 140 140-62.804 140-140-62.804-140-140-140z"/><path d="m260 420c-5.523 0-10-4.478-10-10v-40c0-5.522 4.477-10 10-10 55.141 0 100-44.859 100-100 0-5.523 4.478-10 10-10s10 4.477 10 10c0 62.8-48.494 114.488-110 119.587v30.413c0 5.522-4.478 10-10 10z"/><path d="m150 270c-5.523 0-10-4.478-10-10 0-62.8 48.494-114.488 110-119.587v-30.413c0-5.523 4.477-10 10-10 5.522 0 10 4.477 10 10v40c0 5.523-4.478 10-10 10-55.14 0-100 44.86-100 100 0 5.522-4.477 10-10 10z"/><path d="m85 110c-19.299 0-35-15.701-35-35s15.701-35 35-35 35 15.701 35 35-15.701 35-35 35zm0-50c-8.271 0-15 6.729-15 15s6.729 15 15 15 15-6.729 15-15-6.729-15-15-15z"/><path d="m420 490c-16.542 0-30-13.458-30-30s13.458-30 30-30 30 13.458 30 30-13.458 30-30 30zm0-40c-5.514 0-10 4.486-10 10s4.486 10 10 10 10-4.486 10-10-4.486-10-10-10z"/><path d="m235.36 350c-2.559 0-5.117-.976-7.07-2.928l-49.503-49.503c-5.666-5.667-8.787-13.199-8.787-21.209 0-8.011 3.121-15.543 8.789-21.211 5.667-5.666 13.199-8.786 21.211-8.786s15.545 3.12 21.211 8.786l14.147 14.141 63.641-63.64c5.686-5.671 13.215-8.789 21.211-8.789 7.997 0 15.527 3.119 21.203 8.781 5.674 5.673 8.795 13.207 8.795 21.219s-3.121 15.545-8.787 21.211l-98.99 99c-1.952 1.951-4.512 2.928-7.071 2.928zm-35.36-83.638c-2.67 0-5.181 1.04-7.069 2.929-1.89 1.89-2.931 4.4-2.931 7.069 0 2.668 1.041 5.179 2.931 7.069l42.427 42.43 91.92-91.93c1.889-1.889 2.93-4.399 2.93-7.069 0-2.669-1.04-5.18-2.929-7.068-1.893-1.888-4.405-2.932-7.069-2.932-2.663 0-5.177 1.044-7.077 2.94l-70.702 70.701c-3.903 3.904-10.235 3.906-14.14.001l-21.22-21.21c-1.89-1.89-4.401-2.93-7.071-2.93z"/></g></svg>