<svg enable-background="new 0 0 512 512" height="512" viewBox="0 0 512 512" width="512" xmlns="http://www.w3.org/2000/svg"><g id="_x38_60-Audience_x2C__Target_x2C__User"><circle cx="430" cy="90" fill="#f88f19" r="30"/><path d="m90 400c11.05 0 20 8.95 20 20s-8.95 20-20 20-20-8.95-20-20 8.95-20 20-20z" fill="#f88f19"/><circle cx="260" cy="260" fill="#cd2738" r="52.78"/><g fill="#d94556"><path d="m260 365.56v52.771c-87.45 0-158.33-70.88-158.33-158.33h52.77c0 58.299 47.26 105.559 105.56 105.559z"/><path d="m418.33 260h-52.77c0-58.3-47.26-105.56-105.56-105.56v-52.77c87.45 0 158.33 70.88 158.33 158.33z"/><path d="m365.56 260h52.771c0 87.45-70.88 158.33-158.33 158.33v-52.77c58.299 0 105.559-47.26 105.559-105.56z"/><path d="m260 101.67v52.77c-58.3 0-105.56 47.26-105.56 105.56h-52.77c0-87.45 70.88-158.33 158.33-158.33z"/></g><path d="m460 160c5.52 0 10 4.48 10 10s-4.48 10-10 10-10-4.48-10-10 4.48-10 10-10z"/><path d="m460 350c5.52 0 10 4.48 10 10s-4.48 10-10 10-10-4.48-10-10 4.48-10 10-10z"/><path d="m350 430c5.52 0 10 4.48 10 10s-4.48 10-10 10-10-4.48-10-10 4.48-10 10-10z"/><path d="m340 50c5.52 0 10 4.48 10 10s-4.48 10-10 10-10-4.48-10-10 4.48-10 10-10z"/><path d="m180 440c5.52 0 10 4.48 10 10s-4.48 10-10 10-10-4.48-10-10 4.48-10 10-10z"/><path d="m140 50c5.52 0 10 4.48 10 10s-4.48 10-10 10-10-4.48-10-10 4.48-10 10-10z"/><path d="m80 120c5.52 0 10 4.48 10 10s-4.48 10-10 10-10-4.48-10-10 4.48-10 10-10z"/><path d="m60 320c5.52 0 10 4.48 10 10s-4.48 10-10 10-10-4.48-10-10 4.48-10 10-10z"/><path d="m260 322.78c-34.617 0-62.78-28.163-62.78-62.78s28.163-62.78 62.78-62.78 62.78 28.163 62.78 62.78-28.163 62.78-62.78 62.78zm0-105.56c-23.589 0-42.78 19.191-42.78 42.78s19.191 42.78 42.78 42.78 42.78-19.191 42.78-42.78-19.191-42.78-42.78-42.78z"/><path d="m260 375.56c-63.72 0-115.56-51.84-115.56-115.56s51.84-115.56 115.56-115.56 115.56 51.84 115.56 115.56-51.84 115.56-115.56 115.56zm0-211.12c-52.692 0-95.56 42.868-95.56 95.56 0 52.691 42.868 95.56 95.56 95.56 52.691 0 95.56-42.868 95.56-95.56s-42.869-95.56-95.56-95.56z"/><path d="m260 428.33c-92.817 0-168.33-75.513-168.33-168.33s75.513-168.33 168.33-168.33 168.33 75.513 168.33 168.33-75.513 168.33-168.33 168.33zm0-316.66c-81.79 0-148.33 66.541-148.33 148.33s66.541 148.33 148.33 148.33 148.33-66.541 148.33-148.33c0-81.79-66.541-148.33-148.33-148.33z"/><path d="m450 270h-100c-5.522 0-10-4.478-10-10 0-5.523 4.478-10 10-10h100c5.522 0 10 4.477 10 10 0 5.522-4.478 10-10 10z"/><path d="m170 270h-100c-5.523 0-10-4.478-10-10 0-5.523 4.477-10 10-10h100c5.523 0 10 4.477 10 10 0 5.522-4.477 10-10 10z"/><path d="m260 180c-5.523 0-10-4.477-10-10v-100c0-5.523 4.477-10 10-10 5.522 0 10 4.477 10 10v100c0 5.523-4.478 10-10 10z"/><path d="m260 460c-5.523 0-10-4.478-10-10v-100c0-5.522 4.477-10 10-10 5.522 0 10 4.478 10 10v100c0 5.522-4.478 10-10 10z"/><path d="m90 450c-16.542 0-30-13.458-30-30s13.458-30 30-30 30 13.458 30 30-13.458 30-30 30zm0-40c-5.514 0-10 4.486-10 10s4.486 10 10 10 10-4.486 10-10-4.486-10-10-10z"/><path d="m430 130c-22.056 0-40-17.944-40-40s17.944-40 40-40 40 17.944 40 40-17.944 40-40 40zm0-60c-11.028 0-20 8.972-20 20s8.972 20 20 20 20-8.972 20-20-8.972-20-20-20z"/></g></svg>