<svg enable-background="new 0 0 512 512" height="512" viewBox="0 0 512 512" width="512" xmlns="http://www.w3.org/2000/svg"><g id="_x38_61-Online_x2C__Shopping_x2C__Store_x2C__Bag"><path d="m430 480h-340c.244-1.561 43.803-280.34 50-320h240c2.284 14.617 48.023 307.349 50 320z" fill="#ffd400"/><path d="m260 270c33.14 0 60 26.86 60 60s-26.86 60-60 60-60-26.86-60-60 26.86-60 60-60z" fill="#fff"/><path d="m435 80c13.81 0 25 11.19 25 25s-11.19 25-25 25-25-11.19-25-25 11.19-25 25-25z" fill="#ffd400"/><path d="m70 220c11.05 0 20 8.95 20 20s-8.95 20-20 20-20-8.95-20-20 8.95-20 20-20z" fill="#ffd400"/><path d="m280 327.32-30 17.32v-34.64z" fill="#d94556"/><path d="m470 260c5.52 0 10 4.48 10 10s-4.48 10-10 10-10-4.48-10-10 4.48-10 10-10z"/><path d="m460 390c5.52 0 10 4.48 10 10s-4.48 10-10 10-10-4.48-10-10 4.48-10 10-10z"/><path d="m380 60c5.52 0 10 4.48 10 10s-4.48 10-10 10-10-4.48-10-10 4.48-10 10-10z"/><path d="m360 420c5.52 0 10 4.48 10 10s-4.48 10-10 10-10-4.48-10-10 4.48-10 10-10z"/><path d="m190 250c5.52 0 10 4.48 10 10s-4.48 10-10 10-10-4.48-10-10 4.48-10 10-10z"/><path d="m140 50c5.52 0 10 4.48 10 10s-4.48 10-10 10-10-4.48-10-10 4.48-10 10-10z"/><path d="m90 120c5.52 0 10 4.48 10 10s-4.48 10-10 10-10-4.48-10-10 4.48-10 10-10z"/><path d="m60 330c5.52 0 10 4.48 10 10s-4.48 10-10 10-10-4.48-10-10 4.48-10 10-10z"/><path d="m430.02 490c-.006 0-.014 0-.02 0h-340c-2.922 0-5.697-1.277-7.597-3.497s-2.734-5.159-2.283-8.046l50-320c.761-4.868 4.954-8.457 9.88-8.457h240c4.927 0 9.119 3.588 9.88 8.456l49.898 319.35c.158.706.241 1.44.241 2.194.001 5.522-4.476 10-9.999 10zm-328.337-20h316.633l-46.875-300h-222.882l-14.299 91.543z"/><path d="m335 210c-5.522 0-10-4.477-10-10v-80c0-35.841-29.159-65-65-65-17.358 0-33.68 6.762-45.958 19.041-12.28 12.279-19.042 28.601-19.042 45.959v80c0 5.523-4.477 10-10 10s-10-4.477-10-10v-80c0-22.701 8.843-44.045 24.899-60.101s37.4-24.899 60.101-24.899c46.869 0 85 38.131 85 85v80c0 5.523-4.478 10-10 10z"/><path d="m330 440h-232.19c-5.523 0-10-4.478-10-10s4.477-10 10-10h232.19c5.522 0 10 4.478 10 10s-4.478 10-10 10z"/><path d="m422.19 440h-32.19c-5.522 0-10-4.478-10-10s4.478-10 10-10h32.19c5.522 0 10 4.478 10 10s-4.477 10-10 10z"/><path d="m70 270c-16.542 0-30-13.458-30-30s13.458-30 30-30 30 13.458 30 30-13.458 30-30 30zm0-40c-5.514 0-10 4.486-10 10s4.486 10 10 10 10-4.486 10-10-4.486-10-10-10z"/><path d="m435 140c-19.299 0-35-15.701-35-35s15.701-35 35-35 35 15.701 35 35-15.701 35-35 35zm0-50c-8.271 0-15 6.729-15 15s6.729 15 15 15 15-6.729 15-15-6.729-15-15-15z"/><path d="m350 210h-30c-5.522 0-10-4.477-10-10s4.478-10 10-10h30c5.522 0 10 4.477 10 10s-4.478 10-10 10z"/><path d="m200 210h-30c-5.523 0-10-4.477-10-10s4.477-10 10-10h30c5.523 0 10 4.477 10 10s-4.477 10-10 10z"/><path d="m260 400c-38.598 0-70-31.402-70-70s31.402-70 70-70 70 31.402 70 70-31.402 70-70 70zm0-120c-27.57 0-50 22.43-50 50s22.43 50 50 50 50-22.43 50-50-22.43-50-50-50z"/><path d="m250 354.64c-1.727 0-3.453-.446-5-1.34-3.094-1.786-5-5.088-5-8.66v-34.64c0-3.572 1.906-6.874 5-8.66 3.094-1.787 6.906-1.787 10 0l30 17.32c3.094 1.786 5 5.088 5 8.66 0 3.573-1.906 6.874-5 8.66l-30 17.32c-1.547.893-3.274 1.34-5 1.34z"/><path d="m160 270h-35.62c-5.523 0-10-4.478-10-10 0-5.523 4.477-10 10-10h35.62c5.523 0 10 4.477 10 10 0 5.522-4.477 10-10 10z"/><path d="m411.25 370h-51.25c-5.522 0-10-4.478-10-10s4.478-10 10-10h51.25c5.522 0 10 4.478 10 10s-4.478 10-10 10z"/></g></svg>