<svg enable-background="new 0 0 512 512" height="512" viewBox="0 0 512 512" width="512" xmlns="http://www.w3.org/2000/svg"><g id="_x38_62-Art_x2C__Frame_x2C__Painting_x2C__Photo"><path d="m423.68 127.88c-12.288 0-311.911 0-327.36 0-19.023 0-34.5 15.402-34.5 34.5v195.24c0 19.06 15.44 34.5 34.5 34.5h327.36c19.02 0 34.5-15.399 34.5-34.5 0-9.407 0-181.197 0-195.24 0-19.06-15.44-34.5-34.5-34.5z" fill="#3f4751"/><path d="m100 170h320v180h-30l-82.14-100-48.48 58.22-47.83-58.22-82.14 100h-29.41c0-10 0-170 0-180z" fill="#bce4ff"/><path d="m150 430c11.05 0 20 8.95 20 20s-8.95 20-20 20-20-8.95-20-20 8.95-20 20-20z" fill="#3256c1"/><path d="m365 40c13.81 0 25 11.19 25 25s-11.19 25-25 25-25-11.19-25-25 11.19-25 25-25z" fill="#3256c1"/><g fill="#d94556"><path d="m458.18 180.46c15.29 8.33 23.311 26.4 18.301 43.83l-18.301 63.63z"/><path d="m428.32 391.81-3.86 13.421c-5.8 20.159-26.84 31.81-47 26.01l-136.08-39.12h182.3c1.57-.001 3.12-.111 4.64-.311z"/><path d="m61.82 232.08v107.46c-15.29-8.33-23.31-26.4-18.3-43.83z"/><path d="m278.62 127.88h-182.3c-1.57 0-3.12.11-4.64.31l3.86-13.42c5.8-20.17 26.84-31.81 47-26.01z"/></g><path d="m260 200c11.05 0 20 8.95 20 20s-8.95 20-20 20-20-8.95-20-20 8.95-20 20-20z" fill="#ffd400"/><path d="m307.86 250 82.14 100h-96.3l-34.32-41.78z" fill="#19ab5c"/><path d="m259.38 308.22 34.32 41.78h-164.29l82.14-100z" fill="#07cc66"/><path d="m460 60c5.52 0 10 4.48 10 10s-4.48 10-10 10-10-4.48-10-10 4.48-10 10-10z"/><path d="m430 450c5.52 0 10 4.48 10 10s-4.48 10-10 10-10-4.48-10-10 4.48-10 10-10z"/><path d="m330 200c5.52 0 10 4.48 10 10s-4.48 10-10 10-10-4.48-10-10 4.48-10 10-10z"/><path d="m260 50c5.52 0 10 4.48 10 10s-4.48 10-10 10-10-4.48-10-10 4.48-10 10-10z"/><path d="m240 430c5.52 0 10 4.48 10 10s-4.48 10-10 10-10-4.48-10-10 4.48-10 10-10z"/><path d="m160 250c5.52 0 10 4.48 10 10s-4.48 10-10 10-10-4.48-10-10 4.48-10 10-10z"/><path d="m60 80c5.52 0 10 4.48 10 10s-4.48 10-10 10-10-4.48-10-10 4.48-10 10-10z"/><path d="m50 420c5.52 0 10 4.48 10 10s-4.48 10-10 10-10-4.48-10-10 4.48-10 10-10z"/><path d="m61.811 349.542c-1.617 0-3.256-.393-4.775-1.221-19.56-10.656-29.287-33.944-23.126-55.374l18.3-63.631c1.526-5.307 7.068-8.371 12.375-6.846 5.308 1.526 8.373 7.066 6.846 12.375l-18.3 63.629c-3.592 12.496 2.074 26.074 13.474 32.285 4.85 2.643 6.639 8.716 3.997 13.565-1.815 3.33-5.248 5.218-8.791 5.218z"/><path d="m458.185 297.923c-.915 0-1.846-.127-2.769-.393-5.308-1.526-8.373-7.066-6.847-12.374l18.301-63.63c3.592-12.496-2.075-26.074-13.475-32.285-4.85-2.642-6.64-8.716-3.997-13.565s8.715-6.641 13.565-3.997c19.561 10.656 29.287 33.944 23.128 55.374l-18.302 63.631c-1.26 4.384-5.26 7.239-9.604 7.239z"/><path d="m387.938 442.726c-4.381 0-8.828-.605-13.242-1.875l-136.078-39.12c-5.308-1.525-8.374-7.065-6.848-12.373s7.064-8.374 12.374-6.848l136.08 39.12c14.83 4.268 30.36-4.331 34.627-19.164l4.008-13.951c1.484-5.321 7-8.427 12.318-6.947 5.32 1.483 8.431 6.999 6.947 12.318l-.17.609-3.883 13.5c-6.047 21.015-25.289 34.731-46.133 34.731z"/><path d="m91.515 138.802c-.891 0-1.796-.12-2.697-.372-5.319-1.486-8.426-7.003-6.939-12.322l.17-.609 3.88-13.493c3.543-12.321 11.67-22.524 22.883-28.729s24.173-7.67 36.492-4.127l136.078 39.12c5.308 1.526 8.374 7.066 6.848 12.374-1.525 5.308-7.068 8.371-12.373 6.848l-136.08-39.12c-7.185-2.067-14.742-1.212-21.281 2.405-6.54 3.619-11.279 9.57-13.346 16.758l-4.01 13.957c-1.234 4.418-5.251 7.31-9.625 7.31z"/><path d="m423.68 402.12h-327.36c-24.538 0-44.5-19.963-44.5-44.5v-195.24c0-22.197 16.565-41.156 38.532-44.101 2.022-.266 4.022-.399 5.968-.399h327.36c24.537 0 44.5 19.962 44.5 44.5v195.24c0 22.197-16.564 41.156-38.531 44.101-2.02.266-4.02.399-5.969.399zm-327.36-264.24c-1.079 0-2.201.076-3.337.225-12.054 1.616-21.163 12.053-21.163 24.275v195.24c0 13.51 10.991 24.5 24.5 24.5h327.36c1.079 0 2.201-.075 3.335-.225 12.057-1.616 21.165-12.054 21.165-24.275v-195.24c0-13.509-10.99-24.5-24.5-24.5z"/><path d="m420 360h-30c-5.522 0-10-4.478-10-10s4.478-10 10-10h20v-160h-300v160h19.41c5.523 0 10 4.478 10 10s-4.477 10-10 10h-29.41c-5.523 0-10-4.478-10-10v-180c0-5.523 4.477-10 10-10h320c5.522 0 10 4.477 10 10v180c0 5.522-4.478 10-10 10z"/><path d="m390 360h-96.3c-5.522 0-10-4.478-10-10s4.478-10 10-10h75.145l-61.037-74.31-40.743 48.929c-3.533 4.241-9.838 4.82-14.083 1.285-4.244-3.534-4.82-9.84-1.286-14.084l48.48-58.219c1.9-2.282 4.716-3.601 7.685-3.601h.033c2.981.01 5.802 1.349 7.694 3.653l82.14 100c2.454 2.989 2.966 7.125 1.313 10.621-1.653 3.497-5.174 5.726-9.041 5.726z"/><path d="m293.72 360c-.006 0-.014 0-.02 0h-164.29c-3.867 0-7.388-2.229-9.041-5.727-1.652-3.496-1.141-7.632 1.313-10.621l82.14-100c1.899-2.313 4.735-3.653 7.727-3.653 2.993 0 5.828 1.34 7.728 3.652l81.805 99.581c1.638 1.78 2.638 4.157 2.638 6.768 0 5.522-4.477 10-10 10zm-143.155-20h121.979l-60.994-74.246z"/><path d="m260 250c-16.542 0-30-13.458-30-30s13.458-30 30-30 30 13.458 30 30-13.458 30-30 30zm0-40c-5.514 0-10 4.486-10 10s4.486 10 10 10 10-4.486 10-10-4.486-10-10-10z"/><path d="m150 480c-16.542 0-30-13.458-30-30s13.458-30 30-30 30 13.458 30 30-13.458 30-30 30zm0-40c-5.514 0-10 4.486-10 10s4.486 10 10 10 10-4.486 10-10-4.486-10-10-10z"/><path d="m365 100c-19.299 0-35-15.701-35-35s15.701-35 35-35 35 15.701 35 35-15.701 35-35 35zm0-50c-8.271 0-15 6.729-15 15s6.729 15 15 15 15-6.729 15-15-6.729-15-15-15z"/><path d="m130 270h-30c-5.523 0-10-4.478-10-10 0-5.523 4.477-10 10-10h30c5.523 0 10 4.477 10 10 0 5.522-4.477 10-10 10z"/><path d="m420 220h-60c-5.522 0-10-4.477-10-10s4.478-10 10-10h60c5.522 0 10 4.477 10 10s-4.478 10-10 10z"/></g></svg>