<svg enable-background="new 0 0 512 512" height="512" viewBox="0 0 512 512" width="512" xmlns="http://www.w3.org/2000/svg"><g id="_x38_63-Attention_x2C__Interface_x2C__Ui_x2C__User"><path d="m420 440c11.05 0 20 8.95 20 20s-8.95 20-20 20-20-8.95-20-20 8.95-20 20-20z" fill="#07cc66"/><path d="m85 50c13.81 0 25 11.19 25 25s-11.19 25-25 25-25-11.19-25-25 11.19-25 25-25z" fill="#07cc66"/><path d="m260 60c-110.46 0-200 89.54-200 200s89.54 200 200 200 200-89.54 200-200-89.54-200-200-200z" fill="#3f4751"/><path d="m260 110c82.84 0 150 67.16 150 150s-67.16 150-150 150-150-67.16-150-150 67.16-150 150-150z" fill="#bce4ff"/><path d="m290 335.67v18.66c0 8.66-7.01 15.67-15.67 15.67h-18.66c-8.66 0-15.67-7.01-15.67-15.67v-18.66c0-8.66 7.01-15.67 15.67-15.67h18.66c8.66 0 15.67 7.01 15.67 15.67z" fill="#d94556"/><path d="m280.59 150c10.49 0 18.771 8.9 18.03 19.36l-8.62 120.64h-50l-8.62-120.64c-.74-10.46 7.54-19.36 18.03-19.36z" fill="#d94556"/><path d="m470 120c5.52 0 10 4.48 10 10s-4.48 10-10 10-10-4.48-10-10 4.48-10 10-10z"/><path d="m470 380c5.52 0 10 4.48 10 10s-4.48 10-10 10-10-4.48-10-10 4.48-10 10-10z"/><path d="m400 30c5.52 0 10 4.48 10 10s-4.48 10-10 10-10-4.48-10-10 4.48-10 10-10z"/><path d="m110 460c5.52 0 10 4.48 10 10s-4.48 10-10 10-10-4.48-10-10 4.48-10 10-10z"/><path d="m50 130c5.52 0 10 4.48 10 10s-4.48 10-10 10-10-4.48-10-10 4.48-10 10-10z"/><path d="m50 380c5.52 0 10 4.48 10 10s-4.48 10-10 10-10-4.48-10-10 4.48-10 10-10z"/><path d="m260 470c-115.794 0-210-94.206-210-210s94.206-210 210-210 210 94.206 210 210-94.206 210-210 210zm0-400c-104.767 0-190 85.233-190 190s85.233 190 190 190 190-85.233 190-190-85.233-190-190-190z"/><path d="m260 420c-88.224 0-160-71.775-160-160 0-88.224 71.776-160 160-160 88.225 0 160 71.776 160 160 0 88.225-71.775 160-160 160zm0-300c-77.196 0-140 62.804-140 140s62.804 140 140 140 140-62.804 140-140-62.804-140-140-140z"/><path d="m85 110c-19.299 0-35-15.701-35-35s15.701-35 35-35 35 15.701 35 35-15.701 35-35 35zm0-50c-8.271 0-15 6.729-15 15s6.729 15 15 15 15-6.729 15-15-6.729-15-15-15z"/><path d="m420 490c-16.542 0-30-13.458-30-30s13.458-30 30-30 30 13.458 30 30-13.458 30-30 30zm0-40c-5.514 0-10 4.486-10 10s4.486 10 10 10 10-4.486 10-10-4.486-10-10-10z"/><path d="m290 300h-50c-5.246 0-9.601-4.055-9.975-9.287l-8.62-120.64c-.548-7.755 2.173-15.457 7.467-21.138 5.291-5.678 12.776-8.935 20.538-8.935h31.18c7.762 0 15.247 3.257 20.538 8.936 5.294 5.682 8.016 13.383 7.467 21.13l-8.62 120.647c-.374 5.232-4.729 9.287-9.975 9.287zm-40.689-20h31.378l7.956-111.353c.16-2.257-.604-4.418-2.15-6.078-1.544-1.657-3.641-2.569-5.905-2.569h-31.18c-2.264 0-4.361.913-5.905 2.569-1.546 1.66-2.31 3.821-2.15 6.085z"/><path d="m274.33 380h-18.66c-14.154 0-25.67-11.516-25.67-25.67v-18.66c0-14.154 11.516-25.67 25.67-25.67h18.66c14.154 0 25.67 11.516 25.67 25.67v18.66c0 14.154-11.516 25.67-25.67 25.67zm-18.66-50c-3.126 0-5.67 2.544-5.67 5.67v18.66c0 3.126 2.543 5.67 5.67 5.67h18.66c3.126 0 5.67-2.544 5.67-5.67v-18.66c0-3.126-2.544-5.67-5.67-5.67z"/></g></svg>