<svg enable-background="new 0 0 512 512" height="512" viewBox="0 0 512 512" width="512" xmlns="http://www.w3.org/2000/svg"><g id="_x38_64-Article_x2C__Blog_x2C__News"><path d="m460 450c11.05 0 20 8.95 20 20s-8.95 20-20 20-20-8.95-20-20 8.95-20 20-20z" fill="#ffd400"/><path d="m45 150c8.28 0 15 6.72 15 15s-6.72 15-15 15-15-6.72-15-15 6.72-15 15-15z" fill="#ffd400"/><path d="m370 57.5v12.5h-212.5c-15.19 0-27.5 12.31-27.5 27.5v332.5h-12.5c-15.19 0-27.5-12.31-27.5-27.5v-345c0-15.19 12.31-27.5 27.5-27.5h225c15.19 0 27.5 12.31 27.5 27.5z" fill="#a0b5c5"/><path d="m370 420h60c-18.55 18.55-41.45 41.45-60 60z" fill="#a0b5c5"/><path d="m430 97.5v322.5h-60v60h-212.5c-15.19 0-27.5-12.31-27.5-27.5 0-9.783 0-338.039 0-355 0-15.19 12.31-27.5 27.5-27.5h245c15.19 0 27.5 12.31 27.5 27.5z" fill="#d0dce7"/><path d="m170 110h220v60h-220z" fill="#5cbeff"/><path d="m470 90c5.52 0 10 4.48 10 10s-4.48 10-10 10-10-4.48-10-10 4.48-10 10-10z"/><path d="m470 290c5.52 0 10 4.48 10 10s-4.48 10-10 10-10-4.48-10-10 4.48-10 10-10z"/><path d="m385.49 202.88-2.87 10.4c-2.29-1.1-6.351-2.71-11.93-2.71-5.58 0-8.29 2.54-8.29 5.5 0 3.64 3.21 5.25 10.569 8.04 10.07 3.72 14.811 8.97 14.811 17 0 9.56-7.36 17.68-23.011 17.68-6.52 0-12.949-1.69-16.159-3.46l2.62-10.66c3.47 1.77 8.8 3.55 14.3 3.55 5.92 0 9.05-2.45 9.05-6.18 0-3.55-2.71-5.58-9.561-8.03-9.47-3.3-15.649-8.55-15.649-16.84 0-9.73 8.12-17.17 21.57-17.17 6.43 0 11.17 1.35 14.55 2.88z"/><path d="m344.8 200.93-14.72 57.02h-13.96l-4.82-24.53c-1.1-5.76-2.03-11.09-2.71-17.6h-.17c-1.01 6.43-1.939 11.84-3.3 17.6l-5.41 24.53h-14.13l-13.53-57.02h13.79l4.311 23.52c1.27 6.77 2.449 14.13 3.39 19.88h.16c.93-6.18 2.29-13.03 3.729-20.05l4.82-23.35h13.7l4.569 24.03c1.271 6.68 2.2 12.77 3.051 19.11h.17c.84-6.34 2.109-13.02 3.3-19.79l4.65-23.35z"/><path d="m266.97 247.37v10.58h-36.37v-57.02h35.19v10.57h-22.25v11.85h20.98v10.49h-20.98v13.53z"/><path d="m219.43 200.93v57.02h-13.54l-12.18-22c-3.38-6.09-7.11-13.45-9.9-20.13l-.25.08c.34 7.53.51 15.57.51 24.87v17.18h-11.85v-57.02h15.06l11.84 20.9c3.39 6 6.77 13.11 9.31 19.54h.25c-.84-7.53-1.1-15.23-1.1-23.77v-16.67z"/><path d="m80 460c5.52 0 10 4.48 10 10s-4.48 10-10 10-10-4.48-10-10 4.48-10 10-10z"/><path d="m60 80c5.52 0 10 4.48 10 10s-4.48 10-10 10-10-4.48-10-10 4.48-10 10-10z"/><path d="m40 330c5.52 0 10 4.48 10 10s-4.48 10-10 10-10-4.48-10-10 4.48-10 10-10z"/><path d="m370 490h-212.5c-20.678 0-37.5-16.822-37.5-37.5v-355c0-20.678 16.822-37.5 37.5-37.5h245c20.678 0 37.5 16.822 37.5 37.5v322.5c0 2.652-1.054 5.195-2.929 7.071l-60 60c-1.876 1.875-4.419 2.929-7.071 2.929zm-212.5-410c-9.649 0-17.5 7.851-17.5 17.5v355c0 9.649 7.851 17.5 17.5 17.5h208.357l54.143-54.143v-318.357c0-9.649-7.851-17.5-17.5-17.5z"/><path d="m130 440h-12.5c-20.678 0-37.5-16.822-37.5-37.5v-345c0-20.678 16.822-37.5 37.5-37.5h225c20.678 0 37.5 16.822 37.5 37.5v12.5c0 5.523-4.478 10-10 10s-10-4.477-10-10v-12.5c0-9.649-7.851-17.5-17.5-17.5h-225c-9.649 0-17.5 7.851-17.5 17.5v345c0 9.649 7.851 17.5 17.5 17.5h12.5c5.523 0 10 4.478 10 10s-4.477 10-10 10z"/><path d="m370 490c-5.522 0-10-4.478-10-10v-60c0-5.522 4.478-10 10-10h60c5.522 0 10 4.478 10 10s-4.478 10-10 10h-50v50c0 5.522-4.478 10-10 10z"/><path d="m45 190c-13.785 0-25-11.215-25-25s11.215-25 25-25 25 11.215 25 25-11.215 25-25 25zm0-30c-2.757 0-5 2.243-5 5s2.243 5 5 5 5-2.243 5-5-2.243-5-5-5z"/><path d="m460 500c-16.542 0-30-13.458-30-30s13.458-30 30-30 30 13.458 30 30-13.458 30-30 30zm0-40c-5.514 0-10 4.486-10 10s4.486 10 10 10 10-4.486 10-10-4.486-10-10-10z"/><path d="m390 180h-220c-5.523 0-10-4.477-10-10v-60c0-5.523 4.477-10 10-10h220c5.522 0 10 4.477 10 10v60c0 5.523-4.478 10-10 10zm-210-20h200v-40h-200z"/><path d="m270 300h-100c-5.523 0-10-4.478-10-10s4.477-10 10-10h100c5.522 0 10 4.478 10 10s-4.478 10-10 10z"/><path d="m270 330h-100c-5.523 0-10-4.478-10-10s4.477-10 10-10h100c5.522 0 10 4.478 10 10s-4.478 10-10 10z"/><path d="m390 360h-220c-5.523 0-10-4.478-10-10s4.477-10 10-10h220c5.522 0 10 4.478 10 10s-4.478 10-10 10z"/><path d="m390 390h-220c-5.523 0-10-4.478-10-10s4.477-10 10-10h220c5.522 0 10 4.478 10 10s-4.478 10-10 10z"/></g></svg>