<svg enable-background="new 0 0 512 512" height="512" viewBox="0 0 512 512" width="512" xmlns="http://www.w3.org/2000/svg"><g id="_x38_65-Stop_x2C__Watch_x2C__Timer_x2C__Fix"><path d="m260 110c-104.272 0-190 84.409-190 190 0 104.93 85.07 190 190 190s190-85.07 190-190c0-104.514-84.641-190-190-190z" fill="#3f4751"/><path d="m85 50c13.81 0 25 11.19 25 25s-11.19 25-25 25-25-11.19-25-25 11.19-25 25-25z" fill="#ffd400"/><path d="m70 430c11.05 0 20 8.95 20 20s-8.95 20-20 20-20-8.95-20-20 8.95-20 20-20z" fill="#ffd400"/><path d="m280 70v41.04c-6.57-.69-13.25-1.04-20-1.04s-13.43.35-20 1.04v-41.04z" fill="#545b66"/><path d="m480 370c5.52 0 10 4.48 10 10s-4.48 10-10 10-10-4.48-10-10 4.48-10 10-10z"/><path d="m470 120c5.52 0 10 4.48 10 10s-4.48 10-10 10-10-4.48-10-10 4.48-10 10-10z"/><path d="m440 450c5.52 0 10 4.48 10 10s-4.48 10-10 10-10-4.48-10-10 4.48-10 10-10z"/><path d="m410 300c0 82.823-67.158 150-150 150-82.824 0-150-67.158-150-150 0-82.824 67.158-150 150-150 82.823 0 150 67.158 150 150z" fill="#bce4ff"/><path d="m400 30c5.52 0 10 4.48 10 10s-4.48 10-10 10-10-4.48-10-10 4.48-10 10-10z"/><path d="m364.22 98.03c9.24 6.05 11.811 18.45 5.75 27.69l-8.81 13.43c-11.311-7.13-23.43-13.1-36.19-17.75l11.561-17.62c6.059-9.24 18.459-11.81 27.689-5.75z" fill="#d94556"/><path d="m295 30c11.05 0 20 8.95 20 20 0 11.039-8.96 20-20 20-8.854 0-61.225 0-70 0-11.05 0-20-8.95-20-20 0-11.04 8.959-20 20-20z" fill="#757d8c"/><path d="m260 280c11.05 0 20 8.95 20 20s-8.95 20-20 20-20-8.95-20-20 8.95-20 20-20z" fill="#d94556"/><path d="m183.47 103.78 11.56 17.62c-12.76 4.65-24.88 10.62-36.19 17.75l-8.81-13.43c-6.06-9.24-3.49-21.64 5.75-27.69 9.23-6.06 21.63-3.49 27.69 5.75z" fill="#d94556"/><path d="m50 130c5.52 0 10 4.48 10 10s-4.48 10-10 10-10-4.48-10-10 4.48-10 10-10z"/><path d="m260 460c-42.741 0-82.919-16.646-113.132-46.871-30.222-30.21-46.868-70.388-46.868-113.129s16.646-82.918 46.87-113.132c30.212-30.222 70.389-46.868 113.13-46.868s82.919 16.646 113.132 46.87c30.222 30.211 46.868 70.389 46.868 113.13s-16.646 82.919-46.871 113.132c-30.21 30.222-70.388 46.868-113.129 46.868zm0-300c-37.397 0-72.552 14.564-98.988 41.01-26.448 26.438-41.012 61.593-41.012 98.99s14.564 72.552 41.01 98.987c26.438 26.449 61.593 41.013 98.99 41.013s72.552-14.564 98.987-41.01c26.449-26.438 41.013-61.593 41.013-98.99s-14.564-72.552-41.01-98.988c-26.438-26.448-61.593-41.012-98.99-41.012z"/><path d="m260 330c-16.542 0-30-13.458-30-30s13.458-30 30-30 30 13.458 30 30-13.458 30-30 30zm0-40c-5.514 0-10 4.486-10 10s4.486 10 10 10 10-4.486 10-10-4.486-10-10-10z"/><path d="m85 110c-19.299 0-35-15.701-35-35s15.701-35 35-35 35 15.701 35 35-15.701 35-35 35zm0-50c-8.271 0-15 6.729-15 15s6.729 15 15 15 15-6.729 15-15-6.729-15-15-15z"/><path d="m260 192.14c-5.523 0-10-4.477-10-10v-32.14c0-5.523 4.477-10 10-10 5.522 0 10 4.477 10 10v32.14c0 5.523-4.478 10-10 10z"/><path d="m260 460c-5.523 0-10-4.478-10-10v-32.14c0-5.522 4.477-10 10-10 5.522 0 10 4.478 10 10v32.14c0 5.522-4.478 10-10 10z"/><path d="m343.34 226.66c-2.56 0-5.118-.976-7.071-2.929-3.905-3.905-3.905-10.237 0-14.142l22.72-22.72c.112-.112.228-.222.345-.329 4.087-3.716 10.417-3.418 14.132.668 3.637 4 3.43 10.141-.414 13.883l-22.64 22.64c-1.954 1.953-4.513 2.929-7.072 2.929z"/><path d="m153.929 416.063c-2.4 0-4.806-.857-6.721-2.598-4.087-3.716-4.393-10.035-.678-14.121.107-.117.226-.243.338-.355l22.72-22.72c3.905-3.904 10.237-3.903 14.142 0 3.905 3.905 3.905 10.237 0 14.143l-22.68 22.679c-1.945 1.971-4.529 2.972-7.121 2.972z"/><path d="m176.66 226.66c-2.559 0-5.119-.976-7.071-2.929l-22.72-22.72c-3.905-3.905-3.91-10.242-.005-14.147s10.231-3.91 14.138-.005l22.73 22.73c3.905 3.905 3.905 10.237 0 14.143-1.953 1.952-4.513 2.928-7.072 2.928z"/><path d="m366.063 416.067c-2.557 0-5.112-.975-7.063-2.926l-22.73-22.73c-3.905-3.905-3.905-10.237 0-14.143 3.906-3.904 10.236-3.904 14.143 0l22.72 22.72c3.905 3.905 3.91 10.242.005 14.147-1.955 1.955-4.516 2.932-7.075 2.932z"/><path d="m410 310h-32.14c-5.522 0-10-4.478-10-10s4.478-10 10-10h32.14c5.522 0 10 4.478 10 10s-4.478 10-10 10z"/><path d="m142.14 310h-32.14c-5.523 0-10-4.478-10-10s4.477-10 10-10h32.14c5.523 0 10 4.478 10 10s-4.477 10-10 10z"/><path d="m260 290c-5.523 0-10-4.478-10-10v-60c0-5.523 4.477-10 10-10 5.522 0 10 4.477 10 10v60c0 5.522-4.478 10-10 10z"/><path d="m240 121.045c-5.523 0-10-4.472-10-9.995v-41.05c0-5.523 4.477-10 10-10s10 4.477 10 10v41.04c0 5.523-4.477 10.005-10 10.005z"/><path d="m280 121.045c-5.522 0-10-4.472-10-9.995v-41.05c0-5.523 4.478-10 10-10s10 4.477 10 10v41.04c0 5.523-4.478 10.005-10 10.005z"/><path d="m361.15 149.151c-1.882 0-3.784-.53-5.476-1.64-4.617-3.029-5.905-9.229-2.876-13.846l8.81-13.43c1.467-2.236 1.976-4.909 1.433-7.524-.542-2.612-2.068-4.854-4.299-6.315-2.241-1.471-4.911-1.979-7.523-1.437-2.615.542-4.861 2.071-6.326 4.305l-11.562 17.622c-3.029 4.617-9.228 5.907-13.847 2.875-4.618-3.029-5.905-9.229-2.876-13.847l11.561-17.62c4.395-6.701 11.138-11.289 18.985-12.918 7.843-1.626 15.855-.104 22.554 4.294 6.696 4.384 11.287 11.126 12.916 18.976 1.628 7.845.104 15.856-4.292 22.558l-8.811 13.43c-1.919 2.928-5.113 4.517-8.371 4.517z"/><path d="m158.849 149.151c-3.257 0-6.451-1.589-8.371-4.516l-8.81-13.43c-4.396-6.704-5.92-14.715-4.292-22.559 1.629-7.851 6.22-14.592 12.926-18.983 6.688-4.391 14.698-5.915 22.544-4.288 7.848 1.629 14.59 6.217 18.986 12.919l11.559 17.619c3.029 4.618 1.742 10.817-2.876 13.847-4.618 3.029-10.816 1.742-13.847-2.876l-11.56-17.62c-1.465-2.235-3.712-3.764-6.327-4.306-2.613-.542-5.283-.035-7.514 1.43-2.24 1.467-3.767 3.709-4.309 6.322-.543 2.616-.034 5.289 1.433 7.525l8.809 13.428c3.029 4.618 1.742 10.817-2.876 13.847-1.69 1.111-3.593 1.641-5.475 1.641z"/><path d="m295 80h-70c-16.542 0-30-13.458-30-30 0-8.01 3.121-15.543 8.788-21.211 5.669-5.668 13.202-8.789 21.212-8.789h70c16.542 0 30 13.458 30 30 0 8.01-3.121 15.543-8.789 21.211-5.669 5.668-13.201 8.789-21.211 8.789zm-70-40c-2.668 0-5.179 1.041-7.069 2.931s-2.931 4.4-2.931 7.069c0 5.514 4.486 10 10 10h70c2.668 0 5.179-1.041 7.069-2.931s2.931-4.4 2.931-7.069c0-5.514-4.486-10-10-10z"/><path d="m260 500c-110.28 0-200-89.72-200-200 0-34.407 8.884-68.341 25.693-98.134 16.292-28.878 39.743-53.49 67.816-71.177 11.978-7.551 24.796-13.838 38.097-18.685 15.236-5.542 31.166-9.211 47.351-10.91 13.831-1.453 28.253-1.453 42.087 0 16.185 1.698 32.113 5.368 47.344 10.908 13.305 4.848 26.123 11.135 38.105 18.688 28.071 17.686 51.521 42.298 67.813 71.176 16.809 29.793 25.694 63.727 25.694 98.134 0 110.28-89.72 200-200 200zm0-380c-6.353 0-12.73.332-18.956.985-14.565 1.528-28.897 4.83-42.597 9.813-11.961 4.359-23.495 10.016-34.275 16.812-52.707 33.205-84.172 90.173-84.172 152.39 0 99.252 80.748 180 180 180s180-80.748 180-180c0-62.217-31.466-119.185-84.17-152.389-10.784-6.798-22.318-12.455-34.284-16.815-13.693-4.98-28.024-8.282-42.59-9.81-6.227-.654-12.604-.986-18.956-.986z"/><path d="m70 480c-16.542 0-30-13.458-30-30s13.458-30 30-30 30 13.458 30 30-13.458 30-30 30zm0-40c-5.514 0-10 4.486-10 10s4.486 10 10 10 10-4.486 10-10-4.486-10-10-10z"/></g></svg>