<svg enable-background="new 0 0 512 512" height="512" viewBox="0 0 512 512" width="512" xmlns="http://www.w3.org/2000/svg"><g id="_x38_66-Cancel_x2C__Delete_x2C__Interface_x2C__User"><path d="m420 440c11.05 0 20 8.95 20 20s-8.95 20-20 20-20-8.95-20-20 8.95-20 20-20z" fill="#ffd400"/><path d="m85 50c13.81 0 25 11.19 25 25s-11.19 25-25 25-25-11.19-25-25 11.19-25 25-25z" fill="#ffd400"/><path d="m260 60c-110.46 0-200 89.54-200 200s89.54 200 200 200 200-89.54 200-200-89.54-200-200-200z" fill="#3f4751"/><path d="m260 110c82.84 0 150 67.16 150 150s-67.16 150-150 150-150-67.16-150-150 67.16-150 150-150z" fill="#bce4ff"/><path d="m320.1 199.9c9.771 9.76 9.771 25.59 0 35.35l-24.74 24.75 24.739 24.75c9.771 9.76 9.771 25.59 0 35.35-9.76 9.771-25.59 9.771-35.35 0l-24.749-24.74-24.75 24.74c-9.76 9.771-25.59 9.771-35.35 0-9.77-9.76-9.77-25.59 0-35.35l24.74-24.75-24.74-24.75c-4.88-4.88-7.33-11.28-7.33-17.67 0-6.4 2.45-12.8 7.33-17.68 9.76-9.77 25.59-9.77 35.35 0l24.75 24.74 24.75-24.74c4.88-4.88 11.28-7.33 17.67-7.33 6.4 0 12.8 2.45 17.68 7.33z" fill="#d94556"/><path d="m470 120c5.52 0 10 4.48 10 10s-4.48 10-10 10-10-4.48-10-10 4.48-10 10-10z"/><path d="m470 380c5.52 0 10 4.48 10 10s-4.48 10-10 10-10-4.48-10-10 4.48-10 10-10z"/><path d="m400 30c5.52 0 10 4.48 10 10s-4.48 10-10 10-10-4.48-10-10 4.48-10 10-10z"/><path d="m110 460c5.52 0 10 4.48 10 10s-4.48 10-10 10-10-4.48-10-10 4.48-10 10-10z"/><path d="m50 130c5.52 0 10 4.48 10 10s-4.48 10-10 10-10-4.48-10-10 4.48-10 10-10z"/><path d="m50 380c5.52 0 10 4.48 10 10s-4.48 10-10 10-10-4.48-10-10 4.48-10 10-10z"/><path d="m302.425 337.428c-9.351 0-18.141-3.645-24.75-10.261l-17.675-17.668-17.681 17.673c-6.604 6.611-15.394 10.256-24.744 10.256s-18.141-3.645-24.75-10.261c-6.609-6.602-10.253-15.392-10.253-24.742s3.644-18.141 10.26-24.75l17.669-17.675-17.673-17.68c-6.614-6.614-10.258-15.401-10.258-24.74 0-9.346 3.644-18.136 10.259-24.751 6.606-6.612 15.396-10.256 24.746-10.256s18.14 3.644 24.75 10.26l17.675 17.668 17.681-17.673c6.614-6.614 15.4-10.258 24.739-10.258 9.345 0 18.135 3.644 24.751 10.259 6.613 6.606 10.257 15.396 10.257 24.747s-3.645 18.14-10.261 24.75l-17.668 17.674 17.673 17.681c6.611 6.604 10.256 15.394 10.256 24.744s-3.645 18.141-10.261 24.75c-6.602 6.608-15.392 10.253-24.742 10.253zm-42.425-52.068c2.559 0 5.117.976 7.069 2.928l24.75 24.739c2.837 2.839 6.602 4.4 10.605 4.4s7.769-1.562 10.6-4.396c2.842-2.839 4.403-6.604 4.403-10.607s-1.562-7.769-4.396-10.6l-24.744-24.756c-3.903-3.904-3.903-10.234 0-14.139l24.739-24.75c2.839-2.836 4.4-6.601 4.4-10.605s-1.562-7.769-4.396-10.601c-2.842-2.842-6.609-4.405-10.612-4.405-3.997 0-7.761 1.563-10.599 4.401l-24.752 24.741c-3.904 3.903-10.234 3.903-14.139 0l-24.75-24.74c-2.836-2.839-6.601-4.4-10.605-4.4s-7.77 1.561-10.601 4.395c-2.842 2.842-4.405 6.609-4.405 10.613 0 3.997 1.563 7.761 4.401 10.599l24.741 24.751c3.903 3.905 3.903 10.235 0 14.139l-24.74 24.75c-2.839 2.837-4.4 6.601-4.4 10.605s1.561 7.769 4.395 10.6c2.839 2.842 6.604 4.403 10.608 4.403s7.769-1.562 10.6-4.396l24.756-24.744c1.955-1.949 4.513-2.925 7.072-2.925z"/><path d="m260 470c-115.794 0-210-94.206-210-210s94.206-210 210-210 210 94.206 210 210-94.206 210-210 210zm0-400c-104.767 0-190 85.233-190 190s85.233 190 190 190 190-85.233 190-190-85.233-190-190-190z"/><path d="m260 420c-88.224 0-160-71.775-160-160 0-88.224 71.776-160 160-160 88.225 0 160 71.776 160 160 0 88.225-71.775 160-160 160zm0-300c-77.196 0-140 62.804-140 140s62.804 140 140 140 140-62.804 140-140-62.804-140-140-140z"/><path d="m85 110c-19.299 0-35-15.701-35-35s15.701-35 35-35 35 15.701 35 35-15.701 35-35 35zm0-50c-8.271 0-15 6.729-15 15s6.729 15 15 15 15-6.729 15-15-6.729-15-15-15z"/><path d="m420 490c-16.542 0-30-13.458-30-30s13.458-30 30-30 30 13.458 30 30-13.458 30-30 30zm0-40c-5.514 0-10 4.486-10 10s4.486 10 10 10 10-4.486 10-10-4.486-10-10-10z"/></g></svg>