<svg enable-background="new 0 0 512 512" height="512" viewBox="0 0 512 512" width="512" xmlns="http://www.w3.org/2000/svg"><g id="_x38_67-Audio_x2C__Half_x2C__Volume_x2C__Speaker"><path d="m386.14 232.86c16.971 0 30.721 13.75 30.721 30.71 0 8.489-3.44 16.17-9 21.72-5.561 5.56-13.24 9-21.721 9h-6.14v-61.43z" fill="#bce4ff"/><path d="m230 60c11.05 0 20 8.95 20 20s-8.95 20-20 20-20-8.95-20-20 8.95-20 20-20z" fill="#d94556"/><circle cx="140" cy="420" fill="#d94556" r="30"/><path d="m119.98 200.06-.12 119.94c-14.602-.018-10.068-.013-24.65-.03-13.94-.02-25.23-11.34-25.21-25.28l.09-69.44c.02-13.94 11.34-25.23 25.28-25.21z" fill="#f06000"/><path d="m330 140 50-30v310l-50-30c0-9.745 0-240.564 0-250z" fill="#faa71a"/><path d="m120 180.08 210-40.01v249.93c-10.414-2.478-200.306-47.655-210.16-50 .016-16.093.136-136 .16-159.92z" fill="#ffd400"/><path d="m467.07 92.93c3.91 3.9 3.91 10.24 0 14.14-1.95 1.95-4.511 2.93-7.07 2.93s-5.12-.98-7.07-2.93c-1.949-1.95-2.93-4.51-2.93-7.07s.98-5.12 2.93-7.07 4.51-2.93 7.07-2.93 5.12.98 7.07 2.93z"/><path d="m367.07 452.93c3.91 3.9 3.91 10.24 0 14.141-1.95 1.949-4.511 2.93-7.07 2.93s-5.12-.98-7.07-2.93c-1.949-1.95-2.93-4.511-2.93-7.07s.98-5.12 2.93-7.07c1.95-1.949 4.511-2.93 7.07-2.93s5.12.979 7.07 2.929z"/><path d="m327.07 62.93c3.91 3.9 3.91 10.24 0 14.14-1.95 1.95-4.51 2.93-7.07 2.93s-5.12-.98-7.07-2.93-2.93-4.51-2.93-7.07.98-5.12 2.93-7.07 4.51-2.93 7.07-2.93 5.12.98 7.07 2.93z"/><path d="m277.07 182.93c3.91 3.9 3.91 10.24 0 14.14-1.95 1.95-4.511 2.93-7.07 2.93s-5.12-.98-7.07-2.93c-1.949-1.95-2.93-4.51-2.93-7.07s.98-5.12 2.93-7.07 4.511-2.93 7.07-2.93 5.12.98 7.07 2.93z"/><path d="m247.07 412.93c3.91 3.9 3.91 10.24 0 14.141-1.95 1.949-4.51 2.93-7.07 2.93s-5.12-.98-7.07-2.93-2.93-4.511-2.93-7.07.98-5.12 2.93-7.07c1.95-1.949 4.51-2.93 7.07-2.93s5.12.979 7.07 2.929z"/><path d="m117.07 92.93c3.91 3.9 3.91 10.24 0 14.14-1.95 1.95-4.51 2.93-7.07 2.93s-5.12-.98-7.07-2.93-2.93-4.51-2.93-7.07.98-5.12 2.93-7.07 4.51-2.93 7.07-2.93 5.12.98 7.07 2.93z"/><path d="m67.07 372.93c3.91 3.9 3.91 10.24 0 14.141-1.95 1.949-4.51 2.929-7.07 2.929s-5.12-.98-7.07-2.93-2.93-4.51-2.93-7.07.98-5.12 2.93-7.07 4.51-2.93 7.07-2.93 5.12.98 7.07 2.93z"/><path d="m119.84 330c-.004 0-.008 0-.013 0l-24.63-.03c-9.415-.014-18.26-3.691-24.908-10.358-6.649-6.667-10.303-15.522-10.29-24.936l.09-69.439c.028-19.418 15.834-35.197 35.243-35.197h.051l24.604.02c5.521.004 9.999 4.483 9.997 10.004s-4.473 9.996-9.995 9.996l-24.628-.02c-.007 0-.015 0-.022 0-8.402 0-15.238 6.825-15.25 15.224l-.089 69.439c-.006 4.072 1.575 7.901 4.451 10.785 2.876 2.885 6.702 4.476 10.773 4.481l24.628.03c5.523.007 9.995 4.489 9.988 10.013-.007 5.518-4.483 9.988-10 9.988z"/><path d="m269.77 385.686c-.003 0-.005 0-.008 0-5.52-.005-9.992-4.466-9.992-9.985l.23-155.716c.008-5.518 4.483-9.985 10-9.985h.015c5.523.008 9.993 4.492 9.985 10.015l-.23 155.67c-.008 5.517-4.484 10.001-10 10.001z"/><path d="m330.009 400.002c-.767 0-1.545-.088-2.323-.273l-210.16-50c-4.509-1.073-7.69-5.104-7.686-9.738l.16-159.921c.005-4.797 3.416-8.915 8.128-9.813l210.388-40.083c5.429-1.022 10.656 2.546 11.68 7.973s-2.545 10.657-7.973 11.681l-.37.07-201.862 38.46-.144 143.745 202.467 48.17c5.373 1.278 8.692 6.67 7.414 12.043-1.092 4.593-5.195 7.686-9.719 7.686z"/><path d="m386.14 304.29h-6.14c-5.522 0-10-4.478-10-10s4.478-10 10-10h6.14c5.531 0 10.734-2.156 14.65-6.071 3.916-3.91 6.07-9.11 6.07-14.648 0-11.42-9.295-20.71-20.721-20.71h-6.139c-5.522 0-10-4.477-10-10s4.478-10 10-10h6.14c22.453 0 40.721 18.263 40.721 40.71 0 10.887-4.238 21.114-11.936 28.797-7.688 7.686-17.912 11.922-28.785 11.922z"/><path d="m380 430c-1.782 0-3.563-.476-5.145-1.425l-50-30c-3.012-1.807-4.855-5.062-4.855-8.575v-249.93c0-3.513 1.843-6.837 4.855-8.645l50-30c3.09-1.854 6.938-1.902 10.071-.127 3.136 1.775 5.073 5.1 5.073 8.702v310c0 3.603-1.938 6.927-5.073 8.702-1.529.866-3.228 1.298-4.926 1.298zm-40-45.662 30 18v-274.676l-30 18z"/><path d="m410 210c-5.522 0-10-4.477-10-10v-40c0-5.523 4.478-10 10-10s10 4.477 10 10v40c0 5.523-4.478 10-10 10z"/><path d="m410 380c-5.522 0-10-4.478-10-10v-40c0-5.522 4.478-10 10-10s10 4.478 10 10v40c0 5.522-4.478 10-10 10z"/><path d="m140 460c-22.056 0-40-17.944-40-40s17.944-40 40-40 40 17.944 40 40-17.944 40-40 40zm0-60c-11.028 0-20 8.972-20 20s8.972 20 20 20 20-8.972 20-20-8.972-20-20-20z"/><path d="m230 110c-16.542 0-30-13.458-30-30s13.458-30 30-30 30 13.458 30 30-13.458 30-30 30zm0-40c-5.514 0-10 4.486-10 10s4.486 10 10 10 10-4.486 10-10-4.486-10-10-10z"/></g></svg>