<svg enable-background="new 0 0 512 512" height="512" viewBox="0 0 512 512" width="512" xmlns="http://www.w3.org/2000/svg"><g id="_x38_68-Bubble_x2C__Chat_x2C__Message"><circle cx="335" cy="455" fill="#ffd400" r="25"/><path d="m90 100c11.05 0 20 8.95 20 20s-8.95 20-20 20-20-8.95-20-20 8.95-20 20-20z" fill="#ffd400"/><path d="m145.14 440.29c-11.1 0-21.8-1.73-31.85-4.92l-43.29 24.63 16.29-37.72c-27.93-18.9-46.29-50.87-46.29-87.14 0-58.07 47.07-105.14 105.14-105.14 57.984 0 105.15 46.988 105.15 105.14 0 57.97-46.977 105.15-105.15 105.15z" fill="#5cbeff"/><path d="m480 220c0 55.18-27.94 103.84-70.44 132.6l20.44 57.4-61.54-37.48c-39.479 12.532-83.494 9.468-121.71-10.239 2.31-8.66 3.54-17.75 3.54-27.141 0-52.89-39.06-96.66-89.9-104.04-6.386-93.743 67.953-171.1 159.61-171.1 88.37 0 160 71.63 160 160z" fill="#07cc66"/><path d="m460 50c5.52 0 10 4.48 10 10s-4.48 10-10 10-10-4.48-10-10 4.48-10 10-10z"/><path d="m420 190c5.52 0 10 4.48 10 10s-4.48 10-10 10-10-4.48-10-10 4.48-10 10-10z"/><path d="m410 430c5.52 0 10 4.48 10 10s-4.48 10-10 10-10-4.48-10-10 4.48-10 10-10z"/><path d="m260 450c5.52 0 10 4.48 10 10s-4.48 10-10 10-10-4.48-10-10 4.48-10 10-10z"/><path d="m170 50c5.52 0 10 4.48 10 10s-4.48 10-10 10-10-4.48-10-10 4.48-10 10-10z"/><path d="m80 180c5.52 0 10 4.48 10 10s-4.48 10-10 10-10-4.48-10-10 4.48-10 10-10z"/><path d="m429.998 420c-1.794 0-3.595-.481-5.199-1.459l-57.724-35.156c-15.262 4.391-31.074 6.615-47.075 6.615-27.334 0-53.447-6.299-77.619-18.722-3.335-1.622-5.636-5.042-5.636-8.998 0-5.522 4.472-10 9.995-10h.01c1.595 0 3.166.381 4.583 1.112 21.37 11.02 44.473 16.608 68.667 16.608 15.491 0 30.777-2.359 45.435-7.012 2.753-.874 5.756-.515 8.227.99l37.46 22.814-10.982-30.839c-1.529-4.295.04-9.081 3.816-11.637 41.355-27.983 66.044-74.458 66.044-124.316 0-82.71-67.29-150-150-150s-150 67.29-150 150c0 3.339.124 6.846.367 10.42.375 5.51-3.787 10.281-9.297 10.657-5.496.381-10.281-3.787-10.657-9.297-.274-4.026-.413-7.989-.413-11.78 0-93.738 76.262-170 170-170s170 76.262 170 170c0 53.901-25.461 104.313-68.483 136.369l17.904 50.276c1.42 3.988.175 8.439-3.11 11.111-1.827 1.487-4.064 2.244-6.313 2.244z"/><path d="m70.002 470c-2.408 0-4.796-.868-6.676-2.553-3.202-2.869-4.212-7.465-2.507-11.412l13.127-30.396c-27.662-21.772-43.946-55.017-43.946-90.499 0-63.489 51.652-115.14 115.14-115.14 5.623 0 11.242.406 16.7 1.206 27.099 3.934 51.999 17.527 70.1 38.273 18.281 20.954 28.35 47.824 28.35 75.66 0 10.073-1.305 20.071-3.878 29.718-13.392 50.3-59.149 85.433-111.272 85.433-10.382 0-20.656-1.386-30.604-4.123l-39.59 22.524c-1.545.879-3.249 1.309-4.944 1.309zm75.138-230c-52.46 0-95.14 42.68-95.14 95.14 0 31.627 15.662 61.106 41.895 78.858 3.979 2.693 5.481 7.836 3.576 12.247l-4.442 10.285 17.316-9.852c2.423-1.379 5.312-1.683 7.97-.84 9.307 2.953 19.005 4.451 28.825 4.451 43.072 0 80.882-29.024 91.946-70.583 2.126-7.97 3.204-16.234 3.204-24.567 0-46.939-34.967-87.412-81.336-94.143-4.516-.662-9.158-.996-13.814-.996z"/><path d="m330 180h-90c-5.523 0-10-4.477-10-10s4.477-10 10-10h90c5.522 0 10 4.477 10 10s-4.478 10-10 10z"/><path d="m390 210h-150c-5.523 0-10-4.477-10-10s4.477-10 10-10h150c5.522 0 10 4.477 10 10s-4.478 10-10 10z"/><path d="m440 240h-200c-5.523 0-10-4.477-10-10s4.477-10 10-10h200c5.522 0 10 4.477 10 10s-4.478 10-10 10z"/><path d="m200 370h-110c-5.523 0-10-4.478-10-10s4.477-10 10-10h110c5.523 0 10 4.478 10 10s-4.477 10-10 10z"/><path d="m200 340h-110c-5.523 0-10-4.478-10-10s4.477-10 10-10h110c5.523 0 10 4.478 10 10s-4.477 10-10 10z"/><path d="m200 310h-110c-5.523 0-10-4.478-10-10s4.477-10 10-10h110c5.523 0 10 4.478 10 10s-4.477 10-10 10z"/><path d="m90 150c-16.542 0-30-13.458-30-30s13.458-30 30-30 30 13.458 30 30-13.458 30-30 30zm0-40c-5.514 0-10 4.486-10 10s4.486 10 10 10 10-4.486 10-10-4.486-10-10-10z"/><path d="m335 490c-19.299 0-35-15.701-35-35s15.701-35 35-35 35 15.701 35 35-15.701 35-35 35zm0-50c-8.271 0-15 6.729-15 15s6.729 15 15 15 15-6.729 15-15-6.729-15-15-15z"/></g></svg>