<svg enable-background="new 0 0 512 512" height="512" viewBox="0 0 512 512" width="512" xmlns="http://www.w3.org/2000/svg"><g id="_x38_69-Leaf_x2C__Nature_x2C__Plant"><path d="m80 380c11.05 0 20 8.95 20 20s-8.95 20-20 20-20-8.95-20-20 8.95-20 20-20z" fill="#d94556"/><circle cx="420" cy="80" fill="#d94556" r="30"/><path d="m393.47 393.47c-62.93 62.94-164.96 62.94-227.89 0-57.96-57.96-44.66-197.18-67.74-296.58 97.69 22.7 238.51 11.57 295.63 68.69 62.94 62.93 62.94 164.96 0 227.89z" fill="#07cc66"/><path d="m470 170c5.52 0 10 4.48 10 10s-4.48 10-10 10-10-4.48-10-10 4.48-10 10-10z"/><path d="m470 380c5.52 0 10 4.48 10 10s-4.48 10-10 10-10-4.48-10-10 4.48-10 10-10z"/><path d="m370 450c5.52 0 10 4.48 10 10s-4.48 10-10 10-10-4.48-10-10 4.48-10 10-10z"/><path d="m310 50c5.52 0 10 4.48 10 10s-4.48 10-10 10-10-4.48-10-10 4.48-10 10-10z"/><path d="m170 50c5.52 0 10 4.48 10 10s-4.48 10-10 10-10-4.48-10-10 4.48-10 10-10z"/><path d="m140 430c5.52 0 10 4.48 10 10s-4.48 10-10 10-10-4.48-10-10 4.48-10 10-10z"/><path d="m60 190c5.52 0 10 4.48 10 10s-4.48 10-10 10-10-4.48-10-10 4.48-10 10-10z"/><path d="m279.525 450.675c-45.715 0-88.692-17.805-121.017-50.135-40.962-40.962-48.384-118.374-55.561-193.238-3.549-37.015-7.218-75.29-14.848-108.15-.781-3.363.229-6.892 2.67-9.333 2.442-2.441 5.973-3.448 9.333-2.669 31.854 7.402 69.447 11.246 105.802 14.963 75.705 7.742 153.986 15.747 194.636 56.396 32.329 32.324 50.134 75.301 50.134 121.015 0 45.715-17.805 88.692-50.135 121.017-32.322 32.329-75.3 50.134-121.014 50.134zm-168.732-340.827c5.803 30.259 8.978 63.37 12.063 95.545 6.84 71.347 13.914 145.124 49.795 181.005 28.547 28.553 66.502 44.276 106.874 44.276 40.371 0 78.326-15.724 106.873-44.275 28.553-28.548 44.276-66.503 44.276-106.875 0-40.371-15.724-78.326-44.275-106.873-35.62-35.62-110.304-43.257-182.529-50.643-31.427-3.213-63.764-6.519-93.077-12.16z"/><path d="m422.63 432.63c-2.56 0-5.118-.977-7.071-2.929l-233.34-233.34c-3.905-3.905-3.905-10.237 0-14.143 3.905-3.905 10.237-3.905 14.143 0l233.34 233.34c3.905 3.905 3.905 10.237 0 14.143-1.954 1.952-4.513 2.929-7.072 2.929z"/><path d="m274.129 383.141c-5.175 0-9.557-3.988-9.96-9.234-.423-5.507 3.697-10.313 9.204-10.737l83.384-6.412 6.412-83.384c.424-5.506 5.245-9.608 10.737-9.204 5.507.424 9.627 5.23 9.204 10.737l-7.069 91.931c-.378 4.918-4.286 8.826-9.204 9.204l-91.931 7.069c-.26.019-.52.03-.777.03z"/><path d="m262.35 338.35c-5.175 0-9.557-3.987-9.96-9.233-.423-5.507 3.698-10.313 9.204-10.737l52.732-4.053 4.053-52.732c.423-5.506 5.221-9.628 10.737-9.204 5.507.423 9.627 5.23 9.204 10.737l-4.71 61.279c-.378 4.918-4.286 8.826-9.204 9.204l-61.279 4.71c-.261.019-.521.029-.777.029z"/><path d="m241.809 294.24c-5.175 0-9.556-3.987-9.96-9.233-.423-5.506 3.697-10.313 9.204-10.737l30.844-2.373 2.373-30.844c.424-5.507 5.247-9.617 10.737-9.204 5.507.424 9.628 5.231 9.204 10.738l-3.03 39.39c-.379 4.918-4.286 8.825-9.204 9.204l-39.39 3.03c-.261.019-.521.029-.778.029z"/><path d="m217.559 255.86c-5.175 0-9.557-3.988-9.96-9.234-.423-5.506 3.697-10.314 9.204-10.737l17.723-1.363 1.363-17.723c.423-5.507 5.236-9.628 10.737-9.204 5.507.423 9.627 5.231 9.204 10.737l-2.02 26.27c-.378 4.918-4.286 8.826-9.204 9.204l-26.27 2.02c-.26.021-.52.03-.777.03z"/><path d="m80 430c-16.542 0-30-13.458-30-30s13.458-30 30-30 30 13.458 30 30-13.458 30-30 30zm0-40c-5.514 0-10 4.486-10 10s4.486 10 10 10 10-4.486 10-10-4.486-10-10-10z"/><path d="m420 120c-22.056 0-40-17.944-40-40s17.944-40 40-40 40 17.944 40 40-17.944 40-40 40zm0-60c-11.028 0-20 8.972-20 20s8.972 20 20 20 20-8.972 20-20-8.972-20-20-20z"/></g></svg>