<svg enable-background="new 0 0 512 512" height="512" viewBox="0 0 512 512" width="512" xmlns="http://www.w3.org/2000/svg"><g id="_x38_70-Business_x2C__Checklist_x2C__Clipboard_x2C__Finance"><path d="m152.5 480c-17.95 0-32.5-14.55-32.5-32.5v-345c0-17.95 14.55-32.5 32.5-32.5h225c17.95 0 32.5 14.55 32.5 32.5v345c0 17.95-14.55 32.5-32.5 32.5-23.24 0-196.837 0-225 0z" fill="#bce4ff"/><path d="m465 130c13.81 0 25 11.19 25 25s-11.19 25-25 25-25-11.19-25-25 11.19-25 25-25z" fill="#d94556"/><path d="m70 290c11.05 0 20 8.95 20 20s-8.95 20-20 20-20-8.95-20-20 8.95-20 20-20z" fill="#d94556"/><path d="m350 70v14.75c0 8.42-6.83 15.25-15.25 15.25h-139.5c-8.42 0-15.25-6.83-15.25-15.25v-14.75-4.75c0-8.42 6.83-15.25 15.25-15.25h45.25c2.32-11.41 12.41-20 24.5-20s22.18 8.59 24.5 20h45.25c8.42 0 15.25 6.83 15.25 15.25z" fill="#3f4751"/><path d="m460 220c5.52 0 10 4.48 10 10s-4.48 10-10 10-10-4.48-10-10 4.48-10 10-10z"/><path d="m450 400c5.52 0 10 4.48 10 10s-4.48 10-10 10-10-4.48-10-10 4.48-10 10-10z"/><path d="m420 40c5.52 0 10 4.48 10 10s-4.48 10-10 10-10-4.48-10-10 4.48-10 10-10z"/><path d="m370 140c5.52 0 10 4.48 10 10s-4.48 10-10 10-10-4.48-10-10 4.48-10 10-10z"/><path d="m80 70c5.52 0 10 4.48 10 10s-4.48 10-10 10-10-4.48-10-10 4.48-10 10-10z"/><path d="m80 390c5.52 0 10 4.48 10 10s-4.48 10-10 10-10-4.48-10-10 4.48-10 10-10z"/><path d="m70 230c5.52 0 10 4.48 10 10s-4.48 10-10 10-10-4.48-10-10 4.48-10 10-10z"/><path d="m377.5 490h-225c-23.435 0-42.5-19.065-42.5-42.5v-345c0-23.435 19.065-42.5 42.5-42.5h27.5c5.523 0 10 4.477 10 10s-4.477 10-10 10h-27.5c-12.407 0-22.5 10.093-22.5 22.5v345c0 12.406 10.093 22.5 22.5 22.5h225c12.406 0 22.5-10.094 22.5-22.5v-345c0-12.407-10.094-22.5-22.5-22.5h-27.5c-5.522 0-10-4.477-10-10s4.478-10 10-10h27.5c23.435 0 42.5 19.065 42.5 42.5v345c0 23.435-19.065 42.5-42.5 42.5z"/><path d="m334.75 110h-139.5c-13.923 0-25.25-11.327-25.25-25.25v-19.5c0-13.923 11.327-25.25 25.25-25.25h38.126c5.695-11.954 17.925-20 31.624-20 13.698 0 25.929 8.046 31.624 20h38.126c13.923 0 25.25 11.327 25.25 25.25v19.5c0 13.923-11.327 25.25-25.25 25.25zm-139.5-50c-2.895 0-5.25 2.355-5.25 5.25v19.5c0 2.895 2.355 5.25 5.25 5.25h139.5c2.895 0 5.25-2.355 5.25-5.25v-19.5c0-2.895-2.355-5.25-5.25-5.25h-45.25c-4.755 0-8.852-3.348-9.8-8.007-1.413-6.95-7.596-11.993-14.7-11.993-7.105 0-13.288 5.043-14.701 11.992-.947 4.66-5.044 8.008-9.799 8.008z"/><path d="m160 490c-5.523 0-10-4.478-10-10v-330c0-5.523 4.477-10 10-10s10 4.477 10 10v330c0 5.522-4.477 10-10 10z"/><path d="m370 490c-5.522 0-10-4.478-10-10v-300c0-5.523 4.478-10 10-10s10 4.477 10 10v300c0 5.522-4.478 10-10 10z"/><path d="m340 220h-80c-5.523 0-10-4.477-10-10s4.477-10 10-10h80c5.522 0 10 4.477 10 10s-4.478 10-10 10z"/><path d="m300 190h-40c-5.523 0-10-4.477-10-10s4.477-10 10-10h40c5.522 0 10 4.477 10 10s-4.478 10-10 10z"/><path d="m201.46 277.68c-2.561 0-5.12-.978-7.071-2.929l-14.14-14.14c-3.905-3.905-3.906-10.237 0-14.142s10.237-3.906 14.142 0l7.177 7.176 21.471-20.823c3.965-3.844 10.296-3.748 14.14.216 3.845 3.964 3.749 10.295-.216 14.14l-28.54 27.68c-1.942 1.882-4.453 2.822-6.963 2.822z"/><path d="m340 280h-80c-5.523 0-10-4.478-10-10s4.477-10 10-10h80c5.522 0 10 4.478 10 10s-4.478 10-10 10z"/><path d="m300 250h-40c-5.523 0-10-4.477-10-10s4.477-10 10-10h40c5.522 0 10 4.477 10 10s-4.478 10-10 10z"/><path d="m201.46 337.68c-2.561 0-5.12-.978-7.071-2.929l-14.14-14.14c-3.905-3.905-3.906-10.237 0-14.143 3.905-3.904 10.237-3.904 14.142 0l7.177 7.177 21.471-20.824c3.965-3.844 10.296-3.748 14.14.217 3.845 3.965 3.749 10.295-.216 14.141l-28.54 27.68c-1.942 1.881-4.453 2.821-6.963 2.821z"/><path d="m340 340h-80c-5.523 0-10-4.478-10-10s4.477-10 10-10h80c5.522 0 10 4.478 10 10s-4.478 10-10 10z"/><path d="m300 310h-40c-5.523 0-10-4.478-10-10s4.477-10 10-10h40c5.522 0 10 4.478 10 10s-4.478 10-10 10z"/><path d="m201.46 397.68c-2.561 0-5.12-.978-7.071-2.929l-14.14-14.14c-3.905-3.905-3.906-10.237 0-14.143 3.905-3.904 10.237-3.904 14.142 0l7.177 7.177 21.471-20.824c3.965-3.845 10.296-3.748 14.14.217 3.845 3.965 3.749 10.295-.216 14.141l-28.54 27.68c-1.942 1.881-4.453 2.821-6.963 2.821z"/><path d="m340 400h-80c-5.523 0-10-4.478-10-10s4.477-10 10-10h80c5.522 0 10 4.478 10 10s-4.478 10-10 10z"/><path d="m300 370h-40c-5.523 0-10-4.478-10-10s4.477-10 10-10h40c5.522 0 10 4.478 10 10s-4.478 10-10 10z"/><path d="m70 340c-16.542 0-30-13.458-30-30s13.458-30 30-30 30 13.458 30 30-13.458 30-30 30zm0-40c-5.514 0-10 4.486-10 10s4.486 10 10 10 10-4.486 10-10-4.486-10-10-10z"/><path d="m465 190c-19.299 0-35-15.701-35-35s15.701-35 35-35 35 15.701 35 35-15.701 35-35 35zm0-50c-8.271 0-15 6.729-15 15s6.729 15 15 15 15-6.729 15-15-6.729-15-15-15z"/></g></svg>