<svg enable-background="new 0 0 512 512" height="512" viewBox="0 0 512 512" width="512" xmlns="http://www.w3.org/2000/svg"><g id="_x38_71-Action_x2C__People_x2C__Protect_x2C__User"><path d="m449.94 231.86-9.94-106.86c-108.43-2.14-180-90-180-90s-71.57 87.86-180 90l-9.94 106.86c-6.24 67.03 23.37 132.371 77.87 171.89l112.07 81.25 112.07-81.25c54.5-39.52 84.1-104.86 77.87-171.89z" fill="#d94556"/><path d="m399.29 239.37c4.57 49.149-17.14 97.07-57.1 126.04l-82.19 59.59-82.19-59.59c-39.96-28.97-61.67-76.891-57.1-126.04l7.29-78.37c79.51-1.57 132-66 132-66s52.49 64.43 132 66z" fill="#fff"/><path d="m260 236.22c36.92 0 66.84 29.919 66.84 66.839 0 8.87-1.74 17.32-4.88 25.061-13.351 0-110.155 0-123.92 0-3.14-7.74-4.88-16.19-4.88-25.061 0-36.919 29.92-66.839 66.84-66.839.103 0 .103 0 0 0z" fill="#5cbeff"/><g fill="#ffd400"><path d="m455 50c8.28 0 15 6.72 15 15s-6.72 15-15 15-15-6.72-15-15 6.72-15 15-15z"/><path d="m455 400c8.28 0 15 6.72 15 15s-6.72 15-15 15-15-6.72-15-15 6.72-15 15-15z"/><path d="m80 420c11.05 0 20 8.95 20 20s-8.95 20-20 20-20-8.95-20-20 8.95-20 20-20z"/><path d="m95 40c13.81 0 25 11.19 25 25s-11.19 25-25 25-25-11.19-25-25 11.19-25 25-25z"/></g><path d="m260 236.22 16.71 41.77-16.71 16.71-16.71-16.71z" fill="#bce4ff"/><path d="m260 169.37c18.46 0 33.42 14.97 33.42 33.43 0 18.45-14.96 33.42-33.42 33.42s-33.42-14.97-33.42-33.42c0-18.46 14.96-33.43 33.42-33.43z" fill="#ffd5ab"/><path d="m390 50c5.52 0 10 4.48 10 10s-4.48 10-10 10-10-4.48-10-10 4.48-10 10-10z"/><path d="m390 440c5.52 0 10 4.48 10 10s-4.48 10-10 10-10-4.48-10-10 4.48-10 10-10z"/><path d="m170 30c5.52 0 10 4.48 10 10s-4.48 10-10 10-10-4.48-10-10 4.48-10 10-10z"/><path d="m140 450c5.52 0 10 4.48 10 10s-4.48 10-10 10-10-4.48-10-10 4.48-10 10-10z"/><path d="m60 350c5.52 0 10 4.48 10 10s-4.48 10-10 10-10-4.48-10-10 4.48-10 10-10z"/><path d="m40 120c5.52 0 10 4.48 10 10s-4.48 10-10 10-10-4.48-10-10 4.48-10 10-10z"/><path d="m259.992 495.001c-2.035 0-4.088-.619-5.862-1.905l-112.07-81.25c-28.146-20.409-50.606-47.934-64.952-79.598-14.348-31.668-20.228-66.702-17.006-101.315l9.94-106.859c.471-5.066 4.672-8.971 9.76-9.072 53.241-1.051 97.139-24.301 124.59-43.62 30.124-21.201 47.687-42.493 47.86-42.705 3.494-4.273 9.793-4.909 14.067-1.42 4.275 3.49 4.919 9.78 1.433 14.059-.766.94-19.126 23.287-51.319 46.047-28.299 20.008-72.813 43.879-127.287 47.269l-9.13 98.155c-5.883 63.193 22.389 125.601 73.784 162.868l112.069 81.25c4.471 3.241 5.468 9.494 2.226 13.966-1.955 2.696-5.007 4.13-8.103 4.13z"/><path d="m260.008 495.001c-3.096 0-6.148-1.433-8.104-4.131-3.242-4.472-2.245-10.725 2.227-13.966l112.071-81.25c51.384-37.261 79.656-99.668 73.782-162.869l-9.131-98.154c-54.473-3.39-98.987-27.261-127.286-47.269-32.193-22.76-50.554-45.107-51.32-46.047-3.488-4.282-2.844-10.581 1.438-14.069 4.283-3.489 10.581-2.844 14.069 1.437.168.205 17.73 21.497 47.854 42.698 27.451 19.319 71.349 42.569 124.59 43.62 5.088.101 9.288 4.005 9.76 9.072l9.94 106.86c3.217 34.615-2.665 69.649-17.01 101.314s-36.804 59.189-64.947 79.598l-112.071 81.25c-1.773 1.287-3.827 1.906-5.862 1.906z"/><path d="m259.992 435.001c-2.035 0-4.089-.619-5.862-1.905l-82.19-59.59c-42.615-30.895-66.061-82.647-61.188-135.062l7.29-78.371c.471-5.066 4.672-8.971 9.76-9.072 73.745-1.456 123.955-61.72 124.453-62.329 3.497-4.269 9.796-4.902 14.066-1.412 4.273 3.491 4.915 9.777 1.431 14.055-2.181 2.677-52.51 63.375-130.6 69.257l-6.486 69.724c-4.222 45.412 16.091 90.25 53.013 117.017l82.19 59.591c4.471 3.241 5.468 9.494 2.226 13.966-1.955 2.697-5.007 4.131-8.103 4.131z"/><path d="m260.008 435.001c-3.096 0-6.147-1.433-8.104-4.131-3.242-4.472-2.245-10.725 2.227-13.966l82.19-59.59c36.923-26.768 57.235-71.606 53.013-117.019l-6.485-69.723c-78.091-5.882-128.42-66.58-130.601-69.257-3.488-4.282-2.845-10.581 1.437-14.069 4.279-3.485 10.57-2.846 14.06 1.426.499.608 50.708 60.873 124.453 62.329 5.088.101 9.288 4.005 9.76 9.072l7.29 78.37c4.874 52.415-18.571 104.167-61.188 135.063l-82.189 59.589c-1.774 1.287-3.828 1.906-5.863 1.906z"/><path d="m260 246.22c-23.942 0-43.42-19.479-43.42-43.42 0-23.947 19.478-43.43 43.42-43.43 23.941 0 43.42 19.482 43.42 43.43 0 23.942-19.479 43.42-43.42 43.42zm0-66.85c-12.914 0-23.42 10.511-23.42 23.43 0 12.914 10.506 23.42 23.42 23.42s23.42-10.506 23.42-23.42c0-12.919-10.506-23.43-23.42-23.43z"/><path d="m260 304.7c-2.56 0-5.119-.977-7.071-2.929l-16.71-16.71c-2.829-2.829-3.699-7.071-2.213-10.785l16.71-41.771c1.519-3.796 5.196-6.286 9.285-6.286s7.766 2.489 9.284 6.286l16.71 41.771c1.486 3.714.615 7.956-2.213 10.785l-16.71 16.71c-1.954 1.953-4.512 2.929-7.072 2.929zm-4.976-29.118 4.976 4.976 4.976-4.976-4.976-12.438z"/><path d="m321.96 338.12h-123.92c-4.071 0-7.736-2.468-9.267-6.24-3.725-9.182-5.613-18.878-5.613-28.82 0-42.369 34.47-76.839 76.84-76.839 42.369 0 76.84 34.47 76.84 76.839 0 9.94-1.889 19.637-5.613 28.819-1.531 3.772-5.196 6.241-9.267 6.241zm-116.773-20h109.625c1.348-4.885 2.027-9.928 2.027-15.061 0-31.342-25.498-56.839-56.84-56.839s-56.84 25.498-56.84 56.839c.001 5.134.681 10.176 2.028 15.061z"/><path d="m95 100c-19.299 0-35-15.701-35-35s15.701-35 35-35 35 15.701 35 35-15.701 35-35 35zm0-50c-8.271 0-15 6.729-15 15s6.729 15 15 15 15-6.729 15-15-6.729-15-15-15z"/><path d="m80 470c-16.542 0-30-13.458-30-30s13.458-30 30-30 30 13.458 30 30-13.458 30-30 30zm0-40c-5.514 0-10 4.486-10 10s4.486 10 10 10 10-4.486 10-10-4.486-10-10-10z"/><path d="m455 90c-13.785 0-25-11.215-25-25s11.215-25 25-25 25 11.215 25 25-11.215 25-25 25zm0-30c-2.757 0-5 2.243-5 5s2.243 5 5 5 5-2.243 5-5-2.243-5-5-5z"/><path d="m455 440c-13.785 0-25-11.215-25-25s11.215-25 25-25 25 11.215 25 25-11.215 25-25 25zm0-30c-2.757 0-5 2.243-5 5s2.243 5 5 5 5-2.243 5-5-2.243-5-5-5z"/><path d="m360 240h-30c-5.522 0-10-4.477-10-10s4.478-10 10-10h30c5.522 0 10 4.477 10 10s-4.478 10-10 10z"/><path d="m360 210h-30c-5.522 0-10-4.477-10-10s4.478-10 10-10h30c5.522 0 10 4.477 10 10s-4.478 10-10 10z"/><path d="m190 240h-30c-5.523 0-10-4.477-10-10s4.477-10 10-10h30c5.523 0 10 4.477 10 10s-4.477 10-10 10z"/><path d="m190 210h-30c-5.523 0-10-4.477-10-10s4.477-10 10-10h30c5.523 0 10 4.477 10 10s-4.477 10-10 10z"/></g></svg>