<svg enable-background="new 0 0 512 512" height="512" viewBox="0 0 512 512" width="512" xmlns="http://www.w3.org/2000/svg"><g id="_x38_72-Darts_x2C__Goals_x2C__Target"><path d="m437.318 228.919c-4.644-26.742-15.416-52.072-30.828-73.539l-.004.004c-21.13-29.533-51.013-52.485-86.044-64.971-56.518-20.134-118.412-10.395-165.062 23.097l.004.004c-46.445 33.228-75.384 87.099-75.384 146.486 0 99.41 80.59 180 180 180 111.471 0 196.53-100.458 177.318-211.081z" fill="#d94556"/><path d="m357.09 162.43h-.08v-.08c-24.88-24.72-59.16-40-97.01-40-76.02 0-137.65 61.63-137.65 137.65s61.63 137.65 137.65 137.65 137.65-61.631 137.65-137.65c0-38.13-15.51-72.64-40.56-97.57z" fill="#bce4ff"/><path d="m327.1 192.34c-17.21-17.07-40.92-27.63-67.1-27.63-52.63 0-95.29 42.66-95.29 95.29s42.66 95.29 95.29 95.29 95.29-42.66 95.29-95.29c0-26.46-10.78-50.39-28.19-67.66z" fill="#d94556"/><g fill="#3256c1"><path d="m455 60c8.28 0 15 6.72 15 15s-6.72 15-15 15-15-6.72-15-15 6.72-15 15-15z"/><path d="m70 390c11.05 0 20 8.95 20 20s-8.95 20-20 20-20-8.95-20-20 8.95-20 20-20z"/><path d="m125 30c13.81 0 25 11.19 25 25s-11.19 25-25 25-25-11.19-25-25 11.19-25 25-25z"/></g><path d="m440 121.87-33.51 33.51-8.92 8.92-40.48-1.87c-.01-.01-.03-.03-.04-.04l33.45-33.45 7.07-7.07z" fill="#19ab5c"/><path d="m397.57 79.45v42.42l-7.07 7.07-33.45 33.45c-.01-.01-.03-.03-.04-.04l-1.859-40.48 8.819-8.82z" fill="#07cc66"/><path d="m297.16 222.28c9.74 9.61 15.78 22.96 15.78 37.72 0 29.24-23.7 52.94-52.94 52.94s-52.94-23.7-52.94-52.94 23.7-52.94 52.94-52.94c14.48 0 27.61 5.81 37.16 15.22z" fill="#bce4ff"/><path d="m460 170c5.52 0 10 4.48 10 10s-4.48 10-10 10-10-4.48-10-10 4.48-10 10-10z"/><path d="m450 370c5.52 0 10 4.48 10 10s-4.48 10-10 10-10-4.48-10-10 4.48-10 10-10z"/><path d="m400 450c5.52 0 10 4.48 10 10s-4.48 10-10 10-10-4.48-10-10 4.48-10 10-10z"/><path d="m360 40c5.52 0 10 4.48 10 10s-4.48 10-10 10-10-4.48-10-10 4.48-10 10-10z"/><path d="m160 450c5.52 0 10 4.48 10 10s-4.48 10-10 10-10-4.48-10-10 4.48-10 10-10z"/><path d="m90 110c5.52 0 10 4.48 10 10s-4.48 10-10 10-10-4.48-10-10 4.48-10 10-10z"/><path d="m260 322.94c-34.705 0-62.94-28.235-62.94-62.94s28.235-62.94 62.94-62.94c16.646 0 32.335 6.427 44.179 18.097 12.1 11.939 18.761 27.863 18.761 44.843 0 34.705-28.235 62.94-62.94 62.94zm0-105.88c-23.677 0-42.94 19.263-42.94 42.94 0 23.678 19.263 42.94 42.94 42.94 23.678 0 42.94-19.263 42.94-42.94 0-11.587-4.547-22.456-12.804-30.602-8.073-7.955-18.777-12.338-30.136-12.338z"/><path d="m260 365.29c-58.057 0-105.29-47.232-105.29-105.29 0-58.057 47.233-105.29 105.29-105.29 27.962 0 54.293 10.842 74.142 30.53 20.087 19.925 31.148 46.475 31.148 74.76 0 58.058-47.232 105.29-105.29 105.29zm0-190.58c-47.029 0-85.29 38.261-85.29 85.29s38.261 85.29 85.29 85.29 85.29-38.261 85.29-85.29c0-22.913-8.961-44.42-25.232-60.561-16.079-15.946-37.408-24.729-60.058-24.729z"/><path d="m260 407.65c-81.415 0-147.65-66.235-147.65-147.65s66.235-147.65 147.65-147.65c39.256 0 76.211 15.238 104.058 42.906.019.018.04.04.063.063l.016.017c.002.002.005.004.007.007 28.055 27.92 43.506 65.089 43.506 104.657 0 81.415-66.235 147.65-147.65 147.65zm0-275.3c-70.386 0-127.65 57.264-127.65 127.65 0 70.387 57.264 127.65 127.65 127.65 70.387 0 127.65-57.264 127.65-127.65 0-34.208-13.358-66.342-37.614-90.482-.016-.015-.031-.03-.046-.045-.009-.008-.017-.017-.025-.026-24.107-23.936-56.042-37.097-89.965-37.097z"/><path d="m259.72 269.72c-2.56 0-5.118-.977-7.071-2.929-3.905-3.905-3.905-10.237 0-14.143l97.29-97.29c3.907-3.904 10.237-3.905 14.143 0s3.905 10.237 0 14.142l-97.29 97.29c-1.954 1.953-4.514 2.93-7.072 2.93z"/><path d="m260 450c-104.766 0-190-85.233-190-190 0-104.766 85.234-190 190-190 39.584 0 77.536 12.065 109.751 34.89 4.507 3.193 5.571 9.435 2.378 13.941-3.193 4.505-9.435 5.572-13.94 2.378-28.817-20.417-62.77-31.209-98.189-31.209-93.738 0-170 76.262-170 170s76.262 170 170 170 170-76.262 170-170c0-35.69-10.942-69.856-31.644-98.803-3.213-4.492-2.176-10.738 2.316-13.951 4.493-3.213 10.739-2.175 13.951 2.317 23.145 32.361 35.377 70.55 35.377 110.437 0 104.767-85.233 190-190 190z"/><path d="m357.01 172.39c-5.461 0-9.898-4.337-9.998-9.773l-1.851-40.288c-.129-2.809.93-5.542 2.918-7.53l42.42-42.42c2.861-2.86 7.165-3.715 10.898-2.167 3.736 1.548 6.173 5.194 6.173 9.239v42.42c0 5.523-4.478 10-10 10s-10-4.477-10-10v-18.278l-22.228 22.228 1.656 36.071c.007.153.011.306.011.459.001 5.522-4.477 10.039-9.999 10.039z"/><path d="m397.57 174.3c-.153 0-.307-.003-.461-.011l-40.448-1.868c-3.875-.165-7.357-2.56-8.851-6.164-1.547-3.736-.731-8.038 2.128-10.898l40.561-40.56c1.876-1.875 4.419-2.929 7.071-2.929h42.43c4.045 0 7.691 2.437 9.239 6.173 1.547 3.736.691 8.038-2.168 10.898l-42.43 42.43c-1.879 1.879-4.425 2.929-7.071 2.929zm-17.47-20.818 13.521.625 22.236-22.237h-14.146z"/><path d="m70 440c-16.542 0-30-13.458-30-30s13.458-30 30-30 30 13.458 30 30-13.458 30-30 30zm0-40c-5.514 0-10 4.486-10 10s4.486 10 10 10 10-4.486 10-10-4.486-10-10-10z"/><path d="m455 100c-13.785 0-25-11.215-25-25s11.215-25 25-25 25 11.215 25 25-11.215 25-25 25zm0-30c-2.757 0-5 2.243-5 5s2.243 5 5 5 5-2.243 5-5-2.243-5-5-5z"/><path d="m125 90c-19.299 0-35-15.701-35-35s15.701-35 35-35 35 15.701 35 35-15.701 35-35 35zm0-50c-8.271 0-15 6.729-15 15s6.729 15 15 15 15-6.729 15-15-6.729-15-15-15z"/></g></svg>