<svg enable-background="new 0 0 512 512" height="512" viewBox="0 0 512 512" width="512" xmlns="http://www.w3.org/2000/svg"><g id="_x38_73-Camera_x2C__Interface_x2C__User"><path d="m440 360v15.5c0 24.58-19.92 44.5-44.5 44.5h-281c-24.58 0-44.5-19.92-44.5-44.5v-15.5z" fill="#545b66"/><path d="m395.5 180c-27.021 0-250.944 0-281 0-24.58 0-44.5 19.92-44.5 44.5v135.5h370c0-2.567 0-130.836 0-135.5 0-24.58-19.92-44.5-44.5-44.5z" fill="#757d8c"/><path d="m320 380c-44.338 0-80-36.006-80-80 0-44.18 35.82-80 80-80 44.185 0 80 35.829 80 80 0 43.971-35.629 80-80 80z" fill="#bce4ff"/><g fill="#f88f19"><path d="m425 50c13.81 0 25 11.19 25 25s-11.19 25-25 25-25-11.19-25-25 11.19-25 25-25z"/><path d="m185 450c8.28 0 15 6.72 15 15s-6.72 15-15 15-15-6.72-15-15 6.72-15 15-15z"/><path d="m120 70c11.05 0 20 8.95 20 20s-8.95 20-20 20-20-8.95-20-20 8.95-20 20-20z"/></g><path d="m140 150h40v30h-40z" fill="#d94556"/><path d="m350 140 10 40h-120l10-40z" fill="#94d4ff"/><circle cx="320" cy="300" fill="#94d4ff" r="44.31"/><path d="m470 120c5.52 0 10 4.48 10 10s-4.48 10-10 10-10-4.48-10-10 4.48-10 10-10z"/><path d="m420 440c5.52 0 10 4.48 10 10s-4.48 10-10 10-10-4.48-10-10 4.48-10 10-10z"/><path d="m350 60c5.52 0 10 4.48 10 10s-4.48 10-10 10-10-4.48-10-10 4.48-10 10-10z"/><path d="m270 460c5.52 0 10 4.48 10 10s-4.48 10-10 10-10-4.48-10-10 4.48-10 10-10z"/><path d="m210 90c5.52 0 10 4.48 10 10s-4.48 10-10 10-10-4.48-10-10 4.48-10 10-10z"/><path d="m200 270c5.52 0 10 4.48 10 10s-4.48 10-10 10-10-4.48-10-10 4.48-10 10-10z"/><path d="m80 120c5.52 0 10 4.48 10 10s-4.48 10-10 10-10-4.48-10-10 4.48-10 10-10z"/><path d="m60 430c5.52 0 10 4.48 10 10s-4.48 10-10 10-10-4.48-10-10 4.48-10 10-10z"/><path d="m395.5 430h-281c-30.051 0-54.5-24.448-54.5-54.5v-151c0-30.051 24.449-54.5 54.5-54.5h25.5c5.523 0 10 4.477 10 10s-4.477 10-10 10h-25.5c-19.023 0-34.5 15.477-34.5 34.5v151c0 19.023 15.477 34.5 34.5 34.5h281c19.023 0 34.5-15.477 34.5-34.5v-151c0-19.023-15.477-34.5-34.5-34.5h-35.5c-5.522 0-10-4.477-10-10s4.478-10 10-10h35.5c30.052 0 54.5 24.449 54.5 54.5v151c0 30.052-24.448 54.5-54.5 54.5z"/><path d="m240 190h-60c-5.523 0-10-4.477-10-10s4.477-10 10-10h60c5.523 0 10 4.477 10 10s-4.477 10-10 10z"/><path d="m360.02 190c-.007 0-.015 0-.02 0h-120c-3.079 0-5.987-1.419-7.882-3.846-1.896-2.427-2.566-5.592-1.82-8.58l10-40c1.113-4.452 5.113-7.575 9.702-7.575h100c4.589 0 8.589 3.123 9.701 7.575l9.84 39.36c.312.966.479 1.996.479 3.065 0 5.524-4.477 10.001-10 10.001zm-107.212-20h94.385l-5-20h-84.385z"/><path d="m180 190h-40c-5.523 0-10-4.477-10-10v-30c0-5.523 4.477-10 10-10h40c5.523 0 10 4.477 10 10v30c0 5.523-4.477 10-10 10zm-30-20h20v-10h-20z"/><path d="m320 354.31c-29.946 0-54.31-24.363-54.31-54.31s24.363-54.31 54.31-54.31 54.31 24.364 54.31 54.31-24.364 54.31-54.31 54.31zm0-88.621c-18.918 0-34.31 15.392-34.31 34.311 0 18.918 15.392 34.31 34.31 34.31s34.31-15.392 34.31-34.31c0-18.919-15.392-34.311-34.31-34.311z"/><path d="m320 390c-21.958 0-43.101-7.996-59.532-22.517-19.36-17.063-30.468-41.664-30.468-67.483 0-49.626 40.374-90 90-90 41.09 0 76.934 27.76 87.165 67.507 1.882 7.334 2.835 14.899 2.835 22.493 0 25.813-11.107 50.417-30.475 67.499-16.431 14.509-37.573 22.501-59.525 22.501zm0-160c-38.598 0-70 31.402-70 70 0 20.08 8.639 39.211 23.702 52.488 12.783 11.296 29.222 17.512 46.298 17.512 17.073 0 33.514-6.214 46.291-17.496 15.069-13.291 23.709-32.427 23.709-52.504 0-5.918-.742-11.811-2.206-17.515-7.954-30.899-35.833-52.485-67.794-52.485z"/><path d="m440 370h-67.85c-5.522 0-10-4.478-10-10s4.478-10 10-10h67.85c5.522 0 10 4.478 10 10s-4.478 10-10 10z"/><path d="m267.08 370h-197.08c-5.523 0-10-4.478-10-10s4.477-10 10-10h197.08c5.522 0 10 4.478 10 10s-4.477 10-10 10z"/><path d="m440 290h-42.62c-5.522 0-10-4.478-10-10s4.478-10 10-10h42.62c5.522 0 10 4.478 10 10s-4.478 10-10 10z"/><path d="m170 290h-100c-5.523 0-10-4.478-10-10s4.477-10 10-10h100c5.523 0 10 4.478 10 10s-4.477 10-10 10z"/><path d="m120 120c-16.542 0-30-13.458-30-30s13.458-30 30-30 30 13.458 30 30-13.458 30-30 30zm0-40c-5.514 0-10 4.486-10 10s4.486 10 10 10 10-4.486 10-10-4.486-10-10-10z"/><path d="m185 490c-13.785 0-25-11.215-25-25s11.215-25 25-25 25 11.215 25 25-11.215 25-25 25zm0-30c-2.757 0-5 2.243-5 5s2.243 5 5 5 5-2.243 5-5-2.243-5-5-5z"/><path d="m425 110c-19.299 0-35-15.701-35-35s15.701-35 35-35 35 15.701 35 35-15.701 35-35 35zm0-50c-8.271 0-15 6.729-15 15s6.729 15 15 15 15-6.729 15-15-6.729-15-15-15z"/></g></svg>