<svg enable-background="new 0 0 512 512" height="512" viewBox="0 0 512 512" width="512" xmlns="http://www.w3.org/2000/svg"><g id="_x38_74-Health_x2C__Heart_x2C__Care"><path d="m420 440c11.05 0 20 8.95 20 20s-8.95 20-20 20-20-8.95-20-20 8.95-20 20-20z" fill="#f88f19"/><path d="m85 50c13.81 0 25 11.19 25 25s-11.19 25-25 25-25-11.19-25-25 11.19-25 25-25z" fill="#f88f19"/><path d="m260 60c-110.46 0-200 89.54-200 200s89.54 200 200 200 200-89.54 200-200-89.54-200-200-200z" fill="#3f4751"/><path d="m260 110c82.84 0 150 67.16 150 150s-67.16 150-150 150-150-67.16-150-150 67.16-150 150-150z" fill="#fff"/><path d="m303.86 230c24.27 0 43.93 19.65 43.93 43.88 0 43.88-43.93 68.87-87.82 112.75-43.88-43.88-87.76-68.87-87.76-112.75 0-24.23 19.66-43.88 43.88-43.88 21.94 0 32.91 10.97 43.88 32.91 10.98-21.94 21.95-32.91 43.89-32.91z" fill="#d94556"/><path d="m470 120c5.52 0 10 4.48 10 10s-4.48 10-10 10-10-4.48-10-10 4.48-10 10-10z"/><path d="m470 380c5.52 0 10 4.48 10 10s-4.48 10-10 10-10-4.48-10-10 4.48-10 10-10z"/><path d="m400 30c5.52 0 10 4.48 10 10s-4.48 10-10 10-10-4.48-10-10 4.48-10 10-10z"/><path d="m110 460c5.52 0 10 4.48 10 10s-4.48 10-10 10-10-4.48-10-10 4.48-10 10-10z"/><path d="m50 130c5.52 0 10 4.48 10 10s-4.48 10-10 10-10-4.48-10-10 4.48-10 10-10z"/><path d="m50 380c5.52 0 10 4.48 10 10s-4.48 10-10 10-10-4.48-10-10 4.48-10 10-10z"/><path d="m259.97 396.63c-2.56 0-5.118-.977-7.071-2.929-10.564-10.564-21.071-19.962-31.231-29.05-31.904-28.536-59.458-53.181-59.458-90.771 0-29.709 24.17-53.88 53.88-53.88 21.099 0 33.904 8.794 43.883 23.064 9.985-14.271 22.793-23.064 43.887-23.064 29.737 0 53.93 24.17 53.93 53.88 0 37.581-27.561 62.217-59.473 90.743-10.177 9.097-20.699 18.503-31.277 29.079-1.952 1.951-4.512 2.928-7.07 2.928zm-43.88-156.63c-18.682 0-33.88 15.198-33.88 33.88 0 28.646 23.296 49.484 52.791 75.864 8.125 7.268 16.466 14.728 24.97 22.892 8.52-8.176 16.878-15.647 25.018-22.924 29.501-26.37 52.802-47.199 52.802-75.832 0-18.682-15.221-33.88-33.93-33.88-16.08 0-24.572 6.654-34.948 27.386-1.694 3.386-5.156 5.524-8.942 5.524-.001 0-.001 0-.002 0-3.787-.001-7.249-2.141-8.942-5.528-10.366-20.728-18.855-27.382-34.937-27.382z"/><path d="m260 199.44c-5.523 0-10-4.477-10-10v-49.44c0-5.523 4.477-10 10-10 5.522 0 10 4.477 10 10v49.44c0 5.523-4.478 10-10 10z"/><path d="m288.086 203.092c-.877 0-1.768-.116-2.654-.359-5.325-1.463-8.457-6.966-6.994-12.292l6.55-23.85c1.462-5.326 6.964-8.457 12.291-6.995 5.325 1.463 8.457 6.966 6.994 12.292l-6.55 23.85c-1.219 4.439-5.246 7.354-9.637 7.354z"/><path d="m314.24 214.062c-1.703 0-3.429-.435-5.008-1.351-4.777-2.771-6.403-8.891-3.633-13.668l12.5-21.55c2.771-4.776 8.892-6.403 13.668-3.633 4.777 2.771 6.403 8.891 3.633 13.668l-12.5 21.55c-1.855 3.197-5.211 4.984-8.66 4.984z"/><path d="m205.759 214.062c-3.473 0-6.847-1.811-8.692-5.042l-12.31-21.55c-2.739-4.795-1.073-10.904 3.723-13.643s10.904-1.072 13.643 3.723l12.31 21.55c2.739 4.795 1.073 10.904-3.723 13.643-1.564.894-3.27 1.319-4.951 1.319z"/><path d="m231.904 203.092c-4.423 0-8.468-2.957-9.658-7.433l-6.34-23.85c-1.419-5.337 1.758-10.815 7.095-12.233 5.34-1.42 10.815 1.758 12.234 7.095l6.34 23.85c1.419 5.337-1.758 10.815-7.095 12.233-.861.229-1.726.338-2.576.338z"/><path d="m260 470c-115.794 0-210-94.206-210-210s94.206-210 210-210 210 94.206 210 210-94.206 210-210 210zm0-400c-104.767 0-190 85.233-190 190s85.233 190 190 190 190-85.233 190-190-85.233-190-190-190z"/><path d="m260 420c-88.224 0-160-71.775-160-160 0-88.224 71.776-160 160-160 88.225 0 160 71.776 160 160 0 88.225-71.775 160-160 160zm0-300c-77.196 0-140 62.804-140 140s62.804 140 140 140 140-62.804 140-140-62.804-140-140-140z"/><path d="m85 110c-19.299 0-35-15.701-35-35s15.701-35 35-35 35 15.701 35 35-15.701 35-35 35zm0-50c-8.271 0-15 6.729-15 15s6.729 15 15 15 15-6.729 15-15-6.729-15-15-15z"/><path d="m420 490c-16.542 0-30-13.458-30-30s13.458-30 30-30 30 13.458 30 30-13.458 30-30 30zm0-40c-5.514 0-10 4.486-10 10s4.486 10 10 10 10-4.486 10-10-4.486-10-10-10z"/></g></svg>