<svg enable-background="new 0 0 512 512" height="512" viewBox="0 0 512 512" width="512" xmlns="http://www.w3.org/2000/svg"><g id="_x38_75-Interface_x2C__Notification_x2C__User"><path d="m387.04 283.37c-.031-64.851.068-61.285-.073-65.922-1.86-58.032-41.206-107.087-95.367-122.678 0 .001-.001.001-.001.002-.003 0-.006-.001-.009-.002-6.847 15.058-22.439 24.726-39.611 23.448-14.96-1.112-27.644-10.417-33.569-23.448-.003.001-.006.002-.009.003 0-.001-.001-.002-.001-.003-55.78 16.057-95.44 67.398-95.44 126.9v61.7c0 29.07-3.02 58.04-8.98 86.439l.93.19h280.18l.93-.19c-5.959-28.399-8.98-57.369-8.98-86.439z" fill="#ffd400"/><circle cx="445" cy="275" fill="#07cc66" r="25"/><path d="m60 260c11.05 0 20 8.95 20 20s-8.95 20-20 20-20-8.95-20-20 8.95-20 20-20z" fill="#07cc66"/><path d="m295.19 422.59v17.22c0 22.2-18 40.19-40.19 40.19s-40.19-17.99-40.19-40.19v-17.22z" fill="#bce4ff"/><path d="m403.21 398.82 6.79 23.77h-114.81-80.38-114.81l6.79-23.77c2.74-9.59 5.14-19.271 7.19-29.011l.93.19h280.18l.93-.19c2.05 9.741 4.45 19.421 7.19 29.011z" fill="#faa71a"/><path d="m360 100c27.61 0 50 22.39 50 50 0 18.88-10.46 35.31-25.91 43.82-7.15 3.94-15.36 6.18-24.09 6.18-27.61 0-50-22.39-50-50 0-15.42 6.99-29.22 17.97-38.38 8.68-7.26 19.85-11.62 32.03-11.62z" fill="#d94556"/><path d="m450 180c5.52 0 10 4.48 10 10s-4.48 10-10 10-10-4.48-10-10 4.48-10 10-10z"/><path d="m390 50c5.52 0 10 4.48 10 10s-4.48 10-10 10-10-4.48-10-10 4.48-10 10-10z"/><path d="m350 450c5.52 0 10 4.48 10 10s-4.48 10-10 10-10-4.48-10-10 4.48-10 10-10z"/><path d="m290 330c5.52 0 10 4.48 10 10s-4.48 10-10 10-10-4.48-10-10 4.48-10 10-10z"/><path d="m170 450c5.52 0 10 4.48 10 10s-4.48 10-10 10-10-4.48-10-10 4.48-10 10-10z"/><path d="m110 60c5.52 0 10 4.48 10 10s-4.48 10-10 10-10-4.48-10-10 4.48-10 10-10z"/><path d="m80 190c5.52 0 10 4.48 10 10s-4.48 10-10 10-10-4.48-10-10 4.48-10 10-10z"/><path d="m50 370c5.52 0 10 4.48 10 10s-4.48 10-10 10-10-4.48-10-10 4.48-10 10-10z"/><path d="m255 128.33c-19.625 0-37.563-11.546-45.701-29.416-2.98-6.556-4.489-13.54-4.489-20.765 0-27.675 22.515-50.19 50.19-50.19 27.669 0 50.18 22.515 50.18 50.19 0 7.225-1.51 14.208-4.486 20.758-8.128 17.875-26.063 29.423-45.694 29.423zm0-80.37c-16.647 0-30.19 13.543-30.19 30.19 0 4.35.906 8.55 2.694 12.482 4.895 10.749 15.689 17.698 27.496 17.698 11.809 0 22.598-6.947 27.486-17.699 1.787-3.931 2.693-8.131 2.693-12.481.001-16.647-13.537-30.19-30.179-30.19z"/><path d="m255 490c-27.675 0-50.19-22.516-50.19-50.19v-17.22c0-5.522 4.477-10 10-10s10 4.478 10 10v17.22c0 16.647 13.543 30.19 30.19 30.19s30.19-13.543 30.19-30.19v-17.22c0-5.522 4.478-10 10-10s10 4.478 10 10v17.22c0 27.674-22.515 50.19-50.19 50.19z"/><path d="m395.09 380h-280.18c-5.523 0-10-4.478-10-10s4.477-10 10-10h280.18c5.522 0 10 4.478 10 10s-4.478 10-10 10z"/><path d="m260 350h-140.18c-5.523 0-10-4.478-10-10s4.477-10 10-10h140.18c5.522 0 10 4.478 10 10s-4.478 10-10 10z"/><path d="m365 180c-5.522 0-10-4.477-10-10v-20c-2.56 0-5.118-.976-7.071-2.929-3.905-3.905-3.905-10.237 0-14.143l10-10c2.86-2.859 7.161-3.715 10.898-2.167 3.736 1.548 6.173 5.194 6.173 9.239v40c0 5.523-4.478 10-10 10z"/><path d="m410 432.59h-310c-3.138 0-6.094-1.473-7.983-3.978s-2.494-5.752-1.632-8.77l6.79-23.77c2.668-9.339 5.03-18.868 7.02-28.323 5.816-27.714 8.766-56.104 8.766-84.38v-61.7c0-31.438 10.064-61.229 29.104-86.152 18.426-24.119 44.553-42.003 73.57-50.357.899-.259 1.831-.391 2.767-.391 5.523 0 10.01 4.477 10.01 10 0 4.695-3.229 8.635-7.59 9.71-51.752 15.066-87.86 63.203-87.86 117.19v61.7c0 29.652-3.093 59.426-9.193 88.493-2.087 9.92-4.564 19.912-7.361 29.704l-3.148 11.022h283.486l-3.148-11.022c-2.794-9.776-5.27-19.768-7.36-29.697-6.102-29.072-9.194-58.846-9.194-88.5v-61.7c0-8.665-.918-17.329-2.727-25.749-1.161-5.4 2.275-10.718 7.676-11.878 5.407-1.158 10.718 2.277 11.877 7.676 2.106 9.799 3.174 19.876 3.174 29.951v61.7c0 28.276 2.949 56.668 8.767 84.386 1.992 9.463 4.354 18.992 7.019 28.317l6.79 23.77c.862 3.018.258 6.265-1.632 8.77s-4.85 3.978-7.988 3.978z"/><path d="m327.961 121.621c-1.902 0-3.825-.542-5.528-1.674-10.322-6.864-21.558-12.081-33.397-15.506-4.287-1.129-7.45-5.031-7.45-9.671 0-5.523 4.473-10 9.995-10 .935 0 1.874.131 2.772.389 13.889 3.992 27.062 10.093 39.154 18.134 4.599 3.058 5.848 9.265 2.79 13.864-1.926 2.896-5.101 4.464-8.336 4.464z"/><path d="m60 310c-16.542 0-30-13.458-30-30s13.458-30 30-30 30 13.458 30 30-13.458 30-30 30zm0-40c-5.514 0-10 4.486-10 10s4.486 10 10 10 10-4.486 10-10-4.486-10-10-10z"/><path d="m445 310c-19.299 0-35-15.701-35-35s15.701-35 35-35 35 15.701 35 35-15.701 35-35 35zm0-50c-8.271 0-15 6.729-15 15s6.729 15 15 15 15-6.729 15-15-6.729-15-15-15z"/><path d="m360 210c-33.084 0-60-26.916-60-60 0-17.838 7.859-34.626 21.563-46.059 10.747-8.987 24.4-13.941 38.437-13.941 33.084 0 60 26.916 60 60 0 21.871-11.911 42.018-31.086 52.579-8.809 4.855-18.808 7.421-28.914 7.421zm0-100c-9.354 0-18.451 3.299-25.614 9.291-9.146 7.629-14.386 18.82-14.386 30.709 0 22.056 17.944 40 40 40 6.74 0 13.401-1.708 19.264-4.938 12.791-7.046 20.736-20.48 20.736-35.062 0-22.056-17.944-40-40-40z"/></g></svg>