<svg enable-background="new 0 0 512 512" height="512" viewBox="0 0 512 512" width="512" xmlns="http://www.w3.org/2000/svg"><g id="_x38_76-Enable_x2C__Interface_x2C__User_x2C__Disable"><g fill="#3256c1"><path d="m85 50c8.28 0 15 6.72 15 15s-6.72 15-15 15-15-6.72-15-15 6.72-15 15-15z"/><path d="m60 420c11.05 0 20 8.95 20 20s-8.95 20-20 20-20-8.95-20-20 8.95-20 20-20z"/><path d="m465 220c13.81 0 25 11.19 25 25s-11.19 25-25 25-25-11.19-25-25 11.19-25 25-25z"/></g><path d="m360 310c22.09 0 40 17.91 40 40 0 11.04-4.48 21.04-11.72 28.28s-17.24 11.72-28.28 11.72h-152.56c7.92-11.34 12.56-25.13 12.56-40s-4.64-28.66-12.56-40z" fill="#bce4ff"/><circle cx="150" cy="350" fill="#bce4ff" r="40"/><path d="m150 280c23.79 0 44.8 11.86 57.44 30 7.92 11.34 12.56 25.13 12.56 40s-4.64 28.66-12.56 40c-12.64 18.14-33.65 30-57.44 30-38.66 0-70-31.34-70-70s31.34-70 70-70zm40 70c0-22.09-17.91-40-40-40s-40 17.91-40 40 17.91 40 40 40 40-17.91 40-40z" fill="#faa71a"/><path d="m409.5 300.5c12.66 12.67 20.5 30.17 20.5 49.5 0 38.66-31.34 70-70 70h-210c23.79 0 44.8-11.86 57.44-30h152.56c11.04 0 21.04-4.48 28.28-11.72s11.72-17.24 11.72-28.28c0-22.09-17.91-40-40-40h-152.56c-12.64-18.14-33.65-30-57.44-30h210c19.33 0 36.83 7.84 49.5 20.5z" fill="#ffd400"/><circle cx="360" cy="170" fill="#bce4ff" r="40"/><path d="m150 130h152.56c-7.92 11.34-12.56 25.13-12.56 40s4.64 28.66 12.56 40h-152.56c-11.04 0-21.04-4.48-28.28-11.72s-11.72-17.24-11.72-28.28c0-22.09 17.91-40 40-40z" fill="#bce4ff"/><path d="m302.56 130c12.641-18.14 33.65-30 57.44-30 38.66 0 70 31.34 70 70s-31.34 70-70 70c-23.79 0-44.8-11.86-57.44-30-7.92-11.34-12.56-25.13-12.56-40s4.64-28.66 12.56-40zm97.44 40c0-22.09-17.91-40-40-40s-40 17.91-40 40 17.91 40 40 40 40-17.91 40-40z" fill="#cd2738"/><path d="m302.56 210c12.641 18.14 33.65 30 57.44 30h-210c-38.66 0-70-31.34-70-70 0-19.33 7.84-36.83 20.5-49.5 12.67-12.66 30.17-20.5 49.5-20.5h210c-23.79 0-44.8 11.86-57.44 30h-152.56c-22.09 0-40 17.91-40 40 0 11.04 4.48 21.04 11.72 28.28s17.24 11.72 28.28 11.72z" fill="#d94556"/><path d="m467.07 92.93c1.81 1.81 2.93 4.31 2.93 7.07s-1.12 5.26-2.93 7.07c-1.811 1.81-4.311 2.93-7.07 2.93-5.52 0-10-4.48-10-10 0-2.76 1.12-5.26 2.93-7.07s4.31-2.93 7.07-2.93 5.26 1.12 7.07 2.93z"/><path d="m457.07 292.93c1.81 1.811 2.93 4.311 2.93 7.07s-1.12 5.26-2.93 7.07c-1.811 1.81-4.311 2.93-7.07 2.93-5.52 0-10-4.48-10-10 0-2.76 1.12-5.26 2.93-7.07 1.811-1.81 4.311-2.93 7.07-2.93s5.26 1.12 7.07 2.93z"/><path d="m447.07 432.93c1.81 1.811 2.93 4.311 2.93 7.07s-1.12 5.26-2.93 7.07c-1.811 1.81-4.311 2.93-7.07 2.93-5.52 0-10-4.48-10-10 0-2.76 1.12-5.26 2.93-7.07 1.811-1.81 4.311-2.93 7.07-2.93s5.26 1.12 7.07 2.93z"/><path d="m317.07 32.93c1.81 1.81 2.93 4.31 2.93 7.07s-1.12 5.26-2.93 7.07-4.31 2.93-7.07 2.93c-5.52 0-10-4.48-10-10 0-2.76 1.12-5.26 2.93-7.07s4.31-2.93 7.07-2.93 5.26 1.12 7.07 2.93z"/><path d="m167.07 62.93c1.81 1.81 2.93 4.31 2.93 7.07s-1.12 5.26-2.93 7.07-4.31 2.93-7.07 2.93c-5.52 0-10-4.48-10-10 0-2.76 1.12-5.26 2.93-7.07s4.31-2.93 7.07-2.93 5.26 1.12 7.07 2.93z"/><path d="m147.07 442.93c1.81 1.811 2.93 4.311 2.93 7.07s-1.12 5.26-2.93 7.07-4.31 2.93-7.07 2.93c-5.52 0-10-4.48-10-10 0-2.76 1.12-5.26 2.93-7.07s4.31-2.93 7.07-2.93 5.26 1.12 7.07 2.93z"/><path d="m57.07 232.93c1.81 1.81 2.93 4.31 2.93 7.07s-1.12 5.26-2.93 7.07-4.31 2.93-7.07 2.93c-5.52 0-10-4.48-10-10 0-2.76 1.12-5.26 2.93-7.07s4.31-2.93 7.07-2.93 5.26 1.12 7.07 2.93z"/><path d="m360 430h-210c-5.523 0-10-4.478-10-10s4.477-10 10-10h210c33.084 0 60-26.916 60-60 0-16.021-6.241-31.09-17.574-42.432-11.336-11.327-26.405-17.568-42.426-17.568h-210c-5.523 0-10-4.478-10-10s4.477-10 10-10h210c21.36 0 41.45 8.319 56.568 23.426 15.113 15.124 23.432 35.214 23.432 56.574 0 44.112-35.888 80-80 80z"/><path d="m360 400h-152.56c-5.523 0-10.005-4.478-10.005-10s4.472-10 9.995-10h152.57c8.008 0 15.54-3.122 21.21-8.791 5.668-5.669 8.79-13.201 8.79-21.209 0-16.542-13.458-30-30-30h-152.56c-5.523 0-10.005-4.478-10.005-10s4.472-10 9.995-10h152.57c27.57 0 50 22.43 50 50 0 13.349-5.202 25.903-14.648 35.351-9.449 9.447-22.003 14.649-35.352 14.649z"/><path d="m150 430c-44.112 0-80-35.888-80-80s35.888-80 80-80c26.146 0 50.686 12.816 65.645 34.283 9.389 13.444 14.355 29.255 14.355 45.717s-4.966 32.273-14.362 45.726c-14.952 21.458-39.492 34.274-65.638 34.274zm0-140c-33.084 0-60 26.916-60 60s26.916 60 60 60c19.608 0 38.014-9.614 49.235-25.717 7.045-10.087 10.765-21.938 10.765-34.283s-3.72-24.196-10.758-34.274c-11.228-16.112-29.634-25.726-49.242-25.726z"/><path d="m150 400c-27.57 0-50-22.43-50-50s22.43-50 50-50 50 22.43 50 50-22.43 50-50 50zm0-80c-16.542 0-30 13.458-30 30s13.458 30 30 30 30-13.458 30-30-13.458-30-30-30z"/><path d="m360 250h-210c-44.112 0-80-35.888-80-80 0-21.36 8.32-41.45 23.426-56.568 15.124-15.112 35.214-23.432 56.574-23.432h210c5.522 0 10 4.477 10 10s-4.478 10-10 10h-210c-16.021 0-31.09 6.241-42.432 17.574-11.327 11.336-17.568 26.405-17.568 42.426 0 33.084 26.916 60 60 60h210c5.522 0 10 4.477 10 10s-4.478 10-10 10z"/><path d="m302.57 220h-152.57c-13.351 0-25.905-5.203-35.351-14.649s-14.649-22-14.649-35.351c0-27.57 22.43-50 50-50h152.56c5.522 0 10.006 4.477 10.006 10s-4.473 10-9.995 10h-152.571c-16.542 0-30 13.458-30 30 0 8.008 3.122 15.54 8.791 21.208 5.669 5.67 13.201 8.792 21.209 8.792h152.56c5.522 0 10.006 4.477 10.006 10s-4.473 10-9.996 10z"/><path d="m360 250c-26.146 0-50.687-12.816-65.645-34.283-9.389-13.443-14.355-29.255-14.355-45.717s4.966-32.274 14.361-45.726c14.952-21.458 39.493-34.274 65.639-34.274 44.112 0 80 35.888 80 80s-35.888 80-80 80zm0-140c-19.608 0-38.015 9.614-49.236 25.717-7.044 10.086-10.764 21.938-10.764 34.283s3.72 24.197 10.758 34.274c11.227 16.112 29.634 25.726 49.242 25.726 33.084 0 60-26.916 60-60s-26.916-60-60-60z"/><path d="m360 220c-27.57 0-50-22.43-50-50s22.43-50 50-50 50 22.43 50 50-22.43 50-50 50zm0-80c-16.542 0-30 13.458-30 30s13.458 30 30 30 30-13.458 30-30-13.458-30-30-30z"/><path d="m60 470c-16.542 0-30-13.458-30-30s13.458-30 30-30 30 13.458 30 30-13.458 30-30 30zm0-40c-5.514 0-10 4.486-10 10s4.486 10 10 10 10-4.486 10-10-4.486-10-10-10z"/><path d="m85 90c-13.785 0-25-11.215-25-25s11.215-25 25-25 25 11.215 25 25-11.215 25-25 25zm0-30c-2.757 0-5 2.243-5 5s2.243 5 5 5 5-2.243 5-5-2.243-5-5-5z"/><path d="m465 280c-19.299 0-35-15.701-35-35s15.701-35 35-35 35 15.701 35 35-15.701 35-35 35zm0-50c-8.271 0-15 6.729-15 15s6.729 15 15 15 15-6.729 15-15-6.729-15-15-15z"/></g></svg>