<svg enable-background="new 0 0 512 512" height="512" viewBox="0 0 512 512" width="512" xmlns="http://www.w3.org/2000/svg"><g id="_x38_77-Bookmarks_x2C__Star_x2C__Tag"><path d="m380 460-120-80-120 80c0-29.996 0-318.771 0-330h240z" fill="#bce4ff"/><circle cx="460" cy="210" fill="#3256c1" r="30"/><path d="m70 290c11.05 0 20 8.95 20 20s-8.95 20-20 20-20-8.95-20-20 8.95-20 20-20z" fill="#3256c1"/><path d="m140 90h240v40h-240z" fill="#cd2738"/><path d="m140 50h240v40h-240z" fill="#d94556"/><path d="m328.58 239.38-42.38 30.79 16.19 49.83-42.39-30.79-42.39 30.79 16.19-49.83-42.38-30.79h52.39l16.19-49.83 16.19 49.83z" fill="#ffd400"/><path d="m467.07 92.93c1.81 1.81 2.93 4.31 2.93 7.07s-1.12 5.26-2.93 7.07c-1.811 1.81-4.311 2.93-7.07 2.93-5.52 0-10-4.48-10-10 0-2.76 1.12-5.26 2.93-7.07s4.31-2.93 7.07-2.93 5.26 1.12 7.07 2.93z"/><path d="m467.07 382.93c1.81 1.811 2.93 4.311 2.93 7.07s-1.12 5.26-2.93 7.07c-1.811 1.81-4.311 2.93-7.07 2.93-5.52 0-10-4.48-10-10 0-2.76 1.12-5.26 2.93-7.07 1.811-1.81 4.311-2.93 7.07-2.93s5.26 1.12 7.07 2.93z"/><path d="m437.07 282.93c1.81 1.811 2.93 4.311 2.93 7.07s-1.12 5.26-2.93 7.07c-1.811 1.81-4.311 2.93-7.07 2.93-5.52 0-10-4.48-10-10 0-2.76 1.12-5.26 2.93-7.07 1.811-1.81 4.311-2.93 7.07-2.93s5.26 1.12 7.07 2.93z"/><path d="m297.07 162.93c1.81 1.81 2.93 4.31 2.93 7.07s-1.12 5.26-2.93 7.07c-1.811 1.81-4.311 2.93-7.07 2.93-5.52 0-10-4.48-10-10 0-2.76 1.12-5.26 2.93-7.07 1.811-1.81 4.311-2.93 7.07-2.93s5.26 1.12 7.07 2.93z"/><path d="m287.07 442.93c1.81 1.811 2.93 4.311 2.93 7.07s-1.12 5.26-2.93 7.07c-1.811 1.81-4.311 2.93-7.07 2.93-5.52 0-10-4.48-10-10 0-2.76 1.12-5.26 2.93-7.07 1.811-1.81 4.311-2.93 7.07-2.93s5.26 1.12 7.07 2.93z"/><path d="m107.07 382.93c1.81 1.811 2.93 4.311 2.93 7.07s-1.12 5.26-2.93 7.07-4.31 2.93-7.07 2.93c-5.52 0-10-4.48-10-10 0-2.76 1.12-5.26 2.93-7.07s4.31-2.93 7.07-2.93 5.26 1.12 7.07 2.93z"/><path d="m97.07 202.93c1.81 1.81 2.93 4.31 2.93 7.07s-1.12 5.26-2.93 7.07-4.31 2.93-7.07 2.93c-5.52 0-10-4.48-10-10 0-2.76 1.12-5.26 2.93-7.07s4.31-2.93 7.07-2.93 5.26 1.12 7.07 2.93z"/><path d="m67.07 72.93c1.81 1.81 2.93 4.31 2.93 7.07s-1.12 5.26-2.93 7.07-4.31 2.93-7.07 2.93c-5.52 0-10-4.48-10-10 0-2.76 1.12-5.26 2.93-7.07s4.31-2.93 7.07-2.93 5.26 1.12 7.07 2.93z"/><path d="m302.39 330c-2.063 0-4.125-.637-5.877-1.909l-36.513-26.522-36.513 26.521c-3.505 2.546-8.25 2.545-11.755-.001-3.504-2.547-4.971-7.06-3.632-11.18l13.945-42.921-36.502-26.519c-3.505-2.546-4.971-7.06-3.633-11.181 1.339-4.12 5.178-6.91 9.511-6.91h45.125l13.945-42.92c1.339-4.121 5.178-6.91 9.511-6.91 4.332 0 8.172 2.79 9.511 6.91l13.945 42.92h45.124c4.332 0 8.172 2.79 9.511 6.91 1.339 4.121-.128 8.634-3.633 11.181l-36.502 26.52 13.944 42.92c1.339 4.12-.128 8.633-3.633 11.18-1.753 1.274-3.817 1.911-5.879 1.911zm-42.39-50.79c2.063 0 4.124.636 5.877 1.909l17.494 12.707-6.682-20.566c-1.339-4.12.128-8.634 3.633-11.18l17.48-12.7h-21.612c-4.332 0-8.172-2.79-9.511-6.91l-6.679-20.558-6.679 20.558c-1.339 4.121-5.178 6.91-9.511 6.91h-21.613l17.48 12.7c3.505 2.546 4.971 7.06 3.633 11.18l-6.682 20.566 17.495-12.707c1.752-1.272 3.815-1.909 5.877-1.909z"/><path d="m380.001 470c-1.94 0-3.875-.563-5.548-1.68l-114.453-76.301-114.453 76.301c-3.068 2.046-7.014 2.238-10.266.496-3.251-1.74-5.281-5.128-5.281-8.816v-330c0-5.523 4.477-10 10-10s10 4.477 10 10v311.314l104.453-69.635c3.358-2.24 7.734-2.24 11.094 0l104.453 69.635v-311.314c0-5.523 4.478-10 10-10s10 4.477 10 10v330c0 3.688-2.03 7.076-5.281 8.816-1.479.792-3.101 1.184-4.718 1.184z"/><path d="m380 140h-240c-5.523 0-10-4.477-10-10v-40c0-5.523 4.477-10 10-10s10 4.477 10 10v30h220v-30c0-5.523 4.478-10 10-10s10 4.477 10 10v40c0 5.523-4.478 10-10 10z"/><path d="m380 100h-240c-5.523 0-10-4.477-10-10v-40c0-5.523 4.477-10 10-10h240c5.522 0 10 4.477 10 10v40c0 5.523-4.478 10-10 10zm-230-20h220v-20h-220z"/><path d="m200 180h-60c-5.523 0-10-4.477-10-10s4.477-10 10-10h60c5.523 0 10 4.477 10 10s-4.477 10-10 10z"/><path d="m380 180h-60c-5.522 0-10-4.477-10-10s4.478-10 10-10h60c5.522 0 10 4.477 10 10s-4.478 10-10 10z"/><path d="m70 340c-16.542 0-30-13.458-30-30s13.458-30 30-30 30 13.458 30 30-13.458 30-30 30zm0-40c-5.514 0-10 4.486-10 10s4.486 10 10 10 10-4.486 10-10-4.486-10-10-10z"/><path d="m460 250c-22.056 0-40-17.944-40-40s17.944-40 40-40 40 17.944 40 40-17.944 40-40 40zm0-60c-11.028 0-20 8.972-20 20s8.972 20 20 20 20-8.972 20-20-8.972-20-20-20z"/></g></svg>