<svg enable-background="new 0 0 512 512" height="512" viewBox="0 0 512 512" width="512" xmlns="http://www.w3.org/2000/svg"><g id="_x38_78-Envelope_x2C__Mail_x2C__Notification"><path d="m317.53 255.28 115.64 128.65c-3.94 3.77-9.29 6.07-15.17 6.07-15 0-315.83 0-316 0-6.14 0-11.69-2.52-15.68-6.57l117.02-127.33 56.66 48.19z" fill="#94d4ff"/><path d="m477.07 132.93c1.81 1.81 2.93 4.31 2.93 7.07s-1.12 5.26-2.93 7.07c-1.811 1.81-4.311 2.93-7.07 2.93-5.52 0-10-4.48-10-10 0-2.76 1.12-5.26 2.93-7.07 1.811-1.81 4.311-2.93 7.07-2.93s5.26 1.12 7.07 2.93z"/><path d="m440 172v196c0 6.27-2.62 11.93-6.83 15.93l-115.64-128.65 116.029-98.84c3.981 3.98 6.441 9.48 6.441 15.56z" fill="#079cff"/><path d="m437.07 432.93c1.81 1.811 2.93 4.311 2.93 7.07s-1.12 5.26-2.93 7.07c-1.811 1.81-4.311 2.93-7.07 2.93-5.52 0-10-4.48-10-10 0-2.76 1.12-5.26 2.93-7.07 1.811-1.81 4.311-2.93 7.07-2.93s5.26 1.12 7.07 2.93z"/><path d="m433.56 156.44c-4.652 3.963-170.462 145.211-173.56 147.85-5.304-4.512-168.278-143.126-173.68-147.72 3.99-4.05 9.54-6.57 15.68-6.57h316c6.08 0 11.58 2.46 15.56 6.44z" fill="#5cbeff"/><path d="m415 50c13.81 0 25 11.19 25 25s-11.19 25-25 25-25-11.19-25-25 11.19-25 25-25z" fill="#f88f19"/><path d="m355 440c8.28 0 15 6.72 15 15s-6.72 15-15 15-15-6.72-15-15 6.72-15 15-15z" fill="#f88f19"/><path d="m337.07 92.93c1.81 1.81 2.93 4.31 2.93 7.07s-1.12 5.26-2.93 7.07c-1.811 1.81-4.311 2.93-7.07 2.93-5.52 0-10-4.48-10-10 0-2.76 1.12-5.26 2.93-7.07s4.31-2.93 7.07-2.93 5.26 1.12 7.07 2.93z"/><path d="m287.07 452.93c1.81 1.811 2.93 4.311 2.93 7.07s-1.12 5.26-2.93 7.07c-1.811 1.81-4.311 2.93-7.07 2.93-5.52 0-10-4.48-10-10 0-2.76 1.12-5.26 2.93-7.07 1.811-1.81 4.311-2.93 7.07-2.93s5.26 1.12 7.07 2.93z"/><path d="m210 340c27.61 0 50 22.39 50 50s-22.39 50-50 50-50-22.39-50-50 22.39-50 50-50z" fill="#d94556"/><path d="m217.07 62.93c1.81 1.81 2.93 4.31 2.93 7.07s-1.12 5.26-2.93 7.07-4.31 2.93-7.07 2.93c-5.52 0-10-4.48-10-10 0-2.76 1.12-5.26 2.93-7.07s4.31-2.93 7.07-2.93 5.26 1.12 7.07 2.93z"/><path d="m86.32 156.57 117.02 99.53-117.02 127.33c-3.91-3.97-6.32-9.41-6.32-15.43v-196c0-6.02 2.41-11.46 6.32-15.43z" fill="#079cff"/><path d="m120 70c11.05 0 20 8.95 20 20s-8.95 20-20 20-20-8.95-20-20 8.95-20 20-20z" fill="#f88f19"/><path d="m87.07 422.93c1.81 1.81 2.93 4.31 2.93 7.07s-1.12 5.26-2.93 7.07-4.31 2.93-7.07 2.93c-5.52 0-10-4.48-10-10 0-2.76 1.12-5.26 2.93-7.07s4.31-2.93 7.07-2.93 5.26 1.12 7.07 2.93z"/><path d="m215 420c-5.523 0-10-4.478-10-10v-20c-2.559 0-5.119-.977-7.071-2.929-3.905-3.905-3.905-10.237 0-14.143l10-10c2.86-2.86 7.163-3.712 10.898-2.168 3.737 1.548 6.173 5.194 6.173 9.239v40c0 5.523-4.477 10.001-10 10.001z"/><path d="m260 314.29c-2.306 0-4.611-.794-6.479-2.383l-173.68-147.72c-4.207-3.578-4.717-9.889-1.138-14.096 3.577-4.207 9.888-4.718 14.096-1.138l167.196 142.206 167.08-142.331c4.203-3.582 10.516-3.077 14.097 1.127 3.581 4.205 3.076 10.516-1.128 14.097l-173.559 147.85c-1.869 1.592-4.177 2.388-6.485 2.388z"/><path d="m86.317 393.43c-2.418 0-4.843-.872-6.764-2.637-4.066-3.737-4.333-10.063-.596-14.13l117.02-127.33c3.738-4.066 10.063-4.333 14.129-.596s4.333 10.063.596 14.13l-117.019 127.329c-1.972 2.146-4.665 3.234-7.366 3.234z"/><path d="m433.173 393.93c-2.738 0-5.465-1.118-7.44-3.315l-115.64-128.649c-3.691-4.107-3.354-10.43.753-14.122 4.105-3.692 10.427-3.357 14.122.752l115.64 128.65c3.691 4.107 3.354 10.43-.753 14.122-1.911 1.716-4.3 2.562-6.682 2.562z"/><path d="m418 400h-157.55c-5.523 0-10-4.478-10-10s4.477-10 10-10h157.55c3.104 0 6.036-1.17 8.256-3.295 2.424-2.303 3.744-5.386 3.744-8.705v-196c0-3.21-1.247-6.225-3.511-8.489s-5.279-3.511-8.489-3.511h-316c-3.238 0-6.277 1.274-8.557 3.588-2.219 2.254-3.443 5.243-3.443 8.412v196c0 3.17 1.223 6.157 3.444 8.413 2.279 2.313 5.318 3.587 8.556 3.587h58c5.523 0 10 4.478 10 10s-4.477 10-10 10h-58c-8.638 0-16.736-3.393-22.804-9.553-5.93-6.021-9.196-13.993-9.196-22.447v-196c0-8.454 3.265-16.426 9.195-22.447 6.07-6.161 14.169-9.553 22.805-9.553h316c8.553 0 16.59 3.328 22.631 9.369 6.042 6.041 9.369 14.078 9.369 22.631v196c0 8.728-3.624 17.176-9.942 23.18-5.934 5.678-13.777 8.82-22.058 8.82z"/><path d="m210 450c-33.084 0-60-26.916-60-60s26.916-60 60-60 60 26.916 60 60-26.916 60-60 60zm0-100c-22.056 0-40 17.944-40 40s17.944 40 40 40 40-17.944 40-40-17.944-40-40-40z"/><path d="m120 120c-16.542 0-30-13.458-30-30s13.458-30 30-30 30 13.458 30 30-13.458 30-30 30zm0-40c-5.514 0-10 4.486-10 10s4.486 10 10 10 10-4.486 10-10-4.486-10-10-10z"/><path d="m355 480c-13.785 0-25-11.215-25-25s11.215-25 25-25 25 11.215 25 25-11.215 25-25 25zm0-30c-2.757 0-5 2.243-5 5s2.243 5 5 5 5-2.243 5-5-2.243-5-5-5z"/><path d="m415 110c-19.299 0-35-15.701-35-35s15.701-35 35-35 35 15.701 35 35-15.701 35-35 35zm0-50c-8.271 0-15 6.729-15 15s6.729 15 15 15 15-6.729 15-15-6.729-15-15-15z"/></g></svg>