<svg enable-background="new 0 0 512 512" height="512" viewBox="0 0 512 512" width="512" xmlns="http://www.w3.org/2000/svg"><g id="_x38_79-Gear_x2C__Interface_x2C__Setting_x2C__User"><path d="m60 430c11.05 0 20 8.95 20 20s-8.95 20-20 20-20-8.95-20-20 8.95-20 20-20z" fill="#3256c1"/><path d="m455 40c13.81 0 25 11.19 25 25s-11.19 25-25 25-25-11.19-25-25 11.19-25 25-25z" fill="#3256c1"/><path d="m260.01 248.36c6.391 0 11.63 5.24 11.63 11.65 0 6.391-5.239 11.63-11.63 11.63-6.41 0-11.65-5.239-11.65-11.63 0-6.41 5.24-11.65 11.65-11.65z" fill="#d94556"/><path d="m477 239.2v41.59l-62.07 13.87c-4.04 18.18-11.199 35.07-20.84 50.31l34.061 53.8-29.381 29.38-53.8-34.061c-15.149 9.641-32.13 16.8-50.31 20.84l-13.87 62.071h-41.59l-13.86-62.07c-18.18-4.04-35.07-11.199-50.31-20.84l-53.8 34.061-29.38-29.381 34.06-53.8c-9.64-15.149-16.8-32.13-20.84-50.31l-62.07-13.87v-41.59l62.07-13.86c4.04-18.18 11.2-35.07 20.84-50.31l-34.06-53.8 29.38-29.38 53.8 34.15c15.24-9.73 32.13-16.8 50.31-20.93l13.86-62.07h41.59l13.87 62.07c18.18 4.13 35.07 11.2 50.31 20.93l53.8-34.15 29.381 29.38-34.061 53.8c9.641 15.24 16.8 32.13 20.84 50.31zm-125.36 20.9c0-50.52-41.22-91.74-91.54-91.74-50.52 0-91.74 41.22-91.74 91.74 0 50.32 41.22 91.54 91.74 91.54 50.32 0 91.54-41.22 91.54-91.54z" fill="#d94556"/><path d="m213.26 260.05c0 25.66 21.03 46.69 46.79 46.69 25.66 0 46.69-21.03 46.69-46.69 0-25.76-21.03-46.79-46.69-46.79-25.76 0-46.79 21.03-46.79 46.79zm46.84-91.69c50.32 0 91.54 41.22 91.54 91.74 0 50.32-41.22 91.54-91.54 91.54-50.52 0-91.74-41.22-91.74-91.54 0-50.52 41.22-91.74 91.74-91.74z" fill="#cd2738"/><path d="m460 140c5.52 0 10 4.48 10 10s-4.48 10-10 10-10-4.48-10-10 4.48-10 10-10z"/><path d="m460 420c5.52 0 10 4.48 10 10s-4.48 10-10 10-10-4.48-10-10 4.48-10 10-10z"/><path d="m340 440c5.52 0 10 4.48 10 10s-4.48 10-10 10-10-4.48-10-10 4.48-10 10-10z"/><path d="m330 40c5.52 0 10 4.48 10 10s-4.48 10-10 10-10-4.48-10-10 4.48-10 10-10z"/><path d="m180 40c5.52 0 10 4.48 10 10s-4.48 10-10 10-10-4.48-10-10 4.48-10 10-10z"/><path d="m140 460c5.52 0 10 4.48 10 10s-4.48 10-10 10-10-4.48-10-10 4.48-10 10-10z"/><path d="m70 70c5.52 0 10 4.48 10 10s-4.48 10-10 10-10-4.48-10-10 4.48-10 10-10z"/><path d="m60 350c5.52 0 10 4.48 10 10s-4.48 10-10 10-10-4.48-10-10 4.48-10 10-10z"/><path d="m50 160c5.52 0 10 4.48 10 10s-4.48 10-10 10-10-4.48-10-10 4.48-10 10-10z"/><path d="m280.79 487h-41.59c-4.683 0-8.739-3.25-9.76-7.82l-12.505-56c-14.591-3.838-28.602-9.646-41.794-17.325l-48.562 30.745c-3.953 2.503-9.111 1.929-12.42-1.378l-29.38-29.381c-3.308-3.309-3.88-8.468-1.378-12.42l30.737-48.551c-7.659-13.109-13.465-27.126-17.32-41.808l-55.999-12.512c-4.57-1.021-7.819-5.077-7.819-9.76v-41.59c0-4.683 3.25-8.739 7.821-9.76l56-12.505c3.837-14.59 9.646-28.601 17.325-41.793l-30.745-48.563c-2.502-3.953-1.93-9.112 1.378-12.42l29.38-29.38c3.312-3.312 8.477-3.88 12.43-1.372l48.541 30.812c13.016-7.619 27.03-13.443 41.8-17.374l12.51-56.024c1.021-4.571 5.077-7.821 9.76-7.821h41.59c4.683 0 8.738 3.25 9.76 7.819l12.52 56.026c14.771 3.93 28.784 9.755 41.801 17.374l48.54-30.812c3.953-2.51 9.119-1.939 12.431 1.372l29.381 29.38c3.308 3.308 3.88 8.468 1.378 12.42l-30.745 48.563c7.679 13.192 13.487 27.203 17.325 41.794l56 12.505c4.57 1.021 7.82 5.077 7.82 9.76v41.59c0 4.683-3.249 8.738-7.819 9.76l-56.001 12.514c-3.838 14.592-9.646 28.604-17.325 41.794l30.745 48.563c2.502 3.952 1.93 9.111-1.378 12.42l-29.381 29.381c-3.31 3.308-8.471 3.879-12.42 1.378l-48.551-30.737c-13.109 7.659-27.123 13.465-41.808 17.319l-12.513 55.999c-1.022 4.569-5.077 7.818-9.76 7.818zm-33.577-20h25.565l12.122-54.251c.847-3.785 3.805-6.74 7.591-7.581 16.767-3.727 32.617-10.292 47.109-19.515 3.268-2.08 7.444-2.086 10.718-.013l47.039 29.78 18.063-18.063-29.78-47.039c-2.067-3.265-2.067-7.429-.002-10.695 9.262-14.64 15.832-30.498 19.529-47.132.841-3.786 3.796-6.744 7.581-7.591l54.252-12.122v-25.565l-54.25-12.113c-3.785-.845-6.74-3.804-7.582-7.59-3.696-16.634-10.268-32.492-19.529-47.134-2.065-3.266-2.065-7.43.002-10.695l29.78-47.038-18.057-18.056-47.035 29.856c-3.28 2.082-7.467 2.075-10.741-.014-14.353-9.164-30.214-15.761-47.144-19.607-3.765-.855-6.701-3.802-7.544-7.571l-12.122-54.251h-25.565l-12.113 54.249c-.842 3.769-3.778 6.717-7.544 7.572-16.928 3.846-32.79 10.443-47.144 19.607-3.274 2.09-7.462 2.095-10.74.014l-47.035-29.856-18.056 18.056 29.779 47.038c2.067 3.265 2.068 7.429.002 10.695-9.263 14.644-15.833 30.502-19.53 47.134-.841 3.787-3.796 6.745-7.583 7.59l-54.249 12.114v25.565l54.25 12.122c3.785.847 6.74 3.805 7.581 7.591 3.726 16.765 10.292 32.615 19.515 47.11 2.08 3.268 2.085 7.443.013 10.717l-29.78 47.039 18.063 18.063 47.038-29.78c3.265-2.065 7.429-2.067 10.695-.002 14.642 9.262 30.5 15.833 47.134 19.529 3.787.842 6.745 3.797 7.59 7.582z"/><path d="m260.1 361.64c-56.1 0-101.74-45.551-101.74-101.54 0-56.1 45.64-101.74 101.74-101.74 55.989 0 101.54 45.64 101.54 101.74 0 55.989-45.551 101.54-101.54 101.54zm0-183.28c-45.071 0-81.74 36.668-81.74 81.74 0 44.961 36.668 81.54 81.74 81.54 44.961 0 81.54-36.579 81.54-81.54 0-45.072-36.579-81.74-81.54-81.74z"/><path d="m260.01 281.64c-11.938 0-21.65-9.703-21.65-21.63 0-11.938 9.712-21.65 21.65-21.65 11.927 0 21.63 9.712 21.63 21.65 0 11.927-9.703 21.63-21.63 21.63zm0-23.281c-.895 0-1.65.756-1.65 1.65 0 .868.771 1.63 1.65 1.63.868 0 1.63-.762 1.63-1.63 0-.878-.762-1.65-1.63-1.65z"/><path d="m260.05 316.74c-31.314 0-56.79-25.432-56.79-56.69 0-31.314 25.476-56.79 56.79-56.79 31.259 0 56.69 25.476 56.69 56.79 0 31.259-25.431 56.69-56.69 56.69zm0-93.48c-20.286 0-36.79 16.504-36.79 36.79 0 20.231 16.504 36.69 36.79 36.69 20.231 0 36.69-16.459 36.69-36.69 0-20.286-16.459-36.79-36.69-36.79z"/><path d="m60 480c-16.542 0-30-13.458-30-30s13.458-30 30-30 30 13.458 30 30-13.458 30-30 30zm0-40c-5.514 0-10 4.486-10 10s4.486 10 10 10 10-4.486 10-10-4.486-10-10-10z"/><path d="m455 100c-19.299 0-35-15.701-35-35s15.701-35 35-35 35 15.701 35 35-15.701 35-35 35zm0-50c-8.271 0-15 6.729-15 15s6.729 15 15 15 15-6.729 15-15-6.729-15-15-15z"/></g></svg>