<svg enable-background="new 0 0 512 512" height="512" viewBox="0 0 512 512" width="512" xmlns="http://www.w3.org/2000/svg"><g id="_x38_80-Book_x2C__Directory_x2C__Phone_x2C__Phone_Book"><path d="m373 90c25.96 0 47 21.04 47 47v266c0 25.96-21.04 47-47 47-9.881 0-196.266 0-206 0-26.106 0-47-21.19-47-47 0-84.938 0-181.868 0-266 0-25.96 21.04-47 47-47z" fill="#d0dce7"/><path d="m55 90c8.28 0 15 6.72 15 15s-6.72 15-15 15-15-6.72-15-15 6.72-15 15-15z" fill="#d94556"/><path d="m455 40c13.81 0 25 11.19 25 25s-11.19 25-25 25-25-11.19-25-25 11.19-25 25-25z" fill="#d94556"/><path d="m240 130h130v40h-130z" fill="#5cbeff"/><path d="m369.97 325.1c15.431 15.431 15.311 40.54-.27 56.12-47.87 47.88-208.51-113.52-161.02-161.01 15.58-15.59 40.7-15.7 56.129-.28 15.421 15.43 15.311 40.55-.279 56.129-1.12 1.12-2.28 2.171-3.5 3.12l49.68 49.681c.97-1.2 2-2.38 3.12-3.511 15.58-15.579 40.71-15.679 56.14-.249z" fill="#07cc66"/><path d="m400 460c5.52 0 10 4.48 10 10s-4.48 10-10 10-10-4.48-10-10 4.48-10 10-10z"/><path d="m360 50c5.52 0 10 4.48 10 10s-4.48 10-10 10-10-4.48-10-10 4.48-10 10-10z"/><path d="m120 40c5.52 0 10 4.48 10 10s-4.48 10-10 10-10-4.48-10-10 4.48-10 10-10z"/><path d="m70 450c5.52 0 10 4.48 10 10s-4.48 10-10 10-10-4.48-10-10 4.48-10 10-10z"/><path d="m60 250c5.52 0 10 4.48 10 10s-4.48 10-10 10-10-4.48-10-10 4.48-10 10-10z"/><path d="m373 460h-206c-28.006 0-52.241-20.86-56.37-48.523-.418-2.804-.63-5.655-.63-8.477v-266c0-31.43 25.57-57 57-57h206c31.43 0 57 25.57 57 57v266c0 31.43-25.57 57-57 57zm-206-360c-20.402 0-37 16.598-37 37v266c0 1.838.138 3.697.411 5.525 2.678 17.943 18.408 31.475 36.589 31.475h206c20.402 0 37-16.598 37-37v-266c0-20.402-16.598-37-37-37z"/><path d="m150 180h-45c-13.785 0-25-11.215-25-25 0-6.687 2.607-12.967 7.342-17.684 4.691-4.709 10.971-7.316 17.658-7.316h15c5.523 0 10 4.477 10 10s-4.477 10-10 10h-15c-1.795 0-2.974.914-3.516 1.458-.57.568-1.484 1.747-1.484 3.542 0 2.757 2.243 5 5 5h45c1.795 0 2.974-.914 3.516-1.458.57-.568 1.484-1.747 1.484-3.542 0-2.757-2.243-5-5-5-5.523 0-10-4.477-10-10s4.477-10 10-10c13.785 0 25 11.215 25 25 0 6.687-2.607 12.967-7.342 17.684-4.691 4.709-10.971 7.316-17.658 7.316z"/><path d="m150 240h-45c-13.785 0-25-11.215-25-25 0-6.687 2.607-12.967 7.342-17.684 4.691-4.709 10.971-7.316 17.658-7.316h15c5.523 0 10 4.477 10 10s-4.477 10-10 10h-15c-1.795 0-2.974.914-3.516 1.458-.57.568-1.484 1.747-1.484 3.542 0 2.757 2.243 5 5 5h45c1.795 0 2.974-.914 3.516-1.458.57-.568 1.484-1.747 1.484-3.542 0-2.757-2.243-5-5-5-5.523 0-10-4.477-10-10s4.477-10 10-10c13.785 0 25 11.215 25 25 0 6.687-2.607 12.967-7.342 17.684-4.691 4.709-10.971 7.316-17.658 7.316z"/><path d="m150 300h-45c-13.785 0-25-11.215-25-25 0-6.686 2.607-12.966 7.342-17.684 4.69-4.708 10.971-7.316 17.658-7.316h15c5.523 0 10 4.477 10 10 0 5.522-4.477 10-10 10h-15c-1.331 0-2.579.518-3.515 1.457-.571.569-1.485 1.748-1.485 3.543 0 2.757 2.243 5 5 5h45c1.331 0 2.579-.518 3.515-1.457.571-.569 1.485-1.748 1.485-3.543 0-2.757-2.243-5-5-5-5.523 0-10-4.478-10-10 0-5.523 4.477-10 10-10 13.785 0 25 11.215 25 25 0 6.686-2.607 12.966-7.342 17.684-4.69 4.709-10.97 7.316-17.658 7.316z"/><path d="m150 360h-45c-13.785 0-25-11.215-25-25 0-6.686 2.607-12.966 7.342-17.684 4.69-4.709 10.971-7.316 17.658-7.316h15c5.523 0 10 4.478 10 10s-4.477 10-10 10h-15c-1.331 0-2.579.518-3.515 1.457-.571.569-1.485 1.748-1.485 3.543 0 2.757 2.243 5 5 5h45c1.331 0 2.579-.518 3.515-1.457.571-.569 1.485-1.748 1.485-3.543 0-2.757-2.243-5-5-5-5.523 0-10-4.478-10-10s4.477-10 10-10c13.785 0 25 11.215 25 25 0 6.686-2.607 12.966-7.342 17.684-4.69 4.709-10.97 7.316-17.658 7.316z"/><path d="m150 420h-45c-13.785 0-25-11.215-25-25 0-6.686 2.607-12.966 7.342-17.684 4.69-4.709 10.971-7.316 17.658-7.316h15c5.523 0 10 4.478 10 10s-4.477 10-10 10h-15c-1.331 0-2.579.518-3.515 1.457-.571.569-1.485 1.748-1.485 3.543 0 2.757 2.243 5 5 5h45c1.331 0 2.579-.518 3.515-1.457.571-.569 1.485-1.748 1.485-3.543 0-2.757-2.243-5-5-5-5.523 0-10-4.478-10-10s4.477-10 10-10c13.785 0 25 11.215 25 25 0 6.686-2.607 12.966-7.342 17.684-4.69 4.709-10.97 7.316-17.658 7.316z"/><path d="m200 460c-5.523 0-10-4.478-10-10v-120c0-5.522 4.477-10 10-10s10 4.478 10 10v120c0 5.522-4.477 10-10 10z"/><path d="m200 190c-5.523 0-10-4.477-10-10v-90c0-5.523 4.477-10 10-10s10 4.477 10 10v90c0 5.523-4.477 10-10 10z"/><path d="m55 130c-13.785 0-25-11.215-25-25s11.215-25 25-25 25 11.215 25 25-11.215 25-25 25zm0-30c-2.757 0-5 2.243-5 5s2.243 5 5 5 5-2.243 5-5-2.243-5-5-5z"/><path d="m455 100c-19.299 0-35-15.701-35-35s15.701-35 35-35 35 15.701 35 35-15.701 35-35 35zm0-50c-8.271 0-15 6.729-15 15s6.729 15 15 15 15-6.729 15-15-6.729-15-15-15z"/><path d="m346.695 399.998c-50.215 0-126.851-70.867-149.611-125.802-13.688-33.037-5.094-51.438 4.525-61.058 9.471-9.477 22.038-14.698 35.383-14.698 13.194 0 25.583 5.12 34.886 14.416 9.364 9.37 14.483 21.844 14.42 35.13-.055 11.472-3.974 22.366-11.131 31.189l35.544 35.544c8.902-7.216 19.867-11.124 31.416-11.124 13.207 0 25.605 5.126 34.913 14.433 9.364 9.365 14.486 21.839 14.423 35.123-.063 13.249-5.281 25.729-14.692 35.14-7.765 7.766-17.88 11.704-30.066 11.707-.003 0-.007 0-.01 0zm-109.702-181.557c-8.001 0-15.543 3.139-21.239 8.838-9.62 9.62-5.414 26.661-.193 39.262 21.528 51.961 92.607 113.456 131.135 113.457h.006c6.784-.002 11.994-1.915 15.927-5.849 5.66-5.66 8.798-13.151 8.836-21.094.038-7.906-3.004-15.323-8.565-20.885-5.529-5.53-12.906-8.575-20.771-8.575-7.997 0-15.536 3.134-21.227 8.825-.763.77-1.563 1.672-2.413 2.725-1.782 2.205-4.417 3.551-7.25 3.701-2.823.14-5.594-.91-7.6-2.915l-49.68-49.681c-2.028-2.028-3.087-4.829-2.91-7.691.178-2.862 1.576-5.511 3.839-7.271.823-.641 1.664-1.393 2.57-2.3 5.663-5.659 8.802-13.151 8.84-21.097.038-7.91-3.003-15.329-8.563-20.892-5.519-5.518-12.888-8.558-20.742-8.558z"/><path d="m370 180h-130c-5.523 0-10-4.477-10-10v-40c0-5.523 4.477-10 10-10h130c5.522 0 10 4.477 10 10v40c0 5.523-4.478 10-10 10zm-120-20h110v-20h-110z"/></g></svg>