<svg enable-background="new 0 0 512 512" height="512" viewBox="0 0 512 512" width="512" xmlns="http://www.w3.org/2000/svg"><g id="_x38_81-Interface_x2C__Navigation_x2C__Select_x2C__User"><path d="m420 440c11.05 0 20 8.95 20 20s-8.95 20-20 20-20-8.95-20-20 8.95-20 20-20z" fill="#f88f19"/><path d="m85 50c13.81 0 25 11.19 25 25s-11.19 25-25 25-25-11.19-25-25 11.19-25 25-25z" fill="#f88f19"/><path d="m260 60c-110.46 0-200 89.54-200 200s89.54 200 200 200 200-89.54 200-200-89.54-200-200-200z" fill="#3256c1"/><path d="m260 110c82.84 0 150 67.16 150 150s-67.16 150-150 150-150-67.16-150-150 67.16-150 150-150z" fill="#bce4ff"/><path d="m330 190-56.57 169.71-35.35-77.79z" fill="#cd2738"/><path d="m330 190-91.92 91.92-77.79-35.35z" fill="#d94556"/><path d="m470 120c5.52 0 10 4.48 10 10s-4.48 10-10 10-10-4.48-10-10 4.48-10 10-10z"/><path d="m470 380c5.52 0 10 4.48 10 10s-4.48 10-10 10-10-4.48-10-10 4.48-10 10-10z"/><path d="m400 30c5.52 0 10 4.48 10 10s-4.48 10-10 10-10-4.48-10-10 4.48-10 10-10z"/><path d="m110 460c5.52 0 10 4.48 10 10s-4.48 10-10 10-10-4.48-10-10 4.48-10 10-10z"/><path d="m50 130c5.52 0 10 4.48 10 10s-4.48 10-10 10-10-4.48-10-10 4.48-10 10-10z"/><path d="m50 380c5.52 0 10 4.48 10 10s-4.48 10-10 10-10-4.48-10-10 4.48-10 10-10z"/><path d="m273.427 369.71c-3.903 0-7.473-2.279-9.102-5.863l-35.349-77.79c-2.285-5.027-.061-10.956 4.967-13.241 5.026-2.285 10.956-.061 13.241 4.968l24.813 54.603 48.516-145.548c1.747-5.239 7.409-8.07 12.649-6.325 5.239 1.747 8.071 7.41 6.324 12.649l-56.57 169.71c-1.3 3.901-4.856 6.608-8.963 6.824-.176.008-.351.013-.526.013z"/><path d="m238.078 291.92c-1.398 0-2.807-.293-4.135-.896l-77.79-35.351c-3.744-1.701-6.064-5.521-5.849-9.627.215-4.107 2.923-7.663 6.824-8.963l169.71-56.57c4.4-1.467 9.23.284 11.669 4.229 2.438 3.945 1.844 9.049-1.436 12.329l-91.92 91.92c-1.916 1.916-4.475 2.929-7.073 2.929zm-50.464-43.918 48.294 21.947 57.067-57.067z"/><path d="m260 470c-115.794 0-210-94.206-210-210s94.206-210 210-210 210 94.206 210 210-94.206 210-210 210zm0-400c-104.767 0-190 85.233-190 190s85.233 190 190 190 190-85.233 190-190-85.233-190-190-190z"/><path d="m260 420c-88.224 0-160-71.775-160-160 0-88.224 71.776-160 160-160 88.225 0 160 71.776 160 160 0 88.225-71.775 160-160 160zm0-300c-77.196 0-140 62.804-140 140s62.804 140 140 140 140-62.804 140-140-62.804-140-140-140z"/><path d="m85 110c-19.299 0-35-15.701-35-35s15.701-35 35-35 35 15.701 35 35-15.701 35-35 35zm0-50c-8.271 0-15 6.729-15 15s6.729 15 15 15 15-6.729 15-15-6.729-15-15-15z"/><path d="m420 490c-16.542 0-30-13.458-30-30s13.458-30 30-30 30 13.458 30 30-13.458 30-30 30zm0-40c-5.514 0-10 4.486-10 10s4.486 10 10 10 10-4.486 10-10-4.486-10-10-10z"/></g></svg>