<svg enable-background="new 0 0 512 512" height="512" viewBox="0 0 512 512" width="512" xmlns="http://www.w3.org/2000/svg"><g id="_x38_82-Files_x2C__Folder_x2C__Storage"><path d="m420 450c-20.161 0-374.741 0-390 0l.15-.42 69.85-199.58h390c-1.845 5.27-69.306 198.016-70 200z" fill="#f06000"/><path d="m420 70c11.05 0 20 8.95 20 20s-8.95 20-20 20-20-8.95-20-20 8.95-20 20-20z" fill="#3256c1"/><path d="m225 40c13.81 0 25 11.19 25 25s-11.19 25-25 25-25-11.19-25-25 11.19-25 25-25z" fill="#3256c1"/><path d="m400 300-30 60h-230l30-60z" fill="#bce4ff"/><path d="m130 220h270v30h-270z" fill="#ffd400"/><path d="m440 170v80h-40v-30h-270v30h-30l-69.85 199.58-.15-.05v-319.53h100l40 40z" fill="#f88f19"/><path d="m480 150c5.52 0 10 4.48 10 10s-4.48 10-10 10-10-4.48-10-10 4.48-10 10-10z"/><path d="m480 450c5.52 0 10 4.48 10 10s-4.48 10-10 10-10-4.48-10-10 4.48-10 10-10z"/><path d="m350 60c5.52 0 10 4.48 10 10s-4.48 10-10 10-10-4.48-10-10 4.48-10 10-10z"/><path d="m270 120c5.52 0 10 4.48 10 10s-4.48 10-10 10-10-4.48-10-10 4.48-10 10-10z"/><path d="m220 470c5.52 0 10 4.48 10 10s-4.48 10-10 10-10-4.48-10-10 4.48-10 10-10z"/><path d="m90 60c5.52 0 10 4.48 10 10s-4.48 10-10 10-10-4.48-10-10 4.48-10 10-10z"/><path d="m80 400c5.52 0 10 4.48 10 10s-4.48 10-10 10-10-4.48-10-10 4.48-10 10-10z"/><path d="m30 459.53c-5.523 0-10-4.478-10-10v-319.53c0-5.523 4.477-10 10-10h100c2.652 0 5.196 1.054 7.071 2.929l37.071 37.071h265.858c5.522 0 10 4.477 10 10v80c0 5.523-4.478 10-10 10s-10-4.477-10-10v-70h-260c-2.652 0-5.196-1.054-7.071-2.929l-37.071-37.071h-85.858v309.53c0 5.523-4.477 10-10 10z"/><path d="m434 420h-324c-5.523 0-10-4.478-10-10s4.477-10 10-10h324c5.522 0 10 4.478 10 10s-4.478 10-10 10z"/><path d="m420 460h-390c-3.252 0-6.3-1.581-8.174-4.239-1.873-2.657-2.337-6.061-1.244-9.123l.15-.42 69.83-199.521c1.403-4.011 5.188-6.697 9.438-6.697h30c5.523 0 10 4.477 10 10s-4.477 10-10 10h-22.905l-62.997 180h368.808l63-180h-75.906c-5.522 0-10-4.477-10-10s4.478-10 10-10h90c3.241 0 6.28 1.57 8.156 4.213 1.875 2.643 2.353 6.031 1.282 9.09l-70 200c-1.403 4.011-5.189 6.697-9.438 6.697z"/><path d="m400 260h-270c-5.523 0-10-4.477-10-10v-30c0-5.523 4.477-10 10-10h270c5.522 0 10 4.477 10 10v30c0 5.523-4.478 10-10 10zm-260-20h250v-10h-250z"/><path d="m370 370h-230c-3.466 0-6.685-1.795-8.506-4.742-1.822-2.948-1.988-6.63-.438-9.729l30-60c1.694-3.389 5.156-5.529 8.944-5.529h230c3.466 0 6.685 1.795 8.507 4.742 1.821 2.948 1.987 6.63.438 9.729l-30 60c-1.695 3.389-5.157 5.529-8.945 5.529zm-213.82-20h207.639l20-40h-207.639z"/><path d="m420 120c-16.542 0-30-13.458-30-30s13.458-30 30-30 30 13.458 30 30-13.458 30-30 30zm0-40c-5.514 0-10 4.486-10 10s4.486 10 10 10 10-4.486 10-10-4.486-10-10-10z"/><path d="m225 100c-19.299 0-35-15.701-35-35s15.701-35 35-35 35 15.701 35 35-15.701 35-35 35zm0-50c-8.271 0-15 6.729-15 15s6.729 15 15 15 15-6.729 15-15-6.729-15-15-15z"/></g></svg>