<svg enable-background="new 0 0 512 512" height="512" viewBox="0 0 512 512" width="512" xmlns="http://www.w3.org/2000/svg"><g id="_x38_83-Clock_x2C__Time_x2C__Watch"><path d="m260 60c-110.46 0-200 89.54-200 200s89.54 200 200 200 200-89.54 200-200-89.54-200-200-200z" fill="#d94556"/><path d="m410 260c0 41.42-16.79 78.92-43.94 106.06-27.14 27.15-64.64 43.94-106.06 43.94s-78.92-16.79-106.06-43.94c-58.543-58.521-58.645-153.496 0-212.12 58.522-58.543 153.496-58.646 212.12 0 27.15 27.14 43.94 64.64 43.94 106.06z" fill="#bce4ff"/><path d="m420 440c11.05 0 20 8.95 20 20s-8.95 20-20 20-20-8.95-20-20 8.95-20 20-20z" fill="#5cbeff"/><path d="m85 50c13.81 0 25 11.19 25 25s-11.19 25-25 25-25-11.19-25-25 11.19-25 25-25z" fill="#5cbeff"/><path d="m260 240c11.05 0 20 8.95 20 20s-8.95 20-20 20-20-8.95-20-20 8.95-20 20-20z" fill="#d94556"/><path d="m470 120c5.52 0 10 4.48 10 10s-4.48 10-10 10-10-4.48-10-10 4.48-10 10-10z"/><path d="m470 380c5.52 0 10 4.48 10 10s-4.48 10-10 10-10-4.48-10-10 4.48-10 10-10z"/><path d="m400 30c5.52 0 10 4.48 10 10s-4.48 10-10 10-10-4.48-10-10 4.48-10 10-10z"/><path d="m110 460c5.52 0 10 4.48 10 10s-4.48 10-10 10-10-4.48-10-10 4.48-10 10-10z"/><path d="m50 130c5.52 0 10 4.48 10 10s-4.48 10-10 10-10-4.48-10-10 4.48-10 10-10z"/><path d="m50 380c5.52 0 10 4.48 10 10s-4.48 10-10 10-10-4.48-10-10 4.48-10 10-10z"/><path d="m260 470c-115.794 0-210-94.206-210-210s94.206-210 210-210 210 94.206 210 210-94.206 210-210 210zm0-400c-104.767 0-190 85.233-190 190s85.233 190 190 190 190-85.233 190-190-85.233-190-190-190z"/><path d="m260 420c-42.741 0-82.919-16.646-113.132-46.871-30.222-30.21-46.868-70.388-46.868-113.129s16.646-82.918 46.87-113.132c30.212-30.222 70.389-46.868 113.13-46.868s82.919 16.646 113.132 46.87c30.222 30.211 46.868 70.389 46.868 113.13s-16.646 82.919-46.871 113.132c-30.21 30.222-70.388 46.868-113.129 46.868zm0-300c-37.397 0-72.552 14.564-98.988 41.01-26.448 26.438-41.012 61.593-41.012 98.99s14.564 72.552 41.01 98.987c26.438 26.449 61.593 41.013 98.99 41.013s72.552-14.564 98.987-41.01c26.449-26.438 41.013-61.593 41.013-98.99s-14.564-72.552-41.01-98.988c-26.438-26.448-61.593-41.012-98.99-41.012z"/><path d="m260 290c-16.542 0-30-13.458-30-30s13.458-30 30-30 30 13.458 30 30-13.458 30-30 30zm0-40c-5.514 0-10 4.486-10 10s4.486 10 10 10 10-4.486 10-10-4.486-10-10-10z"/><path d="m85 110c-19.299 0-35-15.701-35-35s15.701-35 35-35 35 15.701 35 35-15.701 35-35 35zm0-50c-8.271 0-15 6.729-15 15s6.729 15 15 15 15-6.729 15-15-6.729-15-15-15z"/><path d="m420 490c-16.542 0-30-13.458-30-30s13.458-30 30-30 30 13.458 30 30-13.458 30-30 30zm0-40c-5.514 0-10 4.486-10 10s4.486 10 10 10 10-4.486 10-10-4.486-10-10-10z"/><path d="m260 152.14c-5.523 0-10-4.477-10-10v-32.14c0-5.523 4.477-10 10-10 5.522 0 10 4.477 10 10v32.14c0 5.523-4.478 10-10 10z"/><path d="m260 420c-5.523 0-10-4.478-10-10v-32.14c0-5.522 4.477-10 10-10 5.522 0 10 4.478 10 10v32.14c0 5.522-4.478 10-10 10z"/><path d="m343.34 186.66c-2.56 0-5.118-.976-7.071-2.929-3.905-3.905-3.905-10.237 0-14.142l22.72-22.72c.112-.112.228-.222.345-.329 4.087-3.716 10.417-3.418 14.132.668 3.637 4 3.43 10.141-.414 13.883l-22.64 22.64c-1.954 1.953-4.513 2.929-7.072 2.929z"/><path d="m153.929 376.063c-2.4 0-4.806-.857-6.721-2.598-4.087-3.716-4.393-10.035-.678-14.121.107-.117.226-.243.338-.355l22.72-22.72c3.905-3.904 10.237-3.903 14.142 0 3.905 3.905 3.905 10.237 0 14.143l-22.68 22.679c-1.945 1.971-4.529 2.972-7.121 2.972z"/><path d="m176.66 186.66c-2.559 0-5.119-.976-7.071-2.929l-22.72-22.72c-3.905-3.905-3.91-10.242-.005-14.147s10.231-3.91 14.138-.005l22.73 22.73c3.905 3.905 3.905 10.237 0 14.143-1.953 1.952-4.513 2.928-7.072 2.928z"/><path d="m366.063 376.067c-2.557 0-5.112-.975-7.063-2.926l-22.73-22.73c-3.905-3.905-3.905-10.237 0-14.143 3.906-3.904 10.236-3.904 14.143 0l22.72 22.72c3.905 3.905 3.91 10.242.005 14.147-1.955 1.955-4.516 2.932-7.075 2.932z"/><path d="m410 270h-32.14c-5.522 0-10-4.478-10-10 0-5.523 4.478-10 10-10h32.14c5.522 0 10 4.477 10 10 0 5.522-4.478 10-10 10z"/><path d="m142.14 270h-32.14c-5.523 0-10-4.478-10-10 0-5.523 4.477-10 10-10h32.14c5.523 0 10 4.477 10 10 0 5.522-4.477 10-10 10z"/><path d="m260 250c-5.523 0-10-4.477-10-10v-60c0-5.523 4.477-10 10-10 5.522 0 10 4.477 10 10v60c0 5.523-4.478 10-10 10z"/><path d="m310 270h-30c-5.522 0-10-4.478-10-10 0-5.523 4.478-10 10-10h30c5.522 0 10 4.477 10 10 0 5.522-4.478 10-10 10z"/></g></svg>