<svg enable-background="new 0 0 512 512" height="512" viewBox="0 0 512 512" width="512" xmlns="http://www.w3.org/2000/svg"><g id="_x38_84-Battery_x2C__Interface_x2C__User"><path d="m350.67 100h-30.67-130-30.67c-16.2 0-29.33 13.13-29.33 29.33v301.34c0 16.2 13.13 29.33 29.33 29.33h191.34c16.2 0 29.33-13.13 29.33-29.33v-301.34c0-16.2-13.13-29.33-29.33-29.33z" fill="#757d8c"/><path d="m350 130v300h-190v-300z" fill="#bce4ff"/><path d="m60 340c11.05 0 20 8.95 20 20s-8.95 20-20 20-20-8.95-20-20 8.95-20 20-20z" fill="#07cc66"/><circle cx="450" cy="200" fill="#07cc66" r="30"/><path d="m320 78.67v21.33h-130v-21.33c0-10.31 8.36-18.67 18.67-18.67h92.66c10.31 0 18.67 8.36 18.67 18.67z" fill="#3f4751"/><path d="m308.67 198.5-52.46 52.43-39.79 39.79 19.31-39.79 11.25-23.15h-35.66l30.57-67.78h40.75l-14.92 32.96z" fill="#3256c1"/><path d="m440 390c5.52 0 10 4.48 10 10s-4.48 10-10 10-10-4.48-10-10 4.48-10 10-10z"/><path d="m430 80c5.52 0 10 4.48 10 10s-4.48 10-10 10-10-4.48-10-10 4.48-10 10-10z"/><path d="m430 270c5.52 0 10 4.48 10 10s-4.48 10-10 10-10-4.48-10-10 4.48-10 10-10z"/><path d="m80 260c5.52 0 10 4.48 10 10s-4.48 10-10 10-10-4.48-10-10 4.48-10 10-10z"/><path d="m60 100c5.52 0 10 4.48 10 10s-4.48 10-10 10-10-4.48-10-10 4.48-10 10-10z"/><path d="m60 430c5.52 0 10 4.48 10 10s-4.48 10-10 10-10-4.48-10-10 4.48-10 10-10z"/><path d="m350.67 470h-191.34c-21.687 0-39.33-17.644-39.33-39.33v-301.34c0-21.686 17.644-39.33 39.33-39.33h30.67c5.523 0 10 4.477 10 10s-4.477 10-10 10h-30.67c-10.659 0-19.33 8.671-19.33 19.33v301.34c0 10.658 8.671 19.33 19.33 19.33h191.34c10.658 0 19.33-8.672 19.33-19.33v-301.34c0-10.659-8.672-19.33-19.33-19.33h-30.67c-5.522 0-10-4.477-10-10s4.478-10 10-10h30.67c21.687 0 39.33 17.644 39.33 39.33v301.34c0 21.686-17.644 39.33-39.33 39.33z"/><path d="m350 440h-190c-5.523 0-10-4.478-10-10v-300c0-5.523 4.477-10 10-10h190c5.522 0 10 4.477 10 10v300c0 5.522-4.478 10-10 10zm-180-20h170v-280h-170z"/><path d="m320 110h-130c-5.523 0-10-4.477-10-10v-21.33c0-15.809 12.861-28.67 28.67-28.67h92.66c15.809 0 28.67 12.861 28.67 28.67v21.33c0 5.523-4.478 10-10 10zm-120-20h110v-11.33c0-4.781-3.89-8.67-8.67-8.67h-92.66c-4.781 0-8.67 3.889-8.67 8.67z"/><path d="m216.417 300.72c-2.02 0-4.049-.609-5.796-1.854-3.977-2.831-5.329-8.12-3.197-12.513l23.579-48.574h-19.683c-3.395 0-6.558-1.722-8.4-4.574s-2.111-6.443-.716-9.538l30.57-67.78c1.617-3.584 5.184-5.889 9.116-5.889h40.75c3.397 0 6.563 1.725 8.403 4.58 1.842 2.855 2.107 6.449.707 9.544l-9.383 20.727 27.644 3.74c3.768.51 6.92 3.111 8.135 6.713 1.215 3.603.282 7.582-2.406 10.27l-52.46 52.43-39.789 39.788c-1.936 1.937-4.497 2.93-7.074 2.93zm10.383-82.94h20.18c3.446 0 6.648 1.774 8.477 4.695s2.024 6.577.518 9.676l-4.608 9.482 35.951-35.931-20.938-2.833c-3.131-.423-5.878-2.302-7.408-5.066s-1.664-6.089-.361-8.968l8.525-18.835h-18.786z"/><path d="m310 400h-110c-5.523 0-10-4.478-10-10s4.477-10 10-10h110c5.522 0 10 4.478 10 10s-4.478 10-10 10z"/><path d="m310 370h-110c-5.523 0-10-4.478-10-10s4.477-10 10-10h110c5.522 0 10 4.478 10 10s-4.478 10-10 10z"/><path d="m310 340h-60c-5.523 0-10-4.478-10-10s4.477-10 10-10h60c5.522 0 10 4.478 10 10s-4.478 10-10 10z"/><path d="m60 390c-16.542 0-30-13.458-30-30s13.458-30 30-30 30 13.458 30 30-13.458 30-30 30zm0-40c-5.514 0-10 4.486-10 10s4.486 10 10 10 10-4.486 10-10-4.486-10-10-10z"/><path d="m450 240c-22.056 0-40-17.944-40-40s17.944-40 40-40 40 17.944 40 40-17.944 40-40 40zm0-60c-11.028 0-20 8.972-20 20s8.972 20 20 20 20-8.972 20-20-8.972-20-20-20z"/></g></svg>