<svg enable-background="new 0 0 512 512" height="512" viewBox="0 0 512 512" width="512" xmlns="http://www.w3.org/2000/svg"><g id="_x38_85-Health_x2C__Heart_x2C__Pulse"><path d="m70 370c11.05 0 20 8.95 20 20s-8.95 20-20 20-20-8.95-20-20 8.95-20 20-20z" fill="#3256c1"/><circle cx="425" cy="425" fill="#3256c1" r="25"/><path d="m452.7 258.99.04.02c-39.46 63.21-116.66 117.141-193.86 194.34-79.15-79.15-158.3-133.85-196.77-199.16l.17-.1h82.85l12.71-69.47 22.51 125.24 13.71-90 17.6 44.02h92.95l15.659-83.16 21.521 128.7 14.68-89.56 13.69 39.13z" fill="#cd2738"/><path d="m479.71 169.69c0 33.22-9.99 62.13-26.97 89.32l-.04-.02h-82.54l-13.69-39.13-14.68 89.56-21.521-128.7-15.659 83.16h-92.95l-17.6-44.02-13.71 90-22.51-125.24-12.71 69.47h-82.85l-.17.1c-15.2-25.79-24.05-53.24-24.05-84.5 0-60.96 49.46-110.41 110.41-110.41 55.21 0 82.81 27.59 110.41 82.81 27.61-55.22 55.21-82.81 110.42-82.81 60.95 0 110.41 49.45 110.41 110.41z" fill="#d94556"/><path d="m470 40c5.52 0 10 4.48 10 10s-4.48 10-10 10-10-4.48-10-10 4.48-10 10-10z"/><path d="m460 340c5.52 0 10 4.48 10 10s-4.48 10-10 10-10-4.48-10-10 4.48-10 10-10z"/><path d="m360 430c5.52 0 10 4.48 10 10s-4.48 10-10 10-10-4.48-10-10 4.48-10 10-10z"/><path d="m260 70c5.52 0 10 4.48 10 10s-4.48 10-10 10-10-4.48-10-10 4.48-10 10-10z"/><path d="m160 430c5.52 0 10 4.48 10 10s-4.48 10-10 10-10-4.48-10-10 4.48-10 10-10z"/><path d="m60 300c5.52 0 10 4.48 10 10s-4.48 10-10 10-10-4.48-10-10 4.48-10 10-10z"/><path d="m50 50c5.52 0 10 4.48 10 10s-4.48 10-10 10-10-4.48-10-10 4.48-10 10-10z"/><path d="m258.88 463.35c-2.559 0-5.119-.977-7.071-2.929-26.891-26.892-53.499-50.686-79.23-73.697-49.898-44.622-92.991-83.159-119.085-127.458-17.114-29.038-25.434-58.339-25.434-89.576 0-66.395 54.016-120.41 120.41-120.41 55.863 0 85.346 26.896 110.412 71.42 25.073-44.524 54.56-71.42 110.418-71.42 66.395 0 120.41 54.016 120.41 120.41 0 32.971-9.318 63.92-28.487 94.617-26.364 42.231-67.912 79.384-116.021 122.402-25.738 23.015-52.353 46.813-79.251 73.712-1.953 1.952-4.512 2.929-7.071 2.929zm-110.41-394.07c-55.366 0-100.41 45.044-100.41 100.41 0 27.566 7.414 53.545 22.665 79.422 24.515 41.619 66.533 79.194 115.186 122.704 23.693 21.188 48.12 43.032 72.969 67.453 24.856-24.428 49.292-46.278 72.99-67.47 46.969-41.999 87.532-78.271 112.388-118.085 17.127-27.426 25.452-54.911 25.452-84.024 0-55.366-45.044-100.41-100.41-100.41-46.979 0-72.585 19.501-101.476 77.282-1.694 3.388-5.156 5.528-8.944 5.528h-.001c-3.788 0-7.25-2.141-8.944-5.529-28.88-57.78-54.483-77.281-101.465-77.281z"/><path d="m72 190c-5.523 0-10-4.477-10-10 0-54.038 43.962-98 98-98 5.523 0 10 4.477 10 10s-4.477 10-10 10c-43.009 0-78 34.991-78 78 0 5.523-4.477 10-10 10z"/><path d="m448 190c-5.522 0-10-4.477-10-10 0-43.009-34.99-78-78-78-5.522 0-10-4.477-10-10s4.478-10 10-10c54.037 0 98 43.962 98 98 0 5.523-4.478 10-10 10z"/><path d="m180.348 319.86c-4.833 0-8.983-3.462-9.84-8.23l-12.755-70.967-2.786 15.227c-.869 4.75-5.008 8.2-9.837 8.2h-82.85c-5.523 0-10-4.478-10-10 0-5.523 4.477-10 10-10h74.514l11.209-61.27c.869-4.75 5.009-8.2 9.837-8.2h.016c4.834.007 8.971 3.473 9.827 8.231l11.854 65.951 4.638-30.448c.679-4.46 4.261-7.913 8.742-8.429 4.486-.513 8.754 2.034 10.429 6.222l15.086 37.732h77.886l14.125-75.01c.891-4.73 5.022-8.149 9.826-8.149h.104c4.847.049 8.961 3.569 9.761 8.35l11.559 69.126 4.91-29.955c.739-4.511 4.444-7.947 8.999-8.344 4.56-.406 8.798 2.345 10.309 6.66l11.347 32.433h75.442c5.522 0 10 4.477 10 10 0 5.522-4.478 10-10 10h-82.54c-4.25 0-8.035-2.687-9.439-6.697l-.73-2.089-8.332 50.833c-.791 4.828-4.96 8.375-9.852 8.383-.006 0-.012 0-.017 0-4.886 0-9.057-3.53-9.863-8.351l-12.241-73.208-5.248 27.869c-.89 4.726-5.018 8.149-9.827 8.149h-92.95c-4.09 0-7.767-2.49-9.285-6.287l-3.961-9.908-8.178 53.682c-.736 4.835-4.862 8.428-9.752 8.493-.047.001-.091.001-.137.001z"/><path d="m70 420c-16.542 0-30-13.458-30-30s13.458-30 30-30 30 13.458 30 30-13.458 30-30 30zm0-40c-5.514 0-10 4.486-10 10s4.486 10 10 10 10-4.486 10-10-4.486-10-10-10z"/><path d="m425 460c-19.299 0-35-15.701-35-35s15.701-35 35-35 35 15.701 35 35-15.701 35-35 35zm0-50c-8.271 0-15 6.729-15 15s6.729 15 15 15 15-6.729 15-15-6.729-15-15-15z"/></g></svg>