<svg enable-background="new 0 0 512 512" height="512" viewBox="0 0 512 512" width="512" xmlns="http://www.w3.org/2000/svg"><g id="_x38_86-Interface_x2C__Lock_x2C__User"><path d="m420 330h-50c0 60.75-49.25 110-110 110s-110-49.25-110-110h-50c0-88.497 71.766-160 160-160 88.181 0 160 71.438 160 160z" fill="#d94556"/><path d="m460 200c11.05 0 20 8.95 20 20s-8.95 20-20 20-20-8.95-20-20 8.95-20 20-20z" fill="#3256c1"/><circle cx="70" cy="160" fill="#3256c1" r="30"/><path d="m370 140v73.81c-11.78-11.16-25.26-20.54-40-27.72v-46.09c0-19.33-7.84-36.83-20.5-49.5-12.67-12.66-30.17-20.5-49.5-20.5-38.66 0-70 31.34-70 70v46.09c-14.74 7.18-28.22 16.56-40 27.72v-73.81c0-30.38 12.31-57.88 32.22-77.78 19.9-19.91 47.4-32.22 77.78-32.22 60.75 0 110 49.25 110 110z" fill="#3f4751"/><path d="m275 304.02c8.96 5.19 15 14.881 15 25.98 0 17.22-14.51 31.06-31.98 29.94-14.87-.96-26.97-13.021-27.95-27.9-.79-11.95 5.42-22.51 14.93-28.021v-29.019c0-4.14 1.68-7.89 4.4-10.6 2.71-2.721 6.46-4.4 10.6-4.4 8.28 0 15 6.72 15 15z" fill="#d0dce7"/><path d="m370 330h50c0 88.37-71.63 160-160 160s-160-71.63-160-160h50c0 60.75 49.25 110 110 110s110-49.25 110-110z" fill="#cd2738"/><path d="m460 380c5.52 0 10 4.48 10 10s-4.48 10-10 10-10-4.48-10-10 4.48-10 10-10z"/><path d="m410 70c5.52 0 10 4.48 10 10s-4.48 10-10 10-10-4.48-10-10 4.48-10 10-10z"/><path d="m410 470c5.52 0 10 4.48 10 10s-4.48 10-10 10-10-4.48-10-10 4.48-10 10-10z"/><path d="m110 50c5.52 0 10 4.48 10 10s-4.48 10-10 10-10-4.48-10-10 4.48-10 10-10z"/><path d="m90 430c5.52 0 10 4.48 10 10s-4.48 10-10 10-10-4.48-10-10 4.48-10 10-10z"/><path d="m70 250c5.52 0 10 4.48 10 10s-4.48 10-10 10-10-4.48-10-10 4.48-10 10-10z"/><path d="m370 223.815c-5.522 0-10-4.472-10-9.995v-73.82c0-55.14-44.859-100-100-100-26.718 0-51.829 10.402-70.707 29.29-18.891 18.881-29.293 43.992-29.293 70.71v73.81c0 5.523-4.477 10.005-10 10.005s-10-4.472-10-9.995v-73.82c0-32.063 12.483-62.197 35.151-84.853 22.652-22.664 52.787-35.147 84.849-35.147 66.168 0 120 53.832 120 120v73.81c0 5.523-4.478 10.005-10 10.005z"/><path d="m330 196.09c-5.522 0-10-4.477-10-10v-46.09c0-16.021-6.241-31.09-17.574-42.432-11.336-11.327-26.405-17.568-42.426-17.568-33.084 0-60 26.916-60 60v46.09c0 5.523-4.477 10-10 10s-10-4.477-10-10v-46.09c0-44.112 35.888-80 80-80 21.36 0 41.45 8.32 56.568 23.426 15.113 15.124 23.432 35.214 23.432 56.574v46.09c0 5.523-4.478 10-10 10z"/><path d="m260 500c-93.738 0-170-76.262-170-170 0-47.164 18.866-91.007 53.124-123.451 12.612-11.949 26.911-21.857 42.497-29.45 23.275-11.346 48.301-17.099 74.379-17.099s51.104 5.753 74.382 17.101c15.583 7.59 29.881 17.499 42.495 29.449 34.257 32.443 53.123 76.286 53.123 123.45 0 93.738-76.262 170-170 170zm0-320c-23.016 0-45.093 5.073-65.618 15.079-13.755 6.7-26.372 15.444-37.504 25.991-30.231 28.629-46.878 67.314-46.878 108.93 0 82.71 67.29 150 150 150s150-67.29 150-150c0-41.616-16.647-80.301-46.876-108.929-11.135-10.548-23.752-19.292-37.503-25.991-20.528-10.007-42.605-15.08-65.621-15.08z"/><path d="m260 450c-62.8 0-114.488-48.494-119.587-110h-40.413c-5.523 0-10-4.478-10-10s4.477-10 10-10h50c5.523 0 10 4.478 10 10 0 55.141 44.86 100 100 100 55.141 0 100-44.859 100-100 0-5.522 4.478-10 10-10h50c5.522 0 10 4.478 10 10s-4.478 10-10 10h-40.413c-5.099 61.506-56.787 110-119.587 110z"/><path d="m259.996 370.004c-.867 0-1.747-.028-2.616-.084-19.947-1.288-35.976-17.29-37.289-37.223-.878-13.291 4.738-25.814 14.909-33.927v-23.77c0-6.687 2.607-12.966 7.342-17.684 4.69-4.708 10.971-7.316 17.658-7.316 13.785 0 25 11.215 25 25v23.786c9.372 7.532 15 19.024 15 31.214 0 10.684-4.16 20.729-11.715 28.284-7.556 7.558-17.602 11.72-28.289 11.72zm.004-100.004c-1.331 0-2.579.518-3.515 1.457-.571.569-1.485 1.748-1.485 3.543v29.02c0 3.567-1.9 6.864-4.986 8.652-6.655 3.856-10.474 11.025-9.966 18.709.645 9.787 8.822 17.948 18.616 18.58 5.804.372 11.387-1.726 15.478-5.817 3.778-3.779 5.858-8.801 5.858-14.144 0-7.11-3.837-13.75-10.013-17.327-3.087-1.788-4.987-5.086-4.987-8.653v-29.02c0-2.757-2.243-5-5-5z"/><path d="m70 200c-22.056 0-40-17.944-40-40s17.944-40 40-40 40 17.944 40 40-17.944 40-40 40zm0-60c-11.028 0-20 8.972-20 20s8.972 20 20 20 20-8.972 20-20-8.972-20-20-20z"/><path d="m460 250c-16.542 0-30-13.458-30-30s13.458-30 30-30 30 13.458 30 30-13.458 30-30 30zm0-40c-5.514 0-10 4.486-10 10s4.486 10 10 10 10-4.486 10-10-4.486-10-10-10z"/></g></svg>