<svg enable-background="new 0 0 512 512" height="512" viewBox="0 0 512 512" width="512" xmlns="http://www.w3.org/2000/svg"><g id="_x38_87-Cloud_x2C__Cloudy_x2C__Sun_x2C__Weather"><path d="m410 410c11.05 0 20 8.95 20 20s-8.95 20-20 20-20-8.95-20-20 8.95-20 20-20z" fill="#d94556"/><circle cx="80" cy="110" fill="#d94556" r="30"/><path d="m450 154.74c-8.55 1.97-16.24 7.31-20.98 15.47-4.699 8.21-5.47 17.57-2.909 25.9-8.33-2.56-17.69-1.79-25.9 2.91-3.7 2.15-6.82 4.92-9.31 8.09.01-.25.01-.5.01-.75 0-13.28-2.74-25.92-7.69-37.39 13.05-7.68 21.82-21.86 21.82-38.07 0-24.4-19.78-44.15-44.14-44.15-18.7 0-34.65 11.6-41.091 28-7.5-1.91-15.35-2.93-23.439-2.93-7.82 0-15.42.95-22.69 2.74l-.01-.06c8.51-1.92 14.36-14.8 19.07-22.96 4.74-8.16 5.51-17.52 2.939-25.86 8.34 2.57 17.7 1.8 25.86-2.94 8.16-4.71 13.55-12.44 15.47-20.94 5.94 6.41 14.44 10.42 23.891 10.42 9.439 0 17.899-4.01 23.84-10.42 1.97 8.5 7.31 16.23 15.47 20.94 8.21 4.74 17.57 5.51 25.9 2.94-2.561 8.34-1.79 17.7 2.909 25.86 4.74 8.16 12.431 13.55 20.98 15.47-6.41 5.94-10.43 14.44-10.43 23.89 0 9.44 4.02 17.9 10.43 23.84z" fill="#ffd400"/><path d="m209.82 168.29h.01c11.69-26.52 35.19-46.67 63.85-53.73 14.656-3.608 30.603-3.765 46.13.19 28.57 7.29 51.94 27.59 63.41 54.22 9.714 22.507 10.56 49.121.62 73.28 35.896-4.177 66.16 23.778 66.16 58.66 0 32.63-26.46 59.09-59.09 59.09-1.78 0-263.481 0-271.82 0-32.63 0-59.09-26.46-59.09-59.09 0-34.071 29.016-61.813 64.12-58.86-3.22-7.3-5.03-15.37-5.03-23.87 0-32.63 26.46-59.09 59.09-59.09 11.65 0 22.48 3.38 31.64 9.2z" fill="#5cbeff"/><path d="m460 380c5.52 0 10 4.48 10 10s-4.48 10-10 10-10-4.48-10-10 4.48-10 10-10z"/><path d="m450 210c5.52 0 10 4.48 10 10s-4.48 10-10 10-10-4.48-10-10 4.48-10 10-10z"/><path d="m405.04 130.9c0 16.21-8.771 30.39-21.82 38.07-11.47-26.63-34.84-46.93-63.41-54.22 6.44-16.4 22.391-28 41.091-28 24.359 0 44.139 19.75 44.139 44.15z" fill="#ffec6c"/><path d="m360 450c5.52 0 10 4.48 10 10s-4.48 10-10 10-10-4.48-10-10 4.48-10 10-10z"/><path d="m220 270c5.52 0 10 4.48 10 10s-4.48 10-10 10-10-4.48-10-10 4.48-10 10-10z"/><path d="m210 50c5.52 0 10 4.48 10 10s-4.48 10-10 10-10-4.48-10-10 4.48-10 10-10z"/><path d="m170 470c5.52 0 10 4.48 10 10s-4.48 10-10 10-10-4.48-10-10 4.48-10 10-10z"/><path d="m70 390c5.52 0 10 4.48 10 10s-4.48 10-10 10-10-4.48-10-10 4.48-10 10-10z"/><path d="m60 190c5.52 0 10 4.48 10 10s-4.48 10-10 10-10-4.48-10-10 4.48-10 10-10z"/><path d="m206.465 261.362c-3.853 0-7.524-2.239-9.167-5.995-13.004-29.729-11.652-63.192 3.711-91.807 2.613-4.866 8.677-6.691 13.541-4.081 4.866 2.612 6.693 8.675 4.081 13.541-12.44 23.171-13.537 50.264-3.009 74.333 2.213 5.06-.094 10.956-5.154 13.169-1.305.57-2.665.84-4.003.84z"/><path d="m390.894 217.11c-2.161 0-4.338-.697-6.169-2.136-4.344-3.411-5.1-9.697-1.689-14.041 3.354-4.271 7.443-7.825 12.151-10.56 6.025-3.45 12.747-5.354 19.537-5.648.29-6.784 2.187-13.489 5.617-19.483 3.538-6.092 8.345-11.077 14.064-14.7-3.139-6.017-4.835-12.758-4.835-19.643 0-6.914 1.702-13.679 4.849-19.711-5.717-3.639-10.568-8.639-14.046-14.626-3.452-5.994-5.358-12.7-5.65-19.491-6.799-.294-13.515-2.208-19.513-5.671-5.966-3.444-10.967-8.294-14.621-14.034-6.026 3.15-12.785 4.854-19.688 4.854-6.918 0-13.685-1.701-19.717-4.846-3.646 5.722-8.652 10.568-14.645 14.027-5.964 3.464-12.667 5.38-19.466 5.674-.294 6.802-2.214 13.51-5.687 19.488-.633 1.097-1.301 2.311-1.997 3.573-5.278 9.573-11.848 21.486-23.519 24.119-5.394 1.215-10.74-2.167-11.956-7.554s2.167-10.74 7.554-11.956c2.901-.654 8.354-10.544 10.407-14.267.762-1.382 1.495-2.71 2.203-3.938 3.192-5.496 3.914-11.85 2.044-17.916-1.091-3.542-.135-7.396 2.485-10.016 2.619-2.62 6.477-3.577 10.016-2.486 6.066 1.868 12.42 1.148 17.894-2.03 5.463-3.154 9.368-8.433 10.738-14.497.817-3.621 3.573-6.49 7.158-7.454 3.586-.963 7.408.138 9.931 2.86 4.313 4.654 10.192 7.218 16.556 7.218 6.33 0 12.191-2.563 16.505-7.218 2.519-2.715 6.328-3.816 9.904-2.867 3.577.951 6.337 3.801 7.173 7.407 1.439 6.212 5.249 11.375 10.727 14.537 5.521 3.187 11.896 3.913 17.953 2.045 3.542-1.092 7.394-.138 10.015 2.48s3.58 6.47 2.493 10.011c-1.864 6.071-1.148 12.44 2.016 17.935 3.201 5.51 8.359 9.323 14.506 10.703 3.623.813 6.498 3.568 7.464 7.155.967 3.586-.134 7.412-2.858 9.937-4.66 4.319-7.227 10.199-7.227 16.556 0 6.325 2.566 12.187 7.227 16.506 2.717 2.518 3.819 6.331 2.866 9.91-.954 3.579-3.809 6.338-7.418 7.169-6.205 1.43-11.383 5.247-14.579 10.748-3.14 5.486-3.86 11.877-1.997 17.939 1.088 3.54.131 7.391-2.487 10.009-2.618 2.619-6.472 3.576-10.009 2.488-6.064-1.864-12.455-1.142-17.994 2.03-2.454 1.426-4.63 3.316-6.413 5.588-1.974 2.511-4.91 3.823-7.873 3.823z"/><path d="m383.229 178.972c-3.428 0-6.764-1.762-8.628-4.929-2.802-4.76-1.214-10.889 3.546-13.69 10.42-6.132 16.893-17.417 16.893-29.452 0-18.831-15.315-34.15-34.14-34.15-14.142 0-26.616 8.5-31.783 21.655-2.018 5.141-7.822 7.671-12.963 5.653-5.141-2.019-7.672-7.823-5.652-12.963 8.193-20.864 27.976-34.345 50.398-34.345 29.853 0 54.14 24.292 54.14 54.15 0 19.088-10.249 36.979-26.748 46.688-1.593.937-3.34 1.383-5.063 1.383z"/><path d="m390.91 370h-271.82c-38.096 0-69.09-30.993-69.09-69.09 0-35.204 26.467-64.343 60.546-68.565-.969-4.631-1.457-9.363-1.457-14.165 0-38.097 30.994-69.09 69.09-69.09 9.447 0 18.722 1.926 27.308 5.63 14.112-24.719 38.056-43.035 65.8-49.869 16.601-4.088 34.373-4.024 50.989.209 31.169 7.953 57.383 30.365 70.127 59.955 5.643 13.075 8.506 26.988 8.506 41.345 0 .319-.002.637-.011.956-.072 8.449-1.146 16.757-3.203 24.834 34.923 3.422 62.305 32.954 62.305 68.76 0 38.097-30.993 69.09-69.09 69.09zm-271.82-118.18c-27.068 0-49.09 22.022-49.09 49.09s22.021 49.09 49.09 49.09h271.82c27.068 0 49.09-22.021 49.09-49.09s-22.021-49.09-49.09-49.09c-1.88 0-3.814.119-5.914.363-3.516.411-6.99-1.073-9.128-3.896-2.139-2.823-2.624-6.567-1.276-9.842 4.107-9.982 6.229-20.549 6.309-31.408.001-.106.004-.212.008-.318.004-.119.002-.239.002-.359 0-11.615-2.313-22.862-6.872-33.427-10.311-23.938-31.506-42.064-56.701-48.493-13.435-3.422-27.848-3.474-41.267-.169-25.223 6.213-46.565 24.178-57.09 48.054-1.599 3.626-5.188 5.966-9.15 5.966-1.899 0-3.77-.541-5.373-1.56-7.867-4.999-16.954-7.641-26.277-7.641-27.068 0-49.09 22.022-49.09 49.09 0 6.874 1.406 13.546 4.18 19.833 1.424 3.229 1.041 6.97-1.008 9.843-2.049 2.874-5.464 4.451-8.979 4.158-1.56-.131-2.932-.194-4.194-.194z"/><path d="m120 440c-2.559 0-5.119-.977-7.071-2.929-3.905-3.905-3.905-10.237 0-14.143l40-40c3.905-3.904 10.237-3.904 14.143 0 3.905 3.905 3.905 10.237 0 14.143l-40 40c-1.953 1.952-4.513 2.929-7.072 2.929z"/><path d="m130 480c-2.559 0-5.119-.977-7.071-2.929-3.905-3.905-3.905-10.237 0-14.143l80-80c3.905-3.904 10.237-3.904 14.143 0 3.905 3.905 3.905 10.237 0 14.143l-80 80c-1.953 1.952-4.513 2.929-7.072 2.929z"/><path d="m190 470c-2.559 0-5.119-.977-7.071-2.929-3.905-3.905-3.905-10.237 0-14.143l60-60c3.905-3.904 10.237-3.904 14.143 0 3.905 3.905 3.905 10.237 0 14.143l-60 60c-1.953 1.952-4.513 2.929-7.072 2.929z"/><path d="m210 500c-2.559 0-5.119-.977-7.071-2.929-3.905-3.905-3.905-10.237 0-14.143l90-90c3.906-3.904 10.236-3.904 14.143 0 3.905 3.905 3.905 10.237 0 14.143l-90 90c-1.953 1.952-4.513 2.929-7.072 2.929z"/><path d="m290 470c-2.56 0-5.118-.977-7.071-2.929-3.905-3.905-3.905-10.237 0-14.143l60-60c3.906-3.904 10.236-3.904 14.143 0 3.905 3.905 3.905 10.237 0 14.143l-60 60c-1.954 1.952-4.512 2.929-7.072 2.929z"/><path d="m80 150c-22.056 0-40-17.944-40-40s17.944-40 40-40 40 17.944 40 40-17.944 40-40 40zm0-60c-11.028 0-20 8.972-20 20s8.972 20 20 20 20-8.972 20-20-8.972-20-20-20z"/><path d="m410 460c-16.542 0-30-13.458-30-30s13.458-30 30-30 30 13.458 30 30-13.458 30-30 30zm0-40c-5.514 0-10 4.486-10 10s4.486 10 10 10 10-4.486 10-10-4.486-10-10-10z"/></g></svg>