<svg enable-background="new 0 0 512 512" height="512" viewBox="0 0 512 512" width="512" xmlns="http://www.w3.org/2000/svg"><g id="_x38_88-Address_x2C__Home_x2C__Location"><path d="m260 410c-61.305-84.012-154.13-116.252-154.13-215.87 0-85.13 69-154.13 154.13-154.13s154.13 69 154.13 154.13c0 99.627-92.802 131.824-154.13 215.87z" fill="#d94556"/><path d="m180 470h-70l50-130h34.07c22.45 20.57 45.87 42.51 65.93 70 20.06-27.49 43.48-49.43 65.93-70h34.07l19.23 50 30.77 80h-80z" fill="#d0dce7"/><path d="m70 310c11.05 0 20 8.95 20 20s-8.95 20-20 20-20-8.95-20-20 8.95-20 20-20z" fill="#5cbeff"/><circle cx="450" cy="300" fill="#5cbeff" r="30"/><path d="m352.65 152.94h-26.47-132.38-26.45l93.08-52.94z" fill="#d0dce7"/><path d="m326.18 152.94v97.06h-42.15v-30.04c0-6.32-2.561-12.05-6.71-16.19-4.141-4.15-9.86-6.71-16.19-6.71-12.65 0-22.91 10.25-22.91 22.9v30.04h-44.42v-97.06z" fill="#fff"/><path d="m480 150c5.52 0 10 4.48 10 10 0 2.76-1.12 5.26-2.93 7.07-1.811 1.81-4.311 2.93-7.07 2.93s-5.26-1.12-7.07-2.93-2.93-4.31-2.93-7.07 1.12-5.26 2.93-7.07 4.31-2.93 7.07-2.93z"/><path d="m420 370c5.52 0 10 4.48 10 10 0 2.76-1.12 5.26-2.93 7.07-1.811 1.81-4.311 2.93-7.07 2.93s-5.26-1.12-7.07-2.93c-1.81-1.811-2.93-4.311-2.93-7.07s1.12-5.26 2.93-7.07 4.31-2.93 7.07-2.93z"/><path d="m410 50c5.52 0 10 4.48 10 10 0 2.76-1.12 5.26-2.93 7.07s-4.31 2.93-7.07 2.93-5.26-1.12-7.07-2.93-2.93-4.31-2.93-7.07 1.12-5.26 2.93-7.07 4.31-2.93 7.07-2.93z"/><path d="m120 40c5.52 0 10 4.48 10 10 0 2.76-1.12 5.26-2.93 7.07s-4.31 2.93-7.07 2.93-5.26-1.12-7.07-2.93-2.93-4.31-2.93-7.07 1.12-5.26 2.93-7.07 4.31-2.93 7.07-2.93z"/><path d="m90 390c5.52 0 10 4.48 10 10 0 2.76-1.12 5.26-2.93 7.07s-4.31 2.93-7.07 2.93-5.26-1.12-7.07-2.93-2.93-4.31-2.93-7.07 1.12-5.26 2.93-7.07 4.31-2.93 7.07-2.93z"/><path d="m60 170c5.52 0 10 4.48 10 10 0 2.76-1.12 5.26-2.93 7.07s-4.31 2.93-7.07 2.93-5.26-1.12-7.07-2.93-2.93-4.31-2.93-7.07 1.12-5.26 2.93-7.07 4.31-2.93 7.07-2.93z"/><path d="m410 480h-300c-3.294 0-6.378-1.623-8.243-4.339s-2.273-6.176-1.09-9.251l50-130c1.485-3.862 5.196-6.41 9.333-6.41h34.07c5.523 0 10.005 4.478 10.005 10s-4.472 10-9.995 10h-27.212l-42.308 110h270.879l-42.308-110h-27.201c-5.522 0-10.005-4.478-10.005-10s4.473-10 9.995-10h34.08c4.138 0 7.848 2.548 9.334 6.41l49.999 130c1.184 3.075.775 6.535-1.09 9.251s-4.948 4.339-8.243 4.339z"/><path d="m280 420h-40c-5.523 0-10-4.478-10-10s4.477-10 10-10h40c5.522 0 10 4.478 10 10s-4.478 10-10 10z"/><path d="m260 420c-3.194 0-6.195-1.525-8.078-4.105-18.96-25.983-41.38-47.239-64.607-68.521l-3.944-3.611c-44.998-41.189-87.5-80.095-87.5-149.632-.001-90.503 73.628-164.131 164.129-164.131 90.502 0 164.13 73.628 164.13 164.13 0 69.536-42.502 108.441-87.5 149.631l-3.943 3.611c-24.118 22.1-45.627 42.509-64.608 68.522-1.884 2.581-4.886 4.106-8.079 4.106zm0-370c-79.474 0-144.13 64.656-144.13 144.13 0 60.73 37.539 95.092 81.004 134.879l3.953 3.619c20.841 19.096 41.08 38.208 59.173 60.896 18.09-22.684 38.331-41.799 59.174-60.897l3.952-3.619c43.466-39.786 81.004-74.148 81.004-134.878 0-79.474-64.656-144.13-144.13-144.13z"/><path d="m70 360c-16.542 0-30-13.458-30-30s13.458-30 30-30 30 13.458 30 30-13.458 30-30 30zm0-40c-5.514 0-10 4.486-10 10s4.486 10 10 10 10-4.486 10-10-4.486-10-10-10z"/><path d="m450 340c-22.056 0-40-17.944-40-40s17.944-40 40-40 40 17.944 40 40-17.944 40-40 40zm0-60c-11.028 0-20 8.972-20 20s8.972 20 20 20 20-8.972 20-20-8.972-20-20-20z"/><path d="m360 440h-50c-5.522 0-10-4.478-10-10s4.478-10 10-10h50c5.522 0 10 4.478 10 10s-4.478 10-10 10z"/><path d="m210 440h-50c-5.523 0-10-4.478-10-10s4.477-10 10-10h50c5.523 0 10 4.478 10 10s-4.477 10-10 10z"/><path d="m180 480c-5.523 0-10-4.478-10-10v-80c0-5.522 4.477-10 10-10s10 4.478 10 10v80c0 5.522-4.477 10-10 10z"/><path d="m330 480c-5.522 0-10-4.478-10-10v-50c0-5.522 4.478-10 10-10s10 4.478 10 10v50c0 5.522-4.478 10-10 10z"/><path d="m379.23 400h-39.23c-5.522 0-10-4.478-10-10s4.478-10 10-10h39.23c5.522 0 10 4.478 10 10s-4.477 10-10 10z"/><path d="m352.65 162.94h-26.47c-5.522 0-10-4.477-10-10 0-2.975 1.299-5.646 3.359-7.477l-59.133-33.945-59.856 34.044c1.997 1.829 3.25 4.457 3.25 7.378 0 5.523-4.477 10-10 10h-26.45c-4.538 0-8.507-3.056-9.667-7.443-1.161-4.387.779-9.006 4.724-11.25l93.08-52.94c3.078-1.751 6.853-1.744 9.922.02l92.221 52.939c3.93 2.256 5.852 6.872 4.684 11.249-1.168 4.379-5.133 7.425-9.664 7.425z"/><path d="m326.18 260h-42.15c-5.522 0-10-4.477-10-10v-30.04c0-3.448-1.34-6.683-3.773-9.111-2.443-2.449-5.679-3.789-9.127-3.789-7.118 0-12.91 5.787-12.91 12.9v30.04c0 5.523-4.477 10-10 10h-44.42c-5.523 0-10-4.477-10-10v-97.06c0-5.523 4.477-10 10-10h132.38c5.522 0 10 4.477 10 10v97.06c0 5.523-4.478 10-10 10zm-32.15-20h22.149v-77.06h-112.379v77.06h24.42v-20.04c0-18.141 14.763-32.9 32.91-32.9 8.799 0 17.063 3.426 23.27 9.647 6.205 6.191 9.631 14.455 9.631 23.253v20.04z"/></g></svg>