<svg enable-background="new 0 0 512 512" height="512" viewBox="0 0 512 512" width="512" xmlns="http://www.w3.org/2000/svg"><g id="_x38_89-Comment_x2C__Compose_x2C__Edit"><path d="m55 50c8.28 0 15 6.72 15 15s-6.72 15-15 15-15-6.72-15-15 6.72-15 15-15z" fill="#f88f19"/><path d="m425 50c13.81 0 25 11.19 25 25s-11.19 25-25 25-25-11.19-25-25 11.19-25 25-25z" fill="#f88f19"/><path d="m410 190h60v30h-60z" fill="#3f4751"/><path d="m470 220v180l-30 50-30-50v-180z" fill="#757d8c"/><path d="m470 160v30h-60v-30c0-16.57 13.43-30 30-30 8.28 0 15.78 3.36 21.21 8.79s8.79 12.93 8.79 21.21z" fill="#d94556"/><path d="m80 137c0-25.96 21.04-47 47-47h33v360h-33c-26.106 0-47-21.19-47-47 0-125.071 0-148.05 0-266z" fill="#3256c1"/><path d="m380 400v3c0 25.96-21.04 47-47 47h-173v-50z" fill="#079cff"/><path d="m380 137v263h-220v-310h173c25.96 0 47 21.04 47 47z" fill="#5cbeff"/><path d="m400 460c5.52 0 10 4.48 10 10s-4.48 10-10 10-10-4.48-10-10 4.48-10 10-10z"/><path d="m360 50c5.52 0 10 4.48 10 10s-4.48 10-10 10-10-4.48-10-10 4.48-10 10-10z"/><path d="m300 230c5.52 0 10 4.48 10 10s-4.48 10-10 10-10-4.48-10-10 4.48-10 10-10z"/><path d="m120 40c5.52 0 10 4.48 10 10s-4.48 10-10 10-10-4.48-10-10 4.48-10 10-10z"/><path d="m70 450c5.52 0 10 4.48 10 10s-4.48 10-10 10-10-4.48-10-10 4.48-10 10-10z"/><path d="m333 460h-206c-28.006 0-52.241-20.86-56.37-48.523-.418-2.804-.63-5.656-.63-8.477v-266c0-31.43 25.57-57 57-57h206c31.43 0 57 25.57 57 57v266c0 31.43-25.57 57-57 57zm-206-360c-20.402 0-37 16.598-37 37v266c0 1.838.138 3.697.411 5.525 2.678 17.943 18.408 31.475 36.589 31.475h206c20.402 0 37-16.598 37-37v-266c0-20.402-16.598-37-37-37z"/><path d="m440 460c-3.513 0-6.768-1.843-8.575-4.855l-30-50c-.933-1.554-1.425-3.332-1.425-5.145v-240c0-22.056 17.944-40 40-40 10.681 0 20.725 4.162 28.281 11.719 7.557 7.558 11.719 17.601 11.719 28.281v240c0 1.813-.492 3.591-1.425 5.145l-30 50c-1.807 3.012-5.062 4.855-8.575 4.855zm-20-62.77 20 33.333 20-33.333v-237.23c0-5.338-2.082-10.359-5.861-14.139-3.78-3.779-8.801-5.861-14.139-5.861-11.028 0-20 8.972-20 20z"/><path d="m470 200h-60c-5.522 0-10-4.477-10-10s4.478-10 10-10h60c5.522 0 10 4.477 10 10s-4.478 10-10 10z"/><path d="m470 230h-60c-5.522 0-10-4.477-10-10s4.478-10 10-10h60c5.522 0 10 4.477 10 10s-4.478 10-10 10z"/><path d="m110 180h-45c-13.785 0-25-11.215-25-25 0-6.687 2.607-12.967 7.342-17.684 4.691-4.709 10.971-7.316 17.658-7.316h15c5.523 0 10 4.477 10 10s-4.477 10-10 10h-15c-1.795 0-2.974.914-3.516 1.458-.57.568-1.484 1.747-1.484 3.542 0 2.757 2.243 5 5 5h45c1.795 0 2.974-.914 3.516-1.458.57-.568 1.484-1.747 1.484-3.542 0-2.757-2.243-5-5-5-5.523 0-10-4.477-10-10s4.477-10 10-10c13.785 0 25 11.215 25 25 0 6.687-2.607 12.967-7.342 17.684-4.691 4.709-10.971 7.316-17.658 7.316z"/><path d="m110 240h-45c-13.785 0-25-11.215-25-25 0-6.687 2.607-12.967 7.342-17.684 4.691-4.709 10.971-7.316 17.658-7.316h15c5.523 0 10 4.477 10 10s-4.477 10-10 10h-15c-1.795 0-2.974.914-3.516 1.458-.57.568-1.484 1.747-1.484 3.542 0 2.757 2.243 5 5 5h45c1.795 0 2.974-.914 3.516-1.458.57-.568 1.484-1.747 1.484-3.542 0-2.757-2.243-5-5-5-5.523 0-10-4.477-10-10s4.477-10 10-10c13.785 0 25 11.215 25 25 0 6.687-2.607 12.967-7.342 17.684-4.691 4.709-10.971 7.316-17.658 7.316z"/><path d="m110 300h-45c-13.785 0-25-11.215-25-25 0-6.686 2.607-12.966 7.342-17.684 4.69-4.708 10.971-7.316 17.658-7.316h15c5.523 0 10 4.477 10 10 0 5.522-4.477 10-10 10h-15c-1.331 0-2.579.518-3.515 1.457-.571.569-1.485 1.748-1.485 3.543 0 2.757 2.243 5 5 5h45c1.331 0 2.579-.518 3.515-1.457.571-.569 1.485-1.748 1.485-3.543 0-2.757-2.243-5-5-5-5.523 0-10-4.478-10-10 0-5.523 4.477-10 10-10 13.785 0 25 11.215 25 25 0 6.686-2.607 12.966-7.342 17.684-4.69 4.709-10.97 7.316-17.658 7.316z"/><path d="m110 360h-45c-13.785 0-25-11.215-25-25 0-6.686 2.607-12.966 7.342-17.684 4.69-4.709 10.971-7.316 17.658-7.316h15c5.523 0 10 4.478 10 10s-4.477 10-10 10h-15c-1.331 0-2.579.518-3.515 1.457-.571.569-1.485 1.748-1.485 3.543 0 2.757 2.243 5 5 5h45c1.331 0 2.579-.518 3.515-1.457.571-.569 1.485-1.748 1.485-3.543 0-2.757-2.243-5-5-5-5.523 0-10-4.478-10-10s4.477-10 10-10c13.785 0 25 11.215 25 25 0 6.686-2.607 12.966-7.342 17.684-4.69 4.709-10.97 7.316-17.658 7.316z"/><path d="m110 420h-45c-13.785 0-25-11.215-25-25 0-6.686 2.607-12.966 7.342-17.684 4.69-4.709 10.971-7.316 17.658-7.316h15c5.523 0 10 4.478 10 10s-4.477 10-10 10h-15c-1.331 0-2.579.518-3.515 1.457-.571.569-1.485 1.748-1.485 3.543 0 2.757 2.243 5 5 5h45c1.331 0 2.579-.518 3.515-1.457.571-.569 1.485-1.748 1.485-3.543 0-2.757-2.243-5-5-5-5.523 0-10-4.478-10-10s4.477-10 10-10c13.785 0 25 11.215 25 25 0 6.686-2.607 12.966-7.342 17.684-4.69 4.709-10.97 7.316-17.658 7.316z"/><path d="m160 460c-5.523 0-10-4.478-10-10v-360c0-5.523 4.477-10 10-10s10 4.477 10 10v360c0 5.522-4.477 10-10 10z"/><path d="m340 370h-140c-5.523 0-10-4.478-10-10s4.477-10 10-10h140c5.522 0 10 4.478 10 10s-4.478 10-10 10z"/><path d="m340 340h-140c-5.523 0-10-4.478-10-10s4.477-10 10-10h140c5.522 0 10 4.478 10 10s-4.478 10-10 10z"/><path d="m340 310h-140c-5.523 0-10-4.478-10-10s4.477-10 10-10h140c5.522 0 10 4.478 10 10s-4.478 10-10 10z"/><path d="m340 280h-140c-5.523 0-10-4.478-10-10s4.477-10 10-10h140c5.522 0 10 4.478 10 10s-4.478 10-10 10z"/><path d="m270 250h-70c-5.523 0-10-4.477-10-10s4.477-10 10-10h70c5.522 0 10 4.477 10 10s-4.478 10-10 10z"/><path d="m270 220h-70c-5.523 0-10-4.477-10-10s4.477-10 10-10h70c5.522 0 10 4.477 10 10s-4.478 10-10 10z"/><path d="m380 410h-220c-5.523 0-10-4.478-10-10s4.477-10 10-10h220c5.522 0 10 4.478 10 10s-4.478 10-10 10z"/><path d="m55 90c-13.785 0-25-11.215-25-25s11.215-25 25-25 25 11.215 25 25-11.215 25-25 25zm0-30c-2.757 0-5 2.243-5 5s2.243 5 5 5 5-2.243 5-5-2.243-5-5-5z"/><path d="m425 110c-19.299 0-35-15.701-35-35s15.701-35 35-35 35 15.701 35 35-15.701 35-35 35zm0-50c-8.271 0-15 6.729-15 15s6.729 15 15 15 15-6.729 15-15-6.729-15-15-15z"/></g></svg>