<svg enable-background="new 0 0 512 512" height="512" viewBox="0 0 512 512" width="512" xmlns="http://www.w3.org/2000/svg"><g id="_x38_90-Interface_x2C__Plus_x2C__User"><path d="m420 440c11.05 0 20 8.95 20 20s-8.95 20-20 20-20-8.95-20-20 8.95-20 20-20z" fill="#d94556"/><path d="m85 50c13.81 0 25 11.19 25 25s-11.19 25-25 25-25-11.19-25-25 11.19-25 25-25z" fill="#d94556"/><path d="m260 60c-110.46 0-200 89.54-200 200s89.54 200 200 200 200-89.54 200-200-89.54-200-200-200z" fill="#3256c1"/><path d="m260 120c77.32 0 140 62.68 140 140s-62.68 140-140 140-140-62.68-140-140 62.68-140 140-140z" fill="#bce4ff"/><path d="m329.14 245.86c3.62 3.62 5.86 8.62 5.86 14.14 0 11.05-8.95 20-20 20h-35v35c0 5.52-2.24 10.52-5.86 14.14s-8.62 5.86-14.14 5.86c-11.05 0-20-8.95-20-20v-35h-35c-5.52 0-10.52-2.24-14.14-5.86s-5.86-8.62-5.86-14.14c0-11.05 8.95-20 20-20h35v-35c0-5.52 2.24-10.52 5.86-14.14s8.62-5.86 14.14-5.86c11.05 0 20 8.95 20 20v35h35c5.52 0 10.52 2.24 14.14 5.86z" fill="#07cc66"/><path d="m470 120c5.52 0 10 4.48 10 10s-4.48 10-10 10-10-4.48-10-10 4.48-10 10-10z"/><path d="m470 380c5.52 0 10 4.48 10 10s-4.48 10-10 10-10-4.48-10-10 4.48-10 10-10z"/><path d="m400 30c5.52 0 10 4.48 10 10s-4.48 10-10 10-10-4.48-10-10 4.48-10 10-10z"/><path d="m110 460c5.52 0 10 4.48 10 10s-4.48 10-10 10-10-4.48-10-10 4.48-10 10-10z"/><path d="m50 130c5.52 0 10 4.48 10 10s-4.48 10-10 10-10-4.48-10-10 4.48-10 10-10z"/><path d="m50 380c5.52 0 10 4.48 10 10s-4.48 10-10 10-10-4.48-10-10 4.48-10 10-10z"/><path d="m260 345c-16.542 0-30-13.458-30-30v-25h-25c-8.01 0-15.543-3.121-21.211-8.789-5.668-5.669-8.789-13.201-8.789-21.211 0-16.542 13.458-30 30-30h25v-25c0-8.01 3.121-15.543 8.788-21.211 5.669-5.668 13.202-8.789 21.212-8.789 16.542 0 30 13.458 30 30v25h25c8.01 0 15.542 3.121 21.21 8.789 5.669 5.668 8.79 13.201 8.79 21.211 0 16.542-13.458 30-30 30h-25v25c0 8.01-3.121 15.543-8.789 21.211s-13.201 8.789-21.211 8.789zm-55-95c-5.514 0-10 4.486-10 10 0 2.668 1.041 5.179 2.931 7.069s4.401 2.931 7.069 2.931h35c5.523 0 10 4.478 10 10v35c0 5.514 4.486 10 10 10 2.668 0 5.179-1.041 7.068-2.932 1.891-1.89 2.932-4.4 2.932-7.068v-35c0-5.522 4.478-10 10-10h35c5.514 0 10-4.486 10-10 0-2.668-1.041-5.179-2.932-7.069-1.89-1.89-4.4-2.931-7.068-2.931h-35c-5.522 0-10-4.477-10-10v-35c0-5.514-4.486-10-10-10-2.668 0-5.179 1.041-7.069 2.932-1.89 1.89-2.931 4.4-2.931 7.068v35c0 5.523-4.477 10-10 10z"/><path d="m260 470c-115.794 0-210-94.206-210-210s94.206-210 210-210 210 94.206 210 210-94.206 210-210 210zm0-400c-104.767 0-190 85.233-190 190s85.233 190 190 190 190-85.233 190-190-85.233-190-190-190z"/><path d="m260 410c-82.71 0-150-67.29-150-150s67.29-150 150-150 150 67.29 150 150-67.29 150-150 150zm0-280c-71.682 0-130 58.318-130 130 0 71.683 58.318 130 130 130 71.683 0 130-58.317 130-130 0-71.682-58.317-130-130-130z"/><path d="m85 110c-19.299 0-35-15.701-35-35s15.701-35 35-35 35 15.701 35 35-15.701 35-35 35zm0-50c-8.271 0-15 6.729-15 15s6.729 15 15 15 15-6.729 15-15-6.729-15-15-15z"/><path d="m420 490c-16.542 0-30-13.458-30-30s13.458-30 30-30 30 13.458 30 30-13.458 30-30 30zm0-40c-5.514 0-10 4.486-10 10s4.486 10 10 10 10-4.486 10-10-4.486-10-10-10z"/></g></svg>