<svg enable-background="new 0 0 512 512" height="512" viewBox="0 0 512 512" width="512" xmlns="http://www.w3.org/2000/svg"><g id="_x38_91-Bluetooth_x2C__Interface_x2C__User"><path d="m450 440c11.05 0 20 8.95 20 20s-8.95 20-20 20-20-8.95-20-20 8.95-20 20-20z" fill="#07cc66"/><path d="m85 30c13.81 0 25 11.19 25 25s-11.19 25-25 25-25-11.19-25-25 11.19-25 25-25z" fill="#07cc66"/><path d="m260 60c-110.46 0-200 89.54-200 200s89.54 200 200 200 200-89.54 200-200-89.54-200-200-200z" fill="#bce4ff"/><path d="m260 120c77.32 0 140 62.68 140 140s-62.68 140-140 140-140-62.68-140-140 62.68-140 140-140z" fill="#3256c1"/><path d="m470 120c5.52 0 10 4.48 10 10s-4.48 10-10 10-10-4.48-10-10 4.48-10 10-10z"/><path d="m470 380c5.52 0 10 4.48 10 10s-4.48 10-10 10-10-4.48-10-10 4.48-10 10-10z"/><path d="m400 30c5.52 0 10 4.48 10 10s-4.48 10-10 10-10-4.48-10-10 4.48-10 10-10z"/><path d="m110 460c5.52 0 10 4.48 10 10s-4.48 10-10 10-10-4.48-10-10 4.48-10 10-10z"/><path d="m50 130c5.52 0 10 4.48 10 10s-4.48 10-10 10-10-4.48-10-10 4.48-10 10-10z"/><path d="m50 380c5.52 0 10 4.48 10 10s-4.48 10-10 10-10-4.48-10-10 4.48-10 10-10z"/><path d="m260 470c-115.794 0-210-94.206-210-210s94.206-210 210-210 210 94.206 210 210-94.206 210-210 210zm0-400c-104.767 0-190 85.233-190 190s85.233 190 190 190 190-85.233 190-190-85.233-190-190-190z"/><path d="m260 410c-82.71 0-150-67.29-150-150s67.29-150 150-150 150 67.29 150 150-67.29 150-150 150zm0-280c-71.682 0-130 58.318-130 130 0 71.683 58.318 130 130 130 71.683 0 130-58.317 130-130 0-71.682-58.317-130-130-130z"/><path d="m85 90c-19.299 0-35-15.701-35-35s15.701-35 35-35 35 15.701 35 35-15.701 35-35 35zm0-50c-8.271 0-15 6.729-15 15s6.729 15 15 15 15-6.729 15-15-6.729-15-15-15z"/><path d="m450 490c-16.542 0-30-13.458-30-30s13.458-30 30-30 30 13.458 30 30-13.458 30-30 30zm0-40c-5.514 0-10 4.486-10 10s4.486 10 10 10 10-4.486 10-10-4.486-10-10-10z"/><path d="m248.6 269.76c-1.727 0-3.453-.446-5-1.34-3.094-1.786-5-5.088-5-8.66v-82.45c0-3.573 1.906-6.874 5-8.661 3.094-1.786 6.906-1.786 10 .001l71.4 41.23c3.094 1.786 4.999 5.087 4.999 8.66s-1.906 6.874-5 8.66l-71.4 41.219c-1.546.894-3.273 1.341-4.999 1.341zm10-75.128v47.808l41.401-23.901z"/><path d="m248.6 352.21c-1.727 0-3.453-.446-5-1.34-3.094-1.786-5-5.088-5-8.66v-82.45c0-3.573 1.906-6.874 5-8.661 3.094-1.786 6.906-1.786 10 .001l71.4 41.23c3.094 1.787 4.999 5.088 4.999 8.661 0 3.572-1.906 6.873-5 8.659l-71.4 41.22c-1.546.894-3.273 1.34-4.999 1.34zm10-75.128v47.808l41.401-23.9z"/><path d="m248.601 269.76c-2.599 0-5.195-1.007-7.155-3.013l-48.6-49.76c-3.859-3.951-3.784-10.282.167-14.141 3.952-3.859 10.283-3.783 14.141.167l48.6 49.76c3.859 3.951 3.784 10.282-.167 14.142-1.944 1.898-4.466 2.845-6.986 2.845z"/><path d="m200.005 310c-2.876 0-5.73-1.234-7.708-3.622-3.522-4.254-2.929-10.559 1.325-14.08l48.6-40.241c4.253-3.522 10.557-2.929 14.08 1.325 3.522 4.253 2.929 10.558-1.325 14.08l-48.6 40.24c-1.865 1.545-4.125 2.298-6.372 2.298z"/></g></svg>