<svg enable-background="new 0 0 512 512" height="512" viewBox="0 0 512 512" width="512" xmlns="http://www.w3.org/2000/svg"><g id="_x38_92-Airdrop_x2C__Interface_x2C__User"><path d="m260 250c5.52 0 10 4.48 10 10s-4.48 10-10 10-10-4.48-10-10 4.48-10 10-10z" fill="#3f4751"/><path d="m175 430c13.81 0 25 11.19 25 25s-11.19 25-25 25-25-11.19-25-25 11.19-25 25-25z" fill="#5cbeff"/><circle cx="450" cy="60" fill="#5cbeff" r="30"/><path d="m470 120c5.52 0 10 4.48 10 10s-4.48 10-10 10-10-4.48-10-10 4.48-10 10-10z"/><path d="m460 410c5.52 0 10 4.48 10 10s-4.48 10-10 10-10-4.48-10-10 4.48-10 10-10z"/><path d="m290 410c5.52 0 10 4.48 10 10s-4.48 10-10 10-10-4.48-10-10 4.48-10 10-10z"/><path d="m140 50c5.52 0 10 4.48 10 10s-4.48 10-10 10-10-4.48-10-10 4.48-10 10-10z"/><path d="m80 430c5.52 0 10 4.48 10 10s-4.48 10-10 10-10-4.48-10-10 4.48-10 10-10z"/><path d="m50 100c5.52 0 10 4.48 10 10s-4.48 10-10 10-10-4.48-10-10 4.48-10 10-10z"/><path d="m231.72 298.28c-2.558 0-5.116-.976-7.069-2.927-9.45-9.443-14.654-21.999-14.654-35.354s5.204-25.91 14.654-35.354c9.438-9.445 21.994-14.649 35.349-14.649s25.91 5.204 35.354 14.654c9.445 9.439 14.649 21.994 14.649 35.349s-5.204 25.91-14.653 35.354c-3.908 3.904-10.238 3.901-14.143-.004-3.904-3.907-3.902-10.238.005-14.143 5.669-5.666 8.791-13.197 8.791-21.207s-3.122-15.541-8.791-21.207c-5.671-5.674-13.202-8.796-21.212-8.796s-15.541 3.122-21.206 8.792c-5.674 5.67-8.796 13.201-8.796 21.211s3.122 15.541 8.792 21.207c3.906 3.904 3.909 10.235.004 14.142-1.953 1.955-4.514 2.932-7.074 2.932z"/><path d="m316.57 326.57c-2.56 0-5.118-.977-7.071-2.929-3.905-3.905-3.905-10.237 0-14.143 27.293-27.294 27.293-71.704 0-98.998-13.22-13.219-30.8-20.5-49.499-20.5-18.7 0-36.278 7.281-49.499 20.501-13.22 13.221-20.501 30.799-20.501 49.499 0 18.699 7.281 36.279 20.501 49.499 3.905 3.905 3.905 10.237 0 14.143-3.905 3.904-10.237 3.904-14.143 0-16.997-16.998-26.358-39.6-26.358-63.642s9.361-46.643 26.359-63.641 39.599-26.359 63.641-26.359 46.644 9.361 63.642 26.359c35.091 35.092 35.091 92.19 0 127.283-1.954 1.952-4.512 2.928-7.072 2.928z"/><path d="m344.85 354.85c-2.56 0-5.119-.977-7.072-2.93-3.904-3.906-3.903-10.237.002-14.143 20.779-20.774 32.223-48.396 32.223-77.777s-11.443-57.003-32.223-77.778c-20.776-20.781-48.398-32.224-77.779-32.224s-57.003 11.443-77.778 32.223c-20.781 20.776-32.225 48.398-32.225 77.78 0 29.381 11.444 57.003 32.223 77.777 3.906 3.905 3.906 10.236.001 14.143s-10.236 3.907-14.142.002c-24.558-24.553-38.083-57.197-38.083-91.922s13.525-67.37 38.083-91.922c24.551-24.556 57.196-38.081 91.92-38.081s67.369 13.524 91.922 38.082c24.556 24.551 38.08 57.196 38.08 91.92s-13.524 67.369-38.082 91.922c-1.952 1.951-4.512 2.928-7.07 2.928z"/><path d="m373.14 383.14c-2.56 0-5.118-.976-7.07-2.929-3.906-3.904-3.906-10.236-.001-14.142 58.478-58.486 58.478-153.652 0-212.139-58.487-58.477-153.651-58.476-212.138.001-58.477 58.486-58.477 153.651.001 212.138 3.905 3.905 3.904 10.237-.001 14.142-3.904 3.905-10.236 3.906-14.142-.001-66.274-66.283-66.274-174.136 0-240.42 66.286-66.275 174.138-66.275 240.422-.001 66.275 66.286 66.275 174.139.001 240.422-1.953 1.952-4.513 2.929-7.072 2.929z"/><path d="m118.58 411.42c-2.559 0-5.118-.976-7.071-2.929-39.666-39.661-61.511-92.396-61.511-148.491s21.845-108.83 61.512-148.491c39.66-39.666 92.395-61.511 148.49-61.511s108.83 21.845 148.491 61.512c39.666 39.661 61.512 92.396 61.512 148.491s-21.846 108.83-61.513 148.491c-3.905 3.905-10.238 3.905-14.142-.001-3.905-3.905-3.905-10.237.001-14.142 35.889-35.884 55.653-83.597 55.653-134.349s-19.765-98.464-55.653-134.348c-35.884-35.89-83.597-55.654-134.349-55.654s-98.464 19.765-134.349 55.653c-35.889 35.885-55.653 83.597-55.653 134.349s19.765 98.465 55.653 134.349c3.905 3.904 3.906 10.236 0 14.142-1.952 1.952-4.512 2.929-7.071 2.929z"/><path d="m260 280c-11.028 0-20-8.972-20-20s8.972-20 20-20 20 8.972 20 20-8.972 20-20 20z"/><path d="m175 490c-19.299 0-35-15.701-35-35s15.701-35 35-35 35 15.701 35 35-15.701 35-35 35zm0-50c-8.271 0-15 6.729-15 15s6.729 15 15 15 15-6.729 15-15-6.729-15-15-15z"/><path d="m450 100c-22.056 0-40-17.944-40-40s17.944-40 40-40 40 17.944 40 40-17.944 40-40 40zm0-60c-11.028 0-20 8.972-20 20s8.972 20 20 20 20-8.972 20-20-8.972-20-20-20z"/></g></svg>