<svg enable-background="new 0 0 512 512" height="512" viewBox="0 0 512 512" width="512" xmlns="http://www.w3.org/2000/svg"><g id="_x38_93-Interface_x2C__Ui_x2C__User_x2C__User_Interface"><path d="m37.9 422.11c0-83.431 67.62-151.061 151.05-151.061 83.42 0 151.05 67.63 151.05 151.061 0 20.029-3.94 39.14-11.02 56.64-6.521 0-271.858 0-280.061 0-7.089-17.5-11.019-36.61-11.019-56.64z" fill="#d94556"/><path d="m188.95 271.06 37.76 111.18-37.76 37.76-37.77-37.76z" fill="#bce4ff"/><path d="m188.95 120c41.71 0 75.52 33.81 75.52 75.53 0 41.71-33.81 75.52-75.52 75.52s-75.53-33.81-75.53-75.52c0-41.72 33.82-75.53 75.53-75.53z" fill="#ffd5ab"/><path d="m65 80c13.81 0 25 11.19 25 25s-11.19 25-25 25-25-11.19-25-25 11.19-25 25-25z" fill="#3256c1"/><circle cx="420" cy="360" fill="#3256c1" r="30"/><path d="m462.17 242.18c-37.094 37.071-97.191 37.125-134.34 0-37.091-37.09-37.133-97.229 0-134.36 37.094-37.071 97.191-37.126 134.34 0 37.091 37.09 37.133 97.229 0 134.36z" fill="#bce4ff"/><path d="m470 50c5.52 0 10 4.48 10 10s-4.48 10-10 10-10-4.48-10-10 4.48-10 10-10z"/><path d="m470 290c5.52 0 10 4.48 10 10s-4.48 10-10 10-10-4.48-10-10 4.48-10 10-10z"/><path d="m424.47 431.06c4.94 2.471 6.94 8.471 4.471 13.41-2.471 4.94-8.471 6.94-13.41 4.471-4.94-2.471-6.94-8.471-4.471-13.41 2.47-4.941 8.47-6.941 13.41-4.471z"/><path d="m260 70c5.52 0 10 4.48 10 10s-4.48 10-10 10-10-4.48-10-10 4.48-10 10-10z"/><path d="m140 50c5.52 0 10 4.48 10 10s-4.48 10-10 10-10-4.48-10-10 4.48-10 10-10z"/><path d="m70 240c5.52 0 10 4.48 10 10s-4.48 10-10 10-10-4.48-10-10 4.48-10 10-10z"/><path d="m188.95 281.05c-47.162 0-85.53-38.364-85.53-85.52 0-47.161 38.369-85.53 85.53-85.53 47.156 0 85.52 38.369 85.52 85.53 0 47.156-38.364 85.52-85.52 85.52zm0-151.05c-36.133 0-65.53 29.396-65.53 65.53 0 36.128 29.397 65.52 65.53 65.52 36.127 0 65.52-29.392 65.52-65.52 0-36.134-29.392-65.53-65.52-65.53z"/><path d="m188.95 430c-2.559 0-5.117-.976-7.07-2.928l-37.77-37.76c-2.693-2.693-3.624-6.683-2.398-10.289l37.77-111.181c1.378-4.056 5.186-6.783 9.469-6.783 4.283 0 8.091 2.729 9.468 6.784l37.76 111.181c1.225 3.605.295 7.594-2.398 10.287l-37.76 37.76c-1.952 1.952-4.512 2.929-7.071 2.929zm-26.3-50.434 26.299 26.292 26.292-26.291-26.292-77.416z"/><path d="m188.95 281.055c-5.523 0-10-4.473-10-9.995v-.01c0-5.522 4.477-10 10-10s10 4.478 10 10-4.477 10.005-10 10.005z"/><path d="m328.98 488.75h-280.06c-4.073 0-7.739-2.47-9.268-6.245-7.798-19.248-11.752-39.567-11.752-60.395 0-88.81 72.247-161.061 161.05-161.061s161.05 72.251 161.05 161.061c0 20.799-3.953 41.117-11.749 60.39-1.528 3.777-5.195 6.25-9.271 6.25zm-273.153-20h266.243c5.265-15 7.93-30.657 7.93-46.64 0-77.781-63.274-141.061-141.05-141.061s-141.05 63.28-141.05 141.061c0 16.002 2.664 31.661 7.927 46.64z"/><path d="m395 280c-28.034 0-54.399-10.919-74.239-30.747-19.837-19.836-30.761-46.206-30.761-74.253s10.924-54.417 30.759-74.251c19.842-19.83 46.207-30.749 74.241-30.749s54.399 10.919 74.239 30.747c19.837 19.836 30.761 46.206 30.761 74.253s-10.924 54.417-30.759 74.251c-19.842 19.83-46.207 30.749-74.241 30.749zm0-190c-22.694 0-44.039 8.84-60.101 24.893-16.055 16.055-24.899 37.402-24.899 60.107s8.844 44.052 24.901 60.109c16.06 16.051 37.405 24.891 60.099 24.891s44.039-8.84 60.101-24.893c16.055-16.055 24.899-37.402 24.899-60.107s-8.844-44.052-24.901-60.109c-16.06-16.051-37.405-24.891-60.099-24.891z"/><path d="m395 110c-5.522 0-10-4.477-10-10v-20c0-5.523 4.478-10 10-10s10 4.477 10 10v20c0 5.523-4.478 10-10 10z"/><path d="m430 190h-35c-5.522 0-10-4.477-10-10v-40c0-5.523 4.478-10 10-10s10 4.477 10 10v30h25c5.522 0 10 4.477 10 10s-4.478 10-10 10z"/><path d="m395 280c-5.522 0-10-4.478-10-10v-20c0-5.523 4.478-10 10-10s10 4.477 10 10v20c0 5.522-4.478 10-10 10z"/><path d="m448.03 131.97c-2.558 0-5.116-.975-7.068-2.926-3.907-3.904-3.909-10.235-.006-14.142l14.14-14.15c3.904-3.907 10.236-3.911 14.143-.005 3.907 3.904 3.909 10.235.006 14.142l-14.14 14.15c-1.954 1.954-4.514 2.931-7.075 2.931z"/><path d="m327.83 252.18c-2.558 0-5.116-.975-7.068-2.926-3.907-3.904-3.909-10.235-.006-14.142l14.14-14.15c3.903-3.907 10.235-3.911 14.143-.005 3.907 3.904 3.909 10.235.006 14.142l-14.14 14.15c-1.954 1.954-4.514 2.931-7.075 2.931z"/><path d="m490 185h-20c-5.522 0-10-4.477-10-10s4.478-10 10-10h20c5.522 0 10 4.477 10 10s-4.478 10-10 10z"/><path d="m320 185h-20c-5.522 0-10-4.477-10-10s4.478-10 10-10h20c5.522 0 10 4.477 10 10s-4.478 10-10 10z"/><path d="m462.17 252.18c-2.561 0-5.121-.977-7.074-2.932l-14.14-14.15c-3.903-3.907-3.901-10.238.006-14.142 3.906-3.904 10.238-3.902 14.143.005l14.14 14.15c3.903 3.907 3.901 10.238-.006 14.142-1.953 1.952-4.511 2.927-7.069 2.927z"/><path d="m341.97 131.97c-2.561 0-5.121-.977-7.074-2.932l-14.14-14.15c-3.903-3.907-3.901-10.238.006-14.142 3.906-3.904 10.238-3.902 14.143.005l14.14 14.15c3.903 3.907 3.901 10.238-.006 14.142-1.953 1.952-4.512 2.927-7.069 2.927z"/><path d="m65 140c-19.299 0-35-15.701-35-35s15.701-35 35-35 35 15.701 35 35-15.701 35-35 35zm0-50c-8.271 0-15 6.729-15 15s6.729 15 15 15 15-6.729 15-15-6.729-15-15-15z"/><path d="m420 400c-22.056 0-40-17.944-40-40s17.944-40 40-40 40 17.944 40 40-17.944 40-40 40zm0-60c-11.028 0-20 8.972-20 20s8.972 20 20 20 20-8.972 20-20-8.972-20-20-20z"/></g></svg>