<svg enable-background="new 0 0 512 512" height="512" viewBox="0 0 512 512" width="512" xmlns="http://www.w3.org/2000/svg"><g id="_x38_94-Adjust_x2C__User_Interface"><path d="m465 170c13.81 0 25 11.19 25 25s-11.19 25-25 25-25-11.19-25-25 11.19-25 25-25z" fill="#f88f19"/><path d="m80 320c11.05 0 20 8.95 20 20s-8.95 20-20 20-20-8.95-20-20 8.95-20 20-20z" fill="#f88f19"/><path d="m214 390c3.84 7.5 6 16 6 25s-2.16 17.5-6 25c-9.1 17.81-27.62 30-49 30s-39.9-12.19-49-30c-3.84-7.5-6-16-6-25s2.16-17.5 6-25c9.1-17.81 27.62-30 49-30s39.9 12.19 49 30z" fill="#ffd400"/><g fill="#bce4ff"><path d="m452.68 397.32c4.52 4.52 7.32 10.78 7.32 17.68 0 13.81-11.19 25-25 25h-221c3.84-7.5 6-16 6-25s-2.16-17.5-6-25h221c6.9 0 13.16 2.8 17.68 7.32z"/><path d="m75 390h41c-3.84 7.5-6 16-6 25s2.16 17.5 6 25h-41c-6.9 0-13.16-2.8-17.68-7.32s-7.32-10.78-7.32-17.68c0-13.81 11.19-25 25-25z"/><path d="m75 240h221c-3.84 7.5-6 16-6 25s2.16 17.5 6 25h-221c-13.81 0-25-11.19-25-25 0-6.9 2.8-13.16 7.32-17.68s10.78-7.32 17.68-7.32z"/><path d="m435 240c13.81 0 25 11.19 25 25 0 6.9-2.8 13.16-7.32 17.68s-10.78 7.32-17.68 7.32h-41c3.84-7.5 6-16 6-25s-2.16-17.5-6-25z"/></g><path d="m394 290c-9.1 17.81-27.62 30-49 30s-39.9-12.19-49-30c-3.84-7.5-6-16-6-25s2.16-17.5 6-25c9.1-17.81 27.62-30 49-30s39.9 12.19 49 30c3.84 7.5 6 16 6 25s-2.16 17.5-6 25z" fill="#3256c1"/><path d="m452.68 97.32c4.52 4.52 7.32 10.78 7.32 17.68 0 13.81-11.19 25-25 25h-221c3.84-7.5 6-16 6-25s-2.16-17.5-6-25h221c6.9 0 13.16 2.8 17.68 7.32z" fill="#bce4ff"/><path d="m75 90h41c-3.84 7.5-6 16-6 25s2.16 17.5 6 25h-41c-6.9 0-13.16-2.8-17.68-7.32s-7.32-10.78-7.32-17.68c0-13.81 11.19-25 25-25z" fill="#bce4ff"/><path d="m214 90c3.84 7.5 6 16 6 25s-2.16 17.5-6 25c-9.1 17.81-27.62 30-49 30s-39.9-12.19-49-30c-3.84-7.5-6-16-6-25s2.16-17.5 6-25c9.1-17.81 27.62-30 49-30s39.9 12.19 49 30z" fill="#d94556"/><path d="m410 340c5.52 0 10 4.48 10 10s-4.48 10-10 10-10-4.48-10-10 4.48-10 10-10z"/><path d="m380 160c5.52 0 10 4.48 10 10s-4.48 10-10 10-10-4.48-10-10 4.48-10 10-10z"/><path d="m350 50c5.52 0 10 4.48 10 10s-4.48 10-10 10-10-4.48-10-10 4.48-10 10-10z"/><path d="m350 470c5.52 0 10 4.48 10 10s-4.48 10-10 10-10-4.48-10-10 4.48-10 10-10z"/><path d="m260 180c5.52 0 10 4.48 10 10s-4.48 10-10 10-10-4.48-10-10 4.48-10 10-10z"/><path d="m200 310c5.52 0 10 4.48 10 10s-4.48 10-10 10-10-4.48-10-10 4.48-10 10-10z"/><path d="m110 180c5.52 0 10 4.48 10 10s-4.48 10-10 10-10-4.48-10-10 4.48-10 10-10z"/><path d="m100 40c5.52 0 10 4.48 10 10s-4.48 10-10 10-10-4.48-10-10 4.48-10 10-10z"/><path d="m116.02 150h-41.02c-9.352 0-18.142-3.64-24.751-10.249s-10.249-15.399-10.249-24.751c0-19.299 15.701-35 35-35h41c5.523 0 10.01 4.477 10.01 10s-4.467 10-9.99 10h-41.02c-8.271 0-15 6.729-15 15 0 4.01 1.56 7.778 4.391 10.609s6.599 4.391 10.609 4.391h41c5.523 0 10.01 4.477 10.01 10s-4.467 10-9.99 10z"/><path d="m435 150h-221c-5.523 0-10.01-4.477-10.01-10s4.467-10 9.99-10h221.02c8.271 0 15-6.729 15-15 0-4.01-1.56-7.777-4.391-10.609-2.832-2.832-6.599-4.391-10.609-4.391h-221c-5.523 0-10.01-4.477-10.01-10s4.467-10 9.99-10h221.02c9.353 0 18.143 3.64 24.751 10.249 6.609 6.608 10.249 15.398 10.249 24.751 0 19.299-15.701 35-35 35z"/><path d="m165 180c-24.544 0-46.732-13.583-57.905-35.45-4.64-9.064-7.095-19.284-7.095-29.55s2.455-20.486 7.099-29.557c11.169-21.86 33.357-35.443 57.901-35.443s46.732 13.583 57.905 35.45c4.64 9.064 7.095 19.284 7.095 29.55s-2.455 20.486-7.099 29.557c-11.169 21.86-33.357 35.443-57.901 35.443zm0-110c-16.994 0-32.358 9.407-40.095 24.55-3.256 6.36-4.905 13.238-4.905 20.45s1.649 14.09 4.901 20.443c7.741 15.15 23.105 24.557 40.099 24.557s32.358-9.407 40.095-24.55c3.256-6.36 4.905-13.238 4.905-20.45s-1.649-14.09-4.901-20.443c-7.741-15.15-23.105-24.557-40.099-24.557z"/><path d="m435 300h-41c-5.522 0-10.01-4.478-10.01-10s4.468-10 9.99-10h41.02c4.01 0 7.777-1.56 10.607-4.391 2.833-2.832 4.393-6.599 4.393-10.609 0-8.271-6.729-15-15-15h-41c-5.522 0-10.01-4.477-10.01-10s4.468-10 9.99-10h41.02c19.299 0 35 15.701 35 35 0 9.353-3.641 18.144-10.25 24.752-6.606 6.607-15.397 10.248-24.75 10.248z"/><path d="m296.02 300h-221.02c-19.299 0-35-15.701-35-35 0-9.352 3.64-18.142 10.249-24.751s15.399-10.249 24.751-10.249h221c5.522 0 10.01 4.477 10.01 10s-4.468 10-9.99 10h-221.02c-4.01 0-7.778 1.56-10.609 4.391-2.831 2.832-4.391 6.599-4.391 10.609 0 8.271 6.729 15 15 15h221c5.522 0 10.01 4.478 10.01 10s-4.468 10-9.99 10z"/><path d="m345 330c-24.545 0-46.732-13.584-57.905-35.45-4.64-9.064-7.095-19.284-7.095-29.55s2.455-20.486 7.099-29.557c11.169-21.86 33.356-35.443 57.901-35.443s46.732 13.583 57.905 35.45c4.64 9.063 7.095 19.284 7.095 29.55s-2.455 20.486-7.099 29.558c-11.169 21.858-33.356 35.442-57.901 35.442zm0-110c-16.994 0-32.358 9.407-40.095 24.55-3.256 6.36-4.905 13.237-4.905 20.45s1.649 14.091 4.901 20.442c7.741 15.151 23.105 24.558 40.099 24.558s32.358-9.407 40.095-24.55c3.256-6.359 4.905-13.237 4.905-20.45s-1.649-14.09-4.901-20.443c-7.741-15.15-23.105-24.557-40.099-24.557z"/><path d="m116.02 450h-41.02c-9.353 0-18.143-3.64-24.751-10.25-6.609-6.607-10.249-15.397-10.249-24.75 0-19.299 15.701-35 35-35h41c5.523 0 10.01 4.478 10.01 10s-4.467 10-9.99 10h-41.02c-8.271 0-15 6.729-15 15 0 4.01 1.559 7.777 4.391 10.608 2.832 2.832 6.599 4.392 10.609 4.392h41c5.523 0 10.01 4.478 10.01 10s-4.467 10-9.99 10z"/><path d="m435 450h-221c-5.523 0-10.01-4.478-10.01-10s4.467-10 9.99-10h221.02c8.271 0 15-6.729 15-15 0-4.01-1.56-7.777-4.391-10.607-2.832-2.833-6.599-4.393-10.609-4.393h-221c-5.523 0-10.01-4.478-10.01-10s4.467-10 9.99-10h221.02c9.353 0 18.144 3.641 24.752 10.25 6.607 6.606 10.248 15.397 10.248 24.75 0 19.299-15.701 35-35 35z"/><path d="m165 480c-24.544 0-46.732-13.584-57.905-35.45-4.64-9.064-7.095-19.284-7.095-29.55s2.455-20.486 7.099-29.558c11.169-21.858 33.357-35.442 57.901-35.442s46.732 13.584 57.905 35.45c4.64 9.064 7.095 19.284 7.095 29.55s-2.455 20.486-7.099 29.558c-11.169 21.858-33.357 35.442-57.901 35.442zm0-110c-16.994 0-32.357 9.407-40.095 24.55-3.256 6.359-4.905 13.237-4.905 20.45s1.649 14.091 4.901 20.442c7.742 15.151 23.105 24.558 40.099 24.558s32.357-9.407 40.095-24.55c3.256-6.359 4.905-13.237 4.905-20.45s-1.649-14.091-4.901-20.442c-7.742-15.151-23.105-24.558-40.099-24.558z"/><path d="m80 370c-16.542 0-30-13.458-30-30s13.458-30 30-30 30 13.458 30 30-13.458 30-30 30zm0-40c-5.514 0-10 4.486-10 10s4.486 10 10 10 10-4.486 10-10-4.486-10-10-10z"/><path d="m465 230c-19.299 0-35-15.701-35-35s15.701-35 35-35 35 15.701 35 35-15.701 35-35 35zm0-50c-8.271 0-15 6.729-15 15s6.729 15 15 15 15-6.729 15-15-6.729-15-15-15z"/></g></svg>