<svg enable-background="new 0 0 512 512" height="512" viewBox="0 0 512 512" width="512" xmlns="http://www.w3.org/2000/svg"><g id="_x38_95-Interface_x2C__Navigation_x2C__User"><path d="m260 60c-110.46 0-200 89.54-200 200s89.54 200 200 200 200-89.54 200-200-89.54-200-200-200z" fill="#d94556"/><path d="m260 120c77.32 0 140 62.68 140 140s-62.68 140-140 140-140-62.68-140-140 62.68-140 140-140z" fill="#fff"/><path d="m260 236.22c36.92 0 66.84 29.919 66.84 66.839 0 8.87-1.74 17.32-4.88 25.061-13.351 0-110.155 0-123.92 0-3.14-7.74-4.88-16.19-4.88-25.061 0-36.919 29.92-66.839 66.84-66.839.103 0 .103 0 0 0z" fill="#5cbeff"/><path d="m450 440c11.05 0 20 8.95 20 20s-8.95 20-20 20-20-8.95-20-20 8.95-20 20-20z" fill="#f88f19"/><path d="m85 30c13.81 0 25 11.19 25 25s-11.19 25-25 25-25-11.19-25-25 11.19-25 25-25z" fill="#f88f19"/><path d="m260 169.37c18.46 0 33.42 14.97 33.42 33.43 0 18.45-14.96 33.42-33.42 33.42s-33.42-14.97-33.42-33.42c0-18.46 14.96-33.43 33.42-33.43z" fill="#ffd5ab"/><path d="m243.29 277.99 16.71-41.77 16.71 41.77-16.71 16.71z" fill="#bce4ff"/><path d="m470 120c5.52 0 10 4.48 10 10s-4.48 10-10 10-10-4.48-10-10 4.48-10 10-10z"/><path d="m470 380c5.52 0 10 4.48 10 10s-4.48 10-10 10-10-4.48-10-10 4.48-10 10-10z"/><path d="m400 30c5.52 0 10 4.48 10 10s-4.48 10-10 10-10-4.48-10-10 4.48-10 10-10z"/><path d="m110 460c5.52 0 10 4.48 10 10s-4.48 10-10 10-10-4.48-10-10 4.48-10 10-10z"/><path d="m50 130c5.52 0 10 4.48 10 10s-4.48 10-10 10-10-4.48-10-10 4.48-10 10-10z"/><path d="m50 380c5.52 0 10 4.48 10 10s-4.48 10-10 10-10-4.48-10-10 4.48-10 10-10z"/><path d="m260 470c-115.794 0-210-94.206-210-210s94.206-210 210-210 210 94.206 210 210-94.206 210-210 210zm0-400c-104.767 0-190 85.233-190 190s85.233 190 190 190 190-85.233 190-190-85.233-190-190-190z"/><path d="m260 410c-82.71 0-150-67.29-150-150s67.29-150 150-150 150 67.29 150 150-67.29 150-150 150zm0-280c-71.682 0-130 58.318-130 130 0 71.683 58.318 130 130 130 71.683 0 130-58.317 130-130 0-71.682-58.317-130-130-130z"/><path d="m260 246.22c-23.942 0-43.42-19.479-43.42-43.42 0-23.947 19.478-43.43 43.42-43.43 23.941 0 43.42 19.482 43.42 43.43 0 23.942-19.479 43.42-43.42 43.42zm0-66.85c-12.914 0-23.42 10.511-23.42 23.43 0 12.914 10.506 23.42 23.42 23.42s23.42-10.506 23.42-23.42c0-12.919-10.506-23.43-23.42-23.43z"/><path d="m260 304.7c-2.56 0-5.119-.977-7.071-2.929l-16.71-16.71c-2.829-2.829-3.699-7.071-2.213-10.785l16.71-41.771c1.519-3.796 5.196-6.286 9.285-6.286s7.766 2.489 9.284 6.286l16.71 41.771c1.486 3.714.615 7.956-2.213 10.785l-16.71 16.71c-1.954 1.953-4.512 2.929-7.072 2.929zm-4.976-29.118 4.976 4.976 4.976-4.976-4.976-12.438z"/><path d="m321.96 338.12h-123.92c-4.071 0-7.736-2.468-9.267-6.24-3.725-9.182-5.613-18.878-5.613-28.82 0-42.369 34.47-76.839 76.84-76.839 42.369 0 76.84 34.47 76.84 76.839 0 9.94-1.889 19.637-5.613 28.819-1.531 3.772-5.196 6.241-9.267 6.241zm-116.773-20h109.625c1.348-4.885 2.027-9.928 2.027-15.061 0-31.342-25.498-56.839-56.84-56.839s-56.84 25.498-56.84 56.839c.001 5.134.681 10.176 2.028 15.061z"/><path d="m85 90c-19.299 0-35-15.701-35-35s15.701-35 35-35 35 15.701 35 35-15.701 35-35 35zm0-50c-8.271 0-15 6.729-15 15s6.729 15 15 15 15-6.729 15-15-6.729-15-15-15z"/><path d="m450 490c-16.542 0-30-13.458-30-30s13.458-30 30-30 30 13.458 30 30-13.458 30-30 30zm0-40c-5.514 0-10 4.486-10 10s4.486 10 10 10 10-4.486 10-10-4.486-10-10-10z"/></g></svg>