<svg enable-background="new 0 0 512 512" height="512" viewBox="0 0 512 512" width="512" xmlns="http://www.w3.org/2000/svg"><g id="_x38_96-Eye_x2C__Target_x2C__User_x2C__View"><path d="m33.16 260c41.2-83.66 127.29-141.23 226.84-141.23 98.689 0 185.253 56.787 226.84 141.23-41.2 83.66-127.29 141.23-226.84 141.23-98.687 0-185.252-56.785-226.84-141.23z" fill="#3f4751"/><path d="m334.86 213.36c9.56 14.29 15.14 31.48 15.14 49.97 0 49.71-40.29 90-90 90s-90-40.29-90-90c0-49.7 40.29-90 90-90 16.74 0 32.42 4.58 45.84 12.54-3.609 3.62-5.84 8.62-5.84 14.13 0 11.05 8.95 20 20 20 5.9 0 11.19-2.57 14.86-6.64z" fill="#bce4ff"/><path d="m260 303.33c-22.09 0-40-17.91-40-40s17.91-40 40-40 40 17.91 40 40-17.91 40-40 40z" fill="#d0dce7"/><g fill="#f88f19"><path d="m445 50c13.81 0 25 11.19 25 25s-11.19 25-25 25-25-11.19-25-25 11.19-25 25-25z"/><path d="m135 420c8.28 0 15 6.72 15 15s-6.72 15-15 15-15-6.72-15-15 6.72-15 15-15z"/><path d="m70 80c11.05 0 20 8.95 20 20s-8.95 20-20 20-20-8.95-20-20 8.95-20 20-20z"/></g><path d="m250 280c5.52 0 10 4.48 10 10s-4.48 10-10 10-10-4.48-10-10 4.48-10 10-10z" fill="#fff"/><path d="m460 130c5.52 0 10 4.48 10 10s-4.48 10-10 10-10-4.48-10-10 4.48-10 10-10z"/><path d="m450 390c5.52 0 10 4.48 10 10s-4.48 10-10 10-10-4.48-10-10 4.48-10 10-10z"/><path d="m330 50c5.52 0 10 4.48 10 10s-4.48 10-10 10-10-4.48-10-10 4.48-10 10-10z"/><path d="m330 440c5.52 0 10 4.48 10 10s-4.48 10-10 10-10-4.48-10-10 4.48-10 10-10z"/><path d="m150 80c5.52 0 10 4.48 10 10s-4.48 10-10 10-10-4.48-10-10 4.48-10 10-10z"/><path d="m120 220c5.52 0 10 4.48 10 10s-4.48 10-10 10-10-4.48-10-10 4.48-10 10-10z"/><path d="m70 360c5.52 0 10 4.48 10 10s-4.48 10-10 10-10-4.48-10-10 4.48-10 10-10z"/><path d="m260 411.23c-5.523 0-10-4.478-10-10s4.477-10 10-10c91.531 0 173.702-50.148 215.639-131.23-41.617-80.437-123.124-130.586-213.899-131.221-5.522-.039-9.968-4.547-9.93-10.069.039-5.499 4.509-9.93 9.999-9.93h.071c49.635.347 97.881 14.616 139.521 41.265 40.536 25.942 73.183 62.436 94.409 105.537 1.372 2.785 1.372 6.051 0 8.836-21.363 43.381-54.265 80.038-95.147 106.011-42.017 26.692-90.657 40.801-140.663 40.801z"/><path d="m258.192 411.22c-.024 0-.048 0-.071 0-49.636-.347-97.881-14.615-139.522-41.264-40.537-25.942-73.183-62.437-94.41-105.538-1.372-2.785-1.372-6.051 0-8.836 21.363-43.38 54.265-80.038 95.147-106.01 42.018-26.693 90.658-40.802 140.664-40.802 5.522 0 10 4.477 10 10s-4.478 10-10 10c-91.532 0-173.703 50.148-215.639 131.23 41.617 80.438 123.124 130.586 213.898 131.22 5.523.039 9.969 4.547 9.931 10.069-.039 5.499-4.508 9.931-9.998 9.931z"/><path d="m70 130c-16.542 0-30-13.458-30-30s13.458-30 30-30 30 13.458 30 30-13.458 30-30 30zm0-40c-5.514 0-10 4.486-10 10s4.486 10 10 10 10-4.486 10-10-4.486-10-10-10z"/><path d="m135 460c-13.785 0-25-11.215-25-25s11.215-25 25-25 25 11.215 25 25-11.215 25-25 25zm0-30c-2.757 0-5 2.243-5 5s2.243 5 5 5 5-2.243 5-5-2.243-5-5-5z"/><path d="m445 110c-19.299 0-35-15.701-35-35s15.701-35 35-35 35 15.701 35 35-15.701 35-35 35zm0-50c-8.271 0-15 6.729-15 15s6.729 15 15 15 15-6.729 15-15-6.729-15-15-15z"/><path d="m260 313.33c-27.57 0-50-22.43-50-50s22.43-50 50-50 50 22.43 50 50-22.43 50-50 50zm0-80c-16.542 0-30 13.458-30 30s13.458 30 30 30 30-13.458 30-30-13.458-30-30-30z"/><path d="m250 310c-11.028 0-20-8.972-20-20s8.972-20 20-20 20 8.972 20 20-8.972 20-20 20z"/><path d="m260 363.33c-55.14 0-100-44.859-100-100 0-55.14 44.86-100 100-100 17.952 0 35.567 4.82 50.941 13.939 2.654 1.574 4.433 4.286 4.819 7.347.387 3.062-.661 6.13-2.839 8.315-1.885 1.89-2.922 4.4-2.922 7.069 0 5.514 4.486 10 10 10 2.854 0 5.493-1.185 7.434-3.336 2.065-2.291 5.084-3.5 8.146-3.278 3.076.222 5.877 1.851 7.592 4.414 11.01 16.456 16.829 35.658 16.829 55.53 0 55.141-44.859 100-100 100zm0-180c-44.112 0-80 35.888-80 80s35.888 80 80 80 80-35.888 80-80c0-12.5-2.876-24.665-8.381-35.688-3.646 1.539-7.595 2.358-11.619 2.358-16.542 0-30-13.458-30-30 0-3.502.596-6.914 1.74-10.117-9.967-4.307-20.773-6.553-31.74-6.553z"/><path d="m260 411.23c-.659 0-1.33-.001-1.988-.013-39.698-.487-76.88-15.908-104.64-43.423-27.969-27.72-43.372-64.819-43.372-104.464 0-5.522 4.477-10 10-10s10 4.478 10 10c0 70.83 56.362 127.007 128.313 127.891.597.011 1.144.006 1.687.01 5.522 0 10 4.478 10 10s-4.478 9.999-10 9.999z"/><path d="m400 273.33c-5.522 0-10-4.478-10-10 0-71.988-58.767-133.605-128.326-134.551-.574-.009-1.137-.01-1.674-.009-5.523 0-10-4.477-10-10s4.477-10 10-10c.653 0 1.318 0 1.973.011 39.451.536 76.709 17.236 104.881 47.022 27.823 29.417 43.146 67.604 43.146 107.527 0 5.523-4.478 10-10 10z"/></g></svg>