<svg enable-background="new 0 0 512 512" height="512" viewBox="0 0 512 512" width="512" xmlns="http://www.w3.org/2000/svg"><g id="_x38_97-Online_x2C__Protect_x2C__Shield"><path d="m449.94 231.86-9.94-106.86c-108.43-2.14-180-90-180-90s-71.57 87.86-180 90l-9.94 106.86c-6.24 67.03 23.37 132.371 77.87 171.89l112.07 81.25 112.07-81.25c54.5-39.52 84.1-104.86 77.87-171.89z" fill="#d94556"/><g fill="#ffd400"><path d="m455 50c8.28 0 15 6.72 15 15s-6.72 15-15 15-15-6.72-15-15 6.72-15 15-15z"/><path d="m455 400c8.28 0 15 6.72 15 15s-6.72 15-15 15-15-6.72-15-15 6.72-15 15-15z"/><path d="m80 420c11.05 0 20 8.95 20 20s-8.95 20-20 20-20-8.95-20-20 8.95-20 20-20z"/><path d="m100 40c11.05 0 20 8.95 20 20s-8.95 20-20 20-20-8.95-20-20 8.95-20 20-20z"/></g><path d="m260 425-82.19-59.59c-39.96-28.97-61.67-76.891-57.1-126.04l7.29-78.37c79.51-1.57 132-66 132-66s52.49 64.43 132 66l7.29 78.37c4.57 49.149-17.14 97.07-57.1 126.04-3.331 2.415 14.629-10.606-82.19 59.59z" fill="#d0dce7"/><path d="m390 50c5.52 0 10 4.48 10 10s-4.48 10-10 10-10-4.48-10-10 4.48-10 10-10z"/><path d="m390 440c5.52 0 10 4.48 10 10s-4.48 10-10 10-10-4.48-10-10 4.48-10 10-10z"/><path d="m170 30c5.52 0 10 4.48 10 10s-4.48 10-10 10-10-4.48-10-10 4.48-10 10-10z"/><path d="m140 450c5.52 0 10 4.48 10 10s-4.48 10-10 10-10-4.48-10-10 4.48-10 10-10z"/><path d="m60 350c5.52 0 10 4.48 10 10s-4.48 10-10 10-10-4.48-10-10 4.48-10 10-10z"/><path d="m40 120c5.52 0 10 4.48 10 10s-4.48 10-10 10-10-4.48-10-10 4.48-10 10-10z"/><path d="m259.992 495.001c-2.035 0-4.088-.619-5.862-1.905l-112.07-81.25c-28.146-20.409-50.606-47.934-64.952-79.598-14.348-31.668-20.228-66.702-17.006-101.315l9.94-106.859c.471-5.066 4.672-8.971 9.76-9.072 53.241-1.051 97.139-24.301 124.59-43.62 30.124-21.201 47.687-42.493 47.86-42.705 3.494-4.273 9.793-4.909 14.067-1.42 4.275 3.49 4.919 9.78 1.433 14.059-.766.94-19.126 23.287-51.319 46.047-28.299 20.008-72.813 43.879-127.287 47.269l-9.13 98.155c-5.883 63.193 22.389 125.601 73.784 162.868l112.069 81.25c4.471 3.241 5.468 9.494 2.226 13.966-1.955 2.696-5.007 4.13-8.103 4.13z"/><path d="m260.006 495c-2.837.001-5.644-1.201-7.613-3.51-1.909-2.236-2.667-5.088-2.305-7.812.121-2.533.259-15.107.273-58.941.031-57.773-.186-141.425-.28-174.709-.04-18.376-.08-29.991-.08-29.994-.019-5.522 4.443-10.015 9.966-10.034h.035c5.507 0 9.979 4.454 9.999 9.966 0 0 .04 11.625.08 30.012.095 33.288.312 116.965.28 174.767-.006 17.385-.029 30.662-.074 40.445l95.915-69.536c51.384-37.261 79.656-99.668 73.782-162.869l-9.131-98.154c-54.473-3.39-98.987-27.261-127.286-47.269-32.193-22.76-50.554-45.107-51.32-46.047-3.488-4.282-2.844-10.581 1.438-14.069 4.283-3.489 10.581-2.844 14.069 1.437.168.205 17.73 21.497 47.854 42.698 27.451 19.319 71.349 42.569 124.59 43.62 5.088.101 9.288 4.005 9.76 9.072l9.94 106.86c3.217 34.615-2.665 69.649-17.01 101.314s-36.804 59.189-64.947 79.598l-112.071 81.25c-1.767 1.283-3.824 1.905-5.864 1.905z"/><path d="m259.992 435.001c-2.035 0-4.089-.619-5.862-1.905l-82.19-59.59c-42.615-30.895-66.061-82.647-61.188-135.062l7.29-78.371c.471-5.066 4.672-8.971 9.76-9.072 73.745-1.456 123.955-61.72 124.453-62.329 3.497-4.269 9.796-4.902 14.066-1.412 4.273 3.491 4.915 9.777 1.431 14.055-2.181 2.677-52.51 63.375-130.6 69.257l-6.486 69.724c-4.222 45.412 16.091 90.25 53.013 117.017l82.19 59.591c4.471 3.241 5.468 9.494 2.226 13.966-1.955 2.697-5.007 4.131-8.103 4.131z"/><path d="m260.009 435.001c-3.106 0-6.166-1.441-8.121-4.153-3.23-4.48-2.216-10.73 2.264-13.96l.36-.26 81.808-59.313c36.923-26.768 57.235-71.606 53.013-117.019l-6.485-69.723c-78.091-5.882-128.42-66.58-130.601-69.257-3.488-4.282-2.845-10.581 1.437-14.069 4.279-3.485 10.57-2.846 14.06 1.426.499.608 50.708 60.873 124.453 62.329 5.088.101 9.288 4.005 9.76 9.072l7.29 78.37c4.874 52.415-18.571 104.167-61.188 135.063l-82.212 59.605c-1.768 1.275-3.813 1.889-5.838 1.889z"/><path d="m100 90c-16.542 0-30-13.458-30-30s13.458-30 30-30 30 13.458 30 30-13.458 30-30 30zm0-40c-5.514 0-10 4.486-10 10s4.486 10 10 10 10-4.486 10-10-4.486-10-10-10z"/><path d="m80 470c-16.542 0-30-13.458-30-30s13.458-30 30-30 30 13.458 30 30-13.458 30-30 30zm0-40c-5.514 0-10 4.486-10 10s4.486 10 10 10 10-4.486 10-10-4.486-10-10-10z"/><path d="m455 90c-13.785 0-25-11.215-25-25s11.215-25 25-25 25 11.215 25 25-11.215 25-25 25zm0-30c-2.757 0-5 2.243-5 5s2.243 5 5 5 5-2.243 5-5-2.243-5-5-5z"/><path d="m455 440c-13.785 0-25-11.215-25-25s11.215-25 25-25 25 11.215 25 25-11.215 25-25 25zm0-30c-2.757 0-5 2.243-5 5s2.243 5 5 5 5-2.243 5-5-2.243-5-5-5z"/><path d="m360 230h-200c-5.523 0-10-4.477-10-10s4.477-10 10-10h200c5.522 0 10 4.477 10 10s-4.478 10-10 10z"/><path d="m360 260h-200c-5.523 0-10-4.477-10-10s4.477-10 10-10h200c5.522 0 10 4.477 10 10s-4.478 10-10 10z"/><path d="m320 200h-120c-5.523 0-10-4.477-10-10s4.477-10 10-10h120c5.522 0 10 4.477 10 10s-4.478 10-10 10z"/></g></svg>