<svg enable-background="new 0 0 512 512" height="512" viewBox="0 0 512 512" width="512" xmlns="http://www.w3.org/2000/svg"><g id="_x38_98-Location_x2C__Map_x2C__Sticky"><path d="m330 470h-150-70l50-130h34.07c22.45 20.57 45.87 42.51 65.93 70 20.06-27.49 43.48-49.43 65.93-70h34.07l50 130z" fill="#d0dce7"/><path d="m70 310c11.05 0 20 8.95 20 20s-8.95 20-20 20-20-8.95-20-20 8.95-20 20-20z" fill="#5cbeff"/><circle cx="450" cy="300" fill="#5cbeff" r="30"/><path d="m260 410c-61.305-84.012-154.13-116.252-154.13-215.87 0-85.13 69-154.13 154.13-154.13s154.13 69 154.13 154.13c0 99.627-92.802 131.824-154.13 215.87zm95.66-215.87c0-52.69-42.97-95.66-95.66-95.66s-95.66 42.97-95.66 95.66 42.97 95.66 95.66 95.66 95.66-42.97 95.66-95.66z" fill="#d94556"/><path d="m480 150c5.52 0 10 4.48 10 10 0 2.76-1.12 5.26-2.93 7.07-1.811 1.81-4.311 2.93-7.07 2.93s-5.26-1.12-7.07-2.93-2.93-4.31-2.93-7.07 1.12-5.26 2.93-7.07 4.31-2.93 7.07-2.93z"/><path d="m420 370c5.52 0 10 4.48 10 10 0 2.76-1.12 5.26-2.93 7.07-1.811 1.81-4.311 2.93-7.07 2.93s-5.26-1.12-7.07-2.93c-1.81-1.811-2.93-4.311-2.93-7.07s1.12-5.26 2.93-7.07 4.31-2.93 7.07-2.93z"/><path d="m410 50c5.52 0 10 4.48 10 10 0 2.76-1.12 5.26-2.93 7.07s-4.31 2.93-7.07 2.93-5.26-1.12-7.07-2.93-2.93-4.31-2.93-7.07 1.12-5.26 2.93-7.07 4.31-2.93 7.07-2.93z"/><path d="m120 40c5.52 0 10 4.48 10 10 0 2.76-1.12 5.26-2.93 7.07s-4.31 2.93-7.07 2.93-5.26-1.12-7.07-2.93-2.93-4.31-2.93-7.07 1.12-5.26 2.93-7.07 4.31-2.93 7.07-2.93z"/><path d="m90 390c5.52 0 10 4.48 10 10 0 2.76-1.12 5.26-2.93 7.07s-4.31 2.93-7.07 2.93-5.26-1.12-7.07-2.93-2.93-4.31-2.93-7.07 1.12-5.26 2.93-7.07 4.31-2.93 7.07-2.93z"/><path d="m60 170c5.52 0 10 4.48 10 10 0 2.76-1.12 5.26-2.93 7.07s-4.31 2.93-7.07 2.93-5.26-1.12-7.07-2.93-2.93-4.31-2.93-7.07 1.12-5.26 2.93-7.07 4.31-2.93 7.07-2.93z"/><path d="m260 299.79c-58.261 0-105.66-47.399-105.66-105.66s47.399-105.66 105.66-105.66 105.66 47.399 105.66 105.66-47.399 105.66-105.66 105.66zm0-191.32c-47.233 0-85.66 38.427-85.66 85.66s38.427 85.66 85.66 85.66 85.66-38.427 85.66-85.66-38.427-85.66-85.66-85.66z"/><path d="m315.66 204.13c-5.522 0-10-4.477-10-10 0-25.177-20.483-45.66-45.66-45.66-5.523 0-10-4.477-10-10s4.477-10 10-10c36.205 0 65.66 29.455 65.66 65.66 0 5.523-4.477 10-10 10z"/><path d="m410 480h-300c-3.294 0-6.378-1.623-8.243-4.339s-2.273-6.176-1.09-9.251l50-130c1.485-3.862 5.196-6.41 9.333-6.41h34.07c5.523 0 10.005 4.478 10.005 10s-4.472 10-9.995 10h-27.212l-42.308 110h270.879l-42.308-110h-27.201c-5.522 0-10.005-4.478-10.005-10s4.473-10 9.995-10h34.08c4.138 0 7.848 2.548 9.333 6.41l50 130c1.184 3.075.775 6.535-1.09 9.251s-4.948 4.339-8.243 4.339z"/><path d="m280 420h-40c-5.523 0-10-4.478-10-10s4.477-10 10-10h40c5.522 0 10 4.478 10 10s-4.478 10-10 10z"/><path d="m260 420c-3.194 0-6.195-1.525-8.078-4.105-18.96-25.983-41.38-47.239-64.607-68.521l-3.944-3.611c-44.998-41.189-87.5-80.095-87.5-149.632-.001-90.503 73.628-164.131 164.129-164.131 90.502 0 164.13 73.628 164.13 164.13 0 69.536-42.502 108.441-87.5 149.631l-3.943 3.611c-24.118 22.1-45.627 42.509-64.608 68.522-1.884 2.581-4.886 4.106-8.079 4.106zm0-370c-79.474 0-144.13 64.656-144.13 144.13 0 60.73 37.539 95.092 81.004 134.879l3.953 3.619c20.841 19.096 41.08 38.208 59.173 60.896 18.09-22.684 38.331-41.799 59.174-60.897l3.952-3.619c43.466-39.786 81.004-74.148 81.004-134.878 0-79.474-64.656-144.13-144.13-144.13z"/><path d="m70 360c-16.542 0-30-13.458-30-30s13.458-30 30-30 30 13.458 30 30-13.458 30-30 30zm0-40c-5.514 0-10 4.486-10 10s4.486 10 10 10 10-4.486 10-10-4.486-10-10-10z"/><path d="m450 340c-22.056 0-40-17.944-40-40s17.944-40 40-40 40 17.944 40 40-17.944 40-40 40zm0-60c-11.028 0-20 8.972-20 20s8.972 20 20 20 20-8.972 20-20-8.972-20-20-20z"/><path d="m360 440h-50c-5.522 0-10-4.478-10-10s4.478-10 10-10h50c5.522 0 10 4.478 10 10s-4.478 10-10 10z"/><path d="m210 440h-50c-5.523 0-10-4.478-10-10s4.477-10 10-10h50c5.523 0 10 4.478 10 10s-4.477 10-10 10z"/><path d="m180 480c-5.523 0-10-4.478-10-10v-80c0-5.522 4.477-10 10-10s10 4.478 10 10v80c0 5.522-4.477 10-10 10z"/><path d="m330 480c-5.522 0-10-4.478-10-10v-50c0-5.522 4.478-10 10-10s10 4.478 10 10v50c0 5.522-4.478 10-10 10z"/><path d="m370 400h-30c-5.522 0-10-4.478-10-10s4.478-10 10-10h30c5.522 0 10 4.478 10 10s-4.478 10-10 10z"/></g></svg>