<svg enable-background="new 0 0 512 512" height="512" viewBox="0 0 512 512" width="512" xmlns="http://www.w3.org/2000/svg"><g id="_x38_99-Idea_x2C__Light_Bulb_x2C__Tips"><path d="m85 320c13.81 0 25 11.19 25 25s-11.19 25-25 25-25-11.19-25-25 11.19-25 25-25z" fill="#d94556"/><path d="m450 360c11.05 0 20 8.95 20 20s-8.95 20-20 20-20-8.95-20-20 8.95-20 20-20z" fill="#d94556"/><path d="m310 400c8.28 0 15 6.72 15 15 0 8.266-6.721 15-15 15-23.948 0-56.038 0-80 0-8.28 0-15-6.72-15-15 0-8.267 6.72-15 15-15z" fill="#33383f"/><path d="m295 430v5c0 13.81-11.19 25-25 25s-25-11.19-25-25v-5z" fill="#3f4751"/><path d="m330 370c8.28 0 15 6.72 15 15 0 8.266-6.721 15-15 15-24.401 0-91.556 0-120 0-8.28 0-15-6.72-15-15 0-8.267 6.72-15 15-15z" fill="#3f4751"/><path d="m215.83 370v-.99c0-24.22-11.18-46.95-29.97-62.24-30.02-24.449-49.19-61.7-49.19-103.439 0-73.97 60.24-133.87 134.34-133.33 72.931.54 132.3 60.35 132.32 133.29.02 41.89-19.29 79.27-49.49 103.72-18.609 15.061-29.67 37.521-29.67 61.46v1.529c-29.46 0-91.145 0-108.34 0z" fill="#ffec6c"/><path d="m480 150c5.52 0 10 4.48 10 10 0 2.76-1.12 5.26-2.93 7.07-1.811 1.81-4.311 2.93-7.07 2.93s-5.26-1.12-7.07-2.93-2.93-4.31-2.93-7.07 1.12-5.26 2.93-7.07 4.31-2.93 7.07-2.93z"/><path d="m470 300c5.52 0 10 4.48 10 10 0 2.76-1.12 5.26-2.93 7.07-1.811 1.81-4.311 2.93-7.07 2.93s-5.26-1.12-7.07-2.93c-1.81-1.811-2.93-4.311-2.93-7.07s1.12-5.26 2.93-7.07 4.31-2.93 7.07-2.93z"/><path d="m420 60c5.52 0 10 4.48 10 10 0 2.76-1.12 5.26-2.93 7.07s-4.31 2.93-7.07 2.93-5.26-1.12-7.07-2.93-2.93-4.31-2.93-7.07 1.12-5.26 2.93-7.07 4.31-2.93 7.07-2.93z"/><path d="m400 450c5.52 0 10 4.48 10 10 0 2.76-1.12 5.26-2.93 7.07-1.811 1.81-4.311 2.93-7.07 2.93s-5.26-1.12-7.07-2.93c-1.81-1.811-2.93-4.311-2.93-7.07s1.12-5.26 2.93-7.07 4.31-2.93 7.07-2.93z"/><path d="m140 460c5.52 0 10 4.48 10 10 0 2.76-1.12 5.26-2.93 7.07s-4.31 2.93-7.07 2.93-5.26-1.12-7.07-2.93c-1.81-1.811-2.93-4.311-2.93-7.07s1.12-5.26 2.93-7.07 4.31-2.93 7.07-2.93z"/><path d="m120 60c5.52 0 10 4.48 10 10 0 2.76-1.12 5.26-2.93 7.07s-4.31 2.93-7.07 2.93-5.26-1.12-7.07-2.93-2.93-4.31-2.93-7.07 1.12-5.26 2.93-7.07 4.31-2.93 7.07-2.93z"/><path d="m70 260c5.52 0 10 4.48 10 10 0 2.76-1.12 5.26-2.93 7.07s-4.31 2.93-7.07 2.93-5.26-1.12-7.07-2.93-2.93-4.31-2.93-7.07 1.12-5.26 2.93-7.07 4.31-2.93 7.07-2.93z"/><path d="m50 110c5.52 0 10 4.48 10 10 0 2.76-1.12 5.26-2.93 7.07s-4.31 2.93-7.07 2.93-5.26-1.12-7.07-2.93-2.93-4.31-2.93-7.07 1.12-5.26 2.93-7.07 4.31-2.93 7.07-2.93z"/><path d="m324.17 380c-5.522 0-10-4.478-10-10v-1.53c0-26.831 12.166-52.065 33.379-69.233 29.111-23.568 45.799-58.539 45.781-95.941-.018-67.487-54.925-122.796-122.394-123.296-.308-.002-.619-.003-.926-.003-32.788 0-63.613 12.694-86.896 35.809-23.501 23.33-36.443 54.414-36.443 87.525 0 37.257 16.586 72.133 45.505 95.686 21.387 17.403 33.655 42.916 33.655 69.994v.989c0 5.522-4.477 10-10 10s-10-4.478-10-10v-.99c0-21.034-9.58-40.893-26.282-54.483-33.606-27.37-52.878-67.898-52.878-111.196 0-38.481 15.041-74.605 42.353-101.719 27.058-26.861 62.883-41.615 100.983-41.615.359 0 .717.001 1.077.004 78.414.581 142.225 64.859 142.247 143.287.021 43.468-19.369 84.107-53.198 111.495-16.5 13.354-25.962 32.921-25.962 53.688v1.529c-.001 5.522-4.479 10-10.001 10z"/><path d="m330 410h-20c-5.522 0-10-4.478-10-10s4.478-10 10-10h20c1.33 0 2.578-.518 3.515-1.457.967-.965 1.485-2.213 1.485-3.543 0-2.757-2.243-5-5-5h-120c-1.331 0-2.579.518-3.515 1.457-.571.569-1.485 1.748-1.485 3.543 0 2.757 2.243 5 5 5h20c5.523 0 10 4.478 10 10s-4.477 10-10 10h-20c-13.785 0-25-11.215-25-25 0-6.687 2.607-12.966 7.341-17.684 4.691-4.709 10.972-7.316 17.659-7.316h120c13.785 0 25 11.215 25 25 0 6.688-2.607 12.968-7.344 17.685-4.688 4.708-10.968 7.315-17.656 7.315z"/><path d="m310 440h-15c-5.522 0-10-4.478-10-10s4.478-10 10-10h15c1.33 0 2.578-.518 3.515-1.457.967-.965 1.485-2.213 1.485-3.543 0-2.757-2.243-5-5-5h-80c-1.331 0-2.579.518-3.515 1.457-.571.569-1.485 1.748-1.485 3.543 0 2.757 2.243 5 5 5h15c5.523 0 10 4.478 10 10s-4.477 10-10 10h-15c-13.785 0-25-11.215-25-25 0-6.687 2.607-12.966 7.342-17.684 4.69-4.708 10.971-7.316 17.658-7.316h80c13.785 0 25 11.215 25 25 0 6.688-2.608 12.968-7.344 17.685-4.688 4.707-10.968 7.315-17.656 7.315z"/><path d="m270 470c-19.299 0-35-15.701-35-35v-5c0-5.522 4.477-10 10-10h50c5.522 0 10 4.478 10 10v5c0 19.299-15.701 35-35 35zm-14.143-30c2.063 5.82 7.625 10 14.143 10s12.08-4.18 14.144-10z"/><path d="m450 410c-16.542 0-30-13.458-30-30s13.458-30 30-30 30 13.458 30 30-13.458 30-30 30zm0-40c-5.514 0-10 4.486-10 10s4.486 10 10 10 10-4.486 10-10-4.486-10-10-10z"/><path d="m85 380c-19.299 0-35-15.701-35-35s15.701-35 35-35 35 15.701 35 35-15.701 35-35 35zm0-50c-8.271 0-15 6.729-15 15s6.729 15 15 15 15-6.729 15-15-6.729-15-15-15z"/><path d="m270 380c-5.522 0-10-4.478-10-10v-140c0-5.523 4.478-10 10-10s10 4.477 10 10v140c0 5.522-4.478 10-10 10z"/><path d="m270 240c-2.111 0-4.223-.667-6-2l-40-30c-4.418-3.313-5.313-9.582-2-14 3.313-4.417 9.582-5.313 14-2l34 25.5 34-25.5c4.419-3.314 10.687-2.418 14 2s2.418 10.687-2 14l-40 30c-1.777 1.333-3.889 2-6 2z"/><path d="m280 260h-20c-5.523 0-10-4.477-10-10s4.477-10 10-10h20c5.522 0 10 4.477 10 10s-4.478 10-10 10z"/><path d="m280 290h-20c-5.523 0-10-4.478-10-10s4.477-10 10-10h20c5.522 0 10 4.478 10 10s-4.478 10-10 10z"/></g></svg>