<svg enable-background="new 0 0 512 512" height="512" viewBox="0 0 512 512" width="512" xmlns="http://www.w3.org/2000/svg"><g id="_x39_00-Paper_x2C__Paper_Plane_x2C__Plane"><g fill="#5cbeff"><path d="m110 90c11.05 0 20 8.95 20 20s-8.95 20-20 20-20-8.95-20-20 8.95-20 20-20z"/><path d="m460 250c11.05 0 20 8.95 20 20s-8.95 20-20 20-20-8.95-20-20 8.95-20 20-20z"/><circle cx="390" cy="450" r="30"/></g><path d="m280 315.55v.01l-55 64.44v-81.67z" fill="#a0b5c5"/><path d="m400 41.67-175 256.66v81.67l-58.33-93.33z" fill="#a0b5c5"/><path d="m400 41.67-10 308.33c-.693-.217-164.642-51.558-165-51.67z" fill="#d0dce7"/><path d="m400 41.67-233.33 245-116.67-35z" fill="#d0dce7"/><path d="m460 360c5.52 0 10 4.48 10 10s-4.48 10-10 10-10-4.48-10-10 4.48-10 10-10z"/><path d="m440 150c5.52 0 10 4.48 10 10s-4.48 10-10 10-10-4.48-10-10 4.48-10 10-10z"/><path d="m280 360c5.52 0 10 4.48 10 10s-4.48 10-10 10-10-4.48-10-10 4.48-10 10-10z"/><path d="m230 40c5.52 0 10 4.48 10 10s-4.48 10-10 10-10-4.48-10-10 4.48-10 10-10z"/><path d="m80 330c5.52 0 10 4.48 10 10s-4.48 10-10 10-10-4.48-10-10 4.48-10 10-10z"/><path d="m50 150c5.52 0 10 4.48 10 10s-4.48 10-10 10-10-4.48-10-10 4.48-10 10-10z"/><path d="m166.669 296.67c-.959 0-1.926-.138-2.873-.422l-116.67-35c-3.793-1.138-6.558-4.407-7.049-8.336-.492-3.93 1.381-7.779 4.777-9.816l350-210c4.288-2.575 9.823-1.583 12.951 2.325 3.127 3.906 2.886 9.523-.565 13.146l-233.33 245c-1.914 2.011-4.545 3.103-7.241 3.103zm-92.111-48.073 89.104 26.73 178.202-187.114z"/><path d="m389.999 360c-1.002 0-2.009-.15-2.987-.457l-165-51.67c-3.023-.946-5.418-3.269-6.458-6.261-1.04-2.991-.601-6.299 1.184-8.916l175-256.66c2.506-3.675 7.137-5.253 11.364-3.874 4.228 1.38 7.036 5.386 6.893 9.831l-10 308.33c-.102 3.124-1.657 6.021-4.206 7.829-1.711 1.217-3.739 1.848-5.79 1.848zm-149.137-67.183 139.57 43.707 8.459-260.81z"/><path d="m225 390.001c-3.384 0-6.619-1.724-8.48-4.701l-58.33-93.33c-2.927-4.684-1.503-10.853 3.18-13.78 4.683-2.926 10.853-1.503 13.78 3.181l39.85 63.761v-46.802c0-5.522 4.477-10 10-10s10 4.478 10 10v81.67c0 4.461-2.955 8.383-7.243 9.612-.914.262-1.841.389-2.757.389z"/><path d="m224.995 390c-2.296 0-4.604-.786-6.487-2.394-4.201-3.586-4.7-9.897-1.115-14.099l55-64.44c3.586-4.201 9.897-4.7 14.099-1.114 4.2 3.586 4.699 9.897 1.114 14.099l-55 64.44c-1.978 2.318-4.786 3.508-7.611 3.508z"/><path d="m209.991 490.001c-1.811 0-3.643-.491-5.291-1.521-4.684-2.928-6.107-9.097-3.18-13.78l50-80c2.927-4.682 9.095-6.105 13.78-3.181 4.684 2.928 6.107 9.097 3.181 13.78l-50 80c-1.898 3.036-5.157 4.702-8.49 4.702z"/><path d="m279.99 470.001c-1.81 0-3.642-.491-5.29-1.521-4.684-2.927-6.107-9.096-3.18-13.779l37.5-60c2.926-4.682 9.095-6.107 13.779-3.18s6.107 9.096 3.18 13.779l-37.5 60c-1.896 3.035-5.155 4.701-8.489 4.701z"/><path d="m149.991 490.001c-1.811 0-3.643-.491-5.291-1.521-4.684-2.927-6.107-9.096-3.18-13.779l37.5-60c2.927-4.684 9.097-6.107 13.78-3.18 4.684 2.927 6.107 9.096 3.18 13.779l-37.5 60c-1.897 3.035-5.156 4.701-8.489 4.701z"/><path d="m79.991 490.001c-1.811 0-3.643-.491-5.291-1.521-4.684-2.928-6.107-9.097-3.18-13.78l81.25-130c2.927-4.685 9.096-6.105 13.78-3.181 4.684 2.928 6.107 9.097 3.18 13.78l-81.25 130c-1.897 3.036-5.156 4.702-8.489 4.702z"/><path d="m110 140c-16.542 0-30-13.458-30-30s13.458-30 30-30 30 13.458 30 30-13.458 30-30 30zm0-40c-5.514 0-10 4.486-10 10s4.486 10 10 10 10-4.486 10-10-4.486-10-10-10z"/><path d="m460 300c-16.542 0-30-13.458-30-30s13.458-30 30-30 30 13.458 30 30-13.458 30-30 30zm0-40c-5.514 0-10 4.486-10 10s4.486 10 10 10 10-4.486 10-10-4.486-10-10-10z"/><path d="m390 490c-22.056 0-40-17.944-40-40s17.944-40 40-40 40 17.944 40 40-17.944 40-40 40zm0-60c-11.028 0-20 8.972-20 20s8.972 20 20 20 20-8.972 20-20-8.972-20-20-20z"/></g></svg>