<svg enable-background="new 0 0 512 512" height="512" viewBox="0 0 512 512" width="512" xmlns="http://www.w3.org/2000/svg"><g id="_x31_551_x2C__Big_Data_And_Science_Concept_x2C__Data_Analytics_x2C__Data_Filtering_x2C__Funnel_x2C__Raw_Information"><g><path id="XMLID_75837_" d="m246 386c-44.33 37.67-120-10-120-10v110h260v-120s-95.67-17.67-140 20z" fill="#80af52"/><path id="XMLID_75838_" d="m386 246v120s-95.67-17.67-140 20-120-10-120-10v-130z" fill="#d8f2f1"/><path id="XMLID_75840_" d="m406 231.67c0 7.91-6.42 14.33-14.33 14.33h-5.67-260-5.67c-7.91 0-14.33-6.42-14.33-14.33v-21.34c0-7.91 6.42-14.33 14.33-14.33h271.34c7.91 0 14.33 6.42 14.33 14.33z" fill="#b2dbd8"/><path id="XMLID_75841_" d="m306 416c11.05 0 20 8.95 20 20s-8.95 20-20 20-20-8.95-20-20 8.95-20 20-20z" fill="#536949"/><path id="XMLID_75842_" d="m196 296c11.05 0 20 8.95 20 20s-8.95 20-20 20-20-8.95-20-20 8.95-20 20-20z" fill="#536949"/><path id="XMLID_75843_" d="m446 126h20v20h-20z"/><path id="XMLID_75844_" d="m426 146h20v20h-20z"/><path id="XMLID_75845_" d="m426 106h20v20h-20z"/><path id="XMLID_75846_" d="m406 126h20v20h-20z"/><path id="XMLID_75847_" d="m106 96h20v20h-20z"/><path id="XMLID_75848_" d="m86 116h20v20h-20z"/><path id="XMLID_75849_" d="m86 76h20v20h-20z"/><path id="XMLID_75850_" d="m66 96h20v20h-20z"/><path id="XMLID_75851_" d="m386 496c-5.522 0-10-4.478-10-10v-240c0-5.523 4.478-10 10-10s10 4.477 10 10v240c0 5.522-4.478 10-10 10z"/><path id="XMLID_75852_" d="m126 496c-5.523 0-10-4.478-10-10v-240c0-5.523 4.477-10 10-10s10 4.477 10 10v240c0 5.522-4.477 10-10 10z"/><path id="XMLID_75853_" d="m391.67 256h-271.34c-13.415 0-24.33-10.915-24.33-24.33v-21.34c0-13.416 10.915-24.33 24.33-24.33h271.34c13.416 0 24.33 10.915 24.33 24.33v21.34c0 13.415-10.914 24.33-24.33 24.33zm-271.34-50c-2.388 0-4.33 1.942-4.33 4.33v21.34c0 2.388 1.942 4.33 4.33 4.33h271.34c2.388 0 4.33-1.942 4.33-4.33v-21.34c0-2.388-1.942-4.33-4.33-4.33z"/><path id="XMLID_75856_" d="m286 166h-40c-5.523 0-10-4.477-10-10v-75.316l-56.402-47.001c-4.243-3.536-4.816-9.841-1.28-14.084s9.842-4.816 14.084-1.28l60 50c2.28 1.9 3.598 4.714 3.598 7.682v70h20v-70.001c0-2.968 1.318-5.782 3.598-7.682l60-50c4.245-3.537 10.549-2.961 14.085 1.28 3.535 4.243 2.962 10.548-1.28 14.084l-56.403 47.002v75.316c0 5.523-4.478 10-10 10z"/><path id="XMLID_75857_" d="m203.247 410.537c-40.53 0-80.229-24.597-82.577-26.076-4.673-2.943-6.075-9.118-3.131-13.791 2.941-4.671 9.111-6.075 13.783-3.136.696.437 70.029 43.284 108.202 10.846 47.405-40.283 144.194-22.971 148.292-22.214 5.431 1.003 9.021 6.22 8.018 11.65-1.003 5.432-6.213 9.021-11.65 8.018-.906-.167-91.548-16.34-131.708 17.786-14.699 12.49-32.041 16.917-49.229 16.917z"/><path id="XMLID_75858_" d="m306 466c-16.542 0-30-13.458-30-30s13.458-30 30-30 30 13.458 30 30-13.458 30-30 30zm0-40c-5.514 0-10 4.486-10 10s4.486 10 10 10 10-4.486 10-10-4.486-10-10-10z"/><path id="XMLID_75861_" d="m196 346c-16.542 0-30-13.458-30-30s13.458-30 30-30 30 13.458 30 30-13.458 30-30 30zm0-40c-5.514 0-10 4.486-10 10s4.486 10 10 10 10-4.486 10-10-4.486-10-10-10z"/><path id="XMLID_75864_" d="m486 496h-460c-5.523 0-10-4.478-10-10s4.477-10 10-10h460c5.522 0 10 4.478 10 10s-4.478 10-10 10z"/></g></g></svg>