<svg enable-background="new 0 0 512 512" height="512" viewBox="0 0 512 512" width="512" xmlns="http://www.w3.org/2000/svg"><g id="_x31_552_x2C__Geography_x2C__Geology_x2C__Scientific_Study_Of_The_Origin_Of_The_Earth_x2C__Study_Of_Earth_Surface"><g><circle id="XMLID_75899_" cx="116" cy="146" fill="#193772" r="30"/><circle id="XMLID_75900_" cx="416" cy="176" fill="#193772" r="30"/><g fill="#80af52"><path id="XMLID_75901_" d="m405.68 326.08c.21 3.28.32 6.59.32 9.92 0 49.07-23.57 92.64-60 120l-20-50 30-10-10-40h20v-20z"/><path id="XMLID_75902_" d="m296 426-20 20v38.67c-5.55.74-11.18 1.17-16.9 1.29-1.029.03-2.06.04-3.1.04s-2.07-.01-3.1-.04c-63.79-1.29-117.81-42.4-138.2-99.5l1.3-.46 70-40 20 30h40v50z"/><path id="XMLID_75903_" d="m326 246 10 40-20 20 20 20-40 10-30-40-20 10-10 30-40-30v-40h40l10-30 40 20z"/></g><path id="XMLID_75904_" d="m405.68 326.08-39.68 9.92v20h-20l10 40-30 10 20 50c-20.03 15.06-43.96 25.2-70 28.67v-38.67l20-20h-50v-50h-40l-20-30-70 40-1.3.46c-5.63-15.77-8.7-32.76-8.7-50.46 0-68.99 46.58-127.09 110-144.6v-105.4h80v105.4c60.36 16.66 105.46 70.09 109.68 134.68zm-69.68-40.08-10-40-40 10-40-20-10 30h-40v40l40 30 10-30 20-10 30 40 40-10-20-20z" fill="#d8f2f1"/><path id="XMLID_75907_" d="m326 26v60h-30-80-30v-60z" fill="#b2dbd8"/><path id="XMLID_75908_" d="m436 416h20v20h-20z"/><path id="XMLID_75909_" d="m436 376h20v20h-20z"/><path id="XMLID_75910_" d="m436 336h20v20h-20z"/><path id="XMLID_75911_" d="m56 416h20v20h-20z"/><path id="XMLID_75912_" d="m56 376h20v20h-20z"/><path id="XMLID_75913_" d="m56 336h20v20h-20z"/><path id="XMLID_75914_" d="m486 496h-460c-5.523 0-10-4.478-10-10s4.477-10 10-10h460c5.522 0 10 4.478 10 10s-4.478 10-10 10z"/><path id="XMLID_75915_" d="m256 496c-1.139 0-2.266-.011-3.394-.044-32.905-.665-64.399-11.298-90.986-30.746-26.05-19.057-45.532-45.125-56.338-75.387-6.159-17.252-9.282-35.36-9.282-53.823 0-69.169 44.861-130.611 110-152.022v-87.978h-20c-5.523 0-10-4.477-10-10v-60c0-5.523 4.477-10 10-10h140c5.522 0 10 4.477 10 10v60c0 5.523-4.478 10-10 10h-20v87.976c61.697 20.247 105.394 76.17 109.658 141.452.228 3.546.342 7.097.342 10.572 0 25.592-5.865 50.049-17.434 72.691-11.029 21.587-27.13 40.711-46.562 55.305-21.82 16.406-47.647 26.983-74.684 30.586-5.888.785-11.948 1.248-18.012 1.376-1.041.031-2.169.042-3.308.042zm-60-420h20c5.523 0 10 4.477 10 10v105.4c0 4.498-3.003 8.442-7.338 9.639-60.446 16.689-102.662 72.188-102.662 134.961 0 16.165 2.731 32.011 8.118 47.098 19.418 54.377 71.252 91.697 128.984 92.864 2.048.059 3.84.057 5.704.002 5.406-.113 10.718-.519 15.872-1.206 23.642-3.15 46.226-12.4 65.313-26.751 35.596-26.735 56.009-67.558 56.009-112.007 0-3.05-.101-6.173-.3-9.281-3.877-59.339-45.013-109.851-102.361-125.679-4.336-1.197-7.339-5.142-7.339-9.64v-105.4c0-5.523 4.478-10 10-10h20v-40h-120z"/><path id="XMLID_75918_" d="m276 496c-5.522 0-10-4.478-10-10v-40c0-2.652 1.054-5.195 2.929-7.071l2.929-2.929h-25.858c-5.523 0-10-4.478-10-10v-40h-30c-3.344 0-6.466-1.671-8.32-4.453l-14.823-22.233-61.896 35.369c-4.793 2.741-10.903 1.074-13.644-3.722-2.74-4.795-1.074-10.903 3.721-13.644l70-40c4.563-2.607 10.366-1.237 13.282 3.136l17.032 25.547h34.648c5.523 0 10 4.478 10 10v40h40c4.045 0 7.691 2.437 9.239 6.173 1.547 3.737.691 8.038-2.168 10.898l-17.071 17.072v35.857c0 5.522-4.478 10-10 10z"/><path id="XMLID_75919_" d="m346.003 466.003c-3.969 0-7.724-2.379-9.288-6.289l-20-50c-1.022-2.557-.945-5.423.213-7.921 1.159-2.499 3.297-4.409 5.91-5.28l21.215-7.071-7.754-31.016c-.747-2.988-.076-6.152 1.819-8.58 1.895-2.427 4.803-3.846 7.882-3.846h10v-10c0-4.589 3.123-8.589 7.574-9.701l40-10c5.358-1.346 10.788 1.917 12.127 7.275 1.34 5.358-1.918 10.788-7.275 12.127l-32.426 8.107v12.192c0 5.522-4.478 10-10 10h-7.192l6.894 27.574c1.268 5.069-1.582 10.26-6.539 11.913l-19.938 6.646 16.062 40.153c2.051 5.128-.443 10.947-5.571 12.999-1.22.486-2.477.718-3.713.718z"/><path id="XMLID_75920_" d="m296 346c-3.102 0-6.084-1.445-8-4l-24.992-33.323-8.831 4.415-8.69 26.07c-1.017 3.05-3.437 5.425-6.505 6.383-3.067.96-6.41.384-8.981-1.545l-40-30c-2.518-1.889-4-4.853-4-8v-40c0-5.522 4.477-10 10-10h32.792l7.721-23.162c.917-2.75 2.982-4.967 5.66-6.077 2.677-1.109 5.706-1.002 8.299.294l36.691 18.346 36.411-9.103c5.358-1.339 10.788 1.918 12.127 7.276l10 40c.853 3.408-.146 7.013-2.63 9.497l-12.929 12.929 12.929 12.929c2.547 2.548 3.527 6.269 2.565 9.74-.961 3.473-3.716 6.158-7.211 7.032l-40 10c-.806.201-1.62.299-2.426.299zm-30.005-60.001c3.066 0 6.063 1.411 8.005 4.001l26.017 34.688 16.424-4.106-7.512-7.511c-3.905-3.905-3.905-10.237 0-14.143l15.997-15.996-6.202-24.806-30.298 7.574c-2.317.579-4.763.311-6.897-.757l-29.688-14.844-6.354 19.062c-1.362 4.085-5.183 6.839-9.487 6.839h-30v25l24.9 18.676 5.613-16.838c.839-2.517 2.643-4.596 5.015-5.782l20-10c1.427-.714 2.955-1.057 4.467-1.057z"/><path id="XMLID_75923_" d="m296 96h-80c-5.523 0-10-4.477-10-10s4.477-10 10-10h80c5.522 0 10 4.477 10 10s-4.478 10-10 10z"/><path id="XMLID_75924_" d="m116 186c-22.056 0-40-17.944-40-40s17.944-40 40-40 40 17.944 40 40-17.944 40-40 40zm0-60c-11.028 0-20 8.972-20 20s8.972 20 20 20 20-8.972 20-20-8.972-20-20-20z"/><path id="XMLID_75927_" d="m416 216c-22.056 0-40-17.944-40-40s17.944-40 40-40 40 17.944 40 40-17.944 40-40 40zm0-60c-11.028 0-20 8.972-20 20s8.972 20 20 20 20-8.972 20-20-8.972-20-20-20z"/></g></g></svg>