<svg enable-background="new 0 0 512 512" height="512" viewBox="0 0 512 512" width="512" xmlns="http://www.w3.org/2000/svg"><g id="_x31_553_x2C__Expansion_And_Innovation_x2C__New_Science_Concepts_x2C__Science_Education_x2C__Science_Folder_x2C__Science_Portfolio"><g><path id="XMLID_75963_" d="m446 86h-120-40v160h200v-160z" fill="#73665c"/><g fill="#d8f2f1"><path id="XMLID_75966_" d="m376 346c11.05 0 20 8.95 20 20s-8.95 20-20 20-20-8.95-20-20 8.95-20 20-20z"/><path id="XMLID_75967_" d="m176 56c11.05 0 20 8.95 20 20s-8.95 20-20 20-20-8.95-20-20 8.95-20 20-20z"/><path id="XMLID_75968_" d="m46 206c11.05 0 20 8.95 20 20s-8.95 20-20 20-20-8.95-20-20 8.95-20 20-20z"/><path id="XMLID_75969_" d="m203.1 319.3v-183.3h-100v187.19c-20.02 14.57-33.81 37.2-36.58 63.12 6.6 3.91 75.4 41.96 169.48-10.31l7.28-2.04c-5.8-23.03-20.47-42.53-40.18-54.66z"/></g><path id="XMLID_75970_" d="m243.28 373.96c1.78 7.05 2.72 14.44 2.72 22.04 0 49.71-40.29 90-90 90s-90-40.29-90-90c0-3.27.18-6.5.52-9.69 6.6 3.91 75.4 41.96 169.48-10.31z" fill="#ef727a"/><path id="XMLID_75973_" d="m426 156h20v20h-20z"/><path id="XMLID_75974_" d="m376 156h20v20h-20z"/><path id="XMLID_75975_" d="m326 156h20v20h-20z"/><path id="XMLID_75976_" d="m166 306c5.52 0 10 4.48 10 10s-4.48 10-10 10-10-4.48-10-10 4.48-10 10-10z"/><path id="XMLID_75977_" d="m156 176c5.52 0 10 4.48 10 10s-4.48 10-10 10-10-4.48-10-10 4.48-10 10-10z"/><path id="XMLID_75978_" d="m146 236c5.52 0 10 4.48 10 10s-4.48 10-10 10-10-4.48-10-10 4.48-10 10-10z"/><path id="XMLID_75979_" d="m136 356c5.52 0 10 4.48 10 10s-4.48 10-10 10-10-4.48-10-10 4.48-10 10-10z"/><path id="XMLID_75980_" d="m243.1 146h-40c-5.523 0-10-4.477-10-10s4.477-10 10-10h40c5.523 0 10 4.477 10 10s-4.477 10-10 10z"/><path id="XMLID_75981_" d="m103.1 146h-40c-5.523 0-10-4.477-10-10s4.477-10 10-10h40c5.523 0 10 4.477 10 10s-4.477 10-10 10z"/><path id="XMLID_75982_" d="m137.845 413.352c-43.301 0-71.616-15.592-76.422-18.438-.408-.239-.646-.386-.646-.386-4.7-2.892-6.178-9.05-3.291-13.754 2.885-4.7 9.023-6.181 13.728-3.307l.363.216c1.974 1.169 19.754 11.314 48.034 14.606 36.473 4.248 73.995-4.176 111.532-25.03 4.828-2.682 10.916-.943 13.598 3.885 2.683 4.827.943 10.916-3.885 13.598-39.235 21.798-74.397 28.61-103.011 28.61z"/><path id="XMLID_75983_" d="m46 256c-16.542 0-30-13.458-30-30s13.458-30 30-30 30 13.458 30 30-13.458 30-30 30zm0-40c-5.514 0-10 4.486-10 10s4.486 10 10 10 10-4.486 10-10-4.486-10-10-10z"/><path id="XMLID_75986_" d="m376 396c-16.542 0-30-13.458-30-30s13.458-30 30-30 30 13.458 30 30-13.458 30-30 30zm0-40c-5.514 0-10 4.486-10 10s4.486 10 10 10 10-4.486 10-10-4.486-10-10-10z"/><path id="XMLID_75989_" d="m176 106c-16.542 0-30-13.458-30-30s13.458-30 30-30 30 13.458 30 30-13.458 30-30 30zm0-40c-5.514 0-10 4.486-10 10s4.486 10 10 10 10-4.486 10-10-4.486-10-10-10z"/><path id="XMLID_75992_" d="m486 496h-460c-5.523 0-10-4.478-10-10s4.477-10 10-10h460c5.522 0 10 4.478 10 10s-4.478 10-10 10z"/><path id="XMLID_75993_" d="m156 496c-55.14 0-100-44.859-100-100 0-3.543.194-7.159.576-10.749 2.805-26.242 16.026-50.376 36.524-66.984v-182.267c0-5.523 4.477-10 10-10h100c5.523 0 10 4.477 10 10v177.896c19.877 13.81 33.947 34.073 39.877 57.621 2.005 7.942 3.023 16.181 3.023 24.483 0 55.141-44.86 100-100 100zm-42.9-350v177.19c0 3.198-1.53 6.204-4.116 8.086-18.279 13.302-30.133 33.748-32.521 56.096-.307 2.886-.463 5.79-.463 8.628 0 44.112 35.888 80 80 80s80-35.888 80-80c0-6.652-.813-13.244-2.416-19.592-5.114-20.306-17.8-37.561-35.725-48.592-2.958-1.82-4.759-5.044-4.759-8.517v-173.299z"/><path id="XMLID_75996_" d="m486 256h-200c-5.522 0-10-4.477-10-10v-160c0-5.523 4.478-10 10-10h40c5.522 0 10 4.477 10 10s-4.478 10-10 10h-30v140h180v-140h-30c-5.522 0-10-4.477-10-10s4.478-10 10-10h40c5.522 0 10 4.477 10 10v160c0 5.523-4.478 10-10 10z"/><path id="XMLID_75997_" d="m446 96h-120c-5.522 0-10-4.477-10-10v-60c0-5.523 4.478-10 10-10h120c5.522 0 10 4.477 10 10v60c0 5.523-4.478 10-10 10zm-110-20h100v-40h-100z"/></g></g></svg>