<svg enable-background="new 0 0 512 512" height="512" viewBox="0 0 512 512" width="512" xmlns="http://www.w3.org/2000/svg"><g id="_x31_554_x2C__Lab_App_x2C__Mobile_App_Store_x2C__Online_Laboratory_x2C__Smart_Lab_x2C__Smartphone_Application"><g><path id="XMLID_76048_" d="m96 86h320v340h-320z" fill="#ecf0f1"/><path id="XMLID_76049_" d="m288.82 126v115.71l19.5 23.82-2.32 1.9c-70.71 39.28-115.11 7.141-115.11 7.141l-.24-.2 26.74-32.66v-115.711z" fill="#d8f2f1"/><path id="XMLID_76050_" d="m338.75 302.71c7.71 10.96 6.72 26.04-2.8 35.47-4.57 4.53-10.76 7.511-17.9 7.801-.399.01-.8.02-1.2.02h-127.5c-.4 0-.8-.01-1.2-.02-7.14-.29-13.33-3.271-17.9-7.801-9.52-9.43-10.5-24.51-2.8-35.47l23.2-28.34.24.2s44.4 32.14 115.11-7.141l2.32-1.899z" fill="#ef727a"/><path id="XMLID_76051_" d="m416 46.33v39.67h-320v-39.67c0-11.23 9.1-20.33 20.33-20.33h46.77 180 52.57c11.23 0 20.33 9.1 20.33 20.33z" fill="#57606f"/><path id="XMLID_76054_" d="m96 426v39.67c0 11.23 9.1 20.33 20.33 20.33h279.34c11.23 0 20.33-9.1 20.33-20.33v-39.67z" fill="#57606f"/><path id="XMLID_76057_" d="m286 376h20v20h-20z"/><path id="XMLID_76058_" d="m256 446c5.52 0 10 4.48 10 10s-4.48 10-10 10-10-4.48-10-10 4.48-10 10-10z"/><path id="XMLID_76059_" d="m236 376h20v20h-20z"/><path id="XMLID_76060_" d="m186 376h20v20h-20z"/><path id="XMLID_76061_" d="m416 96c-5.522 0-10-4.477-10-10v-39.67c0-5.696-4.634-10.33-10.33-10.33h-52.57c-5.522 0-10-4.477-10-10s4.478-10 10-10h52.57c16.724 0 30.33 13.606 30.33 30.33v39.67c0 5.523-4.478 10-10 10z"/><path id="XMLID_76062_" d="m96 96c-5.523 0-10-4.477-10-10v-39.67c0-16.724 13.606-30.33 30.33-30.33h46.77c5.523 0 10 4.477 10 10s-4.477 10-10 10h-46.77c-5.696 0-10.33 4.634-10.33 10.33v39.67c0 5.523-4.477 10-10 10z"/><path id="XMLID_76063_" d="m395.67 496h-279.34c-16.724 0-30.33-13.606-30.33-30.33v-39.67c0-5.522 4.477-10 10-10s10 4.478 10 10v39.67c0 5.696 4.634 10.33 10.33 10.33h279.34c5.696 0 10.33-4.634 10.33-10.33v-39.67c0-5.522 4.478-10 10-10s10 4.478 10 10v39.67c0 16.724-13.606 30.33-30.33 30.33z"/><path id="XMLID_76064_" d="m416 436h-320c-5.523 0-10-4.478-10-10v-340c0-5.523 4.477-10 10-10h320c5.522 0 10 4.477 10 10v340c0 5.522-4.478 10-10 10zm-310-20h300v-320h-300z"/><path id="XMLID_76067_" d="m306 66h-40c-5.522 0-10-4.477-10-10s4.478-10 10-10h40c5.522 0 10 4.477 10 10s-4.478 10-10 10z"/><path id="XMLID_76068_" d="m226 66h-10c-5.523 0-10-4.477-10-10s4.477-10 10-10h10c5.523 0 10 4.477 10 10s-4.477 10-10 10z"/><path id="XMLID_76069_" d="m343.1 36h-180c-5.523 0-10-4.477-10-10s4.477-10 10-10h180c5.522 0 10 4.477 10 10s-4.478 10-10 10z"/><path id="XMLID_76070_" d="m316.85 356h-127.5c-.481 0-.963-.011-1.444-.022-.054-.001-.108-.003-.162-.005-9.246-.376-17.959-4.173-24.534-10.691-12.945-12.821-14.604-33.145-3.942-48.32.141-.2.29-.396.445-.585l47.678-58.238v-112.139c0-5.523 4.477-10 10-10s10 4.477 10 10v115.71c0 2.31-.799 4.548-2.263 6.335l-49.681 60.684c-4.75 7.027-3.982 16.579 1.84 22.347 2.131 2.112 5.798 4.671 11.2 4.91.288.008.576.015.863.015h127.5c.288 0 .576-.007.864-.015 5.401-.239 9.068-2.799 11.196-4.908 5.83-5.774 6.598-15.324 1.845-22.347l-49.673-60.686c-1.463-1.787-2.262-4.025-2.262-6.334v-115.711c0-5.523 4.478-10 10-10s10 4.477 10 10v112.139l47.668 58.237c.154.188.301.382.44.58 10.672 15.17 9.015 35.495-3.941 48.328-6.573 6.516-15.286 10.313-24.531 10.688-.054.002-.108.004-.162.005-.481.012-.962.023-1.444.023z"/><path id="XMLID_76071_" d="m237.868 297.023c-32.425 0-51.584-13.442-52.842-14.353-4.474-3.238-5.475-9.49-2.237-13.964 3.226-4.459 9.444-5.467 13.914-2.273.325.225 10.407 7.08 27.926 9.59 23.899 3.427 49.643-2.407 76.514-17.336 4.828-2.678 10.916-.943 13.599 3.886 2.682 4.828.941 10.916-3.886 13.599-28.549 15.859-53.232 20.851-72.988 20.851z"/><path id="XMLID_76072_" d="m306 136h-110c-5.523 0-10-4.477-10-10s4.477-10 10-10h110c5.522 0 10 4.477 10 10s-4.478 10-10 10z"/><path id="XMLID_76073_" d="m286 166h-30c-5.523 0-10-4.477-10-10s4.477-10 10-10h30c5.522 0 10 4.477 10 10s-4.478 10-10 10z"/><path id="XMLID_76074_" d="m286 196h-30c-5.523 0-10-4.477-10-10s4.477-10 10-10h30c5.522 0 10 4.477 10 10s-4.478 10-10 10z"/><path id="XMLID_76075_" d="m286 226h-30c-5.523 0-10-4.477-10-10s4.477-10 10-10h30c5.522 0 10 4.477 10 10s-4.478 10-10 10z"/></g></g></svg>