<svg enable-background="new 0 0 512 512" height="512" viewBox="0 0 512 512" width="512" xmlns="http://www.w3.org/2000/svg"><g id="_x31_556_x2C__Chemical_Science_x2C__Chemistry_x2C__Science_Lab_x2C__Science_Of_Matter_x2C__Scientific_Research"><g><path id="XMLID_76217_" d="m146 206c11.05 0 20 8.95 20 20s-8.95 20-20 20-20-8.95-20-20 8.95-20 20-20z" fill="#ea7e23"/><path id="XMLID_76218_" d="m416 346c11.05 0 20 8.95 20 20s-8.95 20-20 20-20-8.95-20-20 8.95-20 20-20z" fill="#ea7e23"/><path id="XMLID_76219_" d="m373.01 425.39c10.79 15.351 9.41 36.45-3.92 49.66-6.399 6.351-15.06 10.51-25.06 10.92-.561.021-1.12.03-1.681.03h-178.5c-.56 0-1.12-.01-1.68-.03-10-.41-18.66-4.569-25.06-10.92-13.32-13.21-14.71-34.31-3.91-49.66l29.39-41.79 3.411 2.4s71 45 170-10l1.52-1.07z" fill="#e3835a"/><path id="XMLID_76220_" d="m303.1 136v190l34.42 48.93-1.52 1.07c-99 55-170 10-170 10l-3.41-2.4 40.51-57.6v-190h52.9z" fill="#d8f2f1"/><path id="XMLID_76221_" d="m376 286h20v20h-20z"/><path id="XMLID_76222_" d="m376 236h20v20h-20z"/><path id="XMLID_76223_" d="m376 186h20v20h-20z"/><path id="XMLID_76224_" d="m376 136h20v20h-20z"/><path id="XMLID_76225_" d="m376 86h20v20h-20z"/><path id="XMLID_76226_" d="m56 376h20v20h-20z"/><path id="XMLID_76227_" d="m56 326h20v20h-20z"/><path id="XMLID_76228_" d="m56 276h20v20h-20z"/><path id="XMLID_76229_" d="m56 226h20v20h-20z"/><path id="XMLID_76230_" d="m56 176h20v20h-20z"/><path id="XMLID_76231_" d="m163.85 496c-.682 0-1.364-.012-2.046-.037-12-.492-23.255-5.397-31.738-13.814-16.732-16.594-18.854-42.886-5.045-62.513l68.079-96.8v-186.836c0-5.523 4.477-10 10-10s10 4.477 10 10v190c0 2.06-.636 4.068-1.82 5.753l-69.9 99.39c-8.179 11.624-7.013 27.104 2.771 36.807 3.489 3.462 9.516 7.663 18.428 8.029.395.014.833.021 1.271.021 5.523 0 10 4.478 10 10s-4.477 10-10 10z"/><path id="XMLID_76232_" d="m342.35 496c-5.522 0-10-4.478-10-10s4.478-10 10-10c.438 0 .877-.008 1.315-.023 8.867-.364 14.895-4.565 18.381-8.024 9.79-9.702 10.958-25.182 2.783-36.812l-69.908-99.387c-1.186-1.685-1.821-3.694-1.821-5.754v-190c0-5.523 4.478-10 10-10s10 4.477 10 10v186.835l68.09 96.802c13.805 19.64 11.676 45.931-5.061 62.516-8.478 8.413-19.732 13.318-31.688 13.809-.727.026-1.409.038-2.091.038z"/><path id="XMLID_76233_" d="m343.1 146h-180c-5.523 0-10-4.477-10-10s4.477-10 10-10h180c5.522 0 10 4.477 10 10s-4.478 10-10 10z"/><path id="XMLID_76234_" d="m237.452 413.301c-9.313 0-17.696-.717-25.014-1.779-31.872-4.629-50.993-16.569-51.792-17.075-4.665-2.956-6.049-9.135-3.093-13.8 2.951-4.655 9.112-6.042 13.773-3.109.323.199 17.165 10.486 45.01 14.337 37.455 5.178 76.083-3.102 114.807-24.615 4.827-2.682 10.916-.944 13.598 3.885 2.683 4.828.943 10.916-3.885 13.598-40.064 22.256-75.798 28.558-103.404 28.558z"/><path id="XMLID_76235_" d="m146 256c-16.542 0-30-13.458-30-30s13.458-30 30-30 30 13.458 30 30-13.458 30-30 30zm0-40c-5.514 0-10 4.486-10 10s4.486 10 10 10 10-4.486 10-10-4.486-10-10-10z"/><path id="XMLID_76238_" d="m416 396c-16.542 0-30-13.458-30-30s13.458-30 30-30 30 13.458 30 30-13.458 30-30 30zm0-40c-5.514 0-10 4.486-10 10s4.486 10 10 10 10-4.486 10-10-4.486-10-10-10z"/><path id="XMLID_76241_" d="m486 496h-460c-5.523 0-10-4.478-10-10s4.477-10 10-10h460c5.522 0 10 4.478 10 10s-4.478 10-10 10z"/><path id="XMLID_76242_" d="m446 276c-5.522 0-10-4.478-10-10v-230h-170v100c0 5.523-4.478 10-10 10-5.523 0-10-4.477-10-10v-110c0-5.523 4.477-10 10-10h190c5.522 0 10 4.477 10 10v240c0 5.522-4.478 10-10 10z"/><path id="XMLID_76243_" d="m296 186h-30c-5.522 0-10-4.477-10-10s4.478-10 10-10h30c5.522 0 10 4.477 10 10s-4.478 10-10 10z"/><path id="XMLID_76244_" d="m296 226h-30c-5.522 0-10-4.477-10-10s4.478-10 10-10h30c5.522 0 10 4.477 10 10s-4.478 10-10 10z"/><path id="XMLID_76245_" d="m296 266h-30c-5.522 0-10-4.478-10-10 0-5.523 4.478-10 10-10h30c5.522 0 10 4.477 10 10 0 5.522-4.478 10-10 10z"/><path id="XMLID_76246_" d="m296 306h-30c-5.522 0-10-4.478-10-10s4.478-10 10-10h30c5.522 0 10 4.478 10 10s-4.478 10-10 10z"/></g></g></svg>