<svg enable-background="new 0 0 512 512" height="512" viewBox="0 0 512 512" width="512" xmlns="http://www.w3.org/2000/svg"><g id="_x31_558_x2C__Chemical_Test_x2C__Medicine_Dropper_x2C__Microbiology_x2C__Pipette_Dropper_x2C__Scientific_Research"><g><path id="XMLID_76367_" d="m474.402 37.63c7.75 7.75 11.63 17.92 11.63 28.08s-3.88 20.33-11.63 28.08l-32.76 32.76-56.16-56.16 32.76-32.76c15.51-15.51 40.651-15.51 56.16 0z" fill="#57606f"/><path id="XMLID_76368_" d="m385.482 70.39 56.161 56.16-116.991 116.99-65.52 9.36 9.36-65.52z" fill="#d8f2f1"/><path id="XMLID_76369_" d="m203.132 326v-190h-27.1-72.9v190l-40.51 57.6 3.41 2.4s71 45 170-10l1.52-1.07z" fill="#d8f2f1"/><g fill="#ef727a"><path id="XMLID_76370_" d="m273.042 425.39c10.79 15.351 9.41 36.45-3.92 49.66-6.399 6.351-15.06 10.51-25.06 10.92-.56.021-1.12.03-1.68.03h-178.5c-.56 0-1.12-.01-1.68-.03-10-.41-18.66-4.569-25.06-10.92-13.32-13.21-14.71-34.31-3.91-49.66l29.39-41.79 3.41 2.4s71 45 170-10l1.52-1.07z"/><path id="XMLID_76371_" d="m176.032 96c11.05 0 20 8.95 20 20s-8.95 20-20 20-20-8.95-20-20 8.95-20 20-20z"/><path id="XMLID_76372_" d="m126.032 26c11.05 0 20 8.95 20 20s-8.95 20-20 20-20-8.95-20-20 8.95-20 20-20z"/><path id="XMLID_76373_" d="m483.393 340.22c8.22 16.44-3.74 35.78-22.11 35.78-18.38 0-30.33-19.34-22.11-35.78l22.11-44.22z"/><path id="XMLID_76374_" d="m398.143 420.22c8.22 16.44-3.73 35.78-22.11 35.78s-30.33-19.34-22.11-35.78l22.11-44.22z"/><path id="XMLID_76375_" d="m332.893 330.22c8.22 16.44-3.73 35.78-22.11 35.78-18.37 0-30.33-19.34-22.11-35.78l22.11-44.22z"/></g><path id="XMLID_76376_" d="m166.032 306c5.52 0 10 4.48 10 10s-4.48 10-10 10-10-4.48-10-10 4.48-10 10-10z"/><path id="XMLID_76377_" d="m156.032 176c5.52 0 10 4.48 10 10s-4.48 10-10 10-10-4.48-10-10 4.48-10 10-10z"/><path id="XMLID_76378_" d="m146.032 236c5.52 0 10 4.48 10 10s-4.48 10-10 10-10-4.48-10-10 4.48-10 10-10z"/><path id="XMLID_76379_" d="m136.032 356c5.52 0 10 4.48 10 10s-4.48 10-10 10-10-4.48-10-10 4.48-10 10-10z"/><path id="XMLID_76380_" d="m63.882 496c-.682 0-1.364-.012-2.046-.037-12-.492-23.255-5.397-31.738-13.814-16.732-16.594-18.854-42.886-5.045-62.513l68.079-96.8v-186.836c0-5.523 4.477-10 10-10s10 4.477 10 10v190c0 2.06-.636 4.068-1.82 5.753l-69.9 99.39c-8.179 11.624-7.013 27.104 2.771 36.807 3.489 3.462 9.516 7.663 18.428 8.029.395.014.833.021 1.271.021 5.523 0 10 4.478 10 10s-4.477 10-10 10z"/><path id="XMLID_76381_" d="m242.382 496c-5.523 0-10-4.478-10-10s4.477-10 10-10c.438 0 .876-.008 1.313-.023 8.869-.364 14.896-4.565 18.382-8.024 9.79-9.702 10.958-25.182 2.783-36.812l-69.908-99.387c-1.185-1.685-1.821-3.694-1.821-5.754v-190c0-5.523 4.477-10 10-10s10 4.477 10 10v186.835l68.089 96.802c13.805 19.64 11.676 45.931-5.061 62.516-8.478 8.413-19.733 13.318-31.689 13.809-.723.026-1.406.038-2.088.038z"/><path id="XMLID_76382_" d="m243.132 146h-180c-5.523 0-10-4.477-10-10s4.477-10 10-10h180c5.523 0 10 4.477 10 10s-4.477 10-10 10z"/><path id="XMLID_76383_" d="m137.484 413.301c-9.313 0-17.696-.717-25.014-1.779-31.872-4.629-50.993-16.569-51.792-17.075-4.665-2.956-6.049-9.135-3.093-13.8 2.952-4.655 9.113-6.042 13.773-3.109.323.199 17.165 10.486 45.01 14.337 37.454 5.178 76.083-3.102 114.807-24.615 4.829-2.683 10.917-.942 13.598 3.885 2.682 4.828.942 10.916-3.885 13.598-40.063 22.256-75.799 28.558-103.404 28.558z"/><path id="XMLID_76384_" d="m259.131 262.9c-2.632 0-5.182-1.041-7.07-2.93-2.226-2.226-3.273-5.369-2.828-8.485l9.36-65.52c.306-2.142 1.299-4.127 2.828-5.657l149.75-149.75c9.391-9.39 21.874-14.562 35.151-14.562s25.761 5.171 35.151 14.561c9.389 9.389 14.559 21.872 14.559 35.151s-5.17 25.763-14.559 35.151l-149.75 149.75c-1.53 1.53-3.515 2.523-5.657 2.829l-65.521 9.36c-.471.069-.943.102-1.414.102zm18.789-70.806-7.003 49.021 49.021-7.003 147.393-147.393c5.611-5.611 8.701-13.072 8.701-21.009s-3.09-15.398-8.701-21.009c-5.612-5.612-13.073-8.703-21.009-8.703s-15.396 3.091-21.009 8.704z"/><path id="XMLID_76387_" d="m455.683 150.59c-2.56 0-5.118-.976-7.071-2.929l-84.232-84.243c-3.904-3.906-3.902-10.238.005-14.142 3.906-3.904 10.239-3.901 14.142.005l84.229 84.237c3.905 3.905 3.905 10.237 0 14.143-1.955 1.953-4.514 2.929-7.073 2.929z"/><path id="XMLID_76388_" d="m310.782 376c-12.119 0-23.16-6.156-29.533-16.469-6.374-10.312-6.942-22.941-1.521-33.783l22.11-44.221c1.694-3.388 5.156-5.527 8.944-5.527s7.25 2.14 8.944 5.527l22.11 44.22c5.422 10.845 4.854 23.476-1.52 33.787-6.371 10.311-17.412 16.466-29.534 16.466zm0-67.64-13.166 26.332c-2.333 4.665-2.098 9.887.646 14.324 2.743 4.438 7.307 6.983 12.521 6.983 5.217 0 9.78-2.544 12.522-6.98 2.743-4.438 2.978-9.66.644-14.328z"/><path id="XMLID_76391_" d="m461.282 386c-12.122 0-23.163-6.155-29.535-16.466-6.373-10.312-6.941-22.942-1.52-33.786l22.11-44.221c1.694-3.388 5.156-5.527 8.944-5.527s7.25 2.14 8.944 5.527l22.11 44.22c5.421 10.843 4.853 23.473-1.521 33.784-6.372 10.313-17.413 16.469-29.532 16.469zm0-67.64-13.166 26.332c-2.334 4.667-2.1 9.89.644 14.327 2.742 4.437 7.306 6.98 12.522 6.98 5.214 0 9.777-2.545 12.521-6.983 2.743-4.438 2.979-9.659.646-14.325z"/><path id="XMLID_76394_" d="m376.032 466c-12.122 0-23.163-6.155-29.535-16.466-6.373-10.312-6.941-22.942-1.52-33.786l22.11-44.221c1.694-3.388 5.156-5.527 8.944-5.527s7.25 2.14 8.944 5.527l22.11 44.22c5.422 10.845 4.854 23.476-1.52 33.787-6.37 10.311-17.411 16.466-29.533 16.466zm0-67.64-13.166 26.332c-2.334 4.667-2.1 9.89.644 14.327 2.742 4.437 7.306 6.98 12.522 6.98s9.78-2.544 12.522-6.98c2.743-4.438 2.978-9.66.644-14.328z"/><path id="XMLID_76397_" d="m486.032 496h-460c-5.523 0-10-4.478-10-10s4.477-10 10-10h460c5.522 0 10 4.478 10 10s-4.477 10-10 10z"/><path id="XMLID_76398_" d="m126.032 76c-16.542 0-30-13.458-30-30s13.458-30 30-30 30 13.458 30 30-13.458 30-30 30zm0-40c-5.514 0-10 4.486-10 10s4.486 10 10 10 10-4.486 10-10-4.486-10-10-10z"/><path id="XMLID_76401_" d="m176.032 146c-16.542 0-30-13.458-30-30s13.458-30 30-30 30 13.458 30 30-13.458 30-30 30zm0-40c-5.514 0-10 4.486-10 10s4.486 10 10 10 10-4.486 10-10-4.486-10-10-10z"/></g></g></svg>