<svg enable-background="new 0 0 512 512" height="512" viewBox="0 0 512 512" width="512" xmlns="http://www.w3.org/2000/svg"><g id="_x31_559_x2C__Cloud_Reporting_x2C__Digital_Storage_x2C__File_Storage_x2C__Online_Docs_x2C__Sky_Docs"><g><path id="XMLID_76425_" d="m386 276c27.62 0 52.62-3.69 70.71-14.29 18.1-10.59 29.29-28.09 29.29-55.71 0-22.97-7.75-44.13-20.77-61.01-5.37-38.97-38.79-68.99-79.23-68.99-19.6 0-37.54 7.06-51.45 18.75-14-23.22-39.46-38.75-68.55-38.75-14.67 0-28.41 3.97-40.23 10.86-13.71-24.38-39.81-40.86-69.77-40.86-44.18 0-80 35.82-80 80 0 4.36.36 8.63 1.03 12.8-15.23 8.57-27.98 21.01-36.93 35.99-8.96 14.97-14.1 32.49-14.1 51.21 0 55.23 34.77 70 90 70z" fill="#86dcfd"/><path id="XMLID_76426_" d="m326 256h-50v-50z" fill="#bec3c7"/><path id="XMLID_76427_" d="m326 276v210h-200v-210-70h150v50h50zm-50 40v-20h-20v20zm-40 0v-20h-20v20zm-40 0v-20h-20v20z" fill="#ecf0f1"/><path id="XMLID_76432_" d="m376 166h20v20h-20z"/><path id="XMLID_76433_" d="m356 186h20v20h-20z"/><path id="XMLID_76434_" d="m356 146h20v20h-20z"/><path id="XMLID_76435_" d="m336 166h20v20h-20z"/><path id="XMLID_76436_" d="m256 296h20v20h-20z"/><path id="XMLID_76437_" d="m216 296h20v20h-20z"/><path id="XMLID_76438_" d="m176 296h20v20h-20z"/><path id="XMLID_76439_" d="m156 86h20v20h-20z"/><path id="XMLID_76440_" d="m136 106h20v20h-20z"/><path id="XMLID_76441_" d="m136 66h20v20h-20z"/><path id="XMLID_76442_" d="m116 86h20v20h-20z"/><path id="XMLID_76443_" d="m386 286h-50c-5.522 0-10-4.478-10-10s4.478-10 10-10h50c29.344 0 50.819-4.226 65.654-12.918 16.384-9.586 24.346-24.986 24.346-47.082 0-20.067-6.462-39.052-18.688-54.902-1.065-1.38-1.75-3.015-1.988-4.742-4.741-34.409-34.545-60.356-69.324-60.356-16.44 0-32.428 5.826-45.017 16.406-2.237 1.881-5.188 2.689-8.073 2.209-2.884-.479-5.414-2.197-6.924-4.701-12.803-21.236-35.228-33.914-59.986-33.914-12.363 0-24.533 3.285-35.194 9.5-2.313 1.349-5.071 1.713-7.659 1.01-2.585-.703-4.78-2.413-6.093-4.748-12.405-22.059-35.799-35.762-61.054-35.762-38.598 0-70 31.402-70 70 0 3.71.304 7.483.903 11.213.664 4.136-1.319 8.247-4.969 10.301-13.689 7.703-25.187 18.908-33.25 32.404-8.299 13.868-12.684 29.8-12.684 46.082 0 23.138 6.326 38.212 19.909 47.44 12.612 8.569 31.707 12.56 60.091 12.56 5.523 0 10 4.478 10 10s-4.477 10-10 10c-32.581 0-55.247-5.09-71.331-16.017-19.291-13.107-28.669-34.036-28.669-63.983 0-19.898 5.367-39.383 15.52-56.346 8.683-14.532 20.631-26.893 34.804-36.064-.216-2.536-.324-5.073-.324-7.59 0-49.626 40.374-90 90-90 29.238 0 56.534 14.279 73.317 37.819 11.501-5.135 24.015-7.819 36.683-7.819 28.149 0 53.951 12.745 70.924 34.568 14.535-9.452 31.606-14.568 49.076-14.568 43.825 0 81.506 32.051 88.733 74.987 13.922 18.948 21.267 41.368 21.267 65.013 0 29.4-11.52 51.048-34.24 64.341-17.981 10.536-42.764 15.659-75.76 15.659z"/><path id="XMLID_76444_" d="m326 496h-200c-5.523 0-10-4.478-10-10v-280c0-5.523 4.477-10 10-10h150c2.652 0 5.195 1.054 7.071 2.929l50 50c1.875 1.875 2.929 4.419 2.929 7.071v230c0 5.522-4.478 10-10 10zm-190-20h180v-215.857l-44.143-44.143h-135.857z"/><path id="XMLID_76447_" d="m326 266h-50c-5.522 0-10-4.478-10-10v-50c0-5.523 4.478-10 10-10s10 4.477 10 10v40h40c5.522 0 10 4.477 10 10 0 5.522-4.478 10-10 10z"/><path id="XMLID_76448_" d="m276 356h-100c-5.523 0-10-4.478-10-10s4.477-10 10-10h100c5.522 0 10 4.478 10 10s-4.478 10-10 10z"/><path id="XMLID_76449_" d="m276 396h-100c-5.523 0-10-4.478-10-10s4.477-10 10-10h100c5.522 0 10 4.478 10 10s-4.478 10-10 10z"/><path id="XMLID_76450_" d="m256 436h-80c-5.523 0-10-4.478-10-10s4.477-10 10-10h80c5.522 0 10 4.478 10 10s-4.478 10-10 10z"/></g></g></svg>