<svg enable-background="new 0 0 512 512" height="512" viewBox="0 0 512 512" width="512" xmlns="http://www.w3.org/2000/svg"><g id="_x31_560_x2C__Bear_Lab_x2C__Chemical_Industry_x2C__Lab_Management_x2C__Scientific_Research_x2C__Technology_Lab"><g><path id="XMLID_76503_" d="m372.04 335.3c2.58 9.8 3.96 20.09 3.96 30.7 0 66.27-53.73 120-120 120s-120-53.73-120-120c0-10.61 1.38-20.9 3.96-30.7l6.04.7h45c8.28 0 15 6.72 15 15v10c0 8.28 6.72 15 15 15h10c8.28 0 15-6.72 15-15v-10c0-8.28 6.72-15 15-15h10c8.28 0 15 6.72 15 15 0 4.14 1.68 7.89 4.4 10.6 2.71 2.721 6.46 4.4 10.6 4.4h10c8.28 0 15-6.72 15-15 0-4.14 1.68-7.89 4.4-10.6 2.71-2.721 6.46-4.4 10.6-4.4h25z" fill="#ef727a"/><path id="XMLID_76504_" d="m372.04 335.3-6.04.7h-25c-4.14 0-7.89 1.68-10.6 4.4-2.721 2.71-4.4 6.46-4.4 10.6 0 8.28-6.72 15-15 15h-10c-4.14 0-7.89-1.68-10.6-4.4-2.721-2.71-4.4-6.46-4.4-10.6 0-8.28-6.72-15-15-15h-10c-8.28 0-15 6.72-15 15v10c0 8.28-6.72 15-15 15h-10c-8.28 0-15-6.72-15-15v-10c0-8.28-6.72-15-15-15h-45l-6.04-.7c10.15-38.45 38.9-69.34 76.04-82.46v-166.84h-30v-60h140v60h-30v166.84c37.14 13.12 65.89 44.01 76.04 82.46z" fill="#d8f2f1"/><path id="XMLID_76505_" d="m486 166v40h-31.72l22.43 22.43-28.28 28.28-22.43-22.43v31.72h-40v-31.72l-22.43 22.43-28.28-28.28 22.43-22.43h-31.72v-40h31.72l-22.43-22.43 28.28-28.28 22.43 22.43v-31.72h40v31.72l22.43-22.43 28.28 28.28-22.43 22.43zm-60 20c0-11.05-8.95-20-20-20s-20 8.95-20 20 8.95 20 20 20 20-8.95 20-20z" fill="#313a52"/><path id="XMLID_76508_" d="m186 146v40h-31.72l22.43 22.43-28.28 28.28-22.43-22.43v31.72h-40v-31.72l-22.43 22.43-28.28-28.28 22.43-22.43h-31.72v-40h31.72l-22.43-22.43 28.28-28.28 22.43 22.43v-31.72h40v31.72l22.43-22.43 28.28 28.28-22.43 22.43zm-60 20c0-11.05-8.95-20-20-20s-20 8.95-20 20 8.95 20 20 20 20-8.95 20-20z" fill="#313a52"/><path id="XMLID_76511_" d="m416 416h20v20h-20z"/><path id="XMLID_76512_" d="m416 376h20v20h-20z"/><path id="XMLID_76513_" d="m416 336h20v20h-20z"/><path id="XMLID_76514_" d="m76 416h20v20h-20z"/><path id="XMLID_76515_" d="m76 376h20v20h-20z"/><path id="XMLID_76516_" d="m76 336h20v20h-20z"/><path id="XMLID_76517_" d="m256 496c-71.682 0-130-58.317-130-130 0-11.249 1.443-22.436 4.29-33.246 10.373-39.295 38.418-71.268 75.71-86.78v-149.974h-20c-5.523 0-10-4.477-10-10v-60c0-5.523 4.477-10 10-10h140c5.522 0 10 4.477 10 10v60c0 5.523-4.478 10-10 10h-20v149.974c37.292 15.513 65.337 47.485 75.709 86.773 2.848 10.817 4.291 22.004 4.291 33.253 0 71.683-58.317 130-130 130zm-60-420h20c5.523 0 10 4.477 10 10v166.84c0 4.238-2.672 8.017-6.669 9.429-34.356 12.137-60.413 40.393-69.702 75.584-2.407 9.143-3.629 18.615-3.629 28.147 0 60.654 49.346 110 110 110s110-49.346 110-110c0-9.532-1.222-19.004-3.631-28.154-9.288-35.185-35.345-63.44-69.7-75.577-3.997-1.412-6.669-5.19-6.669-9.429v-166.84c0-5.523 4.478-10 10-10h20v-40h-120z"/><path id="XMLID_76520_" d="m486 496h-460c-5.523 0-10-4.478-10-10s4.477-10 10-10h460c5.522 0 10 4.478 10 10s-4.478 10-10 10z"/><path id="XMLID_76521_" d="m231 386h-10c-13.785 0-25-11.215-25-25v-10c0-2.757-2.243-5-5-5h-45c-5.523 0-10-4.478-10-10s4.477-10 10-10h45c13.785 0 25 11.215 25 25v10c0 2.757 2.243 5 5 5h10c2.757 0 5-2.243 5-5v-10c0-13.785 11.215-25 25-25h10c13.785 0 25 11.215 25 25 0 1.33.518 2.578 1.457 3.515.965.967 2.213 1.485 3.543 1.485h10c2.757 0 5-2.243 5-5 0-6.688 2.607-12.968 7.344-17.685 4.688-4.708 10.969-7.315 17.656-7.315h25c5.522 0 10 4.478 10 10s-4.478 10-10 10h-25c-1.33 0-2.578.518-3.515 1.457-.967.965-1.485 2.213-1.485 3.543 0 13.785-11.215 25-25 25h-10c-6.688 0-12.968-2.607-17.685-7.344-4.708-4.688-7.315-10.968-7.315-17.656 0-2.757-2.243-5-5-5h-10c-2.757 0-5 2.243-5 5v10c0 13.785-11.215 25-25 25z"/><path id="XMLID_76522_" d="m126 256h-40c-5.523 0-10-4.477-10-10v-7.578l-5.359 5.359c-3.904 3.905-10.237 3.905-14.142 0l-28.279-28.279c-3.905-3.905-3.905-10.237 0-14.142l5.358-5.36h-7.578c-5.523 0-10-4.477-10-10v-40c0-5.523 4.477-10 10-10h7.578l-5.359-5.359c-3.905-3.905-3.905-10.237 0-14.142l28.279-28.279c3.905-3.905 10.238-3.905 14.142 0l5.36 5.358v-7.578c0-5.523 4.477-10 10-10h40c5.523 0 10 4.477 10 10v7.578l5.359-5.359c3.904-3.905 10.237-3.905 14.142 0l28.279 28.279c3.905 3.905 3.905 10.237 0 14.142l-5.358 5.36h7.578c5.523 0 10 4.477 10 10v40c0 5.523-4.477 10-10 10h-7.578l5.359 5.359c3.905 3.905 3.905 10.237 0 14.142l-28.279 28.279c-3.905 3.905-10.238 3.905-14.142 0l-5.36-5.358v7.578c0 5.523-4.477 10-10 10zm-30-20h20v-21.72c0-4.044 2.437-7.691 6.173-9.239 3.736-1.547 8.037-.693 10.898 2.167l15.359 15.359 14.138-14.138-15.359-15.359c-2.86-2.86-3.715-7.162-2.167-10.898 1.548-3.737 5.194-6.173 9.239-6.173h21.719v-20h-21.72c-4.044 0-7.691-2.437-9.239-6.173s-.692-8.038 2.167-10.898l15.359-15.359-14.138-14.138-15.359 15.359c-2.86 2.86-7.162 3.717-10.898 2.167-3.737-1.548-6.173-5.194-6.173-9.239v-21.718h-19.999v21.72c0 4.044-2.437 7.691-6.173 9.239-3.736 1.546-8.038.692-10.898-2.167l-15.359-15.36-14.138 14.138 15.359 15.359c2.86 2.86 3.715 7.162 2.167 10.898-1.547 3.736-5.193 6.173-9.238 6.173h-21.72v20h21.72c4.044 0 7.691 2.437 9.239 6.173s.692 8.038-2.167 10.898l-15.36 15.359 14.138 14.138 15.359-15.359c2.861-2.859 7.163-3.715 10.898-2.167 3.737 1.548 6.173 5.194 6.173 9.239z"/><path id="XMLID_76525_" d="m106 196c-16.542 0-30-13.458-30-30s13.458-30 30-30 30 13.458 30 30-13.458 30-30 30zm0-40c-5.514 0-10 4.486-10 10s4.486 10 10 10 10-4.486 10-10-4.486-10-10-10z"/><path id="XMLID_76528_" d="m426 276h-40c-5.522 0-10-4.478-10-10v-7.578l-5.358 5.359c-1.875 1.875-4.419 2.929-7.071 2.929s-5.195-1.054-7.071-2.929l-28.28-28.28c-3.905-3.905-3.905-10.237 0-14.142l5.359-5.359h-7.579c-5.522 0-10-4.477-10-10v-40c0-5.523 4.478-10 10-10h7.578l-5.359-5.359c-3.905-3.905-3.905-10.237 0-14.142l28.28-28.28c1.876-1.875 4.419-2.929 7.071-2.929 2.652 0 5.196 1.054 7.071 2.929l5.358 5.358v-7.577c0-5.523 4.478-10 10-10h40c5.522 0 10 4.477 10 10v7.578l5.358-5.358c1.875-1.875 4.419-2.929 7.071-2.929s5.195 1.054 7.071 2.929l28.28 28.28c3.905 3.905 3.905 10.237 0 14.142l-5.357 5.358h7.578c5.522 0 10 4.477 10 10v40c0 5.523-4.478 10-10 10h-7.578l5.359 5.359c3.905 3.905 3.905 10.237 0 14.142l-28.28 28.28c-1.876 1.875-4.419 2.929-7.071 2.929-2.652 0-5.196-1.054-7.071-2.929l-5.359-5.359v7.578c0 5.522-4.478 10-10 10zm-30-20h20v-21.72c0-4.044 2.437-7.691 6.173-9.239 3.737-1.548 8.039-.692 10.898 2.168l15.358 15.359 14.138-14.138-15.358-15.359c-2.859-2.86-3.715-7.161-2.168-10.897 1.548-3.737 5.194-6.173 9.239-6.173h21.72v-20h-21.72c-4.045 0-7.691-2.437-9.239-6.173-1.547-3.736-.691-8.038 2.168-10.897l15.358-15.359-14.138-14.138-15.358 15.359c-2.859 2.86-7.161 3.717-10.898 2.168-3.736-1.548-6.173-5.194-6.173-9.239v-21.722h-20v21.72c0 4.044-2.437 7.691-6.173 9.239-3.738 1.548-8.039.692-10.898-2.168l-15.358-15.359-14.138 14.138 15.358 15.359c2.859 2.86 3.715 7.161 2.168 10.897-1.548 3.737-5.194 6.173-9.239 6.173h-21.72v20h21.72c4.045 0 7.691 2.437 9.239 6.173 1.547 3.736.691 8.038-2.168 10.897l-15.358 15.359 14.138 14.138 15.358-15.359c2.859-2.86 7.161-3.716 10.898-2.168 3.736 1.548 6.173 5.194 6.173 9.239z"/><path id="XMLID_76531_" d="m406 216c-16.542 0-30-13.458-30-30s13.458-30 30-30 30 13.458 30 30-13.458 30-30 30zm0-40c-5.514 0-10 4.486-10 10s4.486 10 10 10 10-4.486 10-10-4.486-10-10-10z"/></g></g></svg>