<svg enable-background="new 0 0 512 512" height="512" viewBox="0 0 512 512" width="512" xmlns="http://www.w3.org/2000/svg"><g id="_x31_561_x2C__Alcoholic_Fermentation_x2C__Chemical_Reaction_x2C__Chemistry_x2C__Nuclear_Fission_x2C__Nuclear_Fusion"><g><path id="XMLID_76564_" d="m326 126h-140-20v40 40 40 60h180v-180z" fill="#d8f2f1"/><path id="XMLID_76565_" d="m166 306v90c0 49.71 40.29 90 90 90s90-40.29 90-90v-90z" fill="#80af52"/><path id="XMLID_76566_" d="m286 396c11.05 0 20 8.95 20 20s-8.95 20-20 20-20-8.95-20-20 8.95-20 20-20z" fill="#536949"/><path id="XMLID_76567_" d="m226 346c11.05 0 20 8.95 20 20s-8.95 20-20 20-20-8.95-20-20 8.95-20 20-20z" fill="#536949"/><path id="XMLID_76568_" d="m266 196c11.05 0 20 8.95 20 20s-8.95 20-20 20-20-8.95-20-20 8.95-20 20-20z" fill="#80af52"/><path id="XMLID_76569_" d="m336 46-10 80h-140l-10-50 30 20 10-50 40 40 10-60 30 60z" fill="#80af52"/><path id="XMLID_76570_" d="m436 326h20v20h-20z"/><path id="XMLID_76571_" d="m416 346h20v20h-20z"/><path id="XMLID_76572_" d="m416 306h20v20h-20z"/><path id="XMLID_76573_" d="m396 326h20v20h-20z"/><path id="XMLID_76574_" d="m96 186h20v20h-20z"/><path id="XMLID_76575_" d="m76 206h20v20h-20z"/><path id="XMLID_76576_" d="m76 166h20v20h-20z"/><path id="XMLID_76577_" d="m56 186h20v20h-20z"/><path id="XMLID_76578_" d="m256 496c-55.14 0-100-44.859-100-100v-270c0-5.523 4.477-10 10-10s10 4.477 10 10v270c0 44.112 35.888 80 80 80s80-35.888 80-80v-270c0-5.523 4.478-10 10-10s10 4.477 10 10v270c0 55.141-44.859 100-100 100z"/><path id="XMLID_76579_" d="m376 136h-240c-5.523 0-10-4.477-10-10s4.477-10 10-10h240c5.522 0 10 4.477 10 10s-4.478 10-10 10z"/><path id="XMLID_76580_" d="m346 316h-180c-5.523 0-10-4.478-10-10s4.477-10 10-10h180c5.522 0 10 4.478 10 10s-4.478 10-10 10z"/><path id="XMLID_76581_" d="m226 396c-16.542 0-30-13.458-30-30s13.458-30 30-30 30 13.458 30 30-13.458 30-30 30zm0-40c-5.514 0-10 4.486-10 10s4.486 10 10 10 10-4.486 10-10-4.486-10-10-10z"/><path id="XMLID_76584_" d="m286 446c-16.542 0-30-13.458-30-30s13.458-30 30-30 30 13.458 30 30-13.458 30-30 30zm0-40c-5.514 0-10 4.486-10 10s4.486 10 10 10 10-4.486 10-10-4.486-10-10-10z"/><path id="XMLID_76587_" d="m266 246c-16.542 0-30-13.458-30-30s13.458-30 30-30 30 13.458 30 30-13.458 30-30 30zm0-40c-5.514 0-10 4.486-10 10s4.486 10 10 10 10-4.486 10-10-4.486-10-10-10z"/><path id="XMLID_76590_" d="m486 496h-460c-5.523 0-10-4.478-10-10s4.477-10 10-10h460c5.522 0 10 4.478 10 10s-4.478 10-10 10z"/><path id="XMLID_76591_" d="m185.989 136.002c-4.669 0-8.844-3.287-9.795-8.041l-10-50c-.793-3.966.881-8.02 4.241-10.271 3.36-2.25 7.746-2.255 11.111-.011l17.576 11.717 7.072-35.358c.723-3.616 3.378-6.541 6.908-7.609s7.361-.108 9.969 2.5l26.259 26.26 6.806-40.833c.712-4.272 4.093-7.601 8.376-8.245 4.288-.644 8.494 1.543 10.432 5.417l23.795 47.59 30.189-30.189c3.02-3.02 7.626-3.789 11.465-1.912 3.838 1.876 6.06 5.984 5.529 10.223l-10 80c-.686 5.48-5.691 9.366-11.163 8.683-5.48-.685-9.367-5.683-8.683-11.163l6.385-51.08-19.391 19.392c-2.273 2.272-5.495 3.315-8.673 2.8-3.173-.515-5.905-2.524-7.343-5.399l-16.247-32.495-4.944 29.667c-.616 3.695-3.245 6.736-6.813 7.879-3.564 1.143-7.473.198-10.123-2.452l-26.787-26.788-6.336 31.678c-.654 3.271-2.896 6-5.979 7.277-3.082 1.276-6.598.933-9.374-.918l-9.913-6.608 5.265 26.327c1.083 5.416-2.429 10.684-7.844 11.767-.66.131-1.32.195-1.97.195z"/><path id="XMLID_76592_" d="m196 176h-30c-5.523 0-10-4.477-10-10s4.477-10 10-10h30c5.523 0 10 4.477 10 10s-4.477 10-10 10z"/><path id="XMLID_76593_" d="m196 216h-30c-5.523 0-10-4.477-10-10s4.477-10 10-10h30c5.523 0 10 4.477 10 10s-4.477 10-10 10z"/><path id="XMLID_76594_" d="m196 256h-30c-5.523 0-10-4.477-10-10s4.477-10 10-10h30c5.523 0 10 4.477 10 10s-4.477 10-10 10z"/></g></g></svg>