<svg enable-background="new 0 0 512 512" height="512" viewBox="0 0 512 512" width="512" xmlns="http://www.w3.org/2000/svg"><g id="_x31_564_x2C__Chemical_Test_x2C__Medicine_Dropper_x2C__Microbiology_x2C__Pipette_Dropper_x2C__Scientific_Research"><g><g fill="#80af52"><path id="XMLID_76799_" d="m92.86 450.22c8.22 16.44-3.73 35.78-22.11 35.78-18.37 0-30.33-19.34-22.11-35.78l22.11-44.22z"/><path id="XMLID_76800_" d="m168.11 410.22c8.22 16.44-3.73 35.78-22.11 35.78s-30.33-19.34-22.11-35.78l20.8-41.6 2.45-.351z"/><path id="XMLID_76801_" d="m288.11 440.22c8.22 16.44-3.73 35.78-22.11 35.78s-30.33-19.34-22.11-35.78l22.11-44.22z"/></g><path id="XMLID_76802_" d="m468.43 43.57c11.71 11.71 17.57 27.07 17.57 42.43s-5.86 30.72-17.57 42.43l-49.5 49.5-84.86-84.86 49.5-49.5c23.43-23.43 61.43-23.43 84.86 0z" fill="#57606f"/><path id="XMLID_76803_" d="m334.07 93.07-176.77 176.78-14.14 98.99 1.53-.22 1.31-2.62 1.14 2.27 95.01-13.57 176.78-176.77z" fill="#d8f2f1"/><path id="XMLID_76804_" d="m466 326h20v20h-20z"/><path id="XMLID_76805_" d="m436 376h20v20h-20z"/><path id="XMLID_76806_" d="m426 326h20v20h-20z"/><path id="XMLID_76807_" d="m396 376h20v20h-20z"/><path id="XMLID_76808_" d="m386 326h20v20h-20z"/><path id="XMLID_76809_" d="m356 376h20v20h-20z"/><path id="XMLID_76810_" d="m346 326h20v20h-20z"/><path id="XMLID_76811_" d="m316 376h20v20h-20z"/><path id="XMLID_76812_" d="m305.79 192.07c3.91 3.9 3.91 10.23 0 14.14-3.9 3.9-10.24 3.9-14.14 0-3.91-3.91-3.91-10.24 0-14.14 3.9-3.91 10.24-3.91 14.14 0z"/><path id="XMLID_76813_" d="m298.72 241.56c3.91 3.91 3.91 10.24 0 14.15-3.899 3.9-10.239 3.9-14.14 0-3.91-3.91-3.91-10.24 0-14.15 3.9-3.9 10.24-3.9 14.14 0z"/><path id="XMLID_76814_" d="m236 86h20v20h-20z"/><path id="XMLID_76815_" d="m249.22 291.06c3.91 3.91 3.91 10.24 0 14.141-3.9 3.91-10.23 3.91-14.14 0-3.9-3.9-3.9-10.23 0-14.141 3.91-3.9 10.24-3.9 14.14 0z"/><path id="XMLID_76816_" d="m242.15 241.56c3.91 3.91 3.91 10.24 0 14.15-3.9 3.9-10.23 3.9-14.14 0-3.91-3.91-3.91-10.24 0-14.15 3.91-3.9 10.24-3.9 14.14 0z"/><path id="XMLID_76817_" d="m196 86h20v20h-20z"/><path id="XMLID_76818_" d="m176 136h20v20h-20z"/><path id="XMLID_76819_" d="m156 86h20v20h-20z"/><path id="XMLID_76820_" d="m136 136h20v20h-20z"/><path id="XMLID_76821_" d="m116 86h20v20h-20z"/><path id="XMLID_76822_" d="m96 136h20v20h-20z"/><path id="XMLID_76823_" d="m56 136h20v20h-20z"/><path id="XMLID_76824_" d="m143.16 378.84c-2.631 0-5.18-1.039-7.068-2.926-2.228-2.227-3.276-5.371-2.831-8.488l14.14-98.99c.306-2.142 1.298-4.127 2.828-5.657l226.271-226.28c13.22-13.221 30.8-20.501 49.5-20.501s36.28 7.281 49.501 20.501c13.219 13.219 20.499 30.799 20.499 49.501s-7.28 36.282-20.499 49.501l-226.28 226.27c-1.53 1.53-3.515 2.522-5.657 2.828l-98.982 14.139c-.475.069-.95.102-1.422.102zm23.568-104.277-11.783 82.49 82.491-11.782 223.922-223.913c9.442-9.441 14.642-21.998 14.642-35.358s-5.2-25.917-14.642-35.359c-9.442-9.443-22-14.644-35.358-14.644s-25.916 5.201-35.358 14.644z"/><path id="XMLID_76827_" d="m440.14 209.14c-2.56 0-5.118-.976-7.071-2.929l-127.28-127.28c-3.905-3.905-3.905-10.237 0-14.143 3.906-3.905 10.236-3.905 14.143 0l127.279 127.28c3.905 3.905 3.905 10.237 0 14.143-1.953 1.953-4.512 2.929-7.071 2.929z"/><path id="XMLID_76828_" d="m146 456c-12.122 0-23.163-6.155-29.536-16.466-6.373-10.312-6.94-22.942-1.519-33.786l22.11-44.221c1.692-3.385 5.15-5.523 8.935-5.527h.009c3.781 0 7.238 2.132 8.936 5.511l1.141 2.27 20.979 41.968c5.421 10.844 4.854 23.475-1.519 33.786-6.373 10.31-17.414 16.465-29.536 16.465zm.001-67.643-13.167 26.334c-2.334 4.668-2.1 9.891.643 14.328 2.742 4.437 7.306 6.98 12.522 6.98s9.781-2.544 12.522-6.98c2.743-4.438 2.977-9.66.643-14.328z"/><path id="XMLID_76831_" d="m266 486c-12.122 0-23.163-6.155-29.536-16.466-6.373-10.312-6.94-22.942-1.519-33.786l22.11-44.22c1.695-3.388 5.157-5.528 8.945-5.528s7.25 2.14 8.944 5.527l22.11 44.22c5.422 10.845 4.854 23.476-1.52 33.787-6.371 10.311-17.412 16.466-29.534 16.466zm0-67.64-13.166 26.331c-2.334 4.668-2.1 9.891.643 14.328 2.742 4.437 7.306 6.98 12.522 6.98s9.78-2.544 12.522-6.98c2.743-4.438 2.978-9.66.644-14.328z"/><path id="XMLID_76834_" d="m70.75 496c-12.12 0-23.16-6.156-29.534-16.469-6.373-10.313-6.941-22.941-1.521-33.783l22.11-44.22c1.695-3.388 5.157-5.528 8.945-5.528s7.25 2.14 8.944 5.528l22.11 44.22c5.422 10.844 4.854 23.475-1.519 33.786-6.372 10.311-17.413 16.466-29.535 16.466zm0-67.64-13.166 26.331c-2.333 4.666-2.098 9.888.645 14.325 2.743 4.439 7.307 6.984 12.521 6.984 5.216 0 9.781-2.544 12.522-6.98 2.743-4.438 2.977-9.66.643-14.328z"/><path id="XMLID_76837_" d="m486 496h-460c-5.523 0-10-4.478-10-10s4.477-10 10-10h460c5.522 0 10 4.478 10 10s-4.478 10-10 10z"/></g></g></svg>