<svg enable-background="new 0 0 512 512" height="512" viewBox="0 0 512 512" width="512" xmlns="http://www.w3.org/2000/svg"><g id="_x31_565_x2C__Computer_Graphics_x2C__Modeling_Api_x2C__Modeling_Application_x2C__Modeling_Tool"><g><path id="XMLID_76902_" d="m256 56c-110.46 0-200 89.54-200 200s89.54 200 200 200 200-89.54 200-200-89.54-200-200-200z" fill="#73665c"/><path id="XMLID_76903_" d="m356 266v60l-50 30-50-30v-60l50-30z" fill="#f14742"/><path id="XMLID_76904_" d="m256 266v60l-50 30-50-30v-60l50-30z" fill="#ea7e23"/><path id="XMLID_76905_" d="m306 176v60l-50 30-50-30v-60l50-30z" fill="#80af52"/><path id="XMLID_76906_" d="m356 206h20v20h-20z"/><path id="XMLID_76907_" d="m246 376h20v20h-20z"/><path id="XMLID_76908_" d="m136 206h20v20h-20z"/><path id="XMLID_76909_" d="m426 66h-170c-5.523 0-10-4.477-10-10s4.477-10 10-10h170c5.522 0 10 4.477 10 10s-4.478 10-10 10z"/><path id="XMLID_76910_" d="m406 96c-2.56 0-5.118-.976-7.071-2.929-3.905-3.905-3.905-10.237 0-14.143l22.928-22.928-22.929-22.929c-3.905-3.905-3.905-10.237 0-14.143 3.906-3.905 10.236-3.905 14.143 0l30 30c3.905 3.905 3.905 10.237 0 14.143l-30 30c-1.953 1.953-4.511 2.929-7.071 2.929z"/><path id="XMLID_76911_" d="m256 466h-170c-5.523 0-10-4.478-10-10s4.477-10 10-10h170c5.522 0 10 4.478 10 10s-4.478 10-10 10z"/><path id="XMLID_76912_" d="m106 496c-2.559 0-5.119-.977-7.071-2.929l-30-30c-3.905-3.905-3.905-10.237 0-14.143l30-30c3.905-3.904 10.237-3.904 14.143 0 3.905 3.905 3.905 10.237 0 14.143l-22.93 22.929 22.929 22.929c3.905 3.905 3.905 10.237 0 14.143-1.952 1.951-4.512 2.928-7.071 2.928z"/><path id="XMLID_76913_" d="m456 436c-5.522 0-10-4.478-10-10v-170c0-5.523 4.478-10 10-10s10 4.477 10 10v170c0 5.522-4.478 10-10 10z"/><path id="XMLID_76914_" d="m456 446c-2.56 0-5.118-.977-7.071-2.929l-30-30c-3.905-3.905-3.905-10.237 0-14.143 3.906-3.904 10.236-3.904 14.143 0l22.928 22.929 22.929-22.929c3.906-3.904 10.236-3.904 14.143 0 3.905 3.905 3.905 10.237 0 14.143l-30 30c-1.954 1.952-4.512 2.929-7.072 2.929z"/><path id="XMLID_76915_" d="m56 266c-5.523 0-10-4.478-10-10v-170c0-5.523 4.477-10 10-10s10 4.477 10 10v170c0 5.522-4.477 10-10 10z"/><path id="XMLID_76916_" d="m86 116c-2.559 0-5.119-.976-7.071-2.929l-22.929-22.929-22.929 22.929c-3.905 3.905-10.237 3.905-14.143 0-3.905-3.905-3.905-10.237 0-14.143l30-30c3.905-3.905 10.237-3.905 14.143 0l30 30c3.905 3.905 3.905 10.237 0 14.143-1.952 1.953-4.512 2.929-7.071 2.929z"/><path id="XMLID_76917_" d="m306 246c-5.522 0-10-4.477-10-10v-54.338l-40-24-40 24v54.338c0 5.523-4.477 10-10 10s-10-4.477-10-10v-60c0-3.513 1.843-6.768 4.855-8.575l50-30c3.167-1.9 7.125-1.9 10.29 0l50 30c3.013 1.807 4.855 5.062 4.855 8.575v60c0 5.523-4.478 10-10 10z"/><path id="XMLID_76918_" d="m306 366c-1.781 0-3.562-.475-5.145-1.425l-50-30c-4.736-2.842-6.271-8.984-3.43-13.72s8.987-6.269 13.719-3.431l44.856 26.914 40-24v-48.676l-40-24-44.855 26.913c-4.734 2.839-10.878 1.307-13.719-3.431-2.842-4.735-1.306-10.878 3.43-13.72l50-30c3.166-1.9 7.123-1.9 10.289 0l50 30c3.013 1.808 4.855 5.063 4.855 8.575v60c0 3.513-1.843 6.768-4.855 8.575l-50 30c-1.583.951-3.364 1.426-5.145 1.426z"/><path id="XMLID_76919_" d="m206 366c-1.781 0-3.562-.475-5.145-1.425l-50-30c-3.012-1.807-4.855-5.062-4.855-8.575v-60c0-3.513 1.843-6.768 4.855-8.575l50-30c3.167-1.9 7.123-1.9 10.29 0l50 30c3.013 1.808 4.855 5.063 4.855 8.575v60c0 3.513-1.843 6.768-4.855 8.575l-50 30c-1.583.95-3.364 1.425-5.145 1.425zm-40-45.662 40 24 40-24v-48.676l-40-24-40 24z"/><path id="XMLID_76922_" d="m256 466c-115.794 0-210-94.206-210-210s94.206-210 210-210 210 94.206 210 210-94.206 210-210 210zm0-400c-104.767 0-190 85.233-190 190s85.233 190 190 190 190-85.233 190-190-85.233-190-190-190z"/></g></g></svg>