<svg enable-background="new 0 0 512 512" height="512" viewBox="0 0 512 512" width="512" xmlns="http://www.w3.org/2000/svg"><g id="_x31_566_x2C__Chemical_Flask_x2C__Erlenmeyer_Flask_x2C__Lab_Glassware_x2C__Sample_Flask_x2C__Test_Tube"><g><g fill="#ef727a"><path id="XMLID_76969_" d="m383.991 288.43c5.59 13.051-3.99 27.57-18.19 27.57s-23.77-14.52-18.18-27.57l18.18-42.43z"/><path id="XMLID_76970_" d="m454.381 368.43c5.59 13.051-3.979 27.57-18.18 27.57s-23.78-14.52-18.19-27.57l18.19-42.43z"/><path id="XMLID_76971_" d="m383.991 458.43c5.59 13.051-3.99 27.57-18.19 27.57s-23.77-14.52-18.18-27.57l18.18-42.43z"/></g><path id="XMLID_76972_" d="m261.251 372.15c10.79 12.56 9.36 31.5-3.21 42.3-5.66 4.87-12.61 7.25-19.54 7.25-8.44 0-16.83-3.54-22.76-10.45l-182.49-212.36c-10.8-12.56-9.37-31.51 3.2-42.3 5.66-4.87 12.61-7.25 19.54-7.25 8.44 0 16.83 3.54 22.76 10.45l6.52 7.58 169.46 197.189z" fill="#b2dbd8"/><path id="XMLID_76973_" d="m399.781 134.43-30.34 26.07-45.5 39.11-69.21 164.95-169.46-197.19 173.49-43.61 113.76-97.76 65.18 75.84z" fill="#d8f2f1"/><path id="XMLID_76974_" d="m146.001 426h20v20h-20z"/><path id="XMLID_76975_" d="m106.001 426h20v20h-20z"/><path id="XMLID_76976_" d="m66.001 426h20v20h-20z"/><path id="XMLID_76977_" d="m365.801 496c-10.038 0-19.33-5.003-24.856-13.382-5.528-8.382-6.469-18.896-2.516-28.126l18.181-42.431c1.575-3.677 5.19-6.062 9.19-6.062s7.616 2.383 9.192 6.06l18.19 42.43c3.953 9.229 3.012 19.741-2.516 28.123-5.528 8.383-14.824 13.388-24.865 13.388zm.003-54.615-8.991 20.983c-1.317 3.076-1.016 6.443.827 9.238 1.842 2.792 4.816 4.394 8.161 4.394 3.349 0 6.326-1.604 8.171-4.399 1.842-2.794 2.144-6.159.827-9.233z"/><path id="XMLID_76980_" d="m436.201 406c-10.041 0-19.337-5.005-24.866-13.388-5.527-8.382-6.469-18.894-2.517-28.12l18.191-42.433c1.576-3.676 5.191-6.06 9.191-6.06h.001c4 0 7.615 2.385 9.19 6.062l18.18 42.43c3.954 9.23 3.014 19.745-2.515 28.127-5.525 8.379-14.817 13.382-24.855 13.382zm-.003-54.615-8.996 20.985c-1.315 3.071-1.014 6.437.828 9.23 1.845 2.796 4.822 4.399 8.171 4.399 3.345 0 6.319-1.602 8.161-4.394 1.843-2.795 2.145-6.162.826-9.239z"/><path id="XMLID_76983_" d="m365.801 326c-10.038 0-19.33-5.003-24.856-13.382-5.528-8.382-6.469-18.896-2.516-28.126l18.181-42.431c1.575-3.677 5.19-6.061 9.19-6.062s7.616 2.383 9.192 6.06l18.19 42.43c3.953 9.229 3.012 19.741-2.516 28.123-5.528 8.383-14.824 13.388-24.865 13.388zm.003-54.615-8.991 20.983c-1.317 3.076-1.016 6.443.827 9.238 1.842 2.792 4.816 4.394 8.161 4.394 3.349 0 6.326-1.604 8.171-4.399 1.842-2.794 2.144-6.159.827-9.233z"/><path id="XMLID_76986_" d="m238.501 431.7c-11.686 0-22.748-5.08-30.349-13.938l-182.485-212.354c-6.964-8.099-10.356-18.429-9.551-29.085.806-10.658 5.714-20.361 13.822-27.32 7.238-6.228 16.494-9.662 26.053-9.662 11.686 0 22.747 5.08 30.349 13.938l6.512 7.571c3.602 4.187 3.127 10.501-1.06 14.102-4.188 3.602-10.501 3.126-14.102-1.06l-6.52-7.58c-3.805-4.434-9.334-6.971-15.179-6.971-4.774 0-9.397 1.715-13.018 4.831-4.059 3.484-6.512 8.333-6.914 13.66-.403 5.327 1.292 10.491 4.774 14.541l182.492 212.362c3.801 4.43 9.331 6.968 15.175 6.968 4.774 0 9.397-1.716 13.018-4.83 8.37-7.191 9.331-19.841 2.147-28.203l-6.521-7.592c-3.599-4.189-3.119-10.503 1.07-14.102 4.19-3.598 10.503-3.119 14.101 1.07l6.521 7.591c14.369 16.726 12.45 42.027-4.279 56.4-7.241 6.229-16.496 9.663-26.056 9.663z"/><path id="XMLID_76987_" d="m254.73 374.56c-2.889 0-5.667-1.253-7.583-3.482l-169.46-197.19c-2.259-2.628-2.996-6.239-1.948-9.542 1.049-3.303 3.733-5.829 7.094-6.673l171.2-43.035 111.97-96.222c4.189-3.599 10.503-3.121 14.102 1.066l65.181 75.84c3.6 4.188 3.122 10.502-1.066 14.102l-111.97 96.231-68.298 162.773c-1.341 3.195-4.241 5.47-7.665 6.009-.519.083-1.04.123-1.557.123zm-151.329-201.436 148.369 172.647 62.95-150.03c.601-1.431 1.526-2.703 2.703-3.714l106.177-91.253-52.146-60.672-106.176 91.243c-1.178 1.012-2.574 1.735-4.08 2.114z"/><path id="XMLID_76990_" d="m339.105 196.57c-2.814 0-5.611-1.181-7.59-3.483l-26.069-30.34c-3.599-4.189-3.121-10.502 1.068-14.102s10.502-3.121 14.102 1.067l26.069 30.34c3.599 4.189 3.121 10.502-1.067 14.102-1.888 1.622-4.206 2.416-6.513 2.416z"/><path id="XMLID_76991_" d="m369.446 170.5c-2.814 0-5.611-1.181-7.59-3.483l-26.07-30.34c-3.599-4.188-3.121-10.502 1.067-14.102 4.191-3.6 10.503-3.12 14.103 1.067l26.07 30.34c3.599 4.188 3.121 10.502-1.067 14.102-1.888 1.622-4.206 2.416-6.513 2.416z"/><path id="XMLID_76992_" d="m399.786 144.43c-2.814 0-5.611-1.181-7.589-3.482l-19.55-22.75c-3.6-4.189-3.122-10.502 1.066-14.102 4.189-3.6 10.504-3.12 14.102 1.067l19.55 22.75c3.6 4.189 3.122 10.502-1.066 14.102-1.887 1.621-4.206 2.415-6.513 2.415z"/><path id="XMLID_76993_" d="m258.046 424.45c-2.814 0-5.611-1.181-7.589-3.482l-65.17-75.84c-3.6-4.188-3.122-10.503 1.067-14.102 4.189-3.601 10.502-3.123 14.102 1.066l65.169 75.84c3.6 4.188 3.122 10.503-1.066 14.102-1.888 1.622-4.206 2.416-6.513 2.416z"/><path id="XMLID_76994_" d="m486.001 496h-460c-5.523 0-10-4.478-10-10s4.477-10 10-10h460c5.522 0 10 4.478 10 10s-4.478 10-10 10z"/></g></g></svg>