<svg enable-background="new 0 0 512 512" height="512" viewBox="0 0 512 512" width="512" xmlns="http://www.w3.org/2000/svg"><g id="_x31_567_x2C__Chemical_Flask_x2C__Erlenmeyer_Flask_x2C__Lab_Flask_x2C__Lab_Glassware_x2C__Test_Tube"><g><g fill="#ef727a"><path id="XMLID_77019_" d="m366 256c11.05 0 20 8.95 20 20s-8.95 20-20 20-20-8.95-20-20 8.95-20 20-20z"/><path id="XMLID_77020_" d="m276 26c11.05 0 20 8.95 20 20s-8.95 20-20 20-20-8.95-20-20 8.95-20 20-20z"/><path id="XMLID_77021_" d="m216 66c11.05 0 20 8.95 20 20s-8.95 20-20 20-20-8.95-20-20 8.95-20 20-20z"/><path id="XMLID_77022_" d="m146 206c11.05 0 20 8.95 20 20s-8.95 20-20 20-20-8.95-20-20 8.95-20 20-20z"/></g><path id="XMLID_77023_" d="m203.1 326v-220h12.9 87.1v220l34.42 48.93-1.52 1.07c-99 55-170 10-170 10l-3.41-2.4z" fill="#d8f2f1"/><path id="XMLID_77024_" d="m373.01 425.39c10.79 15.351 9.41 36.45-3.92 49.66-6.399 6.351-15.06 10.51-25.06 10.92-.561.021-1.12.03-1.681.03h-178.5c-.56 0-1.12-.01-1.68-.03-10-.41-18.66-4.569-25.06-10.92-13.32-13.21-14.71-34.31-3.91-49.66l29.39-41.79 3.411 2.4s71 45 170-10l1.52-1.07z" fill="#ef727a"/><path id="XMLID_77025_" d="m436 316h20v20h-20z"/><path id="XMLID_77026_" d="m436 266h20v20h-20z"/><path id="XMLID_77027_" d="m436 216h20v20h-20z"/><path id="XMLID_77028_" d="m436 166h20v20h-20z"/><path id="XMLID_77029_" d="m436 116h20v20h-20z"/><path id="XMLID_77030_" d="m56 316h20v20h-20z"/><path id="XMLID_77031_" d="m56 266h20v20h-20z"/><path id="XMLID_77032_" d="m56 216h20v20h-20z"/><path id="XMLID_77033_" d="m56 166h20v20h-20z"/><path id="XMLID_77034_" d="m56 116h20v20h-20z"/><path id="XMLID_77035_" d="m163.85 496c-.682 0-1.364-.012-2.046-.037-12-.492-23.255-5.397-31.738-13.814-16.732-16.594-18.854-42.886-5.045-62.513l68.079-96.8v-216.836c0-5.523 4.477-10 10-10s10 4.477 10 10v220c0 2.06-.636 4.068-1.82 5.753l-69.9 99.39c-8.179 11.624-7.013 27.104 2.771 36.807 3.489 3.462 9.516 7.663 18.428 8.029.395.014.833.021 1.271.021 5.523 0 10 4.478 10 10s-4.477 10-10 10z"/><path id="XMLID_77036_" d="m342.35 496c-5.522 0-10-4.478-10-10s4.478-10 10-10c.438 0 .877-.008 1.315-.023 8.868-.364 14.895-4.565 18.381-8.024 9.79-9.702 10.958-25.182 2.783-36.812l-69.908-99.387c-1.186-1.685-1.821-3.694-1.821-5.754v-220c0-5.523 4.478-10 10-10s10 4.477 10 10v216.835l68.09 96.802c13.805 19.64 11.676 45.931-5.061 62.516-8.478 8.413-19.732 13.318-31.688 13.809-.728.026-1.409.038-2.091.038z"/><path id="XMLID_77037_" d="m343.1 116h-180c-5.523 0-10-4.477-10-10s4.477-10 10-10h180c5.522 0 10 4.477 10 10s-4.478 10-10 10z"/><path id="XMLID_77038_" d="m237.452 413.301c-9.313 0-17.696-.717-25.014-1.779-31.872-4.629-50.993-16.569-51.792-17.075-4.665-2.956-6.049-9.135-3.093-13.8 2.951-4.655 9.112-6.042 13.773-3.109.323.199 17.165 10.486 45.01 14.337 37.455 5.178 76.083-3.102 114.807-24.615 4.827-2.682 10.916-.944 13.598 3.885 2.683 4.828.943 10.916-3.885 13.598-40.064 22.256-75.798 28.558-103.404 28.558z"/><path id="XMLID_77039_" d="m146 256c-16.542 0-30-13.458-30-30s13.458-30 30-30 30 13.458 30 30-13.458 30-30 30zm0-40c-5.514 0-10 4.486-10 10s4.486 10 10 10 10-4.486 10-10-4.486-10-10-10z"/><path id="XMLID_77042_" d="m276 76c-16.542 0-30-13.458-30-30s13.458-30 30-30 30 13.458 30 30-13.458 30-30 30zm0-40c-5.514 0-10 4.486-10 10s4.486 10 10 10 10-4.486 10-10-4.486-10-10-10z"/><path id="XMLID_77045_" d="m216 116c-16.542 0-30-13.458-30-30s13.458-30 30-30 30 13.458 30 30-13.458 30-30 30zm0-40c-5.514 0-10 4.486-10 10s4.486 10 10 10 10-4.486 10-10-4.486-10-10-10z"/><path id="XMLID_77048_" d="m366 306c-16.542 0-30-13.458-30-30s13.458-30 30-30 30 13.458 30 30-13.458 30-30 30zm0-40c-5.514 0-10 4.486-10 10s4.486 10 10 10 10-4.486 10-10-4.486-10-10-10z"/><path id="XMLID_77051_" d="m486 496h-460c-5.523 0-10-4.478-10-10s4.477-10 10-10h460c5.522 0 10 4.478 10 10s-4.478 10-10 10z"/><path id="XMLID_77052_" d="m246 166h-40c-5.523 0-10-4.477-10-10s4.477-10 10-10h40c5.523 0 10 4.477 10 10s-4.477 10-10 10z"/><path id="XMLID_77053_" d="m246 206h-40c-5.523 0-10-4.477-10-10s4.477-10 10-10h40c5.523 0 10 4.477 10 10s-4.477 10-10 10z"/><path id="XMLID_77054_" d="m246 246h-40c-5.523 0-10-4.477-10-10s4.477-10 10-10h40c5.523 0 10 4.477 10 10s-4.477 10-10 10z"/><path id="XMLID_77055_" d="m246 286h-40c-5.523 0-10-4.478-10-10s4.477-10 10-10h40c5.523 0 10 4.478 10 10s-4.477 10-10 10z"/></g></g></svg>