<svg enable-background="new 0 0 512 512" height="512" viewBox="0 0 512 512" width="512" xmlns="http://www.w3.org/2000/svg"><g id="_x31_568_x2C__Authority_Responsibility_x2C__Team_Management_x2C__Team_Performance_x2C__Work_Management_x2C__Work_Plan"><g><g fill="#535e89"><circle id="XMLID_77102_" cx="456" cy="456" r="30"/><circle id="XMLID_77103_" cx="326" cy="456" r="30"/><circle id="XMLID_77104_" cx="186" cy="456" r="30"/><circle id="XMLID_77105_" cx="56" cy="456" r="30"/></g><path id="XMLID_77106_" d="m396 152.92v46.16l-38 4.75c-2.8 11.31-7.27 21.96-13.13 31.68l23.51 30.24-32.63 32.63-30.24-23.51c-9.72 5.86-20.37 10.33-31.68 13.13l-4.75 38h-23.08-23.08l-4.75-38c-11.31-2.8-21.96-7.27-31.68-13.13l-30.24 23.51-32.63-32.63 23.51-30.24c-5.86-9.72-10.33-20.37-13.13-31.68l-38-4.75v-46.16l38-4.75c2.8-11.31 7.27-21.96 13.13-31.68l-23.51-30.24 32.63-32.63 30.24 23.51c9.72-5.86 20.37-10.33 31.68-13.13l4.75-38h46.16l4.75 38c11.31 2.8 21.96 7.27 31.68 13.13l30.24-23.51 32.63 32.63-23.51 30.24c5.86 9.72 10.33 20.37 13.13 31.68zm-90 23.08c0-33.14-26.86-60-60-60s-60 26.86-60 60 26.86 60 60 60 60-26.86 60-60z" fill="#e3835a"/><path id="XMLID_77112_" d="m456 256h20v20h-20z"/><path id="XMLID_77113_" d="m436 276h20v20h-20z"/><path id="XMLID_77114_" d="m436 236h20v20h-20z"/><path id="XMLID_77115_" d="m416 256h20v20h-20z"/><path id="XMLID_77116_" d="m376 406h20v20h-20z"/><path id="XMLID_77117_" d="m246 406h20v20h-20z"/><path id="XMLID_77118_" d="m106 406h20v20h-20z"/><path id="XMLID_77119_" d="m76 56h20v20h-20z"/><path id="XMLID_77120_" d="m56 76h20v20h-20z"/><path id="XMLID_77121_" d="m56 36h20v20h-20z"/><path id="XMLID_77122_" d="m36 56h20v20h-20z"/><path id="XMLID_77123_" d="m269.08 336h-46.16c-5.043 0-9.297-3.756-9.923-8.76l-3.924-31.39c-7.497-2.307-14.758-5.316-21.704-8.997l-24.981 19.421c-3.981 3.096-9.643 2.741-13.209-.823l-32.63-32.63c-3.565-3.565-3.918-9.229-.824-13.209l19.422-24.982c-3.681-6.946-6.691-14.208-8.998-21.704l-31.39-3.924c-5.004-.625-8.76-4.879-8.76-9.923v-46.16c0-5.043 3.755-9.297 8.76-9.923l31.39-3.924c2.307-7.496 5.317-14.757 8.998-21.704l-19.422-24.982c-3.095-3.981-2.742-9.643.824-13.209l32.63-32.63c3.566-3.564 9.229-3.917 13.209-.824l24.982 19.422c6.946-3.681 14.208-6.691 21.704-8.998l3.924-31.39c.625-5.004 4.879-8.76 9.923-8.76h46.16c5.043 0 9.297 3.755 9.923 8.76l3.924 31.39c7.496 2.307 14.758 5.317 21.704 8.998l24.981-19.422c3.981-3.095 9.644-2.741 13.209.824l32.63 32.63c3.565 3.566 3.918 9.228.823 13.209l-19.421 24.981c3.681 6.946 6.69 14.208 8.997 21.704l31.39 3.924c5.004.625 8.76 4.879 8.76 9.923v46.16c0 5.043-3.756 9.297-8.76 9.923l-31.39 3.924c-2.307 7.497-5.316 14.758-8.997 21.704l19.421 24.981c3.095 3.98 2.742 9.644-.823 13.209l-32.63 32.63c-3.565 3.565-9.227 3.919-13.209.823l-24.981-19.421c-6.946 3.68-14.207 6.69-21.704 8.997l-3.924 31.39c-.627 5.006-4.881 8.762-9.924 8.762zm-37.332-20h28.504l3.655-29.24c.514-4.106 3.503-7.473 7.52-8.467 10.176-2.52 19.906-6.552 28.92-11.986 3.541-2.136 8.035-1.87 11.301.669l23.272 18.093 20.148-20.148-18.093-23.272c-2.539-3.266-2.806-7.758-.669-11.301 5.435-9.014 9.468-18.744 11.986-28.919.994-4.017 4.36-7.007 8.467-7.52l29.24-3.655v-28.505l-29.24-3.655c-4.106-.513-7.473-3.503-8.467-7.52-2.519-10.175-6.552-19.905-11.986-28.919-2.137-3.543-1.87-8.035.669-11.301l18.093-23.272-20.148-20.15-23.272 18.093c-3.267 2.539-7.759 2.804-11.301.669-9.016-5.435-18.745-9.468-28.92-11.987-4.017-.995-7.006-4.36-7.52-8.467l-3.655-29.24h-28.504l-3.655 29.24c-.513 4.106-3.503 7.472-7.52 8.467-10.174 2.519-19.904 6.552-28.919 11.987-3.544 2.136-8.035 1.868-11.301-.669l-23.273-18.093-20.148 20.148 18.093 23.272c2.539 3.266 2.805 7.758.669 11.301-5.435 9.016-9.468 18.746-11.987 28.919-.995 4.017-4.36 7.007-8.467 7.52l-29.24 3.656v28.505l29.24 3.655c4.106.513 7.472 3.503 8.467 7.52 2.519 10.174 6.552 19.904 11.987 28.919 2.136 3.542 1.87 8.035-.669 11.301l-18.093 23.272 20.148 20.148 23.272-18.093c3.266-2.539 7.758-2.806 11.301-.669 9.014 5.435 18.744 9.468 28.919 11.986 4.017.994 7.007 4.36 7.52 8.467z"/><path id="XMLID_77126_" d="m246 246c-38.598 0-70-31.402-70-70s31.402-70 70-70 70 31.402 70 70-31.402 70-70 70zm0-120c-27.57 0-50 22.43-50 50s22.43 50 50 50 50-22.43 50-50-22.43-50-50-50z"/><path id="XMLID_77129_" d="m56 496c-22.056 0-40-17.944-40-40s17.944-40 40-40 40 17.944 40 40-17.944 40-40 40zm0-60c-11.028 0-20 8.972-20 20s8.972 20 20 20 20-8.972 20-20-8.972-20-20-20z"/><path id="XMLID_77132_" d="m186 496c-22.056 0-40-17.944-40-40s17.944-40 40-40 40 17.944 40 40-17.944 40-40 40zm0-60c-11.028 0-20 8.972-20 20s8.972 20 20 20 20-8.972 20-20-8.972-20-20-20z"/><path id="XMLID_77135_" d="m326 496c-22.056 0-40-17.944-40-40s17.944-40 40-40 40 17.944 40 40-17.944 40-40 40zm0-60c-11.028 0-20 8.972-20 20s8.972 20 20 20 20-8.972 20-20-8.972-20-20-20z"/><path id="XMLID_77138_" d="m456 496c-22.056 0-40-17.944-40-40s17.944-40 40-40 40 17.944 40 40-17.944 40-40 40zm0-60c-11.028 0-20 8.972-20 20s8.972 20 20 20 20-8.972 20-20-8.972-20-20-20z"/><path id="XMLID_77141_" d="m456 436c-5.522 0-10-4.478-10-10v-30h-380v30c0 5.522-4.477 10-10 10s-10-4.478-10-10v-40c0-5.522 4.477-10 10-10h400c5.522 0 10 4.478 10 10v40c0 5.522-4.478 10-10 10z"/><path id="XMLID_77142_" d="m326 436c-5.522 0-10-4.478-10-10v-40c0-5.522 4.478-10 10-10s10 4.478 10 10v40c0 5.522-4.478 10-10 10z"/><path id="XMLID_77143_" d="m186 436c-5.523 0-10-4.478-10-10v-40c0-5.522 4.477-10 10-10s10 4.478 10 10v40c0 5.522-4.477 10-10 10z"/><path id="XMLID_77144_" d="m246 396c-5.523 0-10-4.478-10-10v-60c0-5.522 4.477-10 10-10s10 4.478 10 10v60c0 5.522-4.477 10-10 10z"/></g></g></svg>