<svg enable-background="new 0 0 512 512" height="512" viewBox="0 0 512 512" width="512" xmlns="http://www.w3.org/2000/svg"><g id="_x31_569_x2C__Chemical_Flask_x2C__Erlenmeyer_Flask_x2C__Lab_Flask_x2C__Lab_Glassware_x2C__Test_Tube"><g><path id="XMLID_77197_" d="m26 206h460v280h-460z" fill="#73665c"/><g fill="#b2dbd8"><path id="XMLID_77200_" d="m456 136c11.05 0 20 8.95 20 20s-8.95 20-20 20-20-8.95-20-20 8.95-20 20-20z"/><path id="XMLID_77201_" d="m66 106c11.05 0 20 8.95 20 20s-8.95 20-20 20-20-8.95-20-20 8.95-20 20-20z"/><path id="XMLID_77202_" d="m184.26 26v40h-13.33-53.34-13.33v-40z"/><path id="XMLID_77203_" d="m406 26v40h-13.33-53.34-13.33v-40z"/></g><path id="XMLID_77204_" d="m179.58 208.67 44.68 107.33h-160l45.19-108.56 8.14-19.56v-121.88h53.34v121.88z" fill="#d8f2f1"/><path id="XMLID_77205_" d="m286 316 44.93-107.95 8.4-20.17v-121.88h53.34v121.88l8.4 20.17 44.93 107.95z" fill="#d8f2f1"/><path id="XMLID_77206_" d="m396 406h20v20h-20z"/><path id="XMLID_77207_" d="m346 406h20v20h-20z"/><path id="XMLID_77208_" d="m296 406h20v20h-20z"/><path id="XMLID_77209_" d="m266 116h20v20h-20z"/><path id="XMLID_77210_" d="m246 406h20v20h-20z"/><path id="XMLID_77211_" d="m246 136h20v20h-20z"/><path id="XMLID_77212_" d="m246 96h20v20h-20z"/><path id="XMLID_77213_" d="m226 116h20v20h-20z"/><path id="XMLID_77214_" d="m196 406h20v20h-20z"/><path id="XMLID_77215_" d="m146 406h20v20h-20z"/><path id="XMLID_77216_" d="m96 406h20v20h-20z"/><path id="XMLID_77217_" d="m326 216h-140c-5.523 0-10-4.477-10-10s4.477-10 10-10h140c5.522 0 10 4.477 10 10s-4.478 10-10 10z"/><path id="XMLID_77218_" d="m26 496c-5.523 0-10-4.478-10-10v-280c0-5.523 4.477-10 10-10h80c5.523 0 10 4.477 10 10s-4.477 10-10 10h-70v270c0 5.522-4.477 10-10 10z"/><path id="XMLID_77219_" d="m486 496c-5.522 0-10-4.478-10-10v-270h-70c-5.522 0-10-4.477-10-10s4.478-10 10-10h80c5.522 0 10 4.477 10 10v280c0 5.522-4.478 10-10 10z"/><path id="XMLID_77220_" d="m184.26 76h-13.33c-5.523 0-10-4.477-10-10s4.477-10 10-10h3.33v-20h-60v20h3.33c5.523 0 10 4.477 10 10s-4.477 10-10 10h-13.33c-5.523 0-10-4.477-10-10v-40c0-5.523 4.477-10 10-10h80c5.523 0 10 4.477 10 10v40c0 5.523-4.477 10-10 10z"/><path id="XMLID_77221_" d="m224.26 326h-160c-3.343 0-6.465-1.671-8.319-4.451-1.855-2.781-2.197-6.306-.913-9.392l52.562-126.275v-119.882c0-5.523 4.477-10 10-10h53.34c5.523 0 10 4.477 10 10v119.882l52.562 126.275c1.285 3.086.942 6.61-.912 9.392-1.855 2.78-4.977 4.451-8.32 4.451zm-145.006-20h130.011l-47.568-114.279c-.506-1.217-.767-2.523-.767-3.841v-111.88h-33.34v111.88c0 1.319-.261 2.625-.768 3.842z"/><path id="XMLID_77224_" d="m406 76h-13.33c-5.522 0-10-4.477-10-10s4.478-10 10-10h3.33v-20h-60v20h3.33c5.522 0 10 4.477 10 10s-4.478 10-10 10h-13.33c-5.522 0-10-4.477-10-10v-40c0-5.523 4.478-10 10-10h80c5.522 0 10 4.477 10 10v40c0 5.523-4.478 10-10 10z"/><path id="XMLID_77225_" d="m446 326h-160c-3.343 0-6.465-1.67-8.319-4.451s-2.197-6.305-.913-9.392l52.563-126.276v-119.881c0-5.523 4.478-10 10-10h53.34c5.522 0 10 4.477 10 10v119.881l52.563 126.276c1.284 3.087.941 6.61-.913 9.392s-4.978 4.451-8.321 4.451zm-145.007-20h130.014l-47.568-114.275c-.507-1.218-.769-2.525-.769-3.845v-111.88h-33.34v111.88c0 1.32-.262 2.626-.769 3.845z"/><path id="XMLID_77228_" d="m486 496h-460c-5.523 0-10-4.478-10-10s4.477-10 10-10h460c5.522 0 10 4.478 10 10s-4.478 10-10 10z"/><path id="XMLID_77229_" d="m206 286h-80c-5.523 0-10-4.478-10-10s4.477-10 10-10h80c5.523 0 10 4.478 10 10s-4.477 10-10 10z"/><path id="XMLID_77230_" d="m386 286h-80c-5.522 0-10-4.478-10-10s4.478-10 10-10h80c5.522 0 10 4.478 10 10s-4.478 10-10 10z"/><path id="XMLID_77231_" d="m66 156c-16.542 0-30-13.458-30-30s13.458-30 30-30 30 13.458 30 30-13.458 30-30 30zm0-40c-5.514 0-10 4.486-10 10s4.486 10 10 10 10-4.486 10-10-4.486-10-10-10z"/><path id="XMLID_77234_" d="m456 186c-16.542 0-30-13.458-30-30s13.458-30 30-30 30 13.458 30 30-13.458 30-30 30zm0-40c-5.514 0-10 4.486-10 10s4.486 10 10 10 10-4.486 10-10-4.486-10-10-10z"/></g></g></svg>