<svg enable-background="new 0 0 512 512" height="512" viewBox="0 0 512 512" width="512" xmlns="http://www.w3.org/2000/svg"><g id="_x31_570_x2C__Applied_Science_x2C__Computer_Sciences_x2C__Engineering_x2C__Technic_x2C__Technology"><g><path id="XMLID_77288_" d="m256 154c16.6 0 30.05 12.09 30.05 27s-13.45 27-30.05 27-30.05-12.09-30.05-27 13.45-27 30.05-27z" fill="#d8f2f1"/><path id="XMLID_77289_" d="m334.94 164.17c5 5.1 9.8 10.72 14.359 16.86-4.55 6.13-9.34 11.74-14.33 16.83-12.01 12.24-25.16 21.46-38.899 27.65v.01c-13 5.86-26.511 9.02-40.07 9.48-12.62.43-25.29-1.49-37.6-5.76-13.86-4.8-27.27-12.57-39.68-23.32-8.11-7.03-15.8-15.32-22.9-24.89 7.1-9.57 14.79-17.86 22.9-24.89 12.41-10.75 25.82-18.52 39.68-23.32 12.31-4.27 24.98-6.19 37.6-5.76 13.49.45 26.93 3.58 39.87 9.4 13.8 6.19 27.01 15.43 39.07 27.71zm-48.89 16.83c0-14.91-13.45-27-30.05-27s-30.05 12.09-30.05 27 13.45 27 30.05 27 30.05-12.09 30.05-27z" fill="#3c3b3d"/><g fill="#3e4767"><path id="XMLID_77292_" d="m306.09 316v-36l-10.02-9v-45.48-.01c13.739-6.19 26.89-15.41 38.899-27.65l1.17 1.14v72l30.051 18v27z"/><path id="XMLID_77293_" d="m366.19 46v27l-30.05 18v72l-1.199 1.17c-12.061-12.28-25.271-21.52-39.07-27.71l.2-.46v-45l10.02-9v-36z"/><path id="XMLID_77294_" d="m256 235v81h-50.09v-36l10.02-9v-36l2.47-5.76c12.31 4.27 24.98 6.19 37.6 5.76z"/><path id="XMLID_77295_" d="m256 127v.06c-12.62-.43-25.29 1.49-37.6 5.76l-2.47-5.82v-36l-10.02-9v-36h50.09z"/></g><path id="XMLID_77296_" d="m306.09 280v36h-50.09v-81c13.56-.46 27.07-3.62 40.07-9.48v45.48z" fill="#313a52"/><path id="XMLID_77297_" d="m484.41 434.26-58.41-118.26h-59.81-60.1-50.09-50.09-60.1-59.81l-58.41 118.26c-6.03 15.36 5.86 31.74 23.03 31.74h410.76c17.17 0 29.06-16.38 23.03-31.74z" fill="#57606f"/><path id="XMLID_77298_" d="m426.3 46v270h-.3-59.81v-27l-30.051-18v-72l-1.17-1.14c4.99-5.09 9.78-10.7 14.33-16.83-4.56-6.14-9.359-11.76-14.359-16.86l1.199-1.17v-72l30.051-18v-27z" fill="#ecf0f1"/><path id="XMLID_77299_" d="m376.21 356h20.04v20h-20.04z"/><path id="XMLID_77300_" d="m326.12 356h20.04v20h-20.04z"/><path id="XMLID_77301_" d="m306.09 46v36l-10.02 9v45l-.2.46c-12.94-5.82-26.38-8.95-39.87-9.4v-.06-81z" fill="#313a52"/><path id="XMLID_77302_" d="m296.07 416v20h-22.54-22.54-22.54-22.54v-20h22.54 22.54 22.54z"/><path id="XMLID_77303_" d="m276.04 356h20.03v20h-20.03z"/><path id="XMLID_77304_" d="m225.95 356h20.03v20h-20.03z"/><path id="XMLID_77305_" d="m215.93 127 2.47 5.82c-13.86 4.8-27.27 12.57-39.68 23.32l-2.86-2.14v-63l-30.05-18v-27h60.1v36l10.02 9z" fill="#313a52"/><path id="XMLID_77306_" d="m218.4 229.24-2.47 5.76v36l-10.02 9v36h-60.1v-27l30.05-18v-63l2.86-2.08c12.41 10.75 25.82 18.52 39.68 23.32z" fill="#313a52"/><path id="XMLID_77307_" d="m175.86 356h20.04v20h-20.04z"/><path id="XMLID_77308_" d="m175.86 154 2.86 2.14c-8.11 7.03-15.8 15.32-22.9 24.89 7.1 9.57 14.79 17.86 22.9 24.89l-2.86 2.08v63l-30.05 18v27h-59.81-.3v-270h60.11v27l30.05 18z" fill="#ecf0f1"/><path id="XMLID_77309_" d="m125.77 356h20.04v20h-20.04z"/><path id="XMLID_77310_" d="m426.3 326h-.3c-5.522 0-10-4.478-10-10 0-.842.104-1.659.3-2.44v-257.56h-320.6v257.56c.196.781.3 1.599.3 2.44 0 5.522-4.477 10-10 10h-.3c-5.523 0-10-4.478-10-10v-270c0-5.523 4.477-10 10-10h340.6c5.522 0 10 4.477 10 10v270c0 5.522-4.478 10-10 10z"/><path id="XMLID_77311_" d="m252.523 245.059c-12.633 0-25.196-2.138-37.4-6.371-15.309-5.302-29.761-13.785-42.95-25.209-8.796-7.624-16.999-16.536-24.384-26.491-2.625-3.538-2.625-8.378 0-11.917 7.385-9.955 15.588-18.866 24.381-26.488 13.191-11.427 27.644-19.909 42.957-25.213 13.427-4.658 27.292-6.78 41.214-6.305 14.895.497 29.577 3.953 43.631 10.274 15.193 6.815 29.362 16.851 42.104 29.823 5.354 5.463 10.484 11.484 15.253 17.905 2.628 3.539 2.629 8.382.002 11.921-4.758 6.411-9.879 12.424-15.22 17.872-12.575 12.817-26.542 22.766-41.522 29.581-.134.068-.27.133-.408.195-14.121 6.365-28.871 9.85-43.841 10.357-1.273.045-2.546.066-3.817.066zm-84.027-64.029c5.243 6.4 10.865 12.212 16.774 17.333 11.255 9.75 23.504 16.96 36.403 21.428 11.104 3.851 22.539 5.609 33.986 5.215 12.223-.415 24.308-3.252 35.926-8.434.124-.062.25-.122.378-.179 12.86-5.794 24.929-14.386 35.869-25.536 3.015-3.075 5.957-6.364 8.791-9.825-2.845-3.474-5.797-6.773-8.823-9.861-10.981-11.181-23.104-19.792-36.022-25.586-11.677-5.251-23.823-8.12-36.11-8.529-11.465-.393-22.892 1.363-33.99 5.213-12.903 4.469-25.152 11.679-36.41 21.431-5.908 5.119-11.529 10.929-16.772 17.33z"/><path id="XMLID_77314_" d="m256 218c-22.083 0-40.05-16.598-40.05-37s17.966-37 40.05-37 40.05 16.598 40.05 37-17.966 37-40.05 37zm0-54c-11.056 0-20.05 7.626-20.05 17s8.994 17 20.05 17 20.05-7.626 20.05-17-8.994-17-20.05-17z"/><path id="XMLID_77317_" d="m175.86 164c-5.523 0-10-4.477-10-10v-57.333l-25.188-15.088c-3.016-1.806-4.861-5.063-4.861-8.579v-27c0-5.523 4.477-10 10-10s10 4.477 10 10v21.333l25.188 15.088c3.016 1.806 4.861 5.063 4.861 8.579v63c0 5.523-4.477 10-10 10z"/><path id="XMLID_77318_" d="m215.93 137c-5.523 0-10-4.477-10-10v-31.541l-6.702-6.02c-2.112-1.896-3.318-4.601-3.318-7.439v-36c0-5.523 4.477-10 10-10s10 4.477 10 10v31.541l6.702 6.02c2.112 1.896 3.318 4.601 3.318 7.439v36c0 5.523-4.477 10-10 10z"/><path id="XMLID_77319_" d="m336.14 173c-5.522 0-10-4.477-10-10v-72c0-3.515 1.846-6.772 4.861-8.579l25.189-15.088v-21.333c0-5.523 4.478-10 10-10s10 4.477 10 10v27c0 3.515-1.846 6.772-4.861 8.579l-25.189 15.088v66.333c0 5.523-4.478 10-10 10z"/><path id="XMLID_77320_" d="m296.07 146c-5.522 0-10-4.477-10-10v-45c0-2.838 1.206-5.543 3.317-7.439l6.702-6.02v-31.541c0-5.523 4.478-10 10-10s10 4.477 10 10v36c0 2.838-1.206 5.543-3.317 7.439l-6.702 6.02v40.541c0 5.523-4.477 10-10 10z"/><path id="XMLID_77321_" d="m256 137c-5.523 0-10-4.477-10-10v-81c0-5.523 4.477-10 10-10 5.522 0 10 4.477 10 10v81c0 5.523-4.478 10-10 10z"/><path id="XMLID_77322_" d="m366.19 326c-5.522 0-10-4.478-10-10v-21.333l-25.189-15.088c-3.016-1.807-4.861-5.063-4.861-8.579v-72c0-5.523 4.478-10 10-10s10 4.477 10 10v66.333l25.189 15.088c3.016 1.807 4.861 5.063 4.861 8.579v27c0 5.522-4.477 10-10 10z"/><path id="XMLID_77323_" d="m306.09 326c-5.522 0-10-4.478-10-10v-31.541l-6.702-6.02c-2.111-1.896-3.317-4.602-3.317-7.439v-45.48c0-5.523 4.478-10.005 10-10.005s10 4.472 10 9.995v41.031l6.702 6.02c2.111 1.896 3.317 4.602 3.317 7.439v36c0 5.522-4.478 10-10 10z"/><path id="XMLID_77324_" d="m145.81 326c-5.523 0-10-4.478-10-10v-27c0-3.516 1.846-6.772 4.861-8.579l25.188-15.088v-57.333c0-5.523 4.477-10 10-10s10 4.477 10 10v63c0 3.516-1.846 6.772-4.861 8.579l-25.188 15.088v21.333c0 5.522-4.477 10-10 10z"/><path id="XMLID_77325_" d="m205.91 326c-5.523 0-10-4.478-10-10v-36c0-2.838 1.206-5.543 3.318-7.439l6.702-6.021v-31.54c0-5.523 4.477-10 10-10s10 4.477 10 10v36c0 2.838-1.206 5.543-3.318 7.439l-6.702 6.021v31.54c0 5.522-4.477 10-10 10z"/><path id="XMLID_77326_" d="m256 326c-5.523 0-10-4.478-10-10v-81c0-5.523 4.477-10 10-10 5.522 0 10 4.477 10 10v81c0 5.522-4.478 10-10 10z"/><path id="XMLID_77327_" d="m461.38 476h-410.76c-11.66 0-22.456-5.626-28.88-15.049-6.199-9.093-7.46-20.153-3.459-30.346.103-.263.218-.521.343-.774l58.41-118.26c1.685-3.411 5.161-5.571 8.966-5.571h340c3.806 0 7.281 2.16 8.966 5.571l58.41 118.26c.125.253.239.512.343.774 4.001 10.191 2.74 21.252-3.458 30.345-6.425 9.424-17.221 15.05-28.881 15.05zm-424.611-37.742c-1.899 5.23.108 9.39 1.497 11.427 2.695 3.955 7.314 6.315 12.354 6.315h410.76c5.041 0 9.659-2.361 12.355-6.315 1.389-2.037 3.396-6.195 1.497-11.426l-55.446-112.259h-327.572z"/></g></g></svg>