<svg enable-background="new 0 0 512 512" height="512" viewBox="0 0 512 512" width="512" xmlns="http://www.w3.org/2000/svg"><g id="_x31_571_x2C__Cloud_Application_Service_x2C__Cloud_Preferences_x2C__Cloud_Service_Configure_x2C__Cloud_Settings_x2C__Cloud_Sync_Settings"><g><path id="XMLID_77348_" d="m481.12 412.64h-45.12l-20 24.78 20 24.79h41.81c-9.24 14.3-25.4 23.79-43.81 23.79-22.39 0-41.47-14.03-48.8-33.71h-261.4c-7.33 19.68-26.41 33.71-48.8 33.71-18.41 0-34.57-9.49-43.81-23.79h34.81l20-24.79-20-24.78h-38.12c8.29-17.57 26.27-29.74 47.12-29.74 24.59 0 45.17 16.92 50.59 39.649h257.82c5.42-22.729 26-39.649 50.59-39.649 20.85 0 38.83 12.17 47.12 29.74z" fill="#747371"/><path id="XMLID_77349_" d="m326 273.84v15.26l-25.33 3.141c-1.87 7.47-4.85 14.51-8.76 20.939l15.68 19.98-21.76 21.57-20.15-15.54c-6.479 3.869-13.59 6.829-21.13 8.68l-3.17 25.11h-30.76l-3.17-25.11c-7.54-1.851-14.65-4.811-21.13-8.68l-20.15 15.54-21.76-21.57 15.68-19.98c-3.91-6.43-6.89-13.47-8.76-20.939l-25.33-3.141v-15.26-15.25l25.33-3.14c1.87-7.47 4.85-14.51 8.76-20.94l-15.68-19.98 21.76-21.57 20.15 15.54c6.48-3.87 13.59-6.83 21.13-8.68l3.17-25.11h30.76l3.17 25.11c7.54 1.85 14.65 4.81 21.13 8.68l20.15-15.54 21.76 21.57-15.68 19.98c3.91 6.43 6.89 13.47 8.76 20.94l25.33 3.14zm-60 0c0-21.9-17.91-39.65-40-39.65s-40 17.75-40 39.65c0 21.91 17.91 39.66 40 39.66s40-17.75 40-39.66z" fill="#193772"/><path id="XMLID_77352_" d="m465.23 143.96c-5.37-38.63-38.79-68.39-79.23-68.39-19.6 0-37.54 6.99-51.45 18.59-14-23.02-39.46-38.42-68.55-38.42-14.67 0-28.41 3.94-40.23 10.77-13.71-24.17-39.81-40.51-69.77-40.51-44.18 0-80 35.51-80 79.31 0 4.32.36 8.56 1.03 12.69-15.23 8.5-27.98 20.83-36.93 35.68-8.96 14.84-14.1 32.21-14.1 50.77 0 54.75 34.77 69.39 90 69.39h10v-15.25l25.33-3.14c1.87-7.47 4.85-14.51 8.76-20.94l-15.68-19.98 21.76-21.57 20.15 15.54c6.48-3.87 13.59-6.83 21.13-8.68l3.17-25.11h30.76l3.17 25.11c7.54 1.85 14.65 4.81 21.13 8.68l20.15-15.54 21.76 21.57-15.68 19.98c3.91 6.43 6.89 13.47 8.76 20.94l25.33 3.14v15.25h10 50c27.62 0 52.62-3.66 70.71-14.16 18.1-10.51 29.29-27.86 29.29-55.229 0-22.781-7.75-43.751-20.77-60.491z" fill="#65b2fe"/><path id="XMLID_77353_" d="m376 164.79h20v19.83h-20z"/><path id="XMLID_77354_" d="m356 184.62h20v19.83h-20z"/><path id="XMLID_77355_" d="m356 144.97h20v19.82h-20z"/><path id="XMLID_77356_" d="m336 164.79h20v19.83h-20z"/><path id="XMLID_77357_" d="m156 85.48h20v19.83h-20z"/><path id="XMLID_77358_" d="m136 105.31h20v19.83h-20z"/><path id="XMLID_77359_" d="m136 65.66h20v19.82h-20z"/><path id="XMLID_77360_" d="m116 85.48h20v19.83h-20z"/><path id="XMLID_77361_" d="m386 283.84h-50c-5.522 0-10-4.478-10-10s4.478-10 10-10h50c29.354 0 50.841-4.189 65.689-12.809 16.359-9.498 24.311-24.735 24.311-46.581 0-19.858-6.454-38.652-18.663-54.351-1.076-1.384-1.77-3.026-2.011-4.762-4.737-34.073-34.541-59.767-69.326-59.767-16.467 0-32.464 5.778-45.046 16.271-2.235 1.864-5.169 2.665-8.043 2.185-2.872-.477-5.393-2.182-6.905-4.668-12.802-21.051-35.234-33.618-60.006-33.618-12.371 0-24.552 3.26-35.227 9.428-2.309 1.333-5.054 1.69-7.626.991-2.572-.7-4.759-2.397-6.075-4.716-12.401-21.862-35.802-35.443-61.072-35.443-38.598 0-70 31.092-70 69.31 0 3.673.303 7.404.901 11.089.673 4.152-1.324 8.283-4.998 10.333-13.689 7.64-25.183 18.744-33.238 32.11-8.287 13.725-12.665 29.494-12.665 45.608 0 22.887 6.315 37.8 19.875 46.932 12.62 8.499 31.725 12.458 60.125 12.458 5.523 0 10 4.478 10 10s-4.477 10-10 10c-32.566 0-55.221-5.043-71.297-15.869-19.314-13.008-28.703-33.785-28.703-63.521 0-19.758 5.374-39.102 15.54-55.939 8.677-14.397 20.617-26.648 34.777-35.743-.211-2.491-.317-4.983-.317-7.458 0-49.246 40.374-89.31 90-89.31 29.226 0 56.517 14.163 73.302 37.509 11.508-5.102 24.028-7.769 36.698-7.769 28.14 0 53.938 12.642 70.911 34.292 14.531-9.383 31.609-14.462 49.089-14.462 43.806 0 81.477 31.783 88.726 74.36 13.928 18.807 21.274 41.056 21.274 64.52 0 29.182-11.529 50.674-34.269 63.877-17.983 10.439-42.754 15.513-75.731 15.513z"/><path id="XMLID_77362_" d="m241.38 382.98h-30.76c-5.039 0-9.29-3.749-9.921-8.748l-2.347-18.588c-3.792-1.262-7.494-2.784-11.082-4.559l-14.993 11.563c-3.969 3.06-9.589 2.71-13.147-.817l-21.76-21.57c-3.605-3.573-3.961-9.281-.827-13.275l11.592-14.771c-1.762-3.516-3.277-7.141-4.538-10.856l-18.828-2.335c-5.009-.621-8.77-4.877-8.77-9.924v-30.51c0-5.047 3.761-9.303 8.77-9.924l18.828-2.334c1.26-3.715 2.776-7.342 4.538-10.857l-11.592-14.771c-3.134-3.994-2.779-9.702.827-13.276l21.76-21.57c3.559-3.527 9.18-3.876 13.147-.816l14.993 11.563c3.588-1.774 7.29-3.297 11.083-4.559l2.346-18.587c.631-4.999 4.883-8.748 9.921-8.748h30.76c5.039 0 9.29 3.749 9.921 8.748l2.346 18.587c3.793 1.262 7.494 2.785 11.083 4.559l14.993-11.563c3.968-3.06 9.588-2.71 13.146.817l21.76 21.57c3.605 3.574 3.961 9.282.827 13.276l-11.593 14.771c1.763 3.515 3.277 7.141 4.538 10.857l18.828 2.334c5.009.621 8.77 4.876 8.77 9.924v30.51c0 5.047-3.761 9.303-8.77 9.924l-18.828 2.335c-1.26 3.716-2.776 7.342-4.538 10.856l11.593 14.771c3.134 3.994 2.778 9.702-.827 13.275l-21.76 21.57c-3.558 3.528-9.178 3.877-13.146.817l-14.994-11.563c-3.588 1.774-7.289 3.297-11.082 4.559l-2.347 18.588c-.63 4.998-4.882 8.747-9.92 8.747zm-21.943-20h13.126l2.065-16.363c.519-4.108 3.516-7.472 7.538-8.459 6.463-1.586 12.649-4.128 18.387-7.554 3.526-2.104 7.981-1.84 11.233.667l13.22 10.195 9.22-9.139-10.183-12.975c-2.572-3.278-2.843-7.81-.677-11.37 3.444-5.663 6.002-11.777 7.604-18.172 1.003-4.009 4.369-6.987 8.47-7.495l16.56-2.052v-12.836l-16.561-2.053c-4.101-.508-7.467-3.486-8.47-7.495-1.602-6.395-4.159-12.509-7.604-18.173-2.166-3.561-1.896-8.091.677-11.37l10.182-12.974-9.219-9.139-13.22 10.195c-3.252 2.509-7.707 2.773-11.234.666-5.736-3.426-11.922-5.967-18.385-7.553-4.022-.987-7.02-4.351-7.539-8.459l-2.065-16.362h-13.126l-2.065 16.362c-.519 4.109-3.517 7.473-7.539 8.459-6.462 1.586-12.648 4.127-18.386 7.554-3.526 2.106-7.981 1.841-11.234-.667l-13.219-10.195-9.219 9.139 10.182 12.974c2.573 3.278 2.843 7.809.678 11.369-3.445 5.666-6.003 11.78-7.604 18.174-1.003 4.009-4.37 6.987-8.471 7.495l-16.559 2.053v12.836l16.561 2.054c4.101.508 7.467 3.486 8.47 7.495 1.601 6.394 4.159 12.508 7.604 18.173 2.165 3.561 1.895 8.091-.678 11.369l-10.182 12.975 9.219 9.139 13.219-10.195c3.253-2.506 7.708-2.771 11.233-.667 5.738 3.426 11.925 5.968 18.388 7.554 4.021.987 7.019 4.351 7.538 8.459z"/><path id="XMLID_77365_" d="m226 323.5c-27.57 0-50-22.277-50-49.66 0-27.377 22.43-49.65 50-49.65s50 22.273 50 49.65c0 27.383-22.43 49.66-50 49.66zm0-79.31c-16.542 0-30 13.301-30 29.65 0 16.354 13.458 29.66 30 29.66s30-13.306 30-29.66c0-16.349-13.458-29.65-30-29.65z"/><path id="XMLID_77368_" d="m434 496c-23.428 0-44.835-13.293-55.302-33.71h-248.396c-10.467 20.418-31.874 33.71-55.302 33.71-21.216 0-40.733-10.603-52.209-28.362-1.988-3.076-2.135-6.993-.384-10.209 1.751-3.217 5.121-5.219 8.783-5.219h30.029l11.931-14.789-11.93-14.781h-33.34c-3.425 0-6.612-1.753-8.446-4.646-1.833-2.893-2.059-6.523-.598-9.621 10.167-21.549 32.213-35.473 56.164-35.473 26.136 0 48.939 15.95 57.953 39.649h243.094c9.014-23.698 31.817-39.649 57.953-39.649 23.723 0 45.577 13.661 55.871 34.859.809 1.443 1.269 3.107 1.269 4.88 0 5.522-4.477 10-10 10-.005 0-.013 0-.02 0h-40.341l-11.93 14.781 11.932 14.789h37.028c3.662 0 7.031 2.002 8.782 5.218 1.752 3.217 1.604 7.133-.383 10.209-11.474 17.76-30.991 28.364-52.208 28.364zm-310.2-53.71h261.4c4.177 0 7.913 2.596 9.371 6.51 6.06 16.27 21.905 27.2 39.429 27.2 6.184 0 12.153-1.325 17.567-3.79h-15.567c-3.023 0-5.885-1.368-7.783-3.721l-20-24.79c-2.956-3.665-2.956-8.896.002-12.56l20-24.78c1.898-2.353 4.759-3.72 7.781-3.72h24.975c-7.441-6.16-16.961-9.739-26.975-9.739-19.571 0-36.374 13.146-40.862 31.969-1.074 4.503-5.099 7.681-9.728 7.681h-257.82c-4.629 0-8.653-3.178-9.727-7.681-4.489-18.822-21.292-31.969-40.863-31.969-10.014 0-19.534 3.579-26.975 9.739h17.975c3.023 0 5.883 1.367 7.782 3.72l20 24.78c2.957 3.664 2.958 8.895.001 12.56l-20 24.79c-1.898 2.353-4.759 3.721-7.783 3.721h-8.567c5.414 2.465 11.384 3.79 17.567 3.79 17.524 0 33.369-10.931 39.429-27.2 1.457-3.914 5.194-6.51 9.371-6.51z"/></g></g></svg>