<svg enable-background="new 0 0 512 512" height="512" viewBox="0 0 512 512" width="512" xmlns="http://www.w3.org/2000/svg"><g id="_x31_572_x2C__Orbit_x2C__Planetary_System_x2C__Planets_Orbiting_x2C__Solar_System_x2C__Sphere"><g><path id="XMLID_77388_" d="m325.6 411.14c.261 1.58.4 3.2.4 4.86 0 16.57-13.43 30-30 30-13.21 0-24.42-8.54-28.42-20.4-1.021-3.02-1.58-6.239-1.58-9.6 0-16.57 13.43-30 30-30 14.91 0 27.28 10.88 29.6 25.14z" fill="#40b3e2"/><circle id="XMLID_77389_" cx="256" cy="256" fill="#ffd24d" r="30"/><path id="XMLID_77390_" d="m216 206c0 16.57-13.43 30-30 30-6.09 0-11.76-1.82-16.49-4.94-8.14-5.37-13.51-14.59-13.51-25.06 0-16.57 13.43-30 30-30 6.92 0 13.29 2.35 18.36 6.28 7.08 5.49 11.64 14.07 11.64 23.72z" fill="#80af52"/><path id="XMLID_77391_" d="m426 136c-16.57 0-30-13.43-30-30 0-9.43 4.36-17.84 11.16-23.34 5.15-4.16 11.7-6.66 18.84-6.66 16.57 0 30 13.43 30 30 0 8.47-3.52 16.12-9.17 21.58-5.39 5.21-12.74 8.42-20.83 8.42z" fill="#e3835a"/><path id="XMLID_77392_" d="m246 86h20v20h-20z"/><path id="XMLID_77393_" d="m201.63 94.62 7.49 18.54-18.55 7.49-7.48-18.55z"/><path id="XMLID_77394_" d="m132.862 132.861h19.997v19.997h-19.997z" transform="matrix(.707 -.707 .707 .707 -59.174 142.86)"/><path id="XMLID_77395_" d="m98.734 183.444h20.002v20.002h-20.002z" transform="matrix(.391 -.92 .92 .391 -111.825 217.894)"/><path id="XMLID_77396_" d="m86 246h20v20h-20z"/><path id="XMLID_77397_" d="m256 296c-22.056 0-40-17.944-40-40s17.944-40 40-40 40 17.944 40 40-17.944 40-40 40zm0-60c-11.028 0-20 8.972-20 20s8.972 20 20 20 20-8.972 20-20-8.972-20-20-20z"/><path id="XMLID_77400_" d="m256 356c-55.14 0-100-44.859-100-100 0-9.395 1.312-18.716 3.9-27.706 1.528-5.308 7.071-8.373 12.376-6.844 5.308 1.528 8.372 7.069 6.844 12.376-2.07 7.191-3.12 14.651-3.12 22.174 0 44.112 35.888 80 80 80s80-35.888 80-80-35.888-80-80-80c-16.527 0-32.399 5.003-45.899 14.468-4.521 3.172-10.758 2.075-13.929-2.447-3.17-4.522-2.075-10.758 2.447-13.929 16.882-11.836 36.724-18.092 57.381-18.092 55.141 0 100 44.86 100 100 0 55.141-44.859 100-100 100z"/><path id="XMLID_77401_" d="m186 246c-7.852 0-15.458-2.279-21.996-6.592-11.274-7.438-18.004-19.927-18.004-33.408 0-22.056 17.944-40 40-40 8.95 0 17.417 2.896 24.486 8.376 9.86 7.646 15.514 19.172 15.514 31.624 0 22.056-17.944 40-40 40zm0-60c-11.028 0-20 8.972-20 20 0 6.74 3.371 12.988 9.017 16.713 3.26 2.15 7.058 3.287 10.983 3.287 11.028 0 20-8.972 20-20 0-6.224-2.832-11.99-7.768-15.818-3.529-2.735-7.76-4.182-12.232-4.182z"/><path id="XMLID_77404_" d="m256 496c-64.108 0-124.378-24.964-169.707-70.293-45.329-45.328-70.293-105.599-70.293-169.707s24.964-124.378 70.293-169.707 105.599-70.293 169.707-70.293c58.035 0 114.054 20.998 157.736 59.126 4.16 3.632 4.589 9.949.958 14.109-3.633 4.162-9.948 4.59-14.11.958-40.038-34.946-91.386-54.193-144.584-54.193-121.309 0-220 98.691-220 220s98.691 220 220 220 220-98.691 220-220c0-44.015-12.954-86.489-37.461-122.829-3.088-4.579-1.879-10.794 2.7-13.882 4.575-3.087 10.794-1.88 13.882 2.7 26.743 39.656 40.879 85.996 40.879 134.011 0 64.108-24.964 124.379-70.293 169.707-45.328 45.329-105.599 70.293-169.707 70.293z"/><path id="XMLID_77405_" d="m426 146c-22.056 0-40-17.944-40-40 0-12.129 5.42-23.471 14.871-31.115 7.094-5.731 16.017-8.885 25.129-8.885 22.056 0 40 17.944 40 40 0 10.938-4.34 21.156-12.221 28.771-7.49 7.241-17.356 11.229-27.779 11.229zm0-60c-4.619 0-8.961 1.535-12.556 4.439-4.729 3.825-7.444 9.499-7.444 15.561 0 11.028 8.972 20 20 20 5.208 0 10.138-1.992 13.88-5.61 3.947-3.814 6.12-8.924 6.12-14.39 0-11.028-8.972-20-20-20z"/><path id="XMLID_77408_" d="m296 456c-17.179 0-32.407-10.933-37.896-27.205-1.396-4.129-2.104-8.437-2.104-12.795 0-22.056 17.944-40 40-40 19.71 0 36.31 14.104 39.47 33.534.351 2.124.53 4.307.53 6.466 0 22.056-17.944 40-40 40zm0-60c-11.028 0-20 8.972-20 20 0 2.177.354 4.329 1.054 6.397 2.745 8.139 10.357 13.603 18.946 13.603 11.028 0 20-8.972 20-20 0-1.071-.09-2.159-.267-3.232-1.582-9.726-9.879-16.768-19.733-16.768z"/><path id="XMLID_77411_" d="m256 426c-77.62 0-145.324-52.433-164.645-127.508-1.376-5.349 1.844-10.8 7.192-12.177 5.35-1.373 10.8 1.844 12.177 7.192 17.046 66.234 76.785 112.493 145.276 112.493 5.522 0 10 4.478 10 10s-4.478 10-10 10z"/><path id="XMLID_77412_" d="m326.007 409.922c-3.704 0-7.264-2.066-8.996-5.621-2.42-4.965-.356-10.951 4.608-13.37 52.048-25.365 84.381-77.067 84.381-134.931 0-68.491-46.259-128.23-112.492-145.275-5.349-1.376-8.568-6.828-7.192-12.177 1.377-5.349 6.827-8.567 12.177-7.192 75.074 19.32 127.507 87.024 127.507 164.644 0 32.481-9.193 64.061-26.586 91.322-16.926 26.53-40.797 47.827-69.033 61.587-1.41.688-2.903 1.013-4.374 1.013z"/></g></g></svg>