<svg enable-background="new 0 0 512 512" height="512" viewBox="0 0 512 512" width="512" xmlns="http://www.w3.org/2000/svg"><g id="_x31_574_x2C__Orbit_x2C__Planetary_System_x2C__Planets_Orbiting_x2C__Solar_System_x2C__Sphere"><g><path id="XMLID_77497_" d="m126 296c0 14.91-10.88 27.28-25.14 29.6-1.58.261-3.2.4-4.86.4-16.57 0-30-13.43-30-30 0-13.21 8.54-24.42 20.4-28.42 3.02-1.021 6.24-1.58 9.6-1.58 16.57 0 30 13.43 30 30z" fill="#193772"/><path id="XMLID_77498_" d="m429.34 407.16c4.16 5.149 6.66 11.7 6.66 18.84 0 16.57-13.43 30-30 30-8.47 0-16.12-3.52-21.58-9.17-5.21-5.39-8.42-12.74-8.42-20.83 0-16.57 13.43-30 30-30 9.43 0 17.84 4.36 23.34 11.16z" fill="#40b3e2"/><path id="XMLID_77499_" d="m446 446h20v20h-20z"/><path id="XMLID_77500_" d="m446 46h20v20h-20z"/><path id="XMLID_77501_" d="m336 186c0 6.92-2.35 13.29-6.28 18.36-5.49 7.08-14.07 11.64-23.72 11.64-16.57 0-30-13.43-30-30 0-6.09 1.82-11.76 4.95-16.49 5.36-8.14 14.58-13.51 25.05-13.51 16.57 0 30 13.43 30 30z" fill="#a5c63b"/><circle id="XMLID_77502_" cx="256" cy="256" fill="#ffd24d" r="30"/><path id="XMLID_77503_" d="m46 446h20v20h-20z"/><path id="XMLID_77504_" d="m46 46h20v20h-20z"/><path id="XMLID_77505_" d="m256 296c-22.056 0-40-17.944-40-40s17.944-40 40-40 40 17.944 40 40-17.944 40-40 40zm0-60c-11.028 0-20 8.972-20 20s8.972 20 20 20 20-8.972 20-20-8.972-20-20-20z"/><path id="XMLID_77508_" d="m256 356c-55.14 0-100-44.859-100-100 0-55.14 44.86-100 100-100 9.389 0 18.713 1.312 27.713 3.899 5.308 1.526 8.374 7.066 6.848 12.374-1.525 5.308-7.068 8.375-12.373 6.848-7.204-2.071-14.668-3.121-22.188-3.121-44.112 0-80 35.888-80 80s35.888 80 80 80 80-35.888 80-80c0-16.527-5.003-32.398-14.469-45.899-3.17-4.522-2.074-10.758 2.448-13.929 4.521-3.169 10.758-2.074 13.929 2.447 11.836 16.882 18.092 36.724 18.092 57.381 0 55.141-44.859 100-100 100z"/><path id="XMLID_77509_" d="m306 226c-22.056 0-40-17.944-40-40 0-7.862 2.286-15.472 6.61-22.008 7.413-11.259 19.901-17.992 33.39-17.992 22.056 0 40 17.944 40 40 0 8.951-2.896 17.418-8.377 24.487-7.644 9.859-19.17 15.513-31.623 15.513zm0-60c-6.741 0-12.983 3.368-16.697 9.009-2.165 3.272-3.303 7.066-3.303 10.991 0 11.028 8.972 20 20 20 6.225 0 11.989-2.831 15.816-7.768 2.737-3.53 4.184-7.76 4.184-12.232 0-11.028-8.972-20-20-20z"/><path id="XMLID_77512_" d="m256 496c-64.108 0-124.378-24.964-169.707-70.293-45.329-45.328-70.293-105.599-70.293-169.707s24.964-124.378 70.293-169.707 105.599-70.293 169.707-70.293 124.379 24.964 169.707 70.293c45.329 45.329 70.293 105.599 70.293 169.707 0 58.035-20.998 114.054-59.126 157.736-3.633 4.161-9.948 4.588-14.11.958-4.16-3.632-4.589-9.949-.958-14.11 34.948-40.038 54.194-91.386 54.194-144.584 0-121.309-98.691-220-220-220s-220 98.691-220 220 98.691 220 220 220c44.016 0 86.488-12.954 122.829-37.461 4.576-3.088 10.794-1.879 13.882 2.7 3.088 4.578 1.879 10.794-2.7 13.882-39.656 26.743-85.996 40.879-134.011 40.879z"/><path id="XMLID_77513_" d="m406 466c-10.938 0-21.156-4.34-28.771-12.221-7.241-7.49-11.229-17.356-11.229-27.779 0-22.056 17.944-40 40-40 12.13 0 23.471 5.42 31.115 14.871 5.731 7.094 8.885 16.017 8.885 25.129 0 22.056-17.944 40-40 40zm0-60c-11.028 0-20 8.972-20 20 0 5.208 1.992 10.138 5.609 13.88 3.814 3.947 8.925 6.12 14.391 6.12 11.028 0 20-8.972 20-20 0-4.619-1.535-8.961-4.438-12.556-3.827-4.729-9.499-7.444-15.562-7.444z"/><path id="XMLID_77516_" d="m256 436c-70.775 0-135.252-41.727-164.262-106.303-2.263-5.038-.014-10.956 5.024-13.22s10.956-.014 13.219 5.024c25.789 57.406 83.105 94.499 146.019 94.499 88.225 0 160-71.775 160-160 0-88.224-71.775-160-160-160-88.224 0-160 71.776-160 160 0 3.547.127 7.215.377 10.903.374 5.511-3.79 10.28-9.3 10.654-5.505.349-10.28-3.79-10.654-9.301-.281-4.136-.423-8.26-.423-12.256 0-99.252 80.748-180 180-180s180 80.748 180 180-80.748 180-180 180z"/><path id="XMLID_77517_" d="m96 336c-22.056 0-40-17.944-40-40 0-17.179 10.933-32.407 27.204-37.896 4.131-1.396 8.438-2.104 12.796-2.104 22.056 0 40 17.944 40 40 0 19.71-14.104 36.31-33.535 39.47-2.123.35-4.306.53-6.465.53zm0-60c-2.177 0-4.33.354-6.399 1.054-8.137 2.745-13.601 10.357-13.601 18.946 0 11.028 8.972 20 20 20 1.071 0 2.158-.09 3.231-.267 9.727-1.582 16.769-9.879 16.769-19.733 0-11.028-8.972-20-20-20z"/></g></g></svg>