<svg enable-background="new 0 0 512 512" height="512" viewBox="0 0 512 512" width="512" xmlns="http://www.w3.org/2000/svg"><g id="_x31_576_x2C__Cloud_Based_Services_x2C__Cloud_Database_x2C__Cloud_Networking_x2C__Cloud_Server_x2C__Cloud_Software"><g><path id="XMLID_77610_" d="m326 406v10h-20-50-50-20v-10-50-50-10h20 50 50 20v10 50z" fill="#57606f"/><path id="XMLID_77613_" d="m356 186h20v20h-20z"/><path id="XMLID_77614_" d="m336 206h20v20h-20z"/><path id="XMLID_77615_" d="m336 166h20v20h-20z"/><path id="XMLID_77616_" d="m316 186h20v20h-20z"/><path id="XMLID_77617_" d="m156 116h20v20h-20z"/><path id="XMLID_77618_" d="m136 136h20v20h-20z"/><path id="XMLID_77619_" d="m136 96h20v20h-20z"/><path id="XMLID_77620_" d="m116 116h20v20h-20z"/><path id="XMLID_77621_" d="m386 316c-5.522 0-10-4.478-10-10s4.478-10 10-10c49.626 0 90-40.374 90-90 0-10.111-1.665-20.042-4.948-29.515-3.18-9.147-7.804-17.691-13.739-25.387-1.065-1.38-1.75-3.015-1.988-4.742-4.742-34.409-34.546-60.356-69.325-60.356-16.44 0-32.428 5.826-45.017 16.406-2.237 1.881-5.188 2.689-8.073 2.209-2.884-.479-5.414-2.197-6.924-4.701-12.803-21.236-35.228-33.914-59.986-33.914-12.363 0-24.533 3.285-35.194 9.5-2.313 1.349-5.071 1.713-7.659 1.01-2.585-.703-4.78-2.413-6.093-4.748-12.405-22.059-35.799-35.762-61.054-35.762-38.598 0-70 31.402-70 70 0 3.71.304 7.483.903 11.213.664 4.135-1.319 8.246-4.968 10.301-28.334 15.949-45.935 46.023-45.935 78.486 0 24.048 9.361 46.648 26.359 63.637 16.993 17.002 39.593 26.363 63.641 26.363 5.523 0 10 4.478 10 10s-4.477 10-10 10c-29.392 0-57.016-11.443-77.783-32.221-20.774-20.762-32.217-48.386-32.217-77.779 0-37.409 19.121-72.22 50.323-92.41-.215-2.536-.323-5.073-.323-7.59 0-49.626 40.374-90 90-90 29.238 0 56.534 14.279 73.317 37.819 11.501-5.135 24.015-7.819 36.683-7.819 28.149 0 53.951 12.745 70.924 34.568 14.535-9.452 31.606-14.568 49.076-14.568 43.825 0 81.507 32.053 88.733 74.988 6.496 8.85 11.608 18.572 15.212 28.938 4.019 11.595 6.055 23.728 6.055 36.074 0 60.654-49.346 110-110 110z"/><path id="XMLID_77622_" d="m326 426h-140c-5.523 0-10-4.478-10-10v-120c0-5.522 4.477-10 10-10h140c5.522 0 10 4.478 10 10v120c0 5.522-4.478 10-10 10zm-130-20h120v-100h-120z"/><path id="XMLID_77625_" d="m206 306c-5.523 0-10-4.478-10-10v-30c0-5.522 4.477-10 10-10s10 4.478 10 10v30c0 5.522-4.477 10-10 10z"/><path id="XMLID_77626_" d="m256 306c-5.523 0-10-4.478-10-10v-30c0-5.522 4.477-10 10-10 5.522 0 10 4.478 10 10v30c0 5.522-4.478 10-10 10z"/><path id="XMLID_77627_" d="m306 306c-5.522 0-10-4.478-10-10v-30c0-5.522 4.478-10 10-10s10 4.478 10 10v30c0 5.522-4.478 10-10 10z"/><path id="XMLID_77628_" d="m206 496h-100c-5.523 0-10-4.478-10-10s4.477-10 10-10h90v-60c0-5.522 4.477-10 10-10s10 4.478 10 10v70c0 5.522-4.477 10-10 10z"/><path id="XMLID_77629_" d="m256 496c-5.523 0-10-4.478-10-10v-70c0-5.522 4.477-10 10-10 5.522 0 10 4.478 10 10v70c0 5.522-4.478 10-10 10z"/><path id="XMLID_77630_" d="m396 496h-90c-5.522 0-10-4.478-10-10v-70c0-5.522 4.478-10 10-10s10 4.478 10 10v60h80c5.522 0 10 4.478 10 10s-4.478 10-10 10z"/><path id="XMLID_77631_" d="m356 316h-30c-5.522 0-10-4.478-10-10s4.478-10 10-10h30c5.522 0 10 4.478 10 10s-4.478 10-10 10z"/><path id="XMLID_77632_" d="m356 366h-30c-5.522 0-10-4.478-10-10s4.478-10 10-10h30c5.522 0 10 4.478 10 10s-4.478 10-10 10z"/><path id="XMLID_77633_" d="m356 416h-30c-5.522 0-10-4.478-10-10s4.478-10 10-10h30c5.522 0 10 4.478 10 10s-4.478 10-10 10z"/><path id="XMLID_77634_" d="m186 316h-30c-5.523 0-10-4.478-10-10s4.477-10 10-10h30c5.523 0 10 4.478 10 10s-4.477 10-10 10z"/><path id="XMLID_77635_" d="m186 366h-30c-5.523 0-10-4.478-10-10s4.477-10 10-10h30c5.523 0 10 4.478 10 10s-4.477 10-10 10z"/><path id="XMLID_77636_" d="m186 416h-30c-5.523 0-10-4.478-10-10s4.477-10 10-10h30c5.523 0 10 4.478 10 10s-4.477 10-10 10z"/></g></g></svg>