<svg enable-background="new 0 0 512 512" height="512" viewBox="0 0 512 512" width="512" xmlns="http://www.w3.org/2000/svg"><g id="_x31_577_x2C__Jotter_x2C__Note_Pad_x2C__Notebook_x2C__Notepad_x2C__Scratch_Pad"><g><path id="XMLID_77700_" d="m486 436-40 50-40-50h40z" fill="#e6be94"/><path id="XMLID_77701_" d="m486 66v30h-40-40v-30c0-22.09 17.91-40 40-40 11.04 0 21.04 4.48 28.28 11.72s11.72 17.24 11.72 28.28z" fill="#ef727a"/><path id="XMLID_77702_" d="m446 96h40v340h-40z" fill="#d25400"/><path id="XMLID_77703_" d="m406 96h40v340h-40z" fill="#ea7e23"/><path id="XMLID_77704_" d="m266 426h-158.67c-44.48 0-80.61-35.69-81.31-80h59.98 100c0 44.18 35.82 80 80 80z" fill="#bec3c7"/><path id="XMLID_77707_" d="m86 26v320h100c0 44.18 35.82 80 80 80 22.09 0 42.09-8.96 56.57-23.43 14.47-14.48 23.43-34.48 23.43-56.57v-4-106-210z" fill="#ecf0f1"/><path id="XMLID_77710_" d="m266 256h20v20h-20z"/><path id="XMLID_77711_" d="m226 256h20v20h-20z"/><path id="XMLID_77712_" d="m186 256h20v20h-20z"/><path id="XMLID_77713_" d="m146 256h20v20h-20z"/><path id="XMLID_77714_" d="m446 496c-3.038 0-5.911-1.381-7.809-3.753l-40-50c-1.419-1.773-2.191-3.976-2.191-6.247v-370c0-27.57 22.43-50 50-50 13.35 0 25.904 5.203 35.352 14.649 9.446 9.447 14.648 22.002 14.648 35.351v370c0 2.271-.772 4.474-2.191 6.247l-40 50c-1.898 2.372-4.771 3.753-7.809 3.753zm-30-63.508 30 37.5 30-37.5v-366.492c0-8.007-3.122-15.54-8.791-21.209s-13.201-8.791-21.209-8.791c-16.542 0-30 13.458-30 30z"/><path id="XMLID_77717_" d="m486 106h-80c-5.522 0-10-4.477-10-10s4.478-10 10-10h80c5.522 0 10 4.477 10 10s-4.478 10-10 10z"/><path id="XMLID_77718_" d="m486 446h-80c-5.522 0-10-4.478-10-10s4.478-10 10-10h80c5.522 0 10 4.478 10 10s-4.478 10-10 10z"/><path id="XMLID_77719_" d="m446 446c-5.522 0-10-4.478-10-10v-340c0-5.523 4.478-10 10-10s10 4.477 10 10v340c0 5.522-4.478 10-10 10z"/><path id="XMLID_77720_" d="m486 496h-460c-5.523 0-10-4.478-10-10s4.477-10 10-10h460c5.522 0 10 4.478 10 10s-4.478 10-10 10z"/><path id="XMLID_77721_" d="m86 356c-5.523 0-10-4.478-10-10v-320c0-5.523 4.477-10 10-10h260c5.522 0 10 4.477 10 10v210c0 5.523-4.478 10-10 10s-10-4.477-10-10v-200h-240v310c0 5.522-4.477 10-10 10z"/><path id="XMLID_77722_" d="m276 436h-168.67c-24.139 0-46.9-9.326-64.09-26.26-17.171-16.916-26.838-39.496-27.218-63.582-.087-5.522 4.318-10.069 9.84-10.157 5.563-.098 10.069 4.318 10.157 9.841.611 38.685 32.601 70.158 71.311 70.158h168.67c5.522 0 10 4.478 10 10s-4.478 10-10 10z"/><path id="XMLID_77723_" d="m26.04 356c-.007 0-.013 0-.02 0h-.02c-5.523 0-10-4.478-10-10v-1.33c0-5.522 4.477-10 10-10s10 4.478 10 10v.43c.026.297.04.597.04.9 0 5.522-4.477 10-10 10z"/><path id="XMLID_77724_" d="m186 356h-159.98c-5.523 0-10-4.478-10-10s4.477-10 10-10h159.98c5.523 0 10 4.478 10 10s-4.477 10-10 10z"/><path id="XMLID_77725_" d="m266 436c-49.626 0-90-40.374-90-90 0-5.522 4.477-10 10-10s10 4.478 10 10c0 38.599 31.402 70 70 70 18.69 0 36.271-7.281 49.502-20.503 13.217-13.226 20.498-30.807 20.498-49.497v-110c0-5.523 4.478-10 10-10s10 4.477 10 10v110c0 24.029-9.36 46.63-26.356 63.639-17.014 17.001-39.615 26.361-63.644 26.361z"/><path id="XMLID_77726_" d="m286 86h-140c-5.523 0-10-4.477-10-10s4.477-10 10-10h140c5.522 0 10 4.477 10 10s-4.478 10-10 10z"/><path id="XMLID_77727_" d="m286 136h-140c-5.523 0-10-4.477-10-10s4.477-10 10-10h140c5.522 0 10 4.477 10 10s-4.478 10-10 10z"/><path id="XMLID_77728_" d="m286 186h-140c-5.523 0-10-4.477-10-10s4.477-10 10-10h140c5.522 0 10 4.477 10 10s-4.478 10-10 10z"/><path id="XMLID_77729_" d="m286 236h-140c-5.523 0-10-4.477-10-10s4.477-10 10-10h140c5.522 0 10 4.477 10 10s-4.478 10-10 10z"/></g></g></svg>