<svg enable-background="new 0 0 512 512" height="512" viewBox="0 0 512 512" width="512" xmlns="http://www.w3.org/2000/svg"><g id="_x31_578_x2C__Biology_x2C__Eco_Science_x2C__Eco_Testing_x2C__Echography_x2C__Ecolab"><g><path id="XMLID_77770_" d="m486 356v50h-190-80-190v-50z" fill="#57606f"/><path id="XMLID_77771_" d="m26 26h460v330h-460z" fill="#ecf0f1"/><path id="XMLID_77772_" d="m333.69 238.76c0 2.47-.12 4.91-.351 7.32l-6.71-.58c-20.13-8.82-43.09 2.48-77.69 7.07-34.61 4.59-63.57-42.38-63.57-42.38l-1.42-.54c8-19.78 23.9-35.51 43.8-43.28v-69.18h-14.13v-31.19h84.76v31.19h-14.13v69.18c28.941 11.3 49.441 39.45 49.441 72.39z" fill="#d8f2f1"/><path id="XMLID_77773_" d="m326.63 245.5 6.71.58c-3.68 39.47-36.899 70.37-77.34 70.37-42.91 0-77.69-34.79-77.69-77.69 0-10.29 2-20.12 5.64-29.11l1.42.54s28.96 46.97 63.57 42.38c34.6-4.59 57.56-15.89 77.69-7.07z" fill="#e3835a"/><path id="XMLID_77774_" d="m426 196h20v20h-20z"/><path id="XMLID_77775_" d="m406 216h20v20h-20z"/><path id="XMLID_77776_" d="m406 176h20v20h-20z"/><path id="XMLID_77777_" d="m386 196h20v20h-20z"/><path id="XMLID_77778_" d="m106 106h20v20h-20z"/><path id="XMLID_77779_" d="m86 126h20v20h-20z"/><path id="XMLID_77780_" d="m86 86h20v20h-20z"/><path id="XMLID_77781_" d="m66 106h20v20h-20z"/><path id="XMLID_77782_" d="m486 416h-190c-5.522 0-10-4.478-10-10s4.478-10 10-10h180v-360h-440v360h180c5.523 0 10 4.478 10 10s-4.477 10-10 10h-190c-5.523 0-10-4.478-10-10v-380c0-5.523 4.477-10 10-10h460c5.522 0 10 4.477 10 10v380c0 5.522-4.478 10-10 10z"/><path id="XMLID_77783_" d="m296 496c-5.522 0-10-4.478-10-10v-70h-60v70c0 5.522-4.477 10-10 10s-10-4.478-10-10v-80c0-5.522 4.477-10 10-10h80c5.522 0 10 4.478 10 10v80c0 5.522-4.478 10-10 10z"/><path id="XMLID_77784_" d="m326 496h-49.25c-5.522 0-10-4.478-10-10s4.478-10 10-10h49.25c5.522 0 10 4.478 10 10s-4.478 10-10 10z"/><path id="XMLID_77785_" d="m236.75 496h-50.75c-5.523 0-10-4.478-10-10s4.477-10 10-10h50.75c5.523 0 10 4.478 10 10s-4.477 10-10 10z"/><path id="XMLID_77786_" d="m486 366h-460c-5.523 0-10-4.478-10-10s4.477-10 10-10h460c5.522 0 10 4.478 10 10s-4.478 10-10 10z"/><path id="XMLID_77787_" d="m256 326.45c-48.353 0-87.69-39.338-87.69-87.69 0-11.365 2.144-22.422 6.371-32.863 8.146-20.141 23.637-36.616 43.069-46.059v-52.648h-4.13c-5.523 0-10-4.477-10-10v-31.19c0-5.523 4.477-10 10-10h84.76c5.522 0 10 4.477 10 10v31.19c0 5.523-4.478 10-10 10h-4.13v52.642c13.523 6.549 25.11 16.442 33.782 28.907 10.243 14.726 15.658 32.022 15.658 50.021 0 2.741-.133 5.524-.396 8.272-2.016 21.625-11.99 41.666-28.084 56.408-16.199 14.838-37.228 23.01-59.21 23.01zm-32.38-239.26h4.13c5.523 0 10 4.477 10 10v69.18c0 4.119-2.526 7.817-6.363 9.315-17.292 6.752-31.204 20.499-38.167 37.714-3.259 8.049-4.911 16.58-4.911 25.36 0 37.324 30.366 67.69 67.69 67.69 35.156 0 64.125-26.353 67.383-61.298.205-2.141.308-4.284.308-6.392 0-28.099-16.909-52.857-43.077-63.075-3.838-1.498-6.363-5.196-6.363-9.315v-69.179c0-5.523 4.478-10 10-10h4.13v-11.19h-64.76z"/><path id="XMLID_77790_" d="m244.153 262.886c-37.587 0-66.041-45.413-67.295-47.448-2.898-4.701-1.437-10.862 3.264-13.76 4.7-2.896 10.858-1.438 13.758 3.261 7.156 11.534 30.745 40.768 53.745 37.718 10.723-1.422 20.149-3.485 29.266-5.479 19.92-4.357 37.125-8.122 53.752-.837 5.059 2.216 7.363 8.114 5.146 13.172-2.216 5.059-8.116 7.363-13.172 5.146-10.675-4.678-23.585-1.853-41.452 2.057-9.074 1.985-19.358 4.234-30.91 5.768-2.058.272-4.093.402-6.102.402z"/><path id="XMLID_77791_" d="m276.75 496h-40c-5.523 0-10-4.478-10-10s4.477-10 10-10h40c5.522 0 10 4.478 10 10s-4.478 10-10 10z"/></g></g></svg>