<svg enable-background="new 0 0 512 512" height="512" viewBox="0 0 512 512" width="512" xmlns="http://www.w3.org/2000/svg"><g id="_x31_579_x2C__Chemical_Laboratory_x2C__Laboratory_x2C__Laboratory_Glassware_x2C__Test_Flask_x2C__Test_Tube"><g><path id="XMLID_77811_" d="m346 474.67v11.33h-180v-11.33c0-26.88 21.79-48.67 48.67-48.67h11.33 60 11.33c26.88 0 48.67 21.79 48.67 48.67z" fill="#60534a"/><path id="XMLID_77812_" d="m286 116v310h-60v-310-60c0-16.57 13.43-30 30-30 8.28 0 15.78 3.36 21.21 8.79s8.79 12.93 8.79 21.21z" fill="#73665c"/><path id="XMLID_77813_" d="m486 226c0 2.55-.12 5.07-.36 7.56l-6.909-.61c-20.73-9.09-44.37 2.54-80 7.27-35.641 4.73-65.461-43.64-65.461-43.64l-1.46-.56c8.23-20.36 24.61-36.56 45.101-44.56v-71.24h-14.55v-21.82h87.279v21.82h-14.55v71.24c29.8 11.63 50.91 40.62 50.91 74.54z" fill="#d8f2f1"/><path id="XMLID_77814_" d="m186 226c0 2.55-.12 5.07-.36 7.56l-6.91-.61c-20.73-9.09-44.37 2.54-80 7.27-35.64 4.73-65.46-43.64-65.46-43.64l-1.46-.56c8.23-20.36 24.61-36.56 45.1-44.56v-71.24h-14.55v-21.82h87.28v21.82h-14.55v71.24c29.8 11.63 50.91 40.62 50.91 74.54z" fill="#d8f2f1"/><path id="XMLID_77815_" d="m478.73 232.95 6.909.61c-3.799 40.64-38.009 72.44-79.639 72.44-44.18 0-80-35.82-80-80 0-10.6 2.06-20.72 5.81-29.98l1.46.56s29.82 48.37 65.461 43.64c35.629-4.73 59.269-16.36 79.999-7.27z" fill="#ef727a"/><path id="XMLID_77816_" d="m178.73 232.95 6.91.61c-3.8 40.64-38.01 72.44-79.64 72.44-44.18 0-80-35.82-80-80 0-10.6 2.06-20.72 5.81-29.98l1.46.56s29.82 48.37 65.46 43.64c35.63-4.73 59.27-16.36 80-7.27z" fill="#ef727a"/><path id="XMLID_77817_" d="m436 376h20v20h-20z"/><path id="XMLID_77818_" d="m396 376h20v20h-20z"/><path id="XMLID_77819_" d="m356 376h20v20h-20z"/><path id="XMLID_77820_" d="m136 376h20v20h-20z"/><path id="XMLID_77821_" d="m96 376h20v20h-20z"/><path id="XMLID_77822_" d="m56 376h20v20h-20z"/><path id="XMLID_77823_" d="m106 316c-49.626 0-90-40.374-90-90 0-11.666 2.201-23.016 6.542-33.733 8.376-20.722 24.343-37.667 44.369-47.347v-54.7h-4.55c-5.523 0-10-4.477-10-10v-21.82c0-5.523 4.477-10 10-10h87.28c5.523 0 10 4.477 10 10v21.82c0 5.523-4.477 10-10 10h-4.55v54.693c13.952 6.719 25.903 16.901 34.839 29.748 10.513 15.113 16.07 32.866 16.07 51.339 0 2.855-.137 5.721-.406 8.519-2.075 22.188-12.316 42.753-28.835 57.877-16.625 15.221-38.203 23.604-60.759 23.604zm-33.64-245.78h4.55c5.523 0 10 4.477 10 10v71.24c0 4.119-2.526 7.817-6.363 9.315-17.887 6.984-32.272 21.196-39.466 38.993-3.372 8.327-5.081 17.151-5.081 26.232 0 38.598 31.402 70 70 70 36.348 0 66.305-27.243 69.684-63.371.211-2.19.316-4.411.316-6.629 0-29.062-17.485-54.664-44.546-65.224-3.838-1.498-6.364-5.196-6.364-9.316v-71.24c0-5.523 4.477-10 10-10h4.55v-1.82h-67.28z"/><path id="XMLID_77826_" d="m93.796 250.546c-38.54 0-67.75-46.629-69.038-48.718-2.898-4.702-1.437-10.862 3.264-13.76 4.697-2.897 10.853-1.439 13.754 3.254 7.388 11.917 31.776 42.147 55.639 38.985 11.046-1.466 21.19-3.685 30.14-5.643 20.472-4.477 38.152-8.344 55.192-.873 5.058 2.218 7.36 8.116 5.142 13.174s-8.115 7.361-13.174 5.142c-11.084-4.862-24.424-1.943-42.886 2.094-9.332 2.041-19.908 4.354-31.782 5.931-2.108.281-4.194.414-6.251.414z"/><path id="XMLID_77827_" d="m406 316c-49.626 0-90-40.374-90-90 0-11.667 2.2-23.017 6.541-33.733 8.377-20.722 24.344-37.667 44.369-47.347v-54.7h-4.55c-5.522 0-10-4.477-10-10v-21.82c0-5.523 4.478-10 10-10h87.279c5.522 0 10 4.477 10 10v21.82c0 5.523-4.478 10-10 10h-4.55v54.693c13.951 6.719 25.902 16.901 34.839 29.748 10.514 15.113 16.072 32.866 16.072 51.339 0 2.857-.137 5.724-.406 8.52-2.074 22.187-12.315 42.751-28.835 57.875-16.625 15.222-38.202 23.605-60.759 23.605zm-33.64-245.78h4.55c5.522 0 10 4.477 10 10v71.24c0 4.119-2.525 7.817-6.363 9.315-17.887 6.984-32.271 21.196-39.466 38.993-3.372 8.326-5.081 17.15-5.081 26.232 0 38.598 31.402 70 70 70 36.348 0 66.306-27.243 69.684-63.371.211-2.19.316-4.41.316-6.629 0-29.062-17.485-54.664-44.546-65.224-3.838-1.498-6.364-5.196-6.364-9.316v-71.24c0-5.523 4.478-10 10-10h4.55v-1.82h-67.28z"/><path id="XMLID_77830_" d="m393.796 250.546c-38.539 0-67.751-46.629-69.039-48.718-2.898-4.701-1.437-10.862 3.265-13.76 4.7-2.898 10.859-1.438 13.759 3.262 7.395 11.923 31.783 42.152 55.635 38.978 11.046-1.466 21.189-3.685 30.14-5.643 20.473-4.477 38.152-8.343 55.191-.873 5.059 2.218 7.36 8.116 5.143 13.174-2.218 5.059-8.118 7.361-13.174 5.142-11.088-4.861-24.426-1.943-42.887 2.094-9.332 2.041-19.908 4.354-31.781 5.931-2.109.28-4.195.413-6.252.413z"/><path id="XMLID_77831_" d="m346 496h-180c-5.523 0-10-4.478-10-10v-11.33c0-32.351 26.319-58.67 58.67-58.67h11.33c5.523 0 10 4.478 10 10s-4.477 10-10 10h-11.33c-21.323 0-38.67 17.348-38.67 38.67v1.33h160v-1.33c0-21.322-17.348-38.67-38.67-38.67h-11.33c-5.522 0-10-4.478-10-10s4.478-10 10-10h11.33c32.351 0 58.67 26.319 58.67 58.67v11.33c0 5.522-4.478 10-10 10z"/><path id="XMLID_77832_" d="m286 436h-60c-5.523 0-10-4.478-10-10v-370c0-22.056 17.944-40 40-40 10.681 0 20.725 4.162 28.281 11.719 7.557 7.558 11.719 17.601 11.719 28.281v370c0 5.522-4.478 10-10 10zm-50-20h40v-360c0-5.337-2.082-10.359-5.861-14.139-3.78-3.779-8.8-5.861-14.139-5.861-11.028 0-20 8.972-20 20z"/><path id="XMLID_77835_" d="m76 126h-50c-5.523 0-10-4.477-10-10s4.477-10 10-10h50c5.523 0 10 4.477 10 10s-4.477 10-10 10z"/><path id="XMLID_77836_" d="m226 126h-90c-5.523 0-10-4.477-10-10s4.477-10 10-10h90c5.523 0 10 4.477 10 10s-4.477 10-10 10z"/><path id="XMLID_77837_" d="m376 126h-90c-5.522 0-10-4.477-10-10s4.478-10 10-10h90c5.522 0 10 4.477 10 10s-4.478 10-10 10z"/><path id="XMLID_77838_" d="m486 126h-50c-5.522 0-10-4.477-10-10s4.478-10 10-10h50c5.522 0 10 4.477 10 10s-4.478 10-10 10z"/></g></g></svg>