<svg enable-background="new 0 0 512 512" height="512" viewBox="0 0 512 512" width="512" xmlns="http://www.w3.org/2000/svg"><g id="_x31_580_x2C__Nuclear_Radiation_x2C__Radiation_x2C__Radioactivity_x2C__Science_x2C__Thermal_Energy"><g><path id="XMLID_77868_" d="m166 306v90c0 49.71 40.29 90 90 90s90-40.29 90-90v-90z" fill="#ea7e23"/><path id="XMLID_77869_" d="m166 126h180v180h-180z" fill="#d8f2f1"/><g fill="#d25400"><path id="XMLID_77870_" d="m266 196c11.05 0 20 8.95 20 20s-8.95 20-20 20-20-8.95-20-20 8.95-20 20-20z"/><path id="XMLID_77871_" d="m226 346c11.05 0 20 8.95 20 20s-8.95 20-20 20-20-8.95-20-20 8.95-20 20-20z"/><path id="XMLID_77872_" d="m286 396c11.05 0 20 8.95 20 20s-8.95 20-20 20-20-8.95-20-20 8.95-20 20-20z"/></g><path id="XMLID_77873_" d="m466 286h20v20h-20z"/><path id="XMLID_77874_" d="m475.5 260.64-14.14 14.15-14.15-14.15 14.15-14.14z"/><path id="XMLID_77875_" d="m461.36 317.21 14.14 14.15-14.14 14.14-14.15-14.14z"/><path id="XMLID_77876_" d="m416 336h20v20h-20z"/><path id="XMLID_77877_" d="m416 236h20v20h-20z"/><path id="XMLID_77878_" d="m404.79 260.64-14.15 14.15-14.14-14.15 14.14-14.14z"/><path id="XMLID_77879_" d="m404.79 331.36-14.15 14.14-14.14-14.14 14.14-14.15z"/><path id="XMLID_77880_" d="m366 286h20v20h-20z"/><path id="XMLID_77881_" d="m126 216h20v20h-20z"/><path id="XMLID_77882_" d="m135.5 190.64-14.14 14.15-14.15-14.15 14.15-14.14z"/><path id="XMLID_77883_" d="m121.36 247.21 14.14 14.15-14.14 14.14-14.15-14.14z"/><path id="XMLID_77884_" d="m76 266h20v20h-20z"/><path id="XMLID_77885_" d="m76 166h20v20h-20z"/><path id="XMLID_77886_" d="m64.79 190.64-14.15 14.15-14.14-14.15 14.14-14.14z"/><path id="XMLID_77887_" d="m64.79 261.36-14.15 14.14-14.14-14.14 14.14-14.15z"/><path id="XMLID_77888_" d="m26 216h20v20h-20z"/><path id="XMLID_77889_" d="m256 496c-55.14 0-100-44.859-100-100v-270c0-5.523 4.477-10 10-10s10 4.477 10 10v270c0 44.112 35.888 80 80 80s80-35.888 80-80v-270c0-5.523 4.478-10 10-10s10 4.477 10 10v270c0 55.141-44.859 100-100 100z"/><path id="XMLID_77890_" d="m376 136h-240c-5.523 0-10-4.477-10-10s4.477-10 10-10h240c5.522 0 10 4.477 10 10s-4.478 10-10 10z"/><path id="XMLID_77891_" d="m296 106c-5.522 0-10-4.477-10-10s4.478-10 10-10c5.514 0 10-4.486 10-10 0-2.668-1.041-5.179-2.932-7.069-1.89-1.89-4.4-2.931-7.068-2.931h-10c-5.522 0-10-4.477-10-10 0-11.028-8.972-20-20-20s-20 8.972-20 20c0 5.523-4.477 10-10 10h-10c-5.514 0-10 4.486-10 10 0 2.668 1.041 5.179 2.932 7.069 1.889 1.89 4.4 2.931 7.068 2.931 5.523 0 10 4.477 10 10s-4.477 10-10 10c-8.01 0-15.543-3.121-21.211-8.789s-8.789-13.201-8.789-21.211c0-16.542 13.458-30 30-30h1.266c4.451-17.233 20.13-30 38.734-30s34.283 12.767 38.734 30h1.266c8.01 0 15.542 3.121 21.21 8.789 5.669 5.668 8.79 13.201 8.79 21.211 0 16.542-13.458 30-30 30z"/><path id="XMLID_77892_" d="m246.008 106.002c-3.668 0-7.2-2.025-8.952-5.53l-10-20c-2.47-4.94-.468-10.947 4.472-13.417 4.942-2.469 10.947-.467 13.417 4.472l10 20c2.47 4.94.468 10.947-4.472 13.417-1.436.718-2.963 1.058-4.465 1.058z"/><path id="XMLID_77893_" d="m265.992 106.002c-1.503 0-3.028-.34-4.464-1.058-4.94-2.47-6.942-8.477-4.473-13.417l10-20c2.47-4.94 8.477-6.942 13.416-4.472 4.94 2.47 6.942 8.477 4.473 13.417l-10 20c-1.752 3.504-5.284 5.53-8.952 5.53z"/><path id="XMLID_77894_" d="m346 316h-180c-5.523 0-10-4.478-10-10s4.477-10 10-10h180c5.522 0 10 4.478 10 10s-4.478 10-10 10z"/><path id="XMLID_77895_" d="m226 396c-16.542 0-30-13.458-30-30s13.458-30 30-30 30 13.458 30 30-13.458 30-30 30zm0-40c-5.514 0-10 4.486-10 10s4.486 10 10 10 10-4.486 10-10-4.486-10-10-10z"/><path id="XMLID_77898_" d="m286 446c-16.542 0-30-13.458-30-30s13.458-30 30-30 30 13.458 30 30-13.458 30-30 30zm0-40c-5.514 0-10 4.486-10 10s4.486 10 10 10 10-4.486 10-10-4.486-10-10-10z"/><path id="XMLID_77901_" d="m266 246c-16.542 0-30-13.458-30-30s13.458-30 30-30 30 13.458 30 30-13.458 30-30 30zm0-40c-5.514 0-10 4.486-10 10s4.486 10 10 10 10-4.486 10-10-4.486-10-10-10z"/><path id="XMLID_77904_" d="m486 496h-460c-5.523 0-10-4.478-10-10s4.477-10 10-10h460c5.522 0 10 4.478 10 10s-4.478 10-10 10z"/></g></g></svg>