<svg enable-background="new 0 0 512 512" height="512" viewBox="0 0 512 512" width="512" xmlns="http://www.w3.org/2000/svg"><g id="_x31_581_x2C__Cloud_Computing_x2C__Cloud_Magnifying_x2C__Cloud_Service_x2C__Cloud_search_x2C__Internet_Cloud"><g><path id="XMLID_77972_" d="m335.995 306h50c27.62 0 52.62-11.19 70.71-29.29 18.1-18.09 29.29-43.09 29.29-70.71 0-22.97-7.75-44.13-20.77-61.01-5.37-38.97-38.79-68.99-79.23-68.99-19.6 0-37.54 7.06-51.45 18.75-14-23.22-39.46-38.75-68.55-38.75-14.67 0-28.41 3.97-40.23 10.86-13.71-24.38-39.81-40.86-69.77-40.86-44.18 0-80 35.82-80 80 0 4.36.36 8.63 1.03 12.8-15.23 8.57-27.98 21.01-36.93 35.99-8.96 14.97-14.1 32.49-14.1 51.21 0 55.23 34.77 100 90 100z" fill="#65b2fe"/><path id="XMLID_77973_" d="m474.855 448.07c9.899 4.89 13.96 16.89 9.06 26.79-3.479 7.05-10.57 11.14-17.939 11.14-2.98 0-6-.67-8.851-2.08l-143.42-70.91-.3-.229c8.06-10.521 14.26-22.55 18.1-35.59z" fill="#73665c"/><path id="XMLID_77974_" d="m329.325 308.18c-15.43-42.12-55.87-72.18-103.33-72.18s-87.9 30.06-103.33 72.18c-4.31 11.79-6.67 24.53-6.67 37.82 0 60.75 49.25 110 110 110 35.63 0 67.31-16.95 87.41-43.22 8.06-10.521 14.26-22.55 18.1-35.59 2.92-9.891 4.49-20.351 4.49-31.19 0-13.29-2.36-26.03-6.67-37.82z" fill="#57606f"/><circle id="XMLID_77975_" cx="225.995" cy="346" fill="#d8f2f1" r="70"/><path id="XMLID_77976_" d="m375.995 196h20v20h-20z"/><path id="XMLID_77977_" d="m355.995 216h20v20h-20z"/><path id="XMLID_77978_" d="m355.995 176h20v20h-20z"/><path id="XMLID_77979_" d="m335.995 196h20v20h-20z"/><path id="XMLID_77980_" d="m155.995 116h20v20h-20z"/><path id="XMLID_77981_" d="m135.995 136h20v20h-20z"/><path id="XMLID_77982_" d="m135.995 96h20v20h-20z"/><path id="XMLID_77983_" d="m115.995 116h20v20h-20z"/><path id="XMLID_77984_" d="m385.995 316h-50c-5.522 0-10-4.478-10-10s4.478-10 10-10h50c24.048 0 46.648-9.361 63.637-26.359 17.002-16.993 26.363-39.593 26.363-63.641 0-20.067-6.462-39.052-18.688-54.902-1.065-1.38-1.75-3.015-1.988-4.742-4.741-34.409-34.545-60.356-69.324-60.356-16.44 0-32.428 5.826-45.017 16.406-2.237 1.881-5.188 2.689-8.073 2.209-2.884-.479-5.414-2.197-6.924-4.701-12.803-21.236-35.228-33.914-59.986-33.914-12.363 0-24.533 3.285-35.194 9.5-2.313 1.349-5.071 1.713-7.659 1.01-2.585-.703-4.78-2.413-6.093-4.748-12.405-22.059-35.799-35.762-61.054-35.762-38.598 0-70 31.402-70 70 0 3.71.304 7.483.903 11.213.664 4.136-1.319 8.247-4.969 10.301-13.689 7.703-25.187 18.908-33.25 32.404-8.3 13.867-12.685 29.799-12.685 46.081 0 52.99 32.897 90 80 90 5.523 0 10 4.478 10 10s-4.477 10-10 10c-29.052 0-55.079-11.635-73.286-32.76-17.226-19.987-26.713-47.418-26.713-77.239 0-19.898 5.367-39.383 15.52-56.346 8.683-14.532 20.631-26.893 34.804-36.064-.215-2.537-.323-5.073-.323-7.59 0-49.626 40.374-90 90-90 29.238 0 56.534 14.279 73.317 37.819 11.5-5.135 24.014-7.819 36.682-7.819 28.149 0 53.951 12.745 70.924 34.568 14.535-9.452 31.606-14.568 49.076-14.568 43.825 0 81.506 32.051 88.733 74.987 13.922 18.947 21.267 41.368 21.267 65.013 0 29.392-11.443 57.017-32.221 77.783-20.762 20.774-48.386 32.217-77.779 32.217z"/><path id="XMLID_77985_" d="m465.976 496c-4.634 0-9.104-1.049-13.284-3.117l-143.418-70.909c-4.951-2.447-6.98-8.445-4.532-13.396 2.447-4.951 8.445-6.983 13.396-4.532l143.42 70.91c1.401.693 2.888 1.044 4.419 1.044 3.84 0 7.278-2.133 8.973-5.565 1.188-2.403 1.37-5.114.514-7.645-.855-2.529-2.644-4.572-5.035-5.754l-143.354-70.882c-.013-.007-.106-.053-.119-.06-4.94-2.47-6.942-8.477-4.473-13.416 2.47-4.941 8.476-6.942 13.416-4.473l.08.04 143.312 70.86c7.181 3.547 12.552 9.683 15.12 17.275 2.568 7.594 2.024 15.731-1.531 22.914-5.086 10.302-15.396 16.706-26.904 16.706z"/><path id="XMLID_77986_" d="m225.995 466c-66.168 0-120-53.832-120-120 0-14.164 2.449-28.044 7.278-41.254 17.256-47.102 62.554-78.746 112.722-78.746s95.467 31.644 112.72 78.74c4.832 13.218 7.28 27.098 7.28 41.26 0 11.563-1.648 23.01-4.899 34.021-4.144 14.071-10.79 27.141-19.752 38.84-22.921 29.956-57.676 47.139-95.349 47.139zm0-220c-41.81 0-79.562 26.37-93.94 65.619-4.02 10.997-6.06 22.566-6.06 34.381 0 55.141 44.86 100 100 100 31.395 0 60.359-14.323 79.469-39.297 7.467-9.746 12.999-20.625 16.448-32.338 2.71-9.179 4.083-18.721 4.083-28.365 0-11.813-2.04-23.383-6.063-34.388-14.374-39.242-52.126-65.612-93.937-65.612z"/><path id="XMLID_77989_" d="m225.995 426c-44.112 0-80-35.888-80-80s35.888-80 80-80 80 35.888 80 80-35.888 80-80 80zm0-140c-33.084 0-60 26.916-60 60s26.916 60 60 60 60-26.916 60-60-26.916-60-60-60z"/><path id="XMLID_77992_" d="m255.995 356c-5.523 0-10-4.478-10-10 0-11.028-8.972-20-20-20-5.523 0-10-4.478-10-10s4.477-10 10-10c22.056 0 40 17.944 40 40 0 5.522-4.477 10-10 10z"/></g></g></svg>