<svg enable-background="new 0 0 512 512" height="512" viewBox="0 0 512 512" width="512" xmlns="http://www.w3.org/2000/svg"><g id="_x31_582_x2C__Chemical_Equipment_x2C__Chemistry_Lab_x2C__Chemistry_Laboratory_x2C__Lab_Equipment_x2C__Science_Lab"><g><path id="XMLID_78025_" d="m234 206 28 28v35 35 35 35 35 35 14c0 15.46 12.54 28 28 28h168c15.46 0 28-12.54 28-28v-252z" fill="#d8f2f1"/><g fill="#e3835a"><path id="XMLID_78026_" d="m206 396c0 49.71-40.29 90-90 90s-90-40.29-90-90c0-7.35.88-14.49 2.54-21.33l7.46 1.33s26.67 35.33 70 10 100 10 100 10z"/><path id="XMLID_78027_" d="m416 386c11.05 0 20 8.95 20 20s-8.95 20-20 20-20-8.95-20-20 8.95-20 20-20z"/><path id="XMLID_78028_" d="m386 296c11.05 0 20 8.95 20 20s-8.95 20-20 20-20-8.95-20-20 8.95-20 20-20z"/><path id="XMLID_78029_" d="m176 66c11.05 0 20 8.95 20 20s-8.95 20-20 20-20-8.95-20-20 8.95-20 20-20z"/></g><path id="XMLID_78030_" d="m166 146v40h-20-60-20v-40z" fill="#b2dbd8"/><path id="XMLID_78031_" d="m146 311.13c34.95 12.351 60 45.68 60 84.87 0 0-56.67-35.33-100-10s-70-10-70-10l-7.46-1.33c7.2-29.62 29.06-53.51 57.46-63.54v-125.13h60z" fill="#d8f2f1"/><path id="XMLID_78032_" d="m286 26v100h48l-18 30 100-30h70v-100z" fill="#80af52"/><path id="XMLID_78033_" d="m426 66h20v20h-20z"/><path id="XMLID_78034_" d="m376 66h20v20h-20z"/><path id="XMLID_78035_" d="m326 66h20v20h-20z"/><path id="XMLID_78036_" d="m96 66h20v20h-20z"/><path id="XMLID_78037_" d="m76 86h20v20h-20z"/><path id="XMLID_78038_" d="m76 46h20v20h-20z"/><path id="XMLID_78039_" d="m56 66h20v20h-20z"/><path id="XMLID_78040_" d="m486 496h-28c-5.522 0-10-4.478-10-10s4.478-10 10-10h28c5.522 0 10 4.478 10 10s-4.478 10-10 10z"/><path id="XMLID_78041_" d="m290 496h-264c-5.523 0-10-4.478-10-10s4.477-10 10-10h264c5.522 0 10 4.478 10 10s-4.478 10-10 10z"/><path id="XMLID_78042_" d="m116 496c-55.14 0-100-44.859-100-100 0-8.003.95-15.974 2.822-23.688 7.436-30.591 28.568-55.546 57.178-67.988v-118.324c0-5.523 4.477-10 10-10s10 4.477 10 10v125.13c0 4.239-2.673 8.018-6.67 9.429-25.581 9.035-44.673 30.146-51.073 56.474-1.497 6.168-2.257 12.551-2.257 18.967 0 44.112 35.888 80 80 80s80-35.888 80-80c0-33.852-21.433-64.169-53.332-75.441-3.996-1.412-6.668-5.19-6.668-9.429v-125.13c0-5.523 4.477-10 10-10s10 4.477 10 10v118.33c36.166 15.783 60 51.763 60 91.67 0 55.141-44.86 100-100 100z"/><path id="XMLID_78043_" d="m166 196h-100c-5.523 0-10-4.477-10-10v-40c0-5.523 4.477-10 10-10h100c5.523 0 10 4.477 10 10v40c0 5.523-4.477 10-10 10zm-90-20h80v-20h-80z"/><path id="XMLID_78046_" d="m205.991 406.001c-1.807 0-3.635-.489-5.281-1.515-.505-.313-52.148-31.781-89.663-9.854-26.132 15.276-47.346 11.106-60.541 4.92-13.925-6.529-21.652-16.422-22.487-17.527-3.327-4.408-2.451-10.68 1.957-14.007 4.392-3.317 10.637-2.456 13.972 1.912.187.237 5.914 7.433 15.716 11.819 12.699 5.683 26.591 4.21 41.29-4.383 47.991-28.056 107.814 8.573 110.337 10.146 4.687 2.922 6.117 9.09 3.195 13.776-1.896 3.043-5.158 4.713-8.495 4.713z"/><path id="XMLID_78047_" d="m458 496h-168c-20.953 0-38-17.047-38-38v-219.858l-25.071-25.071c-2.86-2.86-3.715-7.162-2.167-10.898 1.548-3.737 5.194-6.173 9.239-6.173h252c5.522 0 10 4.477 10 10v252c-.001 20.953-17.048 38-38.001 38zm-199.857-280 10.929 10.929c1.875 1.875 2.929 4.419 2.929 7.071v224c0 9.925 8.075 18 18 18h168c9.925 0 18-8.075 18-18v-242z"/><path id="XMLID_78050_" d="m297 279h-35c-5.523 0-10-4.478-10-10s4.477-10 10-10h35c5.522 0 10 4.478 10 10s-4.478 10-10 10z"/><path id="XMLID_78051_" d="m297 314h-35c-5.523 0-10-4.478-10-10s4.477-10 10-10h35c5.522 0 10 4.478 10 10s-4.478 10-10 10z"/><path id="XMLID_78052_" d="m297 349h-35c-5.523 0-10-4.478-10-10s4.477-10 10-10h35c5.522 0 10 4.478 10 10s-4.478 10-10 10z"/><path id="XMLID_78053_" d="m297 384h-35c-5.523 0-10-4.478-10-10s4.477-10 10-10h35c5.522 0 10 4.478 10 10s-4.478 10-10 10z"/><path id="XMLID_78054_" d="m297 419h-35c-5.523 0-10-4.478-10-10s4.477-10 10-10h35c5.522 0 10 4.478 10 10s-4.478 10-10 10z"/><path id="XMLID_78055_" d="m297 454h-35c-5.523 0-10-4.478-10-10s4.477-10 10-10h35c5.522 0 10 4.478 10 10s-4.478 10-10 10z"/><path id="XMLID_78056_" d="m316.001 166c-3.034 0-5.969-1.384-7.896-3.862-2.534-3.26-2.805-7.742-.681-11.283l8.914-14.855h-30.338c-5.522 0-10-4.477-10-10v-100c0-5.523 4.478-10 10-10h200c5.522 0 10 4.477 10 10v100c0 5.523-4.478 10-10 10h-68.532l-98.595 29.578c-.948.285-1.915.422-2.872.422zm-20.001-50h38c3.603 0 6.927 1.938 8.702 5.073 1.774 3.135 1.727 6.982-.127 10.072l-4.714 7.856 75.266-22.58c.932-.28 1.899-.422 2.873-.422h60v-79.999h-180z"/><path id="XMLID_78059_" d="m386 346c-16.542 0-30-13.458-30-30s13.458-30 30-30 30 13.458 30 30-13.458 30-30 30zm0-40c-5.514 0-10 4.486-10 10s4.486 10 10 10 10-4.486 10-10-4.486-10-10-10z"/><path id="XMLID_78062_" d="m416 436c-16.542 0-30-13.458-30-30s13.458-30 30-30 30 13.458 30 30-13.458 30-30 30zm0-40c-5.514 0-10 4.486-10 10s4.486 10 10 10 10-4.486 10-10-4.486-10-10-10z"/><path id="XMLID_78065_" d="m176 116c-16.542 0-30-13.458-30-30s13.458-30 30-30 30 13.458 30 30-13.458 30-30 30zm0-40c-5.514 0-10 4.486-10 10s4.486 10 10 10 10-4.486 10-10-4.486-10-10-10z"/></g></g></svg>