<svg enable-background="new 0 0 512 512" height="512" viewBox="0 0 512 512" width="512" xmlns="http://www.w3.org/2000/svg"><g id="_x31_583_x2C__Chip_x2C__Circuit_Board_x2C__Cpu_x2C__Motherboard_x2C__Processor"><g><path id="XMLID_78104_" d="m401.67 86h-5.67-40-40-40-40-40-40-40-5.67c-13.44 0-24.33 10.89-24.33 24.33v5.67 40 40 40 40 40 40 40 5.67c0 13.44 10.89 24.33 24.33 24.33h5.67 40 40 40 40 40 40 40 5.67c13.44 0 24.33-10.89 24.33-24.33v-5.67-40-40-40-40-40-40-40-5.67c0-13.44-10.89-24.33-24.33-24.33z" fill="#fcd884"/><path id="XMLID_78105_" d="m376 126c5.52 0 10 4.48 10 10s-4.48 10-10 10-10-4.48-10-10 4.48-10 10-10z"/><path id="XMLID_78106_" d="m376 366c5.52 0 10 4.48 10 10s-4.48 10-10 10-10-4.48-10-10 4.48-10 10-10z"/><path id="XMLID_78107_" d="m136 126c5.52 0 10 4.48 10 10s-4.48 10-10 10-10-4.48-10-10 4.48-10 10-10z"/><path id="XMLID_78108_" d="m136 366c5.52 0 10 4.48 10 10s-4.48 10-10 10-10-4.48-10-10 4.48-10 10-10z"/><path id="XMLID_78109_" d="m401.67 436h-291.34c-18.93 0-34.33-15.4-34.33-34.33v-291.34c0-18.93 15.4-34.33 34.33-34.33h291.34c18.93 0 34.33 15.4 34.33 34.33v291.34c0 18.93-15.4 34.33-34.33 34.33zm-291.34-340c-7.902 0-14.33 6.428-14.33 14.33v291.34c0 7.901 6.428 14.33 14.33 14.33h291.34c7.901 0 14.33-6.429 14.33-14.33v-291.34c0-7.902-6.429-14.33-14.33-14.33z"/><path id="XMLID_78112_" d="m116 96c-5.523 0-10-4.477-10-10v-60c0-5.523 4.477-10 10-10s10 4.477 10 10v60c0 5.523-4.477 10-10 10z"/><path id="XMLID_78113_" d="m156 96c-5.523 0-10-4.477-10-10v-60c0-5.523 4.477-10 10-10s10 4.477 10 10v60c0 5.523-4.477 10-10 10z"/><path id="XMLID_78114_" d="m196 96c-5.523 0-10-4.477-10-10v-60c0-5.523 4.477-10 10-10s10 4.477 10 10v60c0 5.523-4.477 10-10 10z"/><path id="XMLID_78115_" d="m236 96c-5.523 0-10-4.477-10-10v-60c0-5.523 4.477-10 10-10s10 4.477 10 10v60c0 5.523-4.477 10-10 10z"/><path id="XMLID_78116_" d="m276 96c-5.522 0-10-4.477-10-10v-60c0-5.523 4.478-10 10-10s10 4.477 10 10v60c0 5.523-4.478 10-10 10z"/><path id="XMLID_78117_" d="m316 96c-5.522 0-10-4.477-10-10v-60c0-5.523 4.478-10 10-10s10 4.477 10 10v60c0 5.523-4.478 10-10 10z"/><path id="XMLID_78118_" d="m356 96c-5.522 0-10-4.477-10-10v-60c0-5.523 4.478-10 10-10s10 4.477 10 10v60c0 5.523-4.478 10-10 10z"/><path id="XMLID_78119_" d="m396 96c-5.522 0-10-4.477-10-10v-60c0-5.523 4.478-10 10-10s10 4.477 10 10v60c0 5.523-4.478 10-10 10z"/><path id="XMLID_78120_" d="m116 496c-5.523 0-10-4.478-10-10v-60c0-5.522 4.477-10 10-10s10 4.478 10 10v60c0 5.522-4.477 10-10 10z"/><path id="XMLID_78121_" d="m156 496c-5.523 0-10-4.478-10-10v-60c0-5.522 4.477-10 10-10s10 4.478 10 10v60c0 5.522-4.477 10-10 10z"/><path id="XMLID_78122_" d="m196 496c-5.523 0-10-4.478-10-10v-60c0-5.522 4.477-10 10-10s10 4.478 10 10v60c0 5.522-4.477 10-10 10z"/><path id="XMLID_78123_" d="m236 496c-5.523 0-10-4.478-10-10v-60c0-5.522 4.477-10 10-10s10 4.478 10 10v60c0 5.522-4.477 10-10 10z"/><path id="XMLID_78124_" d="m276 496c-5.522 0-10-4.478-10-10v-60c0-5.522 4.478-10 10-10s10 4.478 10 10v60c0 5.522-4.478 10-10 10z"/><path id="XMLID_78125_" d="m316 496c-5.522 0-10-4.478-10-10v-60c0-5.522 4.478-10 10-10s10 4.478 10 10v60c0 5.522-4.478 10-10 10z"/><path id="XMLID_78126_" d="m356 496c-5.522 0-10-4.478-10-10v-60c0-5.522 4.478-10 10-10s10 4.478 10 10v60c0 5.522-4.478 10-10 10z"/><path id="XMLID_78127_" d="m396 496c-5.522 0-10-4.478-10-10v-60c0-5.522 4.478-10 10-10s10 4.478 10 10v60c0 5.522-4.478 10-10 10z"/><path id="XMLID_78128_" d="m486 126h-60c-5.522 0-10-4.477-10-10s4.478-10 10-10h60c5.522 0 10 4.477 10 10s-4.478 10-10 10z"/><path id="XMLID_78129_" d="m486 166h-60c-5.522 0-10-4.477-10-10s4.478-10 10-10h60c5.522 0 10 4.477 10 10s-4.478 10-10 10z"/><path id="XMLID_78130_" d="m486 206h-60c-5.522 0-10-4.477-10-10s4.478-10 10-10h60c5.522 0 10 4.477 10 10s-4.478 10-10 10z"/><path id="XMLID_78131_" d="m486 246h-60c-5.522 0-10-4.477-10-10s4.478-10 10-10h60c5.522 0 10 4.477 10 10s-4.478 10-10 10z"/><path id="XMLID_78132_" d="m486 286h-60c-5.522 0-10-4.478-10-10s4.478-10 10-10h60c5.522 0 10 4.478 10 10s-4.478 10-10 10z"/><path id="XMLID_78133_" d="m486 326h-60c-5.522 0-10-4.478-10-10s4.478-10 10-10h60c5.522 0 10 4.478 10 10s-4.478 10-10 10z"/><path id="XMLID_78134_" d="m486 366h-60c-5.522 0-10-4.478-10-10s4.478-10 10-10h60c5.522 0 10 4.478 10 10s-4.478 10-10 10z"/><path id="XMLID_78135_" d="m486 406h-60c-5.522 0-10-4.478-10-10s4.478-10 10-10h60c5.522 0 10 4.478 10 10s-4.478 10-10 10z"/><path id="XMLID_78136_" d="m86 126h-60c-5.523 0-10-4.477-10-10s4.477-10 10-10h60c5.523 0 10 4.477 10 10s-4.477 10-10 10z"/><path id="XMLID_78137_" d="m86 166h-60c-5.523 0-10-4.477-10-10s4.477-10 10-10h60c5.523 0 10 4.477 10 10s-4.477 10-10 10z"/><path id="XMLID_78138_" d="m86 206h-60c-5.523 0-10-4.477-10-10s4.477-10 10-10h60c5.523 0 10 4.477 10 10s-4.477 10-10 10z"/><path id="XMLID_78139_" d="m86 246h-60c-5.523 0-10-4.477-10-10s4.477-10 10-10h60c5.523 0 10 4.477 10 10s-4.477 10-10 10z"/><path id="XMLID_78140_" d="m86 286h-60c-5.523 0-10-4.478-10-10s4.477-10 10-10h60c5.523 0 10 4.478 10 10s-4.477 10-10 10z"/><path id="XMLID_78141_" d="m86 326h-60c-5.523 0-10-4.478-10-10s4.477-10 10-10h60c5.523 0 10 4.478 10 10s-4.477 10-10 10z"/><path id="XMLID_78142_" d="m86 366h-60c-5.523 0-10-4.478-10-10s4.477-10 10-10h60c5.523 0 10 4.478 10 10s-4.477 10-10 10z"/><path id="XMLID_78143_" d="m86 406h-60c-5.523 0-10-4.478-10-10s4.477-10 10-10h60c5.523 0 10 4.478 10 10s-4.477 10-10 10z"/><path id="XMLID_78144_" d="m306 176h-130c-5.523 0-10-4.477-10-10s4.477-10 10-10h130c5.522 0 10 4.477 10 10s-4.478 10-10 10z"/><path id="XMLID_78145_" d="m306 226h-130c-5.523 0-10-4.477-10-10s4.477-10 10-10h130c5.522 0 10 4.477 10 10s-4.478 10-10 10z"/><path id="XMLID_78146_" d="m266 276h-90c-5.523 0-10-4.478-10-10s4.477-10 10-10h90c5.522 0 10 4.478 10 10s-4.478 10-10 10z"/></g></g></svg>