<svg enable-background="new 0 0 512 512" height="512" viewBox="0 0 512 512" width="512" xmlns="http://www.w3.org/2000/svg"><g id="_x31_584_x2C__Artificial_Intelligence_x2C__Creativity_x2C__Deep_Learning_x2C__Intelligence_x2C__Machine_Learning"><g><g fill="#e3835a"><circle id="XMLID_78266_" cx="44.18" cy="126" r="18.18"/><circle id="XMLID_78267_" cx="68.145" cy="183.855" r="18.18"/><circle id="XMLID_78268_" cx="126" cy="207.82" r="18.18"/><circle id="XMLID_78269_" cx="183.855" cy="183.855" r="18.18"/><circle id="XMLID_78270_" cx="207.82" cy="126" r="18.18"/><circle id="XMLID_78271_" cx="183.855" cy="68.145" r="18.18"/><circle id="XMLID_78272_" cx="126" cy="44.18" r="18.18"/><circle id="XMLID_78273_" cx="68.145" cy="68.145" r="18.18"/></g><path id="XMLID_78274_" d="m151.71 100.29c6.58 6.58 10.65 15.67 10.65 25.71s-4.07 19.13-10.65 25.71-15.67 10.65-25.71 10.65-19.13-4.07-25.71-10.65-10.65-15.67-10.65-25.71 4.07-19.13 10.65-25.71 15.67-10.65 25.71-10.65 19.13 4.07 25.71 10.65z" fill="#d25400"/><path id="XMLID_78275_" d="m306 36c11.05 0 20 8.95 20 20s-8.95 20-20 20-20-8.95-20-20 8.95-20 20-20z" fill="#414a56"/><path id="XMLID_78276_" d="m196 356c11.05 0 20 8.95 20 20s-8.95 20-20 20-20-8.95-20-20 8.95-20 20-20z" fill="#414a56"/><path id="XMLID_78277_" d="m411.65 411.65v33.05h-33.04-49.57-33.04v-33.05z" fill="#414a56"/><path id="XMLID_78278_" d="m378.61 444.7v16.52c0 13.681-11.101 24.78-24.78 24.78-13.69 0-24.79-11.1-24.79-24.78v-16.52z" fill="#57606f"/><path id="XMLID_78279_" d="m411.65 378.61v33.04h-115.65v-33.04h57.83z" fill="#57606f"/><path id="XMLID_78280_" d="m353.83 378.61h-57.83v-21.56c-44.02-21.45-74.35-66.62-74.35-118.88 0-72.99 59.18-132.17 132.18-132.17 72.99 0 132.17 59.18 132.17 132.17 0 52.26-30.33 97.43-74.35 118.88v21.561h-57.82z" fill="#d8f2f1"/><path id="XMLID_78281_" d="m466 56h20v20h-20z"/><path id="XMLID_78282_" d="m446 76h20v20h-20z"/><path id="XMLID_78283_" d="m446 36h20v20h-20z"/><path id="XMLID_78284_" d="m426 56h20v20h-20z"/><path id="XMLID_78285_" d="m126 326h20v20h-20z"/><path id="XMLID_78286_" d="m106 346h20v20h-20z"/><path id="XMLID_78287_" d="m106 306h20v20h-20z"/><path id="XMLID_78288_" d="m86 326h20v20h-20z"/><path id="XMLID_78289_" d="m486 496h-460c-5.523 0-10-4.478-10-10s4.477-10 10-10h460c5.522 0 10 4.478 10 10s-4.478 10-10 10z"/><path id="XMLID_78290_" d="m411.65 454.7h-33.04c-5.522 0-10-4.478-10-10s4.478-10 10-10h23.04v-77.65c0-3.824 2.182-7.314 5.619-8.989 42.395-20.659 68.731-62.766 68.731-109.891 0-67.365-54.806-122.17-122.17-122.17-67.37 0-122.18 54.805-122.18 122.17 0 47.125 26.336 89.232 68.731 109.891 3.438 1.675 5.619 5.165 5.619 8.989v77.65h23.04c5.522 0 10 4.478 10 10s-4.478 10-10 10h-33.04c-5.522 0-10-4.478-10-10v-81.555c-21.165-11.502-39.095-28.202-52.112-48.603-14.548-22.799-22.238-49.208-22.238-76.373 0-78.392 63.782-142.169 142.18-142.169 78.393 0 142.17 63.777 142.17 142.17 0 27.165-7.689 53.574-22.237 76.373-13.018 20.4-30.947 37.101-52.112 48.602v81.555c-.001 5.523-4.478 10-10.001 10z"/><path id="XMLID_78291_" d="m353.83 496c-19.184 0-34.79-15.603-34.79-34.78v-16.52c0-5.522 4.478-10 10-10h49.57c5.522 0 10 4.478 10 10v16.52c0 19.177-15.602 34.78-34.78 34.78zm-14.79-41.3v6.52c0 8.149 6.635 14.78 14.79 14.78 8.149 0 14.78-6.631 14.78-14.78v-6.52z"/><path id="XMLID_78294_" d="m436.43 388.61h-165.21c-5.522 0-10-4.478-10-10s4.478-10 10-10h165.21c5.522 0 10 4.478 10 10s-4.478 10-10 10z"/><path id="XMLID_78295_" d="m436.43 421.65h-165.21c-5.522 0-10-4.478-10-10s4.478-10 10-10h165.21c5.522 0 10 4.478 10 10s-4.478 10-10 10z"/><path id="XMLID_78296_" d="m353.825 256.43c-2.303 0-4.616-.791-6.502-2.407l-57.83-49.56c-4.194-3.594-4.68-9.907-1.086-14.101 3.592-4.194 9.905-4.681 14.1-1.086l57.83 49.56c4.194 3.594 4.68 9.907 1.086 14.101-1.978 2.308-4.779 3.493-7.598 3.493z"/><path id="XMLID_78297_" d="m353.835 256.43c-2.818 0-5.619-1.185-7.598-3.492-3.594-4.193-3.108-10.506 1.085-14.101l57.82-49.56c4.193-3.595 10.505-3.108 14.101 1.085 3.594 4.193 3.108 10.506-1.085 14.101l-57.82 49.56c-1.886 1.616-4.2 2.407-6.503 2.407z"/><path id="XMLID_78298_" d="m353.83 388.61c-5.522 0-10-4.478-10-10v-132.18c0-5.523 4.478-10.015 10-10.015s10 4.462 10 9.985v132.21c0 5.523-4.477 10-10 10z"/><path id="XMLID_78299_" d="m126 172.36c-12.383 0-24.024-4.822-32.781-13.579s-13.579-20.398-13.579-32.781 4.822-24.024 13.579-32.781 20.398-13.579 32.781-13.579 24.024 4.822 32.781 13.579 13.579 20.398 13.579 32.781-4.822 24.024-13.579 32.781-20.398 13.579-32.781 13.579zm0-72.72c-7.041 0-13.66 2.742-18.639 7.721s-7.721 11.598-7.721 18.639 2.742 13.66 7.721 18.639 11.598 7.721 18.639 7.721 13.66-2.742 18.639-7.721 7.721-11.598 7.721-18.639-2.742-13.66-7.721-18.639-11.598-7.721-18.639-7.721z"/><path id="XMLID_78302_" d="m126 99.64c-5.523 0-10-4.477-10-10v-27.28c0-5.523 4.477-10 10-10s10 4.477 10 10v27.28c0 5.523-4.477 10-10 10z"/><path id="XMLID_78303_" d="m126 72.36c-15.539 0-28.18-12.641-28.18-28.18s12.641-28.18 28.18-28.18 28.18 12.642 28.18 28.18-12.641 28.18-28.18 28.18zm0-36.36c-4.511 0-8.18 3.669-8.18 8.18 0 4.51 3.669 8.18 8.18 8.18s8.18-3.669 8.18-8.18-3.669-8.18-8.18-8.18z"/><path id="XMLID_78306_" d="m126 199.64c-5.523 0-10-4.477-10-10v-27.28c0-5.523 4.477-10 10-10s10 4.477 10 10v27.28c0 5.523-4.477 10-10 10z"/><path id="XMLID_78307_" d="m126 236c-15.539 0-28.18-12.642-28.18-28.18s12.642-28.18 28.18-28.18 28.18 12.641 28.18 28.18-12.641 28.18-28.18 28.18zm0-36.36c-4.511 0-8.18 3.669-8.18 8.18s3.669 8.18 8.18 8.18 8.18-3.669 8.18-8.18c0-4.51-3.669-8.18-8.18-8.18z"/><path id="XMLID_78310_" d="m151.71 110.29c-2.559 0-5.119-.976-7.071-2.929-3.905-3.905-3.905-10.237 0-14.143l19.29-19.29c3.905-3.905 10.237-3.905 14.143 0 3.905 3.905 3.905 10.237 0 14.143l-19.29 19.29c-1.953 1.953-4.513 2.929-7.072 2.929z"/><path id="XMLID_78311_" d="m183.855 96.325c-7.527 0-14.604-2.932-19.926-8.254-5.322-5.323-8.254-12.399-8.254-19.926s2.932-14.604 8.254-19.926c5.323-5.322 12.399-8.254 19.926-8.254s14.604 2.932 19.926 8.254c5.322 5.323 8.254 12.399 8.254 19.926s-2.932 14.604-8.254 19.926c-5.323 5.323-12.399 8.254-19.926 8.254zm0-36.36c-2.185 0-4.239.851-5.784 2.396s-2.396 3.599-2.396 5.784.851 4.239 2.396 5.784 3.599 2.396 5.784 2.396 4.239-.851 5.784-2.396 2.396-3.599 2.396-5.784-.851-4.239-2.396-5.784-3.599-2.396-5.784-2.396z"/><path id="XMLID_78314_" d="m81 181c-2.559 0-5.119-.976-7.071-2.929-3.905-3.905-3.905-10.237 0-14.143l19.29-19.29c3.905-3.905 10.237-3.905 14.143 0 3.905 3.905 3.905 10.237 0 14.143l-19.29 19.29c-1.953 1.953-4.513 2.929-7.072 2.929z"/><path id="XMLID_78315_" d="m68.145 212.035c-7.527 0-14.604-2.932-19.926-8.254-5.322-5.323-8.254-12.399-8.254-19.926s2.932-14.604 8.254-19.926c5.323-5.322 12.399-8.254 19.926-8.254s14.604 2.932 19.926 8.254c5.322 5.323 8.254 12.399 8.254 19.926s-2.932 14.604-8.254 19.926c-5.322 5.323-12.399 8.254-19.926 8.254zm0-36.36c-2.185 0-4.239.851-5.784 2.396s-2.396 3.599-2.396 5.784.851 4.239 2.396 5.784 3.599 2.396 5.784 2.396 4.239-.851 5.784-2.396 2.396-3.599 2.396-5.784-.851-4.239-2.396-5.784-3.599-2.396-5.784-2.396z"/><path id="XMLID_78318_" d="m189.64 136h-27.28c-5.523 0-10-4.477-10-10s4.477-10 10-10h27.28c5.523 0 10 4.477 10 10s-4.477 10-10 10z"/><path id="XMLID_78319_" d="m207.82 154.18c-15.539 0-28.18-12.642-28.18-28.18s12.641-28.18 28.18-28.18 28.18 12.641 28.18 28.18-12.642 28.18-28.18 28.18zm0-36.36c-4.51 0-8.18 3.669-8.18 8.18s3.669 8.18 8.18 8.18 8.18-3.669 8.18-8.18-3.669-8.18-8.18-8.18z"/><path id="XMLID_78322_" d="m89.64 136h-27.28c-5.523 0-10-4.477-10-10s4.477-10 10-10h27.28c5.523 0 10 4.477 10 10s-4.477 10-10 10z"/><path id="XMLID_78323_" d="m44.18 154.18c-15.538 0-28.18-12.641-28.18-28.18s12.642-28.18 28.18-28.18 28.18 12.641 28.18 28.18-12.641 28.18-28.18 28.18zm0-36.36c-4.511 0-8.18 3.669-8.18 8.18s3.669 8.18 8.18 8.18c4.51 0 8.18-3.669 8.18-8.18s-3.67-8.18-8.18-8.18z"/><path id="XMLID_78326_" d="m171 181c-2.559 0-5.119-.976-7.071-2.929l-19.29-19.29c-3.905-3.905-3.905-10.237 0-14.143 3.905-3.905 10.237-3.905 14.143 0l19.29 19.29c3.905 3.905 3.905 10.237 0 14.143-1.953 1.953-4.513 2.929-7.072 2.929z"/><path id="XMLID_78327_" d="m183.855 212.035c-7.527 0-14.604-2.932-19.926-8.254-5.322-5.323-8.254-12.399-8.254-19.926s2.932-14.604 8.254-19.926c5.323-5.322 12.399-8.254 19.926-8.254s14.604 2.932 19.926 8.254c5.322 5.323 8.254 12.399 8.254 19.926s-2.932 14.604-8.254 19.926c-5.323 5.323-12.399 8.254-19.926 8.254zm0-36.36c-2.185 0-4.239.851-5.784 2.396s-2.396 3.599-2.396 5.784.851 4.239 2.396 5.784 3.599 2.396 5.784 2.396 4.239-.851 5.784-2.396 2.396-3.599 2.396-5.784-.851-4.239-2.396-5.784-3.599-2.396-5.784-2.396z"/><path id="XMLID_78330_" d="m100.29 110.29c-2.559 0-5.119-.976-7.071-2.929l-19.29-19.29c-3.905-3.905-3.905-10.237 0-14.143 3.905-3.905 10.237-3.905 14.143 0l19.29 19.29c3.905 3.905 3.905 10.237 0 14.143-1.953 1.953-4.513 2.929-7.072 2.929z"/><path id="XMLID_78331_" d="m68.145 96.325c-7.527 0-14.604-2.932-19.926-8.254-5.322-5.323-8.254-12.399-8.254-19.926s2.932-14.604 8.254-19.926c5.323-5.322 12.399-8.254 19.926-8.254s14.604 2.932 19.926 8.254c5.322 5.323 8.254 12.399 8.254 19.926s-2.932 14.604-8.254 19.926c-5.322 5.323-12.399 8.254-19.926 8.254zm0-36.36c-2.185 0-4.239.851-5.784 2.396s-2.396 3.599-2.396 5.784.851 4.239 2.396 5.784 3.599 2.396 5.784 2.396 4.239-.851 5.784-2.396 2.396-3.599 2.396-5.784-.851-4.239-2.396-5.784-3.599-2.396-5.784-2.396z"/><path id="XMLID_78334_" d="m196 406c-16.542 0-30-13.458-30-30s13.458-30 30-30 30 13.458 30 30-13.458 30-30 30zm0-40c-5.514 0-10 4.486-10 10s4.486 10 10 10 10-4.486 10-10-4.486-10-10-10z"/><path id="XMLID_78337_" d="m306 86c-16.542 0-30-13.458-30-30s13.458-30 30-30 30 13.458 30 30-13.458 30-30 30zm0-40c-5.514 0-10 4.486-10 10s4.486 10 10 10 10-4.486 10-10-4.486-10-10-10z"/></g></g></svg>