<svg enable-background="new 0 0 512 512" height="512" viewBox="0 0 512 512" width="512" xmlns="http://www.w3.org/2000/svg"><g id="_x31_585_x2C__Laboratory_x2C__Laboratory_Research_x2C__Science_x2C__Science_Experiment_x2C__Science_Lab"><g><path id="XMLID_78411_" d="m366 256c11.05 0 20 8.95 20 20s-8.95 20-20 20-20-8.95-20-20 8.95-20 20-20z" fill="#c2b8b9"/><path id="XMLID_78412_" d="m146 206c11.05 0 20 8.95 20 20s-8.95 20-20 20-20-8.95-20-20 8.95-20 20-20z" fill="#c2b8b9"/><path id="XMLID_78413_" d="m373.01 425.39c10.79 15.351 9.41 36.45-3.92 49.66-6.399 6.351-15.06 10.51-25.06 10.92-.561.021-1.12.03-1.681.03h-178.5c-.56 0-1.12-.01-1.68-.03-10-.41-18.66-4.569-25.06-10.92-13.32-13.21-14.71-34.31-3.91-49.66l29.39-41.79 3.411 2.4s71 45 170-10l1.52-1.07z" fill="#e3835a"/><path id="XMLID_78416_" d="m303.1 326v-190h-47.1-52.9v190l-40.51 57.6 3.41 2.4s71 45 170-10l1.52-1.07z" fill="#d8f2f1"/><path id="XMLID_78417_" d="m278.11 70.22c8.22 16.44-3.73 35.78-22.11 35.78s-30.33-19.34-22.11-35.78l22.11-44.22z" fill="#ea7e23"/><path id="XMLID_78418_" d="m436 316h20v20h-20z"/><path id="XMLID_78419_" d="m436 266h20v20h-20z"/><path id="XMLID_78420_" d="m436 216h20v20h-20z"/><path id="XMLID_78421_" d="m436 166h20v20h-20z"/><path id="XMLID_78422_" d="m436 116h20v20h-20z"/><path id="XMLID_78423_" d="m266 306c5.52 0 10 4.48 10 10s-4.48 10-10 10-10-4.48-10-10 4.48-10 10-10z"/><path id="XMLID_78424_" d="m256 176c5.52 0 10 4.48 10 10s-4.48 10-10 10-10-4.48-10-10 4.48-10 10-10z"/><path id="XMLID_78425_" d="m246 236c5.52 0 10 4.48 10 10s-4.48 10-10 10-10-4.48-10-10 4.48-10 10-10z"/><path id="XMLID_78426_" d="m236 356c5.52 0 10 4.48 10 10s-4.48 10-10 10-10-4.48-10-10 4.48-10 10-10z"/><path id="XMLID_78427_" d="m56 316h20v20h-20z"/><path id="XMLID_78428_" d="m56 266h20v20h-20z"/><path id="XMLID_78429_" d="m56 216h20v20h-20z"/><path id="XMLID_78430_" d="m56 166h20v20h-20z"/><path id="XMLID_78431_" d="m56 116h20v20h-20z"/><path id="XMLID_78432_" d="m163.85 496c-.682 0-1.364-.012-2.046-.037-12-.492-23.255-5.397-31.738-13.814-16.732-16.594-18.854-42.886-5.045-62.513l68.079-96.8v-186.836c0-5.523 4.477-10 10-10s10 4.477 10 10v190c0 2.06-.636 4.068-1.82 5.753l-69.9 99.39c-8.179 11.624-7.013 27.104 2.771 36.807 3.489 3.462 9.516 7.663 18.428 8.029.395.014.833.021 1.271.021 5.523 0 10 4.478 10 10s-4.477 10-10 10z"/><path id="XMLID_78433_" d="m342.35 496c-5.522 0-10-4.478-10-10s4.478-10 10-10c.438 0 .877-.008 1.315-.023 8.867-.364 14.895-4.565 18.381-8.024 9.79-9.702 10.958-25.182 2.783-36.812l-69.908-99.387c-1.186-1.685-1.821-3.694-1.821-5.754v-190c0-5.523 4.478-10 10-10s10 4.477 10 10v186.835l68.09 96.802c13.805 19.64 11.676 45.931-5.061 62.516-8.478 8.413-19.732 13.318-31.688 13.809-.727.026-1.409.038-2.091.038z"/><path id="XMLID_78434_" d="m343.1 146h-180c-5.523 0-10-4.477-10-10s4.477-10 10-10h180c5.522 0 10 4.477 10 10s-4.478 10-10 10z"/><path id="XMLID_78435_" d="m237.452 413.301c-9.313 0-17.696-.717-25.014-1.779-31.872-4.629-50.993-16.569-51.792-17.075-4.665-2.956-6.049-9.135-3.093-13.8 2.951-4.655 9.112-6.042 13.773-3.109.323.199 17.165 10.486 45.01 14.337 37.455 5.178 76.083-3.102 114.807-24.615 4.827-2.682 10.916-.944 13.598 3.885 2.683 4.828.943 10.916-3.885 13.598-40.064 22.256-75.798 28.558-103.404 28.558z"/><path id="XMLID_78436_" d="m146 256c-16.542 0-30-13.458-30-30s13.458-30 30-30 30 13.458 30 30-13.458 30-30 30zm0-40c-5.514 0-10 4.486-10 10s4.486 10 10 10 10-4.486 10-10-4.486-10-10-10z"/><path id="XMLID_78439_" d="m366 306c-16.542 0-30-13.458-30-30s13.458-30 30-30 30 13.458 30 30-13.458 30-30 30zm0-40c-5.514 0-10 4.486-10 10s4.486 10 10 10 10-4.486 10-10-4.486-10-10-10z"/><path id="XMLID_78442_" d="m486 496h-460c-5.523 0-10-4.478-10-10s4.477-10 10-10h460c5.522 0 10 4.478 10 10s-4.478 10-10 10z"/><path id="XMLID_78443_" d="m256 146c-5.523 0-10-4.477-10-10v-30c0-5.523 4.477-10 10-10 5.522 0 10 4.477 10 10v30c0 5.523-4.478 10-10 10z"/><path id="XMLID_78444_" d="m256 116c-12.122 0-23.164-6.156-29.536-16.466-6.373-10.312-6.94-22.942-1.519-33.786l22.11-44.22c1.695-3.388 5.157-5.528 8.945-5.528s7.25 2.14 8.944 5.528l22.11 44.22c5.422 10.844 4.854 23.474-1.52 33.786-6.371 10.311-17.412 16.466-29.534 16.466zm0-67.639-13.166 26.332c-2.334 4.667-2.1 9.89.643 14.327 2.742 4.436 7.307 6.98 12.523 6.98 5.217 0 9.78-2.544 12.522-6.98 2.743-4.438 2.978-9.66.644-14.327z"/></g></g></svg>