<svg enable-background="new 0 0 512 512" height="512" viewBox="0 0 512 512" width="512" xmlns="http://www.w3.org/2000/svg"><g id="_x31_586_x2C__Acid_x2C__Chemical_x2C__Chemical_Industry_x2C__Chemical_Lab_x2C__Laboratory"><g><g fill="#ef727a"><path id="XMLID_78504_" d="m456.033 76c11.05 0 20 8.95 20 20s-8.95 20-20 20-20-8.95-20-20 8.95-20 20-20z"/><path id="XMLID_78505_" d="m366.033 46c11.05 0 20 8.95 20 20s-8.95 20-20 20-20-8.95-20-20 8.95-20 20-20z"/><path id="XMLID_78506_" d="m156.033 56c11.05 0 20 8.95 20 20s-8.95 20-20 20-20-8.95-20-20 8.95-20 20-20z"/><path id="XMLID_78507_" d="m46.033 206c11.05 0 20 8.95 20 20s-8.95 20-20 20-20-8.95-20-20 8.95-20 20-20z"/><path id="XMLID_78508_" d="m273.043 425.39c10.79 15.351 9.41 36.45-3.92 49.66-6.399 6.351-15.06 10.51-25.06 10.92-.56.021-1.12.03-1.68.03h-178.5c-.56 0-1.12-.01-1.68-.03-10-.41-18.66-4.569-25.06-10.92-13.32-13.21-14.71-34.31-3.91-49.66l29.39-41.79 3.41 2.4s71 45 170-10l1.52-1.07z"/></g><path id="XMLID_78509_" d="m486.033 146v40h-30-100-30v-40z" fill="#b2dbd8"/><path id="XMLID_78510_" d="m356.033 396v-40-40-40-40-50h100v250c0 27.61-22.39 50-50 50s-50-22.39-50-50z" fill="#d8f2f1"/><path id="XMLID_78511_" d="m203.133 326v-190h-100v190l-40.51 57.6 3.41 2.4s71 45 170-10l1.52-1.07z" fill="#d8f2f1"/><path id="XMLID_78512_" d="m296.033 256h20v20h-20z"/><path id="XMLID_78513_" d="m286.033 46h20v20h-20z"/><path id="XMLID_78514_" d="m276.033 276h20v20h-20z"/><path id="XMLID_78515_" d="m276.033 236h20v20h-20z"/><path id="XMLID_78516_" d="m266.033 66h20v20h-20z"/><path id="XMLID_78517_" d="m266.033 26h20v20h-20z"/><path id="XMLID_78518_" d="m256.033 256h20v20h-20z"/><path id="XMLID_78519_" d="m246.033 46h20v20h-20z"/><path id="XMLID_78520_" d="m166.033 306c5.52 0 10 4.48 10 10s-4.48 10-10 10-10-4.48-10-10 4.48-10 10-10z"/><path id="XMLID_78521_" d="m156.033 176c5.52 0 10 4.48 10 10s-4.48 10-10 10-10-4.48-10-10 4.48-10 10-10z"/><path id="XMLID_78522_" d="m146.033 236c5.52 0 10 4.48 10 10s-4.48 10-10 10-10-4.48-10-10 4.48-10 10-10z"/><path id="XMLID_78523_" d="m136.033 356c5.52 0 10 4.48 10 10s-4.48 10-10 10-10-4.48-10-10 4.48-10 10-10z"/><path id="XMLID_78524_" d="m63.883 496c-.682 0-1.364-.012-2.046-.037-12-.492-23.255-5.397-31.738-13.814-16.732-16.594-18.854-42.886-5.045-62.513l68.079-96.8v-186.836c0-5.523 4.477-10 10-10s10 4.477 10 10v190c0 2.06-.636 4.068-1.82 5.753l-69.9 99.39c-8.179 11.624-7.013 27.104 2.771 36.807 3.489 3.462 9.516 7.663 18.428 8.029.395.014.833.021 1.271.021 5.523 0 10 4.478 10 10s-4.477 10-10 10z"/><path id="XMLID_78525_" d="m242.383 496c-5.523 0-10-4.478-10-10s4.477-10 10-10c.438 0 .876-.008 1.313-.023 8.869-.364 14.896-4.565 18.382-8.024 9.79-9.702 10.958-25.182 2.783-36.812l-69.908-99.387c-1.185-1.685-1.821-3.694-1.821-5.754v-190c0-5.523 4.477-10 10-10s10 4.477 10 10v186.835l68.089 96.802c13.805 19.64 11.676 45.931-5.061 62.516-8.478 8.413-19.733 13.318-31.689 13.809-.723.026-1.406.038-2.088.038z"/><path id="XMLID_78526_" d="m243.133 146h-180c-5.523 0-10-4.477-10-10s4.477-10 10-10h180c5.523 0 10 4.477 10 10s-4.477 10-10 10z"/><path id="XMLID_78527_" d="m137.485 413.301c-9.313 0-17.696-.717-25.014-1.779-31.872-4.629-50.993-16.569-51.792-17.075-4.665-2.956-6.049-9.135-3.093-13.8 2.952-4.655 9.113-6.042 13.773-3.109.323.199 17.165 10.486 45.01 14.337 37.454 5.178 76.083-3.102 114.807-24.615 4.829-2.683 10.917-.942 13.598 3.885 2.682 4.828.942 10.916-3.885 13.598-40.063 22.256-75.799 28.558-103.404 28.558z"/><path id="XMLID_78528_" d="m156.033 106c-16.542 0-30-13.458-30-30s13.458-30 30-30 30 13.458 30 30-13.458 30-30 30zm0-40c-5.514 0-10 4.486-10 10s4.486 10 10 10 10-4.486 10-10-4.486-10-10-10z"/><path id="XMLID_78531_" d="m366.033 96c-16.542 0-30-13.458-30-30s13.458-30 30-30 30 13.458 30 30-13.458 30-30 30zm0-40c-5.514 0-10 4.486-10 10s4.486 10 10 10 10-4.486 10-10-4.486-10-10-10z"/><path id="XMLID_78534_" d="m456.033 126c-16.542 0-30-13.458-30-30s13.458-30 30-30 30 13.458 30 30-13.458 30-30 30zm0-40c-5.514 0-10 4.486-10 10s4.486 10 10 10 10-4.486 10-10-4.486-10-10-10z"/><path id="XMLID_78537_" d="m46.033 256c-16.542 0-30-13.458-30-30s13.458-30 30-30 30 13.458 30 30-13.458 30-30 30zm0-40c-5.514 0-10 4.486-10 10s4.486 10 10 10 10-4.486 10-10-4.486-10-10-10z"/><path id="XMLID_78540_" d="m486.033 496h-460c-5.523 0-10-4.478-10-10s4.477-10 10-10h460c5.522 0 10 4.478 10 10s-4.477 10-10 10z"/><path id="XMLID_78541_" d="m406.033 496c-33.084 0-60-26.916-60-60v-250c0-5.523 4.478-10 10-10s10 4.477 10 10v250c0 22.056 17.944 40 40 40s40-17.944 40-40v-250c0-5.523 4.478-10 10-10s10 4.477 10 10v250c0 33.084-26.916 60-60 60z"/><path id="XMLID_78542_" d="m486.033 196h-160c-5.522 0-10-4.477-10-10v-40c0-5.523 4.478-10 10-10h160c5.522 0 10 4.477 10 10v40c0 5.523-4.477 10-10 10zm-150-20h140v-20h-140z"/><path id="XMLID_78545_" d="m386.033 246h-30c-5.522 0-10-4.477-10-10s4.478-10 10-10h30c5.522 0 10 4.477 10 10s-4.477 10-10 10z"/><path id="XMLID_78546_" d="m386.033 286h-30c-5.522 0-10-4.478-10-10s4.478-10 10-10h30c5.522 0 10 4.478 10 10s-4.477 10-10 10z"/><path id="XMLID_78547_" d="m386.033 326h-30c-5.522 0-10-4.478-10-10s4.478-10 10-10h30c5.522 0 10 4.478 10 10s-4.477 10-10 10z"/><path id="XMLID_78548_" d="m386.033 366h-30c-5.522 0-10-4.478-10-10s4.478-10 10-10h30c5.522 0 10 4.478 10 10s-4.477 10-10 10z"/><path id="XMLID_78549_" d="m386.033 406h-30c-5.522 0-10-4.478-10-10s4.478-10 10-10h30c5.522 0 10 4.478 10 10s-4.477 10-10 10z"/></g></g></svg>