<svg enable-background="new 0 0 512 512" height="512" viewBox="0 0 512 512" width="512" xmlns="http://www.w3.org/2000/svg"><g id="_x31_587_x2C__Cloud_Backup_x2C__Cloud_Computing_x2C__Cloud_Storage_x2C__Online_Backup_x2C__Online_Storage"><g><path id="XMLID_78604_" d="m480.5 173.21c-3.57-10.27-8.76-19.78-15.27-28.22-5.37-38.97-38.79-68.99-79.23-68.99-19.6 0-37.54 7.06-51.45 18.75-14-23.22-39.46-38.75-68.55-38.75-14.67 0-28.41 3.97-40.23 10.86-13.71-24.38-39.81-40.86-69.77-40.86-44.18 0-80 35.82-80 80 0 4.36.36 8.63 1.03 12.8-30.45 17.14-51.03 49.76-51.03 87.2 0 27.62 11.19 52.62 29.29 70.71 18.09 18.1 43.09 29.29 70.71 29.29h260c55.23 0 100-44.77 100-100 0-11.48-1.94-22.52-5.5-32.79z" fill="#65b2fe"/><path id="XMLID_78607_" d="m346 426-40 60-40-60h20v-80h40v80z" fill="#f14742"/><path id="XMLID_78608_" d="m196 346 40 60h-20v80h-40v-80h-20z" fill="#64e1db"/><g fill="#193772"><path id="XMLID_78611_" d="m96 446c11.05 0 20 8.95 20 20s-8.95 20-20 20-20-8.95-20-20 8.95-20 20-20z"/><path id="XMLID_78612_" d="m416 446c11.05 0 20 8.95 20 20s-8.95 20-20 20-20-8.95-20-20 8.95-20 20-20z"/><path id="XMLID_78613_" d="m346 226c11.05 0 20 8.95 20 20s-8.95 20-20 20-20-8.95-20-20 8.95-20 20-20z"/><path id="XMLID_78614_" d="m266 176c11.05 0 20 8.95 20 20s-8.95 20-20 20-20-8.95-20-20 8.95-20 20-20z"/><path id="XMLID_78615_" d="m166 226c11.05 0 20 8.95 20 20s-8.95 20-20 20-20-8.95-20-20 8.95-20 20-20z"/></g><path id="XMLID_78616_" d="m466 356h20v20h-20z"/><path id="XMLID_78617_" d="m446 376h20v20h-20z"/><path id="XMLID_78618_" d="m446 336h20v20h-20z"/><path id="XMLID_78619_" d="m426 356h20v20h-20z"/><path id="XMLID_78620_" d="m156 116h20v20h-20z"/><path id="XMLID_78621_" d="m136 136h20v20h-20z"/><path id="XMLID_78622_" d="m136 96h20v20h-20z"/><path id="XMLID_78623_" d="m116 116h20v20h-20z"/><path id="XMLID_78624_" d="m386 316h-260c-29.392 0-57.016-11.443-77.783-32.221-20.774-20.762-32.217-48.386-32.217-77.779 0-37.409 19.121-72.22 50.323-92.41-.215-2.536-.323-5.073-.323-7.59 0-49.626 40.374-90 90-90 29.238 0 56.534 14.279 73.317 37.819 11.502-5.135 24.015-7.819 36.683-7.819 28.149 0 53.951 12.745 70.924 34.568 14.535-9.452 31.606-14.568 49.076-14.568 43.825 0 81.507 32.053 88.733 74.989 6.496 8.849 11.608 18.572 15.212 28.938 4.019 11.594 6.055 23.727 6.055 36.073 0 60.654-49.346 110-110 110zm-230-280c-38.598 0-70 31.402-70 70 0 3.71.304 7.483.903 11.214.664 4.135-1.319 8.246-4.968 10.3-28.334 15.949-45.935 46.023-45.935 78.486 0 24.048 9.361 46.648 26.359 63.637 16.993 17.002 39.593 26.363 63.641 26.363h260c49.626 0 90-40.374 90-90 0-10.111-1.665-20.042-4.948-29.515-3.181-9.147-7.804-17.691-13.739-25.387-1.065-1.38-1.75-3.015-1.988-4.742-4.742-34.409-34.546-60.356-69.325-60.356-16.44 0-32.428 5.826-45.017 16.406-2.237 1.881-5.188 2.689-8.073 2.209-2.884-.479-5.414-2.197-6.924-4.701-12.803-21.236-35.228-33.914-59.986-33.914-12.363 0-24.533 3.285-35.194 9.5-2.314 1.349-5.073 1.712-7.659 1.01-2.585-.703-4.78-2.413-6.093-4.749-12.405-22.058-35.799-35.761-61.054-35.761z"/><path id="XMLID_78627_" d="m266 186c-5.522 0-10-4.477-10-10v-120c0-5.523 4.478-10 10-10s10 4.477 10 10v120c0 5.523-4.478 10-10 10z"/><path id="XMLID_78628_" d="m266 226c-16.542 0-30-13.458-30-30s13.458-30 30-30 30 13.458 30 30-13.458 30-30 30zm0-40c-5.514 0-10 4.486-10 10s4.486 10 10 10 10-4.486 10-10-4.486-10-10-10z"/><path id="XMLID_78631_" d="m346 276c-16.542 0-30-13.458-30-30s13.458-30 30-30 30 13.458 30 30-13.458 30-30 30zm0-40c-5.514 0-10 4.486-10 10s4.486 10 10 10 10-4.486 10-10-4.486-10-10-10z"/><path id="XMLID_78634_" d="m365.992 236c-2.088 0-4.193-.651-5.992-2-4.418-3.313-5.313-9.582-2-14l30-40c1.889-2.518 4.853-4 8-4h80c5.522 0 10 4.477 10 10s-4.478 10-10 10h-75l-27 36c-1.965 2.619-4.968 4-8.008 4z"/><path id="XMLID_78635_" d="m166 276c-16.542 0-30-13.458-30-30s13.458-30 30-30 30 13.458 30 30-13.458 30-30 30zm0-40c-5.514 0-10 4.486-10 10s4.486 10 10 10 10-4.486 10-10-4.486-10-10-10z"/><path id="XMLID_78638_" d="m146.008 236c-3.041 0-6.043-1.381-8.008-4l-27-36h-75c-5.523 0-10-4.477-10-10s4.477-10 10-10h80c3.147 0 6.111 1.482 8 4l30 40c3.313 4.418 2.418 10.687-2 14-1.799 1.349-3.905 2-5.992 2z"/><path id="XMLID_78639_" d="m96 456c-5.523 0-10-4.478-10-10v-30c0-2.652 1.054-5.195 2.929-7.071l27.071-27.072v-75.857c0-5.522 4.477-10 10-10s10 4.478 10 10v80c0 2.652-1.054 5.195-2.929 7.071l-27.071 27.072v25.857c0 5.522-4.477 10-10 10z"/><path id="XMLID_78640_" d="m96 496c-16.542 0-30-13.458-30-30s13.458-30 30-30 30 13.458 30 30-13.458 30-30 30zm0-40c-5.514 0-10 4.486-10 10s4.486 10 10 10 10-4.486 10-10-4.486-10-10-10z"/><path id="XMLID_78643_" d="m416 456c-5.522 0-10-4.478-10-10v-25.857l-27.071-27.071c-1.875-1.877-2.929-4.42-2.929-7.072v-80c0-5.522 4.478-10 10-10s10 4.478 10 10v75.857l27.071 27.071c1.875 1.876 2.929 4.419 2.929 7.071v30c0 5.523-4.478 10.001-10 10.001z"/><path id="XMLID_78644_" d="m416 496c-16.542 0-30-13.458-30-30s13.458-30 30-30 30 13.458 30 30-13.458 30-30 30zm0-40c-5.514 0-10 4.486-10 10s4.486 10 10 10 10-4.486 10-10-4.486-10-10-10z"/><path id="XMLID_78647_" d="m216 496h-40c-5.523 0-10-4.478-10-10v-70h-10c-3.688 0-7.077-2.03-8.817-5.281-1.74-3.252-1.549-7.197.497-10.266l40-60c1.854-2.782 4.977-4.453 8.32-4.453s6.466 1.671 8.32 4.453l40 60c2.046 3.068 2.237 7.014.497 10.266-1.74 3.251-5.129 5.281-8.817 5.281h-10v70c0 5.522-4.477 10-10 10zm-30-20h20v-70c0-5.522 4.477-10 10-10h1.315l-21.315-31.973-21.315 31.973h1.315c5.523 0 10 4.478 10 10z"/><path id="XMLID_78650_" d="m306 496c-3.344 0-6.466-1.671-8.32-4.453l-40-60c-2.046-3.068-2.237-7.014-.496-10.266 1.74-3.251 5.129-5.281 8.816-5.281h10v-70c0-5.522 4.478-10 10-10h40c5.522 0 10 4.478 10 10v70h10c3.688 0 7.076 2.03 8.816 5.281 1.74 3.252 1.55 7.197-.496 10.266l-40 60c-1.854 2.782-4.976 4.453-8.32 4.453zm-21.314-60 21.314 31.973 21.314-31.973h-1.314c-5.522 0-10-4.478-10-10v-70h-20v70c0 5.522-4.478 10-10 10z"/></g></g></svg>