<svg enable-background="new 0 0 512 512" height="512" viewBox="0 0 512 512" width="512" xmlns="http://www.w3.org/2000/svg"><g id="_x31_588_x2C__Chemistry_x2C__Laboratory_x2C__Microbiology_x2C__Microscope_x2C__Research"><g><g fill="#313a52"><path id="XMLID_78710_" d="m280.59 383.87-10.31-13.51-30.32-39.75-23.96-31.41c-10.71-14.04-32.14-14.04-42.85 0l-17.39 22.8-34.97 45.84-12.23 16.03c-13.25 17.36-.65 42.13 21.42 42.13h129.19c22.07 0 34.67-24.77 21.42-42.13z"/><path id="XMLID_78711_" d="m356 26h80v40h-80z"/><path id="XMLID_78712_" d="m356 246h80v40h-80z"/></g><path id="XMLID_78713_" d="m436 66h-80-20v60 80 40h20 80 20v-180z" fill="#232b3f"/><path id="XMLID_78714_" d="m236 126c-11.04 0-21.04 4.48-28.28 11.72-2.94 2.94-5.43 6.34-7.34 10.07-2.8 5.47-4.38 11.65-4.38 18.21 0 7.59 2.12 14.69 5.79 20.74 7.02 11.55 19.71 19.26 34.21 19.26h100v-80z" fill="#313a52"/><path id="XMLID_78715_" d="m201.79 186.74-5.79 3.26h-64c-36.45 0-66 29.55-66 66 0 18.22 7.39 34.72 19.33 46.67 11.95 11.94 28.45 19.33 46.67 19.33h23.76l-34.97 45.84-4.79-3.65c-25.6-4.71-48.1-18.271-64.2-37.4-16.1-19.13-25.8-43.83-25.8-70.79 0-60.75 49.25-110 110-110h60l4.38 1.79c-2.8 5.47-4.38 11.65-4.38 18.21 0 7.59 2.12 14.69 5.79 20.74z" fill="#d7deed"/><path id="XMLID_78716_" d="m466 326c11.05 0 20 8.95 20 20 0 5.52-2.24 10.52-5.86 14.14s-8.62 5.86-14.14 5.86h-190l-5.72 4.36-30.32-39.75 6.04-4.61z" fill="#d7deed"/><path id="XMLID_78717_" d="m196 336c11.05 0 20 8.95 20 20s-8.95 20-20 20-20-8.95-20-20 8.95-20 20-20z" fill="#747371"/><path id="XMLID_78718_" d="m446 445.25v40.75h-380v-40.75c0-10.63 8.62-19.25 19.25-19.25h44.73 129.19 167.58c10.63 0 19.25 8.62 19.25 19.25z" fill="#57606f"/><path id="XMLID_78719_" d="m386 186h20v20h-20z"/><path id="XMLID_78720_" d="m386 146h20v20h-20z"/><path id="XMLID_78721_" d="m386 106h20v20h-20z"/><path id="XMLID_78722_" d="m236 156c5.52 0 10 4.48 10 10s-4.48 10-10 10-10-4.48-10-10 4.48-10 10-10z"/><path id="XMLID_78723_" d="m446 496h-380c-5.523 0-10-4.478-10-10v-40.75c0-16.129 13.122-29.25 29.25-29.25h341.5c16.129 0 29.25 13.121 29.25 29.25v40.75c0 5.522-4.478 10-10 10zm-370-20h360v-30.75c0-5.101-4.149-9.25-9.25-9.25h-341.5c-5.101 0-9.25 4.149-9.25 9.25z"/><path id="XMLID_78726_" d="m259.17 436c-5.523 0-10-4.478-10-10s4.477-10 10-10c6.604 0 12.258-3.459 15.124-9.253 2.753-5.563 2.135-11.847-1.653-16.81l-64.591-84.672c-3.197-4.191-8.108-6.596-13.475-6.596-5.366 0-10.277 2.404-13.474 6.596l-64.59 84.67c-3.789 4.965-4.407 11.248-1.655 16.812 2.867 5.794 8.521 9.253 15.125 9.253 5.523 0 10 4.478 10 10s-4.477 10-10 10c-14.166 0-26.83-7.811-33.05-20.384-6.108-12.347-4.698-26.835 3.681-37.813l64.588-84.667c7.013-9.193 17.72-14.466 29.376-14.466 11.657 0 22.364 5.272 29.376 14.465l64.588 84.669c8.379 10.978 9.789 25.467 3.682 37.813-6.222 12.572-18.887 20.383-33.052 20.383z"/><path id="XMLID_78727_" d="m466 376h-190c-5.522 0-10-4.478-10-10s4.478-10 10-10h190c2.668 0 5.178-1.041 7.068-2.932s2.932-4.4 2.932-7.068c0-5.514-4.486-10-10-10h-220c-5.523 0-10-4.478-10-10s4.477-10 10-10h220c16.542 0 30 13.458 30 30 0 8.01-3.121 15.543-8.789 21.211s-13.201 8.789-21.211 8.789z"/><path id="XMLID_78728_" d="m336 216h-100c-17.613 0-33.596-8.997-42.755-24.066-4.742-7.816-7.245-16.781-7.245-25.934 0-8.005 1.843-15.665 5.479-22.767 2.378-4.644 5.464-8.878 9.171-12.585 9.445-9.446 22-14.648 35.35-14.648h100c5.522 0 10 4.477 10 10s-4.478 10-10 10h-100c-8.008 0-15.54 3.122-21.208 8.791-2.231 2.231-4.085 4.773-5.511 7.557-2.177 4.253-3.281 8.846-3.281 13.652 0 5.495 1.501 10.873 4.34 15.554 5.496 9.043 15.091 14.446 25.66 14.446h100c5.522 0 10 4.477 10 10s-4.478 10-10 10z"/><path id="XMLID_78729_" d="m436 296h-80c-5.522 0-10-4.478-10-10v-40c0-5.523 4.478-10 10-10s10 4.477 10 10v30h60v-30c0-5.523 4.478-10 10-10s10 4.477 10 10v40c0 5.522-4.478 10-10 10z"/><path id="XMLID_78730_" d="m436 76c-5.522 0-10-4.477-10-10v-40c0-5.523 4.478-10 10-10s10 4.477 10 10v40c0 5.523-4.478 10-10 10z"/><path id="XMLID_78731_" d="m356 76c-5.522 0-10-4.477-10-10v-40c0-5.523 4.478-10 10-10s10 4.477 10 10v40c0 5.523-4.478 10-10 10z"/><path id="XMLID_78732_" d="m456 256h-120c-5.522 0-10-4.477-10-10v-180c0-5.523 4.478-10 10-10h120c5.522 0 10 4.477 10 10v180c0 5.523-4.478 10-10 10zm-110-20h100v-160h-100z"/><path id="XMLID_78735_" d="m466 36h-140c-5.522 0-10-4.477-10-10s4.478-10 10-10h140c5.522 0 10 4.477 10 10s-4.478 10-10 10z"/><path id="XMLID_78736_" d="m116.011 374.192c-.6 0-1.209-.055-1.821-.167-27.245-5.013-52.119-19.501-70.042-40.796-18.151-21.569-28.148-48.996-28.148-77.229 0-66.168 53.832-120 120-120h60c5.523 0 10 4.477 10 10s-4.477 10-10 10h-60c-55.14 0-100 44.86-100 100 0 23.528 8.328 46.382 23.451 64.351 14.942 17.754 35.667 29.83 58.359 34.005 5.432.999 9.025 6.213 8.025 11.645-.887 4.819-5.092 8.191-9.824 8.191z"/><path id="XMLID_78737_" d="m156 332h-24c-20.291 0-39.375-7.904-53.738-22.256-14.358-14.37-22.262-33.455-22.262-53.744 0-41.907 34.093-76 76-76h64c5.523 0 10 4.477 10 10s-4.477 10-10 10h-64c-30.878 0-56 25.122-56 56 0 14.95 5.826 29.015 16.404 39.602 10.581 10.573 24.645 16.398 39.596 16.398h24c5.523 0 10 4.478 10 10s-4.477 10-10 10z"/><path id="XMLID_78738_" d="m196 386c-16.542 0-30-13.458-30-30s13.458-30 30-30 30 13.458 30 30-13.458 30-30 30zm0-40c-5.514 0-10 4.486-10 10s4.486 10 10 10 10-4.486 10-10-4.486-10-10-10z"/></g></g></svg>