<svg enable-background="new 0 0 512 512" height="512" viewBox="0 0 512 512" width="512" xmlns="http://www.w3.org/2000/svg"><g id="_x31_589_x2C__Chemistry_x2C__Knowledge_x2C__Molecule_x2C__Science_x2C__Technology"><g><path id="XMLID_78777_" d="m296 252.84v-26.84-50-50-40h30v-60h-140v60h30v40 50 50 26.84c-46.61 16.47-80 60.91-80 113.16 0 66.27 53.73 120 120 120s120-53.73 120-120c0-52.25-33.39-96.69-80-113.16z" fill="#d8f2f1"/><path id="XMLID_78778_" d="m273.58 338.42c1.56 8.46 2.42 17.79 2.42 27.58s-.86 19.12-2.42 27.58c-8.46 1.56-17.79 2.42-27.58 2.42s-19.12-.86-27.58-2.42c-1.56-8.46-2.42-17.79-2.42-27.58s.86-19.12 2.42-27.58c8.46-1.56 17.79-2.42 27.58-2.42s19.12.86 27.58 2.42z" fill="#414a56"/><path id="XMLID_78779_" d="m273.58 393.58c-4.59 24.95-15.21 42.42-27.58 42.42s-22.99-17.47-27.58-42.42c8.46 1.56 17.79 2.42 27.58 2.42s19.12-.86 27.58-2.42z" fill="#57606f"/><path id="XMLID_78780_" d="m273.58 338.42c24.95 4.59 42.42 15.21 42.42 27.58s-17.47 22.99-42.42 27.58c1.56-8.46 2.42-17.79 2.42-27.58s-.86-19.12-2.42-27.58z" fill="#57606f"/><path id="XMLID_78781_" d="m218.42 338.42c-1.56 8.46-2.42 17.79-2.42 27.58s.86 19.12 2.42 27.58c-24.95-4.59-42.42-15.21-42.42-27.58s17.47-22.99 42.42-27.58z" fill="#57606f"/><path id="XMLID_78782_" d="m246 296c12.37 0 22.99 17.47 27.58 42.42-8.46-1.56-17.79-2.42-27.58-2.42s-19.12.86-27.58 2.42c4.59-24.95 15.21-42.42 27.58-42.42z" fill="#57606f"/><g fill="#193772"><path id="XMLID_78783_" d="m46 256c11.05 0 20 8.95 20 20s-8.95 20-20 20-20-8.95-20-20 8.95-20 20-20z"/><path id="XMLID_78784_" d="m46 156c11.05 0 20 8.95 20 20s-8.95 20-20 20-20-8.95-20-20 8.95-20 20-20z"/><path id="XMLID_78785_" d="m46 56c11.05 0 20 8.95 20 20s-8.95 20-20 20-20-8.95-20-20 8.95-20 20-20z"/><path id="XMLID_78786_" d="m466 56c11.05 0 20 8.95 20 20s-8.95 20-20 20-20-8.95-20-20 8.95-20 20-20z"/><path id="XMLID_78787_" d="m466 156c11.05 0 20 8.95 20 20s-8.95 20-20 20-20-8.95-20-20 8.95-20 20-20z"/><path id="XMLID_78788_" d="m466 256c11.05 0 20 8.95 20 20s-8.95 20-20 20-20-8.95-20-20 8.95-20 20-20z"/></g><path id="XMLID_78789_" d="m416 416h20v20h-20z"/><path id="XMLID_78790_" d="m416 376h20v20h-20z"/><path id="XMLID_78791_" d="m416 336h20v20h-20z"/><path id="XMLID_78792_" d="m76 416h20v20h-20z"/><path id="XMLID_78793_" d="m76 376h20v20h-20z"/><path id="XMLID_78794_" d="m76 336h20v20h-20z"/><path id="XMLID_78795_" d="m256 496c-71.682 0-130-58.317-130-130 0-52.613 31.865-99.974 80-120.024v-149.976h-20c-5.523 0-10-4.477-10-10v-60c0-5.523 4.477-10 10-10h140c5.522 0 10 4.477 10 10v60c0 5.523-4.478 10-10 10h-20v149.976c48.135 20.051 80 67.411 80 120.024 0 71.683-58.317 130-130 130zm-60-420h20c5.523 0 10 4.477 10 10v166.84c0 4.238-2.672 8.017-6.668 9.429-43.862 15.499-73.332 57.185-73.332 103.731 0 60.654 49.346 110 110 110s110-49.346 110-110c0-46.547-29.47-88.233-73.332-103.731-3.996-1.412-6.668-5.19-6.668-9.429v-166.84c0-5.523 4.478-10 10-10h20v-40h-120z"/><path id="XMLID_78798_" d="m246 446c-17.598 0-31.585-18.92-37.415-50.61-1.715-9.301-2.585-19.19-2.585-29.39s.87-20.089 2.586-29.394c5.829-31.686 19.816-50.606 37.414-50.606 17.599 0 31.585 18.92 37.415 50.61 1.715 9.304 2.585 19.193 2.585 29.39s-.87 20.086-2.586 29.393c-5.829 31.687-19.815 50.607-37.414 50.607zm0-140c-4.617 0-13.45 10.879-17.745 34.229-1.497 8.116-2.255 16.785-2.255 25.771s.758 17.655 2.254 25.767c4.296 23.354 13.129 34.233 17.746 34.233s13.449-10.879 17.745-34.229c1.496-8.118 2.255-16.787 2.255-25.771s-.759-17.653-2.254-25.768c-4.297-23.353-13.129-34.232-17.746-34.232z"/><path id="XMLID_78801_" d="m246 406c-10.197 0-20.086-.87-29.393-2.586-31.687-5.829-50.607-19.815-50.607-37.414s18.92-31.585 50.611-37.415c9.303-1.715 19.192-2.585 29.389-2.585s20.086.87 29.393 2.586c31.687 5.829 50.607 19.815 50.607 37.414s-18.92 31.585-50.61 37.415c-9.304 1.715-19.193 2.585-29.39 2.585zm0-60c-8.984 0-17.653.759-25.767 2.254-23.354 4.297-34.233 13.129-34.233 17.746s10.879 13.449 34.229 17.745c8.118 1.496 16.787 2.255 25.771 2.255s17.653-.759 25.768-2.254c23.353-4.297 34.232-13.129 34.232-17.746s-10.879-13.449-34.229-17.745c-8.118-1.496-16.787-2.255-25.771-2.255z"/><path id="XMLID_78804_" d="m466 306c-16.542 0-30-13.458-30-30s13.458-30 30-30 30 13.458 30 30-13.458 30-30 30zm0-40c-5.514 0-10 4.486-10 10s4.486 10 10 10 10-4.486 10-10-4.486-10-10-10z"/><path id="XMLID_78807_" d="m436 136h-140c-5.522 0-10-4.477-10-10s4.478-10 10-10h134.648l17.031-25.547c3.063-4.597 9.271-5.838 13.867-2.773 4.596 3.063 5.837 9.272 2.773 13.867l-20 30c-1.853 2.782-4.975 4.453-8.319 4.453z"/><path id="XMLID_78808_" d="m456.009 266.001c-3.231 0-6.402-1.563-8.329-4.454l-17.032-25.547h-134.648c-5.522 0-10-4.477-10-10s4.478-10 10-10h140c3.344 0 6.466 1.671 8.32 4.453l20 30c3.063 4.595 1.822 10.804-2.773 13.867-1.705 1.137-3.632 1.681-5.538 1.681z"/><path id="XMLID_78809_" d="m466 106c-16.542 0-30-13.458-30-30s13.458-30 30-30 30 13.458 30 30-13.458 30-30 30zm0-40c-5.514 0-10 4.486-10 10s4.486 10 10 10 10-4.486 10-10-4.486-10-10-10z"/><path id="XMLID_78812_" d="m466 206c-16.542 0-30-13.458-30-30s13.458-30 30-30 30 13.458 30 30-13.458 30-30 30zm0-40c-5.514 0-10 4.486-10 10s4.486 10 10 10 10-4.486 10-10-4.486-10-10-10z"/><path id="XMLID_78815_" d="m446 186h-150c-5.522 0-10-4.477-10-10s4.478-10 10-10h150c5.522 0 10 4.477 10 10s-4.478 10-10 10z"/><path id="XMLID_78816_" d="m46 306c-16.542 0-30-13.458-30-30s13.458-30 30-30 30 13.458 30 30-13.458 30-30 30zm0-40c-5.514 0-10 4.486-10 10s4.486 10 10 10 10-4.486 10-10-4.486-10-10-10z"/><path id="XMLID_78819_" d="m216 136h-140c-3.344 0-6.466-1.671-8.32-4.453l-20-30c-3.064-4.595-1.822-10.804 2.773-13.867s10.804-1.822 13.867 2.773l17.032 25.547h134.648c5.523 0 10 4.477 10 10s-4.477 10-10 10z"/><path id="XMLID_78820_" d="m55.991 266.001c-1.906 0-3.833-.544-5.538-1.681-4.595-3.063-5.837-9.272-2.773-13.867l20-30c1.854-2.782 4.976-4.453 8.32-4.453h140c5.523 0 10 4.477 10 10s-4.477 10-10 10h-134.648l-17.032 25.547c-1.926 2.891-5.098 4.454-8.329 4.454z"/><path id="XMLID_78821_" d="m46 106c-16.542 0-30-13.458-30-30s13.458-30 30-30 30 13.458 30 30-13.458 30-30 30zm0-40c-5.514 0-10 4.486-10 10s4.486 10 10 10 10-4.486 10-10-4.486-10-10-10z"/><path id="XMLID_78824_" d="m46 206c-16.542 0-30-13.458-30-30s13.458-30 30-30 30 13.458 30 30-13.458 30-30 30zm0-40c-5.514 0-10 4.486-10 10s4.486 10 10 10 10-4.486 10-10-4.486-10-10-10z"/><path id="XMLID_78827_" d="m216 186h-150c-5.523 0-10-4.477-10-10s4.477-10 10-10h150c5.523 0 10 4.477 10 10s-4.477 10-10 10z"/><path id="XMLID_78828_" d="m486 496h-460c-5.523 0-10-4.478-10-10s4.477-10 10-10h460c5.522 0 10 4.478 10 10s-4.478 10-10 10z"/></g></g></svg>