<svg enable-background="new 0 0 512 512" height="512" viewBox="0 0 512 512" width="512" xmlns="http://www.w3.org/2000/svg"><g id="_x31_590_x2C__Chemical_Analysis_x2C__Chemical_Funnel_x2C__Chemical_Laboratory_x2C__Filter_x2C__Funnel"><g><path id="XMLID_78873_" d="m407.21 77.21c-5.43 5.43-12.93 8.79-21.21 8.79h-10-260-10c-16.57 0-30-13.43-30-30 0-8.28 3.36-15.78 8.79-21.21s12.93-8.79 21.21-8.79h280c16.57 0 30 13.43 30 30 0 8.28-3.36 15.78-8.79 21.21z" fill="#414a56"/><path id="XMLID_78874_" d="m196 346v-40-40-20l-80-160h260l-80 160v90l-100 60z" fill="#57606f"/><path id="XMLID_78875_" d="m274.18 458.43c5.6 13.05-3.98 27.57-18.18 27.57s-23.78-14.52-18.18-27.57l18.18-42.43z" fill="#b9f3ff"/><path id="XMLID_78876_" d="m396 396h20v20h-20z"/><path id="XMLID_78877_" d="m396 356h20v20h-20z"/><path id="XMLID_78878_" d="m396 316h20v20h-20z"/><path id="XMLID_78879_" d="m396 276h20v20h-20z"/><path id="XMLID_78880_" d="m396 236h20v20h-20z"/><path id="XMLID_78881_" d="m396 196h20v20h-20z"/><path id="XMLID_78882_" d="m76 396h20v20h-20z"/><path id="XMLID_78883_" d="m76 356h20v20h-20z"/><path id="XMLID_78884_" d="m76 316h20v20h-20z"/><path id="XMLID_78885_" d="m76 276h20v20h-20z"/><path id="XMLID_78886_" d="m76 236h20v20h-20z"/><path id="XMLID_78887_" d="m76 196h20v20h-20z"/><path id="XMLID_78888_" d="m386 96h-10c-5.522 0-10-4.477-10-10s4.478-10 10-10h10c5.338 0 10.359-2.082 14.139-5.861 3.779-3.78 5.861-8.801 5.861-14.139 0-11.028-8.972-20-20-20h-280c-5.338 0-10.359 2.082-14.139 5.861-3.779 3.78-5.861 8.801-5.861 14.139 0 11.028 8.972 20 20 20h10c5.523 0 10 4.477 10 10s-4.477 10-10 10h-10c-22.056 0-40-17.944-40-40 0-10.68 4.162-20.724 11.719-28.281s17.601-11.719 28.281-11.719h280c22.056 0 40 17.944 40 40 0 10.68-4.162 20.723-11.719 28.281-7.556 7.557-17.6 11.719-28.281 11.719z"/><path id="XMLID_78889_" d="m196 406c-1.698 0-3.397-.432-4.927-1.298-3.135-1.775-5.073-5.1-5.073-8.702v-147.639l-78.944-157.889c-1.55-3.1-1.384-6.781.438-9.729 1.821-2.949 5.04-4.743 8.506-4.743h260c3.466 0 6.685 1.794 8.507 4.743 1.821 2.948 1.987 6.629.438 9.729l-78.945 157.889v87.639c0 3.513-1.843 6.768-4.855 8.575l-100 60c-1.582.949-3.363 1.425-5.145 1.425zm-63.82-310 72.764 145.528c.694 1.389 1.056 2.92 1.056 4.472v132.338l80-48v-84.338c0-1.552.361-3.083 1.056-4.472l72.763-145.528z"/><path id="XMLID_78892_" d="m256 496c-10.044 0-19.34-5.007-24.868-13.394-5.525-8.382-6.46-18.895-2.502-28.12l18.178-42.425c1.576-3.676 5.192-6.061 9.192-6.061 4.001 0 7.616 2.385 9.191 6.062l18.18 42.43c3.957 9.22 3.022 19.732-2.503 28.115-5.527 8.386-14.823 13.393-24.868 13.393zm0-54.609-8.988 20.978c-1.32 3.077-1.021 6.44.819 9.232 1.843 2.796 4.82 4.399 8.169 4.399s6.326-1.604 8.169-4.399c1.84-2.792 2.14-6.155.821-9.228z"/><path id="XMLID_78895_" d="m236 276h-40c-5.523 0-10-4.478-10-10s4.477-10 10-10h40c5.523 0 10 4.478 10 10s-4.477 10-10 10z"/><path id="XMLID_78896_" d="m236 316h-40c-5.523 0-10-4.478-10-10s4.477-10 10-10h40c5.523 0 10 4.478 10 10s-4.477 10-10 10z"/><path id="XMLID_78897_" d="m226 356h-30c-5.523 0-10-4.478-10-10s4.477-10 10-10h30c5.523 0 10 4.478 10 10s-4.477 10-10 10z"/><path id="XMLID_78898_" d="m486 496h-460c-5.523 0-10-4.478-10-10s4.477-10 10-10h460c5.522 0 10 4.478 10 10s-4.478 10-10 10z"/></g></g></svg>