<svg enable-background="new 0 0 512 512" height="512" viewBox="0 0 512 512" width="512" xmlns="http://www.w3.org/2000/svg"><g id="_x31_591_x2C__Chemistry_x2C__Knowledge_x2C__Molecule_x2C__Science_x2C__Technology"><g><path id="XMLID_78922_" d="m404.09 176-22.95 32.77 16.391 11.47-58.221 83.13-23.31-44.04v-193.33h-120v193.33l-23.31 44.04-58.22-83.13 16.39-11.47-22.95-32.77-81.91 57.36 22.94 32.77 16.39-11.48 75.82 108.28-31.58 59.66 6.43 3.41h100c5.52 0 10 4.48 10 10 0 2.76 1.12 5.26 2.93 7.07s4.31 2.93 7.07 2.93h40c5.52 0 10-4.48 10-10 0-2.76 1.12-5.26 2.93-7.07 1.811-1.81 4.311-2.93 7.07-2.93h100l6.43-3.41-31.58-59.66 75.82-108.28 16.39 11.48 22.94-32.77z" fill="#d8f2f1"/><path id="XMLID_78923_" d="m346 26v40h-30-120-30v-40z" fill="#b2dbd8"/><g fill="#ef727a"><path id="XMLID_78924_" d="m256 136c11.05 0 20 8.95 20 20s-8.95 20-20 20-20-8.95-20-20 8.95-20 20-20z"/><path id="XMLID_78925_" d="m306 346c11.05 0 20 8.95 20 20s-8.95 20-20 20-20-8.95-20-20 8.95-20 20-20z"/><path id="XMLID_78926_" d="m226 306c11.05 0 20 8.95 20 20s-8.95 20-20 20-20-8.95-20-20 8.95-20 20-20z"/><path id="XMLID_78927_" d="m402.43 422.59 33.57 63.41h-360l33.57-63.41 6.43 3.41h100c5.52 0 10 4.48 10 10 0 2.76 1.12 5.26 2.93 7.07s4.31 2.93 7.07 2.93h40c5.52 0 10-4.48 10-10 0-2.76 1.12-5.26 2.93-7.07 1.811-1.81 4.311-2.93 7.07-2.93h100z"/></g><path id="XMLID_78928_" d="m426 106h20v20h-20z"/><path id="XMLID_78929_" d="m406 126h20v20h-20z"/><path id="XMLID_78930_" d="m406 86h20v20h-20z"/><path id="XMLID_78931_" d="m386 106h20v20h-20z"/><path id="XMLID_78932_" d="m116 86h20v20h-20z"/><path id="XMLID_78933_" d="m96 106h20v20h-20z"/><path id="XMLID_78934_" d="m96 66h20v20h-20z"/><path id="XMLID_78935_" d="m76 86h20v20h-20z"/><path id="XMLID_78936_" d="m346 76h-30c-5.522 0-10-4.477-10-10s4.478-10 10-10h20v-20h-160v20h20c5.523 0 10 4.477 10 10s-4.477 10-10 10h-30c-5.523 0-10-4.477-10-10v-40c0-5.523 4.477-10 10-10h180c5.522 0 10 4.477 10 10v40c0 5.523-4.478 10-10 10z"/><path id="XMLID_78937_" d="m75.991 496.002c-1.578 0-3.178-.374-4.67-1.164-4.881-2.584-6.743-8.636-4.159-13.517l62.289-117.665-66.576-95.078-8.198 5.742c-2.172 1.522-4.862 2.123-7.473 1.657-2.612-.46-4.935-1.939-6.456-4.113l-22.94-32.77c-3.167-4.524-2.067-10.758 2.456-13.926l81.91-57.36c4.524-3.167 10.76-2.069 13.927 2.455l22.95 32.77c1.522 2.173 2.118 4.861 1.657 7.474-.461 2.612-1.941 4.935-4.114 6.456l-8.194 5.734 43.101 61.543 14.499-27.393v-190.847c0-5.523 4.477-10 10-10h120c5.522 0 10 4.477 10 10v190.847l14.499 27.394 43.102-61.542-8.194-5.735c-2.174-1.521-3.653-3.843-4.114-6.456s.135-5.301 1.656-7.474l22.95-32.77c3.169-4.523 9.403-5.624 13.928-2.455l81.91 57.36c4.523 3.168 5.623 9.402 2.456 13.926l-22.94 32.771c-1.521 2.173-3.844 3.652-6.456 4.112-2.612.464-5.3-.136-7.474-1.657l-8.197-5.742-66.576 95.078 62.289 117.665c2.584 4.881.722 10.933-4.159 13.517-4.883 2.583-10.933.722-13.517-4.159l-65.15-123.07c-1.757-3.318-1.507-7.34.646-10.415l75.82-108.279c1.521-2.173 3.844-3.652 6.456-4.112 2.607-.459 5.299.135 7.473 1.658l8.196 5.741 11.471-16.385-65.529-45.889-11.476 16.385 8.194 5.735c2.174 1.521 3.653 3.843 4.114 6.456s-.135 5.301-1.656 7.474l-58.221 83.129c-1.998 2.852-5.331 4.457-8.812 4.244-3.477-.216-6.589-2.225-8.218-5.303l-23.31-44.04c-.764-1.441-1.162-3.047-1.162-4.678v-183.331h-99.999v183.33c0 1.631-.399 3.236-1.162 4.678l-23.31 44.04c-1.629 3.078-4.742 5.087-8.218 5.303-3.481.212-6.813-1.392-8.812-4.244l-58.22-83.13c-1.522-2.173-2.118-4.861-1.657-7.474.461-2.612 1.941-4.935 4.114-6.456l8.194-5.735-11.475-16.385-65.529 45.889 11.47 16.385 8.197-5.742c2.173-1.521 4.862-2.115 7.473-1.657 2.612.46 4.934 1.939 6.456 4.112l75.82 108.279c2.153 3.075 2.403 7.097.647 10.415l-65.15 123.07c-1.795 3.39-5.261 5.324-8.847 5.324z"/><path id="XMLID_78938_" d="m276 456h-40c-5.34 0-10.361-2.08-14.14-5.857-3.779-3.782-5.86-8.803-5.86-14.143h-100c-5.523 0-10-4.478-10-10s4.477-10 10-10h100c11.028 0 20 8.972 20 20h40c0-5.339 2.08-10.36 5.856-14.14 3.783-3.78 8.805-5.86 14.144-5.86h100c5.522 0 10 4.478 10 10s-4.478 10-10 10h-100c0 11.028-8.972 20-20 20z"/><path id="XMLID_78939_" d="m226 356c-16.542 0-30-13.458-30-30s13.458-30 30-30 30 13.458 30 30-13.458 30-30 30zm0-40c-5.514 0-10 4.486-10 10s4.486 10 10 10 10-4.486 10-10-4.486-10-10-10z"/><path id="XMLID_78942_" d="m306 396c-16.542 0-30-13.458-30-30s13.458-30 30-30 30 13.458 30 30-13.458 30-30 30zm0-40c-5.514 0-10 4.486-10 10s4.486 10 10 10 10-4.486 10-10-4.486-10-10-10z"/><path id="XMLID_78945_" d="m256 186c-16.542 0-30-13.458-30-30s13.458-30 30-30 30 13.458 30 30-13.458 30-30 30zm0-40c-5.514 0-10 4.486-10 10s4.486 10 10 10 10-4.486 10-10-4.486-10-10-10z"/><path id="XMLID_78948_" d="m486 496h-460c-5.523 0-10-4.478-10-10s4.477-10 10-10h460c5.522 0 10 4.478 10 10s-4.478 10-10 10z"/></g></g></svg>