<svg enable-background="new 0 0 512 512" height="512" viewBox="0 0 512 512" width="512" xmlns="http://www.w3.org/2000/svg"><g id="_x31_592_x2C__Laboratory_x2C__Laboratory_Research_x2C__Science_x2C__Science_Experiment_x2C__Science_Lab"><g><path id="XMLID_78983_" d="m396 306h40v180h-40z" fill="#57606f"/><path id="XMLID_78984_" d="m76 306h40v180h-40z" fill="#57606f"/><path id="XMLID_78985_" d="m306 26v40h-20-60-20v-40z" fill="#b2dbd8"/><path id="XMLID_78986_" d="m286 191.13c34.95 12.35 60 45.68 60 84.87 0 0-56.67-35.33-100-10s-70-10-70-10l-7.46-1.33c7.2-29.62 29.06-53.51 57.46-63.54v-125.13h60z" fill="#d8f2f1"/><path id="XMLID_78987_" d="m346 276c0 49.71-40.29 90-90 90s-90-40.29-90-90c0-7.35.88-14.49 2.54-21.33l7.46 1.33s26.67 35.33 70 10 100 10 100 10z" fill="#ef727a"/><path id="XMLID_78988_" d="m272.97 438.26c7.91 11.86-.59 27.74-14.84 27.74s-22.75-15.88-14.84-27.74l14.84-22.26z" fill="#ea7e23"/><path id="XMLID_78989_" d="m426 176h20v20h-20z"/><path id="XMLID_78990_" d="m406 196h20v20h-20z"/><path id="XMLID_78991_" d="m406 156h20v20h-20z"/><path id="XMLID_78992_" d="m386 176h20v20h-20z"/><path id="XMLID_78993_" d="m96 96h20v20h-20z"/><path id="XMLID_78994_" d="m76 116h20v20h-20z"/><path id="XMLID_78995_" d="m76 76h20v20h-20z"/><path id="XMLID_78996_" d="m56 96h20v20h-20z"/><path id="XMLID_78997_" d="m166 316h-50c-5.523 0-10-4.478-10-10s4.477-10 10-10h50c5.523 0 10 4.478 10 10s-4.477 10-10 10z"/><path id="XMLID_78998_" d="m76 316h-50c-5.523 0-10-4.478-10-10s4.477-10 10-10h50c5.523 0 10 4.478 10 10s-4.477 10-10 10z"/><path id="XMLID_78999_" d="m486 316h-50c-5.522 0-10-4.478-10-10s4.478-10 10-10h50c5.522 0 10 4.478 10 10s-4.478 10-10 10z"/><path id="XMLID_79000_" d="m396 316h-50c-5.522 0-10-4.478-10-10s4.478-10 10-10h50c5.522 0 10 4.478 10 10s-4.478 10-10 10z"/><path id="XMLID_79001_" d="m116 496c-5.523 0-10-4.478-10-10v-170h-20v170c0 5.522-4.477 10-10 10s-10-4.478-10-10v-180c0-5.522 4.477-10 10-10h40c5.523 0 10 4.478 10 10v180c0 5.522-4.477 10-10 10z"/><path id="XMLID_79002_" d="m136 496h-80c-5.523 0-10-4.478-10-10s4.477-10 10-10h80c5.523 0 10 4.478 10 10s-4.477 10-10 10z"/><path id="XMLID_79003_" d="m436 496c-5.522 0-10-4.478-10-10v-170h-20v170c0 5.522-4.478 10-10 10s-10-4.478-10-10v-180c0-5.522 4.478-10 10-10h40c5.522 0 10 4.478 10 10v180c0 5.522-4.478 10-10 10z"/><path id="XMLID_79004_" d="m456 496h-80c-5.522 0-10-4.478-10-10s4.478-10 10-10h80c5.522 0 10 4.478 10 10s-4.478 10-10 10z"/><path id="XMLID_79005_" d="m256 376c-55.14 0-100-44.859-100-100 0-8.003.95-15.974 2.822-23.689 7.436-30.591 28.568-55.545 57.178-67.986v-118.325c0-5.523 4.477-10 10-10s10 4.477 10 10v125.13c0 4.239-2.673 8.018-6.67 9.429-25.581 9.035-44.673 30.146-51.073 56.473-1.497 6.169-2.257 12.552-2.257 18.968 0 44.112 35.888 80 80 80s80-35.888 80-80c0-33.852-21.433-64.169-53.332-75.441-3.996-1.412-6.668-5.19-6.668-9.429v-125.13c0-5.523 4.478-10 10-10s10 4.477 10 10v118.33c36.166 15.783 60 51.762 60 91.67 0 55.141-44.859 100-100 100z"/><path id="XMLID_79006_" d="m306 76h-100c-5.523 0-10-4.477-10-10v-40c0-5.523 4.477-10 10-10h100c5.522 0 10 4.477 10 10v40c0 5.523-4.478 10-10 10zm-90-20h80v-20h-80z"/><path id="XMLID_79009_" d="m258.13 496c-5.523 0-10-4.478-10-10v-10c0-5.522 4.477-10 10-10 5.522 0 10 4.478 10 10v10c0 5.522-4.478 10-10 10z"/><path id="XMLID_79010_" d="m258.13 476c-10.288 0-19.694-5.635-24.547-14.705s-4.321-20.023 1.388-28.584l14.839-22.258c1.854-2.782 4.977-4.453 8.32-4.453s6.466 1.671 8.32 4.453l14.84 22.26c5.709 8.559 6.24 19.512 1.387 28.582s-14.259 14.705-24.547 14.705zm0-41.973-6.52 9.779c-2.355 3.531-1.06 6.808-.394 8.053.667 1.245 2.673 4.141 6.913 4.141s6.247-2.896 6.913-4.141 1.961-4.521-.393-8.051z"/><path id="XMLID_79013_" d="m345.99 286.001c-1.807 0-3.635-.489-5.28-1.515-.506-.313-52.151-31.782-89.663-9.854-26.132 15.276-47.346 11.106-60.541 4.92-13.925-6.529-21.652-16.422-22.487-17.527-3.327-4.408-2.451-10.679 1.957-14.007 4.393-3.317 10.636-2.458 13.972 1.912.187.237 5.914 7.433 15.716 11.82 12.699 5.683 26.591 4.21 41.29-4.383 47.992-28.057 107.814 8.574 110.337 10.146 4.688 2.922 6.118 9.09 3.196 13.776-1.897 3.042-5.159 4.712-8.497 4.712z"/></g></g></svg>