<svg enable-background="new 0 0 512 512" height="512" viewBox="0 0 512 512" width="512" xmlns="http://www.w3.org/2000/svg"><g id="_x31_593_x2C__Chromosome_x2C__Dna_x2C__Genetic_Engineering_x2C__Genetic_Modification_x2C__Genetic_Research"><g><circle id="XMLID_79044_" cx="456" cy="236" fill="#747371" r="30"/><circle id="XMLID_79045_" cx="56" cy="286" fill="#747371" r="30"/><path id="XMLID_79046_" d="m426 106h20v20h-20z"/><path id="XMLID_79047_" d="m406 126h20v20h-20z"/><path id="XMLID_79048_" d="m406 86h20v20h-20z"/><path id="XMLID_79049_" d="m386 106h20v20h-20z"/><path id="XMLID_79050_" d="m116 386h20v20h-20z"/><path id="XMLID_79051_" d="m96 406h20v20h-20z"/><path id="XMLID_79052_" d="m96 366h20v20h-20z"/><path id="XMLID_79053_" d="m76 386h20v20h-20z"/><path id="XMLID_79054_" d="m256 186c-2.111 0-4.222-.667-6-2l-80-60c-2.518-1.889-4-4.853-4-8v-90c0-5.523 4.477-10 10-10s10 4.477 10 10v85l70 52.5 70-52.5v-85c0-5.523 4.478-10 10-10s10 4.477 10 10v90c0 3.147-1.482 6.111-4 8l-80 60c-1.777 1.333-3.889 2-6 2z"/><path id="XMLID_79055_" d="m336 496c-5.522 0-10-4.478-10-10v-85l-70-52.5-70 52.5v85c0 5.522-4.477 10-10 10s-10-4.478-10-10v-90c0-3.147 1.482-6.111 4-8l80-60c3.556-2.666 8.445-2.666 12 0l80 60c2.518 1.889 4 4.853 4 8v90c0 5.522-4.478 10-10 10z"/><path id="XMLID_79056_" d="m256 346c-1.532 0-3.064-.352-4.472-1.056l-80-40c-3.388-1.694-5.528-5.156-5.528-8.944v-60c0-3.147 1.482-6.111 4-8l80-60c3.556-2.667 8.445-2.667 12 0l80 60c2.518 1.889 4 4.853 4 8v60c0 3.788-2.14 7.25-5.528 8.944l-80 40c-1.408.704-2.94 1.056-4.472 1.056zm-70-56.181 70 35 70-35v-48.819l-70-52.5-70 52.5z"/><path id="XMLID_79059_" d="m336 66h-160c-5.523 0-10-4.477-10-10s4.477-10 10-10h160c5.522 0 10 4.477 10 10s-4.478 10-10 10z"/><path id="XMLID_79060_" d="m336 116h-160c-5.523 0-10-4.477-10-10s4.477-10 10-10h160c5.522 0 10 4.477 10 10s-4.478 10-10 10z"/><path id="XMLID_79061_" d="m336 416h-160c-5.523 0-10-4.478-10-10s4.477-10 10-10h160c5.522 0 10 4.478 10 10s-4.478 10-10 10z"/><path id="XMLID_79062_" d="m336 466h-160c-5.523 0-10-4.478-10-10s4.477-10 10-10h160c5.522 0 10 4.478 10 10s-4.478 10-10 10z"/><path id="XMLID_79063_" d="m426 246h-280c-5.523 0-10-4.477-10-10s4.477-10 10-10h280c5.522 0 10 4.477 10 10s-4.478 10-10 10z"/><path id="XMLID_79064_" d="m456 276c-22.056 0-40-17.944-40-40s17.944-40 40-40 40 17.944 40 40-17.944 40-40 40zm0-60c-11.028 0-20 8.972-20 20s8.972 20 20 20 20-8.972 20-20-8.972-20-20-20z"/><path id="XMLID_79067_" d="m366 296h-280c-5.523 0-10-4.478-10-10s4.477-10 10-10h280c5.522 0 10 4.478 10 10s-4.478 10-10 10z"/><path id="XMLID_79068_" d="m56 326c-22.056 0-40-17.944-40-40s17.944-40 40-40 40 17.944 40 40-17.944 40-40 40zm0-60c-11.028 0-20 8.972-20 20s8.972 20 20 20 20-8.972 20-20-8.972-20-20-20z"/><path id="XMLID_79071_" d="m96 136c-5.523 0-10-4.477-10-10v-30c0-5.523 4.477-10 10-10s10 4.477 10 10v30c0 5.523-4.477 10-10 10z"/><path id="XMLID_79072_" d="m111 121h-30c-5.523 0-10-4.477-10-10s4.477-10 10-10h30c5.523 0 10 4.477 10 10s-4.477 10-10 10z"/><path id="XMLID_79073_" d="m411 406c-5.522 0-10-4.478-10-10v-30c0-5.522 4.478-10 10-10s10 4.478 10 10v30c0 5.522-4.478 10-10 10z"/><path id="XMLID_79074_" d="m426 391h-30c-5.522 0-10-4.478-10-10s4.478-10 10-10h30c5.522 0 10 4.478 10 10s-4.478 10-10 10z"/></g></g></svg>