<svg enable-background="new 0 0 512 512" height="512" viewBox="0 0 512 512" width="512" xmlns="http://www.w3.org/2000/svg"><g id="_x31_594_x2C__Biophysics_x2C__Circuitry_x2C__Electronics_x2C__Physical_Science_x2C__Science"><g><path id="XMLID_79133_" d="m46 306c11.05 0 20 8.95 20 20s-8.95 20-20 20-20-8.95-20-20 8.95-20 20-20z" fill="#313a52"/><path id="XMLID_79134_" d="m46 446c11.05 0 20 8.95 20 20s-8.95 20-20 20-20-8.95-20-20 8.95-20 20-20z" fill="#313a52"/><path id="XMLID_79135_" d="m176 446c11.05 0 20 8.95 20 20s-8.95 20-20 20-20-8.95-20-20 8.95-20 20-20z" fill="#57606f"/><path id="XMLID_79136_" d="m236 366c11.05 0 20 8.95 20 20s-8.95 20-20 20-20-8.95-20-20 8.95-20 20-20z" fill="#57606f"/><path id="XMLID_79137_" d="m466 366c11.05 0 20 8.95 20 20s-8.95 20-20 20-20-8.95-20-20 8.95-20 20-20z" fill="#57606f"/><path id="XMLID_79138_" d="m406 326c11.05 0 20 8.95 20 20s-8.95 20-20 20-20-8.95-20-20 8.95-20 20-20z" fill="#313a52"/><path id="XMLID_79139_" d="m466 236c11.05 0 20 8.95 20 20s-8.95 20-20 20-20-8.95-20-20 8.95-20 20-20z" fill="#57606f"/><g fill="#313a52"><path id="XMLID_79140_" d="m386 196c11.05 0 20 8.95 20 20s-8.95 20-20 20-20-8.95-20-20 8.95-20 20-20z"/><path id="XMLID_79141_" d="m246 246c11.05 0 20 8.95 20 20s-8.95 20-20 20-20-8.95-20-20 8.95-20 20-20z"/><path id="XMLID_79142_" d="m136 146c11.05 0 20 8.95 20 20s-8.95 20-20 20-20-8.95-20-20 8.95-20 20-20z"/></g><path id="XMLID_79143_" d="m96 26c11.05 0 20 8.95 20 20s-8.95 20-20 20-20-8.95-20-20 8.95-20 20-20z" fill="#57606f"/><path id="XMLID_79144_" d="m266 146c11.05 0 20 8.95 20 20s-8.95 20-20 20-20-8.95-20-20 8.95-20 20-20z" fill="#57606f"/><path id="XMLID_79145_" d="m356 76c11.05 0 20 8.95 20 20s-8.95 20-20 20-20-8.95-20-20 8.95-20 20-20z" fill="#313a52"/><path id="XMLID_79146_" d="m466 26c11.05 0 20 8.95 20 20s-8.95 20-20 20-20-8.95-20-20 8.95-20 20-20z" fill="#313a52"/><path id="XMLID_79147_" d="m96 76c-16.542 0-30-13.458-30-30s13.458-30 30-30 30 13.458 30 30-13.458 30-30 30zm0-40c-5.514 0-10 4.486-10 10s4.486 10 10 10 10-4.486 10-10-4.486-10-10-10z"/><path id="XMLID_79150_" d="m356 126c-16.542 0-30-13.458-30-30s13.458-30 30-30 30 13.458 30 30-13.458 30-30 30zm0-40c-5.514 0-10 4.486-10 10s4.486 10 10 10 10-4.486 10-10-4.486-10-10-10z"/><path id="XMLID_79153_" d="m246 296c-16.542 0-30-13.458-30-30s13.458-30 30-30 30 13.458 30 30-13.458 30-30 30zm0-40c-5.514 0-10 4.486-10 10s4.486 10 10 10 10-4.486 10-10-4.486-10-10-10z"/><path id="XMLID_79156_" d="m266 196c-16.542 0-30-13.458-30-30s13.458-30 30-30 30 13.458 30 30-13.458 30-30 30zm0-40c-5.514 0-10 4.486-10 10s4.486 10 10 10 10-4.486 10-10-4.486-10-10-10z"/><path id="XMLID_79159_" d="m386 246c-16.542 0-30-13.458-30-30s13.458-30 30-30 30 13.458 30 30-13.458 30-30 30zm0-40c-5.514 0-10 4.486-10 10s4.486 10 10 10 10-4.486 10-10-4.486-10-10-10z"/><path id="XMLID_79162_" d="m406 376c-16.542 0-30-13.458-30-30s13.458-30 30-30 30 13.458 30 30-13.458 30-30 30zm0-40c-5.514 0-10 4.486-10 10s4.486 10 10 10 10-4.486 10-10-4.486-10-10-10z"/><path id="XMLID_79165_" d="m236 416c-16.542 0-30-13.458-30-30s13.458-30 30-30 30 13.458 30 30-13.458 30-30 30zm0-40c-5.514 0-10 4.486-10 10s4.486 10 10 10 10-4.486 10-10-4.486-10-10-10z"/><path id="XMLID_79168_" d="m466 416c-16.542 0-30-13.458-30-30s13.458-30 30-30 30 13.458 30 30-13.458 30-30 30zm0-40c-5.514 0-10 4.486-10 10s4.486 10 10 10 10-4.486 10-10-4.486-10-10-10z"/><path id="XMLID_79171_" d="m136 196c-16.542 0-30-13.458-30-30s13.458-30 30-30 30 13.458 30 30-13.458 30-30 30zm0-40c-5.514 0-10 4.486-10 10s4.486 10 10 10 10-4.486 10-10-4.486-10-10-10z"/><path id="XMLID_79174_" d="m176 496c-16.542 0-30-13.458-30-30s13.458-30 30-30 30 13.458 30 30-13.458 30-30 30zm0-40c-5.514 0-10 4.486-10 10s4.486 10 10 10 10-4.486 10-10-4.486-10-10-10z"/><path id="XMLID_79177_" d="m336 106h-150c-5.523 0-10-4.477-10-10v-40h-60c-5.523 0-10-4.477-10-10s4.477-10 10-10h70c5.523 0 10 4.477 10 10v40h140c5.522 0 10 4.477 10 10s-4.478 10-10 10z"/><path id="XMLID_79178_" d="m466 76c-16.542 0-30-13.458-30-30s13.458-30 30-30 30 13.458 30 30-13.458 30-30 30zm0-40c-5.514 0-10 4.486-10 10s4.486 10 10 10 10-4.486 10-10-4.486-10-10-10z"/><path id="XMLID_79181_" d="m466 286c-16.542 0-30-13.458-30-30s13.458-30 30-30 30 13.458 30 30-13.458 30-30 30zm0-40c-5.514 0-10 4.486-10 10s4.486 10 10 10 10-4.486 10-10-4.486-10-10-10z"/><path id="XMLID_79184_" d="m466 246c-5.522 0-10-4.477-10-10v-170c0-5.523 4.478-10 10-10s10 4.477 10 10v170c0 5.523-4.478 10-10 10z"/><path id="XMLID_79185_" d="m46 356c-16.542 0-30-13.458-30-30s13.458-30 30-30 30 13.458 30 30-13.458 30-30 30zm0-40c-5.514 0-10 4.486-10 10s4.486 10 10 10 10-4.486 10-10-4.486-10-10-10z"/><path id="XMLID_79188_" d="m46 496c-16.542 0-30-13.458-30-30s13.458-30 30-30 30 13.458 30 30-13.458 30-30 30zm0-40c-5.514 0-10 4.486-10 10s4.486 10 10 10 10-4.486 10-10-4.486-10-10-10z"/><path id="XMLID_79191_" d="m46 456c-5.523 0-10-4.478-10-10v-100c0-5.522 4.477-10 10-10s10 4.478 10 10v100c0 5.522-4.477 10-10 10z"/><path id="XMLID_79192_" d="m176 456c-5.523 0-10-4.478-10-10v-170h-100c-5.523 0-10-4.478-10-10v-100c0-5.523 4.477-10 10-10h50c5.523 0 10 4.477 10 10s-4.477 10-10 10h-40v80h100c5.523 0 10 4.478 10 10v180c0 5.522-4.477 10-10 10z"/><path id="XMLID_79193_" d="m466 496h-160c-5.522 0-10-4.478-10-10v-90h-40c-5.523 0-10-4.478-10-10s4.477-10 10-10h50c5.522 0 10 4.478 10 10v90h140v-70c0-5.522 4.478-10 10-10s10 4.478 10 10v80c0 5.522-4.478 10-10 10z"/><path id="XMLID_79194_" d="m386 356h-60c-5.522 0-10-4.478-10-10v-20h-70c-5.523 0-10-4.478-10-10v-20c0-5.522 4.477-10 10-10s10 4.478 10 10v10h70c5.522 0 10 4.478 10 10v20h50c5.522 0 10 4.478 10 10s-4.478 10-10 10z"/><path id="XMLID_79195_" d="m366 226h-40c-5.522 0-10-4.477-10-10v-40h-30c-5.522 0-10-4.477-10-10s4.478-10 10-10h40c5.522 0 10 4.477 10 10v40h30c5.522 0 10 4.477 10 10s-4.478 10-10 10z"/></g></g></svg>