<svg enable-background="new 0 0 512 512" height="512" viewBox="0 0 512 512" width="512" xmlns="http://www.w3.org/2000/svg"><g id="_x31_595_x2C__Education_x2C__Information_x2C__Knowledge_x2C__Learning_x2C__Science"><g><path id="XMLID_79218_" d="m486.033 66v30h-40-40v-30c0-22.09 17.91-40 40-40 11.04 0 21.04 4.48 28.28 11.72s11.72 17.24 11.72 28.28z" fill="#f14742"/><path id="XMLID_79219_" d="m486.033 436-40 50-40-50h40z" fill="#e6be94"/><path id="XMLID_79220_" d="m446.033 96h40v340h-40z" fill="#8fb021"/><path id="XMLID_79221_" d="m406.033 96h40v340h-40z" fill="#a5c63b"/><path id="XMLID_79222_" d="m273.043 425.39c10.79 15.351 9.41 36.45-3.92 49.66-6.399 6.351-15.06 10.51-25.06 10.92-.56.021-1.12.03-1.68.03h-178.5c-.56 0-1.12-.01-1.68-.03-10-.41-18.66-4.569-25.06-10.92-13.32-13.21-14.71-34.31-3.91-49.66l29.39-41.79 3.41 2.4s71 45 170-10l1.52-1.07z" fill="#ef727a"/><path id="XMLID_79223_" d="m203.133 326v-190h-100v190l-40.51 57.6 3.41 2.4s71 45 170-10l1.52-1.07z" fill="#d8f2f1"/><path id="XMLID_79224_" d="m326.033 286h20v20h-20z"/><path id="XMLID_79225_" d="m306.033 306h20v20h-20z"/><path id="XMLID_79226_" d="m306.033 266h20v20h-20z"/><path id="XMLID_79227_" d="m286.033 286h20v20h-20z"/><path id="XMLID_79228_" d="m286.033 46h20v20h-20z"/><path id="XMLID_79229_" d="m266.033 66h20v20h-20z"/><path id="XMLID_79230_" d="m266.033 26h20v20h-20z"/><path id="XMLID_79231_" d="m246.033 46h20v20h-20z"/><path id="XMLID_79232_" d="m166.033 306c5.52 0 10 4.48 10 10s-4.48 10-10 10-10-4.48-10-10 4.48-10 10-10z"/><path id="XMLID_79233_" d="m156.033 176c5.52 0 10 4.48 10 10s-4.48 10-10 10-10-4.48-10-10 4.48-10 10-10z"/><path id="XMLID_79234_" d="m146.033 236c5.52 0 10 4.48 10 10s-4.48 10-10 10-10-4.48-10-10 4.48-10 10-10z"/><path id="XMLID_79235_" d="m136.033 356c5.52 0 10 4.48 10 10s-4.48 10-10 10-10-4.48-10-10 4.48-10 10-10z"/><path id="XMLID_79236_" d="m63.883 496c-.682 0-1.364-.012-2.046-.037-12-.492-23.255-5.397-31.738-13.814-16.732-16.594-18.854-42.886-5.045-62.513l68.079-96.8v-186.836c0-5.523 4.477-10 10-10s10 4.477 10 10v190c0 2.06-.636 4.068-1.82 5.753l-69.9 99.39c-8.179 11.624-7.013 27.104 2.771 36.807 3.489 3.462 9.516 7.663 18.428 8.029.395.014.833.021 1.271.021 5.523 0 10 4.478 10 10s-4.477 10-10 10z"/><path id="XMLID_79237_" d="m242.383 496c-5.523 0-10-4.478-10-10s4.477-10 10-10c.438 0 .876-.008 1.313-.023 8.869-.364 14.896-4.565 18.382-8.024 9.79-9.702 10.958-25.182 2.783-36.812l-69.908-99.387c-1.185-1.685-1.821-3.694-1.821-5.754v-190c0-5.523 4.477-10 10-10s10 4.477 10 10v186.835l68.089 96.802c13.805 19.64 11.676 45.931-5.061 62.516-8.478 8.413-19.733 13.318-31.689 13.809-.723.026-1.406.038-2.088.038z"/><path id="XMLID_79238_" d="m243.133 146h-180c-5.523 0-10-4.477-10-10s4.477-10 10-10h180c5.523 0 10 4.477 10 10s-4.477 10-10 10z"/><path id="XMLID_79239_" d="m137.485 413.301c-9.313 0-17.696-.717-25.014-1.779-31.872-4.629-50.993-16.569-51.792-17.075-4.665-2.956-6.049-9.135-3.093-13.8 2.952-4.655 9.113-6.042 13.773-3.109.323.199 17.165 10.486 45.01 14.337 37.454 5.178 76.083-3.102 114.807-24.615 4.829-2.683 10.917-.942 13.598 3.885 2.682 4.828.942 10.916-3.885 13.598-40.063 22.256-75.799 28.558-103.404 28.558z"/><path id="XMLID_79240_" d="m446.033 496c-3.038 0-5.911-1.381-7.809-3.753l-40-50c-1.419-1.773-2.191-3.977-2.191-6.247v-370c0-27.57 22.43-50 50-50 13.35 0 25.904 5.203 35.352 14.649 9.446 9.447 14.648 22.002 14.648 35.351v370c0 2.271-.772 4.474-2.191 6.247l-40 50c-1.898 2.372-4.771 3.753-7.809 3.753zm-30-63.508 30 37.5 30-37.5v-366.492c0-8.007-3.122-15.54-8.791-21.209s-13.201-8.791-21.209-8.791c-16.542 0-30 13.458-30 30z"/><path id="XMLID_79243_" d="m486.033 106h-80c-5.522 0-10-4.477-10-10s4.478-10 10-10h80c5.522 0 10 4.477 10 10s-4.477 10-10 10z"/><path id="XMLID_79244_" d="m486.033 446h-80c-5.522 0-10-4.478-10-10s4.478-10 10-10h80c5.522 0 10 4.478 10 10s-4.477 10-10 10z"/><path id="XMLID_79245_" d="m446.033 446c-5.522 0-10-4.478-10-10v-340c0-5.523 4.478-10 10-10s10 4.477 10 10v340c0 5.522-4.477 10-10 10z"/><path id="XMLID_79246_" d="m486.033 496h-460c-5.523 0-10-4.478-10-10s4.477-10 10-10h460c5.522 0 10 4.478 10 10s-4.477 10-10 10z"/></g></g></svg>