<svg enable-background="new 0 0 512 512" height="512" viewBox="0 0 512 512" width="512" xmlns="http://www.w3.org/2000/svg"><g id="_x31_596_x2C__Acid_x2C__Chemical_x2C__Chemical_Industry_x2C__Chemical_Lab_x2C__Laboratory"><g><path id="XMLID_79286_" d="m331 86h-275l40 40v50 50 50 50 50 50 20c0 22.09 17.91 40 40 40h240c22.09 0 40-17.91 40-40v-360z" fill="#d8f2f1"/><g fill="#193772"><path id="XMLID_79287_" d="m336 276c11.05 0 20 8.95 20 20s-8.95 20-20 20-20-8.95-20-20 8.95-20 20-20z"/><path id="XMLID_79288_" d="m236 346c11.05 0 20 8.95 20 20s-8.95 20-20 20-20-8.95-20-20 8.95-20 20-20z"/><path id="XMLID_79289_" d="m246 186c11.05 0 20 8.95 20 20s-8.95 20-20 20-20-8.95-20-20 8.95-20 20-20z"/></g><path id="XMLID_79290_" d="m446 356h20v20h-20z"/><path id="XMLID_79291_" d="m446 306h20v20h-20z"/><path id="XMLID_79292_" d="m446 256h20v20h-20z"/><path id="XMLID_79293_" d="m446 206h20v20h-20z"/><path id="XMLID_79294_" d="m446 156h20v20h-20z"/><path id="XMLID_79295_" d="m46 356h20v20h-20z"/><path id="XMLID_79296_" d="m46 306h20v20h-20z"/><path id="XMLID_79297_" d="m46 256h20v20h-20z"/><path id="XMLID_79298_" d="m46 206h20v20h-20z"/><path id="XMLID_79299_" d="m46 156h20v20h-20z"/><path id="XMLID_79300_" d="m376 496c-5.522 0-10-4.478-10-10s4.478-10 10-10c16.542 0 30-13.458 30-30v-350h-325.858l22.929 22.929c1.875 1.875 2.929 4.419 2.929 7.071v320c0 16.542 13.458 30 30 30 5.523 0 10 4.478 10 10s-4.477 10-10 10c-27.57 0-50-22.43-50-50v-315.858l-37.071-37.071c-2.86-2.86-3.715-7.161-2.167-10.898s5.194-6.173 9.238-6.173h360c5.522 0 10 4.477 10 10v360c0 27.57-22.43 50-50 50z"/><path id="XMLID_79301_" d="m146 186h-50c-5.523 0-10-4.477-10-10s4.477-10 10-10h50c5.523 0 10 4.477 10 10s-4.477 10-10 10z"/><path id="XMLID_79302_" d="m146 236h-50c-5.523 0-10-4.477-10-10s4.477-10 10-10h50c5.523 0 10 4.477 10 10s-4.477 10-10 10z"/><path id="XMLID_79303_" d="m146 286h-50c-5.523 0-10-4.478-10-10s4.477-10 10-10h50c5.523 0 10 4.478 10 10s-4.477 10-10 10z"/><path id="XMLID_79304_" d="m146 336h-50c-5.523 0-10-4.478-10-10s4.477-10 10-10h50c5.523 0 10 4.478 10 10s-4.477 10-10 10z"/><path id="XMLID_79305_" d="m146 386h-50c-5.523 0-10-4.478-10-10s4.477-10 10-10h50c5.523 0 10 4.478 10 10s-4.477 10-10 10z"/><path id="XMLID_79306_" d="m146 436h-50c-5.523 0-10-4.478-10-10s4.477-10 10-10h50c5.523 0 10 4.478 10 10s-4.477 10-10 10z"/><path id="XMLID_79307_" d="m246 236c-16.542 0-30-13.458-30-30s13.458-30 30-30 30 13.458 30 30-13.458 30-30 30zm0-40c-5.514 0-10 4.486-10 10s4.486 10 10 10 10-4.486 10-10-4.486-10-10-10z"/><path id="XMLID_79310_" d="m336 326c-16.542 0-30-13.458-30-30s13.458-30 30-30 30 13.458 30 30-13.458 30-30 30zm0-40c-5.514 0-10 4.486-10 10s4.486 10 10 10 10-4.486 10-10-4.486-10-10-10z"/><path id="XMLID_79313_" d="m236 396c-16.542 0-30-13.458-30-30s13.458-30 30-30 30 13.458 30 30-13.458 30-30 30zm0-40c-5.514 0-10 4.486-10 10s4.486 10 10 10 10-4.486 10-10-4.486-10-10-10z"/><path id="XMLID_79316_" d="m486 496h-460c-5.523 0-10-4.478-10-10s4.477-10 10-10h460c5.522 0 10 4.478 10 10s-4.478 10-10 10z"/><path id="XMLID_79317_" d="m276.008 316.002c-.803 0-1.619-.097-2.434-.301-5.357-1.339-8.615-6.769-7.275-12.127l70-280c1.34-5.358 6.767-8.614 12.127-7.276 5.357 1.339 8.615 6.769 7.275 12.126l-70 280c-1.136 4.545-5.213 7.578-9.693 7.578z"/></g></g></svg>