<svg enable-background="new 0 0 512 512" height="512" viewBox="0 0 512 512" width="512" xmlns="http://www.w3.org/2000/svg"><g id="_x31_597_x2C__Laboratory_x2C__Laboratory_Research_x2C__Science_x2C__Science_Experiment_x2C__Science_Lab"><g><path id="XMLID_79366_" d="m266 26v30h-20-60-20v-30z" fill="#b2dbd8"/><path id="XMLID_79367_" d="m206 206c-18.67-21.67-50-10-50-10h-10c0-27.92 16.35-52.02 40-63.25v-76.75h60v76.75c23.65 11.23 40 35.33 40 63.25 0 0-61.33 31.67-80 10z" fill="#d8f2f1"/><path id="XMLID_79368_" d="m286 196c0 38.66-31.34 70-70 70s-70-31.34-70-70h10s31.33-11.67 50 10 80-10 80-10z" fill="#80af52"/><g fill="#ea7e23"><path id="XMLID_79369_" d="m316 416c11.05 0 20 8.95 20 20s-8.95 20-20 20-20-8.95-20-20 8.95-20 20-20z"/><path id="XMLID_79370_" d="m346 76c11.05 0 20 8.95 20 20s-8.95 20-20 20-20-8.95-20-20 8.95-20 20-20z"/><path id="XMLID_79371_" d="m86 296c11.05 0 20 8.95 20 20s-8.95 20-20 20-20-8.95-20-20 8.95-20 20-20z"/><path id="XMLID_79372_" d="m239.17 372.33c20.67 18.24-5.6 53.67-33.17 53.67s-45.5-29.01-33.17-53.67l33.17-66.33s12 47.67 33.17 66.33z"/></g><path id="XMLID_79373_" d="m346 316h20v20h-20z"/><path id="XMLID_79374_" d="m326 336h20v20h-20z"/><path id="XMLID_79375_" d="m326 296h20v20h-20z"/><path id="XMLID_79376_" d="m306 316h20v20h-20z"/><path id="XMLID_79377_" d="m96 86h20v20h-20z"/><path id="XMLID_79378_" d="m76 106h20v20h-20z"/><path id="XMLID_79379_" d="m76 66h20v20h-20z"/><path id="XMLID_79380_" d="m56 86h20v20h-20z"/><path id="XMLID_79381_" d="m426 496c-5.522 0-10-4.478-10-10v-460c0-5.523 4.478-10 10-10s10 4.477 10 10v460c0 5.522-4.478 10-10 10z"/><path id="XMLID_79382_" d="m146 176h-120c-5.523 0-10-4.477-10-10s4.477-10 10-10h120c5.523 0 10 4.477 10 10s-4.477 10-10 10z"/><path id="XMLID_79383_" d="m486 181h-200c-5.522 0-10-4.477-10-10s4.478-10 10-10h200c5.522 0 10 4.477 10 10s-4.478 10-10 10z"/><path id="XMLID_79384_" d="m486 496h-460c-5.523 0-10-4.478-10-10s4.477-10 10-10h460c5.522 0 10 4.478 10 10s-4.478 10-10 10z"/><path id="XMLID_79385_" d="m216 276c-44.112 0-80-35.888-80-80 0-28.564 15.506-55.095 40-69.28v-70.72c0-5.523 4.477-10 10-10s10 4.477 10 10v76.75c0 3.861-2.223 7.377-5.71 9.033-20.831 9.891-34.29 31.173-34.29 54.217 0 33.084 26.916 60 60 60s60-26.916 60-60c0-23.044-13.459-44.326-34.29-54.217-3.488-1.656-5.71-5.172-5.71-9.033v-76.75c0-5.523 4.477-10 10-10s10 4.477 10 10v70.72c24.494 14.185 40 40.715 40 69.28 0 44.112-35.888 80-80 80z"/><path id="XMLID_79386_" d="m266 66h-100c-5.523 0-10-4.477-10-10v-30c0-5.523 4.477-10 10-10h100c5.522 0 10 4.477 10 10v30c0 5.523-4.478 10-10 10zm-90-20h80v-10h-80z"/><path id="XMLID_79389_" d="m206 486c-5.523 0-10-4.478-10-10v-50c0-5.522 4.477-10 10-10s10 4.478 10 10v50c0 5.522-4.477 10-10 10z"/><path id="XMLID_79390_" d="m206 436c-16.439 0-31.413-8.348-40.054-22.33s-9.412-31.108-2.06-45.812l33.17-66.331c1.87-3.74 5.865-5.919 10.027-5.469 4.157.453 7.593 3.445 8.614 7.5 3.142 12.433 14.673 47.686 30.085 61.27 10.445 9.218 13.523 23.06 8.241 37.031-7.36 19.464-28.005 34.141-48.023 34.141zm-2-103.644-22.227 44.446c-4.229 8.458-3.786 18.31 1.185 26.353s13.585 12.845 23.042 12.845c13.152 0 25.458-11.012 29.315-21.214 2.355-6.229 1.426-11.262-2.762-14.958-12.894-11.366-22.483-31.474-28.553-47.472z"/><path id="XMLID_79393_" d="m226.854 223.571c-12.576 0-22.09-3.685-28.43-11.044-13.964-16.209-38.686-7.249-38.933-7.156-5.178 1.926-10.934-.706-12.862-5.88-1.928-5.176.705-10.934 5.88-12.862 1.546-.576 38.116-13.794 61.067 12.844 9.193 10.672 45.916-1.067 67.84-12.36 4.909-2.529 10.939-.601 13.47 4.305 2.53 4.907.608 10.935-4.298 13.468-.66.341-16.39 8.417-34.759 13.833-10.976 3.235-20.647 4.852-28.975 4.852z"/><path id="XMLID_79394_" d="m86 346c-16.542 0-30-13.458-30-30s13.458-30 30-30 30 13.458 30 30-13.458 30-30 30zm0-40c-5.514 0-10 4.486-10 10s4.486 10 10 10 10-4.486 10-10-4.486-10-10-10z"/><path id="XMLID_79397_" d="m346 126c-16.542 0-30-13.458-30-30s13.458-30 30-30 30 13.458 30 30-13.458 30-30 30zm0-40c-5.514 0-10 4.486-10 10s4.486 10 10 10 10-4.486 10-10-4.486-10-10-10z"/><path id="XMLID_79400_" d="m316 466c-16.542 0-30-13.458-30-30s13.458-30 30-30 30 13.458 30 30-13.458 30-30 30zm0-40c-5.514 0-10 4.486-10 10s4.486 10 10 10 10-4.486 10-10-4.486-10-10-10z"/></g></g></svg>