<svg enable-background="new 0 0 512 512" height="512" viewBox="0 0 512 512" width="512" xmlns="http://www.w3.org/2000/svg"><g id="_x31_598_x2C__Ai_x2C__Artificial_Intelligence_x2C__Electronics_x2C__Light_Bulb_x2C__Robotics"><g><path id="XMLID_79458_" d="m326 396v40h-40-60-40v-40z" fill="#414a56"/><path id="XMLID_79459_" d="m286 436v20c0 16.57-13.43 30-30 30s-30-13.43-30-30v-20z" fill="#57606f"/><path id="XMLID_79460_" d="m186 356h140v40h-140z" fill="#57606f"/><path id="XMLID_79461_" d="m256 26c-88.37 0-160 71.63-160 160 0 63.26 36.72 117.94 90 143.91v26.09h140v-26.09c53.28-25.97 90-80.65 90-143.91 0-88.37-71.63-160-160-160z" fill="#d8f2f1"/><path id="XMLID_79462_" d="m356 157.82v36.36h-29.56c-1.721 6.67-4.37 12.97-7.79 18.75l20.92 20.92-25.721 25.72-20.92-20.92c-5.779 3.41-12.08 6.07-18.75 7.79v29.56h-36.36v-29.56c-6.67-1.72-12.97-4.38-18.75-7.79l-20.92 20.92-25.72-25.72 20.92-20.92c-3.41-5.78-6.07-12.08-7.79-18.75h-29.559v-36.36h29.56c1.72-6.67 4.38-12.97 7.79-18.75l-20.92-20.92 25.72-25.72 20.92 20.92c5.78-3.41 12.08-6.07 18.75-7.79v-29.56h36.36v29.56c6.67 1.72 12.971 4.38 18.75 7.79l20.92-20.92 25.721 25.72-20.92 20.92c3.42 5.78 6.069 12.08 7.79 18.75zm-63.64 18.18c0-20.08-16.28-36.36-36.36-36.36s-36.36 16.28-36.36 36.36 16.28 36.36 36.36 36.36 36.36-16.28 36.36-36.36z" fill="#ffd24d"/><path id="XMLID_79468_" d="m456 416h20v20h-20z"/><path id="XMLID_79469_" d="m456 366h20v20h-20z"/><path id="XMLID_79470_" d="m456 316h20v20h-20z"/><path id="XMLID_79471_" d="m456 266h20v20h-20z"/><path id="XMLID_79472_" d="m36 316h20v20h-20z"/><path id="XMLID_79473_" d="m36 266h20v20h-20z"/><path id="XMLID_79474_" d="m36 216h20v20h-20z"/><path id="XMLID_79475_" d="m36 166h20v20h-20z"/><path id="XMLID_79476_" d="m326 446h-40c-5.522 0-10-4.478-10-10s4.478-10 10-10h30v-96.09c0-3.824 2.181-7.313 5.618-8.989 52.049-25.369 84.382-77.068 84.382-134.921 0-82.71-67.29-150-150-150s-150 67.29-150 150c0 57.853 32.333 109.552 84.381 134.921 3.438 1.676 5.619 5.165 5.619 8.989v96.09h30c5.523 0 10 4.478 10 10s-4.477 10-10 10h-40c-5.523 0-10-4.478-10-10v-99.97c-25.785-13.771-47.619-33.965-63.41-58.712-17.395-27.261-26.59-58.839-26.59-91.318 0-93.738 76.262-170 170-170s170 76.262 170 170c0 32.479-9.194 64.057-26.59 91.318-15.791 24.747-37.625 44.94-63.41 58.712v99.97c0 5.522-4.478 10-10 10z"/><path id="XMLID_79477_" d="m256 496c-22.056 0-40-17.944-40-40v-20c0-5.522 4.477-10 10-10h60c5.522 0 10 4.478 10 10v20c0 22.056-17.944 40-40 40zm-20-50v10c0 11.028 8.972 20 20 20s20-8.972 20-20v-10z"/><path id="XMLID_79480_" d="m356 366h-200c-5.523 0-10-4.478-10-10s4.477-10 10-10h200c5.522 0 10 4.478 10 10s-4.478 10-10 10z"/><path id="XMLID_79481_" d="m356 406h-200c-5.523 0-10-4.478-10-10s4.477-10 10-10h200c5.522 0 10 4.478 10 10s-4.478 10-10 10z"/><path id="XMLID_79482_" d="m256 222.36c-25.563 0-46.36-20.797-46.36-46.36s20.797-46.36 46.36-46.36 46.36 20.797 46.36 46.36-20.797 46.36-46.36 46.36zm0-72.72c-14.535 0-26.36 11.825-26.36 26.36s11.825 26.36 26.36 26.36 26.36-11.825 26.36-26.36-11.825-26.36-26.36-26.36z"/><path id="XMLID_79485_" d="m274.18 286h-36.36c-5.523 0-10-4.478-10-10v-22.203c-2.333-.849-4.632-1.805-6.89-2.865l-15.709 15.71c-1.875 1.875-4.419 2.929-7.071 2.929s-5.196-1.054-7.071-2.929l-25.72-25.721c-3.905-3.905-3.905-10.237 0-14.142l15.709-15.709c-1.061-2.257-2.017-4.556-2.865-6.89h-22.203c-5.523 0-10-4.477-10-10v-36.36c0-5.523 4.477-10 10-10h22.203c.849-2.333 1.805-4.632 2.865-6.89l-15.709-15.709c-3.905-3.905-3.905-10.237 0-14.143l25.719-25.719c3.905-3.905 10.237-3.905 14.143 0l15.709 15.709c2.257-1.061 4.556-2.017 6.89-2.865v-22.203c0-5.523 4.477-10 10-10h36.36c5.522 0 10 4.477 10 10v22.203c2.334.849 4.633 1.805 6.89 2.865l15.709-15.709c3.906-3.905 10.236-3.906 14.143 0l25.721 25.72c1.875 1.875 2.929 4.419 2.929 7.071s-1.054 5.196-2.929 7.071l-15.707 15.706c1.06 2.255 2.016 4.555 2.864 6.893h22.2c5.522 0 10 4.477 10 10v36.36c0 5.523-4.478 10-10 10h-22.201c-.849 2.338-1.805 4.638-2.864 6.893l15.707 15.706c1.875 1.875 2.929 4.419 2.929 7.071s-1.054 5.196-2.929 7.071l-25.721 25.72c-1.876 1.875-4.419 2.929-7.071 2.929-2.652 0-5.196-1.054-7.071-2.929l-15.709-15.709c-2.257 1.061-4.556 2.016-6.89 2.865v22.203c0 5.522-4.478 10-10 10zm-26.36-20h16.36v-19.56c0-4.561 3.087-8.544 7.503-9.683 5.631-1.452 11.069-3.712 16.165-6.719 3.927-2.319 8.927-1.685 12.153 1.542l13.849 13.849 11.578-11.578-13.849-13.849c-3.229-3.229-3.86-8.234-1.535-12.163 2.995-5.063 5.254-10.498 6.714-16.156 1.139-4.416 5.122-7.502 9.683-7.502h19.559v-16.36h-19.56c-4.561 0-8.544-3.086-9.683-7.502-1.46-5.658-3.719-11.094-6.714-16.156-2.325-3.929-1.693-8.935 1.535-12.163l13.849-13.849-11.578-11.578-13.849 13.849c-3.228 3.226-8.227 3.858-12.153 1.541-5.096-3.007-10.534-5.267-16.165-6.719-4.416-1.139-7.503-5.122-7.503-9.683v-19.561h-16.36v19.56c0 4.561-3.086 8.544-7.503 9.683-5.629 1.452-11.068 3.712-16.166 6.72-3.928 2.318-8.927 1.683-12.152-1.542l-13.849-13.849-11.578 11.578 13.849 13.849c3.225 3.226 3.859 8.224 1.542 12.152-3.007 5.098-5.268 10.537-6.72 16.166-1.139 4.417-5.122 7.503-9.683 7.503h-19.559v16.36h19.56c4.561 0 8.544 3.086 9.683 7.503 1.452 5.629 3.712 11.068 6.72 16.166 2.317 3.928 1.684 8.927-1.542 12.152l-13.849 13.849 11.578 11.578 13.849-13.849c3.226-3.226 8.225-3.86 12.152-1.542 5.098 3.007 10.537 5.268 16.166 6.72 4.417 1.139 7.503 5.122 7.503 9.683z"/><path id="XMLID_79488_" d="m486 496h-460c-5.523 0-10-4.478-10-10s4.477-10 10-10h460c5.522 0 10 4.478 10 10s-4.478 10-10 10z"/></g></g></svg>