<svg enable-background="new 0 0 512 512" height="512" viewBox="0 0 512 512" width="512" xmlns="http://www.w3.org/2000/svg"><g id="_x31_599_x2C__Applied_Science_x2C__Engineering_x2C__Engineering_Science_x2C__Mechanization_x2C__Technology"><g><path id="XMLID_79528_" d="m456 451.45v34.55h-120.91c0-38.16-30.93-69.09-69.09-69.09s-69.09 30.93-69.09 69.09h-120.91v-34.55h56.17c3.26-12.67 8.31-24.63 14.8-35.62l-39.75-39.75 48.86-48.86 39.75 39.75c10.99-6.489 22.95-11.54 35.62-14.8v-56.17h69.1v56.17c12.67 3.26 24.63 8.311 35.62 14.8l39.75-39.75 48.86 48.86-39.75 39.75c6.489 10.99 11.54 22.95 14.8 35.62z" fill="#57606f"/><path id="XMLID_79529_" d="m486 107.82v36.36h-29.56c-1.721 6.67-4.37 12.97-7.79 18.75l20.92 20.92-25.721 25.72-20.92-20.92c-5.779 3.41-12.08 6.07-18.75 7.79v29.56h-36.359v-29.56c-6.67-1.72-12.971-4.38-18.75-7.79l-20.92 20.92-25.721-25.72 20.92-20.92c-3.42-5.78-6.069-12.08-7.79-18.75h-29.559v-36.36h29.56c1.721-6.67 4.37-12.97 7.79-18.75l-20.92-20.92 25.721-25.72 20.92 20.92c5.779-3.41 12.08-6.07 18.75-7.79v-29.56h36.359v29.56c6.67 1.72 12.971 4.38 18.75 7.79l20.92-20.92 25.721 25.72-20.92 20.92c3.42 5.78 6.069 12.08 7.79 18.75zm-63.64 18.18c0-20.08-16.28-36.36-36.36-36.36s-36.36 16.28-36.36 36.36 16.28 36.36 36.36 36.36 36.36-16.28 36.36-36.36z" fill="#313a52"/><path id="XMLID_79532_" d="m226 107.82v36.36h-29.56c-1.72 6.67-4.38 12.97-7.79 18.75l20.92 20.92-25.72 25.72-20.92-20.92c-5.78 3.41-12.08 6.07-18.75 7.79v29.56h-36.36v-29.56c-6.67-1.72-12.97-4.38-18.75-7.79l-20.92 20.92-25.72-25.72 20.92-20.92c-3.41-5.78-6.07-12.08-7.79-18.75h-29.56v-36.36h29.56c1.72-6.67 4.38-12.97 7.79-18.75l-20.92-20.92 25.72-25.72 20.92 20.92c5.78-3.41 12.08-6.07 18.75-7.79v-29.56h36.36v29.56c6.67 1.72 12.97 4.38 18.75 7.79l20.92-20.92 25.72 25.72-20.92 20.92c3.41 5.78 6.07 12.08 7.79 18.75zm-63.64 18.18c0-20.08-16.28-36.36-36.36-36.36s-36.36 16.28-36.36 36.36 16.28 36.36 36.36 36.36 36.36-16.28 36.36-36.36z" fill="#193772"/><path id="XMLID_79535_" d="m246 216h20v20h-20z"/><path id="XMLID_79536_" d="m246 166h20v20h-20z"/><path id="XMLID_79537_" d="m246 116h20v20h-20z"/><path id="XMLID_79538_" d="m246 66h20v20h-20z"/><path id="XMLID_79539_" d="m386 172.36c-25.563 0-46.36-20.797-46.36-46.36s20.797-46.36 46.36-46.36 46.36 20.797 46.36 46.36-20.797 46.36-46.36 46.36zm0-72.72c-14.535 0-26.36 11.825-26.36 26.36s11.825 26.36 26.36 26.36 26.36-11.825 26.36-26.36-11.825-26.36-26.36-26.36z"/><path id="XMLID_79542_" d="m404.18 236h-36.36c-5.522 0-10-4.477-10-10v-22.203c-2.334-.849-4.633-1.805-6.89-2.865l-15.709 15.709c-3.906 3.905-10.236 3.906-14.143 0l-25.721-25.72c-1.875-1.875-2.929-4.419-2.929-7.071s1.054-5.196 2.929-7.071l15.707-15.706c-1.06-2.255-2.016-4.555-2.864-6.893h-22.2c-5.522 0-10-4.477-10-10v-36.36c0-5.523 4.478-10 10-10h22.201c.849-2.338 1.805-4.638 2.864-6.893l-15.707-15.706c-1.875-1.875-2.929-4.419-2.929-7.071s1.054-5.196 2.929-7.071l25.721-25.72c3.907-3.904 10.237-3.905 14.143 0l15.709 15.709c2.257-1.061 4.556-2.017 6.89-2.865v-22.203c0-5.523 4.478-10 10-10h36.359c5.522 0 10 4.477 10 10v22.203c2.334.849 4.633 1.805 6.89 2.865l15.709-15.709c3.906-3.905 10.236-3.906 14.143 0l25.721 25.72c1.875 1.875 2.929 4.419 2.929 7.071s-1.054 5.196-2.929 7.071l-15.707 15.706c1.06 2.255 2.016 4.555 2.864 6.893h22.2c5.522 0 10 4.477 10 10v36.36c0 5.523-4.478 10-10 10h-22.201c-.849 2.338-1.805 4.638-2.864 6.893l15.707 15.706c1.875 1.875 2.929 4.419 2.929 7.071s-1.054 5.196-2.929 7.071l-25.721 25.72c-3.906 3.906-10.236 3.905-14.143 0l-15.709-15.709c-2.257 1.061-4.556 2.017-6.89 2.865v22.203c.001 5.523-4.477 10-9.999 10zm-26.36-20h16.359v-19.56c0-4.561 3.087-8.544 7.503-9.683 5.631-1.452 11.069-3.712 16.165-6.719 3.927-2.319 8.926-1.685 12.153 1.541l13.849 13.849 11.578-11.578-13.849-13.849c-3.229-3.229-3.86-8.234-1.535-12.163 2.995-5.063 5.254-10.498 6.714-16.156 1.139-4.416 5.122-7.502 9.683-7.502h19.56v-16.36h-19.56c-4.561 0-8.544-3.086-9.683-7.502-1.46-5.658-3.719-11.094-6.714-16.156-2.325-3.929-1.693-8.935 1.535-12.163l13.849-13.849-11.577-11.578-13.849 13.849c-3.227 3.225-8.228 3.858-12.153 1.541-5.096-3.007-10.534-5.267-16.165-6.719-4.416-1.139-7.503-5.122-7.503-9.683v-19.56h-16.36v19.56c0 4.561-3.087 8.544-7.503 9.683-5.631 1.452-11.069 3.712-16.165 6.719-3.928 2.317-8.927 1.685-12.153-1.541l-13.849-13.849-11.578 11.578 13.849 13.849c3.229 3.229 3.86 8.234 1.535 12.163-2.995 5.063-5.254 10.498-6.714 16.156-1.139 4.416-5.122 7.502-9.683 7.502h-19.559v16.36h19.56c4.561 0 8.544 3.086 9.683 7.502 1.46 5.658 3.719 11.094 6.714 16.156 2.325 3.929 1.693 8.935-1.535 12.163l-13.849 13.849 11.578 11.578 13.849-13.849c3.227-3.226 8.227-3.858 12.153-1.541 5.096 3.007 10.534 5.267 16.165 6.719 4.416 1.139 7.503 5.122 7.503 9.683v19.56z"/><path id="XMLID_79545_" d="m126 172.36c-25.563 0-46.36-20.797-46.36-46.36s20.797-46.36 46.36-46.36 46.36 20.797 46.36 46.36-20.797 46.36-46.36 46.36zm0-72.72c-14.535 0-26.36 11.825-26.36 26.36s11.825 26.36 26.36 26.36 26.36-11.825 26.36-26.36-11.825-26.36-26.36-26.36z"/><path id="XMLID_79548_" d="m144.18 236h-36.36c-5.523 0-10-4.477-10-10v-22.203c-2.333-.849-4.632-1.805-6.89-2.865l-15.709 15.709c-3.905 3.905-10.237 3.905-14.143 0l-25.719-25.719c-3.905-3.905-3.905-10.237 0-14.143l15.709-15.709c-1.061-2.257-2.017-4.556-2.865-6.89h-22.203c-5.523 0-10-4.477-10-10v-36.36c0-5.523 4.477-10 10-10h22.203c.849-2.333 1.805-4.632 2.865-6.89l-15.709-15.709c-3.905-3.905-3.905-10.237 0-14.143l25.719-25.719c3.905-3.905 10.237-3.905 14.143 0l15.709 15.709c2.257-1.061 4.556-2.017 6.89-2.865v-22.203c0-5.523 4.477-10 10-10h36.36c5.523 0 10 4.477 10 10v22.203c2.333.849 4.632 1.805 6.89 2.865l15.709-15.709c3.905-3.905 10.237-3.905 14.143 0l25.719 25.719c3.905 3.905 3.905 10.237 0 14.143l-15.709 15.709c1.061 2.257 2.017 4.556 2.865 6.89h22.203c5.523 0 10 4.477 10 10v36.36c0 5.523-4.477 10-10 10h-22.203c-.849 2.333-1.805 4.632-2.865 6.89l15.709 15.709c3.905 3.905 3.905 10.237 0 14.143l-25.719 25.719c-3.905 3.905-10.237 3.905-14.143 0l-15.709-15.709c-2.257 1.061-4.556 2.017-6.89 2.865v22.203c0 5.523-4.477 10-10 10zm-26.36-20h16.36v-19.56c0-4.561 3.086-8.544 7.503-9.683 5.629-1.452 11.068-3.712 16.166-6.72 3.93-2.317 8.928-1.683 12.152 1.542l13.849 13.849 11.578-11.578-13.849-13.849c-3.225-3.226-3.859-8.224-1.542-12.152 3.007-5.098 5.268-10.537 6.72-16.166 1.139-4.417 5.122-7.503 9.683-7.503h19.56v-16.36h-19.56c-4.561 0-8.544-3.086-9.683-7.503-1.452-5.629-3.712-11.068-6.72-16.166-2.317-3.928-1.684-8.927 1.542-12.152l13.849-13.849-11.578-11.578-13.849 13.849c-3.226 3.225-8.225 3.86-12.152 1.542-5.098-3.007-10.537-5.268-16.166-6.72-4.417-1.139-7.503-5.122-7.503-9.683v-19.56h-16.36v19.56c0 4.561-3.086 8.544-7.503 9.683-5.629 1.452-11.068 3.712-16.166 6.72-3.929 2.317-8.927 1.683-12.152-1.542l-13.849-13.849-11.578 11.578 13.849 13.849c3.225 3.226 3.859 8.224 1.542 12.152-3.007 5.098-5.268 10.537-6.72 16.166-1.139 4.417-5.122 7.503-9.683 7.503h-19.56v16.36h19.56c4.561 0 8.544 3.086 9.683 7.503 1.452 5.629 3.712 11.068 6.72 16.166 2.317 3.928 1.684 8.927-1.542 12.152l-13.849 13.849 11.578 11.578 13.849-13.849c3.226-3.225 8.224-3.86 12.152-1.542 5.098 3.007 10.537 5.268 16.166 6.72 4.417 1.139 7.503 5.122 7.503 9.683z"/><path id="XMLID_79551_" d="m335.09 496c-5.522 0-10-4.478-10-10 0-32.582-26.508-59.09-59.09-59.09s-59.09 26.508-59.09 59.09c0 5.522-4.477 10-10 10s-10-4.478-10-10c0-43.61 35.479-79.09 79.09-79.09s79.09 35.479 79.09 79.09c0 5.522-4.478 10-10 10z"/><path id="XMLID_79552_" d="m456 496h-380c-5.523 0-10-4.478-10-10v-34.55c0-5.522 4.477-10 10-10h48.635c2.588-8.199 5.91-16.188 9.93-23.883l-34.417-34.416c-3.905-3.905-3.905-10.237 0-14.143l48.86-48.86c1.875-1.875 4.419-2.929 7.071-2.929s5.196 1.054 7.071 2.929l34.417 34.417c7.695-4.021 15.684-7.343 23.882-9.931v-48.634c0-5.522 4.477-10 10-10h69.1c5.522 0 10 4.478 10 10v48.635c8.198 2.588 16.188 5.91 23.882 9.931l34.417-34.417c3.906-3.904 10.236-3.904 14.143 0l48.86 48.86c3.905 3.905 3.905 10.237 0 14.143l-34.417 34.417c4.021 7.694 7.343 15.684 9.931 23.882h48.635c5.522 0 10 4.478 10 10v34.549c0 5.522-4.478 10-10 10zm-370-20h360v-14.55h-46.17c-4.563 0-8.548-3.089-9.685-7.508-2.959-11.502-7.577-22.614-13.727-33.028-2.319-3.929-1.686-8.929 1.54-12.155l32.679-32.679-34.718-34.718-32.679 32.679c-3.228 3.226-8.229 3.858-12.155 1.54-10.414-6.149-21.526-10.768-33.028-13.727-4.419-1.137-7.508-5.121-7.508-9.685v-46.169h-49.1v46.17c0 4.563-3.089 8.548-7.508 9.685-11.502 2.959-22.614 7.577-33.027 13.727-3.928 2.32-8.929 1.686-12.156-1.54l-32.679-32.679-34.718 34.718 32.679 32.679c3.226 3.227 3.859 8.228 1.54 12.156-6.148 10.41-10.766 21.522-13.727 33.027-1.137 4.419-5.122 7.508-9.685 7.508h-46.168z"/></g></g></svg>