<svg enable-background="new 0 0 512 512" height="512" viewBox="0 0 512 512" width="512" xmlns="http://www.w3.org/2000/svg"><g id="_x31_600_x2C__Laboratory_x2C__Laboratory_Research_x2C__Science_x2C__Science_Experiment_x2C__Science_Lab"><g><path id="XMLID_79567_" d="m296 153.95v-97.95h20v-30h-120v30h20v97.95c-28.17 11-50.69 33.28-62.01 61.28l2.01.77s41 66.5 90 60 81.5-22.5 110-10l9.51.85c.33-3.42.49-6.89.49-10.399 0-46.641-29.03-86.501-70-102.501z" fill="#d8f2f1"/><path id="XMLID_79568_" d="m356 266c-28.5-12.5-61 3.5-110 10s-90-60-90-60l-2.01-.77c-5.15 12.73-7.99 26.65-7.99 41.22 0 60.75 49.25 110 110 110 57.24 0 104.27-43.73 109.51-99.601z" fill="#ef727a"/><g fill="#ea7e23"><path id="XMLID_79569_" d="m106 136c11.05 0 20 8.95 20 20s-8.95 20-20 20-20-8.95-20-20 8.95-20 20-20z"/><path id="XMLID_79570_" d="m376 86c11.05 0 20 8.95 20 20s-8.95 20-20 20-20-8.95-20-20 8.95-20 20-20z"/><path id="XMLID_79571_" d="m271.4 420.64c13.04 13.051 3.8 35.36-14.65 35.36s-27.69-22.31-14.64-35.36l14.64-14.64z"/></g><path id="XMLID_79572_" d="m436 196h20v20h-20z"/><path id="XMLID_79573_" d="m416 216h20v20h-20z"/><path id="XMLID_79574_" d="m416 176h20v20h-20z"/><path id="XMLID_79575_" d="m396 196h20v20h-20z"/><path id="XMLID_79576_" d="m306 306c5.52 0 10 4.48 10 10s-4.48 10-10 10-10-4.48-10-10 4.48-10 10-10z"/><path id="XMLID_79577_" d="m276 216c5.52 0 10 4.48 10 10s-4.48 10-10 10-10-4.48-10-10 4.48-10 10-10z"/><path id="XMLID_79578_" d="m256 156c5.52 0 10 4.48 10 10s-4.48 10-10 10-10-4.48-10-10 4.48-10 10-10z"/><path id="XMLID_79579_" d="m226 206c5.52 0 10 4.48 10 10s-4.48 10-10 10-10-4.48-10-10 4.48-10 10-10z"/><path id="XMLID_79580_" d="m226 306c5.52 0 10 4.48 10 10s-4.48 10-10 10-10-4.48-10-10 4.48-10 10-10z"/><path id="XMLID_79581_" d="m86 56h20v20h-20z"/><path id="XMLID_79582_" d="m66 76h20v20h-20z"/><path id="XMLID_79583_" d="m66 36h20v20h-20z"/><path id="XMLID_79584_" d="m46 56h20v20h-20z"/><path id="XMLID_79585_" d="m146 306h-120c-5.523 0-10-4.478-10-10s4.477-10 10-10h120c5.523 0 10 4.478 10 10s-4.477 10-10 10z"/><path id="XMLID_79586_" d="m486 306h-120c-5.522 0-10-4.478-10-10s4.478-10 10-10h120c5.522 0 10 4.478 10 10s-4.478 10-10 10z"/><path id="XMLID_79587_" d="m76 496c-5.523 0-10-4.478-10-10v-190c0-5.522 4.477-10 10-10s10 4.478 10 10v190c0 5.522-4.477 10-10 10z"/><path id="XMLID_79588_" d="m436 496c-5.522 0-10-4.478-10-10v-190c0-5.522 4.478-10 10-10s10 4.478 10 10v190c0 5.522-4.478 10-10 10z"/><path id="XMLID_79589_" d="m256 376.45c-66.168 0-120-53.832-120-120 0-15.539 2.934-30.669 8.72-44.971 11.469-28.369 33.59-51.425 61.28-64.144v-81.335h-10c-5.523 0-10-4.477-10-10v-30c0-5.523 4.477-10 10-10h120c5.522 0 10 4.477 10 10v30c0 5.523-4.478 10-10 10h-10v81.332c19.511 8.937 36.207 22.891 48.573 40.667 14.018 20.152 21.427 43.822 21.427 68.451 0 3.85-.181 7.672-.536 11.36-2.775 29.587-16.434 57.002-38.456 77.166-22.166 20.296-50.936 31.474-81.008 31.474zm-50-330.45h10c5.523 0 10 4.477 10 10v97.95c0 4.119-2.526 7.817-6.363 9.315-25.546 9.976-46.095 30.282-56.376 55.713-4.818 11.91-7.261 24.517-7.261 37.472 0 55.141 44.86 100 100 100 51.914 0 94.713-38.921 99.554-90.534.297-3.079.446-6.255.446-9.466 0-41.51-24.979-78.088-63.638-93.185-3.837-1.499-6.362-5.196-6.362-9.315v-97.95c0-5.523 4.478-10 10-10h10v-10h-100z"/><path id="XMLID_79592_" d="m239.188 286.449c-50.886 0-89.978-62.408-91.7-65.201-2.898-4.701-1.437-10.862 3.264-13.76 4.698-2.896 10.854-1.438 13.755 3.256.377.61 38.221 60.894 80.178 55.343 15.355-2.037 29.392-5.107 41.776-7.816 27.499-6.016 51.248-11.212 73.556-1.428 5.058 2.218 7.359 8.117 5.142 13.174-2.22 5.059-8.119 7.36-13.175 5.142-16.35-7.172-35.183-3.054-61.248 2.65-12.767 2.792-27.236 5.958-43.42 8.104-2.74.363-5.45.536-8.128.536z"/><path id="XMLID_79593_" d="m256.75 496c-5.523 0-10-4.478-10-10v-20c0-5.522 4.477-10 10-10 5.522 0 10 4.478 10 10v20c0 5.522-4.478 10-10 10z"/><path id="XMLID_79594_" d="m256.75 466c-12.656 0-23.527-7.264-28.37-18.956-4.845-11.695-2.293-24.522 6.659-33.476l14.641-14.64c3.905-3.903 10.235-3.904 14.139-.002l14.65 14.64c8.952 8.959 11.499 21.785 6.652 33.479-4.846 11.692-15.717 18.955-28.371 18.955zm.002-45.86-7.572 7.571c-4.698 4.698-2.966 10.127-2.323 11.679.642 1.551 3.254 6.61 9.893 6.61s9.252-5.061 9.895-6.611c.644-1.553 2.377-6.981-2.318-11.681z"/><path id="XMLID_79597_" d="m276.75 496h-40c-5.523 0-10-4.478-10-10s4.477-10 10-10h40c5.522 0 10 4.478 10 10s-4.478 10-10 10z"/><path id="XMLID_79598_" d="m376 136c-16.542 0-30-13.458-30-30s13.458-30 30-30 30 13.458 30 30-13.458 30-30 30zm0-40c-5.514 0-10 4.486-10 10s4.486 10 10 10 10-4.486 10-10-4.486-10-10-10z"/><path id="XMLID_79601_" d="m106 186c-16.542 0-30-13.458-30-30s13.458-30 30-30 30 13.458 30 30-13.458 30-30 30zm0-40c-5.514 0-10 4.486-10 10s4.486 10 10 10 10-4.486 10-10-4.486-10-10-10z"/></g></g></svg>