<svg enable-background="new 0 0 512 512" height="512" viewBox="0 0 512 512" width="512" xmlns="http://www.w3.org/2000/svg"><g id="_x31_000_x2C__Arrow_x2C__Share_x2C__Up_x2C__Right"><g><path d="m391.51 47.812c1.75-5.24 7.41-8.07 12.65-6.32 5.24 1.74 8.07 7.41 6.33 12.64-1.75 5.24-7.41 8.08-12.65 6.33s-8.07-7.41-6.33-12.65z"/><path d="m243.27 44.461c2.37 0 4.74.52 6.95 1.55l150.25 70.32c5.359 2.51 9.51 7.04 11.539 12.61 2.03 5.58 1.75 11.74-.77 17.12l-70.28 150.171c-2.21 4.719-6.521 8.129-11.62 9.189-1.13.23-2.25.35-3.359.35-6.53 0-12.58-3.881-15.221-10.07l-22.229-52.229c-79.33 35.86-180.56 121.36-124.8 216.79 4.46 7.619.15 9.811-6.06 3.9-117.64-112.311-53.29-278.5 87.15-343.551l-17.21-54.83c-2.37-7.54.98-15.7 7.96-19.4 2.4-1.279 5.05-1.92 7.7-1.92z" fill="#d94556"/><circle cx="76" cy="105.981" fill="#d7e816" r="35"/><path d="m151.51 87.822c1.74-5.24 7.41-8.08 12.65-6.33s8.07 7.41 6.32 12.65-7.41 8.07-12.65 6.32c-5.24-1.74-8.07-7.4-6.32-12.64z"/><path d="m451.51 207.812c1.74-5.24 7.41-8.07 12.65-6.32 5.24 1.74 8.07 7.41 6.32 12.64-1.74 5.24-7.41 8.08-12.65 6.33s-8.07-7.41-6.32-12.65z"/><path d="m431 290.982c0-11.051 8.95-20 20-20 11.04 0 20 8.949 20 20 0 11.039-8.96 20-20 20-11.05 0-20-8.961-20-20z" fill="#d7e816"/><path d="m451.51 367.813c1.75-5.24 7.41-8.07 12.65-6.33 5.24 1.75 8.07 7.42 6.33 12.648-1.75 5.24-7.41 8.08-12.65 6.33s-8.07-7.41-6.33-12.648z"/><path d="m251 420.982c0-16.57 13.43-30 30-30s30 13.43 30 30c0 16.559-13.43 30-30 30s-30-13.441-30-30z" fill="#d7e816"/><path d="m71.51 417.813c1.75-5.24 7.41-8.07 12.65-6.33 5.24 1.75 8.07 7.42 6.33 12.648-1.75 5.24-7.41 8.08-12.65 6.33s-8.07-7.41-6.33-12.648z"/><path d="m351.51 447.822c1.74-5.24 7.41-8.08 12.65-6.33s8.07 7.41 6.32 12.648c-1.74 5.24-7.41 8.07-12.65 6.32-5.24-1.739-8.07-7.409-6.32-12.638z"/><path d="m163.661 477.539c-4.273 0-8.608-2.063-12.885-6.133-50.456-48.172-72.364-110.136-61.698-174.494 12.332-74.413 67.027-143.285 143.611-181.558l-14.62-46.578c-3.814-12.135 1.575-25.271 12.817-31.23 3.776-2.014 8.066-3.084 12.383-3.084 3.876 0 7.636.837 11.176 2.487l150.263 70.326c7.813 3.659 13.742 10.137 16.697 18.242 2.917 8.022 2.512 17.054-1.11 24.787l-70.278 150.167c-3.531 7.539-10.5 13.049-18.643 14.742-1.834.373-3.637.559-5.395.559-10.65 0-20.234-6.338-24.418-16.146l-18.16-42.667c-47.577 23.488-104.599 66.675-121.04 118.226-8.613 27.006-5.248 53.934 10.002 80.033 4.6 7.859 3.4 13.291 1.582 16.461-2.102 3.669-5.947 5.858-10.284 5.86zm79.609-423.078c-1.046 0-2.082.257-2.995.744-2.744 1.455-4.05 4.637-3.125 7.578l17.211 54.833c1.504 4.792-.78 9.958-5.338 12.068-74.801 34.647-128.528 99.978-140.215 170.499-7.662 46.232 3.57 91.201 31.811 129.615-4.708-19.98-3.82-40.283 2.688-60.691 19.498-61.135 85.674-109.691 141.104-134.748 2.452-1.108 5.247-1.182 7.753-.204 2.507.978 4.514 2.924 5.567 5.4l22.229 52.229c1.032 2.42 3.396 3.986 6.02 3.986.419 0 .877-.049 1.362-.148 1.97-.41 3.688-1.77 4.561-3.631l70.28-150.169c1.385-2.958 1.541-6.406.43-9.463-1.129-3.095-3.396-5.573-6.384-6.972l-150.248-70.318c-.86-.401-1.776-.608-2.711-.608z"/><path d="m451 320.982c-16.542 0-30-13.459-30-30 0-16.543 13.458-30 30-30s30 13.457 30 30c0 16.541-13.458 30-30 30zm0-40c-5.514 0-10 4.486-10 10s4.486 10 10 10 10-4.486 10-10-4.486-10-10-10z"/><path d="m281 460.982c-22.057 0-40-17.945-40-40 0-22.057 17.943-40 40-40s40 17.943 40 40c0 22.055-17.943 40-40 40zm0-60c-11.027 0-20 8.971-20 20 0 11.027 8.973 20 20 20s20-8.973 20-20c0-11.029-8.973-20-20-20z"/><path d="m76 150.981c-24.813 0-45-20.187-45-45s20.187-45 45-45 45 20.187 45 45-20.187 45-45 45zm0-70c-13.785 0-25 11.215-25 25s11.215 25 25 25 25-11.215 25-25-11.215-25-25-25z"/></g></g></svg>