<svg enable-background="new 0 0 512 512" height="512" viewBox="0 0 512 512" width="512" xmlns="http://www.w3.org/2000/svg"><g id="_x31_001_x2C__Arrow_x2C__Direction_x2C__Pointer_x2C__Up_Left"><g><path d="m246.003 96c-93.89 0-170 76.11-170 170s76.11 170 170 170c93.879 0 169.99-76.11 169.99-170s-76.11-170-169.99-170z" fill="#bce4ff"/><circle cx="436.003" cy="416" fill="#07cc66" r="30"/><path d="m76.003 66c11.04 0 20 8.95 20 20 0 11.04-8.96 20-20 20-11.05 0-20-8.96-20-20 0-11.05 8.951-20 20-20z" fill="#07cc66"/><path d="m342.173 322.44c4.931 4.939 7.4 11.399 7.4 17.859s-2.47 12.92-7.4 17.86c-9.859 9.859-25.85 9.859-35.71 0l-124.27-124.27-5.28 29.26c-1.91 10.6-11.02 16.989-20.39 16.989-5.12 0-10.32-1.899-14.48-6.06-4.9-4.9-7.01-11.92-5.63-18.7l17.42-85.56 86.59-13.58c1.01-.16 2.03-.24 3.04-.24 5.15 0 10.13 2.03 13.83 5.73 11.58 11.58 4.66 31.42-11.62 33.28l-27.77 3.17z" fill="#3256c1"/><path d="m445.483 112.83c1.75 5.24-1.08 10.9-6.32 12.65s-10.899-1.08-12.649-6.32 1.09-10.91 6.329-12.65c5.23-1.75 10.9 1.08 12.64 6.32z"/><path d="m345.483 52.84c1.75 5.24-1.08 10.9-6.32 12.65-5.24 1.74-10.899-1.09-12.649-6.33s1.09-10.9 6.329-12.65c5.23-1.74 10.9 1.09 12.64 6.33z"/><path d="m345.483 452.84c1.75 5.24-1.08 10.9-6.32 12.65-5.24 1.74-10.899-1.09-12.649-6.33s1.09-10.9 6.329-12.65c5.23-1.74 10.9 1.09 12.64 6.33z"/><path d="m135.483 452.84c1.75 5.24-1.09 10.9-6.33 12.65-5.23 1.74-10.9-1.09-12.64-6.33-1.75-5.24 1.08-10.9 6.32-12.65 5.24-1.74 10.9 1.09 12.65 6.33z"/><path d="m65.483 162.84c1.75 5.24-1.08 10.9-6.32 12.65-5.24 1.74-10.9-1.09-12.65-6.33s1.09-10.9 6.33-12.65c5.24-1.74 10.901 1.09 12.64 6.33z"/><path d="m55.483 372.84c1.75 5.24-1.08 10.9-6.32 12.65-5.24 1.74-10.9-1.09-12.65-6.33s1.09-10.9 6.33-12.65c5.24-1.74 10.901 1.09 12.64 6.33z"/><path d="m246.003 446c-99.252 0-180-80.748-180-180s80.748-180 180-180c99.247 0 179.99 80.748 179.99 180s-80.743 180-179.99 180zm0-340c-88.224 0-160 71.776-160 160 0 88.225 71.776 160 160 160 88.218 0 159.99-71.775 159.99-160 0-88.224-71.771-160-159.99-160z"/><path d="m324.318 375.555c-9.416 0-18.269-3.666-24.926-10.323l-110.752-110.753-1.885 10.447c-2.632 14.609-15.347 25.214-30.231 25.214-8.101 0-15.755-3.192-21.551-8.988-7.288-7.289-10.413-17.669-8.358-27.766l17.42-85.561c.833-4.093 4.123-7.237 8.25-7.884l86.59-13.58c1.505-.238 3.055-.361 4.589-.361 7.895 0 15.317 3.075 20.901 8.659 8.096 8.096 10.781 19.841 7.008 30.652s-13.186 18.334-24.563 19.634l-7.178.819 109.613 109.604c6.663 6.676 10.329 15.527 10.329 24.931 0 9.402-3.666 18.254-10.321 24.924-6.666 6.666-15.519 10.332-24.935 10.332zm-142.126-151.665c2.613 0 5.168 1.025 7.072 2.929l124.27 124.27c2.88 2.88 6.71 4.466 10.784 4.466s7.904-1.586 10.784-4.466c2.88-2.887 4.471-6.721 4.471-10.789s-1.591-7.902-4.478-10.795l-124.262-124.254c-2.714-2.714-3.636-6.743-2.371-10.367s4.493-6.204 8.307-6.64l27.77-3.17c5.54-.633 7.486-5.023 7.951-6.354.464-1.331 1.673-5.978-2.268-9.919-2.153-2.153-5.196-3.166-8.233-2.684l-79.743 12.506-16.034 78.752c-.712 3.502.373 7.104 2.902 9.635 2.587 2.587 5.457 3.13 7.409 3.13 4.32 0 9.464-2.742 10.549-8.763l5.28-29.263c.661-3.663 3.301-6.655 6.853-7.767.982-.307 1.989-.457 2.987-.457z"/><path d="m76.003 116c-16.542 0-30-13.458-30-30s13.458-30 30-30 30 13.458 30 30-13.458 30-30 30zm0-40c-5.514 0-10 4.486-10 10s4.486 10 10 10 10-4.486 10-10-4.485-10-10-10z"/><path d="m436.003 456c-22.056 0-40-17.944-40-40s17.944-40 40-40c22.057 0 40 17.944 40 40s-17.943 40-40 40zm0-60c-11.027 0-20 8.972-20 20s8.973 20 20 20c11.028 0 20-8.972 20-20s-8.972-20-20-20z"/></g></g></svg>