<svg enable-background="new 0 0 512 512" height="512" viewBox="0 0 512 512" width="512" xmlns="http://www.w3.org/2000/svg"><g id="_x31_002_x2C__Arrow_x2C__Direction_x2C__Pointer_x2C__Up_Right"><g><circle cx="96" cy="436.004" fill="#07cc66" r="30"/><path d="m399.17 445.483c-5.24 1.75-10.9-1.08-12.65-6.319-1.75-5.24 1.08-10.9 6.32-12.65s10.91 1.09 12.65 6.33c1.75 5.229-1.08 10.899-6.32 12.639z"/><path d="m416 246.003c0 93.88-76.11 169.99-170 169.99s-170-76.109-170-169.99c0-93.89 76.11-170 170-170s170 76.11 170 170z" fill="#bce4ff"/><path d="m459.16 345.483c-5.24 1.75-10.9-1.08-12.65-6.319-1.74-5.24 1.09-10.9 6.33-12.65s10.9 1.09 12.65 6.33c1.739 5.229-1.09 10.899-6.33 12.639z"/><path d="m59.16 345.483c-5.24 1.75-10.9-1.08-12.65-6.319-1.74-5.24 1.09-10.9 6.33-12.65s10.9 1.09 12.65 6.33c1.74 5.229-1.09 10.899-6.33 12.639z"/><path d="m189.56 342.174c-4.94 4.93-11.4 7.399-17.86 7.399s-12.92-2.47-17.86-7.399c-9.86-9.86-9.86-25.851 0-35.71l124.27-124.271-29.26-5.28c-10.6-1.91-16.99-11.02-16.99-20.39 0-5.12 1.9-10.32 6.06-14.48 4.9-4.9 11.92-7.01 18.7-5.63l85.56 17.42 13.58 86.59c.16 1.01.24 2.029.24 3.04 0 5.149-2.03 10.13-5.73 13.831-11.58 11.58-31.42 4.659-33.279-11.621l-3.17-27.77z" fill="#3256c1"/><path d="m59.16 135.483c-5.24 1.75-10.9-1.09-12.65-6.33-1.74-5.23 1.09-10.9 6.33-12.64 5.24-1.75 10.9 1.08 12.65 6.32 1.74 5.24-1.09 10.9-6.33 12.65z"/><path d="m446 76.003c0 11.04-8.95 20-20 20-11.04 0-20-8.96-20-20 0-11.05 8.96-20 20-20 11.05 0 20 8.95 20 20z" fill="#07cc66"/><path d="m349.16 65.483c-5.24 1.75-10.9-1.08-12.65-6.32-1.74-5.24 1.09-10.9 6.33-12.65s10.9 1.09 12.65 6.33c1.739 5.24-1.09 10.9-6.33 12.64z"/><path d="m139.16 55.483c-5.24 1.75-10.9-1.08-12.65-6.32-1.74-5.24 1.09-10.9 6.33-12.65s10.9 1.09 12.65 6.33c1.74 5.24-1.09 10.9-6.33 12.64z"/><path d="m246 425.993c-99.252 0-180-80.743-180-179.99 0-99.252 80.748-180 180-180s180 80.748 180 180c0 99.247-80.748 179.99-180 179.99zm0-339.99c-88.224 0-160 71.776-160 160 0 88.219 71.776 159.99 160 159.99s160-71.771 160-159.99c0-88.224-71.776-160-160-160z"/><path d="m171.7 359.573c-9.403 0-18.254-3.665-24.923-10.321-6.665-6.665-10.332-15.518-10.332-24.934s3.667-18.269 10.324-24.926l110.752-110.752-10.447-1.886c-14.609-2.632-25.214-15.347-25.214-30.231 0-8.101 3.192-15.754 8.988-21.551 5.788-5.787 13.479-8.974 21.657-8.974 2.046 0 4.102.208 6.108.616l85.561 17.42c4.094.833 7.237 4.123 7.885 8.25l13.58 86.59c.238 1.508.36 3.057.36 4.589 0 7.895-3.075 15.318-8.659 20.902-5.6 5.6-12.984 8.684-20.794 8.684-15.104 0-27.783-11.28-29.492-26.241l-.819-7.177-109.604 109.613c-6.677 6.664-15.528 10.329-24.931 10.329zm80.806-213.575c-2.836 0-5.505 1.107-7.515 3.116-2.587 2.587-3.13 5.457-3.13 7.409 0 4.32 2.742 9.464 8.763 10.549l29.262 5.281c3.663.661 6.655 3.301 7.768 6.853s.159 7.427-2.473 10.059l-124.269 124.27c-2.88 2.88-4.466 6.709-4.466 10.783s1.586 7.904 4.466 10.784c2.886 2.881 6.72 4.471 10.789 4.471s7.902-1.59 10.796-4.478l124.252-124.263c2.714-2.715 6.741-3.636 10.367-2.371 3.624 1.265 6.204 4.493 6.64 8.307l3.17 27.771c.638 5.586 5.323 8.509 9.621 8.509 1.745 0 4.316-.49 6.651-2.826 1.807-1.806 2.802-4.206 2.802-6.759 0-.49-.04-.987-.117-1.478l-12.506-79.739-78.752-16.034c-.697-.142-1.41-.214-2.119-.214z"/><path d="m426 106.003c-16.542 0-30-13.458-30-30s13.458-30 30-30 30 13.458 30 30-13.458 30-30 30zm0-40c-5.515 0-10 4.486-10 10s4.485 10 10 10c5.514 0 10-4.486 10-10s-4.486-10-10-10z"/><path d="m96 476.004c-22.056 0-40-17.944-40-40s17.944-40 40-40 40 17.944 40 40-17.944 40-40 40zm0-60c-11.028 0-20 8.972-20 20s8.972 20 20 20 20-8.972 20-20-8.972-20-20-20z"/></g></g></svg>