<svg enable-background="new 0 0 512 512" height="512" viewBox="0 0 512 512" width="512" xmlns="http://www.w3.org/2000/svg"><g id="_x31_003_x2C__Arrow_x2C__Left_x2C__Direction"><g><path d="m345.99 56c13.8 0 25 11.19 25 25s-11.2 25-25 25c-13.811 0-25-11.19-25-25s11.19-25 25-25z" fill="#07cc66"/><circle cx="240.99" cy="416" fill="#07cc66" r="40"/><path d="m340.99 166 140 170-145.82-72.05-171.53 45.34v-170z" fill="#bce4ff"/><path d="m163.64 309.29v55.29l-132.65-140 132.65-140v54.71z" fill="#d94556"/><path d="m464.15 156.51c5.239 1.75 8.069 7.41 6.319 12.65s-7.41 8.07-12.649 6.32c-5.24-1.74-8.07-7.41-6.32-12.65 1.74-5.23 7.41-8.07 12.65-6.32z"/><path d="m374.15 376.52c5.239 1.74 8.069 7.41 6.319 12.65-1.75 5.23-7.41 8.07-12.649 6.32-5.24-1.75-8.07-7.41-6.32-12.65 1.74-5.24 7.41-8.07 12.65-6.32z"/><path d="m244.15 56.52c5.239 1.74 8.069 7.41 6.33 12.65-1.75 5.23-7.41 8.07-12.65 6.32s-8.07-7.41-6.33-12.65c1.75-5.24 7.41-8.07 12.65-6.32z"/><path d="m84.15 376.52c5.239 1.74 8.069 7.41 6.33 12.65-1.75 5.23-7.41 8.07-12.65 6.32s-8.07-7.41-6.33-12.65c1.75-5.24 7.41-8.07 12.65-6.32z"/><path d="m69.15 86.51c5.239 1.75 8.069 7.41 6.319 12.65s-7.41 8.07-12.649 6.33c-5.24-1.75-8.07-7.41-6.32-12.65 1.74-5.24 7.41-8.07 12.65-6.33z"/><path d="m163.643 374.58c-2.694 0-5.335-1.089-7.262-3.122l-132.65-140c-3.654-3.857-3.654-9.899 0-13.756l132.65-140c2.815-2.972 7.158-3.927 10.961-2.412 3.803 1.516 6.298 5.196 6.298 9.29v54.71c0 5.523-4.477 10-10 10-5.522 0-10-4.477-10-10v-29.617l-108.874 114.907 108.874 114.906v-30.196c0-5.522 4.478-10 10-10 5.523 0 10 4.478 10 10v55.29c0 4.094-2.495 7.774-6.298 9.289-1.201.48-2.456.711-3.699.711z"/><path d="m480.985 346.001c-1.498 0-3.011-.337-4.425-1.036l-142.459-70.389-167.906 44.382c-3 .792-6.198.147-8.656-1.745-2.459-1.893-3.899-4.82-3.899-7.923v-170c0-2.912 1.27-5.68 3.477-7.579s5.133-2.742 8.013-2.31l177.351 26.71c2.441.368 4.66 1.626 6.229 3.532l139.654 169.58c1.644 1.782 2.646 4.162 2.646 6.777 0 5.443-4.35 9.871-9.763 9.997-.087.003-.175.004-.262.004zm-145.815-92.051c1.525 0 3.042.349 4.43 1.035l104.061 51.417-107.952-131.085-162.069-24.408v145.395l158.975-42.021c.84-.223 1.698-.333 2.555-.333z"/><path d="m240.99 466c-27.57 0-50-22.43-50-50s22.43-50 50-50 50 22.43 50 50-22.429 50-50 50zm0-80c-16.542 0-30 13.458-30 30s13.458 30 30 30 30-13.458 30-30-13.458-30-30-30z"/><path d="m345.99 116c-19.299 0-35-15.701-35-35s15.701-35 35-35 35 15.701 35 35-15.701 35-35 35zm0-50c-8.271 0-15 6.729-15 15s6.729 15 15 15 15-6.729 15-15-6.729-15-15-15z"/></g></g></svg>