<svg enable-background="new 0 0 512 512" height="512" viewBox="0 0 512 512" width="512" xmlns="http://www.w3.org/2000/svg"><g id="_x31_004_x2C__Arrow_x2C__Right_x2C__Direction"><g><path d="m171 166-140 170 145.82-72.05 171.53 45.34v-170z" fill="#bce4ff"/><path d="m47.84 156.51c-5.24 1.75-8.07 7.41-6.32 12.65s7.41 8.07 12.65 6.32c5.24-1.74 8.07-7.41 6.32-12.65-1.74-5.23-7.41-8.07-12.65-6.32z"/><path d="m137.84 376.52c-5.24 1.74-8.07 7.41-6.32 12.65 1.75 5.23 7.41 8.07 12.65 6.32s8.07-7.41 6.32-12.65c-1.74-5.24-7.41-8.07-12.65-6.32z"/><path d="m166 56c-13.8 0-25 11.19-25 25s11.2 25 25 25c13.81 0 25-11.19 25-25s-11.19-25-25-25z" fill="#07cc66"/><circle cx="271" cy="416" fill="#07cc66" r="40"/><path d="m267.84 56.52c-5.24 1.74-8.07 7.41-6.33 12.65 1.75 5.23 7.41 8.07 12.65 6.32s8.07-7.41 6.33-12.65c-1.75-5.24-7.41-8.07-12.65-6.32z"/><path d="m348.35 309.29v55.29l132.65-140-132.65-140v54.71z" fill="#d94556"/><path d="m427.84 376.52c-5.24 1.74-8.07 7.41-6.33 12.65 1.75 5.23 7.41 8.07 12.65 6.32s8.07-7.41 6.33-12.65c-1.75-5.24-7.41-8.07-12.65-6.32z"/><path d="m442.84 86.51c-5.24 1.75-8.07 7.41-6.32 12.65s7.41 8.07 12.65 6.33c5.24-1.75 8.07-7.41 6.32-12.65-1.74-5.24-7.41-8.07-12.65-6.33z"/><path d="m348.348 374.58c-1.244 0-2.498-.231-3.699-.711-3.803-1.515-6.299-5.195-6.299-9.289v-55.29c0-5.522 4.478-10 10-10 5.523 0 10 4.478 10 10v30.196l108.875-114.906-108.875-114.907v29.617c0 5.523-4.477 10-10 10-5.522 0-10-4.477-10-10v-54.71c0-4.094 2.496-7.774 6.299-9.29 3.805-1.516 8.146-.56 10.961 2.412l132.65 140c3.654 3.857 3.654 9.899 0 13.756l-132.65 140c-1.926 2.033-4.569 3.122-7.262 3.122z"/><path d="m31.004 346.001c-2.977 0-5.892-1.33-7.84-3.788-2.929-3.693-2.88-8.931.117-12.57l140-170c1.569-1.906 3.789-3.164 6.23-3.532l177.351-26.71c2.881-.433 5.805.41 8.012 2.31s3.477 4.667 3.477 7.579v170c0 3.103-1.439 6.03-3.898 7.923s-5.658 2.537-8.656 1.745l-167.906-44.382-142.461 70.389c-1.414.699-2.928 1.036-4.426 1.036zm145.277-170.684-107.951 131.084 104.06-51.417c2.167-1.071 4.649-1.321 6.985-.703l158.974 42.021v-145.393z"/><path d="m271 466c-27.57 0-50-22.43-50-50s22.43-50 50-50 50 22.43 50 50-22.43 50-50 50zm0-80c-16.542 0-30 13.458-30 30s13.458 30 30 30 30-13.458 30-30-13.458-30-30-30z"/><path d="m166 116c-19.299 0-35-15.701-35-35s15.701-35 35-35 35 15.701 35 35-15.701 35-35 35zm0-50c-8.271 0-15 6.729-15 15s6.729 15 15 15 15-6.729 15-15-6.729-15-15-15z"/></g></g></svg>