<svg enable-background="new 0 0 512 512" height="512" viewBox="0 0 512 512" width="512" xmlns="http://www.w3.org/2000/svg"><g id="_x31_005_x2C__Arrow_x2C__Left_x2C__Direction_x2C__Down"><g><path d="m346 171-170-140 72.05 145.82-45.34 171.53h170z" fill="#bce4ff"/><path d="m355.49 47.84c-1.75-5.24-7.41-8.07-12.65-6.32s-8.07 7.41-6.32 12.65c1.74 5.24 7.41 8.07 12.65 6.32 5.23-1.74 8.07-7.41 6.32-12.65z"/><path d="m135.48 137.84c-1.74-5.24-7.41-8.07-12.65-6.32-5.23 1.75-8.07 7.41-6.32 12.65s7.41 8.07 12.65 6.32c5.24-1.74 8.07-7.41 6.32-12.65z"/><path d="m456 166c0-13.8-11.189-25-25-25s-25 11.2-25 25c0 13.81 11.189 25 25 25s25-11.19 25-25z" fill="#07cc66"/><circle cx="96" cy="271" fill="#07cc66" r="40"/><path d="m455.48 267.84c-1.74-5.24-7.41-8.069-12.65-6.33-5.23 1.75-8.07 7.41-6.32 12.65s7.41 8.07 12.65 6.33c5.24-1.75 8.07-7.41 6.32-12.65z"/><path d="m202.71 348.35h-55.29l140 132.65 140-132.65h-54.71z" fill="#d94556"/><path d="m135.48 427.84c-1.74-5.24-7.41-8.069-12.65-6.33-5.23 1.75-8.07 7.41-6.32 12.65s7.41 8.07 12.65 6.33c5.24-1.75 8.07-7.41 6.32-12.65z"/><path d="m425.49 442.84c-1.75-5.24-7.41-8.069-12.65-6.319s-8.07 7.409-6.33 12.649c1.75 5.24 7.41 8.07 12.65 6.32 5.24-1.74 8.07-7.41 6.33-12.65z"/><path d="m287.42 491c-2.475 0-4.949-.914-6.878-2.741l-140-132.65c-2.972-2.815-3.927-7.158-2.412-10.961s5.196-6.298 9.29-6.298h55.29c5.523 0 10 4.478 10 10s-4.477 10-10 10h-30.197l114.907 108.874 114.906-108.874h-29.616c-5.522 0-10-4.478-10-10s4.478-10 10-10h54.71c4.094 0 7.773 2.495 9.289 6.298s.561 8.146-2.411 10.961l-140 132.65c-1.929 1.827-4.403 2.741-6.878 2.741z"/><path d="m372.73 358.35c-.008 0-.014 0-.021 0h-170c-3.103 0-6.03-1.44-7.923-3.899-1.893-2.458-2.538-5.656-1.745-8.656l44.382-167.905-70.388-142.46c-2.088-4.226-.941-9.337 2.752-12.266s8.931-2.88 12.57.117l170 140c1.905 1.569 3.164 3.789 3.531 6.23l26.612 176.699c.15.689.23 1.405.23 2.14 0 5.522-4.477 10-10 10zm-157.033-20h145.395l-24.409-162.068-131.084-107.952 51.417 104.061c1.07 2.167 1.32 4.648.702 6.985z"/><path d="m96 321c-27.57 0-50-22.43-50-50s22.43-50 50-50 50 22.43 50 50-22.43 50-50 50zm0-80c-16.542 0-30 13.458-30 30s13.458 30 30 30 30-13.458 30-30-13.458-30-30-30z"/><path d="m431 201c-19.299 0-35-15.701-35-35s15.701-35 35-35 35 15.701 35 35-15.701 35-35 35zm0-50c-8.271 0-15 6.729-15 15s6.729 15 15 15 15-6.729 15-15-6.729-15-15-15z"/></g></g></svg>