<svg enable-background="new 0 0 512 512" height="512" viewBox="0 0 512 512" width="512" xmlns="http://www.w3.org/2000/svg"><g id="_x31_006_x2C__Arrow_x2C__Right_x2C__Up"><g><path d="m346 341-170 140 72.05-145.819-45.34-171.531h170z" fill="#bce4ff"/><path d="m355.49 464.16c-1.75 5.24-7.41 8.07-12.65 6.32s-8.07-7.41-6.32-12.65c1.74-5.24 7.41-8.07 12.65-6.32 5.23 1.74 8.07 7.41 6.32 12.65z"/><path d="m135.48 374.16c-1.74 5.24-7.41 8.07-12.65 6.32-5.23-1.75-8.07-7.41-6.32-12.65s7.41-8.07 12.65-6.32c5.24 1.74 8.07 7.41 6.32 12.65z"/><path d="m456 346c0 13.8-11.189 25-25 25s-25-11.2-25-25c0-13.81 11.189-25 25-25s25 11.19 25 25z" fill="#07cc66"/><circle cx="96" cy="241" fill="#07cc66" r="40"/><path d="m455.48 244.16c-1.74 5.24-7.41 8.07-12.65 6.33-5.23-1.75-8.07-7.41-6.32-12.65s7.41-8.07 12.65-6.33c5.24 1.75 8.07 7.41 6.32 12.65z"/><path d="m202.71 163.65h-55.29l140-132.65 140 132.65h-54.71z" fill="#d94556"/><path d="m135.48 84.16c-1.74 5.24-7.41 8.07-12.65 6.33-5.23-1.75-8.07-7.41-6.32-12.65s7.41-8.07 12.65-6.33c5.24 1.75 8.07 7.41 6.32 12.65z"/><path d="m425.49 69.16c-1.75 5.24-7.41 8.07-12.65 6.32s-8.07-7.41-6.33-12.65c1.75-5.24 7.41-8.07 12.65-6.32 5.24 1.74 8.07 7.41 6.33 12.65z"/><path d="m427.42 173.65h-54.71c-5.522 0-10-4.477-10-10s4.478-10 10-10h29.616l-114.906-108.874-114.907 108.874h30.197c5.523 0 10 4.477 10 10s-4.477 10-10 10h-55.29c-4.094 0-7.774-2.495-9.29-6.298s-.56-8.146 2.412-10.961l140.001-132.65c3.855-3.654 9.898-3.654 13.756 0l139.999 132.651c2.972 2.815 3.927 7.158 2.411 10.961-1.516 3.802-5.195 6.297-9.289 6.297z"/><path d="m176 491c-2.195 0-4.391-.721-6.212-2.164-3.694-2.929-4.841-8.04-2.752-12.266l70.39-142.459-44.382-167.905c-.793-3-.148-6.198 1.745-8.657s4.82-3.899 7.923-3.899h170c2.912 0 5.68 1.27 7.579 3.477 1.9 2.208 2.743 5.133 2.31 8.013l-26.71 177.35c-.367 2.441-1.626 4.66-3.531 6.23l-170 140c-1.848 1.518-4.103 2.28-6.36 2.28zm39.697-317.35 42.022 158.975c.617 2.337.367 4.818-.703 6.985l-51.417 104.06 131.083-107.951 24.409-162.068h-145.394z"/><path d="m96 291c-27.57 0-50-22.43-50-50s22.43-50 50-50 50 22.43 50 50-22.43 50-50 50zm0-80c-16.542 0-30 13.458-30 30s13.458 30 30 30 30-13.458 30-30-13.458-30-30-30z"/><path d="m431 381c-19.299 0-35-15.701-35-35s15.701-35 35-35 35 15.701 35 35-15.701 35-35 35zm0-50c-8.271 0-15 6.729-15 15s6.729 15 15 15 15-6.729 15-15-6.729-15-15-15z"/></g></g></svg>