<svg enable-background="new 0 0 512 512" height="512" viewBox="0 0 512 512" width="512" xmlns="http://www.w3.org/2000/svg"><g id="_x31_007_x2C__Arrows_x2C__Repeat_x2C__Watch_kit"><g><path d="m325.991 441c11.05 0 20 8.95 20 20s-8.95 20-20 20c-11.04 0-20-8.95-20-20s8.96-20 20-20z" fill="#f88f19"/><circle cx="225.991" cy="61" fill="#f88f19" r="30"/><path d="m475.991 351-65.95 90-74.05-90h40 60z" fill="#3256c1"/><path d="m110.041 61 65.96 90h-40.01-60-39.99z" fill="#3256c1"/><path d="m435.991 186v165h-60v-165c0-12.42-5.04-23.68-13.18-31.82-8.141-8.14-19.4-13.18-31.82-13.18-24.85 0-45 20.15-45 45v150c0 29-11.75 55.24-30.75 74.25-19.01 19-45.25 30.75-74.25 30.75-57.99 0-105-47.01-105-105v-185h60v185c0 12.42 5.04 23.68 13.18 31.82s19.4 13.18 31.82 13.18c24.85 0 45-20.15 45-45v-150c0-29 11.75-55.24 30.75-74.25 19.01-19 45.25-30.75 74.25-30.75 57.99 0 105 47.01 105 105z" fill="#5cbeff"/><path d="m479.161 271.52c5.24 1.74 8.07 7.41 6.32 12.65-1.75 5.23-7.41 8.07-12.65 6.32s-8.069-7.41-6.319-12.65c1.739-5.24 7.409-8.07 12.649-6.32z"/><path d="m409.161 51.51c5.24 1.75 8.07 7.41 6.32 12.65-1.74 5.24-7.41 8.07-12.65 6.33-5.229-1.75-8.069-7.41-6.319-12.65s7.409-8.07 12.649-6.33z"/><path d="m259.161 451.51c5.24 1.75 8.07 7.41 6.32 12.65s-7.41 8.07-12.65 6.32c-5.24-1.74-8.07-7.41-6.32-12.65 1.74-5.23 7.41-8.07 12.65-6.32z"/><path d="m59.161 41.51c5.24 1.75 8.07 7.41 6.32 12.65s-7.41 8.07-12.65 6.32c-5.24-1.74-8.07-7.41-6.32-12.64 1.74-5.24 7.41-8.08 12.65-6.33z"/><path d="m59.161 421.52c5.24 1.74 8.07 7.41 6.32 12.65-1.75 5.23-7.41 8.07-12.65 6.32s-8.07-7.41-6.32-12.65c1.74-5.24 7.41-8.07 12.65-6.32z"/><path d="m180.991 451c-63.411 0-115-51.589-115-115v-185c0-5.523 4.477-10 10-10s10 4.477 10 10v185c0 52.383 42.617 95 95 95 25.371 0 49.229-9.881 67.181-27.823 17.938-17.947 27.819-41.806 27.819-67.177v-150c0-30.327 24.673-55 55-55 14.691 0 28.503 5.721 38.892 16.109 10.388 10.388 16.108 24.199 16.108 38.891v165c0 5.522-4.477 10-10 10-5.522 0-10-4.478-10-10v-165c0-9.349-3.641-18.139-10.251-24.749-6.61-6.611-15.4-10.251-24.749-10.251-19.299 0-35 15.701-35 35v150c0 30.711-11.96 59.591-33.677 81.319-21.732 21.721-50.612 33.681-81.323 33.681z"/><path d="m180.991 391c-14.691 0-28.503-5.721-38.891-16.108-10.388-10.39-16.109-24.201-16.109-38.892v-185c0-5.523 4.477-10 10-10s10 4.477 10 10v185c0 9.349 3.641 18.139 10.251 24.75 6.61 6.609 15.4 10.25 24.749 10.25 19.299 0 35-15.701 35-35v-150c0-30.711 11.96-59.591 33.677-81.319 21.732-21.721 50.612-33.681 81.323-33.681 63.411 0 115 51.589 115 115v165c0 5.522-4.477 10-10 10-5.522 0-10-4.478-10-10v-165c0-52.383-42.616-95-95-95-25.371 0-49.229 9.881-67.181 27.823-17.938 17.948-27.819 41.806-27.819 67.177v150c0 30.327-24.673 55-55 55z"/><path d="m410.041 451c-2.985 0-5.819-1.334-7.722-3.646l-74.05-90c-2.458-2.987-2.973-7.125-1.32-10.623 1.651-3.499 5.174-5.73 9.042-5.73h140c3.768 0 7.216 2.118 8.92 5.479 1.703 3.36 1.373 7.394-.854 10.433l-65.95 90c-1.825 2.49-4.699 3.998-7.786 4.085-.093.001-.187.002-.28.002zm-52.872-90 52.415 63.705 46.683-63.705z"/><path d="m176.001 161h-140c-3.869 0-7.391-2.231-9.042-5.73-1.652-3.498-1.138-7.635 1.32-10.623l74.04-90c1.961-2.385 4.906-3.722 8.002-3.643 3.087.086 5.96 1.594 7.786 4.085l65.96 90c2.227 3.039 2.557 7.072.854 10.433s-5.152 5.478-8.92 5.478zm-118.824-20h99.097l-46.689-63.706z"/><path d="m225.991 101c-22.056 0-40-17.944-40-40s17.944-40 40-40 40 17.944 40 40-17.944 40-40 40zm0-60c-11.028 0-20 8.972-20 20s8.972 20 20 20 20-8.972 20-20-8.972-20-20-20z"/><path d="m325.991 491c-16.542 0-30-13.458-30-30s13.458-30 30-30 30 13.458 30 30-13.458 30-30 30zm0-40c-5.514 0-10 4.486-10 10s4.486 10 10 10c5.515 0 10-4.486 10-10s-4.485-10-10-10z"/></g></g></svg>