<svg enable-background="new 0 0 512 512" height="512" viewBox="0 0 512 512" width="512" xmlns="http://www.w3.org/2000/svg"><g id="_x31_008_x2C__Arrows_x2C__Repeat_x2C__Watch_kit"><g><path d="m240.48 32.839c-1.74-5.24-7.41-8.07-12.65-6.32-5.23 1.75-8.07 7.41-6.32 12.65s7.41 8.07 12.65 6.32c5.24-1.74 8.07-7.41 6.32-12.65z"/><path d="m161 36.009-90 65.95 90 74.05v-40-60z" fill="#3256c1"/><path d="m326 76.009h-165v60h165c12.42 0 23.68 5.04 31.82 13.18s13.18 19.4 13.18 31.82c0 24.85-20.15 45-45 45h-150c-29 0-55.24 11.75-74.25 30.75-19 19.011-30.75 45.25-30.75 74.25 0 57.99 47.01 105 105 105h185v-60h-185c-12.42 0-23.68-5.04-31.82-13.18s-13.18-19.4-13.18-31.82c0-24.85 20.15-45 45-45h150c29 0 55.24-11.75 74.25-30.75 19-19.01 30.75-45.25 30.75-74.25 0-57.99-47.01-105-105-105z" fill="#5cbeff"/><path d="m460.49 102.839c-1.75-5.24-7.41-8.07-12.65-6.32-5.24 1.74-8.07 7.41-6.33 12.65 1.75 5.23 7.41 8.07 12.65 6.32s8.07-7.41 6.33-12.65z"/><path d="m71 186.009c0-11.05-8.95-20-20-20s-20 8.95-20 20c0 11.04 8.95 20 20 20s20-8.96 20-20z" fill="#f88f19"/><path d="m60.49 252.839c-1.75-5.24-7.41-8.07-12.65-6.32s-8.07 7.41-6.32 12.65c1.74 5.24 7.41 8.07 12.65 6.32 5.23-1.74 8.07-7.41 6.32-12.65z"/><circle cx="451" cy="286.009" fill="#f88f19" r="30"/><path d="m451 401.959-90-65.96v40.01 60 39.99z" fill="#3256c1"/><path d="m470.49 452.839c-1.75-5.24-7.41-8.069-12.65-6.319s-8.07 7.409-6.32 12.649c1.74 5.24 7.41 8.07 12.641 6.32 5.239-1.74 8.079-7.41 6.329-12.65z"/><path d="m90.48 452.839c-1.74-5.24-7.41-8.069-12.65-6.319-5.23 1.75-8.07 7.409-6.32 12.649s7.41 8.07 12.65 6.32c5.24-1.74 8.07-7.41 6.32-12.65z"/><path d="m361 446.009h-185c-63.411 0-115-51.589-115-115 0-30.71 11.96-59.59 33.677-81.319 21.732-21.721 50.612-33.681 81.323-33.681h150c19.299 0 35-15.701 35-35 0-9.349-3.641-18.139-10.252-24.749-6.609-6.61-15.399-10.251-24.748-10.251h-165c-5.523 0-10-4.477-10-10s4.477-10 10-10h165c14.691 0 28.502 5.721 38.891 16.108 10.389 10.388 16.109 24.2 16.109 38.892 0 30.327-24.673 55-55 55h-150c-25.371 0-49.229 9.881-67.181 27.823-17.938 17.948-27.819 41.807-27.819 67.177 0 52.383 42.617 95 95 95h185c5.523 0 10 4.478 10 10s-4.477 10-10 10z"/><path d="m361 386.009h-185c-14.691 0-28.503-5.721-38.891-16.108s-16.109-24.201-16.109-38.892c0-30.327 24.673-55 55-55h150c25.371 0 49.229-9.881 67.181-27.823 17.938-17.948 27.819-41.806 27.819-67.177 0-52.383-42.617-95-95-95h-165c-5.523 0-10-4.477-10-10s4.477-10 10-10h165c63.411 0 115 51.589 115 115 0 30.711-11.96 59.59-33.678 81.319-21.732 21.721-50.611 33.681-81.322 33.681h-150c-19.299 0-35 15.701-35 35 0 9.35 3.641 18.139 10.251 24.749s15.4 10.251 24.749 10.251h185c5.523 0 10 4.478 10 10s-4.477 10-10 10z"/><path d="m161.001 186.009c-2.275 0-4.53-.776-6.355-2.278l-90-74.05c-2.385-1.962-3.729-4.916-3.643-8.002s1.595-5.96 4.085-7.786l90-65.95c3.039-2.227 7.072-2.558 10.433-.853 3.36 1.704 5.478 5.152 5.478 8.919v140c0 3.869-2.231 7.391-5.73 9.042-1.36.643-2.818.958-4.268.958zm-73.707-83.593 63.706 52.416v-99.098z"/><path d="m360.998 485.999c-1.449 0-2.906-.314-4.268-.958-3.499-1.651-5.73-5.173-5.73-9.042v-140c0-3.768 2.117-7.216 5.479-8.92 3.359-1.703 7.394-1.374 10.433.854l90 65.96c2.491 1.825 3.999 4.699 4.085 7.786.086 3.086-1.258 6.04-3.643 8.002l-90 74.04c-1.826 1.502-4.081 2.278-6.356 2.278zm10.002-130.273v99.098l63.705-52.408z"/><path d="m451 326.009c-22.057 0-40-17.944-40-40s17.943-40 40-40 40 17.944 40 40-17.943 40-40 40zm0-60c-11.027 0-20 8.972-20 20s8.973 20 20 20 20-8.972 20-20-8.973-20-20-20z"/><path d="m51 216.009c-16.542 0-30-13.458-30-30s13.458-30 30-30 30 13.458 30 30-13.458 30-30 30zm0-40c-5.514 0-10 4.486-10 10s4.486 10 10 10 10-4.486 10-10-4.486-10-10-10z"/></g></g></svg>