<svg enable-background="new 0 0 512 512" height="512" viewBox="0 0 512 512" width="512" xmlns="http://www.w3.org/2000/svg"><g id="_x31_009_x2C__Refresh_x2C__Reload_x2C__Right_Arrow_x2C__Down"><g><circle cx="405.102" cy="96.001" fill="#bce4ff" r="30"/><path d="m170.102 386.001c13.81 0 25 11.19 25 25s-11.19 25-25 25-25-11.19-25-25 11.19-25 25-25z" fill="#bce4ff"/><path d="m455.102 316.001-83.05 89.2-76.95-89.2h50 59.679z" fill="#f88f19"/><path d="m404.781 316.001h-59.68c-25.12-75.53-96.35-130-180.32-130-44.54 0-85.5 15.33-117.89 41 31.91-60.08 95.12-101 167.89-101 104.93 0 190 85.07 190 190z" fill="#ffec6c"/><path d="m468.271 176.521c5.24 1.74 8.069 7.41 6.319 12.65-1.75 5.23-7.409 8.07-12.649 6.32s-8.07-7.41-6.32-12.65c1.74-5.24 7.41-8.07 12.65-6.32z"/><path d="m318.262 436.511c5.239 1.75 8.069 7.41 6.329 12.65-1.75 5.24-7.409 8.07-12.649 6.32-5.24-1.74-8.07-7.41-6.33-12.65 1.749-5.23 7.409-8.07 12.65-6.32z"/><path d="m268.262 56.521c5.239 1.74 8.069 7.41 6.329 12.65-1.75 5.23-7.409 8.07-12.649 6.32s-8.07-7.41-6.33-12.65c1.749-5.24 7.409-8.07 12.65-6.32z"/><path d="m178.271 316.511c5.24 1.75 8.07 7.41 6.32 12.65s-7.41 8.07-12.65 6.32c-5.24-1.74-8.07-7.41-6.32-12.65 1.74-5.23 7.411-8.07 12.65-6.32z"/><path d="m98.271 76.521c5.24 1.74 8.07 7.41 6.32 12.65-1.75 5.23-7.41 8.07-12.65 6.32s-8.07-7.41-6.32-12.65c1.74-5.24 7.411-8.07 12.65-6.32z"/><path d="m345.1 326.004c-4.189 0-8.093-2.653-9.487-6.847-24.499-73.664-93.151-123.156-170.831-123.156-41.002 0-79.62 13.43-111.679 38.837-3.709 2.939-8.974 2.875-12.61-.153-3.638-3.029-4.653-8.194-2.432-12.375 34.828-65.574 102.544-106.309 176.722-106.309 110.28 0 200 89.72 200 200 0 5.522-4.477 10-10 10-5.522 0-10-4.478-10-10 0-99.252-80.747-180-180-180-50.796 0-98.227 21.226-131.815 57.377 25.449-11.451 53.105-17.377 81.815-17.377 86.308 0 162.586 54.994 189.808 136.844 1.743 5.241-1.092 10.902-6.333 12.646-1.048.347-2.112.513-3.158.513z"/><path d="m372.052 415.201c-.063 0-.126-.001-.189-.002-2.842-.054-5.526-1.314-7.383-3.466l-76.95-89.2c-2.555-2.962-3.148-7.141-1.52-10.696 1.628-3.556 5.181-5.836 9.092-5.836h160c3.979 0 7.58 2.36 9.169 6.009 1.588 3.649.861 7.893-1.851 10.806l-83.05 89.2c-1.893 2.033-4.546 3.185-7.318 3.185zm-55.117-89.2 55.401 64.22 59.792-64.22z"/><path d="m405.102 136.001c-22.057 0-40-17.944-40-40s17.943-40 40-40c22.056 0 40 17.944 40 40s-17.945 40-40 40zm0-60c-11.028 0-20 8.972-20 20s8.972 20 20 20c11.027 0 20-8.972 20-20s-8.973-20-20-20z"/><path d="m170.102 446.001c-19.299 0-35-15.701-35-35s15.701-35 35-35 35 15.701 35 35-15.702 35-35 35zm0-50c-8.271 0-15 6.729-15 15s6.729 15 15 15 15-6.729 15-15-6.729-15-15-15z"/></g></g></svg>