<svg enable-background="new 0 0 512 512" height="512" viewBox="0 0 512 512" width="512" xmlns="http://www.w3.org/2000/svg"><g id="_x31_010_x2C__Refresh_x2C__Reload_x2C__Right_Arrow_x2C__Down_Left"><g><path d="m43.729 176.521c-5.24 1.74-8.07 7.41-6.32 12.65 1.75 5.23 7.41 8.07 12.65 6.32s8.07-7.41 6.32-12.65c-1.74-5.24-7.411-8.07-12.65-6.32z"/><path d="m56.898 316.001 83.05 89.2 76.95-89.2h-50-59.68z" fill="#f88f19"/><circle cx="106.898" cy="96.001" fill="#bce4ff" r="30"/><path d="m107.218 316.001h59.68c25.12-75.53 96.351-130 180.32-130 44.54 0 85.5 15.33 117.89 41-31.91-60.08-95.12-101-167.89-101-104.929 0-190 85.07-190 190z" fill="#ffec6c"/><path d="m193.738 436.511c-5.24 1.75-8.07 7.41-6.33 12.65 1.75 5.24 7.41 8.07 12.65 6.32 5.24-1.74 8.07-7.41 6.33-12.65-1.749-5.23-7.409-8.07-12.65-6.32z"/><path d="m243.738 56.521c-5.24 1.74-8.07 7.41-6.33 12.65 1.75 5.23 7.41 8.07 12.65 6.32s8.07-7.41 6.33-12.65c-1.749-5.24-7.409-8.07-12.65-6.32z"/><path d="m341.898 386.001c-13.81 0-25 11.19-25 25s11.19 25 25 25c13.811 0 25-11.19 25-25s-11.189-25-25-25z" fill="#bce4ff"/><path d="m333.729 316.511c-5.24 1.75-8.069 7.41-6.319 12.65s7.409 8.07 12.649 6.32c5.24-1.74 8.07-7.41 6.32-12.65-1.74-5.23-7.41-8.07-12.65-6.32z"/><path d="m413.729 76.521c-5.24 1.74-8.069 7.41-6.319 12.65 1.75 5.23 7.409 8.07 12.649 6.32s8.07-7.41 6.32-12.65c-1.74-5.24-7.41-8.07-12.65-6.32z"/><path d="m166.9 326.004c-1.046 0-2.11-.166-3.157-.514-5.241-1.743-8.076-7.404-6.333-12.646 27.222-81.85 103.5-136.844 189.809-136.844 28.71 0 56.366 5.926 81.814 17.377-33.588-36.151-81.019-57.377-131.814-57.377-99.253 0-180 80.748-180 180 0 5.522-4.477 10-10 10s-10-4.478-10-10c0-110.28 89.72-200 200-200 74.178 0 141.894 40.735 176.722 106.309 2.221 4.181 1.205 9.346-2.433 12.375-3.637 3.029-8.9 3.093-12.61.153-32.059-25.408-70.677-38.837-111.679-38.837-77.68 0-146.332 49.493-170.832 123.156-1.394 4.195-5.298 6.848-9.487 6.848z"/><path d="m139.948 415.201c-2.773 0-5.425-1.152-7.318-3.186l-83.05-89.2c-2.712-2.913-3.438-7.156-1.85-10.806 1.588-3.648 5.189-6.009 9.169-6.009h160c3.911 0 7.463 2.28 9.092 5.836s1.035 7.734-1.52 10.696l-76.95 89.2c-1.856 2.151-4.541 3.412-7.382 3.466-.065.002-.128.003-.191.003zm-60.076-89.2 59.792 64.22 55.401-64.22z"/><path d="m106.898 136.001c-22.056 0-40-17.944-40-40s17.944-40 40-40 40 17.944 40 40-17.943 40-40 40zm0-60c-11.028 0-20 8.972-20 20s8.972 20 20 20 20-8.972 20-20-8.972-20-20-20z"/><path d="m341.898 446.001c-19.299 0-35-15.701-35-35s15.701-35 35-35 35 15.701 35 35-15.701 35-35 35zm0-50c-8.271 0-15 6.729-15 15s6.729 15 15 15 15-6.729 15-15-6.728-15-15-15z"/></g></g></svg>