<svg enable-background="new 0 0 512 512" height="512" viewBox="0 0 512 512" width="512" xmlns="http://www.w3.org/2000/svg"><g id="_x31_011_x2C__Arrow_x2C__Back_x2C__Left_Arrow"><g><path d="m335.479 43.729c-1.739-5.24-7.409-8.07-12.649-6.32-5.23 1.75-8.07 7.41-6.32 12.65s7.41 8.07 12.65 6.32c5.239-1.741 8.069-7.411 6.319-12.65z"/><path d="m195.999 56.898-89.2 83.05 89.2 76.95v-50-59.68z" fill="#f88f19"/><circle cx="415.999" cy="106.898" fill="#bce4ff" r="30"/><path d="m195.999 107.218v59.68c75.53 25.12 130 96.35 130 180.32 0 44.54-15.33 85.5-41 117.89 60.08-31.91 101-95.12 101-167.89 0-104.929-85.07-190-190-190z" fill="#ffec6c"/><path d="m75.489 193.738c-1.75-5.24-7.41-8.07-12.65-6.33-5.24 1.75-8.07 7.41-6.32 12.65 1.74 5.24 7.41 8.07 12.65 6.33 5.23-1.75 8.07-7.409 6.32-12.65z"/><path d="m455.479 243.738c-1.739-5.24-7.409-8.07-12.649-6.33-5.23 1.75-8.07 7.41-6.32 12.65s7.41 8.07 12.65 6.331c5.239-1.75 8.069-7.41 6.319-12.651z"/><path d="m125.999 341.898c0-13.811-11.19-25-25-25s-25 11.189-25 25c0 13.81 11.19 25 25 25s25-11.19 25-25z" fill="#bce4ff"/><path d="m195.489 333.729c-1.75-5.24-7.41-8.07-12.65-6.32s-8.07 7.41-6.32 12.65c1.74 5.24 7.41 8.069 12.65 6.319 5.23-1.739 8.07-7.409 6.32-12.649z"/><path d="m435.479 413.729c-1.739-5.24-7.409-8.07-12.649-6.32-5.23 1.75-8.07 7.41-6.32 12.65 1.75 5.239 7.41 8.069 12.65 6.319 5.239-1.739 8.069-7.409 6.319-12.649z"/><path d="m285.004 475.109c-2.894 0-5.735-1.256-7.689-3.602-3.029-3.638-3.093-8.9-.152-12.61 25.407-32.059 38.837-70.677 38.837-111.679 0-77.681-49.493-146.332-123.156-170.832-5.241-1.743-8.076-7.404-6.333-12.645 1.743-5.24 7.403-8.076 12.645-6.333 81.85 27.222 136.844 103.5 136.844 189.809 0 28.707-5.928 56.368-17.377 81.814 36.151-33.589 57.377-81.019 57.377-131.814 0-99.252-80.748-180-180-180-5.523 0-10-4.477-10-10s4.477-10 10-10c110.28 0 200 89.72 200 200 0 74.178-40.735 141.894-106.31 176.722-1.485.79-3.093 1.169-4.686 1.17z"/><path d="m196.001 226.898c-2.354 0-4.682-.831-6.534-2.428l-89.199-76.95c-2.152-1.856-3.413-4.541-3.466-7.382-.054-2.841 1.104-5.572 3.184-7.508l89.2-83.05c2.913-2.712 7.157-3.439 10.806-1.85 3.649 1.588 6.009 5.189 6.009 9.169v160c0 3.911-2.28 7.463-5.836 9.092-1.334.609-2.754.907-4.164.907zm-74.222-87.233 64.22 55.4v-115.192z"/><path d="m415.999 146.898c-22.057 0-40-17.944-40-40s17.943-40 40-40c22.056 0 40 17.944 40 40s-17.944 40-40 40zm0-60c-11.028 0-20 8.972-20 20s8.972 20 20 20c11.027 0 20-8.972 20-20s-8.973-20-20-20z"/><path d="m100.999 376.898c-19.299 0-35-15.701-35-35s15.701-35 35-35 35 15.701 35 35-15.701 35-35 35zm0-50c-8.271 0-15 6.729-15 15s6.729 15 15 15 15-6.729 15-15-6.729-15-15-15z"/></g></g></svg>