<svg enable-background="new 0 0 512 512" height="512" viewBox="0 0 512 512" width="512" xmlns="http://www.w3.org/2000/svg"><g id="_x31_012_x2C__Arrow_x2C__Back_x2C__Refresh"><g><path d="m176.521 43.728c1.74-5.24 7.41-8.07 12.65-6.32 5.23 1.75 8.07 7.41 6.32 12.65s-7.41 8.07-12.65 6.32c-5.24-1.74-8.07-7.41-6.32-12.65z"/><path d="m316.001 56.898 89.2 83.05-89.2 76.95v-50-59.68z" fill="#f88f19"/><circle cx="96.001" cy="106.898" fill="#bce4ff" r="30"/><path d="m316.001 107.218v59.68c-75.53 25.12-130 96.35-130 180.32 0 44.54 15.33 85.5 41 117.891-60.08-31.91-101-95.12-101-167.891 0-104.93 85.07-190 190-190z" fill="#ffec6c"/><path d="m436.512 193.738c1.75-5.24 7.409-8.07 12.649-6.33 5.24 1.75 8.07 7.41 6.32 12.65-1.74 5.24-7.41 8.07-12.65 6.33-5.229-1.75-8.069-7.41-6.319-12.65z"/><path d="m56.521 243.738c1.74-5.24 7.41-8.07 12.65-6.33 5.23 1.75 8.07 7.41 6.32 12.65s-7.41 8.07-12.65 6.33c-5.24-1.75-8.07-7.41-6.32-12.65z"/><path d="m386.001 341.898c0-13.811 11.19-25 25-25 13.811 0 25 11.189 25 25 0 13.81-11.189 25-25 25-13.81 0-25-11.19-25-25z" fill="#bce4ff"/><path d="m316.512 333.729c1.75-5.24 7.409-8.07 12.649-6.32s8.07 7.41 6.32 12.65c-1.74 5.239-7.41 8.069-12.65 6.319-5.229-1.74-8.069-7.41-6.319-12.649z"/><path d="m76.521 413.729c1.74-5.24 7.41-8.07 12.65-6.32 5.23 1.75 8.07 7.41 6.32 12.65-1.75 5.239-7.41 8.069-12.65 6.319-5.24-1.74-8.07-7.41-6.32-12.649z"/><path d="m226.996 475.109c-1.593 0-3.201-.381-4.686-1.169-65.574-34.828-106.309-102.545-106.309-176.723 0-110.28 89.72-200 200-200 5.523 0 10 4.477 10 10s-4.477 10-10 10c-99.252 0-180 80.748-180 180 0 50.797 21.227 98.228 57.377 131.815-11.451-25.448-17.377-53.105-17.377-81.815 0-86.309 54.994-162.586 136.845-189.809 5.24-1.744 10.901 1.092 12.645 6.333 1.743 5.24-1.093 10.902-6.333 12.645-73.664 24.5-123.156 93.151-123.156 170.831 0 41.002 13.43 79.62 38.837 111.68 2.94 3.71 2.876 8.973-.153 12.61-1.955 2.347-4.796 3.601-7.69 3.602z"/><path d="m315.999 226.898c-1.41 0-2.829-.298-4.162-.908-3.556-1.628-5.836-5.181-5.836-9.092v-160c0-3.98 2.36-7.581 6.009-9.169s7.893-.862 10.806 1.85l89.2 83.05c2.08 1.937 3.238 4.667 3.184 7.508-.054 2.842-1.313 5.526-3.466 7.382l-89.2 76.95c-1.852 1.598-4.18 2.429-6.535 2.429zm10.002-147.026v115.193l64.221-55.4z"/><path d="m96.001 146.898c-22.056 0-40-17.944-40-40s17.944-40 40-40 40 17.944 40 40-17.944 40-40 40zm0-60c-11.028 0-20 8.972-20 20s8.972 20 20 20 20-8.972 20-20-8.972-20-20-20z"/><path d="m411.001 376.898c-19.299 0-35-15.701-35-35s15.701-35 35-35 35 15.701 35 35-15.701 35-35 35zm0-50c-8.271 0-15 6.729-15 15s6.729 15 15 15 15-6.729 15-15-6.729-15-15-15z"/></g></g></svg>