<svg enable-background="new 0 0 512 512" height="512" viewBox="0 0 512 512" width="512" xmlns="http://www.w3.org/2000/svg"><g id="_x31_013_x2C__Arrow_x2C__Direction_x2C__Left"><g><path d="m315.996 61c11.05 0 20 8.95 20 20s-8.95 20-20 20c-11.04 0-20-8.95-20-20s8.96-20 20-20z" fill="#d94556"/><path d="m345.996 371c22.1 0 40 17.91 40 40s-17.9 40-40 40c-22.09 0-40-17.91-40-40s17.91-40 40-40z" fill="#d94556"/><path d="m165.996 301v50l-90-95 90-95v50z" fill="#163eb1"/><g fill="#5cbeff"><path d="m395.996 211h30v90h-30z"/><path d="m325.996 211h40v90h-40z"/><path d="m245.996 211h50v90h-50z"/><path d="m165.996 211h50v90h-50z"/></g><path d="m445.486 357.84c1.75 5.24-1.08 10.9-6.32 12.65s-10.899-1.09-12.649-6.32c-1.75-5.24 1.09-10.91 6.319-12.65 5.24-1.75 10.91 1.08 12.65 6.32z"/><path d="m405.486 117.83c1.74 5.24-1.09 10.91-6.33 12.65-5.24 1.75-10.9-1.08-12.65-6.32-1.739-5.24 1.09-10.9 6.33-12.65s10.9 1.09 12.65 6.32z"/><path d="m225.486 87.84c1.75 5.24-1.08 10.9-6.32 12.65s-10.899-1.09-12.649-6.33c-1.75-5.23 1.079-10.9 6.319-12.64 5.24-1.75 10.91 1.08 12.65 6.32z"/><path d="m205.486 417.83c1.75 5.24-1.08 10.91-6.32 12.65-5.24 1.75-10.899-1.08-12.649-6.32s1.079-10.9 6.319-12.65 10.91 1.09 12.65 6.32z"/><path d="m85.486 137.84c1.75 5.24-1.08 10.9-6.32 12.65s-10.899-1.09-12.649-6.33c-1.75-5.23 1.079-10.9 6.319-12.64 5.24-1.75 10.91 1.08 12.65 6.32z"/><path d="m85.486 387.84c1.75 5.24-1.08 10.9-6.32 12.65s-10.899-1.09-12.649-6.32c-1.75-5.24 1.079-10.91 6.319-12.65 5.24-1.75 10.91 1.08 12.65 6.32z"/><path d="m165.999 361c-2.694 0-5.336-1.089-7.263-3.122l-90-95c-3.653-3.857-3.653-9.898 0-13.755l90-95c2.815-2.971 7.159-3.927 10.962-2.412s6.298 5.196 6.298 9.29v50c0 5.523-4.477 10-10 10-5.522 0-10-4.477-10-10v-24.904l-66.225 69.903 66.225 69.904v-24.904c0-5.522 4.478-10 10-10 5.523 0 10 4.478 10 10v50c0 4.094-2.495 7.774-6.298 9.29-1.201.479-2.456.71-3.699.71z"/><path d="m215.996 311h-50c-5.522 0-10-4.478-10-10v-90c0-5.523 4.478-10 10-10h50c5.523 0 10 4.477 10 10v90c0 5.522-4.476 10-10 10zm-40-20h30v-70h-30z"/><path d="m295.996 311h-50c-5.522 0-10-4.478-10-10v-90c0-5.523 4.478-10 10-10h50c5.523 0 10 4.477 10 10v90c0 5.522-4.476 10-10 10zm-40-20h30v-70h-30z"/><path d="m365.996 311h-40c-5.522 0-10-4.478-10-10v-90c0-5.523 4.478-10 10-10h40c5.523 0 10 4.477 10 10v90c0 5.522-4.476 10-10 10zm-30-20h20v-70h-20z"/><path d="m425.996 311h-30c-5.522 0-10-4.478-10-10v-90c0-5.523 4.478-10 10-10h30c5.523 0 10 4.477 10 10v90c0 5.522-4.476 10-10 10zm-20-20h10v-70h-10z"/><path d="m345.996 461c-27.57 0-50-22.43-50-50s22.43-50 50-50 50 22.43 50 50-22.43 50-50 50zm0-80c-16.542 0-30 13.458-30 30s13.458 30 30 30 30-13.458 30-30-13.458-30-30-30z"/><path d="m315.996 111c-16.542 0-30-13.458-30-30s13.458-30 30-30 30 13.458 30 30-13.458 30-30 30zm0-40c-5.514 0-10 4.486-10 10s4.486 10 10 10c5.515 0 10-4.486 10-10s-4.485-10-10-10z"/></g></g></svg>