<svg enable-background="new 0 0 512 512" height="512" viewBox="0 0 512 512" width="512" xmlns="http://www.w3.org/2000/svg"><g id="_x31_014_x2C__Arrow_x2C__Direction_x2C__Right"><g><path d="m66.514 154.16c-1.75-5.24 1.08-10.9 6.32-12.65s10.899 1.09 12.649 6.32c1.75 5.24-1.09 10.91-6.319 12.65-5.24 1.75-10.91-1.08-12.65-6.32z"/><path d="m86.004 211h30v90h-30z" fill="#5cbeff"/><path d="m106.514 394.17c-1.74-5.24 1.09-10.91 6.33-12.65 5.24-1.75 10.9 1.08 12.65 6.32 1.739 5.24-1.09 10.9-6.33 12.65s-10.9-1.09-12.65-6.32z"/><path d="m166.004 141c-22.1 0-40-17.91-40-40s17.9-40 40-40c22.09 0 40 17.91 40 40s-17.91 40-40 40z" fill="#d94556"/><path d="m146.004 211h40v90h-40z" fill="#5cbeff"/><path d="m196.004 451c-11.05 0-20-8.95-20-20s8.95-20 20-20c11.04 0 20 8.95 20 20s-8.96 20-20 20z" fill="#d94556"/><path d="m216.004 211h50v90h-50z" fill="#5cbeff"/><path d="m286.514 424.16c-1.75-5.24 1.08-10.9 6.32-12.65s10.899 1.09 12.649 6.33c1.75 5.23-1.079 10.9-6.319 12.641-5.24 1.749-10.91-1.081-12.65-6.321z"/><path d="m296.004 211h50v90h-50z" fill="#5cbeff"/><path d="m306.514 94.17c-1.75-5.24 1.08-10.91 6.32-12.65 5.24-1.75 10.899 1.08 12.649 6.32s-1.079 10.9-6.319 12.65-10.91-1.09-12.65-6.32z"/><path d="m346.004 211v-50l90 95-90 95v-50z" fill="#163eb1"/><path d="m426.514 374.16c-1.75-5.24 1.08-10.9 6.32-12.65s10.899 1.09 12.649 6.33c1.75 5.23-1.079 10.9-6.319 12.641-5.24 1.749-10.91-1.081-12.65-6.321z"/><path d="m426.514 124.16c-1.75-5.24 1.08-10.9 6.32-12.65s10.899 1.09 12.649 6.32c1.75 5.24-1.079 10.91-6.319 12.65-5.24 1.75-10.91-1.08-12.65-6.32z"/><path d="m346.001 361c-1.243 0-2.498-.231-3.699-.71-3.803-1.516-6.298-5.196-6.298-9.29v-50c0-5.522 4.477-10 10-10 5.522 0 10 4.478 10 10v24.904l66.225-69.904-66.225-69.904v24.904c0 5.523-4.478 10-10 10-5.523 0-10-4.477-10-10v-50c0-4.094 2.495-7.774 6.298-9.29 3.805-1.516 8.146-.559 10.962 2.412l90 95c3.653 3.857 3.653 9.898 0 13.755l-90 95c-1.927 2.034-4.569 3.123-7.263 3.123z"/><path d="m346.004 311h-50c-5.523 0-10-4.478-10-10v-90c0-5.523 4.477-10 10-10h50c5.522 0 10 4.477 10 10v90c0 5.522-4.478 10-10 10zm-40-20h30v-70h-30z"/><path d="m266.004 311h-50c-5.523 0-10-4.478-10-10v-90c0-5.523 4.477-10 10-10h50c5.522 0 10 4.477 10 10v90c0 5.522-4.478 10-10 10zm-40-20h30v-70h-30z"/><path d="m186.004 311h-40c-5.523 0-10-4.478-10-10v-90c0-5.523 4.477-10 10-10h40c5.522 0 10 4.477 10 10v90c0 5.522-4.478 10-10 10zm-30-20h20v-70h-20z"/><path d="m116.004 311h-30c-5.523 0-10-4.478-10-10v-90c0-5.523 4.477-10 10-10h30c5.522 0 10 4.477 10 10v90c0 5.522-4.478 10-10 10zm-20-20h10v-70h-10z"/><path d="m166.004 151c-27.57 0-50-22.43-50-50s22.43-50 50-50 50 22.43 50 50-22.43 50-50 50zm0-80c-16.542 0-30 13.458-30 30s13.458 30 30 30 30-13.458 30-30-13.458-30-30-30z"/><path d="m196.004 461c-16.542 0-30-13.458-30-30s13.458-30 30-30 30 13.458 30 30-13.458 30-30 30zm0-40c-5.515 0-10 4.486-10 10s4.485 10 10 10c5.514 0 10-4.486 10-10s-4.486-10-10-10z"/></g></g></svg>