<svg enable-background="new 0 0 512 512" height="512" viewBox="0 0 512 512" width="512" xmlns="http://www.w3.org/2000/svg"><g id="_x31_015_x2C__Arrow_x2C__Direction_x2C__Down"><g><path d="m357.84 66.514c5.24-1.75 10.9 1.08 12.65 6.32s-1.09 10.9-6.32 12.65c-5.24 1.75-10.91-1.09-12.65-6.32-1.75-5.24 1.08-10.91 6.32-12.65z"/><path d="m211 86.004h90v30h-90z" fill="#5cbeff"/><path d="m117.83 106.514c5.24-1.74 10.91 1.09 12.65 6.33 1.75 5.24-1.08 10.9-6.32 12.65-5.24 1.74-10.9-1.09-12.65-6.33s1.09-10.9 6.32-12.65z"/><path d="m371 166.004c0-22.1 17.91-40 40-40s40 17.9 40 40c0 22.09-17.91 40-40 40s-40-17.91-40-40z" fill="#d94556"/><path d="m211 146.004h90v40h-90z" fill="#5cbeff"/><path d="m61 196.004c0-11.05 8.95-20 20-20s20 8.95 20 20c0 11.04-8.95 20-20 20s-20-8.96-20-20z" fill="#d94556"/><path d="m211 216.004h90v50h-90z" fill="#5cbeff"/><path d="m87.84 286.515c5.24-1.75 10.9 1.079 12.65 6.319s-1.09 10.9-6.33 12.65c-5.23 1.75-10.9-1.08-12.64-6.32-1.75-5.24 1.08-10.91 6.32-12.649z"/><path d="m211 296.004h90v50h-90z" fill="#5cbeff"/><path d="m417.83 306.515c5.24-1.75 10.91 1.079 12.65 6.319 1.75 5.24-1.08 10.9-6.32 12.65s-10.9-1.08-12.65-6.32 1.09-10.91 6.32-12.649z"/><path d="m301 346.004h50l-95 90-95-90h50z" fill="#163eb1"/><path d="m137.84 426.515c5.24-1.75 10.9 1.079 12.65 6.319s-1.09 10.9-6.33 12.65c-5.23 1.75-10.9-1.08-12.64-6.32-1.75-5.24 1.08-10.91 6.32-12.649z"/><path d="m387.84 426.515c5.24-1.75 10.9 1.079 12.65 6.319s-1.09 10.9-6.32 12.65c-5.24 1.75-10.91-1.08-12.65-6.32-1.75-5.24 1.08-10.91 6.32-12.649z"/><path d="m256 446.004c-2.475 0-4.949-.913-6.877-2.74l-95-90c-2.972-2.815-3.928-7.158-2.412-10.961 1.515-3.804 5.196-6.299 9.29-6.299h50c5.523 0 10 4.478 10 10s-4.477 10-10 10h-24.904l69.903 66.225 69.904-66.225h-24.904c-5.523 0-10-4.478-10-10s4.477-10 10-10h50c4.094 0 7.774 2.495 9.289 6.299 1.516 3.803.561 8.146-2.412 10.961l-95 90c-1.928 1.827-4.402 2.74-6.877 2.74z"/><path d="m301 356.004h-90c-5.523 0-10-4.478-10-10v-50c0-5.522 4.477-10 10-10h90c5.523 0 10 4.478 10 10v50c0 5.522-4.477 10-10 10zm-80-20h70v-30h-70z"/><path d="m301 276.004h-90c-5.523 0-10-4.478-10-10v-50c0-5.523 4.477-10 10-10h90c5.523 0 10 4.477 10 10v50c0 5.522-4.477 10-10 10zm-80-20h70v-30h-70z"/><path d="m301 196.004h-90c-5.523 0-10-4.477-10-10v-40c0-5.523 4.477-10 10-10h90c5.523 0 10 4.477 10 10v40c0 5.523-4.477 10-10 10zm-80-20h70v-20h-70z"/><path d="m301 126.004h-90c-5.523 0-10-4.477-10-10v-30c0-5.523 4.477-10 10-10h90c5.523 0 10 4.477 10 10v30c0 5.523-4.477 10-10 10zm-80-20h70v-10h-70z"/><path d="m411 216.004c-27.57 0-50-22.43-50-50s22.43-50 50-50 50 22.43 50 50-22.43 50-50 50zm0-80c-16.542 0-30 13.458-30 30s13.458 30 30 30 30-13.458 30-30-13.458-30-30-30z"/><path d="m81 226.004c-16.542 0-30-13.458-30-30s13.458-30 30-30 30 13.458 30 30-13.458 30-30 30zm0-40c-5.514 0-10 4.486-10 10s4.486 10 10 10 10-4.486 10-10-4.486-10-10-10z"/></g></g></svg>