<svg enable-background="new 0 0 512 512" height="512" viewBox="0 0 512 512" width="512" xmlns="http://www.w3.org/2000/svg"><g id="_x31_016_x2C__Arrow_x2C__Direction_x2C__Up"><g><path d="m154.16 445.486c-5.24 1.75-10.9-1.08-12.65-6.32s1.09-10.9 6.32-12.65c5.24-1.75 10.91 1.091 12.65 6.32 1.75 5.24-1.08 10.91-6.32 12.65z"/><path d="m211 395.996h90v30h-90z" fill="#5cbeff"/><path d="m394.17 405.486c-5.24 1.739-10.91-1.09-12.65-6.33-1.75-5.24 1.08-10.9 6.32-12.65 5.24-1.74 10.9 1.09 12.65 6.33s-1.09 10.9-6.32 12.65z"/><path d="m141 345.996c0 22.1-17.91 40-40 40s-40-17.9-40-40c0-22.09 17.91-40 40-40s40 17.91 40 40z" fill="#d94556"/><path d="m211 325.996h90v40h-90z" fill="#5cbeff"/><path d="m451 315.996c0 11.05-8.949 20-20 20-11.05 0-20-8.95-20-20 0-11.04 8.95-20 20-20 11.051 0 20 8.96 20 20z" fill="#d94556"/><path d="m211 245.996h90v50h-90z" fill="#5cbeff"/><path d="m424.16 225.486c-5.24 1.75-10.9-1.08-12.65-6.32s1.09-10.9 6.33-12.65c5.23-1.75 10.9 1.08 12.641 6.32 1.749 5.24-1.081 10.91-6.321 12.65z"/><path d="m211 165.996h90v50h-90z" fill="#5cbeff"/><path d="m94.17 205.486c-5.24 1.75-10.91-1.08-12.65-6.32-1.75-5.24 1.08-10.9 6.32-12.65s10.9 1.08 12.65 6.32-1.09 10.91-6.32 12.65z"/><path d="m211 165.996h-50l95-90 95 90h-50z" fill="#163eb1"/><path d="m374.16 85.486c-5.24 1.75-10.9-1.08-12.65-6.32s1.09-10.9 6.33-12.65c5.23-1.75 10.9 1.08 12.641 6.32 1.749 5.24-1.081 10.91-6.321 12.65z"/><path d="m124.16 85.486c-5.24 1.75-10.9-1.08-12.65-6.32s1.09-10.9 6.32-12.65c5.24-1.75 10.91 1.08 12.65 6.32 1.75 5.24-1.08 10.91-6.32 12.65z"/><path d="m351 175.996h-50c-5.523 0-10-4.477-10-10s4.477-10 10-10h24.904l-69.904-66.225-69.904 66.225h24.904c5.523 0 10 4.477 10 10s-4.477 10-10 10h-50c-4.094 0-7.774-2.495-9.29-6.298s-.56-8.146 2.412-10.961l95-90c3.856-3.653 9.899-3.653 13.754 0l95 90c2.973 2.816 3.928 7.158 2.412 10.961-1.514 3.803-5.194 6.298-9.288 6.298z"/><path d="m301 225.996h-90c-5.523 0-10-4.477-10-10v-50c0-5.523 4.477-10 10-10h90c5.523 0 10 4.477 10 10v50c0 5.523-4.477 10-10 10zm-80-20h70v-30h-70z"/><path d="m301 305.996h-90c-5.523 0-10-4.478-10-10v-50c0-5.523 4.477-10 10-10h90c5.523 0 10 4.477 10 10v50c0 5.523-4.477 10-10 10zm-80-20h70v-30h-70z"/><path d="m301 375.996h-90c-5.523 0-10-4.478-10-10v-40c0-5.522 4.477-10 10-10h90c5.523 0 10 4.478 10 10v40c0 5.523-4.477 10-10 10zm-80-20h70v-20h-70z"/><path d="m301 435.996h-90c-5.523 0-10-4.478-10-10v-30c0-5.522 4.477-10 10-10h90c5.523 0 10 4.478 10 10v30c0 5.523-4.477 10-10 10zm-80-20h70v-10h-70z"/><path d="m101 395.996c-27.57 0-50-22.43-50-50s22.43-50 50-50 50 22.43 50 50-22.43 50-50 50zm0-80c-16.542 0-30 13.458-30 30s13.458 30 30 30 30-13.458 30-30-13.458-30-30-30z"/><path d="m431 345.996c-16.542 0-30-13.458-30-30s13.458-30 30-30 30 13.458 30 30-13.458 30-30 30zm0-40c-5.514 0-10 4.486-10 10s4.486 10 10 10 10-4.486 10-10-4.486-10-10-10z"/></g></g></svg>