<svg enable-background="new 0 0 512 512" height="512" viewBox="0 0 512 512" width="512" xmlns="http://www.w3.org/2000/svg"><g id="_x31_017_x2C__Direction_x2C__Pointer_x2C__Right_Up"><g><g fill="#07cc66"><path d="m421.002 86c16.561 0 30 13.43 30 30s-13.439 30-30 30c-16.569 0-30-13.43-30-30s13.431-30 30-30z"/><path d="m396.002 406c13.801 0 25 11.19 25 25s-11.199 25-25 25c-13.81 0-25-11.19-25-25s11.19-25 25-25z"/><path d="m91.002 346c11.04 0 20 8.95 20 20s-8.96 20-20 20c-11.05 0-20-8.95-20-20s8.951-20 20-20z"/></g><path d="m341.002 176 90 95-90 95v-50-90z" fill="#163eb1"/><path d="m301.002 136h-50-90-50l95-90z" fill="#163eb1"/><path d="m251.002 226h90v90h-90z" fill="#079cff"/><path d="m251.002 316v150h-90v-330h90v90z" fill="#5cbeff"/><path d="m460.492 342.84c1.74 5.24-1.09 10.9-6.33 12.65s-10.899-1.09-12.649-6.32c-1.74-5.24 1.09-10.91 6.329-12.65 5.24-1.75 10.9 1.08 12.65 6.32z"/><path d="m450.482 202.83c1.75 5.24-1.08 10.91-6.32 12.65-5.24 1.75-10.91-1.08-12.649-6.32-1.75-5.24 1.079-10.9 6.319-12.65s10.9 1.09 12.65 6.32z"/><path d="m330.492 72.84c1.74 5.24-1.09 10.9-6.33 12.65s-10.899-1.09-12.649-6.32c-1.74-5.24 1.09-10.91 6.329-12.65 5.24-1.75 10.9 1.08 12.65 6.32z"/><path d="m330.492 412.83c1.74 5.24-1.09 10.91-6.33 12.65-5.24 1.75-10.899-1.08-12.649-6.32-1.74-5.24 1.09-10.9 6.329-12.65 5.24-1.75 10.9 1.09 12.65 6.32z"/><path d="m130.482 452.83c1.75 5.24-1.08 10.91-6.32 12.65-5.24 1.75-10.91-1.08-12.65-6.32-1.75-5.24 1.08-10.9 6.32-12.65s10.9 1.09 12.65 6.32z"/><path d="m100.493 262.84c1.74 5.24-1.09 10.9-6.33 12.65s-10.9-1.09-12.65-6.32c-1.74-5.24 1.09-10.91 6.33-12.65 5.24-1.75 10.9 1.08 12.65 6.32z"/><path d="m70.482 162.84c1.75 5.24-1.08 10.9-6.32 12.65s-10.91-1.09-12.65-6.32c-1.75-5.24 1.08-10.91 6.32-12.65 5.24-1.75 10.9 1.08 12.65 6.32z"/><path d="m301.002 146h-50c-5.523 0-10-4.477-10-10s4.477-10 10-10h24.904l-69.904-66.225-69.904 66.225h24.904c5.523 0 10 4.477 10 10s-4.477 10-10 10h-50c-4.094 0-7.774-2.495-9.29-6.298s-.56-8.146 2.412-10.961l95-90c3.856-3.653 9.898-3.653 13.755 0l95 90c2.972 2.816 3.928 7.158 2.412 10.961s-5.195 6.298-9.289 6.298z"/><path d="m251.002 476h-90c-5.523 0-10-4.478-10-10v-330c0-5.523 4.477-10 10-10h90c5.523 0 10 4.477 10 10v90c0 5.523-4.477 10-10 10s-10-4.477-10-10v-80h-70v310h70v-140c0-5.522 4.477-10 10-10s10 4.478 10 10v150c0 5.522-4.477 10-10 10z"/><path d="m341 376c-1.244 0-2.498-.231-3.699-.71-3.804-1.516-6.299-5.196-6.299-9.29v-50c0-5.522 4.478-10 10-10 5.523 0 10 4.478 10 10v24.904l66.226-69.904-66.226-69.904v24.904c0 5.523-4.477 10-10 10-5.522 0-10-4.477-10-10v-50c0-4.094 2.495-7.774 6.299-9.29 3.805-1.517 8.146-.559 10.961 2.412l90 95c3.654 3.857 3.654 9.898 0 13.756l-90 95c-1.926 2.033-4.568 3.122-7.262 3.122z"/><path d="m341.002 326h-90c-5.523 0-10-4.478-10-10v-90c0-5.523 4.477-10 10-10h90c5.523 0 10 4.477 10 10v90c0 5.522-4.477 10-10 10zm-80-20h70v-70h-70z"/><path d="m421.002 156c-22.056 0-40-17.944-40-40s17.944-40 40-40c22.057 0 40 17.944 40 40s-17.943 40-40 40zm0-60c-11.027 0-20 8.972-20 20s8.973 20 20 20c11.028 0 20-8.972 20-20s-8.972-20-20-20z"/><path d="m91.002 396c-16.542 0-30-13.458-30-30s13.458-30 30-30 30 13.458 30 30-13.458 30-30 30zm0-40c-5.514 0-10 4.486-10 10s4.486 10 10 10 10-4.486 10-10-4.485-10-10-10z"/><path d="m396.002 466c-19.299 0-35-15.701-35-35s15.701-35 35-35 35 15.701 35 35-15.701 35-35 35zm0-50c-8.271 0-15 6.729-15 15s6.729 15 15 15 15-6.729 15-15-6.729-15-15-15z"/></g></g></svg>