<svg enable-background="new 0 0 512 512" height="512" viewBox="0 0 512 512" width="512" xmlns="http://www.w3.org/2000/svg"><g id="_x31_018_x2C__Direction_x2C__Pointer_x2C__Up_Left"><g><path d="m51.507 342.84c-1.74 5.24 1.09 10.9 6.33 12.65s10.9-1.09 12.65-6.32c1.74-5.24-1.09-10.91-6.33-12.65-5.24-1.75-10.9 1.08-12.65 6.32z"/><path d="m61.518 202.83c-1.75 5.24 1.08 10.91 6.32 12.65 5.24 1.75 10.91-1.08 12.65-6.32 1.75-5.24-1.08-10.9-6.32-12.65s-10.9 1.09-12.65 6.32z"/><path d="m90.998 86c-16.56 0-30 13.43-30 30s13.44 30 30 30c16.57 0 30-13.43 30-30s-13.431-30-30-30z" fill="#07cc66"/><path d="m170.998 176-90 95 90 95v-50-90z" fill="#163eb1"/><path d="m115.998 406c-13.8 0-25 11.19-25 25s11.2 25 25 25c13.81 0 25-11.19 25-25s-11.19-25-25-25z" fill="#07cc66"/><path d="m170.998 226h90v90h-90z" fill="#079cff"/><path d="m181.507 72.84c-1.74 5.24 1.09 10.9 6.33 12.65s10.9-1.09 12.65-6.32c1.74-5.24-1.09-10.91-6.33-12.65-5.24-1.75-10.9 1.08-12.65 6.32z"/><path d="m181.507 412.83c-1.74 5.24 1.09 10.91 6.33 12.65 5.24 1.75 10.9-1.08 12.65-6.32 1.74-5.24-1.09-10.9-6.33-12.65s-10.9 1.09-12.65 6.32z"/><path d="m210.998 136h50 90 50l-95-90z" fill="#163eb1"/><path d="m260.998 316v150h90v-330h-90v90z" fill="#5cbeff"/><path d="m381.518 452.83c-1.75 5.24 1.08 10.91 6.32 12.65 5.24 1.75 10.91-1.08 12.649-6.32 1.75-5.24-1.079-10.9-6.319-12.65s-10.9 1.09-12.65 6.32z"/><path d="m420.998 346c-11.04 0-20 8.95-20 20s8.96 20 20 20c11.05 0 20-8.95 20-20s-8.95-20-20-20z" fill="#07cc66"/><path d="m411.508 262.84c-1.74 5.24 1.09 10.9 6.33 12.65s10.899-1.09 12.649-6.32c1.74-5.24-1.09-10.91-6.329-12.65-5.24-1.75-10.9 1.08-12.65 6.32z"/><path d="m441.518 162.84c-1.75 5.24 1.08 10.9 6.32 12.65s10.91-1.09 12.649-6.32c1.75-5.24-1.079-10.91-6.319-12.65-5.24-1.75-10.9 1.08-12.65 6.32z"/><path d="m400.998 146h-50c-5.523 0-10-4.477-10-10s4.477-10 10-10h24.904l-69.904-66.225-69.905 66.225h24.905c5.522 0 10 4.477 10 10s-4.478 10-10 10h-50c-4.094 0-7.774-2.495-9.29-6.298s-.56-8.146 2.412-10.961l95-90c3.856-3.653 9.898-3.653 13.755 0l95 90c2.973 2.816 3.928 7.158 2.412 10.961-1.515 3.803-5.195 6.298-9.289 6.298z"/><path d="m350.998 476h-90c-5.523 0-10-4.478-10-10v-150c0-5.522 4.477-10 10-10 5.522 0 10 4.478 10 10v140h70v-310h-70v80c0 5.523-4.478 10-10 10-5.523 0-10-4.477-10-10v-90c0-5.523 4.477-10 10-10h90c5.522 0 10 4.477 10 10v330c0 5.522-4.477 10-10 10z"/><path d="m171 376c-2.694 0-5.335-1.089-7.262-3.122l-90-95c-3.654-3.857-3.654-9.898 0-13.756l90-95c2.815-2.971 7.159-3.926 10.961-2.412 3.803 1.515 6.298 5.196 6.298 9.29v50c0 5.523-4.477 10-10 10s-10-4.477-10-10v-24.904l-66.225 69.904 66.225 69.904v-24.904c0-5.522 4.477-10 10-10s10 4.478 10 10v50c0 4.094-2.495 7.774-6.298 9.29-1.201.479-2.456.71-3.699.71z"/><path d="m260.998 326h-90c-5.523 0-10-4.478-10-10v-90c0-5.523 4.477-10 10-10h90c5.522 0 10 4.477 10 10v90c0 5.522-4.477 10-10 10zm-80-20h70v-70h-70z"/><path d="m90.998 156c-22.056 0-40-17.944-40-40s17.944-40 40-40 40 17.944 40 40-17.944 40-40 40zm0-60c-11.028 0-20 8.972-20 20s8.972 20 20 20 20-8.972 20-20-8.973-20-20-20z"/><path d="m420.998 396c-16.542 0-30-13.458-30-30s13.458-30 30-30 30 13.458 30 30-13.458 30-30 30zm0-40c-5.515 0-10 4.486-10 10s4.485 10 10 10c5.514 0 10-4.486 10-10s-4.486-10-10-10z"/><path d="m115.998 466c-19.299 0-35-15.701-35-35s15.701-35 35-35 35 15.701 35 35-15.702 35-35 35zm0-50c-8.271 0-15 6.729-15 15s6.729 15 15 15 15-6.729 15-15-6.729-15-15-15z"/></g></g></svg>