<svg enable-background="new 0 0 512 512" height="512" viewBox="0 0 512 512" width="512" xmlns="http://www.w3.org/2000/svg"><g id="_x31_019_x2C__Circle_x2C__Refresh_x2C__Left_x2C__Rotate_x2C__Up"><g><path d="m446.001 46.001c16.561 0 30 13.43 30 30s-13.439 30-30 30c-16.569 0-30-13.43-30-30s13.431-30 30-30z" fill="#d7e816"/><path d="m76.001 406.001c11.04 0 20 8.95 20 20s-8.96 20-20 20c-11.05 0-20-8.95-20-20s8.951-20 20-20z" fill="#d7e816"/><path d="m236.001 187.831-97.549 88.17-92.451-88.17z" fill="#079cff"/><path d="m256.001 86.001c99.41 0 180 80.59 180 180s-80.59 180-180 180c-74.59 0-138.57-45.36-165.88-110l75.88-2.49c20.52 27.32 53.2 44.99 90 44.99 62.129 0 112.5-50.37 112.5-112.5s-50.37-112.5-112.5-112.5c-31.47 0-59.92 12.93-80.33 33.75h-81.57c29.211-59.94 90.731-101.25 161.9-101.25z" fill="#bce4ff"/><path d="m459.161 156.521c5.24 1.74 8.07 7.41 6.33 12.65-1.75 5.23-7.41 8.07-12.65 6.32-5.239-1.75-8.069-7.41-6.329-12.65 1.75-5.24 7.409-8.07 12.649-6.32z"/><path d="m429.161 396.511c5.24 1.75 8.07 7.41 6.33 12.65-1.75 5.24-7.41 8.07-12.65 6.32-5.239-1.74-8.069-7.41-6.329-12.65 1.75-5.23 7.409-8.07 12.649-6.32z"/><path d="m369.161 56.511c5.24 1.75 8.07 7.41 6.32 12.65s-7.41 8.07-12.65 6.32c-5.24-1.74-8.069-7.41-6.319-12.65 1.739-5.23 7.409-8.07 12.649-6.32z"/><path d="m169.162 456.511c5.24 1.75 8.07 7.41 6.32 12.65s-7.41 8.07-12.65 6.32c-5.24-1.74-8.07-7.41-6.32-12.65 1.739-5.23 7.409-8.07 12.65-6.32z"/><path d="m119.162 56.511c5.24 1.75 8.07 7.41 6.33 12.65-1.75 5.24-7.41 8.07-12.65 6.32-5.24-1.74-8.07-7.41-6.33-12.65 1.75-5.23 7.409-8.07 12.65-6.32z"/><path d="m49.162 126.521c5.24 1.74 8.07 7.41 6.33 12.65-1.75 5.23-7.41 8.07-12.65 6.32s-8.07-7.41-6.33-12.65c1.75-5.24 7.409-8.07 12.65-6.32z"/><path d="m39.162 326.521c5.24 1.74 8.07 7.41 6.33 12.65-1.75 5.23-7.41 8.07-12.65 6.32s-8.07-7.41-6.33-12.65c1.75-5.24 7.409-8.07 12.65-6.32z"/><path d="m256.001 456.001c-76.564 0-145.292-45.575-175.091-116.108-1.282-3.034-.988-6.506.788-9.28 1.775-2.775 4.803-4.498 8.096-4.606l75.88-2.489c3.28-.115 6.366 1.381 8.324 3.988 19.569 26.054 49.458 40.996 82.004 40.996 56.518 0 102.5-45.981 102.5-102.5s-45.981-102.5-102.5-102.5c-27.757 0-53.75 10.921-73.189 30.75-1.881 1.918-4.455 3-7.141 3h-81.57c-3.448 0-6.652-1.776-8.479-4.699-1.828-2.924-2.02-6.583-.51-9.682 15.377-31.555 39.177-58.233 68.825-77.152 30.468-19.441 65.762-29.717 102.064-29.717 104.766 0 190 85.234 190 190-.001 104.766-85.234 189.999-190.001 189.999zm-150.319-110.505c29.284 55.429 86.788 90.505 150.32 90.505 93.738 0 170-76.262 170-170s-76.262-170-170-170c-60.066 0-114.274 30.747-145.05 81.25h60.621c22.867-21.797 52.682-33.75 84.429-33.75 67.546 0 122.5 54.953 122.5 122.5s-54.953 122.5-122.5 122.5c-37.132 0-71.366-16.27-94.737-44.829z"/><path d="m138.452 286.001c-2.488 0-4.973-.924-6.902-2.764l-92.45-88.169c-2.958-2.821-3.901-7.159-2.382-10.954 1.52-3.795 5.196-6.283 9.284-6.283h190c4.137 0 7.846 2.547 9.333 6.407 1.486 3.861.442 8.238-2.627 11.012l-97.55 88.17c-1.907 1.723-4.308 2.581-6.706 2.581zm-67.475-88.17 67.658 64.525 71.39-64.525z"/><path d="m76.001 456.001c-16.542 0-30-13.458-30-30s13.458-30 30-30 30 13.458 30 30-13.458 30-30 30zm0-40c-5.514 0-10 4.486-10 10s4.486 10 10 10 10-4.486 10-10-4.485-10-10-10z"/><path d="m446.001 116.001c-22.056 0-40-17.944-40-40s17.944-40 40-40c22.057 0 40 17.944 40 40s-17.943 40-40 40zm0-60c-11.027 0-20 8.972-20 20s8.973 20 20 20c11.028 0 20-8.972 20-20s-8.972-20-20-20z"/></g></g></svg>