<svg enable-background="new 0 0 512 512" height="512" viewBox="0 0 512 512" width="512" xmlns="http://www.w3.org/2000/svg"><g id="_x31_021_x2C__Direction_x2C__Down_x2C__Transfers_x2C__Trend_x2C__Up"><g><path d="m416.004 346c13.81 0 25 11.19 25 25s-11.19 25-25 25c-13.811 0-25-11.19-25-25s11.189-25 25-25z" fill="#ffd400"/><circle cx="101.004" cy="176" fill="#ffd400" r="30"/><path d="m324.434 334.57v65.72l-111.72 65.71-111.71-65.71v-65.72l78.86 46.39v-144.96h65.71v144.96z" fill="#5cbeff"/><path d="m427.863 111.71v65.72l-78.859-46.39v144.96h-65.71v-144.96l-78.86 46.39v-65.72l111.71-65.71z" fill="#4a78ff"/><path d="m430.494 252.84c1.75 5.24-1.091 10.9-6.33 12.65-5.23 1.75-10.9-1.09-12.641-6.32-1.75-5.24 1.08-10.91 6.32-12.65 5.241-1.75 10.901 1.08 12.651 6.32z"/><path d="m370.494 432.84c1.75 5.24-1.091 10.9-6.33 12.65-5.23 1.75-10.9-1.09-12.641-6.32-1.75-5.24 1.08-10.91 6.32-12.65 5.241-1.75 10.901 1.08 12.651 6.32z"/><path d="m130.494 62.84c1.74 5.24-1.09 10.9-6.33 12.65s-10.9-1.09-12.64-6.32c-1.75-5.24 1.08-10.91 6.32-12.65 5.24-1.75 10.9 1.08 12.65 6.32z"/><path d="m90.484 452.83c1.75 5.24-1.08 10.91-6.32 12.65-5.24 1.75-10.9-1.08-12.65-6.32s1.08-10.9 6.32-12.65 10.91 1.09 12.65 6.32z"/><path d="m80.484 272.83c1.75 5.24-1.08 10.91-6.32 12.65-5.24 1.75-10.9-1.08-12.65-6.32s1.08-10.9 6.32-12.65 10.91 1.09 12.65 6.32z"/><path d="m349.004 286h-65.71c-5.523 0-10-4.478-10-10v-127.476l-63.79 37.525c-3.092 1.819-6.92 1.842-10.035.062-3.114-1.781-5.035-5.093-5.035-8.681v-65.72c0-3.543 1.875-6.823 4.93-8.62l111.709-65.71c3.13-1.84 7.011-1.841 10.141 0l111.72 65.71c3.055 1.797 4.93 5.076 4.93 8.62v65.72c0 3.587-1.921 6.899-5.035 8.681-3.113 1.782-6.943 1.758-10.035-.062l-63.789-37.525v127.476c-.001 5.522-4.479 10-10.001 10zm-55.71-20h45.71v-134.96c0-3.587 1.921-6.899 5.035-8.681 3.114-1.78 6.944-1.757 10.035.062l63.789 37.525v-42.516l-101.72-59.828-101.709 59.828v42.516l63.79-37.525c3.092-1.819 6.921-1.842 10.035-.062 3.113 1.781 5.035 5.093 5.035 8.681z"/><path d="m212.714 476c-1.753 0-3.505-.46-5.07-1.381l-111.71-65.71c-3.054-1.797-4.93-5.075-4.93-8.619v-65.72c0-3.587 1.921-6.899 5.035-8.681 3.115-1.78 6.943-1.757 10.035.062l63.79 37.524v-127.475c0-5.523 4.477-10 10-10h65.71c5.523 0 10 4.477 10 10v127.476l63.79-37.524c3.092-1.818 6.922-1.843 10.035-.062 3.114 1.781 5.035 5.094 5.035 8.681v65.72c0 3.544-1.875 6.823-4.93 8.62l-111.72 65.71c-1.565.919-3.318 1.379-5.07 1.379zm-101.71-81.43 101.71 59.828 101.72-59.828v-42.516l-63.79 37.524c-3.092 1.818-6.921 1.842-10.035.062-3.114-1.781-5.035-5.094-5.035-8.681v-134.959h-45.71v134.96c0 3.587-1.921 6.899-5.035 8.681-3.113 1.781-6.942 1.757-10.035-.062l-63.79-37.524z"/><path d="m101.004 216c-22.056 0-40-17.944-40-40s17.944-40 40-40 40 17.944 40 40-17.944 40-40 40zm0-60c-11.028 0-20 8.972-20 20s8.972 20 20 20 20-8.972 20-20-8.972-20-20-20z"/><path d="m416.004 406c-19.299 0-35-15.701-35-35s15.701-35 35-35 35 15.701 35 35-15.701 35-35 35zm0-50c-8.271 0-15 6.729-15 15s6.729 15 15 15 15-6.729 15-15-6.73-15-15-15z"/></g></g></svg>