<svg enable-background="new 0 0 512 512" height="512" viewBox="0 0 512 512" width="512" xmlns="http://www.w3.org/2000/svg"><g id="_x31_022_x2C__Arrows_x2C__Change_Arrows_x2C__Exchange"><g><path d="m425.999 405.999c16.569 0 30 13.43 30 30s-13.431 30-30 30c-16.561 0-30-13.43-30-30s13.439-30 30-30z" fill="#07cc66"/><path d="m85.999 55.999c11.05 0 20 8.95 20 20s-8.95 20-20 20c-11.04 0-20-8.95-20-20s8.96-20 20-20z" fill="#07cc66"/><path d="m255.999 85.999c-93.88 0-170 76.11-170 170s76.12 170 170 170c93.89 0 170-76.11 170-170s-76.11-170-170-170z" fill="#bce4ff"/><path d="m348.608 196.679c0 3.49-.899 7.07-2.88 10.43l-29.59 50.31 29.59 50.311c8.09 13.75-1.83 31.1-17.79 31.1-3.66 0-7.18-.97-10.24-2.72-3.08-1.761-5.699-4.311-7.55-7.46l-32.3-54.91c-5.93-10.08-5.93-22.57 0-32.65l32.3-54.91c3.71-6.31 10.48-10.18 17.79-10.18 12.061-.001 20.67 9.899 20.67 20.679z" fill="#d94556"/><path d="m234.159 241.089c5.93 10.08 5.93 22.57 0 32.65l-32.3 54.91c-1.86 3.149-4.47 5.699-7.54 7.46-3.07 1.75-6.59 2.72-10.25 2.72-15.96 0-25.88-17.35-17.79-31.1l29.6-50.311-29.6-50.31c-1.98-3.36-2.88-6.94-2.88-10.43 0-10.78 8.61-20.68 20.67-20.68 7.32 0 14.08 3.87 17.79 10.18z" fill="#d94556"/><path d="m455.488 102.839c1.75 5.23-1.08 10.9-6.319 12.64-5.24 1.75-10.9-1.08-12.65-6.32s1.09-10.9 6.32-12.65c5.239-1.75 10.91 1.09 12.649 6.33z"/><path d="m355.488 42.839c1.75 5.24-1.08 10.9-6.319 12.65-5.24 1.75-10.9-1.09-12.65-6.32-1.75-5.24 1.09-10.91 6.32-12.65 5.239-1.75 10.91 1.08 12.649 6.32z"/><path d="m355.488 442.839c1.75 5.24-1.08 10.9-6.319 12.65-5.24 1.75-10.9-1.09-12.65-6.32-1.75-5.24 1.09-10.91 6.32-12.65 5.239-1.75 10.91 1.08 12.649 6.32z"/><path d="m145.489 442.839c1.74 5.24-1.09 10.9-6.33 12.65s-10.9-1.09-12.65-6.32c-1.74-5.24 1.09-10.91 6.33-12.65 5.24-1.75 10.9 1.08 12.65 6.32z"/><path d="m75.489 152.839c1.75 5.24-1.08 10.9-6.32 12.65s-10.9-1.09-12.65-6.32c-1.75-5.24 1.08-10.91 6.32-12.65 5.24-1.75 10.91 1.08 12.65 6.32z"/><path d="m65.489 362.839c1.75 5.24-1.08 10.9-6.32 12.65s-10.9-1.09-12.65-6.32c-1.75-5.24 1.08-10.91 6.32-12.65 5.24-1.75 10.91 1.08 12.65 6.32z"/><path d="m255.999 435.999c-99.252 0-180-80.748-180-180s80.748-180 180-180 180 80.748 180 180-80.748 180-180 180zm0-340c-88.224 0-160 71.776-160 160 0 88.225 71.776 160 160 160s160-71.775 160-160c0-88.224-71.776-160-160-160z"/><path d="m184.069 348.829c-11.127 0-21.069-5.769-26.595-15.43-5.525-9.661-5.456-21.152.186-30.741l26.617-45.239-26.617-45.239c-2.786-4.728-4.261-10.09-4.261-15.5 0-16.917 13.758-30.68 30.67-30.68 10.81 0 20.93 5.791 26.411 15.112l32.298 54.908c7.764 13.197 7.764 29.594 0 42.791l-32.3 54.91c-2.719 4.604-6.583 8.426-11.184 11.064-4.65 2.65-9.907 4.044-15.225 4.044zm0-162.83c-6.59 0-10.67 5.544-10.67 10.68 0 1.868.503 3.669 1.495 5.353l29.604 50.316c1.842 3.13 1.842 7.013 0 10.143l-29.6 50.311c-2.822 4.795-.983 9.059-.063 10.67.921 1.611 3.666 5.358 9.233 5.358 1.851 0 3.683-.486 5.297-1.407 1.579-.905 2.929-2.244 3.882-3.857l32.292-54.896c4.084-6.942 4.084-15.567 0-22.509l-32.3-54.91c-1.904-3.241-5.418-5.252-9.17-5.252z"/><path d="m327.938 348.829c-5.326 0-10.584-1.396-15.204-4.039-4.631-2.646-8.507-6.477-11.208-11.075l-32.297-54.905c-7.764-13.197-7.764-29.594 0-42.791l32.3-54.91c5.479-9.319 15.6-15.11 26.409-15.11 16.912 0 30.67 13.763 30.67 30.68 0 5.41-1.475 10.772-4.265 15.507l-26.604 45.233 26.608 45.241c5.641 9.587 5.71 21.078.185 30.739s-15.466 15.43-26.594 15.43zm0-162.83c-3.752 0-7.266 2.011-9.169 5.249l-32.302 54.912c-4.084 6.942-4.084 15.567 0 22.51l32.3 54.91c.94 1.601 2.286 2.93 3.894 3.849 1.604.917 3.428 1.401 5.277 1.401 5.568 0 8.313-3.747 9.233-5.358s2.76-5.875-.063-10.67l-29.591-50.313c-1.84-3.129-1.84-7.01 0-10.139l29.591-50.311c.996-1.691 1.499-3.492 1.499-5.36.001-5.136-4.078-10.68-10.669-10.68z"/><path d="m85.999 105.999c-16.542 0-30-13.458-30-30s13.458-30 30-30 30 13.458 30 30-13.458 30-30 30zm0-40c-5.514 0-10 4.486-10 10s4.486 10 10 10 10-4.486 10-10-4.486-10-10-10z"/><path d="m425.999 475.999c-22.057 0-40-17.944-40-40s17.943-40 40-40c22.056 0 40 17.944 40 40s-17.944 40-40 40zm0-60c-11.028 0-20 8.972-20 20s8.972 20 20 20c11.027 0 20-8.972 20-20s-8.973-20-20-20z"/></g></g></svg>