<svg enable-background="new 0 0 512 512" height="512" viewBox="0 0 512 512" width="512" xmlns="http://www.w3.org/2000/svg"><g id="_x31_023_x2C__Arrow_x2C__Arrows_x2C__Shrink"><g><path d="m276 51c11.04 0 20 8.95 20 20s-8.96 20-20 20c-11.05 0-20-8.95-20-20s8.95-20 20-20z" fill="#07cc66"/><path d="m96 401c16.56 0 30 13.43 30 30s-13.44 30-30 30c-16.57 0-30-13.43-30-30s13.43-30 30-30z" fill="#07cc66"/><path d="m486 229.86v65.71h-144.96l46.39 78.86h-65.72l-65.71-111.72 65.71-111.71h65.72l-46.39 78.86z" fill="#d94556"/><path d="m190.28 151 65.72 111.71-65.72 111.72h-65.71l46.38-78.86h-144.95v-65.71h144.95l-46.38-78.86z" fill="#5cbeff"/><path d="m435.48 117.83c1.75 5.24-1.08 10.91-6.32 12.65-5.24 1.75-10.91-1.08-12.65-6.32-1.75-5.24 1.08-10.9 6.32-12.65s10.9 1.09 12.65 6.32z"/><path d="m415.48 417.83c1.75 5.24-1.08 10.91-6.32 12.65-5.24 1.75-10.91-1.08-12.65-6.32-1.75-5.24 1.08-10.9 6.32-12.65s10.9 1.09 12.65 6.32z"/><path d="m205.49 437.83c1.74 5.24-1.09 10.91-6.33 12.65-5.24 1.75-10.9-1.08-12.65-6.32-1.74-5.24 1.09-10.9 6.33-12.65s10.9 1.09 12.65 6.32z"/><path d="m145.48 77.83c1.75 5.24-1.08 10.91-6.32 12.65-5.24 1.75-10.91-1.08-12.65-6.32-1.75-5.24 1.08-10.9 6.32-12.65s10.9 1.09 12.65 6.32z"/><path d="m75.49 157.83c1.74 5.24-1.09 10.91-6.33 12.65-5.24 1.75-10.9-1.08-12.65-6.32-1.74-5.24 1.09-10.9 6.33-12.65s10.9 1.09 12.65 6.32z"/><path d="m190.28 384.43h-65.71c-3.587 0-6.899-1.921-8.68-5.035-1.781-3.113-1.758-6.942.061-10.034l37.517-63.79h-127.468c-5.523 0-10-4.478-10-10v-65.71c0-5.523 4.477-10 10-10h127.467l-37.517-63.79c-1.818-3.092-1.842-6.921-.061-10.035 1.781-3.113 5.093-5.035 8.68-5.035h65.71c3.543 0 6.822 1.875 8.619 4.929l65.72 111.71c1.842 3.129 1.842 7.011 0 10.141l-65.72 111.72c-1.795 3.054-5.074 4.929-8.618 4.929zm-48.227-20h42.508l59.837-101.72-59.837-101.71h-42.508l37.517 63.79c1.818 3.092 1.842 6.921.061 10.035s-5.093 5.035-8.68 5.035h-134.951v45.71h134.95c3.587 0 6.899 1.921 8.68 5.035 1.781 3.113 1.758 6.942-.061 10.034z"/><path d="m387.43 384.43h-65.72c-3.544 0-6.823-1.876-8.62-4.931l-65.709-111.72c-1.841-3.129-1.84-7.01 0-10.14l65.709-111.71c1.797-3.054 5.076-4.93 8.62-4.93h65.72c3.588 0 6.9 1.921 8.682 5.035 1.78 3.114 1.757 6.943-.063 10.035l-37.524 63.79h127.475c5.523 0 10 4.477 10 10v65.71c0 5.522-4.477 10-10 10h-127.476l37.524 63.789c1.819 3.092 1.843 6.921.063 10.035-1.781 3.115-5.093 5.037-8.681 5.037zm-60-20h42.516l-37.524-63.789c-1.819-3.092-1.843-6.921-.062-10.035 1.781-3.113 5.094-5.035 8.681-5.035h134.959v-45.71h-134.96c-3.587 0-6.899-1.921-8.681-5.035-1.781-3.114-1.758-6.943.062-10.035l37.524-63.791h-42.515l-59.828 101.71z"/><path d="m96 471c-22.056 0-40-17.944-40-40s17.944-40 40-40 40 17.944 40 40-17.944 40-40 40zm0-60c-11.028 0-20 8.972-20 20s8.972 20 20 20 20-8.972 20-20-8.972-20-20-20z"/><path d="m276 101c-16.542 0-30-13.458-30-30s13.458-30 30-30 30 13.458 30 30-13.458 30-30 30zm0-40c-5.514 0-10 4.486-10 10s4.486 10 10 10 10-4.486 10-10-4.486-10-10-10z"/></g></g></svg>