<svg enable-background="new 0 0 512 512" height="512" viewBox="0 0 512 512" width="512" xmlns="http://www.w3.org/2000/svg"><g id="_x31_024_x2C__Arrow_x2C__Direction_x2C__Left"><g><g fill="#07cc66"><path d="m101.001 406c11.04 0 20 8.95 20 20 0 11.04-8.96 20-20 20-11.05 0-20-8.96-20-20 0-11.05 8.951-20 20-20z"/><path d="m436.001 236c13.801 0 25 11.19 25 25 0 13.8-11.199 25-25 25-13.81 0-25-11.2-25-25 0-13.81 11.19-25 25-25z"/><path d="m91.001 56c16.56 0 30 13.43 30 30s-13.44 30-30 30c-16.57 0-30-13.43-30-30s13.431-30 30-30z"/></g><path d="m431.001 86-100 170 100 170c-30.979 0-60.8-8.2-86.81-23.07-26-14.87-48.19-36.43-63.9-63.13l-49.29-83.8 49.29-83.81c31.42-53.4 88.75-86.19 150.71-86.19z" fill="#3256c1"/><path d="m281.001 86-100 170 100 170c-30.979 0-60.799-8.2-86.81-23.07-26-14.87-48.19-36.43-63.9-63.13l-49.29-83.8 49.29-83.81c31.42-53.4 88.751-86.19 150.71-86.19z" fill="#5cbeff"/><path d="m458.411 170.66c1.75 5.24-1.08 10.91-6.32 12.65-5.239 1.75-10.899-1.08-12.649-6.32s1.08-10.9 6.32-12.65c5.239-1.75 10.909 1.08 12.649 6.32z"/><path d="m440.481 332.83c1.75 5.24-1.09 10.91-6.32 12.65-5.24 1.75-10.91-1.08-12.649-6.32-1.75-5.24 1.079-10.91 6.319-12.65 5.24-1.75 10.9 1.08 12.65 6.32z"/><path d="m350.491 462.84c1.74 5.24-1.09 10.9-6.33 12.65-5.24 1.74-10.899-1.09-12.649-6.33-1.74-5.24 1.09-10.9 6.329-12.65 5.24-1.74 10.9 1.09 12.65 6.33z"/><path d="m250.481 42.84c1.75 5.24-1.09 10.9-6.32 12.65-5.24 1.74-10.91-1.09-12.65-6.33-1.75-5.24 1.08-10.9 6.32-12.65 5.24-1.74 10.9 1.09 12.65 6.33z"/><path d="m70.481 372.84c1.75 5.24-1.08 10.9-6.32 12.65-5.24 1.74-10.91-1.09-12.65-6.33-1.75-5.24 1.08-10.9 6.32-12.65 5.24-1.74 10.9 1.09 12.65 6.33z"/><path d="m60.492 162.84c1.74 5.24-1.09 10.9-6.33 12.65-5.24 1.74-10.9-1.09-12.65-6.33-1.74-5.24 1.09-10.9 6.33-12.65 5.24-1.74 10.9 1.09 12.65 6.33z"/><path d="m431.021 436c-.009-.001-.015-.001-.021 0-32.13 0-63.864-8.434-91.773-24.389-27.891-15.952-51.251-39.03-67.555-66.74l-49.291-83.801c-1.84-3.13-1.84-7.01 0-10.14l49.29-83.81c16.299-27.702 39.659-50.776 67.558-66.731s59.633-24.389 91.772-24.389c3.588 0 6.899 1.921 8.681 5.035s1.758 6.943-.062 10.035l-97.017 164.93 96.717 164.418c1.074 1.594 1.702 3.515 1.702 5.582-.001 5.522-4.478 10-10.001 10zm-188.418-180 46.308 78.73c14.54 24.713 35.373 45.295 60.245 59.52 19.634 11.226 41.395 18.276 63.773 20.753l-90.547-153.933c-1.841-3.13-1.841-7.011 0-10.141l90.544-153.924c-51.179 5.706-97.604 35.367-124.016 80.256z"/><path d="m281.021 436c-.008-.001-.015-.001-.021 0-32.129 0-63.864-8.434-91.773-24.389-27.891-15.952-51.251-39.03-67.555-66.74l-49.29-83.801c-1.84-3.13-1.84-7.01 0-10.14l49.29-83.81c16.299-27.702 39.66-50.776 67.558-66.731s59.633-24.389 91.771-24.389c3.588 0 6.899 1.921 8.681 5.035s1.758 6.943-.062 10.035l-97.017 164.93 96.716 164.418c1.074 1.594 1.702 3.515 1.702 5.582 0 5.522-4.477 10-10 10zm-188.418-180 46.308 78.73c14.54 24.713 35.373 45.295 60.245 59.52 19.634 11.226 41.395 18.276 63.773 20.753l-90.547-153.933c-1.841-3.13-1.841-7.011 0-10.141l90.543-153.924c-51.179 5.706-97.603 35.367-124.016 80.256z"/><path d="m91.001 126c-22.056 0-40-17.944-40-40s17.944-40 40-40 40 17.944 40 40-17.943 40-40 40zm0-60c-11.028 0-20 8.972-20 20s8.972 20 20 20 20-8.972 20-20-8.972-20-20-20z"/><path d="m101.001 456c-16.542 0-30-13.458-30-30s13.458-30 30-30 30 13.458 30 30-13.458 30-30 30zm0-40c-5.514 0-10 4.486-10 10s4.486 10 10 10 10-4.486 10-10-4.485-10-10-10z"/><path d="m436.001 296c-19.299 0-35-15.701-35-35s15.701-35 35-35 35 15.701 35 35-15.701 35-35 35zm0-50c-8.271 0-15 6.729-15 15s6.729 15 15 15 15-6.729 15-15-6.729-15-15-15z"/></g></g></svg>