<svg enable-background="new 0 0 512 512" height="512" viewBox="0 0 512 512" width="512" xmlns="http://www.w3.org/2000/svg"><g id="_x31_025_x2C__Arrow_x2C__Direction_x2C__Right_x2C__Multimedia"><g><path d="m53.588 341.34c-1.75-5.24 1.08-10.91 6.32-12.649 5.24-1.75 10.9 1.079 12.65 6.319s-1.08 10.9-6.32 12.65c-5.239 1.75-10.909-1.08-12.65-6.32z"/><path d="m75.999 276c-13.8 0-25-11.19-25-25 0-13.8 11.2-25 25-25 13.81 0 25 11.2 25 25 0 13.81-11.19 25-25 25z" fill="#07cc66"/><path d="m71.519 179.17c-1.75-5.24 1.09-10.91 6.32-12.65 5.24-1.75 10.91 1.08 12.65 6.32 1.75 5.24-1.08 10.91-6.32 12.65-5.24 1.75-10.9-1.08-12.65-6.32z"/><path d="m80.999 426 100-170-100-170c30.98 0 60.8 8.2 86.81 23.07 26 14.87 48.19 36.43 63.9 63.13l49.291 83.8-49.291 83.81c-31.42 53.4-88.751 86.19-150.71 86.19z" fill="#3256c1"/><path d="m161.508 49.16c-1.74-5.24 1.09-10.9 6.33-12.65 5.24-1.74 10.9 1.09 12.65 6.33 1.74 5.24-1.09 10.9-6.33 12.65-5.24 1.74-10.9-1.09-12.65-6.33z"/><path d="m230.999 426 100-170-100-170c30.98 0 60.8 8.2 86.81 23.07 26 14.87 48.19 36.43 63.9 63.13l49.29 83.8-49.29 83.81c-31.42 53.4-88.75 86.19-150.71 86.19z" fill="#5cbeff"/><path d="m261.519 469.16c-1.75-5.24 1.09-10.9 6.32-12.65 5.24-1.74 10.91 1.09 12.649 6.33 1.75 5.24-1.079 10.9-6.319 12.65-5.24 1.74-10.9-1.09-12.65-6.33z"/><path d="m410.999 106c-11.04 0-20-8.95-20-20 0-11.04 8.96-20 20-20 11.05 0 20 8.96 20 20 0 11.05-8.95 20-20 20z" fill="#07cc66"/><path d="m420.999 456c-16.561 0-30-13.43-30-30s13.439-30 30-30c16.569 0 30 13.43 30 30s-13.431 30-30 30z" fill="#07cc66"/><path d="m441.519 139.16c-1.75-5.24 1.08-10.9 6.32-12.65 5.24-1.74 10.91 1.09 12.649 6.33 1.75 5.24-1.079 10.9-6.319 12.65-5.24 1.74-10.9-1.09-12.65-6.33z"/><path d="m451.509 349.16c-1.74-5.24 1.09-10.9 6.33-12.65 5.24-1.74 10.899 1.09 12.649 6.33 1.74 5.24-1.09 10.9-6.329 12.65-5.24 1.74-10.9-1.09-12.65-6.33z"/><path d="m80.999 436c-3.587 0-6.899-1.922-8.681-5.035-1.781-3.114-1.757-6.943.062-10.035l97.017-164.93-97.018-164.93c-1.819-3.092-1.842-6.921-.062-10.035 1.782-3.114 5.094-5.035 8.682-5.035 32.13 0 63.864 8.433 91.773 24.388 27.892 15.952 51.251 39.03 67.556 66.741l49.291 83.801c1.841 3.129 1.841 7.01 0 10.139l-49.29 83.81c-16.299 27.702-39.66 50.776-67.558 66.731-27.899 15.956-59.634 24.39-91.772 24.39zm18.071-339.002 90.548 153.932c1.841 3.129 1.841 7.011 0 10.141l-90.544 153.924c51.179-5.706 97.604-35.367 124.016-80.257l46.307-78.738-46.309-78.73c-14.541-24.713-35.373-45.295-60.245-59.52-19.634-11.225-41.394-18.275-63.773-20.752z"/><path d="m230.999 436c-3.587 0-6.899-1.922-8.681-5.035-1.781-3.114-1.757-6.943.062-10.035l97.017-164.93-97.018-164.93c-1.819-3.092-1.842-6.921-.062-10.035 1.781-3.114 5.093-5.035 8.681-5.035 32.13 0 63.865 8.433 91.773 24.388 27.892 15.952 51.252 39.03 67.556 66.741l49.291 83.801c1.841 3.129 1.841 7.01 0 10.139l-49.29 83.81c-16.299 27.702-39.659 50.776-67.558 66.731-27.898 15.956-59.632 24.39-91.771 24.39zm18.071-339.002 90.548 153.932c1.841 3.129 1.841 7.011 0 10.141l-90.544 153.925c51.179-5.706 97.604-35.367 124.016-80.257l46.307-78.739-46.309-78.73c-14.54-24.713-35.373-45.295-60.245-59.52-19.634-11.225-41.394-18.275-63.773-20.752z"/><path d="m420.999 466c-22.057 0-40-17.944-40-40s17.943-40 40-40c22.056 0 40 17.944 40 40s-17.944 40-40 40zm0-60c-11.028 0-20 8.972-20 20s8.972 20 20 20c11.027 0 20-8.972 20-20s-8.973-20-20-20z"/><path d="m410.999 116c-16.542 0-30-13.458-30-30s13.458-30 30-30 30 13.458 30 30-13.458 30-30 30zm0-40c-5.515 0-10 4.486-10 10s4.485 10 10 10c5.514 0 10-4.486 10-10s-4.486-10-10-10z"/><path d="m75.999 286c-19.299 0-35-15.701-35-35s15.701-35 35-35 35 15.701 35 35-15.702 35-35 35zm0-50c-8.271 0-15 6.729-15 15s6.729 15 15 15 15-6.729 15-15-6.729-15-15-15z"/></g></g></svg>