<svg enable-background="new 0 0 512 512" height="512" viewBox="0 0 512 512" width="512" xmlns="http://www.w3.org/2000/svg"><g id="_x39_51_x2C__Arrow_x2C__Forward_x2C__Right"><g><path d="m76 61c0-8.28 6.72-15 15-15s15 6.72 15 15c0 8.29-6.72 15-15 15s-15-6.71-15-15z" fill="#ffd400"/><path d="m222.84 76.51c5.24-1.74 10.9 1.09 12.65 6.33s-1.09 10.9-6.32 12.65c-5.24 1.74-10.91-1.09-12.65-6.33-1.75-5.24 1.08-10.9 6.32-12.65z"/><path d="m396 96c0-11.04 8.95-20 20-20 11.051 0 20 8.96 20 20 0 11.05-8.949 20-20 20-11.05 0-20-8.95-20-20z" fill="#ffd400"/><path d="m146 116 137.5 132.5-137.5 127.5z" fill="#d94556"/><path d="m286 116 137.5 132.5-137.5 127.5z" fill="#cd2738"/><path d="m422.83 156.52c5.24-1.75 10.91 1.08 12.65 6.32 1.75 5.24-1.08 10.91-6.32 12.65-5.24 1.75-10.9-1.08-12.65-6.32s1.09-10.9 6.32-12.65z"/><path d="m82.84 236.52c5.24-1.75 10.9 1.08 12.65 6.32s-1.09 10.91-6.32 12.65c-5.24 1.75-10.91-1.08-12.65-6.32-1.75-5.24 1.08-10.9 6.32-12.65z"/><path d="m432.83 336.521c5.24-1.75 10.91 1.079 12.65 6.319 1.75 5.24-1.08 10.91-6.32 12.65-5.24 1.75-10.9-1.08-12.65-6.32s1.09-10.899 6.32-12.649z"/><path d="m342.83 416.521c5.24-1.75 10.91 1.079 12.65 6.319 1.75 5.24-1.08 10.91-6.32 12.65-5.24 1.75-10.9-1.08-12.65-6.32s1.09-10.899 6.32-12.649z"/><path d="m156 441c0-13.8 11.19-25 25-25s25 11.2 25 25c0 13.811-11.19 25-25 25s-25-11.189-25-25z" fill="#ffd400"/><path d="m285.998 386c-1.352 0-2.712-.273-3.998-.835-3.645-1.591-6-5.189-6-9.165v-260c0-4.011 2.396-7.634 6.088-9.203s7.963-.781 10.852 2.002l137.5 132.5c1.979 1.908 3.086 4.547 3.061 7.297-.027 2.75-1.185 5.367-3.201 7.236l-137.5 127.5c-1.887 1.75-4.327 2.668-6.802 2.668zm10.002-246.476v213.566l112.943-104.73z"/><path d="m145.998 386c-1.351 0-2.712-.273-3.999-.835-3.644-1.591-6-5.189-6-9.165v-260c0-4.011 2.396-7.634 6.088-9.203s7.963-.781 10.851 2.002l137.5 132.5c1.979 1.908 3.086 4.547 3.061 7.297-.027 2.75-1.185 5.367-3.201 7.236l-137.5 127.5c-1.885 1.75-4.325 2.668-6.8 2.668zm10.002-246.476v213.566l112.943-104.73z"/><path d="m416 126c-16.542 0-30-13.458-30-30s13.458-30 30-30 30 13.458 30 30-13.458 30-30 30zm0-40c-5.514 0-10 4.486-10 10s4.486 10 10 10 10-4.486 10-10-4.486-10-10-10z"/><path d="m91 86c-13.785 0-25-11.215-25-25s11.215-25 25-25 25 11.215 25 25-11.215 25-25 25zm0-30c-2.757 0-5 2.243-5 5s2.243 5 5 5 5-2.243 5-5-2.243-5-5-5z"/><path d="m181 476c-19.299 0-35-15.701-35-35s15.701-35 35-35 35 15.701 35 35-15.701 35-35 35zm0-50c-8.271 0-15 6.729-15 15s6.729 15 15 15 15-6.729 15-15-6.729-15-15-15z"/></g></g></svg>