<svg enable-background="new 0 0 512 512" height="512" viewBox="0 0 512 512" width="512" xmlns="http://www.w3.org/2000/svg"><g id="_x39_52_x2C__Arrow_x2C__Left_x2C__Rewind"><g><path d="m436 451c0 8.28-6.72 15-15 15-8.279 0-15-6.72-15-15 0-8.29 6.721-15 15-15 8.28 0 15 6.71 15 15z" fill="#ffd400"/><path d="m289.16 435.49c-5.24 1.74-10.9-1.09-12.65-6.33s1.09-10.9 6.32-12.65c5.24-1.739 10.91 1.091 12.65 6.33 1.75 5.24-1.08 10.9-6.32 12.65z"/><path d="m116 416c0 11.04-8.95 20-20 20s-20-8.96-20-20c0-11.05 8.95-20 20-20s20 8.95 20 20z" fill="#ffd400"/><path d="m366 396-137.5-132.5 137.5-127.5z" fill="#d94556"/><path d="m226 396-137.5-132.5 137.5-127.5z" fill="#cd2738"/><path d="m89.17 355.48c-5.24 1.75-10.91-1.08-12.65-6.32-1.75-5.24 1.08-10.91 6.32-12.65 5.24-1.75 10.9 1.08 12.65 6.32s-1.09 10.9-6.32 12.65z"/><path d="m429.16 275.48c-5.24 1.75-10.9-1.08-12.65-6.32s1.09-10.91 6.32-12.65c5.24-1.75 10.91 1.08 12.65 6.32 1.75 5.24-1.08 10.9-6.32 12.65z"/><path d="m79.17 175.48c-5.24 1.75-10.91-1.08-12.65-6.32-1.75-5.24 1.08-10.91 6.32-12.65 5.24-1.75 10.9 1.08 12.65 6.32s-1.09 10.9-6.32 12.65z"/><path d="m169.17 95.48c-5.24 1.75-10.91-1.08-12.65-6.32-1.75-5.24 1.08-10.91 6.32-12.65 5.24-1.75 10.9 1.08 12.65 6.32s-1.09 10.9-6.32 12.65z"/><path d="m356 71c0 13.8-11.189 25-25 25s-25-11.2-25-25c0-13.81 11.189-25 25-25s25 11.19 25 25z" fill="#ffd400"/><path d="m226.002 406c-2.54 0-5.04-.968-6.941-2.799l-137.5-132.5c-1.98-1.908-3.087-4.548-3.061-7.297.026-2.75 1.184-5.367 3.2-7.237l137.5-127.5c2.916-2.704 7.156-3.422 10.8-1.833 3.644 1.591 6 5.189 6 9.165v260c0 4.011-2.396 7.634-6.088 9.203-1.262.537-2.591.798-3.91.798zm-122.945-142.36 112.943 108.837v-213.567z"/><path d="m366.002 406c-2.539 0-5.04-.968-6.941-2.799l-137.5-132.5c-1.98-1.908-3.087-4.548-3.061-7.297.026-2.75 1.184-5.367 3.2-7.237l137.5-127.5c2.916-2.704 7.156-3.422 10.799-1.833 3.645 1.591 6 5.189 6 9.165v260c0 4.011-2.396 7.634-6.088 9.203-1.261.537-2.591.798-3.909.798zm-122.945-142.36 112.943 108.837v-213.567z"/><path d="m96 446c-16.542 0-30-13.458-30-30s13.458-30 30-30 30 13.458 30 30-13.458 30-30 30zm0-40c-5.514 0-10 4.486-10 10s4.486 10 10 10 10-4.486 10-10-4.486-10-10-10z"/><path d="m421 476c-13.785 0-25-11.215-25-25s11.215-25 25-25 25 11.215 25 25-11.215 25-25 25zm0-30c-2.757 0-5 2.243-5 5s2.243 5 5 5 5-2.243 5-5-2.243-5-5-5z"/><path d="m331 106c-19.299 0-35-15.701-35-35s15.701-35 35-35 35 15.701 35 35-15.701 35-35 35zm0-50c-8.271 0-15 6.729-15 15s6.729 15 15 15 15-6.729 15-15-6.729-15-15-15z"/></g></g></svg>