<svg enable-background="new 0 0 512 512" height="512" viewBox="0 0 512 512" width="512" xmlns="http://www.w3.org/2000/svg"><g id="_x39_53_x2C__Arrow_x2C__Down_x2C__Full_x2C__Left"><g><g fill="#f88f19"><path d="m421.001 205.999c16.561 0 30 13.43 30 30s-13.439 30-30 30c-16.569 0-30-13.43-30-30s13.431-30 30-30z"/><path d="m121.001 195.999c11.04 0 20 8.95 20 20s-8.96 20-20 20c-11.05 0-20-8.95-20-20s8.951-20 20-20z"/><path d="m136.001 415.999c13.8 0 25 11.19 25 25s-11.2 25-25 25c-13.81 0-25-11.19-25-25s11.19-25 25-25z"/></g><path d="m250.091 105.999h130.91s-17.83 10.68-35.609 21.01c-21.851 12.69-35.301 36.03-35.301 61.3v137.69h60l-109.55 120-109.54-120h59.09v-180c0-11.04 4.48-21.04 11.71-28.28 7.241-7.24 17.241-11.72 28.29-11.72z" fill="#3256c1"/><path d="m430.491 152.839c1.74 5.24-1.09 10.9-6.33 12.65s-10.899-1.09-12.649-6.32c-1.74-5.24 1.09-10.91 6.329-12.65 5.24-1.75 10.9 1.08 12.65 6.32z"/><path d="m420.491 382.839c1.74 5.24-1.09 10.9-6.33 12.65s-10.899-1.09-12.649-6.32c-1.74-5.24 1.09-10.91 6.329-12.65 5.24-1.75 10.9 1.08 12.65 6.32z"/><path d="m290.491 42.839c1.74 5.24-1.09 10.9-6.33 12.65s-10.899-1.09-12.649-6.32c-1.74-5.24 1.09-10.91 6.329-12.65 5.24-1.75 10.9 1.08 12.65 6.32z"/><path d="m120.492 112.829c1.74 5.24-1.09 10.91-6.33 12.65-5.24 1.75-10.9-1.08-12.65-6.32-1.74-5.24 1.09-10.9 6.33-12.65s10.9 1.09 12.65 6.32z"/><path d="m70.492 312.839c1.74 5.24-1.09 10.9-6.33 12.65s-10.9-1.09-12.65-6.32c-1.74-5.24 1.09-10.91 6.33-12.65 5.24-1.75 10.9 1.08 12.65 6.32z"/><path d="m260.541 455.999c-2.811 0-5.491-1.183-7.385-3.258l-109.54-120c-2.671-2.927-3.363-7.153-1.764-10.778s5.188-5.964 9.149-5.964h49.09v-170c0-13.344 5.197-25.897 14.635-35.346 9.451-9.451 22.009-14.654 35.365-14.654h130.91c4.496 0 8.439 3.001 9.639 7.334 1.198 4.333-.643 8.934-4.5 11.245-.179.107-18.091 10.833-35.725 21.078-18.705 10.864-30.324 31.039-30.324 52.654v127.69h50c3.962 0 7.551 2.339 9.149 5.964 1.6 3.625.907 7.853-1.764 10.778l-109.55 120c-1.894 2.074-4.574 3.257-7.385 3.257zm-86.872-120 86.873 95.168 86.88-95.168h-37.331c-5.522 0-10-4.478-10-10v-137.69c0-28.716 15.434-55.518 40.278-69.948 1.354-.786 2.708-1.575 4.057-2.362h-94.334c-8.014 0-15.55 3.122-21.218 8.791-5.662 5.669-8.782 13.202-8.782 21.209v180c0 5.522-4.477 10-10 10z"/><path d="m421.001 275.999c-22.056 0-40-17.944-40-40s17.944-40 40-40c22.057 0 40 17.944 40 40s-17.943 40-40 40zm0-60c-11.027 0-20 8.972-20 20s8.973 20 20 20c11.028 0 20-8.972 20-20s-8.972-20-20-20z"/><path d="m121.001 245.999c-16.542 0-30-13.458-30-30s13.458-30 30-30 30 13.458 30 30-13.458 30-30 30zm0-40c-5.514 0-10 4.486-10 10s4.486 10 10 10 10-4.486 10-10-4.485-10-10-10z"/><path d="m136.001 475.999c-19.299 0-35-15.701-35-35s15.701-35 35-35 35 15.701 35 35-15.701 35-35 35zm0-50c-8.271 0-15 6.729-15 15s6.729 15 15 15 15-6.729 15-15-6.729-15-15-15z"/></g></g></svg>