<svg enable-background="new 0 0 512 512" height="512" viewBox="0 0 512 512" width="512" xmlns="http://www.w3.org/2000/svg"><g id="_x39_54_x2C__Arrow_x2C__Forward_x2C__Right_Up"><g><path d="m90.999 306.001c-16.56 0-30-13.43-30-30s13.44-30 30-30c16.57 0 30 13.43 30 30s-13.431 30-30 30z" fill="#f88f19"/><path d="m81.508 359.161c-1.74-5.24 1.09-10.9 6.33-12.65s10.9 1.09 12.65 6.32c1.74 5.24-1.09 10.91-6.33 12.65-5.24 1.75-10.9-1.08-12.65-6.32z"/><path d="m91.508 129.161c-1.74-5.24 1.09-10.9 6.33-12.65s10.9 1.09 12.65 6.32c1.74 5.24-1.09 10.91-6.33 12.65-5.24 1.75-10.9-1.08-12.65-6.32z"/><path d="m261.909 406.001h-130.91s17.83-10.68 35.61-21.01c21.85-12.69 35.3-36.03 35.3-61.3v-137.69h-60l109.55-120 109.541 120h-59.09v180c0 11.04-4.48 21.04-11.711 28.28-7.24 7.24-17.24 11.72-28.29 11.72z" fill="#3256c1"/><path d="m221.508 469.161c-1.74-5.24 1.09-10.9 6.33-12.65s10.9 1.09 12.65 6.32c1.74 5.24-1.09 10.91-6.33 12.65-5.24 1.75-10.9-1.08-12.65-6.32z"/><path d="m375.999 96.001c-13.801 0-25-11.19-25-25s11.199-25 25-25c13.81 0 25 11.19 25 25s-11.19 25-25 25z" fill="#f88f19"/><path d="m390.999 316.001c-11.04 0-20-8.95-20-20s8.96-20 20-20c11.05 0 20 8.95 20 20s-8.95 20-20 20z" fill="#f88f19"/><path d="m391.509 399.171c-1.74-5.24 1.09-10.91 6.33-12.65 5.24-1.75 10.899 1.08 12.649 6.32 1.74 5.24-1.09 10.9-6.329 12.65-5.24 1.75-10.9-1.09-12.65-6.32z"/><path d="m441.509 199.161c-1.74-5.24 1.09-10.9 6.33-12.65s10.899 1.09 12.649 6.32c1.74 5.24-1.09 10.91-6.329 12.65-5.24 1.75-10.9-1.08-12.65-6.32z"/><path d="m261.909 416.001h-130.91c-4.496 0-8.439-3.001-9.638-7.334-1.199-4.334.643-8.935 4.5-11.245.179-.106 18.091-10.832 35.725-21.077 18.705-10.864 30.324-31.039 30.324-52.653v-127.69h-50c-3.962 0-7.55-2.339-9.149-5.964s-.907-7.852 1.764-10.778l109.55-120c1.895-2.075 4.575-3.258 7.385-3.258 2.811 0 5.491 1.183 7.386 3.258l109.54 120c2.671 2.926 3.362 7.153 1.764 10.778-1.6 3.625-5.188 5.964-9.149 5.964h-49.09v170c0 13.344-5.197 25.896-14.635 35.347-9.454 9.45-22.011 14.652-35.367 14.652zm-94.335-20h94.335c8.014 0 15.549-3.122 21.219-8.791 5.661-5.669 8.781-13.202 8.781-21.209v-180c0-5.523 4.477-10 10-10h36.422l-86.873-95.167-86.88 95.167h37.331c5.523 0 10 4.477 10 10v137.69c0 28.716-15.434 55.518-40.278 69.947-1.354.787-2.709 1.576-4.057 2.363z"/><path d="m90.999 316.001c-22.056 0-40-17.944-40-40s17.944-40 40-40 40 17.944 40 40-17.944 40-40 40zm0-60c-11.028 0-20 8.972-20 20s8.972 20 20 20 20-8.972 20-20-8.973-20-20-20z"/><path d="m390.999 326.001c-16.542 0-30-13.458-30-30s13.458-30 30-30 30 13.458 30 30-13.458 30-30 30zm0-40c-5.515 0-10 4.486-10 10s4.485 10 10 10c5.514 0 10-4.486 10-10s-4.486-10-10-10z"/><path d="m375.999 106.001c-19.299 0-35-15.701-35-35s15.701-35 35-35 35 15.701 35 35-15.701 35-35 35zm0-50c-8.271 0-15 6.729-15 15s6.729 15 15 15 15-6.729 15-15-6.729-15-15-15z"/></g></g></svg>