<svg enable-background="new 0 0 512 512" height="512" viewBox="0 0 512 512" width="512" xmlns="http://www.w3.org/2000/svg"><g id="_x39_55_x2C__Arrow_x2C__Forward_x2C__Left"><g><path d="m306.001 421.002c0 16.56-13.43 30-30 30-16.569 0-30-13.44-30-30 0-16.57 13.431-30 30-30 16.57 0 30 13.43 30 30z" fill="#f88f19"/><path d="m359.161 430.491c-5.24 1.74-10.899-1.09-12.649-6.329-1.75-5.24 1.09-10.9 6.319-12.65 5.24-1.74 10.91 1.09 12.65 6.33 1.75 5.24-1.08 10.899-6.32 12.649z"/><path d="m129.161 420.491c-5.24 1.74-10.9-1.09-12.65-6.329-1.75-5.24 1.09-10.9 6.32-12.65 5.24-1.74 10.91 1.09 12.65 6.33 1.75 5.24-1.08 10.899-6.32 12.649z"/><path d="m406.001 250.091v130.911s-10.68-17.83-21.01-35.61c-12.689-21.85-36.03-35.3-61.3-35.3h-137.69v60l-120-109.55 120-109.541v59.09h180c11.04 0 21.04 4.48 28.28 11.71 7.24 7.24 11.72 17.24 11.72 28.29z" fill="#3256c1"/><path d="m469.161 290.491c-5.24 1.74-10.899-1.09-12.649-6.329-1.75-5.24 1.09-10.9 6.319-12.65 5.24-1.74 10.91 1.09 12.65 6.33 1.75 5.24-1.08 10.899-6.32 12.649z"/><path d="m96.001 136.001c0 13.8-11.19 25-25 25s-25-11.2-25-25c0-13.81 11.19-25 25-25s25 11.19 25 25z" fill="#f88f19"/><path d="m316.001 121.001c0 11.04-8.949 20-20 20-11.05 0-20-8.96-20-20 0-11.05 8.95-20 20-20 11.051 0 20 8.95 20 20z" fill="#f88f19"/><path d="m399.171 120.491c-5.239 1.74-10.909-1.09-12.649-6.33-1.75-5.24 1.08-10.9 6.32-12.65 5.239-1.74 10.899 1.09 12.649 6.33s-1.09 10.9-6.32 12.65z"/><path d="m199.161 70.491c-5.24 1.74-10.9-1.09-12.65-6.33s1.09-10.9 6.32-12.65c5.24-1.74 10.91 1.09 12.65 6.33 1.75 5.24-1.08 10.9-6.32 12.65z"/><path d="m406.001 391.003c-3.451 0-6.74-1.793-8.578-4.862-.107-.179-10.833-18.092-21.078-35.726-10.863-18.704-31.039-30.323-52.653-30.323h-127.69v50c0 3.962-2.339 7.551-5.964 9.149-3.626 1.6-7.853.907-10.778-1.764l-120-109.55c-2.076-1.896-3.258-4.575-3.258-7.386s1.183-5.492 3.258-7.386l120-109.541c2.926-2.67 7.153-3.362 10.778-1.764 3.625 1.599 5.964 5.188 5.964 9.149v49.09h170c13.344 0 25.896 5.197 35.347 14.634 9.451 9.452 14.653 22.01 14.653 35.366v130.911c0 4.496-3.001 8.439-7.334 9.638-.886.247-1.782.365-2.667.365zm-325.168-130.461 95.167 86.88v-37.33c0-5.522 4.477-10 10-10h137.69c28.716 0 55.519 15.434 69.947 40.277.786 1.354 1.575 2.709 2.362 4.058v-94.335c0-8.015-3.122-15.55-8.791-21.219-5.668-5.661-13.202-8.781-21.209-8.781h-180c-5.523 0-10-4.477-10-10v-36.422z"/><path d="m276.001 461.002c-22.056 0-40-17.944-40-40s17.944-40 40-40c22.057 0 40 17.944 40 40s-17.943 40-40 40zm0-60c-11.027 0-20 8.972-20 20s8.973 20 20 20c11.028 0 20-8.972 20-20s-8.972-20-20-20z"/><path d="m296.001 151.001c-16.542 0-30-13.458-30-30s13.458-30 30-30 30 13.458 30 30-13.458 30-30 30zm0-40c-5.514 0-10 4.486-10 10s4.486 10 10 10c5.515 0 10-4.486 10-10s-4.485-10-10-10z"/><path d="m71.001 171.001c-19.299 0-35-15.701-35-35s15.701-35 35-35 35 15.701 35 35-15.701 35-35 35zm0-50c-8.271 0-15 6.729-15 15s6.729 15 15 15 15-6.729 15-15-6.729-15-15-15z"/></g></g></svg>