<svg enable-background="new 0 0 512 512" height="512" viewBox="0 0 512 512" width="512" xmlns="http://www.w3.org/2000/svg"><g id="_x39_56_x2C__Arrow_x2C__Forward_x2C__Right"><g><path d="m205.999 421.002c0 16.56 13.43 30 30 30s30-13.44 30-30c0-16.57-13.43-30-30-30s-30 13.43-30 30z" fill="#f88f19"/><path d="m152.839 430.492c5.24 1.739 10.9-1.09 12.65-6.33s-1.09-10.9-6.32-12.65c-5.24-1.74-10.91 1.09-12.65 6.33-1.75 5.24 1.08 10.9 6.32 12.65z"/><path d="m382.839 420.492c5.24 1.739 10.9-1.09 12.65-6.33s-1.09-10.9-6.32-12.65c-5.24-1.74-10.91 1.09-12.65 6.33-1.75 5.24 1.08 10.9 6.32 12.65z"/><path d="m105.999 250.091v130.911s10.68-17.83 21.01-35.61c12.69-21.85 36.03-35.3 61.3-35.3h137.69v60l120-109.55-120-109.541v59.09h-180c-11.04 0-21.04 4.48-28.28 11.71-7.24 7.241-11.72 17.241-11.72 28.29z" fill="#3256c1"/><path d="m42.839 290.492c5.24 1.739 10.9-1.09 12.65-6.33s-1.09-10.9-6.32-12.65c-5.24-1.74-10.91 1.09-12.65 6.33-1.75 5.24 1.08 10.9 6.32 12.65z"/><path d="m415.999 136.001c0 13.8 11.189 25 25 25 13.81 0 25-11.2 25-25 0-13.81-11.19-25-25-25-13.811 0-25 11.19-25 25z" fill="#f88f19"/><path d="m195.999 121.001c0 11.04 8.95 20 20 20s20-8.96 20-20c0-11.05-8.95-20-20-20s-20 8.95-20 20z" fill="#f88f19"/><path d="m112.829 120.491c5.24 1.74 10.91-1.09 12.65-6.33 1.75-5.24-1.08-10.9-6.32-12.65-5.24-1.74-10.9 1.09-12.65 6.33-1.75 5.241 1.09 10.9 6.32 12.65z"/><path d="m312.839 70.491c5.24 1.74 10.9-1.09 12.65-6.33s-1.09-10.9-6.32-12.65c-5.24-1.74-10.91 1.09-12.65 6.33-1.75 5.241 1.08 10.9 6.32 12.65z"/><path d="m106 391.003c-.886 0-1.781-.118-2.667-.363-4.333-1.198-7.334-5.142-7.334-9.638v-130.911c0-13.356 5.203-25.915 14.649-35.361 9.455-9.441 22.007-14.639 35.351-14.639h170v-49.09c0-3.962 2.339-7.55 5.964-9.149 3.624-1.599 7.852-.907 10.777 1.764l120 109.54c2.076 1.895 3.259 4.576 3.259 7.386s-1.183 5.49-3.258 7.386l-120 109.55c-2.927 2.67-7.153 3.363-10.778 1.764s-5.964-5.188-5.964-9.149v-50h-127.69c-21.615 0-41.79 11.619-52.652 30.322-10.246 17.635-20.972 35.548-21.079 35.727-1.839 3.068-5.128 4.861-8.578 4.861zm82.309-90.911h137.69c5.522 0 10 4.478 10 10v37.33l95.167-86.88-95.167-86.873v36.422c0 5.523-4.478 10-10 10h-180c-8.006 0-15.54 3.12-21.213 8.786-5.665 5.665-8.787 13.2-8.787 21.214v94.335c.788-1.35 1.577-2.704 2.364-4.059 14.428-24.842 41.23-40.275 69.946-40.275z"/><path d="m235.999 461.002c-22.056 0-40-17.944-40-40s17.944-40 40-40 40 17.944 40 40-17.944 40-40 40zm0-60c-11.028 0-20 8.972-20 20s8.972 20 20 20 20-8.972 20-20-8.972-20-20-20z"/><path d="m215.999 151.001c-16.542 0-30-13.458-30-30s13.458-30 30-30 30 13.458 30 30-13.458 30-30 30zm0-40c-5.514 0-10 4.486-10 10s4.486 10 10 10 10-4.486 10-10-4.486-10-10-10z"/><path d="m440.999 171.001c-19.299 0-35-15.701-35-35s15.701-35 35-35 35 15.701 35 35-15.701 35-35 35zm0-50c-8.271 0-15 6.729-15 15s6.729 15 15 15 15-6.729 15-15-6.729-15-15-15z"/></g></g></svg>