<svg enable-background="new 0 0 512 512" height="512" viewBox="0 0 512 512" width="512" xmlns="http://www.w3.org/2000/svg"><g id="_x39_57_x2C__Arrow_x2C__Down_x2C__Right"><g><g fill="#07cc66"><path d="m254.595 50.831c11.72 11.72 11.72 30.71 0 42.43-11.71 11.71-30.71 11.71-42.42 0-11.72-11.72-11.72-30.71 0-42.43 11.71-11.72 30.71-11.72 42.42 0z"/><circle cx="441.25" cy="278.616" r="20.004"/><path d="m84.895 257.82c7.81 7.811 7.81 20.471 0 28.28-7.81 7.811-20.48 7.811-28.29 0-7.81-7.81-7.81-20.47 0-28.28 7.81-7.809 20.48-7.809 28.29 0z"/></g><path d="m392.734 169.681c10.801 10.8 15.08 26.5 11.24 41.29l-43.31 167.06-167.06 43.31c-3.57.93-7.2 1.38-10.8 1.38-11.29 0-22.3-4.439-30.49-12.63-23.57-23.56-12.6-63.82 19.66-72.189l61.83-16.03-120.63-120.62c-9.76-9.77-14.64-22.56-14.64-35.35 0-12.8 4.88-25.6 14.64-35.36 19.53-19.53 51.19-19.53 70.71 0l120.631 120.62 16.029-61.82c5.29-20.42 23.359-32.31 41.891-32.31 10.751-.001 21.65 3.999 30.299 12.649z" fill="#5cbeff"/><path d="m414.415 389.131c5.239 1.75 8.069 7.41 6.319 12.65-1.75 5.239-7.41 8.069-12.649 6.319-5.24-1.739-8.069-7.399-6.319-12.64 1.739-5.239 7.409-8.079 12.649-6.329z"/><path d="m293.115 119.131c5.24 1.74 8.07 7.41 6.32 12.64-1.74 5.24-7.41 8.08-12.65 6.33-5.23-1.75-8.07-7.41-6.32-12.65s7.41-8.07 12.65-6.32z"/><path d="m271.904 460.471c5.24 1.74 8.07 7.41 6.32 12.65-1.74 5.24-7.41 8.07-12.65 6.32-5.239-1.75-8.069-7.41-6.319-12.65s7.41-8.07 12.649-6.32z"/><path d="m74.415 379.131c5.24 1.74 8.07 7.41 6.33 12.64-1.75 5.24-7.41 8.08-12.65 6.33s-8.07-7.409-6.33-12.649c1.75-5.241 7.41-8.071 12.65-6.321z"/><path d="m64.415 79.131c5.24 1.75 8.07 7.41 6.32 12.65s-7.41 8.07-12.65 6.32c-5.24-1.74-8.07-7.41-6.32-12.64 1.74-5.24 7.41-8.08 12.65-6.33z"/><path d="m182.805 432.721c-14.189 0-27.529-5.525-37.562-15.559-13.632-13.627-18.75-32.871-13.687-51.477 5.065-18.615 19.236-32.62 37.907-37.464l44.906-11.643-108.265-108.256c-11.331-11.343-17.569-26.407-17.569-42.421 0-16.033 6.239-31.102 17.568-42.431 11.334-11.334 26.403-17.576 42.43-17.576 16.028 0 31.094 6.243 42.424 17.578l108.265 108.256 11.643-44.897c6.07-23.433 27.277-39.8 51.57-39.8 14.053 0 27.324 5.533 37.371 15.58 13.248 13.249 18.555 32.742 13.848 50.874l-43.309 167.057c-.912 3.515-3.656 6.259-7.172 7.17l-167.06 43.31c-4.326 1.125-8.807 1.699-13.308 1.699zm-34.271-306.827c-10.685 0-20.731 4.162-28.288 11.719-7.552 7.552-11.711 17.598-11.711 28.289 0 10.676 4.16 20.721 11.714 28.283l120.627 120.615c2.537 2.536 3.521 6.237 2.578 9.698-.942 3.462-3.667 6.152-7.139 7.053l-61.83 16.03c-11.638 3.02-20.472 11.75-23.63 23.355-3.155 11.596.033 23.589 8.529 32.082 6.257 6.257 14.574 9.702 23.421 9.702 2.801 0 5.586-.355 8.28-1.057l161.376-41.837 41.834-161.365c2.935-11.303-.373-23.452-8.631-31.709-6.27-6.27-14.519-9.722-23.229-9.722-12.832 0-27.77 7.674-32.21 24.818l-16.03 61.822c-.9 3.473-3.592 6.196-7.053 7.139-3.461.941-7.162-.041-9.698-2.577l-120.63-120.62c-7.554-7.557-17.597-11.718-28.28-11.718z"/><path d="m441.25 308.619c-8.016 0-15.551-3.121-21.217-8.787-11.697-11.698-11.697-30.733 0-42.433 5.667-5.666 13.201-8.786 21.217-8.786s15.55 3.12 21.216 8.786c5.667 5.667 8.786 13.201 8.786 21.217s-3.12 15.55-8.786 21.216c-5.665 5.666-13.2 8.787-21.216 8.787zm0-40.006c-2.674 0-5.186 1.04-7.074 2.929-3.9 3.9-3.9 10.247 0 14.147 1.889 1.889 4.401 2.93 7.074 2.93s5.186-1.041 7.074-2.93 2.928-4.4 2.928-7.073c0-2.674-1.039-5.186-2.928-7.074s-4.4-2.929-7.074-2.929z"/><path d="m233.385 112.043c-10.685 0-20.729-4.159-28.281-11.712-7.557-7.557-11.718-17.602-11.718-28.286s4.162-20.729 11.718-28.286c7.55-7.556 17.595-11.719 28.281-11.719s20.731 4.163 28.284 11.722c7.554 7.554 11.716 17.599 11.716 28.283s-4.162 20.729-11.719 28.286c-7.552 7.553-17.596 11.712-28.281 11.712zm0-60.002c-5.341 0-10.361 2.081-14.136 5.858-7.802 7.802-7.802 20.492-.003 28.291 3.774 3.775 8.796 5.854 14.139 5.854s10.364-2.079 14.139-5.854c3.78-3.78 5.861-8.803 5.861-14.144s-2.082-10.364-5.861-14.144c-3.778-3.78-8.798-5.861-14.139-5.861z"/><path d="m70.75 301.959c-8.016 0-15.55-3.121-21.216-8.787s-8.786-13.198-8.786-21.211 3.12-15.545 8.786-21.211 13.201-8.786 21.216-8.786 15.55 3.12 21.216 8.786c5.666 5.667 8.786 13.199 8.786 21.211s-3.121 15.545-8.787 21.211c-5.665 5.666-13.199 8.787-21.215 8.787zm0-39.996c-2.673 0-5.186 1.04-7.074 2.929-1.889 1.889-2.929 4.399-2.929 7.069s1.04 5.18 2.928 7.068c1.889 1.889 4.401 2.93 7.074 2.93s5.185-1.041 7.074-2.93 2.929-4.398 2.929-7.068-1.04-5.181-2.929-7.069c-1.887-1.889-4.4-2.929-7.073-2.929z"/></g></g></svg>