<svg enable-background="new 0 0 512 512" height="512" viewBox="0 0 512 512" width="512" xmlns="http://www.w3.org/2000/svg"><g id="_x39_58_x2C__Arrow_x2C__Down_x2C__Left"><g><circle cx="233.384" cy="441.25" fill="#07cc66" r="20.004"/><path d="m122.869 414.415c-1.75 5.24-7.41 8.07-12.65 6.32s-8.07-7.41-6.32-12.65c1.74-5.24 7.4-8.07 12.64-6.32 5.24 1.74 8.08 7.41 6.33 12.65z"/><path d="m342.319 392.735c-10.801 10.8-26.5 15.08-41.29 11.239l-167.06-43.31-43.31-167.061c-.93-3.569-1.38-7.199-1.38-10.8 0-11.29 4.44-22.3 12.63-30.49 23.56-23.569 63.82-12.6 72.19 19.66l16.03 61.83 120.62-120.63c9.77-9.76 22.56-14.64 35.35-14.64 12.801 0 25.601 4.88 35.36 14.64 19.53 19.53 19.53 51.19 0 70.71l-120.62 120.63 61.82 16.03c20.42 5.29 32.31 23.36 32.31 41.891 0 10.752-4 21.651-12.65 30.301z" fill="#5cbeff"/><path d="m392.869 293.115c-1.74 5.24-7.41 8.07-12.641 6.32-5.239-1.74-8.079-7.41-6.329-12.65 1.75-5.23 7.409-8.07 12.649-6.32s8.071 7.41 6.321 12.65z"/><path d="m51.529 271.905c-1.74 5.24-7.41 8.069-12.65 6.319-5.24-1.739-8.07-7.409-6.32-12.649s7.41-8.07 12.65-6.32 8.07 7.41 6.32 12.65z"/><path d="m461.169 254.595c-11.72 11.721-30.71 11.721-42.43 0-11.71-11.71-11.71-30.71 0-42.42 11.72-11.72 30.71-11.72 42.43 0 11.72 11.71 11.72 30.71 0 42.42z" fill="#07cc66"/><path d="m254.179 84.895c-7.81 7.811-20.47 7.811-28.28 0-7.81-7.81-7.81-20.479 0-28.29 7.81-7.81 20.47-7.81 28.28 0s7.81 20.48 0 28.29z" fill="#07cc66"/><path d="m132.869 74.415c-1.74 5.24-7.41 8.069-12.64 6.33-5.24-1.75-8.08-7.41-6.33-12.65s7.41-8.07 12.65-6.33c5.24 1.75 8.07 7.41 6.32 12.65z"/><path d="m432.869 64.415c-1.75 5.24-7.41 8.069-12.65 6.319s-8.069-7.409-6.319-12.649c1.739-5.24 7.409-8.07 12.64-6.32 5.239 1.74 8.079 7.41 6.329 12.65z"/><path d="m311.855 415.359c-4.494 0-8.982-.574-13.34-1.706l-167.056-43.309c-3.515-.911-6.259-3.655-7.17-7.17l-43.31-167.061c-1.127-4.325-1.7-8.807-1.7-13.31 0-14.188 5.525-27.527 15.559-37.562 10.041-10.045 23.31-15.577 37.36-15.577 24.29 0 45.5 16.365 51.581 39.798l11.643 44.906 108.256-108.266c11.342-11.331 26.406-17.569 42.421-17.569 16.033 0 31.103 6.239 42.432 17.569 11.334 11.334 17.576 26.402 17.576 42.429 0 16.028-6.243 31.095-17.578 42.425l-108.258 108.267 44.897 11.643c23.433 6.07 39.8 27.277 39.8 51.57 0 14.052-5.532 27.324-15.578 37.371-10.03 10.029-23.36 15.552-37.535 15.552zm-169.682-62.898 161.365 41.834c2.722.706 5.519 1.064 8.317 1.064 8.833 0 17.141-3.443 23.393-9.695 6.269-6.269 9.721-14.519 9.721-23.229 0-12.832-7.674-27.769-24.817-32.21l-61.822-16.031c-3.472-.9-6.196-3.591-7.139-7.053-.942-3.461.041-7.161 2.578-9.697l120.62-120.63c7.558-7.555 11.719-17.597 11.719-28.281s-4.162-20.73-11.719-28.287c-7.552-7.552-17.599-11.711-28.289-11.711-10.676 0-20.721 4.16-28.282 11.715l-120.617 120.626c-2.536 2.536-6.238 3.521-9.698 2.578-3.461-.942-6.153-3.667-7.053-7.14l-16.03-61.83c-4.448-17.144-19.388-24.818-32.221-24.818-8.707 0-16.952 3.451-23.217 9.719-6.257 6.257-9.702 14.574-9.702 23.42 0 2.802.355 5.587 1.057 8.278z"/><path d="m233.384 471.253c-8.015 0-15.55-3.12-21.216-8.786-11.699-11.699-11.699-30.734 0-42.433 5.666-5.666 13.2-8.786 21.216-8.786s15.55 3.12 21.216 8.786c5.665 5.666 8.786 13.2 8.786 21.216s-3.12 15.55-8.786 21.217c-5.666 5.666-13.201 8.786-21.216 8.786zm0-40.005c-2.673 0-5.185 1.04-7.074 2.929-3.901 3.9-3.901 10.247 0 14.147 1.888 1.889 4.4 2.929 7.074 2.929s5.186-1.04 7.074-2.929 2.928-4.4 2.928-7.074c0-2.673-1.04-5.185-2.928-7.073-1.889-1.889-4.401-2.929-7.074-2.929z"/><path d="m439.954 273.386c-10.684 0-20.729-4.162-28.286-11.72-7.552-7.552-11.711-17.596-11.711-28.281s4.159-20.729 11.711-28.281c7.557-7.557 17.603-11.719 28.286-11.719s20.729 4.162 28.286 11.72c7.556 7.549 11.719 17.594 11.719 28.28s-4.163 20.731-11.723 28.284c-7.553 7.555-17.598 11.717-28.282 11.717zm0-60.001c-5.342 0-10.364 2.082-14.144 5.861-7.797 7.796-7.797 20.481 0 28.277 3.779 3.78 8.802 5.861 14.144 5.861 5.341 0 10.364-2.081 14.144-5.86 3.78-3.778 5.861-8.798 5.861-14.14 0-5.341-2.081-10.361-5.858-14.136-3.783-3.781-8.806-5.863-14.147-5.863z"/><path d="m240.039 100.752c-8.012 0-15.545-3.12-21.211-8.786-11.698-11.698-11.698-30.733 0-42.433 5.666-5.665 13.199-8.786 21.211-8.786s15.545 3.12 21.211 8.786c11.698 11.699 11.698 30.734 0 42.433-5.666 5.666-13.199 8.786-21.211 8.786zm0-40.005c-2.67 0-5.18 1.04-7.068 2.929-1.889 1.889-2.929 4.4-2.929 7.074 0 2.673 1.04 5.186 2.929 7.073 1.888 1.889 4.398 2.929 7.068 2.929s5.181-1.04 7.069-2.929c1.889-1.888 2.929-4.4 2.929-7.073 0-2.674-1.04-5.186-2.929-7.074-1.888-1.889-4.399-2.929-7.069-2.929z"/></g></g></svg>