<svg enable-background="new 0 0 512 512" height="512" viewBox="0 0 512 512" width="512" xmlns="http://www.w3.org/2000/svg"><g id="_x39_59_x2C__Arrow_x2C__Up_x2C__Right"><g><circle cx="278.616" cy="70.75" fill="#07cc66" r="20.004"/><path d="m389.131 97.584c1.75-5.24 7.41-8.07 12.65-6.32 5.239 1.75 8.069 7.41 6.319 12.65-1.739 5.24-7.399 8.07-12.64 6.32-5.239-1.739-8.079-7.409-6.329-12.65z"/><path d="m169.681 119.265c10.8-10.8 26.5-15.08 41.29-11.24l167.06 43.31 43.31 167.06c.93 3.57 1.38 7.199 1.38 10.801 0 11.289-4.439 22.299-12.63 30.49-23.56 23.568-63.82 12.6-72.189-19.66l-16.03-61.83-120.62 120.629c-9.77 9.76-22.56 14.641-35.35 14.641-12.8 0-25.6-4.881-35.36-14.641-19.53-19.529-19.53-51.189 0-70.709l120.62-120.63-61.82-16.03c-20.42-5.29-32.31-23.36-32.31-41.89-.001-10.751 3.999-21.651 12.649-30.301z" fill="#5cbeff"/><path d="m119.131 218.885c1.74-5.24 7.41-8.07 12.64-6.32 5.24 1.74 8.08 7.41 6.33 12.65-1.75 5.23-7.41 8.07-12.65 6.32s-8.07-7.41-6.32-12.65z"/><path d="m460.471 240.095c1.74-5.24 7.41-8.07 12.65-6.32 5.24 1.74 8.069 7.41 6.319 12.65s-7.409 8.07-12.649 6.32-8.07-7.411-6.32-12.65z"/><path d="m50.831 257.404c11.72-11.72 30.71-11.72 42.43 0 11.71 11.711 11.71 30.711 0 42.42-11.72 11.721-30.71 11.721-42.43 0-11.72-11.709-11.72-30.709 0-42.42z" fill="#07cc66"/><path d="m257.821 427.105c7.81-7.811 20.47-7.811 28.279 0 7.811 7.809 7.811 20.479 0 28.289-7.81 7.811-20.47 7.811-28.279 0-7.81-7.81-7.81-20.48 0-28.289z" fill="#07cc66"/><path d="m379.131 437.584c1.74-5.24 7.41-8.068 12.64-6.33 5.24 1.75 8.08 7.41 6.33 12.65s-7.41 8.07-12.649 6.33c-5.241-1.75-8.071-7.41-6.321-12.65z"/><path d="m79.131 447.584c1.75-5.24 7.41-8.068 12.65-6.318s8.07 7.408 6.32 12.648c-1.74 5.24-7.41 8.07-12.64 6.32-5.24-1.74-8.08-7.41-6.33-12.65z"/><path d="m165.901 423.465c-16.032 0-31.102-6.24-42.431-17.568-11.334-11.336-17.577-26.404-17.577-42.432s6.243-31.094 17.578-42.424l108.257-108.265-44.897-11.642c-23.433-6.07-39.8-27.276-39.8-51.569 0-14.053 5.533-27.325 15.579-37.372 10.029-10.029 23.36-15.553 37.536-15.553 4.494 0 8.982.574 13.339 1.705l167.057 43.309c3.515.911 6.259 3.656 7.17 7.171l43.311 167.06c1.127 4.328 1.699 8.809 1.699 13.311 0 14.188-5.525 27.527-15.559 37.561-10.041 10.045-23.31 15.578-37.36 15.578-24.29 0-45.501-16.365-51.58-39.797l-11.643-44.908-108.258 108.266c-11.343 11.331-26.406 17.569-42.421 17.569zm34.245-306.824c-8.833 0-17.142 3.443-23.393 9.695-6.269 6.269-9.721 14.518-9.721 23.229 0 12.832 7.674 27.768 24.818 32.209l61.822 16.031c3.472.9 6.196 3.591 7.138 7.052s-.041 7.162-2.577 9.698l-120.62 120.63c-7.558 7.555-11.719 17.596-11.719 28.279 0 10.686 4.162 20.732 11.719 28.289 7.552 7.551 17.599 11.711 28.289 11.711 10.676 0 20.72-4.16 28.282-11.715l120.616-120.626c2.536-2.535 6.238-3.518 9.698-2.576 3.461.941 6.152 3.666 7.053 7.139l16.03 61.83c4.448 17.143 19.388 24.818 32.221 24.818 8.707 0 16.952-3.451 23.217-9.719 6.257-6.258 9.702-14.574 9.702-23.42 0-2.801-.355-5.588-1.057-8.279l-41.837-161.378-161.365-41.833c-2.721-.706-5.518-1.064-8.316-1.064z"/><path d="m278.616 100.752c-8.016 0-15.551-3.12-21.217-8.786-11.698-11.699-11.698-30.734 0-42.433 5.667-5.666 13.201-8.786 21.217-8.786 8.015 0 15.55 3.12 21.216 8.786 11.698 11.699 11.698 30.734 0 42.433-5.666 5.666-13.201 8.786-21.216 8.786zm0-40.004c-2.674 0-5.186 1.04-7.074 2.928-3.9 3.9-3.9 10.247 0 14.147 1.889 1.889 4.4 2.929 7.074 2.929 2.673 0 5.186-1.04 7.073-2.929 1.889-1.888 2.929-4.4 2.929-7.074s-1.04-5.186-2.929-7.074c-1.887-1.888-4.4-2.927-7.073-2.927z"/><path d="m72.046 318.615c-10.683 0-20.729-4.162-28.286-11.719-7.556-7.551-11.719-17.596-11.719-28.281 0-10.688 4.163-20.732 11.721-28.285 7.555-7.554 17.6-11.716 28.283-11.716 10.684 0 20.729 4.162 28.287 11.719 7.552 7.553 11.711 17.596 11.711 28.282s-4.159 20.729-11.711 28.281c-7.557 7.557-17.603 11.719-28.286 11.719zm0-60c-5.341 0-10.364 2.08-14.144 5.861-3.781 3.777-5.861 8.797-5.861 14.139s2.08 10.361 5.858 14.135c3.782 3.783 8.806 5.865 14.146 5.865 5.342 0 10.365-2.082 14.145-5.861 3.774-3.775 5.854-8.797 5.854-14.139 0-5.344-2.079-10.365-5.854-14.139-3.779-3.781-8.803-5.861-14.144-5.861z"/><path d="m271.961 471.252c-8.012 0-15.544-3.119-21.21-8.785-5.667-5.668-8.787-13.201-8.787-21.217s3.121-15.551 8.787-21.217 13.199-8.785 21.21-8.785 15.545 3.119 21.211 8.785 8.786 13.201 8.786 21.217-3.12 15.549-8.786 21.217c-5.666 5.666-13.199 8.785-21.211 8.785zm0-40.004c-2.67 0-5.18 1.039-7.068 2.928s-2.929 4.4-2.929 7.074 1.04 5.186 2.929 7.074c1.888 1.889 4.398 2.928 7.068 2.928s5.181-1.039 7.069-2.928 2.928-4.4 2.928-7.074-1.04-5.186-2.928-7.074c-1.889-1.889-4.399-2.928-7.069-2.928z"/></g></g></svg>