<svg enable-background="new 0 0 512 512" height="512" viewBox="0 0 512 512" width="512" xmlns="http://www.w3.org/2000/svg"><g id="_x39_60_x2C__Arrow_x2C__Up_x2C__Left"><g><circle cx="70.75" cy="233.384" fill="#07cc66" r="20.004"/><path d="m97.585 122.869c-5.24-1.75-8.07-7.41-6.32-12.65s7.41-8.07 12.65-6.32c5.24 1.74 8.07 7.4 6.32 12.64-1.74 5.24-7.41 8.08-12.65 6.33z"/><path d="m119.265 342.319c-10.8-10.801-15.08-26.5-11.24-41.29l43.31-167.06 167.06-43.31c3.57-.93 7.201-1.38 10.801-1.38 11.289 0 22.3 4.44 30.49 12.63 23.569 23.56 12.6 63.82-19.66 72.19l-61.83 16.03 120.63 120.62c9.76 9.77 14.64 22.56 14.64 35.35 0 12.801-4.88 25.601-14.64 35.36-19.53 19.53-51.19 19.53-70.71 0l-120.63-120.62-16.03 61.82c-5.29 20.42-23.36 32.31-41.89 32.31-10.751 0-21.651-4-30.301-12.65z" fill="#5cbeff"/><path d="m218.885 392.869c-5.24-1.74-8.07-7.41-6.32-12.64 1.74-5.24 7.41-8.08 12.65-6.33 5.23 1.75 8.07 7.409 6.32 12.649s-7.41 8.071-12.65 6.321z"/><path d="m240.095 51.529c-5.24-1.74-8.07-7.41-6.32-12.65 1.74-5.24 7.41-8.07 12.65-6.32s8.07 7.41 6.32 12.65-7.41 8.07-12.65 6.32z"/><path d="m257.405 461.169c-11.72-11.72-11.72-30.71 0-42.43 11.71-11.71 30.71-11.71 42.42 0 11.72 11.72 11.72 30.71 0 42.43-11.71 11.72-30.71 11.72-42.42 0z" fill="#07cc66"/><path d="m427.105 254.179c-7.811-7.81-7.811-20.47 0-28.28 7.81-7.81 20.479-7.81 28.289 0 7.811 7.81 7.811 20.47 0 28.28-7.809 7.81-20.479 7.81-28.289 0z" fill="#07cc66"/><path d="m437.585 132.869c-5.239-1.74-8.069-7.41-6.33-12.64 1.75-5.24 7.41-8.08 12.65-6.33 5.239 1.75 8.069 7.41 6.329 12.65-1.75 5.24-7.409 8.07-12.649 6.32z"/><path d="m447.585 432.869c-5.239-1.75-8.069-7.41-6.319-12.65 1.75-5.239 7.41-8.069 12.649-6.319 5.24 1.739 8.069 7.409 6.319 12.64-1.739 5.239-7.409 8.079-12.649 6.329z"/><path d="m363.467 406.106c-16.028 0-31.095-6.242-42.424-17.578l-108.266-108.257-11.642 44.897c-6.07 23.433-27.277 39.8-51.57 39.8-14.053 0-27.324-5.532-37.371-15.578-13.25-13.25-18.556-32.743-13.849-50.874l43.309-167.057c.911-3.515 3.656-6.26 7.171-7.171l167.06-43.31c4.325-1.127 8.808-1.7 13.31-1.7 14.188 0 27.527 5.526 37.561 15.559 13.633 13.627 18.75 32.871 13.688 51.477-5.064 18.614-19.236 32.62-37.907 37.464l-44.906 11.642 108.267 108.257c11.33 11.342 17.568 26.406 17.568 42.421 0 16.033-6.239 31.103-17.568 42.432-11.335 11.334-26.405 17.576-42.431 17.576zm-155.983-155.267c2.617 0 5.171 1.028 7.071 2.929l120.63 120.62c7.555 7.558 17.598 11.719 28.281 11.719s20.73-4.161 28.287-11.719c7.552-7.552 11.711-17.599 11.711-28.289 0-10.677-4.16-20.721-11.715-28.282l-120.625-120.617c-2.536-2.537-3.521-6.237-2.577-9.699.941-3.461 3.666-6.152 7.139-7.053l61.83-16.03c11.638-3.02 20.472-11.75 23.629-23.355 3.156-11.596-.033-23.589-8.529-32.082-6.258-6.257-14.574-9.703-23.42-9.703-2.801 0-5.586.355-8.279 1.057l-161.377 41.837-41.833 161.366c-2.935 11.302.373 23.451 8.631 31.709 6.269 6.269 14.518 9.721 23.229 9.721 12.832 0 27.769-7.674 32.209-24.817l16.031-61.822c.9-3.473 3.591-6.196 7.052-7.139.866-.236 1.749-.351 2.625-.351z"/><path d="m70.75 263.387c-8.015 0-15.55-3.121-21.216-8.787s-8.786-13.2-8.786-21.215c0-8.016 3.121-15.55 8.787-21.216s13.201-8.786 21.216-8.786 15.55 3.12 21.216 8.786 8.786 13.201 8.786 21.216-3.121 15.55-8.787 21.216c-5.666 5.665-13.201 8.786-21.216 8.786zm0-40.005c-2.673 0-5.186 1.04-7.074 2.929-1.889 1.888-2.929 4.4-2.929 7.074 0 2.673 1.04 5.185 2.928 7.073 1.889 1.889 4.401 2.929 7.074 2.929s5.186-1.04 7.074-2.929c1.889-1.888 2.929-4.4 2.929-7.073s-1.04-5.186-2.928-7.074c-1.888-1.889-4.401-2.929-7.074-2.929z"/><path d="m278.615 479.959c-10.687 0-20.731-4.163-28.284-11.722-7.554-7.554-11.716-17.6-11.716-28.283s4.162-20.729 11.719-28.286c7.552-7.552 17.595-11.711 28.281-11.711s20.729 4.159 28.281 11.711c7.557 7.558 11.719 17.603 11.719 28.286s-4.162 20.729-11.719 28.286c-7.549 7.556-17.594 11.719-28.281 11.719zm0-60.002c-5.343 0-10.364 2.078-14.139 5.854-3.779 3.779-5.861 8.803-5.861 14.144s2.082 10.364 5.861 14.144c3.777 3.78 8.797 5.861 14.139 5.861s10.361-2.081 14.136-5.858c7.802-7.802 7.802-20.491.003-28.29-3.775-3.777-8.796-5.855-14.139-5.855z"/><path d="m441.25 270.037c-8.016 0-15.551-3.121-21.217-8.787-5.665-5.666-8.785-13.199-8.785-21.211s3.119-15.545 8.785-21.211 13.201-8.786 21.217-8.786 15.551 3.12 21.217 8.786c5.666 5.667 8.785 13.199 8.785 21.211s-3.12 15.545-8.786 21.211c-5.665 5.666-13.2 8.787-21.216 8.787zm0-39.995c-2.674 0-5.186 1.04-7.074 2.929-1.889 1.888-2.928 4.399-2.928 7.069s1.039 5.18 2.928 7.068c1.889 1.889 4.401 2.929 7.074 2.929s5.186-1.04 7.074-2.929 2.928-4.399 2.928-7.069-1.039-5.181-2.928-7.069c-1.888-1.888-4.4-2.928-7.074-2.928z"/></g></g></svg>