<svg enable-background="new 0 0 512 512" height="512" viewBox="0 0 512 512" width="512" xmlns="http://www.w3.org/2000/svg"><g id="_x39_61_x2C__Arrow_x2C__Down_x2C__Full"><g><g fill="#d7e816"><path d="m421.004 401c11.04 0 20 8.95 20 20s-8.96 20-20 20c-11.05 0-20-8.95-20-20s8.95-20 20-20z"/><circle cx="411.004" cy="101" r="30"/><path d="m131.004 131c11.04 0 20 8.95 20 20s-8.96 20-20 20c-11.05 0-20-8.95-20-20s8.95-20 20-20z"/></g><path d="m431.004 306.35c0 15.271-8.08 29.4-21.25 37.15l-148.75 87.5-148.76-87.5c-6.58-3.88-11.89-9.34-15.55-15.76-3.67-6.4-5.69-13.76-5.69-21.391 0-33.33 36.221-54.05 64.95-37.149l55.05 32.39v-170.59c0-13.8 5.59-26.3 14.641-35.35 9.05-9.05 21.55-14.65 35.359-14.65 27.61 0 50 22.39 50 50v170.59l55.051-32.39c7.02-4.13 14.5-6.01 21.779-6.01 22.5 0 43.17 17.98 43.17 43.16z" fill="#4a78ff"/><path d="m419.944 176.53c2.47 4.94.47 10.94-4.47 13.41s-10.95.47-13.42-4.47c-2.471-4.94-.471-10.95 4.47-13.42 4.94-2.47 10.951-.46 13.42 4.48z"/><path d="m339.954 446.53c2.47 4.939.46 10.939-4.479 13.41-4.94 2.47-10.94.47-13.41-4.471-2.471-4.939-.471-10.95 4.47-13.42s10.949-.459 13.419 4.481z"/><path d="m159.944 56.53c2.47 4.94.47 10.95-4.47 13.42s-10.95.46-13.42-4.48c-2.471-4.94-.471-10.94 4.47-13.41 4.94-2.47 10.951-.47 13.42 4.47z"/><path d="m139.944 426.53c2.47 4.939.47 10.95-4.47 13.42s-10.95.46-13.42-4.48c-2.471-4.939-.471-10.939 4.47-13.41 4.94-2.47 10.951-.47 13.42 4.47z"/><path d="m79.944 206.53c2.47 4.94.47 10.95-4.47 13.42s-10.95.46-13.42-4.48c-2.471-4.94-.471-10.94 4.47-13.41 4.94-2.47 10.951-.47 13.42 4.47z"/><path d="m261.004 441c-1.752 0-3.505-.46-5.069-1.381l-148.76-87.5c-7.979-4.704-14.604-11.419-19.168-19.426-4.577-7.982-7.003-17.1-7.003-26.344 0-29.315 23.854-53.165 53.174-53.165 9.338 0 18.622 2.558 26.847 7.396l39.979 23.522v-153.102c0-16.026 6.239-31.091 17.569-42.421 11.336-11.336 26.405-17.579 42.431-17.579 33.084 0 60 26.916 60 60v153.104l39.979-23.522c8.219-4.835 17.503-7.391 26.851-7.391 29.318 0 53.17 23.847 53.17 53.159 0 18.729-10.03 36.267-26.178 45.769l-148.752 87.501c-1.564.92-3.317 1.38-5.07 1.38zm-126.826-167.815c-15.954 0-33.174 12.68-33.174 33.165 0 5.76 1.51 11.437 4.365 16.416 2.854 5.006 6.983 9.189 11.954 12.12l143.681 84.513 143.68-84.518c10.066-5.924 16.32-16.856 16.32-28.531 0-20.481-17.218-33.159-33.17-33.159-5.866 0-11.488 1.558-16.709 4.629l-55.05 32.39c-3.093 1.818-6.922 1.842-10.035.062-3.114-1.781-5.036-5.094-5.036-8.681v-170.591c0-22.056-17.943-40-40-40-10.684 0-20.73 4.163-28.288 11.721-7.553 7.552-11.712 17.595-11.712 28.279v170.59c0 3.587-1.921 6.899-5.035 8.681s-6.944 1.757-10.036-.062l-55.05-32.39c-5.227-3.075-10.848-4.634-16.705-4.634z"/><path d="m421.004 451c-16.542 0-30-13.458-30-30s13.458-30 30-30 30 13.458 30 30-13.458 30-30 30zm0-40c-5.514 0-10 4.486-10 10s4.486 10 10 10c5.515 0 10-4.486 10-10s-4.485-10-10-10z"/><path d="m411.004 141c-22.056 0-40-17.944-40-40s17.944-40 40-40c22.057 0 40 17.944 40 40s-17.943 40-40 40zm0-60c-11.027 0-20 8.972-20 20s8.973 20 20 20c11.028 0 20-8.972 20-20s-8.972-20-20-20z"/><path d="m131.004 181c-16.542 0-30-13.458-30-30s13.458-30 30-30 30 13.458 30 30-13.458 30-30 30zm0-40c-5.514 0-10 4.486-10 10s4.486 10 10 10c5.515 0 10-4.486 10-10s-4.485-10-10-10z"/></g></g></svg>