<svg enable-background="new 0 0 512 512" height="512" viewBox="0 0 512 512" width="512" xmlns="http://www.w3.org/2000/svg"><g id="_x39_62_x2C__Arrow_x2C__Arrows_x2C__Up_x2C__Direction"><g><path d="m90.996 111c-11.04 0-20-8.95-20-20s8.96-20 20-20c11.05 0 20 8.95 20 20s-8.95 20-20 20z" fill="#d7e816"/><circle cx="100.996" cy="411" fill="#d7e816" r="30"/><path d="m80.996 205.65c0-15.27 8.08-29.4 21.25-37.15l148.75-87.5 148.76 87.5c6.58 3.88 11.89 9.34 15.55 15.76 3.67 6.4 5.69 13.76 5.69 21.39 0 33.33-36.221 54.05-64.95 37.15l-55.05-32.39v170.59c0 13.8-5.59 26.3-14.641 35.35-9.05 9.051-21.55 14.65-35.359 14.65-27.61 0-50-22.39-50-50v-170.59l-55.051 32.39c-7.02 4.13-14.5 6.01-21.779 6.01-22.5 0-43.17-17.98-43.17-43.16z" fill="#4a78ff"/><path d="m92.056 335.47c-2.47-4.939-.47-10.939 4.47-13.41 4.94-2.47 10.95-.47 13.42 4.471 2.471 4.939.471 10.95-4.47 13.42-4.94 2.469-10.951.459-13.42-4.481z"/><path d="m172.046 65.47c-2.47-4.94-.46-10.94 4.479-13.41 4.94-2.47 10.94-.47 13.41 4.47 2.471 4.94.471 10.95-4.47 13.42-4.94 2.47-10.949.46-13.419-4.48z"/><path d="m352.056 455.47c-2.47-4.939-.47-10.95 4.47-13.42s10.95-.46 13.42 4.48c2.471 4.939.471 10.939-4.47 13.41-4.94 2.47-10.951.47-13.42-4.47z"/><path d="m380.996 381c-11.04 0-20-8.95-20-20s8.96-20 20-20c11.05 0 20 8.95 20 20s-8.95 20-20 20z" fill="#d7e816"/><path d="m372.056 85.47c-2.47-4.94-.47-10.95 4.47-13.42s10.95-.46 13.42 4.48c2.471 4.94.471 10.94-4.47 13.41-4.94 2.47-10.951.47-13.42-4.47z"/><path d="m432.056 305.47c-2.47-4.939-.47-10.95 4.47-13.42s10.95-.46 13.42 4.48c2.471 4.939.471 10.939-4.47 13.41-4.94 2.47-10.951.47-13.42-4.47z"/><path d="m250.996 441c-33.084 0-60-26.916-60-60v-153.104l-39.979 23.522c-8.218 4.835-17.503 7.392-26.851 7.392-29.318 0-53.17-23.848-53.17-53.161 0-18.729 10.03-36.266 26.178-45.769l148.752-87.5c3.13-1.84 7.011-1.841 10.14 0l148.76 87.5c7.979 4.704 14.604 11.42 19.168 19.426 4.577 7.982 7.003 17.099 7.003 26.343 0 29.315-23.854 53.165-53.174 53.165-9.338 0-18.622-2.557-26.847-7.396l-39.979-23.522v153.104c0 16.026-6.24 31.092-17.569 42.421-11.336 11.336-26.406 17.579-42.432 17.579zm-50-240.59c1.713 0 3.426.439 4.964 1.319 3.114 1.781 5.036 5.093 5.036 8.681v170.59c0 22.056 17.943 40 40 40 10.685 0 20.73-4.163 28.288-11.721 7.553-7.553 11.712-17.596 11.712-28.279v-170.59c0-3.587 1.921-6.9 5.035-8.681s6.944-1.758 10.036.062l55.05 32.39c5.227 3.075 10.848 4.634 16.705 4.634 15.954 0 33.174-12.68 33.174-33.165 0-5.759-1.51-11.436-4.365-16.416-2.854-5.005-6.983-9.188-11.954-12.12l-143.681-84.512-143.68 84.518c-10.066 5.924-16.32 16.856-16.32 28.531 0 20.482 17.218 33.16 33.17 33.16 5.867 0 11.488-1.558 16.708-4.629l55.051-32.39c1.564-.921 3.317-1.382 5.071-1.382z"/><path d="m90.996 121c-16.542 0-30-13.458-30-30s13.458-30 30-30 30 13.458 30 30-13.458 30-30 30zm0-40c-5.515 0-10 4.486-10 10s4.485 10 10 10c5.514 0 10-4.486 10-10s-4.486-10-10-10z"/><path d="m100.996 451c-22.057 0-40-17.944-40-40s17.943-40 40-40c22.056 0 40 17.944 40 40s-17.944 40-40 40zm0-60c-11.028 0-20 8.972-20 20s8.972 20 20 20c11.027 0 20-8.972 20-20s-8.973-20-20-20z"/><path d="m380.996 391c-16.542 0-30-13.458-30-30s13.458-30 30-30 30 13.458 30 30-13.458 30-30 30zm0-40c-5.515 0-10 4.486-10 10s4.485 10 10 10c5.514 0 10-4.486 10-10s-4.486-10-10-10z"/></g></g></svg>