<svg enable-background="new 0 0 512 512" height="512" viewBox="0 0 512 512" width="512" xmlns="http://www.w3.org/2000/svg"><g id="_x39_63_x2C__Arrow_x2C__Back_x2C__Right"><g><path d="m401 90.996c0-11.04 8.95-20 20-20s20 8.96 20 20c0 11.05-8.95 20-20 20s-20-8.95-20-20z" fill="#d7e816"/><circle cx="101" cy="100.996" fill="#d7e816" r="30"/><path d="m306.35 80.996c15.271 0 29.4 8.08 37.15 21.25l87.5 148.75-87.5 148.76c-3.88 6.58-9.34 11.891-15.76 15.551-6.4 3.67-13.761 5.689-21.391 5.689-33.33 0-54.049-36.22-37.149-64.95l32.39-55.05h-170.59c-13.8 0-26.3-5.59-35.35-14.64-9.05-9.049-14.65-21.549-14.65-35.36 0-27.61 22.39-50 50-50h170.59l-32.39-55.05c-4.13-7.02-6.011-14.5-6.011-21.78 0-22.5 17.981-43.17 43.161-43.17z" fill="#4a78ff"/><path d="m176.53 92.056c4.94-2.47 10.94-.47 13.41 4.47s.47 10.95-4.47 13.42-10.95.47-13.42-4.47-.46-10.95 4.48-13.42z"/><path d="m446.53 172.046c4.939-2.47 10.939-.46 13.409 4.48 2.471 4.94.471 10.94-4.47 13.41-4.939 2.47-10.95.47-13.42-4.47s-.459-10.95 4.481-13.42z"/><path d="m56.53 352.057c4.94-2.471 10.95-.471 13.42 4.47 2.47 4.939.46 10.95-4.48 13.42s-10.94.47-13.41-4.47c-2.47-4.941-.47-10.951 4.47-13.42z"/><path d="m131 380.996c0-11.04 8.95-20 20-20s20 8.96 20 20c0 11.05-8.95 20-20 20s-20-8.95-20-20z" fill="#d7e816"/><path d="m426.53 372.057c4.939-2.471 10.949-.471 13.42 4.47 2.47 4.939.46 10.95-4.48 13.42-4.939 2.47-10.939.47-13.41-4.47-2.47-4.941-.47-10.951 4.47-13.42z"/><path d="m206.53 432.057c4.94-2.471 10.95-.471 13.42 4.47 2.47 4.939.46 10.95-4.48 13.42s-10.94.47-13.41-4.47c-2.47-4.941-.47-10.951 4.47-13.42z"/><path d="m306.35 430.996c-19.285 0-36.517-9.995-46.093-26.738-9.575-16.741-9.454-36.659.323-53.282l23.523-39.979h-153.103c-16.026 0-31.091-6.239-42.421-17.568-11.336-11.337-17.579-26.407-17.579-42.433 0-33.084 26.916-60 60-60h153.104l-23.522-39.979c-4.835-8.22-7.391-17.505-7.391-26.852 0-29.318 23.847-53.17 53.16-53.17 18.729 0 36.267 10.031 45.769 26.178l87.501 148.751c1.841 3.129 1.841 7.011 0 10.14l-87.5 148.761c-4.704 7.979-11.42 14.604-19.426 19.168-7.983 4.577-17.1 7.003-26.345 7.003zm-175.35-220c-22.056 0-40 17.944-40 40 0 10.685 4.163 20.731 11.721 28.29 7.552 7.552 17.595 11.711 28.279 11.711h170.59c3.588 0 6.9 1.922 8.681 5.036 1.781 3.113 1.758 6.943-.062 10.035l-32.391 55.05c-6.094 10.359-6.169 22.775-.2 33.212 5.97 10.437 16.71 16.667 28.731 16.667 5.761 0 11.437-1.509 16.416-4.364 5.005-2.854 9.188-6.983 12.12-11.955l84.513-143.681-84.518-143.68c-5.924-10.066-16.856-16.32-28.531-16.32-20.481 0-33.16 17.218-33.16 33.17 0 5.866 1.558 11.488 4.63 16.709l32.39 55.049c1.819 3.092 1.843 6.921.062 10.036-1.78 3.114-5.093 5.036-8.681 5.036h-170.59z"/><path d="m421 120.996c-16.542 0-30-13.458-30-30s13.458-30 30-30 30 13.458 30 30-13.458 30-30 30zm0-40c-5.515 0-10 4.486-10 10s4.485 10 10 10c5.514 0 10-4.486 10-10s-4.486-10-10-10z"/><path d="m101 140.996c-22.056 0-40-17.944-40-40s17.944-40 40-40 40 17.944 40 40-17.944 40-40 40zm0-60c-11.028 0-20 8.972-20 20s8.972 20 20 20 20-8.972 20-20-8.972-20-20-20z"/><path d="m151 410.996c-16.542 0-30-13.458-30-30s13.458-30 30-30 30 13.458 30 30-13.458 30-30 30zm0-40c-5.514 0-10 4.486-10 10s4.486 10 10 10 10-4.486 10-10-4.486-10-10-10z"/></g></g></svg>