<svg enable-background="new 0 0 512 512" height="512" viewBox="0 0 512 512" width="512" xmlns="http://www.w3.org/2000/svg"><g id="_x39_64_x2C__Arrow_x2C__Back_x2C__Left"><g><path d="m111 421.004c0 11.04-8.95 20-20 20s-20-8.96-20-20c0-11.05 8.95-20 20-20s20 8.95 20 20z" fill="#d7e816"/><circle cx="411" cy="411.004" fill="#d7e816" r="30"/><path d="m205.65 431.004c-15.27 0-29.4-8.08-37.15-21.25l-87.5-148.75 87.5-148.76c3.88-6.58 9.34-11.89 15.76-15.55 6.4-3.67 13.76-5.69 21.39-5.69 33.33 0 54.05 36.221 37.15 64.95l-32.39 55.05h170.59c13.8 0 26.3 5.591 35.35 14.641 9.051 9.05 14.65 21.55 14.65 35.359 0 27.61-22.39 50-50 50h-170.59l32.39 55.05c4.13 7.021 6.01 14.5 6.01 21.78 0 22.5-17.98 43.17-43.16 43.17z" fill="#4a78ff"/><path d="m335.47 419.944c-4.939 2.47-10.939.47-13.41-4.471-2.47-4.939-.47-10.949 4.471-13.42 4.939-2.47 10.949-.47 13.42 4.471 2.469 4.94.459 10.95-4.481 13.42z"/><path d="m65.47 339.954c-4.94 2.47-10.94.46-13.41-4.48-2.47-4.939-.47-10.939 4.47-13.409 4.94-2.471 10.95-.471 13.42 4.47 2.47 4.939.46 10.949-4.48 13.419z"/><path d="m455.47 159.944c-4.939 2.47-10.95.47-13.42-4.47s-.46-10.95 4.48-13.42c4.939-2.471 10.939-.471 13.409 4.47 2.471 4.94.471 10.951-4.469 13.42z"/><path d="m381 131.004c0 11.04-8.95 20-20 20s-20-8.96-20-20c0-11.05 8.95-20 20-20s20 8.95 20 20z" fill="#d7e816"/><path d="m85.47 139.944c-4.94 2.47-10.95.47-13.42-4.47s-.46-10.95 4.48-13.42c4.94-2.471 10.94-.471 13.41 4.47 2.47 4.94.47 10.951-4.47 13.42z"/><path d="m305.47 79.944c-4.939 2.47-10.95.47-13.42-4.47s-.46-10.95 4.48-13.42c4.939-2.471 10.939-.471 13.409 4.47 2.471 4.94.471 10.951-4.469 13.42z"/><path d="m205.65 441.004c-18.729 0-36.267-10.031-45.769-26.179l-87.5-148.751c-1.841-3.13-1.841-7.011 0-10.141l87.5-148.759c4.706-7.979 11.421-14.604 19.428-19.168 7.98-4.577 17.097-7.003 26.342-7.003 19.286 0 36.517 9.996 46.092 26.738 9.576 16.741 9.455 36.66-.323 53.282l-23.523 39.979h153.103c16.026 0 31.091 6.239 42.421 17.569 11.336 11.338 17.579 26.407 17.579 42.433 0 33.084-26.916 60-60 60h-153.104l23.522 39.979c4.835 8.22 7.391 17.505 7.391 26.852.001 29.317-23.846 53.169-53.159 53.169zm-113.048-180 84.518 143.68c5.924 10.066 16.856 16.32 28.531 16.32 20.482 0 33.16-17.218 33.16-33.17 0-5.866-1.558-11.488-4.629-16.71l-32.39-55.049c-1.819-3.092-1.843-6.922-.062-10.035 1.781-3.114 5.093-5.036 8.681-5.036h170.589c22.056 0 40-17.944 40-40 0-10.684-4.163-20.73-11.722-28.288-7.552-7.553-17.595-11.712-28.278-11.712h-170.59c-3.587 0-6.9-1.921-8.681-5.035s-1.757-6.944.062-10.036l32.39-55.05c6.094-10.359 6.169-22.775.2-33.211-5.969-10.437-16.71-16.668-28.731-16.668-5.76 0-11.436 1.51-16.415 4.365-5.006 2.854-9.189 6.983-12.122 11.955z"/><path d="m91 451.004c-16.542 0-30-13.458-30-30s13.458-30 30-30 30 13.458 30 30-13.458 30-30 30zm0-40c-5.514 0-10 4.486-10 10s4.486 10 10 10 10-4.486 10-10-4.486-10-10-10z"/><path d="m411 451.004c-22.057 0-40-17.944-40-40s17.943-40 40-40c22.056 0 40 17.944 40 40s-17.944 40-40 40zm0-60c-11.028 0-20 8.972-20 20s8.972 20 20 20c11.027 0 20-8.972 20-20s-8.973-20-20-20z"/><path d="m361 161.004c-16.542 0-30-13.458-30-30s13.458-30 30-30 30 13.458 30 30-13.458 30-30 30zm0-40c-5.515 0-10 4.486-10 10 0 5.515 4.485 10 10 10 5.514 0 10-4.485 10-10 0-5.514-4.486-10-10-10z"/></g></g></svg>