<svg enable-background="new 0 0 512 512" height="512" viewBox="0 0 512 512" width="512" xmlns="http://www.w3.org/2000/svg"><g id="_x39_65_x2C__Arrow_x2C__Chevron_x2C__Down_Left"><g><g fill="#07cc66"><path d="m408.671 78.32c9.771 9.77 9.771 25.59 0 35.36-9.76 9.76-25.59 9.76-35.35 0-9.76-9.77-9.76-25.59 0-35.36 9.76-9.76 25.59-9.76 35.35 0z"/><path d="m70.141 66.86c7.81 7.81 7.81 20.47 0 28.28s-20.48 7.81-28.29 0-7.81-20.47 0-28.28 20.48-7.81 28.29 0z"/><path d="m87.211 429.79c11.72 11.71 11.72 30.71 0 42.42-11.72 11.72-30.71 11.72-42.43 0-11.71-11.71-11.71-30.71 0-42.42 11.72-11.72 30.71-11.72 42.43 0z"/></g><path d="m476.001 271.42-70.71 70.71-190.92-49.5-49.5-190.92 70.71-70.71 49.5 190.92z" fill="#cd2738"/><path d="m369.932 377.48-70.71 70.71-190.921-49.49-49.5-190.92 70.71-70.71 49.5 190.91z" fill="#d94556"/><path d="m435.512 192.16c2.47 4.94.47 10.95-4.471 13.42-4.939 2.47-10.939.47-13.41-4.47-2.47-4.94-.47-10.95 4.471-13.42 4.939-2.47 10.939-.47 13.41 4.47z"/><path d="m424.941 426.53c2.47 4.939.47 10.939-4.47 13.41-4.94 2.47-10.95.47-13.42-4.471-2.471-4.939-.471-10.95 4.47-13.42 4.94-2.469 10.951-.459 13.42 4.481z"/><path d="m308.161 90.17c2.47 4.94.47 10.95-4.47 13.42s-10.94.47-13.41-4.47-.47-10.95 4.47-13.42 10.94-.47 13.41 4.47z"/><path d="m164.941 466.53c2.47 4.939.47 10.939-4.47 13.41-4.94 2.47-10.95.47-13.42-4.471-2.47-4.939-.46-10.95 4.48-13.42 4.94-2.469 10.94-.459 13.41 4.481z"/><path d="m152.601 61.88c2.47 4.94.47 10.95-4.47 13.42s-10.95.46-13.42-4.48-.47-10.94 4.47-13.41 10.95-.47 13.42 4.47z"/><path d="m54.941 316.53c2.47 4.939.47 10.95-4.47 13.42s-10.95.46-13.42-4.48c-2.47-4.939-.46-10.939 4.48-13.41 4.94-2.47 10.94-.47 13.41 4.47z"/><path d="m405.291 352.13c-.837 0-1.679-.104-2.51-.32l-190.92-49.5c-3.515-.911-6.259-3.655-7.17-7.17l-49.5-190.92c-.889-3.43.104-7.075 2.609-9.581l70.71-70.71c2.537-2.536 6.239-3.519 9.699-2.578 3.461.943 6.152 3.667 7.052 7.139l48.024 185.226 185.226 48.024c3.473.9 6.196 3.591 7.14 7.053.942 3.461-.042 7.161-2.578 9.698l-70.71 70.71c-1.9 1.9-4.454 2.929-7.072 2.929zm-182.716-67.704 179.69 46.589 54.303-54.303-173.997-45.112c-3.515-.912-6.259-3.656-7.17-7.17l-45.112-173.996-54.303 54.303z"/><path d="m299.221 458.19c-.836 0-1.679-.104-2.509-.32l-190.92-49.49c-3.515-.911-6.259-3.655-7.171-7.17l-49.5-190.92c-.889-3.43.104-7.075 2.609-9.581l70.71-70.71c2.537-2.536 6.238-3.519 9.699-2.578 3.461.943 6.152 3.667 7.052 7.139l48.024 185.216 185.227 48.024c3.472.9 6.196 3.591 7.139 7.053.942 3.461-.041 7.161-2.577 9.698l-70.71 70.71c-1.9 1.9-4.454 2.929-7.073 2.929zm-182.716-67.694 179.689 46.579 54.303-54.303-173.996-45.112c-3.515-.911-6.259-3.655-7.17-7.17l-45.112-173.986-54.303 54.303z"/><path d="m65.996 491c-10.684 0-20.729-4.162-28.286-11.719-7.552-7.553-11.711-17.596-11.711-28.281s4.159-20.729 11.712-28.281c7.556-7.557 17.602-11.719 28.285-11.719s20.729 4.162 28.286 11.719c7.556 7.55 11.719 17.595 11.719 28.281s-4.163 20.731-11.722 28.284c-7.554 7.554-17.599 11.716-28.283 11.716zm0-60c-5.341 0-10.364 2.082-14.144 5.861-3.775 3.774-5.854 8.796-5.854 14.139s2.079 10.364 5.854 14.139c3.78 3.779 8.803 5.861 14.144 5.861s10.364-2.082 14.144-5.861c3.781-3.777 5.861-8.798 5.861-14.139s-2.081-10.361-5.858-14.136c-3.783-3.782-8.806-5.864-14.147-5.864z"/><path d="m55.996 110.998c-8.015 0-15.55-3.12-21.216-8.786-11.696-11.696-11.696-30.727 0-42.423 5.666-5.666 13.201-8.786 21.216-8.786s15.55 3.12 21.216 8.786c5.666 5.667 8.786 13.199 8.786 21.211s-3.12 15.545-8.786 21.211-13.201 8.787-21.216 8.787zm0-39.996c-2.673 0-5.186 1.04-7.074 2.929-3.898 3.897-3.898 10.24 0 14.138 1.888 1.889 4.4 2.929 7.074 2.929s5.186-1.04 7.074-2.929c1.889-1.888 2.929-4.399 2.929-7.069s-1.04-5.181-2.929-7.069c-1.888-1.889-4.401-2.929-7.074-2.929z"/><path d="m390.996 131c-9.349 0-18.137-3.64-24.746-10.249-13.635-13.65-13.635-35.853-.004-49.499 6.613-6.612 15.401-10.252 24.75-10.252s18.137 3.64 24.746 10.249c13.647 13.648 13.647 35.855 0 49.503-6.609 6.608-15.397 10.248-24.746 10.248zm0-50c-4.007 0-7.772 1.56-10.604 4.391-5.842 5.848-5.842 15.37.004 21.222 2.828 2.828 6.594 4.387 10.601 4.387s7.772-1.56 10.604-4.391c5.851-5.85 5.851-15.368 0-21.218-2.832-2.831-6.598-4.391-10.605-4.391z"/></g></g></svg>