<svg enable-background="new 0 0 512 512" height="512" viewBox="0 0 512 512" width="512" xmlns="http://www.w3.org/2000/svg"><g id="_x39_66_x2C__Arrow_x2C__Chevron_x2C__Down_Right"><g><path d="m271.42 35.996 70.711 70.71-49.5 190.92-190.921 49.5-70.71-70.71 190.92-49.5z" fill="#cd2738"/><path d="m192.16 76.486c4.94-2.47 10.95-.47 13.42 4.47s.47 10.94-4.47 13.41-10.95.47-13.42-4.47-.47-10.94 4.47-13.41z"/><path d="m426.53 87.056c4.94-2.47 10.94-.47 13.41 4.47s.47 10.95-4.47 13.42-10.95.47-13.42-4.47-.459-10.95 4.48-13.42z"/><path d="m78.32 103.326c9.77-9.77 25.59-9.77 35.36 0 9.76 9.76 9.76 25.59 0 35.35-9.77 9.76-25.59 9.76-35.36 0-9.76-9.76-9.76-25.59 0-35.35z" fill="#07cc66"/><path d="m377.48 142.066 70.71 70.71-49.49 190.92-190.92 49.5-70.71-70.71 190.91-49.5z" fill="#d94556"/><path d="m90.17 203.836c4.94-2.47 10.95-.47 13.42 4.47s.47 10.94-4.47 13.41-10.95.47-13.42-4.47-.47-10.94 4.47-13.41z"/><path d="m466.53 347.057c4.94-2.471 10.94-.471 13.41 4.47 2.47 4.939.47 10.95-4.47 13.42s-10.95.46-13.42-4.48c-2.47-4.941-.459-10.941 4.48-13.41z"/><path d="m61.88 359.396c4.94-2.471 10.95-.471 13.42 4.47 2.47 4.94.46 10.95-4.48 13.42s-10.94.47-13.41-4.47-.47-10.95 4.47-13.42z"/><path d="m429.79 424.786c11.71-11.72 30.71-11.72 42.42 0 11.721 11.72 11.721 30.71 0 42.43-11.71 11.71-30.71 11.71-42.42 0-11.72-11.72-11.72-30.71 0-42.43z" fill="#07cc66"/><path d="m66.86 441.856c7.81-7.811 20.47-7.811 28.28 0 7.81 7.81 7.81 20.479 0 28.29-7.81 7.81-20.47 7.81-28.28 0s-7.81-20.48 0-28.29z" fill="#07cc66"/><path d="m316.53 457.057c4.94-2.471 10.95-.471 13.42 4.47 2.471 4.939.46 10.95-4.479 13.42-4.94 2.47-10.94.46-13.41-4.48-2.47-4.941-.47-10.941 4.469-13.41z"/><path d="m101.71 357.126c-2.619 0-5.172-1.029-7.072-2.929l-70.71-70.71c-2.536-2.537-3.52-6.237-2.578-9.698.943-3.462 3.667-6.152 7.139-7.053l185.226-48.024 48.025-185.226c.9-3.472 3.592-6.196 7.053-7.139 3.46-.94 7.161.041 9.698 2.578l70.711 70.71c2.505 2.506 3.498 6.151 2.608 9.581l-49.5 190.92c-.911 3.515-3.655 6.259-7.17 7.17l-190.921 49.5c-.829.215-1.673.32-2.509.32zm-51.276-75.418 54.303 54.303 179.69-46.589 46.589-179.689-54.304-54.303-45.112 173.996c-.912 3.515-3.656 6.259-7.17 7.17z"/><path d="m207.781 463.196c-2.619 0-5.172-1.029-7.072-2.929l-70.71-70.71c-2.536-2.537-3.52-6.237-2.578-9.698.943-3.462 3.667-6.152 7.139-7.053l185.216-48.023 48.024-185.227c.899-3.472 3.591-6.196 7.052-7.139 3.459-.942 7.161.041 9.699 2.578l70.71 70.71c2.505 2.506 3.498 6.15 2.608 9.581l-49.489 190.919c-.911 3.516-3.656 6.26-7.171 7.171l-190.92 49.5c-.829.216-1.672.32-2.508.32zm-51.277-75.418 54.303 54.303 179.689-46.588 46.579-179.69-54.303-54.303-45.112 173.996c-.911 3.515-3.655 6.259-7.17 7.17z"/><path d="m451 485.998c-10.685 0-20.729-4.159-28.281-11.711-7.557-7.558-11.718-17.603-11.718-28.286s4.161-20.729 11.718-28.286c7.55-7.556 17.595-11.719 28.281-11.719s20.731 4.163 28.284 11.722c7.555 7.554 11.716 17.6 11.716 28.283s-4.161 20.729-11.719 28.286c-7.552 7.552-17.595 11.711-28.281 11.711zm0-60.002c-5.341 0-10.361 2.081-14.136 5.858-7.802 7.802-7.802 20.491-.003 28.29 3.774 3.775 8.796 5.854 14.139 5.854s10.364-2.078 14.139-5.854c3.78-3.779 5.861-8.803 5.861-14.144s-2.081-10.364-5.86-14.144c-3.779-3.779-8.798-5.86-14.14-5.86z"/><path d="m81 486.004c-8.012 0-15.545-3.12-21.211-8.786-5.667-5.667-8.787-13.201-8.787-21.217s3.121-15.55 8.787-21.216c5.665-5.666 13.198-8.786 21.21-8.786s15.545 3.12 21.211 8.786 8.786 13.2 8.786 21.216-3.12 15.55-8.786 21.217c-5.665 5.666-13.198 8.786-21.21 8.786zm0-40.005c-2.669 0-5.18 1.039-7.068 2.928-1.889 1.89-2.929 4.401-2.929 7.074 0 2.674 1.04 5.186 2.929 7.074 1.888 1.889 4.398 2.929 7.069 2.929 2.67 0 5.18-1.04 7.069-2.929 1.888-1.889 2.928-4.4 2.928-7.074 0-2.673-1.04-5.185-2.928-7.073-1.89-1.889-4.4-2.929-7.07-2.929z"/><path d="m96 155.996c-9.345 0-18.134-3.638-24.748-10.245-6.612-6.613-10.252-15.401-10.252-24.75s3.64-18.137 10.25-24.746c6.613-6.614 15.403-10.256 24.75-10.256s18.137 3.643 24.751 10.256c13.645 13.645 13.645 35.847 0 49.492-6.617 6.611-15.406 10.249-24.751 10.249zm0-49.997c-4.005 0-7.772 1.562-10.609 4.399-2.831 2.831-4.391 6.597-4.391 10.603s1.56 7.772 4.392 10.604c2.833 2.831 6.602 4.391 10.609 4.391 4.006 0 7.775-1.561 10.612-4.395 5.843-5.843 5.843-15.357-.004-21.204-2.837-2.836-6.604-4.398-10.609-4.398z"/></g></g></svg>