<svg enable-background="new 0 0 512 512" height="512" viewBox="0 0 512 512" width="512" xmlns="http://www.w3.org/2000/svg"><g id="_x39_67_x2C__Arrow_x2C__Up_x2C__Left"><g><path d="m240.58 476.004-70.71-70.71 49.5-190.92 190.92-49.5 70.71 70.71-190.92 49.5z" fill="#cd2738"/><path d="m319.84 435.514c-4.939 2.471-10.95.471-13.42-4.47-2.47-4.939-.47-10.939 4.47-13.41 4.94-2.47 10.95-.47 13.42 4.471 2.47 4.939.47 10.939-4.47 13.409z"/><path d="m85.47 424.944c-4.94 2.47-10.94.47-13.41-4.471-2.47-4.939-.47-10.949 4.47-13.42 4.94-2.47 10.95-.47 13.42 4.471 2.469 4.94.46 10.95-4.48 13.42z"/><path d="m433.68 408.674c-9.77 9.771-25.59 9.771-35.359 0-9.761-9.76-9.761-25.59 0-35.35 9.77-9.76 25.59-9.76 35.359 0 9.759 9.76 9.759 25.59 0 35.35z" fill="#07cc66"/><path d="m134.52 369.935-70.71-70.711 49.49-190.92 190.92-49.5 70.71 70.71-190.91 49.5z" fill="#d94556"/><path d="m421.83 308.164c-4.94 2.47-10.95.47-13.42-4.47-2.471-4.94-.471-10.94 4.47-13.41s10.95-.47 13.42 4.47.47 10.94-4.47 13.41z"/><path d="m45.47 164.943c-4.94 2.471-10.94.471-13.41-4.47-2.47-4.939-.47-10.95 4.47-13.42s10.95-.46 13.42 4.48c2.469 4.941.46 10.941-4.48 13.41z"/><path d="m450.12 152.604c-4.94 2.471-10.95.471-13.42-4.47-2.471-4.939-.46-10.95 4.479-13.42 4.94-2.47 10.94-.47 13.41 4.47 2.471 4.94.471 10.95-4.469 13.42z"/><path d="m82.209 87.214c-11.71 11.72-30.71 11.72-42.42 0-11.72-11.72-11.72-30.71 0-42.43 11.71-11.71 30.71-11.71 42.42 0 11.721 11.72 11.721 30.71 0 42.43z" fill="#07cc66"/><path d="m445.14 70.144c-7.81 7.811-20.47 7.811-28.279 0-7.811-7.81-7.811-20.479 0-28.29 7.81-7.81 20.47-7.81 28.279 0 7.81 7.81 7.81 20.48 0 28.29z" fill="#07cc66"/><path d="m195.47 54.944c-4.94 2.47-10.95.47-13.42-4.471-2.47-4.939-.46-10.95 4.48-13.42s10.94-.46 13.41 4.48c2.47 4.941.47 10.941-4.47 13.411z"/><path d="m240.58 486.004c-2.617 0-5.171-1.028-7.072-2.929l-70.71-70.71c-2.505-2.506-3.498-6.15-2.609-9.581l49.5-190.92c.912-3.515 3.656-6.259 7.17-7.171l190.92-49.5c3.432-.886 7.075.104 9.581 2.609l70.71 70.71c2.536 2.536 3.52 6.237 2.577 9.698s-3.667 6.152-7.139 7.053l-185.227 48.024-48.024 185.226c-.9 3.473-3.591 6.196-7.052 7.139-.866.237-1.749.352-2.625.352zm-59.595-83.736 54.303 54.302 45.112-173.995c.912-3.515 3.656-6.259 7.171-7.17l173.995-45.112-54.303-54.303-179.689 46.588z"/><path d="m134.52 379.935c-2.617 0-5.171-1.028-7.072-2.929l-70.71-70.711c-2.505-2.506-3.498-6.15-2.609-9.58l49.49-190.92c.911-3.515 3.656-6.26 7.17-7.171l190.92-49.5c3.431-.888 7.076.104 9.581 2.608l70.71 70.71c2.536 2.537 3.521 6.237 2.578 9.699-.943 3.461-3.667 6.152-7.14 7.052l-185.216 48.024-48.024 185.227c-.9 3.473-3.591 6.196-7.052 7.139-.867.236-1.75.352-2.626.352zm-59.595-83.739 54.303 54.304 45.112-173.996c.912-3.515 3.656-6.259 7.17-7.17l173.986-45.112-54.303-54.303-179.689 46.589z"/><path d="m61 106.004c-10.687 0-20.731-4.163-28.284-11.723-7.554-7.553-11.716-17.598-11.716-28.282s4.162-20.729 11.718-28.286c7.553-7.552 17.596-11.712 28.282-11.712s20.729 4.159 28.281 11.712c7.557 7.557 11.719 17.602 11.719 28.286s-4.162 20.729-11.72 28.286c-7.549 7.556-17.594 11.719-28.28 11.719zm0-60.003c-5.343 0-10.364 2.079-14.139 5.854-7.799 7.799-7.799 20.488 0 28.287 3.777 3.78 8.797 5.861 14.139 5.861s10.361-2.081 14.136-5.858c3.782-3.782 5.864-8.805 5.864-14.146 0-5.342-2.082-10.364-5.861-14.144-3.775-3.775-8.797-5.854-14.139-5.854z"/><path d="m431 86.001c-8.013 0-15.545-3.12-21.211-8.786-11.698-11.698-11.698-30.733 0-42.433 5.666-5.666 13.199-8.786 21.211-8.786s15.545 3.12 21.211 8.786c11.698 11.699 11.698 30.734 0 42.433-5.666 5.666-13.199 8.786-21.211 8.786zm0-40.005c-2.67 0-5.181 1.04-7.068 2.929-1.889 1.889-2.929 4.4-2.929 7.074 0 2.673 1.04 5.186 2.929 7.073 1.888 1.889 4.398 2.929 7.068 2.929s5.181-1.04 7.068-2.929c1.889-1.888 2.929-4.4 2.929-7.073 0-2.674-1.04-5.186-2.929-7.074-1.887-1.889-4.398-2.929-7.068-2.929z"/><path d="m416 426.002c-9.347 0-18.137-3.643-24.751-10.257-6.609-6.609-10.249-15.397-10.249-24.746s3.64-18.137 10.249-24.746c6.617-6.61 15.406-10.248 24.751-10.248s18.134 3.638 24.747 10.244c13.648 13.649 13.648 35.851.004 49.496-6.614 6.614-15.404 10.257-24.751 10.257zm0-49.997c-4.007 0-7.775 1.561-10.612 4.395-2.828 2.827-4.388 6.594-4.388 10.6s1.56 7.772 4.391 10.604c2.837 2.837 6.604 4.399 10.609 4.399s7.772-1.563 10.608-4.399c5.848-5.847 5.848-15.36 0-21.207-2.833-2.832-6.601-4.392-10.608-4.392z"/></g></g></svg>