<svg enable-background="new 0 0 512 512" height="512" viewBox="0 0 512 512" width="512" xmlns="http://www.w3.org/2000/svg"><g id="_x39_68_x2C__Arrow_x2C__Up_x2C__Right"><g><path d="m35.997 240.58 70.71-70.71 190.919 49.5 49.5 190.92-70.71 70.71-49.499-190.92z" fill="#cd2738"/><path d="m76.486 319.84c-2.47-4.939-.47-10.95 4.47-13.42s10.94-.47 13.41 4.47.47 10.95-4.47 13.42c-4.939 2.47-10.939.47-13.41-4.47z"/><path d="m87.057 85.47c-2.47-4.94-.47-10.94 4.47-13.41s10.95-.47 13.42 4.47.47 10.95-4.47 13.42-10.951.46-13.42-4.48z"/><path d="m103.327 433.68c-9.77-9.77-9.77-25.59 0-35.359 9.76-9.761 25.59-9.761 35.35 0 9.76 9.77 9.76 25.59 0 35.359-9.76 9.76-25.591 9.76-35.35 0z" fill="#07cc66"/><path d="m142.066 134.52 70.71-70.71 190.92 49.49 49.5 190.92-70.71 70.71-49.5-190.91z" fill="#d94556"/><path d="m203.836 421.83c-2.47-4.94-.47-10.95 4.47-13.42s10.94-.47 13.41 4.47.47 10.95-4.47 13.42-10.939.47-13.41-4.47z"/><path d="m347.057 45.47c-2.471-4.94-.471-10.94 4.47-13.41 4.939-2.47 10.95-.47 13.42 4.47s.46 10.95-4.48 13.42c-4.941 2.47-10.941.46-13.41-4.48z"/><path d="m359.396 450.12c-2.47-4.94-.47-10.95 4.47-13.42s10.95-.46 13.42 4.479c2.47 4.94.47 10.94-4.47 13.41-4.94 2.471-10.95.471-13.42-4.469z"/><path d="m424.786 82.21c-11.72-11.71-11.72-30.71 0-42.42 11.72-11.72 30.71-11.72 42.43 0 11.711 11.71 11.711 30.71 0 42.42-11.72 11.72-30.71 11.72-42.43 0z" fill="#07cc66"/><path d="m441.856 445.14c-7.811-7.81-7.811-20.47 0-28.279 7.81-7.811 20.479-7.811 28.29 0 7.81 7.81 7.81 20.47 0 28.279-7.81 7.81-20.48 7.81-28.29 0z" fill="#07cc66"/><path d="m457.057 195.47c-2.471-4.94-.471-10.95 4.47-13.42 4.939-2.47 10.95-.46 13.42 4.48s.46 10.94-4.48 13.41c-4.941 2.47-10.941.47-13.41-4.47z"/><path d="m276.416 491c-.876 0-1.759-.115-2.627-.352-3.461-.942-6.152-3.666-7.053-7.139l-48.023-185.226-185.226-48.023c-3.472-.9-6.196-3.592-7.139-7.053-.942-3.461.042-7.162 2.578-9.698l70.71-70.71c2.506-2.505 6.15-3.497 9.581-2.609l190.919 49.5c3.515.912 6.259 3.656 7.171 7.17l49.5 190.92c.889 3.431-.104 7.075-2.609 9.581l-70.71 70.71c-1.901 1.901-4.456 2.929-7.072 2.929zm-220.985-255.712 173.995 45.112c3.515.911 6.259 3.655 7.17 7.17l45.111 173.995 54.303-54.302-46.588-179.69-179.689-46.588z"/><path d="m382.485 384.93c-.876 0-1.759-.115-2.627-.352-3.461-.942-6.152-3.666-7.052-7.139l-48.024-185.216-185.225-48.023c-3.472-.9-6.196-3.591-7.139-7.052-.942-3.461.042-7.162 2.578-9.699l70.71-70.71c2.506-2.505 6.149-3.497 9.581-2.609l190.919 49.49c3.515.911 6.26 3.656 7.171 7.17l49.5 190.92c.89 3.431-.104 7.075-2.608 9.581l-70.71 70.71c-1.902 1.9-4.456 2.929-7.074 2.929zm-220.985-255.702 173.996 45.112c3.515.912 6.259 3.656 7.17 7.17l45.112 173.986 54.303-54.303-46.589-179.689-179.689-46.579z"/><path d="m446.001 101c-10.684 0-20.729-4.162-28.286-11.719-7.556-7.549-11.719-17.594-11.719-28.281s4.163-20.731 11.723-28.284c7.553-7.554 17.598-11.716 28.282-11.716s20.729 4.162 28.286 11.719c7.553 7.552 11.712 17.596 11.712 28.281s-4.159 20.729-11.712 28.281c-7.557 7.557-17.602 11.719-28.286 11.719zm0-60c-5.341 0-10.364 2.082-14.144 5.861-3.78 3.778-5.861 8.798-5.861 14.139s2.081 10.361 5.858 14.136c3.783 3.782 8.806 5.864 14.147 5.864 5.342 0 10.364-2.082 14.144-5.861 3.775-3.775 5.854-8.796 5.854-14.139s-2.079-10.364-5.854-14.139c-3.78-3.779-8.802-5.861-14.144-5.861z"/><path d="m456.001 460.998c-8.016 0-15.55-3.121-21.216-8.787s-8.786-13.198-8.786-21.211 3.12-15.545 8.786-21.211 13.2-8.787 21.216-8.787 15.551 3.121 21.217 8.787c5.665 5.666 8.786 13.198 8.786 21.211s-3.121 15.545-8.787 21.211c-5.665 5.666-13.2 8.787-21.216 8.787zm0-39.996c-2.673 0-5.185 1.041-7.073 2.93s-2.929 4.398-2.929 7.068 1.04 5.18 2.928 7.068c1.89 1.889 4.401 2.93 7.074 2.93s5.186-1.041 7.074-2.93 2.929-4.398 2.929-7.068-1.04-5.18-2.929-7.068-4.401-2.93-7.074-2.93z"/><path d="m121.001 451c-9.349 0-18.137-3.64-24.746-10.25-6.614-6.613-10.256-15.403-10.256-24.75s3.643-18.137 10.257-24.751c6.608-6.609 15.397-10.249 24.745-10.249s18.137 3.64 24.747 10.249c13.635 13.649 13.635 35.853.003 49.498-6.612 6.613-15.401 10.253-24.75 10.253zm0-50c-4.006 0-7.772 1.56-10.604 4.391-2.837 2.837-4.399 6.604-4.399 10.609s1.562 7.772 4.398 10.608c2.832 2.832 6.598 4.392 10.604 4.392s7.772-1.56 10.604-4.392c5.842-5.848 5.842-15.369-.003-21.221-2.827-2.827-6.593-4.387-10.6-4.387z"/></g></g></svg>