<svg enable-background="new 0 0 512 512" height="512" viewBox="0 0 512 512" width="512" xmlns="http://www.w3.org/2000/svg"><g id="_x39_69_x2C__Arrow_x2C__Chevron_x2C__Left"><g><g fill="#4a78ff"><path d="m436.001 226c13.801 0 25 11.2 25 25 0 13.81-11.199 25-25 25-13.81 0-25-11.19-25-25 0-13.8 11.19-25 25-25z"/><path d="m101.001 66c11.04 0 20 8.96 20 20 0 11.05-8.96 20-20 20-11.05 0-20-8.95-20-20 0-11.04 8.951-20 20-20z"/><path d="m91.001 396c16.56 0 30 13.43 30 30s-13.44 30-30 30c-16.57 0-30-13.43-30-30s13.431-30 30-30z"/></g><path d="m431.001 86-100 170 100 170h-100l-100-170 100-170z" fill="#149c4f"/><path d="m281.001 86-100 170 100 170h-100l-100-170 100-170z" fill="#07cc66"/><path d="m452.091 328.69c5.24 1.739 8.07 7.409 6.32 12.649-1.74 5.24-7.41 8.07-12.649 6.32-5.24-1.75-8.07-7.41-6.32-12.65s7.41-8.069 12.649-6.319z"/><path d="m434.161 166.52c5.23 1.74 8.07 7.41 6.32 12.65s-7.41 8.07-12.65 6.32c-5.24-1.74-8.069-7.41-6.319-12.65 1.739-5.24 7.409-8.07 12.649-6.32z"/><path d="m344.161 36.51c5.24 1.75 8.07 7.41 6.33 12.65-1.75 5.24-7.41 8.07-12.65 6.33-5.239-1.75-8.069-7.41-6.329-12.65 1.75-5.24 7.409-8.07 12.649-6.33z"/><path d="m244.162 456.51c5.23 1.75 8.07 7.41 6.32 12.65s-7.41 8.07-12.65 6.33c-5.24-1.75-8.07-7.41-6.32-12.65 1.739-5.24 7.409-8.07 12.65-6.33z"/><path d="m64.162 126.51c5.24 1.75 8.07 7.41 6.32 12.65s-7.41 8.07-12.65 6.33c-5.24-1.75-8.07-7.41-6.32-12.65 1.739-5.24 7.409-8.07 12.65-6.33z"/><path d="m54.162 336.51c5.24 1.75 8.07 7.41 6.33 12.65-1.75 5.24-7.41 8.07-12.65 6.33-5.24-1.75-8.07-7.41-6.33-12.65 1.75-5.24 7.409-8.07 12.65-6.33z"/><path d="m431.001 436h-100c-3.543 0-6.822-1.875-8.619-4.93l-100-170c-1.841-3.13-1.841-7.011 0-10.141l100-170c1.797-3.054 5.076-4.93 8.619-4.93h100c3.588 0 6.899 1.921 8.681 5.035s1.758 6.943-.062 10.035l-97.017 164.931 97.018 164.93c1.819 3.092 1.843 6.921.062 10.035-1.783 3.113-5.094 5.035-8.682 5.035zm-94.28-20h76.796l-91.135-154.93c-1.841-3.13-1.841-7.011 0-10.141l91.135-154.929h-76.796l-94.118 160z"/><path d="m281.001 436h-100c-3.543 0-6.823-1.875-8.619-4.93l-100-170c-1.841-3.13-1.841-7.011 0-10.141l100-170c1.796-3.054 5.076-4.93 8.619-4.93h100c3.588 0 6.899 1.921 8.681 5.035s1.758 6.943-.062 10.035l-97.017 164.931 97.017 164.93c1.819 3.092 1.843 6.921.062 10.035-1.782 3.113-5.093 5.035-8.681 5.035zm-94.28-20h76.796l-91.134-154.93c-1.841-3.13-1.841-7.011 0-10.141l91.134-154.929h-76.796l-94.118 160z"/><path d="m91.001 466c-22.056 0-40-17.944-40-40s17.944-40 40-40 40 17.944 40 40-17.943 40-40 40zm0-60c-11.028 0-20 8.972-20 20s8.972 20 20 20 20-8.972 20-20-8.972-20-20-20z"/><path d="m101.001 116c-16.542 0-30-13.458-30-30s13.458-30 30-30 30 13.458 30 30-13.458 30-30 30zm0-40c-5.514 0-10 4.486-10 10s4.486 10 10 10 10-4.486 10-10-4.485-10-10-10z"/><path d="m436.001 286c-19.299 0-35-15.701-35-35s15.701-35 35-35 35 15.701 35 35-15.701 35-35 35zm0-50c-8.271 0-15 6.729-15 15s6.729 15 15 15 15-6.729 15-15-6.729-15-15-15z"/></g></g></svg>