<svg enable-background="new 0 0 512 512" height="512" viewBox="0 0 512 512" width="512" xmlns="http://www.w3.org/2000/svg"><g id="_x39_70_x2C__Arrow_x2C__Chevron_x2C__Right"><g><path d="m59.909 183.31c-5.24-1.74-8.07-7.41-6.32-12.65 1.74-5.24 7.41-8.07 12.65-6.32s8.07 7.41 6.32 12.65-7.411 8.07-12.65 6.32z"/><path d="m75.999 286c-13.8 0-25-11.2-25-25 0-13.81 11.2-25 25-25 13.81 0 25 11.19 25 25 0 13.8-11.19 25-25 25z" fill="#4a78ff"/><path d="m77.838 345.48c-5.23-1.74-8.07-7.41-6.32-12.65s7.41-8.07 12.65-6.32c5.24 1.74 8.07 7.41 6.32 12.65-1.739 5.24-7.409 8.07-12.65 6.32z"/><path d="m80.999 426 100-170-100-170h100l100 170-100 170z" fill="#149c4f"/><path d="m167.838 475.49c-5.24-1.75-8.07-7.41-6.33-12.65 1.75-5.24 7.41-8.07 12.65-6.33 5.24 1.75 8.07 7.41 6.33 12.65-1.75 5.24-7.409 8.07-12.65 6.33z"/><path d="m230.999 426 100-170-100-170h100l100 170-100 170z" fill="#07cc66"/><path d="m267.839 55.49c-5.23-1.75-8.07-7.41-6.32-12.65s7.41-8.07 12.65-6.33c5.24 1.75 8.069 7.41 6.319 12.65-1.739 5.24-7.409 8.07-12.649 6.33z"/><path d="m410.999 446c-11.04 0-20-8.96-20-20 0-11.05 8.96-20 20-20 11.05 0 20 8.95 20 20 0 11.04-8.95 20-20 20z" fill="#4a78ff"/><path d="m420.999 116c-16.561 0-30-13.43-30-30s13.439-30 30-30c16.569 0 30 13.43 30 30s-13.431 30-30 30z" fill="#4a78ff"/><path d="m447.839 385.49c-5.24-1.75-8.07-7.41-6.32-12.65s7.41-8.07 12.65-6.33c5.24 1.75 8.069 7.41 6.319 12.65-1.739 5.24-7.409 8.07-12.649 6.33z"/><path d="m457.839 175.49c-5.24-1.75-8.07-7.41-6.33-12.65 1.75-5.24 7.41-8.07 12.65-6.33 5.239 1.75 8.069 7.41 6.329 12.65-1.75 5.24-7.409 8.07-12.649 6.33z"/><path d="m180.999 436h-100c-3.587 0-6.899-1.922-8.681-5.035-1.781-3.114-1.757-6.943.062-10.035l97.017-164.93-97.018-164.93c-1.819-3.092-1.842-6.921-.062-10.035 1.782-3.114 5.094-5.035 8.682-5.035h100c3.543 0 6.823 1.875 8.619 4.93l100 170c1.841 3.129 1.841 7.011 0 10.141l-100 170c-1.797 3.054-5.076 4.929-8.619 4.929zm-82.516-20h76.796l94.118-160-94.118-160h-76.796l91.135 154.93c1.841 3.129 1.841 7.011 0 10.141z"/><path d="m330.999 436h-100c-3.587 0-6.899-1.922-8.681-5.035-1.781-3.114-1.757-6.943.062-10.035l97.017-164.93-97.018-164.93c-1.819-3.092-1.842-6.921-.062-10.035 1.781-3.114 5.093-5.035 8.681-5.035h100c3.543 0 6.822 1.875 8.619 4.93l100 170c1.841 3.129 1.841 7.011 0 10.141l-100 170c-1.796 3.054-5.075 4.929-8.618 4.929zm-82.516-20h76.796l94.118-160-94.118-160h-76.796l91.135 154.93c1.841 3.129 1.841 7.011 0 10.141z"/><path d="m420.999 126c-22.057 0-40-17.944-40-40s17.943-40 40-40c22.056 0 40 17.944 40 40s-17.944 40-40 40zm0-60c-11.028 0-20 8.972-20 20s8.972 20 20 20c11.027 0 20-8.972 20-20s-8.973-20-20-20z"/><path d="m410.999 456c-16.542 0-30-13.458-30-30s13.458-30 30-30 30 13.458 30 30-13.458 30-30 30zm0-40c-5.515 0-10 4.486-10 10s4.485 10 10 10c5.514 0 10-4.486 10-10s-4.486-10-10-10z"/><path d="m75.999 296c-19.299 0-35-15.701-35-35s15.701-35 35-35 35 15.701 35 35-15.702 35-35 35zm0-50c-8.271 0-15 6.729-15 15s6.729 15 15 15 15-6.729 15-15-6.729-15-15-15z"/></g></g></svg>