<svg enable-background="new 0 0 512 512" height="512" viewBox="0 0 512 512" width="512" xmlns="http://www.w3.org/2000/svg"><g id="_x39_71_x2C__Arrow_x2C__Chevron_x2C__Down"><g><path d="m328.689 59.909c1.74-5.24 7.41-8.07 12.65-6.32 5.24 1.74 8.07 7.41 6.32 12.65s-7.41 8.07-12.65 6.32-8.07-7.411-6.32-12.65z"/><path d="m226 75.999c0-13.8 11.2-25 25-25 13.81 0 25 11.2 25 25 0 13.81-11.19 25-25 25-13.8 0-25-11.19-25-25z" fill="#4a78ff"/><path d="m166.52 77.838c1.74-5.23 7.41-8.07 12.65-6.32s8.07 7.41 6.32 12.65c-1.74 5.24-7.41 8.07-12.65 6.32-5.24-1.739-8.07-7.409-6.32-12.65z"/><path d="m86 80.999 170 100 170-100v100l-170 99.999-170-99.999z" fill="#149c4f"/><path d="m36.51 167.838c1.75-5.24 7.41-8.07 12.65-6.33 5.24 1.75 8.07 7.41 6.33 12.65-1.75 5.24-7.41 8.07-12.65 6.33-5.24-1.749-8.07-7.409-6.33-12.65z"/><path d="m86 230.999 170 99.999 170-99.999v99.999l-170 100-170-100z" fill="#07cc66"/><path d="m456.51 267.838c1.75-5.229 7.41-8.069 12.65-6.319s8.069 7.409 6.33 12.649c-1.75 5.24-7.41 8.07-12.65 6.32-5.24-1.74-8.07-7.41-6.33-12.65z"/><path d="m66 410.998c0-11.04 8.96-20 20-20 11.05 0 20 8.96 20 20 0 11.05-8.95 20-20 20-11.04 0-20-8.95-20-20z" fill="#4a78ff"/><path d="m396 420.998c0-16.56 13.43-30 30-30s30 13.44 30 30c0 16.57-13.43 30-30 30s-30-13.43-30-30z" fill="#4a78ff"/><path d="m126.51 447.838c1.75-5.24 7.41-8.069 12.65-6.319s8.07 7.409 6.33 12.649c-1.75 5.24-7.41 8.07-12.65 6.32-5.24-1.74-8.07-7.41-6.33-12.65z"/><path d="m336.51 457.838c1.75-5.24 7.41-8.069 12.65-6.33 5.24 1.75 8.069 7.41 6.33 12.65-1.75 5.24-7.41 8.07-12.65 6.33-5.24-1.75-8.07-7.41-6.33-12.65z"/><path d="m256 290.998c-1.753 0-3.505-.46-5.07-1.381l-170-100c-3.054-1.796-4.93-5.076-4.93-8.619v-100c0-3.587 1.921-6.899 5.035-8.681 3.115-1.78 6.943-1.757 10.035.062l164.93 97.018 164.93-97.018c3.092-1.819 6.921-1.842 10.035-.062 3.113 1.781 5.035 5.093 5.035 8.681v100c0 3.543-1.876 6.823-4.93 8.619l-170 100c-1.565.921-3.317 1.381-5.07 1.381zm-160-115.719 160 94.117 160-94.117v-76.796l-154.93 91.135c-3.13 1.841-7.011 1.841-10.141 0l-154.929-91.135z"/><path d="m256 440.998c-1.753 0-3.505-.46-5.07-1.381l-170-100c-3.054-1.797-4.93-5.075-4.93-8.619v-100c0-3.587 1.921-6.899 5.035-8.681 3.115-1.78 6.943-1.757 10.035.062l164.93 97.017 164.93-97.017c3.092-1.819 6.921-1.842 10.035-.062 3.113 1.781 5.035 5.093 5.035 8.681v100c0 3.544-1.876 6.822-4.93 8.619l-170 100c-1.565.921-3.317 1.381-5.07 1.381zm-160-115.72 160 94.118 160-94.118v-76.795l-154.93 91.134c-3.13 1.842-7.011 1.842-10.141 0l-154.929-91.134z"/><path d="m426 460.998c-22.057 0-40-17.944-40-40s17.943-40 40-40c22.056 0 40 17.944 40 40s-17.944 40-40 40zm0-60c-11.028 0-20 8.972-20 20s8.972 20 20 20c11.027 0 20-8.972 20-20s-8.973-20-20-20z"/><path d="m86 440.998c-16.542 0-30-13.458-30-30s13.458-30 30-30 30 13.458 30 30-13.458 30-30 30zm0-40c-5.514 0-10 4.486-10 10s4.486 10 10 10 10-4.486 10-10-4.486-10-10-10z"/><path d="m251 110.999c-19.299 0-35-15.701-35-35s15.701-35 35-35 35 15.701 35 35-15.701 35-35 35zm0-50c-8.271 0-15 6.729-15 15s6.729 15 15 15 15-6.729 15-15-6.729-15-15-15z"/></g></g></svg>