<svg enable-background="new 0 0 512 512" height="512" viewBox="0 0 512 512" width="512" xmlns="http://www.w3.org/2000/svg"><g id="_x39_72_x2C__Arrow_x2C__Arrows_x2C__Up_x2C__Direction"><g><path d="m183.31 452.092c-1.74 5.24-7.41 8.07-12.65 6.32-5.24-1.74-8.07-7.41-6.32-12.65s7.41-8.07 12.65-6.32c5.24 1.749 8.07 7.41 6.32 12.65z"/><path d="m286 436.002c0 13.8-11.2 25-25 25-13.81 0-25-11.2-25-25 0-13.811 11.19-25 25-25 13.8 0 25 11.189 25 25z" fill="#4a78ff"/><path d="m345.479 434.162c-1.739 5.229-7.409 8.069-12.649 6.319s-8.07-7.41-6.32-12.649c1.74-5.24 7.41-8.07 12.65-6.32 5.24 1.74 8.069 7.41 6.319 12.65z"/><path d="m426 431.002-170-100-170 100v-100l170-100.001 170 100.001z" fill="#149c4f"/><path d="m475.49 344.162c-1.75 5.239-7.41 8.069-12.65 6.329-5.24-1.75-8.07-7.409-6.33-12.649 1.75-5.24 7.41-8.07 12.65-6.33 5.24 1.75 8.069 7.41 6.33 12.65z"/><path d="m426 281.002-170-100.001-170 100.001v-100.001l170-100 170 100z" fill="#07cc66"/><path d="m55.49 244.161c-1.75 5.23-7.41 8.07-12.65 6.32s-8.07-7.41-6.33-12.65c1.75-5.24 7.41-8.07 12.65-6.32 5.24 1.74 8.07 7.41 6.33 12.65z"/><path d="m446 101.001c0 11.04-8.96 20-20 20-11.05 0-20-8.96-20-20 0-11.05 8.95-20 20-20 11.04 0 20 8.95 20 20z" fill="#4a78ff"/><path d="m116 91.001c0 16.56-13.43 30-30 30s-30-13.44-30-30c0-16.57 13.43-30 30-30s30 13.43 30 30z" fill="#4a78ff"/><path d="m385.49 64.161c-1.75 5.24-7.41 8.07-12.65 6.32s-8.07-7.41-6.33-12.65c1.75-5.24 7.41-8.07 12.65-6.32 5.24 1.74 8.069 7.41 6.33 12.65z"/><path d="m175.49 54.161c-1.75 5.24-7.41 8.07-12.65 6.33-5.24-1.75-8.07-7.41-6.33-12.65 1.75-5.24 7.41-8.07 12.65-6.33 5.24 1.75 8.07 7.41 6.33 12.65z"/><path d="m426 441.002c-1.754 0-3.506-.461-5.07-1.381l-164.93-97.017-164.93 97.017c-3.092 1.818-6.922 1.842-10.035.062-3.114-1.781-5.035-5.094-5.035-8.681v-100c0-3.544 1.875-6.822 4.93-8.619l170-100.001c3.13-1.841 7.011-1.841 10.141 0l170 100.001c3.054 1.797 4.93 5.075 4.93 8.619v100c0 3.587-1.922 6.899-5.035 8.681-1.54.88-3.254 1.319-4.966 1.319zm-170-120c1.753 0 3.505.46 5.07 1.381l154.93 91.135v-76.796l-160-94.119-160 94.119v76.796l154.93-91.135c1.565-.921 3.317-1.381 5.07-1.381z"/><path d="m426 291.002c-1.754 0-3.506-.461-5.07-1.381l-164.93-97.018-164.93 97.018c-3.092 1.818-6.922 1.842-10.035.062-3.114-1.781-5.035-5.094-5.035-8.681v-100.001c0-3.543 1.875-6.823 4.93-8.619l170-100c3.13-1.841 7.011-1.841 10.141 0l170 100c3.054 1.796 4.93 5.076 4.93 8.619v100.001c0 3.587-1.922 6.899-5.035 8.681-1.54.88-3.254 1.319-4.966 1.319zm-170-120.001c1.753 0 3.505.46 5.07 1.381l154.93 91.136v-76.798l-160-94.117-160 94.117v76.797l154.93-91.136c1.565-.92 3.317-1.38 5.07-1.38z"/><path d="m86 131.001c-22.056 0-40-17.944-40-40s17.944-40 40-40 40 17.944 40 40-17.944 40-40 40zm0-60c-11.028 0-20 8.972-20 20s8.972 20 20 20 20-8.972 20-20-8.972-20-20-20z"/><path d="m426 131.001c-16.542 0-30-13.458-30-30s13.458-30 30-30 30 13.458 30 30-13.458 30-30 30zm0-40c-5.515 0-10 4.486-10 10s4.485 10 10 10c5.514 0 10-4.486 10-10s-4.486-10-10-10z"/><path d="m261 471.002c-19.299 0-35-15.701-35-35s15.701-35 35-35 35 15.701 35 35-15.701 35-35 35zm0-50c-8.271 0-15 6.729-15 15s6.729 15 15 15 15-6.729 15-15-6.729-15-15-15z"/></g></g></svg>