<svg enable-background="new 0 0 512 512" height="512" viewBox="0 0 512 512" width="512" xmlns="http://www.w3.org/2000/svg"><g id="_x39_73_x2C__Arrow_x2C__Down_x2C__Left"><g><g fill="#07cc66"><path d="m430.143 46.857c7.81 7.81 7.81 20.47 0 28.28-7.811 7.81-20.48 7.81-28.29 0-7.811-7.811-7.811-20.471 0-28.28 7.809-7.81 20.479-7.81 28.29 0z"/><path d="m307.572 411.247c13.66 13.67 13.66 35.83 0 49.5-13.67 13.67-35.83 13.67-49.5 0s-13.67-35.83 0-49.5 35.83-13.67 49.5 0z"/><path d="m115.902 173.627c11.72 11.721 11.72 30.71 0 42.431-11.71 11.72-30.71 11.72-42.42 0-11.72-11.721-11.72-30.71 0-42.431 11.71-11.71 30.71-11.71 42.42 0z"/></g><path d="m438.922 305.997-307.119 82.29 82.289-307.12 47.11 107.011 85.26-85.261 70.71 70.71-85.26 85.26z" fill="#bce4ff"/><path d="m459.162 221.518c5.24 1.739 8.07 7.41 6.33 12.649-1.75 5.23-7.41 8.07-12.65 6.32-5.239-1.75-8.069-7.41-6.329-12.65 1.75-5.239 7.409-8.069 12.649-6.319z"/><path d="m377.912 376.277c5.24 1.75 8.07 7.41 6.32 12.649-1.75 5.24-7.41 8.07-12.65 6.32-5.24-1.74-8.069-7.41-6.319-12.65 1.739-5.239 7.409-8.069 12.649-6.319z"/><path d="m186.982 419.438c5.24 1.75 8.07 7.409 6.33 12.649-1.75 5.24-7.41 8.07-12.65 6.33-5.24-1.75-8.07-7.41-6.33-12.65 1.751-5.24 7.411-8.07 12.65-6.329z"/><path d="m129.163 61.507c5.24 1.75 8.07 7.41 6.33 12.65-1.75 5.24-7.41 8.07-12.65 6.32-5.24-1.74-8.07-7.41-6.33-12.65 1.75-5.229 7.409-8.07 12.65-6.32z"/><path d="m59.163 271.507c5.24 1.75 8.07 7.41 6.32 12.65s-7.41 8.07-12.65 6.32c-5.24-1.74-8.07-7.41-6.32-12.65 1.739-5.23 7.409-8.07 12.65-6.32z"/><path d="m131.803 398.287c-2.618 0-5.171-1.029-7.072-2.929-2.526-2.526-3.513-6.208-2.588-9.659l82.29-307.12c1.098-4.099 4.664-7.059 8.896-7.383 4.229-.326 8.206 2.058 9.916 5.941l41.221 93.634 74.926-74.926c1.875-1.875 4.418-2.929 7.07-2.929s5.196 1.054 7.071 2.929l70.71 70.71c3.905 3.905 3.905 10.237 0 14.143l-74.925 74.925 93.633 41.222c3.884 1.71 6.266 5.685 5.941 9.916s-3.283 7.797-7.383 8.896l-307.119 82.29c-.854.229-1.724.34-2.587.34zm84.591-287.072-70.449 262.931 262.93-70.45-80.992-35.656c-3.021-1.33-5.19-4.065-5.799-7.31s.423-6.579 2.758-8.913l78.188-78.189-56.568-56.567-78.188 78.189c-2.334 2.334-5.67 3.365-8.914 2.757s-5.979-2.778-7.309-5.799z"/><path d="m282.822 481c-12.02 0-23.321-4.682-31.821-13.182-17.546-17.547-17.546-46.096 0-63.643 8.5-8.5 19.802-13.181 31.821-13.181s23.32 4.681 31.821 13.181c17.534 17.548 17.534 46.095.002 63.64-8.502 8.503-19.803 13.185-31.823 13.185zm0-70.005c-6.678 0-12.956 2.601-17.68 7.323-9.748 9.748-9.748 25.609.001 35.357 4.723 4.723 11.001 7.324 17.679 7.324s12.956-2.602 17.679-7.324c9.74-9.747 9.74-25.61-.003-35.36-4.72-4.719-10.998-7.32-17.676-7.32z"/><path d="m94.692 234.847c-10.687 0-20.731-4.162-28.284-11.721-15.593-15.595-15.593-40.973.003-56.569 7.552-7.553 17.596-11.712 28.281-11.712s20.729 4.159 28.281 11.711c15.597 15.598 15.597 40.976 0 56.573-7.549 7.556-17.594 11.718-28.281 11.718zm0-60.002c-5.343 0-10.364 2.079-14.139 5.854-7.799 7.799-7.799 20.489 0 28.288 3.777 3.78 8.797 5.86 14.139 5.86s10.361-2.08 14.136-5.857c7.802-7.802 7.802-20.492.003-28.291-3.774-3.775-8.796-5.854-14.139-5.854z"/><path d="m415.997 90.995c-8.015 0-15.55-3.12-21.216-8.786-11.696-11.696-11.696-30.727 0-42.423 5.666-5.666 13.201-8.786 21.216-8.786 8.016 0 15.551 3.12 21.217 8.786s8.786 13.199 8.786 21.211c0 8.013-3.12 15.546-8.786 21.212s-13.201 8.786-21.217 8.786zm0-39.995c-2.673 0-5.186 1.04-7.073 2.929-3.898 3.897-3.898 10.24 0 14.138 1.888 1.889 4.4 2.929 7.073 2.929 2.674 0 5.186-1.04 7.074-2.929s2.929-4.4 2.929-7.07-1.04-5.181-2.929-7.068c-1.888-1.889-4.4-2.929-7.074-2.929z"/></g></g></svg>