<svg enable-background="new 0 0 512 512" height="512" viewBox="0 0 512 512" width="512" xmlns="http://www.w3.org/2000/svg"><g id="_x39_74_x2C__Arrow_x2C__Down_x2C__Right"><g><path d="m221.522 52.837c1.74-5.24 7.41-8.07 12.65-6.33 5.23 1.75 8.07 7.41 6.32 12.65s-7.41 8.07-12.65 6.33c-5.24-1.749-8.07-7.409-6.32-12.65z"/><path d="m306.002 73.078 82.29 307.119-307.12-82.29 107.01-47.109-85.26-85.26 70.71-70.71 85.261 85.259z" fill="#bce4ff"/><path d="m46.862 81.857c7.81-7.81 20.47-7.81 28.28 0s7.81 20.48 0 28.29-20.47 7.81-28.28 0-7.81-20.48 0-28.29z" fill="#07cc66"/><path d="m376.282 134.087c1.75-5.24 7.41-8.07 12.65-6.32 5.239 1.75 8.069 7.41 6.319 12.65-1.739 5.24-7.409 8.07-12.649 6.32-5.24-1.739-8.07-7.409-6.32-12.65z"/><path d="m411.252 204.428c13.67-13.66 35.83-13.66 49.5 0 13.67 13.67 13.67 35.83 0 49.5-13.67 13.669-35.83 13.669-49.5 0-13.67-13.67-13.67-35.83 0-49.5z" fill="#07cc66"/><path d="m419.442 325.018c1.75-5.24 7.41-8.07 12.65-6.33 5.239 1.75 8.069 7.409 6.329 12.649-1.75 5.24-7.409 8.07-12.649 6.33-5.24-1.75-8.07-7.41-6.33-12.649z"/><path d="m61.512 382.837c1.75-5.24 7.41-8.069 12.65-6.33 5.24 1.75 8.07 7.41 6.32 12.65-1.74 5.24-7.41 8.07-12.65 6.33-5.23-1.75-8.07-7.41-6.32-12.65z"/><path d="m173.632 396.097c11.72-11.72 30.71-11.72 42.43 0 11.72 11.711 11.72 30.711 0 42.421-11.72 11.72-30.71 11.72-42.43 0-11.71-11.71-11.71-30.71 0-42.421z" fill="#07cc66"/><path d="m271.513 452.837c1.75-5.24 7.409-8.069 12.649-6.319s8.07 7.409 6.32 12.649c-1.74 5.24-7.41 8.07-12.65 6.32-5.229-1.74-8.069-7.41-6.319-12.65z"/><path d="m388.292 390.197c-.863 0-1.732-.111-2.588-.341l-307.12-82.29c-4.099-1.099-7.059-4.664-7.383-8.896s2.058-8.206 5.941-9.916l93.634-41.221-74.926-74.926c-1.875-1.875-2.929-4.419-2.929-7.071s1.054-5.196 2.929-7.071l70.71-70.71c3.905-3.905 10.237-3.905 14.143 0l74.925 74.925 41.221-93.633c1.71-3.884 5.681-6.274 9.916-5.941 4.231.324 7.798 3.284 8.896 7.383l82.29 307.12c.925 3.451-.062 7.133-2.588 9.659-1.9 1.9-4.454 2.929-7.071 2.929zm-277.073-94.592 262.931 70.45-70.45-262.93-35.655 80.992c-1.33 3.021-4.065 5.191-7.31 5.799-3.246.61-6.581-.424-8.914-2.758l-78.189-78.188-56.568 56.568 78.189 78.189c2.334 2.334 3.366 5.669 2.757 8.914-.608 3.245-2.778 5.979-5.799 7.31z"/><path d="m436.002 274.18c-12.02 0-23.32-4.682-31.82-13.182-17.547-17.545-17.547-46.095-.001-63.642 8.503-8.496 19.803-13.174 31.821-13.174s23.319 4.678 31.818 13.171c17.549 17.549 17.549 46.099.003 63.644-8.5 8.501-19.801 13.183-31.821 13.183zm0-69.997c-6.679 0-12.958 2.599-17.682 7.319-9.745 9.746-9.745 25.607.003 35.355 4.723 4.723 11.001 7.323 17.679 7.323s12.957-2.601 17.68-7.323c9.748-9.748 9.748-25.609-.001-35.357-4.72-4.718-10.999-7.317-17.679-7.317z"/><path d="m194.847 457.308c-10.684 0-20.729-4.162-28.286-11.719-15.594-15.594-15.594-40.968 0-56.563 7.557-7.557 17.603-11.719 28.286-11.719s20.729 4.162 28.286 11.719c7.556 7.551 11.719 17.596 11.719 28.282s-4.163 20.731-11.722 28.284c-7.554 7.554-17.599 11.716-28.283 11.716zm0-60.001c-5.341 0-10.364 2.082-14.144 5.861-7.796 7.797-7.797 20.482 0 28.278 3.78 3.779 8.803 5.861 14.144 5.861s10.364-2.082 14.144-5.861c3.781-3.777 5.861-8.798 5.861-14.139 0-5.342-2.081-10.362-5.858-14.137-3.783-3.781-8.806-5.863-14.147-5.863z"/><path d="m61.002 126.005c-8.012 0-15.545-3.121-21.211-8.787-11.698-11.698-11.698-30.733 0-42.432 5.666-5.665 13.199-8.786 21.211-8.786s15.545 3.12 21.211 8.786c11.699 11.699 11.699 30.734 0 42.433-5.666 5.666-13.199 8.786-21.211 8.786zm0-40.005c-2.67 0-5.18 1.04-7.068 2.928-1.889 1.888-2.929 4.4-2.929 7.074s1.04 5.186 2.929 7.074c1.888 1.889 4.398 2.929 7.068 2.929s5.181-1.04 7.069-2.929c1.889-1.888 2.929-4.4 2.929-7.074s-1.04-5.186-2.929-7.074c-1.888-1.888-4.399-2.928-7.069-2.928z"/></g></g></svg>