<svg enable-background="new 0 0 512 512" height="512" viewBox="0 0 512 512" width="512" xmlns="http://www.w3.org/2000/svg"><g id="_x39_75_x2C__Arrow_x2C__Up_x2C__Left"><g><path d="m290.472 459.163c-1.74 5.239-7.41 8.069-12.65 6.329-5.229-1.75-8.069-7.409-6.319-12.649s7.409-8.07 12.649-6.33c5.24 1.75 8.07 7.41 6.32 12.65z"/><path d="m205.991 438.923-82.29-307.12 307.12 82.29-107.009 47.109 85.259 85.261-70.71 70.71-85.259-85.26z" fill="#bce4ff"/><path d="m465.132 430.143c-7.811 7.811-20.471 7.811-28.28 0-7.81-7.81-7.81-20.479 0-28.29 7.81-7.81 20.47-7.81 28.28 0 7.809 7.81 7.809 20.48 0 28.29z" fill="#07cc66"/><path d="m135.711 377.913c-1.75 5.239-7.41 8.069-12.65 6.319s-8.07-7.41-6.32-12.649c1.74-5.24 7.41-8.07 12.65-6.32 5.24 1.74 8.07 7.41 6.32 12.65z"/><path d="m100.741 307.572c-13.67 13.66-35.83 13.66-49.5 0-13.67-13.67-13.67-35.83 0-49.5 13.67-13.669 35.83-13.669 49.5 0 13.67 13.67 13.67 35.83 0 49.5z" fill="#07cc66"/><path d="m92.551 186.982c-1.75 5.24-7.41 8.07-12.65 6.33-5.24-1.75-8.07-7.41-6.33-12.65 1.75-5.24 7.41-8.07 12.65-6.33 5.24 1.751 8.071 7.411 6.33 12.65z"/><path d="m450.481 129.163c-1.75 5.24-7.41 8.07-12.649 6.33-5.24-1.75-8.07-7.41-6.32-12.65 1.74-5.24 7.41-8.07 12.649-6.33 5.231 1.75 8.07 7.41 6.32 12.65z"/><path d="m338.361 115.903c-11.72 11.72-30.71 11.72-42.43 0-11.72-11.71-11.72-30.71 0-42.42 11.72-11.72 30.71-11.72 42.43 0 11.71 11.71 11.71 30.71 0 42.42z" fill="#07cc66"/><path d="m240.481 59.163c-1.75 5.24-7.41 8.07-12.65 6.32s-8.07-7.41-6.32-12.65c1.74-5.24 7.41-8.07 12.65-6.32 5.231 1.739 8.07 7.41 6.32 12.65z"/><path d="m205.995 448.923c-.254 0-.51-.01-.767-.029-4.231-.324-7.797-3.283-8.896-7.383l-82.29-307.12c-.925-3.451.062-7.133 2.588-9.659 2.527-2.526 6.208-3.513 9.659-2.588l307.12 82.29c4.1 1.098 7.059 4.664 7.383 8.896.324 4.231-2.058 8.206-5.941 9.916l-93.633 41.221 74.925 74.926c3.905 3.905 3.905 10.237 0 14.143l-70.71 70.71c-3.905 3.904-10.237 3.904-14.142 0l-74.926-74.926-41.222 93.634c-1.605 3.647-5.21 5.969-9.148 5.969zm-68.152-302.978 70.45 262.931 35.656-80.992c1.33-3.021 4.065-5.191 7.31-5.8 3.244-.604 6.58.424 8.914 2.758l78.188 78.188 56.568-56.567-78.189-78.189c-2.334-2.334-3.365-5.67-2.757-8.914.608-3.245 2.778-5.979 5.799-7.31l80.992-35.655z"/><path d="m75.991 327.817c-12.019 0-23.319-4.678-31.818-13.172-17.549-17.549-17.549-46.098-.003-63.645 8.5-8.5 19.801-13.181 31.821-13.181s23.321 4.681 31.821 13.181c17.546 17.547 17.546 46.096 0 63.643-8.502 8.497-19.802 13.174-31.821 13.174zm0-69.997c-6.678 0-12.957 2.601-17.679 7.323-9.748 9.748-9.748 25.609 0 35.357 4.72 4.717 11 7.316 17.679 7.316s12.958-2.6 17.682-7.318c9.746-9.746 9.746-25.607-.003-35.355-4.722-4.722-11.001-7.323-17.679-7.323z"/><path d="m317.146 134.692c-10.684 0-20.729-4.162-28.286-11.718-7.556-7.55-11.719-17.595-11.719-28.281s4.163-20.731 11.722-28.284c7.555-7.554 17.6-11.716 28.283-11.716s20.729 4.162 28.286 11.719c15.594 15.595 15.594 40.969 0 56.563-7.556 7.556-17.602 11.717-28.286 11.717zm0-60c-5.341 0-10.364 2.082-14.145 5.861-3.78 3.777-5.86 8.798-5.86 14.139s2.08 10.361 5.857 14.136c3.783 3.783 8.807 5.864 14.147 5.864 5.342 0 10.364-2.081 14.144-5.861 7.797-7.796 7.797-20.481 0-28.278-3.778-3.779-8.801-5.861-14.143-5.861z"/><path d="m450.991 446.001c-8.012 0-15.545-3.121-21.211-8.788-5.665-5.665-8.786-13.199-8.786-21.215s3.12-15.55 8.786-21.217c5.666-5.666 13.199-8.786 21.211-8.786 8.013 0 15.545 3.12 21.211 8.786 5.667 5.667 8.787 13.201 8.787 21.217s-3.121 15.55-8.787 21.216c-5.665 5.666-13.198 8.787-21.211 8.787zm0-40.006c-2.67 0-5.18 1.04-7.068 2.929s-2.929 4.4-2.929 7.074c0 2.673 1.04 5.185 2.929 7.073 1.889 1.89 4.399 2.93 7.068 2.93 2.67 0 5.181-1.041 7.069-2.93s2.929-4.4 2.929-7.073c0-2.674-1.04-5.186-2.929-7.074s-4.398-2.929-7.069-2.929z"/></g></g></svg>