<svg enable-background="new 0 0 512 512" height="512" viewBox="0 0 512 512" width="512" xmlns="http://www.w3.org/2000/svg"><g id="_x39_76_x2C__Arrow_x2C__Up_x2C__Right"><g><path d="m52.837 290.482c-5.24-1.74-8.07-7.41-6.33-12.65 1.75-5.23 7.41-8.07 12.65-6.32s8.07 7.41 6.33 12.65c-1.75 5.24-7.409 8.07-12.65 6.32z"/><path d="m73.078 206.002 307.119-82.29-82.289 307.12-47.111-107.01-85.259 85.26-70.71-70.71 85.259-85.26z" fill="#bce4ff"/><path d="m81.857 465.142c-7.81-7.81-7.81-20.47 0-28.279 7.81-7.811 20.48-7.811 28.29 0 7.81 7.81 7.81 20.47 0 28.279-7.81 7.81-20.48 7.81-28.29 0z" fill="#07cc66"/><path d="m134.087 135.723c-5.24-1.75-8.07-7.41-6.32-12.65s7.41-8.07 12.65-6.32c5.24 1.74 8.07 7.41 6.32 12.65-1.739 5.24-7.409 8.07-12.65 6.32z"/><path d="m204.428 100.752c-13.66-13.67-13.66-35.83 0-49.5 13.67-13.67 35.83-13.67 49.5 0s13.67 35.83 0 49.5c-13.671 13.67-35.83 13.67-49.5 0z" fill="#07cc66"/><path d="m325.018 92.563c-5.24-1.75-8.07-7.41-6.33-12.65 1.75-5.24 7.41-8.07 12.65-6.33 5.24 1.75 8.07 7.41 6.33 12.65-1.75 5.24-7.41 8.069-12.65 6.33z"/><path d="m382.838 450.492c-5.24-1.75-8.07-7.41-6.33-12.65 1.75-5.24 7.41-8.07 12.65-6.32 5.239 1.74 8.069 7.41 6.329 12.65-1.75 5.23-7.409 8.07-12.649 6.32z"/><path d="m396.098 338.372c-11.72-11.72-11.72-30.71 0-42.43 11.71-11.721 30.71-11.721 42.42 0 11.72 11.72 11.72 30.71 0 42.43-11.71 11.71-30.71 11.71-42.42 0z" fill="#07cc66"/><path d="m452.838 240.492c-5.24-1.75-8.07-7.41-6.32-12.65 1.75-5.239 7.41-8.069 12.65-6.319 5.24 1.739 8.069 7.41 6.319 12.649-1.739 5.23-7.409 8.07-12.649 6.32z"/><path d="m297.904 440.832c-3.938 0-7.543-2.322-9.148-5.971l-41.222-93.634-74.925 74.926c-3.904 3.904-10.237 3.904-14.142 0l-70.71-70.71c-3.905-3.905-3.905-10.237 0-14.143l74.925-74.925-93.633-41.222c-3.884-1.71-6.266-5.685-5.941-9.916s3.284-7.797 7.383-8.896l307.12-82.29c3.449-.926 7.133.062 9.659 2.588s3.513 6.209 2.588 9.659l-82.289 307.12c-1.099 4.1-4.664 7.059-8.896 7.383-.258.021-.514.031-.769.031zm-47.107-127.01c.613 0 1.229.057 1.843.171 3.245.608 5.98 2.778 7.31 5.8l35.656 80.992 70.449-262.931-262.931 70.449 80.992 35.656c3.021 1.33 5.191 4.064 5.799 7.31.608 3.244-.423 6.579-2.758 8.913l-78.188 78.189 56.568 56.567 78.189-78.188c1.893-1.892 4.444-2.928 7.071-2.928z"/><path d="m229.178 121.005c-12.02 0-23.321-4.682-31.821-13.182-17.535-17.547-17.535-46.095-.002-63.64 8.502-8.502 19.803-13.183 31.823-13.183s23.321 4.681 31.821 13.181c17.546 17.547 17.546 46.097 0 63.643-8.5 8.499-19.802 13.181-31.821 13.181zm0-70.005c-6.678 0-12.956 2.601-17.679 7.323-9.74 9.747-9.74 25.61.002 35.36 4.72 4.72 10.999 7.321 17.676 7.321s12.956-2.602 17.679-7.324c9.748-9.748 9.748-25.609 0-35.357-4.722-4.722-11.001-7.323-17.678-7.323z"/><path d="m417.308 357.154c-10.685 0-20.729-4.159-28.281-11.711-7.557-7.557-11.719-17.603-11.719-28.286s4.162-20.729 11.72-28.286c7.549-7.556 17.594-11.72 28.28-11.72 10.688 0 20.732 4.164 28.284 11.724 7.554 7.554 11.716 17.599 11.716 28.282s-4.162 20.729-11.719 28.286c-7.552 7.552-17.596 11.711-28.281 11.711zm0-60.003c-5.341 0-10.361 2.081-14.136 5.858-3.782 3.783-5.864 8.807-5.864 14.147s2.082 10.364 5.861 14.144c3.774 3.775 8.796 5.854 14.139 5.854s10.364-2.078 14.139-5.854c7.8-7.799 7.8-20.488 0-28.287-3.778-3.781-8.798-5.862-14.139-5.862z"/><path d="m96.002 481c-8.016 0-15.55-3.121-21.216-8.787-5.665-5.666-8.786-13.198-8.786-21.211s3.121-15.545 8.787-21.211 13.2-8.787 21.216-8.787 15.55 3.121 21.216 8.787 8.786 13.198 8.786 21.211-3.121 15.545-8.787 21.211c-5.665 5.666-13.2 8.787-21.216 8.787zm0-39.996c-2.673 0-5.185 1.041-7.074 2.93s-2.928 4.398-2.928 7.068 1.04 5.18 2.928 7.068c1.889 1.889 4.401 2.93 7.074 2.93s5.185-1.041 7.074-2.93 2.929-4.398 2.929-7.068-1.04-5.18-2.928-7.068c-1.889-1.889-4.402-2.93-7.075-2.93z"/></g></g></svg>