<svg enable-background="new 0 0 512 512" height="512" viewBox="0 0 512 512" width="512" xmlns="http://www.w3.org/2000/svg"><g id="_x39_77_x2C__Arrow_x2C__Next_x2C__Left"><g><g fill="#5cbeff"><path d="m431.004 115.999c11.04 0 20 8.95 20 20s-8.96 20-20 20c-11.05 0-20-8.95-20-20s8.95-20 20-20z"/><circle cx="171.004" cy="95.999" r="30"/><circle cx="126.004" cy="420.999" r="35"/></g><path d="m421.004 215.999v100h-120.569l42.359 108.98-275.37-158.98 275.37-158.979-42.359 108.979z" fill="#bce4ff"/><path d="m439.954 401.529c2.47 4.93.46 10.939-4.479 13.41-4.94 2.47-10.94.47-13.41-4.471-2.471-4.939-.471-10.95 4.47-13.42s10.949-.459 13.419 4.481z"/><path d="m399.944 51.529c2.47 4.94.47 10.95-4.47 13.42s-10.95.46-13.42-4.479c-2.471-4.94-.471-10.94 4.47-13.41 4.94-2.471 10.951-.471 13.42 4.469z"/><path d="m249.954 431.529c2.47 4.939.46 10.95-4.479 13.42-4.94 2.47-10.94.46-13.41-4.48-2.471-4.939-.471-10.939 4.47-13.41 4.94-2.47 10.949-.47 13.419 4.47z"/><path d="m87.145 87.189c2.47 4.939.46 10.95-4.48 13.42-4.939 2.47-10.939.47-13.41-4.47-2.47-4.94-.47-10.95 4.471-13.42 4.938-2.47 10.948-.47 13.419 4.47z"/><path d="m69.944 341.529c2.47 4.93.47 10.939-4.47 13.41-4.94 2.47-10.95.47-13.42-4.471-2.471-4.939-.471-10.95 4.47-13.42 4.94-2.469 10.951-.459 13.42 4.481z"/><path d="m342.792 434.979c-1.716 0-3.441-.44-4.998-1.34l-275.37-158.98c-3.094-1.786-5-5.088-5-8.66s1.906-6.874 5-8.66l275.37-158.979c3.675-2.123 8.29-1.694 11.511 1.069s4.348 7.258 2.811 11.214l-37.065 95.356h105.954c5.523 0 10 4.478 10 10v100c0 5.522-4.477 10-10 10h-105.955l36.833 94.76c.598 1.282.932 2.713.932 4.221 0 5.51-4.456 9.979-9.962 10-.021-.001-.04-.001-.061-.001zm-255.367-168.98 235.75 136.106-32.062-82.483c-1.195-3.077-.796-6.546 1.068-9.27 1.863-2.725 4.952-4.354 8.253-4.354h110.569v-80h-110.568c-3.301 0-6.39-1.629-8.253-4.354-1.864-2.724-2.264-6.192-1.068-9.27l32.062-82.482z"/><path d="m126.004 465.999c-24.813 0-45-20.187-45-45s20.188-45 45-45c24.813 0 45 20.187 45 45s-20.187 45-45 45zm0-70c-13.785 0-25 11.215-25 25s11.215 25 25 25 25-11.215 25-25-11.215-25-25-25z"/><path d="m171.004 135.999c-22.056 0-40-17.943-40-40 0-22.056 17.944-40 40-40 22.057 0 40 17.944 40 40 0 22.057-17.943 40-40 40zm0-60c-11.027 0-20 8.973-20 20 0 11.028 8.973 20 20 20 11.028 0 20-8.972 20-20 0-11.027-8.972-20-20-20z"/><path d="m431.004 165.999c-16.542 0-30-13.458-30-30s13.458-30 30-30 30 13.458 30 30-13.458 30-30 30zm0-40c-5.514 0-10 4.486-10 10 0 5.515 4.486 10 10 10 5.515 0 10-4.485 10-10 0-5.514-4.485-10-10-10z"/></g></g></svg>