<svg enable-background="new 0 0 512 512" height="512" viewBox="0 0 512 512" width="512" xmlns="http://www.w3.org/2000/svg"><g id="_x39_78_x2C__Arrow_x2C__Next_x2C__Right"><g><path d="m80.996 396.001c-11.04 0-20-8.95-20-20s8.96-20 20-20c11.05 0 20 8.95 20 20s-8.95 20-20 20z" fill="#5cbeff"/><path d="m72.046 110.471c-2.47-4.93-.46-10.94 4.479-13.41 4.94-2.47 10.94-.47 13.41 4.47 2.471 4.94.471 10.95-4.47 13.42-4.94 2.469-10.949.46-13.419-4.48z"/><path d="m90.996 296.001v-100.001h120.569l-42.359-108.979 275.37 158.979-275.37 158.981 42.359-108.98z" fill="#bce4ff"/><path d="m112.056 460.471c-2.47-4.939-.47-10.95 4.47-13.42s10.95-.46 13.42 4.48c2.471 4.939.471 10.939-4.47 13.41-4.94 2.47-10.951.47-13.42-4.47z"/><path d="m262.046 80.471c-2.47-4.94-.46-10.95 4.479-13.42 4.94-2.47 10.94-.46 13.41 4.48 2.471 4.94.471 10.94-4.47 13.41-4.94 2.47-10.949.47-13.419-4.47z"/><circle cx="340.996" cy="416.001" fill="#5cbeff" r="30"/><circle cx="385.996" cy="91" fill="#5cbeff" r="35"/><path d="m424.855 424.811c-2.47-4.939-.46-10.949 4.48-13.42 4.939-2.47 10.939-.47 13.41 4.471 2.47 4.939.47 10.949-4.471 13.42-4.938 2.469-10.948.469-13.419-4.471z"/><path d="m442.056 170.471c-2.47-4.93-.47-10.94 4.47-13.41s10.95-.47 13.42 4.47c2.471 4.94.471 10.95-4.47 13.42-4.94 2.469-10.951.46-13.42-4.48z"/><path d="m169.208 414.981c-2.336 0-4.656-.816-6.513-2.409-3.221-2.764-4.348-7.258-2.811-11.214l37.065-95.357h-105.953c-5.523 0-10-4.478-10-10v-100.001c0-5.523 4.477-10 10-10h105.954l-37.065-95.357c-1.537-3.956-.41-8.451 2.811-11.213s7.835-3.192 11.511-1.07l275.37 158.98c3.094 1.786 5 5.087 5 8.66s-1.906 6.874-5 8.66l-275.37 158.981c-1.558.899-3.283 1.34-4.999 1.34zm-68.212-128.98h110.569c3.301 0 6.39 1.629 8.253 4.354 1.864 2.724 2.264 6.192 1.068 9.27l-32.062 82.483 235.751-136.108-235.75-136.106 32.062 82.483c1.195 3.077.796 6.545-1.068 9.27-1.863 2.725-4.952 4.354-8.253 4.354h-110.57z"/><path d="m385.996 136c-24.813 0-45-20.187-45-45s20.187-45 45-45 45 20.187 45 45-20.187 45-45 45zm0-70c-13.785 0-25 11.215-25 25s11.215 25 25 25 25-11.215 25-25-11.215-25-25-25z"/><path d="m340.996 456.001c-22.057 0-40-17.944-40-40s17.943-40 40-40c22.056 0 40 17.944 40 40s-17.944 40-40 40zm0-60c-11.028 0-20 8.972-20 20s8.972 20 20 20c11.027 0 20-8.972 20-20s-8.973-20-20-20z"/><path d="m80.996 406.001c-16.542 0-30-13.458-30-30s13.458-30 30-30 30 13.458 30 30-13.458 30-30 30zm0-40c-5.515 0-10 4.486-10 10s4.485 10 10 10c5.514 0 10-4.486 10-10s-4.486-10-10-10z"/></g></g></svg>