<svg enable-background="new 0 0 512 512" height="512" viewBox="0 0 512 512" width="512" xmlns="http://www.w3.org/2000/svg"><g id="_x39_79_x2C__Arrow_x2C__Down_x2C__Full"><g><path d="m115.999 80.996c0-11.04 8.95-20 20-20s20 8.96 20 20c0 11.05-8.95 20-20 20s-20-8.95-20-20z" fill="#5cbeff"/><path d="m401.529 72.046c4.93-2.47 10.94-.46 13.41 4.48s.47 10.94-4.47 13.41-10.95.47-13.42-4.47-.459-10.95 4.48-13.42z"/><path d="m215.999 90.996h100v120.57l108.98-42.36-158.98 275.37-158.98-275.37 108.98 42.36z" fill="#bce4ff"/><path d="m51.529 112.056c4.94-2.47 10.95-.47 13.42 4.47s.46 10.95-4.48 13.42-10.94.47-13.41-4.47-.47-10.95 4.47-13.42z"/><path d="m431.529 262.046c4.94-2.47 10.95-.46 13.42 4.48 2.47 4.939.46 10.939-4.479 13.41-4.94 2.47-10.94.47-13.41-4.471-2.47-4.939-.47-10.948 4.469-13.419z"/><circle cx="95.999" cy="340.996" fill="#5cbeff" r="30"/><circle cx="420.999" cy="385.996" fill="#5cbeff" r="35"/><path d="m87.189 424.856c4.94-2.471 10.95-.46 13.42 4.479 2.47 4.94.47 10.94-4.47 13.41s-10.95.47-13.42-4.47c-2.47-4.939-.47-10.949 4.47-13.419z"/><path d="m341.529 442.057c4.93-2.471 10.94-.471 13.41 4.47 2.47 4.939.47 10.95-4.47 13.42s-10.95.47-13.42-4.47c-2.47-4.941-.459-10.951 4.48-13.42z"/><path d="m265.999 454.576c-3.572 0-6.874-1.906-8.66-5l-158.98-275.37c-2.122-3.675-1.693-8.29 1.07-11.51 2.763-3.222 7.258-4.347 11.213-2.811l95.357 37.065v-105.954c0-5.523 4.477-10 10-10h100c5.523 0 10 4.477 10 10v105.954l95.357-37.065c3.957-1.538 8.45-.411 11.213 2.811 2.763 3.221 3.192 7.835 1.07 11.51l-158.98 275.371c-1.786 3.093-5.087 4.999-8.66 4.999zm-136.106-265.75 136.106 235.75 136.106-235.75-82.483 32.061c-3.076 1.197-6.545.796-9.27-1.068s-4.354-4.952-4.354-8.253v-110.57h-80v110.57c0 3.301-1.629 6.389-4.354 8.253-2.724 1.863-6.192 2.263-9.27 1.068z"/><path d="m420.999 430.996c-24.813 0-45-20.187-45-45s20.188-45 45-45c24.813 0 45 20.187 45 45s-20.186 45-45 45zm0-70c-13.785 0-25 11.215-25 25s11.215 25 25 25 25-11.215 25-25-11.215-25-25-25z"/><path d="m95.999 380.996c-22.056 0-40-17.944-40-40s17.944-40 40-40 40 17.944 40 40-17.944 40-40 40zm0-60c-11.028 0-20 8.972-20 20s8.972 20 20 20 20-8.972 20-20-8.972-20-20-20z"/><path d="m135.999 110.996c-16.542 0-30-13.458-30-30s13.458-30 30-30 30 13.458 30 30-13.458 30-30 30zm0-40c-5.514 0-10 4.486-10 10s4.486 10 10 10 10-4.486 10-10-4.486-10-10-10z"/></g></g></svg>