<svg enable-background="new 0 0 512 512" height="512" viewBox="0 0 512 512" width="512" xmlns="http://www.w3.org/2000/svg"><g id="_x39_80_x2C__Arrow_x2C__Arrows_x2C__Up_x2C__Direction"><g><path d="m396.001 431.004c0 11.04-8.95 20-20 20s-20-8.96-20-20c0-11.05 8.95-20 20-20s20 8.95 20 20z" fill="#5cbeff"/><path d="m110.471 439.954c-4.93 2.47-10.939.46-13.41-4.48-2.47-4.939-.47-10.939 4.471-13.409 4.939-2.471 10.949-.471 13.42 4.47 2.469 4.939.459 10.949-4.481 13.419z"/><path d="m296.001 421.004h-100v-120.569l-108.98 42.359 158.98-275.369 158.979 275.369-108.979-42.359z" fill="#bce4ff"/><path d="m460.471 399.944c-4.939 2.47-10.95.47-13.42-4.471-2.47-4.939-.46-10.949 4.48-13.42 4.939-2.47 10.939-.47 13.409 4.471 2.471 4.94.471 10.95-4.469 13.42z"/><path d="m80.471 249.954c-4.939 2.47-10.95.46-13.42-4.479-2.47-4.94-.46-10.94 4.48-13.41 4.939-2.47 10.939-.47 13.409 4.47 2.471 4.94.471 10.949-4.469 13.419z"/><circle cx="416.001" cy="171.004" fill="#5cbeff" r="30"/><circle cx="91.001" cy="126.004" fill="#5cbeff" r="35"/><path d="m424.811 87.145c-4.939 2.47-10.949.46-13.42-4.48-2.47-4.939-.47-10.939 4.471-13.41 4.939-2.47 10.949-.47 13.42 4.471 2.469 4.938.469 10.949-4.471 13.419z"/><path d="m170.471 69.944c-4.93 2.47-10.939.47-13.41-4.47-2.47-4.94-.47-10.95 4.471-13.42 4.939-2.471 10.949-.471 13.42 4.47 2.469 4.94.459 10.951-4.481 13.42z"/><path d="m296.001 431.004h-100c-5.523 0-10-4.478-10-10v-105.954l-95.357 37.064c-3.957 1.539-8.451.41-11.213-2.81-2.763-3.222-3.192-7.836-1.07-11.511l158.98-275.369c1.786-3.094 5.087-5 8.66-5 3.572 0 6.874 1.906 8.66 5l158.979 275.369c2.122 3.675 1.693 8.289-1.069 11.511-2.764 3.221-7.258 4.35-11.214 2.81l-95.356-37.064v105.954c0 5.522-4.478 10-10 10zm-90-20h80v-110.569c0-3.301 1.629-6.39 4.354-8.253 2.723-1.864 6.19-2.266 9.27-1.067l82.482 32.06-136.106-235.75-136.106 235.749 82.483-32.06c3.077-1.197 6.546-.796 9.27 1.067 2.725 1.863 4.354 4.952 4.354 8.253v110.57z"/><path d="m91.001 171.004c-24.813 0-45-20.187-45-45s20.187-45 45-45 45 20.188 45 45c0 24.813-20.188 45-45 45zm0-70c-13.785 0-25 11.215-25 25s11.215 25 25 25 25-11.215 25-25-11.215-25-25-25z"/><path d="m416.001 211.004c-22.057 0-40-17.943-40-40 0-22.056 17.943-40 40-40 22.056 0 40 17.944 40 40 0 22.057-17.944 40-40 40zm0-60c-11.028 0-20 8.973-20 20 0 11.028 8.972 20 20 20 11.027 0 20-8.972 20-20 0-11.027-8.973-20-20-20z"/><path d="m376.001 461.004c-16.542 0-30-13.458-30-30s13.458-30 30-30 30 13.458 30 30-13.458 30-30 30zm0-40c-5.515 0-10 4.486-10 10s4.485 10 10 10c5.514 0 10-4.486 10-10s-4.486-10-10-10z"/></g></g></svg>