<svg enable-background="new 0 0 512 512" height="512" viewBox="0 0 512 512" width="512" xmlns="http://www.w3.org/2000/svg"><g id="_x39_81_x2C__Arrow_x2C__Down_x2C__Left"><g><g fill="#07cc66"><path d="m439.852 288.681c13.67 13.66 13.67 35.82 0 49.49s-35.83 13.67-49.5 0-13.67-35.83 0-49.49c13.669-13.67 35.83-13.67 49.5 0z"/><path d="m142.361 421.251c7.81 7.81 7.81 20.47 0 28.28s-20.48 7.81-28.29 0c-7.81-7.811-7.81-20.471 0-28.28 7.81-7.81 20.48-7.81 28.29 0z"/><path d="m138.681 62.711c9.76 9.77 9.76 25.6 0 35.36-9.77 9.76-25.59 9.76-35.36 0-9.76-9.76-9.76-25.59 0-35.36 9.77-9.76 25.59-9.76 35.36 0z"/></g><path d="m401.602 151.431-127.281 127.28-70.71-70.7v-.01l127.281-127.28z" fill="#5cbeff"/><path d="m316.102 320.501-162.311 7.39 7.39-162.31 42.43 42.43z" fill="#3256c1"/><path d="m480.611 231.171c2.47 4.94.46 10.95-4.48 13.42-4.939 2.47-10.939.46-13.409-4.48-2.471-4.94-.471-10.94 4.47-13.41 4.939-2.47 10.95-.47 13.419 4.47z"/><path d="m434.941 70.921c2.47 4.94.47 10.94-4.47 13.41s-10.95.47-13.42-4.47c-2.471-4.94-.461-10.95 4.479-13.42 4.942-2.47 10.942-.46 13.411 4.48z"/><path d="m346.262 379.671c2.47 4.94.47 10.94-4.471 13.41-4.939 2.47-10.95.47-13.42-4.47s-.47-10.95 4.47-13.42 10.95-.46 13.421 4.48z"/><path d="m218.981 82.681c2.47 4.94.46 10.94-4.48 13.41s-10.94.47-13.41-4.47-.47-10.94 4.47-13.41 10.95-.47 13.42 4.47z"/><path d="m214.941 452.141c2.47 4.94.47 10.94-4.47 13.41s-10.95.47-13.42-4.47-.46-10.95 4.48-13.42 10.94-.46 13.41 4.48z"/><path d="m63.421 294.811c2.47 4.94.47 10.95-4.47 13.421-4.94 2.47-10.95.46-13.42-4.48s-.47-10.94 4.47-13.41 10.95-.471 13.42 4.469z"/><path d="m49.271 195.821c2.47 4.94.47 10.95-4.47 13.42s-10.94.46-13.41-4.48-.47-10.94 4.47-13.41 10.95-.47 13.41 4.47z"/><path d="m274.321 288.711c-2.56 0-5.118-.976-7.071-2.929l-70.71-70.7c-1.875-1.875-2.929-4.419-2.929-7.071s1.054-5.206 2.929-7.081l127.28-127.28c3.905-3.904 10.237-3.904 14.142 0l70.71 70.71c1.876 1.875 2.93 4.418 2.93 7.071s-1.054 5.196-2.93 7.071l-127.279 127.28c-1.954 1.952-4.513 2.929-7.072 2.929zm-56.572-80.706 56.572 56.564 113.139-113.138-56.567-56.568z"/><path d="m153.791 337.891c-2.646 0-5.191-1.05-7.071-2.929-1.987-1.987-3.046-4.719-2.918-7.526l7.39-162.309c.18-3.958 2.68-7.437 6.374-8.869 3.693-1.434 7.885-.55 10.687 2.252l154.919 154.92c2.802 2.802 3.686 6.993 2.253 10.687s-4.911 6.194-8.869 6.374l-162.31 7.39c-.152.006-.304.01-.455.01zm16.349-149.209-5.861 128.721 128.722-5.86z"/><path d="m118.431 373.241c-2.646 0-5.191-1.05-7.071-2.929-1.987-1.987-3.046-4.72-2.918-7.526l7.4-162.311c.252-5.517 4.931-9.764 10.445-9.534 5.517.251 9.786 4.928 9.534 10.445l-6.901 151.366 151.376-6.892c5.522-.288 10.193 4.018 10.445 9.534.251 5.518-4.018 10.193-9.535 10.444l-162.32 7.391c-.152.008-.304.012-.455.012z"/><path d="m121.001 115.391c-9.345 0-18.134-3.639-24.748-10.246-13.644-13.644-13.646-35.849-.007-49.502 6.621-6.614 15.41-10.252 24.755-10.252s18.134 3.638 24.748 10.245c13.646 13.66 13.644 35.865.004 49.506-6.618 6.61-15.407 10.249-24.752 10.249zm0-50c-4.007 0-7.776 1.561-10.613 4.395-5.841 5.848-5.843 15.367.004 21.214 2.833 2.831 6.602 4.392 10.609 4.392s7.776-1.561 10.613-4.395c5.843-5.843 5.841-15.363-.007-21.218-2.83-2.827-6.599-4.388-10.606-4.388z"/><path d="m415.102 358.424c-12.021 0-23.321-4.682-31.821-13.182s-13.182-19.801-13.182-31.82c0-12.021 4.683-23.319 13.185-31.814 8.497-8.498 19.798-13.179 31.818-13.179s23.32 4.681 31.821 13.181c8.499 8.493 13.181 19.792 13.181 31.813 0 12.02-4.681 23.32-13.181 31.82-8.501 8.499-19.802 13.181-31.821 13.181zm0-69.995c-6.678 0-12.956 2.601-17.679 7.323-4.724 4.72-7.324 10.994-7.324 17.67 0 6.677 2.602 12.955 7.324 17.678s11.001 7.324 17.679 7.324 12.956-2.602 17.679-7.324 7.323-11.001 7.323-17.678c0-6.676-2.6-12.95-7.32-17.668-4.726-4.725-11.005-7.325-17.682-7.325z"/><path d="m128.216 465.389c-8.015 0-15.55-3.12-21.216-8.786-11.696-11.697-11.695-30.728 0-42.423 5.667-5.666 13.201-8.786 21.216-8.786 8.016 0 15.55 3.12 21.216 8.786s8.786 13.198 8.786 21.211c0 8.012-3.12 15.545-8.786 21.212-5.666 5.666-13.201 8.786-21.216 8.786zm0-39.995c-2.673 0-5.186 1.04-7.074 2.929-3.897 3.897-3.897 10.24.001 14.139 1.888 1.888 4.4 2.928 7.073 2.928s5.186-1.04 7.074-2.929c1.889-1.889 2.929-4.399 2.929-7.069s-1.04-5.18-2.928-7.068c-1.89-1.89-4.402-2.93-7.075-2.93z"/></g></g></svg>