<svg enable-background="new 0 0 512 512" height="512" viewBox="0 0 512 512" width="512" xmlns="http://www.w3.org/2000/svg"><g id="_x39_82_x2C__Arrow_x2C__Down_x2C__Right"><g><path d="m231.16 31.389c4.94-2.47 10.95-.46 13.42 4.48s.46 10.94-4.48 13.41-10.94.47-13.41-4.47-.47-10.95 4.47-13.42z"/><path d="m288.67 72.149c13.66-13.67 35.819-13.67 49.489 0 13.671 13.67 13.671 35.83 0 49.5-13.67 13.67-35.829 13.67-49.489 0-13.67-13.67-13.67-35.83 0-49.5z" fill="#07cc66"/><path d="m70.91 77.059c4.94-2.47 10.94-.47 13.41 4.47s.47 10.95-4.47 13.42-10.95.46-13.42-4.48-.46-10.94 4.48-13.41z"/><path d="m89.704 159.395h180.001v99.998h-180.001z" fill="#5cbeff" transform="matrix(-.707 -.707 .707 -.707 158.711 484.528)"/><path d="m379.659 165.739c4.94-2.47 10.94-.47 13.41 4.47 2.471 4.94.471 10.95-4.47 13.42-4.94 2.47-10.95.47-13.42-4.47s-.459-10.95 4.48-13.42z"/><path d="m320.489 195.899 7.391 162.31-162.31-7.39z" fill="#3256c1"/><path d="m82.67 293.02c4.94-2.471 10.94-.46 13.41 4.479 2.47 4.94.47 10.94-4.47 13.41s-10.94.47-13.41-4.47-.47-10.95 4.47-13.419z"/><path d="m452.13 297.06c4.939-2.471 10.939-.471 13.41 4.47 2.47 4.939.47 10.95-4.471 13.42-4.939 2.47-10.949.46-13.42-4.48-2.469-4.941-.46-10.941 4.481-13.41z"/><path d="m421.239 369.639c7.811-7.81 20.471-7.81 28.28 0 7.811 7.811 7.811 20.48 0 28.29-7.81 7.811-20.47 7.811-28.28 0-7.809-7.81-7.809-20.48 0-28.29z" fill="#07cc66"/><path d="m62.7 373.319c9.77-9.76 25.6-9.76 35.36 0 9.76 9.77 9.76 25.59 0 35.359-9.76 9.761-25.59 9.761-35.36 0-9.76-9.769-9.76-25.589 0-35.359z" fill="#07cc66"/><path d="m294.8 448.579c4.939-2.47 10.95-.47 13.42 4.47s.46 10.95-4.48 13.42c-4.939 2.471-10.939.471-13.409-4.47-2.472-4.939-.472-10.95 4.469-13.42z"/><path d="m195.81 462.729c4.94-2.471 10.95-.471 13.42 4.47 2.47 4.939.46 10.939-4.48 13.41-4.94 2.47-10.94.47-13.41-4.471-2.47-4.939-.47-10.949 4.47-13.409z"/><path d="m207.99 318.389c-2.56 0-5.118-.977-7.071-2.929l-127.28-127.28c-3.905-3.905-3.905-10.237 0-14.142l70.71-70.71c1.875-1.875 4.418-2.929 7.071-2.929s5.196 1.054 7.071 2.929l127.279 127.281c1.875 1.875 2.929 4.418 2.929 7.071s-1.054 5.196-2.929 7.071l-70.71 70.709c-1.952 1.952-4.511 2.929-7.07 2.929zm-113.138-137.28 113.138 113.137 56.568-56.567-113.138-113.138z"/><path d="m327.899 368.209c-.006-.001-.013-.001-.02 0-.151 0-.303-.004-.455-.011l-162.31-7.39c-3.958-.18-7.437-2.68-8.869-6.374-1.433-3.693-.549-7.885 2.252-10.687l154.919-154.92c2.802-2.802 6.992-3.684 10.688-2.252 3.693 1.432 6.193 4.911 6.374 8.869l7.36 161.666c.04.36.06.728.06 1.099.001 5.522-4.475 10-9.999 10zm-139.229-26.349 128.721 5.86-5.86-128.72z"/><path d="m363.23 403.569c-.152 0-.304-.004-.456-.011l-162.31-7.4c-5.517-.251-9.786-4.928-9.534-10.444.252-5.518 4.927-9.81 10.445-9.534l151.367 6.901-6.893-151.377c-.251-5.517 4.019-10.193 9.535-10.444 5.504-.253 10.193 4.018 10.444 9.535l7.391 162.32c.128 2.808-.932 5.539-2.919 7.526-1.879 1.879-4.424 2.928-7.07 2.928z"/><path d="m80.383 425.999c-9.348 0-18.138-3.639-24.751-10.246-13.639-13.652-13.639-35.855-.007-49.501 6.621-6.614 15.411-10.252 24.758-10.252 9.35 0 18.138 3.64 24.748 10.248 13.636 13.649 13.636 35.853.004 49.498-6.613 6.613-15.402 10.253-24.752 10.253zm0-49.999c-4.009 0-7.779 1.561-10.616 4.395-5.838 5.844-5.838 15.365.007 21.217 2.83 2.827 6.6 4.388 10.609 4.388 4.007 0 7.774-1.56 10.605-4.392 5.842-5.848 5.842-15.369-.003-21.221-2.828-2.828-6.594-4.387-10.602-4.387z"/><path d="m313.411 141.902c-12.021 0-23.319-4.683-31.815-13.185-17.543-17.543-17.543-46.093.003-63.639 8.493-8.5 19.792-13.182 31.813-13.182 12.019 0 23.319 4.681 31.819 13.181s13.182 19.801 13.182 31.821-4.682 23.321-13.182 31.821-19.801 13.183-31.82 13.183zm0-70.006c-6.676 0-12.95 2.6-17.668 7.321-9.75 9.751-9.75 25.613-.002 35.36 4.72 4.724 10.994 7.324 17.67 7.324 6.677 0 12.954-2.601 17.677-7.324 4.724-4.723 7.324-11.001 7.324-17.679s-2.601-12.956-7.323-17.679-11.001-7.323-17.678-7.323z"/><path d="m435.38 413.787c-8.013 0-15.546-3.121-21.212-8.787-5.665-5.666-8.786-13.2-8.786-21.216s3.12-15.55 8.786-21.217c5.667-5.666 13.199-8.786 21.212-8.786 8.012 0 15.545 3.12 21.211 8.786 5.666 5.667 8.786 13.201 8.786 21.217s-3.12 15.55-8.786 21.216-13.199 8.787-21.211 8.787zm0-40.006c-2.67 0-5.181 1.04-7.069 2.929s-2.929 4.4-2.929 7.074c0 2.673 1.04 5.185 2.929 7.073s4.399 2.93 7.069 2.93 5.18-1.041 7.068-2.93 2.929-4.4 2.929-7.073c0-2.674-1.04-5.186-2.929-7.074-1.887-1.889-4.398-2.929-7.068-2.929z"/></g></g></svg>