<svg enable-background="new 0 0 512 512" height="512" viewBox="0 0 512 512" width="512" xmlns="http://www.w3.org/2000/svg"><g id="_x39_83_x2C__Arrow_x2C__Up_x2C__Left"><g><path d="m280.841 480.611c-4.94 2.47-10.95.46-13.42-4.48-2.471-4.939-.46-10.939 4.479-13.41 4.94-2.47 10.94-.47 13.41 4.471 2.47 4.939.47 10.95-4.469 13.419z"/><path d="m223.331 439.852c-13.66 13.67-35.82 13.67-49.49 0s-13.67-35.83 0-49.5 35.83-13.67 49.49 0c13.669 13.669 13.669 35.83 0 49.5z" fill="#07cc66"/><path d="m441.091 434.941c-4.94 2.47-10.94.47-13.41-4.471-2.47-4.939-.47-10.949 4.47-13.42 4.94-2.47 10.95-.46 13.42 4.48 2.47 4.941.459 10.941-4.48 13.411z"/><path d="m242.295 252.607h180.002v99.999h-180.002z" fill="#5cbeff" transform="matrix(.707 .707 -.707 .707 311.301 -146.337)"/><path d="m132.34 346.261c-4.94 2.471-10.94.471-13.41-4.47-2.47-4.939-.47-10.95 4.47-13.42s10.95-.47 13.42 4.47c2.471 4.94.46 10.95-4.48 13.42z"/><path d="m191.51 316.102-7.389-162.311 162.31 7.39z" fill="#3256c1"/><path d="m429.331 218.981c-4.94 2.47-10.94.46-13.41-4.48-2.471-4.94-.471-10.94 4.47-13.41 4.94-2.47 10.94-.47 13.41 4.47s.47 10.95-4.47 13.42z"/><path d="m59.871 214.941c-4.94 2.47-10.94.47-13.41-4.47s-.47-10.95 4.47-13.42 10.95-.46 13.42 4.48c2.469 4.94.46 10.94-4.48 13.41z"/><path d="m90.76 142.361c-7.81 7.81-20.47 7.81-28.28 0s-7.81-20.48 0-28.29 20.47-7.81 28.28 0 7.81 20.48 0 28.29z" fill="#07cc66"/><path d="m449.301 138.681c-9.771 9.76-25.601 9.76-35.36 0-9.76-9.77-9.76-25.59 0-35.36 9.76-9.76 25.59-9.76 35.36 0 9.76 9.77 9.76 25.59 0 35.36z" fill="#07cc66"/><path d="m217.2 63.421c-4.94 2.47-10.95.47-13.42-4.47s-.46-10.95 4.48-13.42 10.94-.47 13.41 4.47c2.471 4.94.471 10.95-4.47 13.42z"/><path d="m316.19 49.271c-4.939 2.47-10.95.47-13.42-4.47s-.46-10.94 4.48-13.41c4.939-2.47 10.939-.47 13.41 4.47s.471 10.95-4.47 13.41z"/><path d="m360.581 411.602c-2.56 0-5.119-.977-7.071-2.929l-127.28-127.28c-3.905-3.905-3.905-10.237 0-14.143l70.71-70.709c3.904-3.905 10.237-3.905 14.143 0l127.279 127.28c3.905 3.905 3.905 10.237 0 14.143l-70.71 70.71c-1.953 1.951-4.512 2.928-7.071 2.928zm-113.139-137.281 113.139 113.138 56.567-56.567-113.137-113.139z"/><path d="m191.508 326.102c-1.214 0-2.439-.221-3.614-.677-3.694-1.433-6.194-4.91-6.374-8.868l-7.39-162.311c-.128-2.807.932-5.539 2.919-7.526s4.722-3.043 7.525-2.918l162.31 7.39c3.958.18 7.437 2.68 8.869 6.374s.549 7.885-2.252 10.687l-154.92 154.92c-1.91 1.91-4.468 2.929-7.073 2.929zm3.1-161.823 5.86 128.722 122.862-122.861z"/><path d="m156.153 290.751c-5.314 0-9.738-4.183-9.982-9.545l-7.39-162.32c-.128-2.807.932-5.539 2.919-7.526 1.988-1.987 4.719-3.04 7.526-2.918l162.31 7.4c5.518.251 9.786 4.928 9.534 10.445s-4.925 9.79-10.445 9.534l-151.367-6.901 6.892 151.376c.251 5.518-4.018 10.193-9.535 10.444-.154.008-.309.011-.462.011z"/><path d="m431.617 156.001c-9.35 0-18.139-3.64-24.748-10.25-13.635-13.649-13.635-35.853-.003-49.498 6.612-6.613 15.401-10.253 24.751-10.253 9.347 0 18.138 3.639 24.751 10.246 13.639 13.653 13.639 35.856.007 49.502-6.62 6.615-15.411 10.253-24.758 10.253zm0-50c-4.008 0-7.773 1.56-10.605 4.391-5.843 5.849-5.843 15.37.004 21.222 2.828 2.828 6.594 4.388 10.602 4.388 4.009 0 7.779-1.561 10.616-4.395 5.839-5.845 5.839-15.366-.008-21.218-2.83-2.827-6.6-4.388-10.609-4.388z"/><path d="m198.589 460.104c-12.02 0-23.32-4.682-31.82-13.182-17.546-17.547-17.546-46.096 0-63.643 8.5-8.5 19.801-13.181 31.82-13.181 12.021 0 23.319 4.682 31.815 13.184 17.543 17.544 17.543 46.093-.002 63.64-8.493 8.5-19.792 13.182-31.813 13.182zm0-70.004c-6.677 0-12.955 2.601-17.678 7.323-9.749 9.748-9.749 25.609 0 35.357 4.723 4.723 11 7.324 17.678 7.324 6.675 0 12.95-2.601 17.667-7.321 9.751-9.751 9.751-25.612.002-35.36-4.718-4.724-10.993-7.323-17.669-7.323z"/><path d="m76.621 158.219c-8.012 0-15.545-3.12-21.211-8.786-11.698-11.699-11.698-30.734 0-42.433 5.667-5.666 13.199-8.786 21.211-8.786s15.544 3.12 21.211 8.786c11.698 11.699 11.698 30.734 0 42.433-5.666 5.666-13.2 8.786-21.211 8.786zm0-40.005c-2.67 0-5.181 1.04-7.069 2.929-1.889 1.888-2.929 4.4-2.929 7.074s1.04 5.186 2.929 7.074c1.888 1.889 4.399 2.929 7.069 2.929 2.669 0 5.18-1.04 7.068-2.929 1.889-1.888 2.929-4.4 2.929-7.074s-1.04-5.186-2.929-7.074c-1.888-1.889-4.399-2.929-7.068-2.929z"/></g></g></svg>