<svg enable-background="new 0 0 512 512" height="512" viewBox="0 0 512 512" width="512" xmlns="http://www.w3.org/2000/svg"><g id="_x39_84_x2C__Arrow_x2C__Up_x2C__Right"><g><path d="m31.389 280.829c-2.47-4.94-.46-10.95 4.48-13.42 4.939-2.47 10.939-.46 13.41 4.479 2.47 4.94.47 10.94-4.471 13.41-4.939 2.471-10.949.471-13.419-4.469z"/><path d="m72.149 223.319c-13.67-13.66-13.671-35.82 0-49.49 13.67-13.67 35.829-13.67 49.5 0 13.67 13.67 13.67 35.83 0 49.49-13.67 13.67-35.83 13.67-49.5 0z" fill="#07cc66"/><path d="m77.059 441.079c-2.47-4.94-.47-10.94 4.471-13.41 4.939-2.47 10.95-.47 13.42 4.47s.46 10.95-4.48 13.42c-4.941 2.47-10.941.46-13.411-4.48z"/><path d="m119.394 282.285h180.001v99.999h-180.001z" fill="#5cbeff" transform="matrix(-.707 .707 -.707 -.707 592.419 419.179)"/><path d="m165.739 132.329c-2.471-4.94-.471-10.94 4.47-13.41 4.94-2.47 10.95-.47 13.42 4.47s.47 10.95-4.47 13.42-10.95.46-13.42-4.48z"/><path d="m195.899 191.499 162.31-7.39-7.39 162.31z" fill="#3256c1"/><path d="m293.019 429.319c-2.47-4.94-.46-10.94 4.48-13.41s10.94-.47 13.41 4.47.47 10.94-4.47 13.41-10.95.47-13.42-4.47z"/><path d="m297.059 59.859c-2.47-4.94-.47-10.94 4.471-13.41 4.939-2.47 10.949-.47 13.42 4.47 2.47 4.94.46 10.95-4.48 13.42-4.941 2.47-10.941.46-13.411-4.48z"/><path d="m369.639 90.749c-7.81-7.81-7.81-20.47 0-28.28 7.811-7.81 20.48-7.81 28.29 0 7.811 7.81 7.811 20.47 0 28.28-7.81 7.81-20.48 7.81-28.29 0z" fill="#07cc66"/><path d="m373.319 449.289c-9.761-9.771-9.761-25.6 0-35.36 9.77-9.76 25.59-9.76 35.359 0 9.761 9.761 9.761 25.59 0 35.36-9.769 9.76-25.589 9.76-35.359 0z" fill="#07cc66"/><path d="m448.579 217.189c-2.47-4.94-.47-10.95 4.47-13.42s10.95-.46 13.42 4.48c2.471 4.94.471 10.94-4.47 13.41-4.94 2.47-10.95.47-13.42-4.47z"/><path d="m462.729 316.179c-2.471-4.939-.471-10.95 4.47-13.42 4.939-2.47 10.939-.46 13.41 4.48 2.47 4.939.47 10.939-4.471 13.41-4.939 2.47-10.949.47-13.409-4.47z"/><path d="m181.109 441.279c-2.652 0-5.196-1.054-7.071-2.929l-70.71-70.71c-3.905-3.905-3.905-10.237 0-14.143l127.279-127.28c1.876-1.875 4.419-2.929 7.071-2.929s5.196 1.054 7.071 2.929l70.71 70.709c3.905 3.905 3.905 10.237 0 14.143l-127.279 127.28c-1.875 1.877-4.418 2.93-7.071 2.93zm-56.568-80.71 56.568 56.567 113.138-113.138-56.568-56.568z"/><path d="m350.821 356.419c-2.605 0-5.162-1.019-7.073-2.929l-154.92-154.92c-2.802-2.802-3.685-6.993-2.252-10.687 1.432-3.694 4.91-6.194 8.868-6.374l162.311-7.39c2.808-.123 5.538.932 7.525 2.919s3.047 4.718 2.919 7.525l-7.391 162.311c-.18 3.958-2.68 7.436-6.374 8.868-1.173.456-2.399.677-3.613.677zm-131.821-155.961 122.86 122.861 5.861-128.722z"/><path d="m386.177 321.069c-.153 0-.308-.003-.463-.011-5.518-.251-9.786-4.928-9.534-10.444l6.9-151.368-151.377 6.892c-5.503.244-10.193-4.018-10.444-9.535s4.018-10.193 9.535-10.444l162.32-7.39c2.807-.128 5.539.931 7.526 2.919 1.987 1.987 3.046 4.719 2.918 7.526l-7.399 162.31c-.245 5.363-4.669 9.545-9.982 9.545z"/><path d="m390.999 466.609c-9.345 0-18.134-3.639-24.747-10.245-13.646-13.66-13.645-35.865-.004-49.507 6.617-6.61 15.406-10.249 24.751-10.249s18.134 3.639 24.747 10.245c13.645 13.646 13.646 35.851.008 49.503-6.621 6.615-15.41 10.253-24.755 10.253zm0-50.001c-4.007 0-7.775 1.562-10.612 4.396-5.843 5.843-5.842 15.363.007 21.218 2.83 2.826 6.599 4.388 10.605 4.388s7.775-1.562 10.612-4.396c5.842-5.847 5.843-15.367-.004-21.214-2.833-2.83-6.601-4.392-10.608-4.392z"/><path d="m96.899 243.571c-12.021 0-23.321-4.681-31.821-13.181-8.499-8.493-13.182-19.792-13.182-31.812s4.682-23.32 13.182-31.82 19.801-13.181 31.821-13.181 23.32 4.681 31.82 13.181c8.501 8.5 13.182 19.801 13.182 31.82 0 12.021-4.682 23.319-13.184 31.815-8.497 8.497-19.798 13.178-31.818 13.178zm0-69.994c-6.678 0-12.956 2.601-17.679 7.324-4.724 4.723-7.324 11-7.324 17.677 0 6.676 2.601 12.95 7.321 17.667 4.725 4.725 11.004 7.326 17.682 7.326s12.956-2.601 17.679-7.324c4.724-4.72 7.323-10.994 7.323-17.67 0-6.677-2.601-12.955-7.323-17.677s-11.001-7.323-17.679-7.323z"/><path d="m383.784 106.606c-8.016 0-15.551-3.12-21.217-8.786-11.695-11.696-11.695-30.727 0-42.423 5.667-5.666 13.201-8.786 21.217-8.786 8.015 0 15.55 3.12 21.216 8.786 11.696 11.696 11.696 30.727 0 42.423-5.666 5.666-13.201 8.786-21.216 8.786zm0-39.994c-2.674 0-5.186 1.04-7.074 2.928-3.897 3.897-3.897 10.24 0 14.138 1.889 1.889 4.4 2.929 7.074 2.929 2.673 0 5.186-1.04 7.073-2.929 1.889-1.888 2.929-4.399 2.929-7.069s-1.04-5.181-2.929-7.069c-1.887-1.889-4.4-2.928-7.073-2.928z"/></g></g></svg>