<svg enable-background="new 0 0 512 512" height="512" viewBox="0 0 512 512" width="512" xmlns="http://www.w3.org/2000/svg"><g id="_x39_85_x2C__Arrow_x2C__Down_x2C__Full"><g><g fill="#07cc66"><circle cx="405.995" cy="181" r="35"/><path d="m380.995 406c11.05 0 20 8.95 20 20s-8.95 20-20 20c-11.04 0-20-8.95-20-20s8.96-20 20-20z"/><path d="m105.995 66c13.81 0 25 11.19 25 25s-11.19 25-25 25c-13.8 0-25-11.19-25-25s11.2-25 25-25z"/></g><path d="m340.995 256-109.54 120-109.55-120h60 99.999z" fill="#d94556"/><path d="m181.905 76h100v180h-100z" fill="#bce4ff"/><path d="m454.165 376.52c5.239 1.74 8.069 7.41 6.319 12.65-1.739 5.23-7.41 8.07-12.649 6.32-5.229-1.75-8.069-7.41-6.319-12.65s7.409-8.07 12.649-6.32z"/><path d="m404.165 276.52c5.239 1.74 8.069 7.41 6.319 12.65-1.739 5.23-7.41 8.07-12.649 6.32-5.229-1.75-8.069-7.41-6.319-12.65s7.409-8.07 12.649-6.32z"/><path d="m394.154 76.52c5.24 1.74 8.07 7.41 6.33 12.65-1.75 5.23-7.41 8.07-12.649 6.32-5.24-1.75-8.069-7.41-6.33-12.65 1.75-5.24 7.41-8.07 12.649-6.32z"/><path d="m144.165 416.51c5.24 1.75 8.07 7.41 6.32 12.65-1.74 5.24-7.41 8.07-12.65 6.32-5.24-1.74-8.07-7.41-6.32-12.65 1.75-5.23 7.41-8.07 12.65-6.32z"/><path d="m104.155 156.52c5.24 1.74 8.07 7.41 6.33 12.65-1.75 5.23-7.41 8.07-12.65 6.32s-8.07-7.41-6.33-12.65c1.75-5.24 7.41-8.07 12.65-6.32z"/><path d="m64.165 356.52c5.24 1.74 8.07 7.41 6.32 12.65-1.74 5.23-7.41 8.07-12.65 6.32s-8.07-7.41-6.32-12.65 7.41-8.07 12.65-6.32z"/><path d="m281.904 266c-5.522 0-10-4.478-10-10v-170h-80v170c0 5.522-4.477 10-10 10s-10-4.478-10-10v-180c0-5.523 4.477-10 10-10h100c5.523 0 10 4.477 10 10v180c0 5.522-4.476 10-10 10z"/><path d="m231.455 386c-2.81 0-5.491-1.183-7.385-3.258l-109.55-120c-2.671-2.926-3.363-7.153-1.764-10.778s5.188-5.964 9.149-5.964h219.09c3.962 0 7.55 2.339 9.149 5.964s.907 7.852-1.764 10.778l-109.54 120c-1.894 2.075-4.574 3.258-7.385 3.258zm-86.881-120 86.88 95.168 86.873-95.168z"/><path d="m231.455 436c-2.81 0-5.491-1.183-7.385-3.258l-109.55-120c-3.724-4.079-3.436-10.404.643-14.128 4.079-3.722 10.404-3.435 14.127.644l102.165 111.91 102.155-111.91c3.723-4.078 10.049-4.367 14.127-.644 4.08 3.724 4.367 10.049.645 14.128l-109.54 120c-1.896 2.075-4.576 3.258-7.387 3.258z"/><path d="m105.995 126c-19.299 0-35-15.701-35-35s15.701-35 35-35 35 15.701 35 35-15.701 35-35 35zm0-50c-8.271 0-15 6.729-15 15s6.729 15 15 15 15-6.729 15-15-6.729-15-15-15z"/><path d="m405.995 226c-24.813 0-45-20.187-45-45s20.187-45 45-45 45 20.187 45 45-20.186 45-45 45zm0-70c-13.785 0-25 11.215-25 25s11.215 25 25 25 25-11.215 25-25-11.215-25-25-25z"/><path d="m380.995 456c-16.542 0-30-13.458-30-30s13.458-30 30-30 30 13.458 30 30-13.458 30-30 30zm0-40c-5.515 0-10 4.486-10 10s4.485 10 10 10 10-4.486 10-10-4.485-10-10-10z"/></g></g></svg>