<svg enable-background="new 0 0 512 512" height="512" viewBox="0 0 512 512" width="512" xmlns="http://www.w3.org/2000/svg"><g id="_x39_86_x2C__Arrow_x2C__Arrows_x2C__Up_x2C__Direction_x2C__Straight"><g><path d="m57.835 135.48c-5.24-1.74-8.07-7.41-6.32-12.65 1.74-5.23 7.41-8.07 12.65-6.32 5.23 1.75 8.07 7.41 6.32 12.65s-7.41 8.07-12.65 6.32z"/><circle cx="106.005" cy="331" fill="#07cc66" r="35"/><path d="m107.835 235.48c-5.24-1.74-8.07-7.41-6.32-12.65 1.74-5.23 7.41-8.07 12.65-6.32 5.23 1.75 8.07 7.41 6.32 12.65s-7.41 8.07-12.65 6.32z"/><path d="m117.845 435.48c-5.24-1.74-8.07-7.41-6.33-12.65 1.75-5.23 7.41-8.07 12.65-6.32s8.07 7.41 6.33 12.65c-1.75 5.24-7.41 8.07-12.65 6.32z"/><path d="m131.005 106c-11.05 0-20-8.95-20-20s8.95-20 20-20c11.04 0 20 8.95 20 20s-8.96 20-20 20z" fill="#07cc66"/><path d="m171.005 256 109.54-120 109.551 120h-60-100.001z" fill="#d94556"/><path d="m230.095 256h100v180h-100z" fill="#bce4ff"/><path d="m367.835 95.49c-5.239-1.75-8.069-7.41-6.319-12.65 1.739-5.24 7.41-8.07 12.649-6.32 5.24 1.74 8.069 7.41 6.319 12.65-1.75 5.23-7.409 8.07-12.649 6.32z"/><path d="m406.005 446c-13.81 0-25-11.19-25-25s11.19-25 25-25c13.8 0 25 11.19 25 25s-11.2 25-25 25z" fill="#07cc66"/><path d="m407.846 355.48c-5.24-1.74-8.07-7.41-6.33-12.65 1.75-5.23 7.41-8.07 12.649-6.32 5.24 1.75 8.069 7.41 6.33 12.65-1.75 5.24-7.41 8.07-12.649 6.32z"/><path d="m447.835 155.48c-5.239-1.74-8.069-7.41-6.319-12.65 1.739-5.23 7.41-8.07 12.649-6.32 5.24 1.75 8.069 7.41 6.319 12.65s-7.409 8.07-12.649 6.32z"/><path d="m330.096 446h-100c-5.523 0-10-4.478-10-10v-180c0-5.523 4.477-10 10-10s10 4.477 10 10v170h80v-170c0-5.523 4.477-10 10-10 5.522 0 10 4.477 10 10v180c0 5.522-4.478 10-10 10z"/><path d="m390.115 266c-.008-.001-.015 0-.02 0h-219.09c-3.962 0-7.55-2.339-9.149-5.964s-.907-7.852 1.764-10.778l109.54-120c1.895-2.076 4.575-3.258 7.386-3.258s5.49 1.182 7.385 3.258l109.193 119.609c1.847 1.814 2.992 4.34 2.992 7.133-.001 5.522-4.477 10-10.001 10zm-196.442-20h173.753l-86.881-95.167z"/><path d="m390.098 216c-2.712 0-5.415-1.097-7.388-3.258l-102.165-111.91-102.154 111.91c-3.724 4.079-10.048 4.367-14.127.644-4.079-3.724-4.367-10.049-.644-14.127l109.54-120c1.895-2.076 4.575-3.258 7.386-3.258s5.49 1.182 7.385 3.258l109.551 120c3.724 4.079 3.436 10.404-.643 14.127-1.919 1.75-4.334 2.614-6.741 2.614z"/><path d="m406.005 456c-19.299 0-35-15.701-35-35s15.701-35 35-35 35 15.701 35 35-15.701 35-35 35zm0-50c-8.271 0-15 6.729-15 15s6.729 15 15 15 15-6.729 15-15-6.73-15-15-15z"/><path d="m106.005 376c-24.813 0-45-20.187-45-45s20.187-45 45-45 45 20.187 45 45-20.187 45-45 45zm0-70c-13.785 0-25 11.215-25 25s11.215 25 25 25 25-11.215 25-25-11.215-25-25-25z"/><path d="m131.005 116c-16.542 0-30-13.458-30-30s13.458-30 30-30 30 13.458 30 30-13.458 30-30 30zm0-40c-5.514 0-10 4.486-10 10s4.486 10 10 10 10-4.486 10-10-4.486-10-10-10z"/></g></g></svg>