<svg enable-background="new 0 0 512 512" height="512" viewBox="0 0 512 512" width="512" xmlns="http://www.w3.org/2000/svg"><g id="_x39_87_x2C__Arrow_x2C__Back_x2C__Left"><g><path d="m135.48 454.165c-1.74 5.24-7.41 8.07-12.65 6.32-5.23-1.74-8.07-7.41-6.32-12.65 1.75-5.229 7.41-8.07 12.65-6.32s8.07 7.41 6.32 12.65z"/><circle cx="331" cy="405.995" fill="#07cc66" r="35"/><path d="m235.48 404.165c-1.74 5.24-7.41 8.07-12.65 6.32-5.23-1.74-8.07-7.41-6.32-12.65 1.75-5.229 7.41-8.07 12.65-6.32s8.07 7.41 6.32 12.65z"/><path d="m435.48 394.155c-1.74 5.24-7.41 8.069-12.65 6.33-5.23-1.75-8.07-7.41-6.32-12.65s7.41-8.07 12.65-6.33c5.24 1.75 8.07 7.41 6.32 12.65z"/><path d="m106 380.995c0 11.05-8.95 20-20 20s-20-8.95-20-20c0-11.04 8.95-20 20-20s20 8.96 20 20z" fill="#07cc66"/><path d="m256 340.995-120-109.54 120-109.55v60 100z" fill="#d94556"/><path d="m256 181.905h180v100h-180z" fill="#bce4ff"/><path d="m95.49 144.165c-1.75 5.24-7.41 8.069-12.65 6.319-5.24-1.739-8.07-7.409-6.32-12.649 1.74-5.24 7.41-8.07 12.65-6.32 5.23 1.75 8.07 7.41 6.32 12.65z"/><path d="m446 105.995c0 13.81-11.189 25-25 25s-25-11.19-25-25c0-13.8 11.189-25 25-25s25 11.2 25 25z" fill="#07cc66"/><path d="m355.48 104.155c-1.74 5.239-7.41 8.069-12.65 6.329-5.23-1.75-8.07-7.409-6.32-12.649s7.41-8.07 12.65-6.33c5.24 1.75 8.07 7.41 6.32 12.65z"/><path d="m155.48 64.165c-1.74 5.24-7.41 8.069-12.65 6.319-5.23-1.739-8.07-7.409-6.32-12.649s7.41-8.07 12.65-6.32 8.07 7.41 6.32 12.65z"/><path d="m436 291.905h-180c-5.523 0-10-4.478-10-10s4.477-10 10-10h170v-80h-170c-5.523 0-10-4.478-10-10 0-5.523 4.477-10 10-10h180c5.523 0 10 4.477 10 10v100c0 5.523-4.477 10-10 10z"/><path d="m256.002 350.995c-2.448 0-4.864-.898-6.744-2.614l-120-109.54c-2.076-1.895-3.258-4.575-3.258-7.386s1.182-5.491 3.258-7.386l120-109.55c2.926-2.671 7.153-3.361 10.778-1.764 3.625 1.599 5.964 5.188 5.964 9.149v219.09c0 3.962-2.339 7.55-5.964 9.149-1.297.574-2.671.852-4.034.852zm-105.169-119.541 95.167 86.873v-173.753z"/><path d="m205.997 350.995c-2.407 0-4.821-.863-6.739-2.614l-120-109.54c-2.076-1.895-3.258-4.575-3.258-7.386s1.182-5.491 3.258-7.386l120-109.55c4.079-3.725 10.405-3.436 14.127.644 3.724 4.078 3.436 10.403-.643 14.127l-111.91 102.164 111.909 102.155c4.079 3.724 4.367 10.049.644 14.128-1.972 2.161-4.676 3.258-7.388 3.258z"/><path d="m421 140.995c-19.299 0-35-15.701-35-35s15.701-35 35-35 35 15.701 35 35-15.701 35-35 35zm0-50c-8.271 0-15 6.729-15 15s6.729 15 15 15 15-6.729 15-15-6.729-15-15-15z"/><path d="m331 450.995c-24.813 0-45-20.187-45-45s20.188-45 45-45 45 20.187 45 45-20.187 45-45 45zm0-70c-13.785 0-25 11.215-25 25s11.215 25 25 25 25-11.215 25-25-11.215-25-25-25z"/><path d="m86 410.995c-16.542 0-30-13.458-30-30s13.458-30 30-30 30 13.458 30 30-13.458 30-30 30zm0-40c-5.514 0-10 4.486-10 10s4.486 10 10 10 10-4.486 10-10-4.486-10-10-10z"/></g></g></svg>