<svg enable-background="new 0 0 512 512" height="512" viewBox="0 0 512 512" width="512" xmlns="http://www.w3.org/2000/svg"><g id="_x39_88_x2C__Arrow_x2C__Back_x2C__Right"><g><path d="m376.52 57.835c1.74-5.24 7.41-8.07 12.65-6.32 5.23 1.74 8.07 7.41 6.32 12.65-1.75 5.229-7.41 8.07-12.65 6.32s-8.07-7.41-6.32-12.65z"/><circle cx="181" cy="106.005" fill="#07cc66" r="35"/><path d="m276.52 107.835c1.74-5.24 7.41-8.07 12.65-6.32 5.23 1.74 8.07 7.41 6.32 12.65-1.75 5.229-7.41 8.07-12.65 6.32s-8.07-7.41-6.32-12.65z"/><path d="m76.52 117.845c1.74-5.24 7.41-8.069 12.65-6.33 5.23 1.75 8.07 7.41 6.32 12.65s-7.41 8.07-12.65 6.33c-5.24-1.75-8.07-7.41-6.32-12.65z"/><path d="m406 131.005c0-11.05 8.95-20 20-20 11.051 0 20 8.95 20 20 0 11.04-8.949 20-20 20-11.05 0-20-8.96-20-20z" fill="#07cc66"/><path d="m256 171.005 120 109.54-120 109.55v-60-100z" fill="#d94556"/><path d="m76 230.095h180v100h-180z" fill="#bce4ff"/><path d="m416.51 367.835c1.75-5.24 7.41-8.069 12.65-6.319 5.24 1.739 8.07 7.409 6.32 12.649-1.74 5.24-7.41 8.07-12.65 6.32-5.23-1.75-8.07-7.41-6.32-12.65z"/><path d="m66 406.005c0-13.81 11.19-25 25-25s25 11.19 25 25c0 13.801-11.19 25-25 25s-25-11.199-25-25z" fill="#07cc66"/><path d="m156.52 407.845c1.74-5.239 7.41-8.069 12.65-6.329 5.23 1.75 8.07 7.409 6.32 12.649s-7.41 8.07-12.65 6.33c-5.24-1.75-8.07-7.41-6.32-12.65z"/><path d="m356.52 447.835c1.74-5.24 7.41-8.069 12.65-6.319 5.23 1.739 8.07 7.409 6.32 12.649s-7.41 8.07-12.65 6.32-8.07-7.41-6.32-12.65z"/><path d="m256 340.095h-180c-5.523 0-10-4.478-10-10v-100c0-5.522 4.477-10 10-10h180c5.523 0 10 4.478 10 10 0 5.523-4.477 10-10 10h-170v80h170c5.523 0 10 4.478 10 10s-4.477 10-10 10z"/><path d="m255.998 400.095c-1.364 0-2.737-.278-4.034-.851-3.625-1.599-5.964-5.188-5.964-9.149v-219.09c0-3.962 2.339-7.55 5.964-9.149 3.625-1.598 7.853-.906 10.778 1.764l120 109.54c2.075 1.895 3.258 4.575 3.258 7.386 0 2.81-1.182 5.49-3.258 7.386l-120 109.55c-1.879 1.713-4.296 2.613-6.744 2.613zm10.002-206.422v173.752l95.168-86.88z"/><path d="m306.003 400.095c-2.712 0-5.415-1.097-7.388-3.258-3.725-4.079-3.436-10.404.643-14.128l111.91-102.164-111.91-102.154c-4.078-3.724-4.367-10.048-.644-14.127s10.048-4.367 14.128-.645l120 109.54c2.075 1.895 3.258 4.575 3.258 7.386 0 2.81-1.182 5.49-3.258 7.386l-120 109.55c-1.918 1.749-4.332 2.614-6.739 2.614z"/><path d="m91 441.005c-19.299 0-35-15.701-35-35s15.701-35 35-35 35 15.701 35 35-15.701 35-35 35zm0-50c-8.271 0-15 6.729-15 15s6.729 15 15 15 15-6.729 15-15-6.729-15-15-15z"/><path d="m181 151.005c-24.813 0-45-20.187-45-45s20.187-45 45-45 45 20.188 45 45c0 24.813-20.187 45-45 45zm0-70c-13.785 0-25 11.215-25 25s11.215 25 25 25 25-11.215 25-25-11.215-25-25-25z"/><path d="m426 161.005c-16.542 0-30-13.458-30-30s13.458-30 30-30 30 13.458 30 30-13.458 30-30 30zm0-40c-5.514 0-10 4.486-10 10 0 5.515 4.486 10 10 10s10-4.485 10-10c0-5.514-4.486-10-10-10z"/></g></g></svg>