<svg enable-background="new 0 0 512 512" height="512" viewBox="0 0 512 512" width="512" xmlns="http://www.w3.org/2000/svg"><g id="_x39_89_x2C__Arrows_x2C__Reload_x2C__Up_x2C__Right"><g><g fill="#d7e816"><path d="m441 76c11.05 0 20 8.96 20 20 0 11.05-8.95 20-20 20-11.04 0-20-8.95-20-20 0-11.04 8.96-20 20-20z"/><path d="m341 356c16.57 0 30 13.43 30 30s-13.43 30-30 30c-16.561 0-30-13.43-30-30s13.439-30 30-30z"/><path d="m76 96c13.81 0 25 11.2 25 25 0 13.81-11.19 25-25 25-13.8 0-25-11.19-25-25 0-13.8 11.2-25 25-25z"/></g><path d="m311 156v80h-68.5c-28.44 0-51.5 23.06-51.5 51.5v118.5h-80v-170c0-22.09 8.96-42.09 23.43-56.57 14.48-14.47 34.48-23.43 56.57-23.43z" fill="#bce4ff"/><path d="m418.16 193.64-107.16 102.36v-60-80-60z" fill="#3256c1"/><path d="m454.17 396.51c5.24 1.75 8.07 7.41 6.32 12.65-1.74 5.24-7.41 8.07-12.65 6.33-5.23-1.75-8.07-7.41-6.32-12.65s7.41-8.07 12.65-6.33z"/><path d="m404.17 286.51c5.24 1.75 8.07 7.41 6.32 12.65-1.74 5.24-7.41 8.07-12.65 6.33-5.23-1.75-8.07-7.41-6.32-12.65s7.41-8.07 12.65-6.33z"/><path d="m354.16 46.51c5.24 1.75 8.08 7.41 6.33 12.65s-7.41 8.07-12.65 6.33c-5.24-1.75-8.07-7.41-6.33-12.65 1.75-5.24 7.41-8.07 12.65-6.33z"/><path d="m274.16 446.51c5.24 1.75 8.08 7.41 6.33 12.65s-7.41 8.07-12.65 6.33c-5.24-1.75-8.07-7.41-6.33-12.65 1.75-5.24 7.41-8.07 12.65-6.33z"/><path d="m174.16 86.51c5.24 1.75 8.07 7.41 6.33 12.65-1.75 5.24-7.41 8.07-12.65 6.33-5.24-1.75-8.07-7.41-6.33-12.65 1.75-5.24 7.41-8.07 12.65-6.33z"/><path d="m64.17 346.51c5.24 1.75 8.07 7.41 6.32 12.65-1.74 5.24-7.41 8.07-12.65 6.33-5.24-1.75-8.07-7.41-6.32-12.65s7.41-8.07 12.65-6.33z"/><path d="m191 416h-80c-5.523 0-10-4.478-10-10v-170c0-24.03 9.36-46.63 26.356-63.638 17.013-17.002 39.614-26.362 63.644-26.362h120c5.523 0 10 4.477 10 10s-4.477 10-10 10h-120c-18.691 0-36.271 7.282-49.501 20.503-13.217 13.227-20.499 30.807-20.499 49.497v160h60v-108.5c0-33.911 27.589-61.5 61.5-61.5h68.5c5.523 0 10 4.477 10 10s-4.477 10-10 10h-68.5c-22.883 0-41.5 18.617-41.5 41.5v118.5c0 5.522-4.477 10-10 10z"/><path d="m310.998 306c-1.326 0-2.662-.264-3.931-.806-3.68-1.574-6.067-5.191-6.067-9.194v-200c0-3.96 2.337-7.547 5.959-9.147 3.623-1.6 7.85-.912 10.775 1.756l107.16 97.64c2.05 1.867 3.232 4.501 3.265 7.274s-1.087 5.434-3.093 7.349l-107.159 102.36c-1.897 1.812-4.385 2.768-6.909 2.768zm10.002-187.36v153.979l82.502-78.807z"/><path d="m76 156c-19.299 0-35-15.701-35-35s15.701-35 35-35 35 15.701 35 35-15.701 35-35 35zm0-50c-8.271 0-15 6.729-15 15s6.729 15 15 15 15-6.729 15-15-6.729-15-15-15z"/><path d="m441 126c-16.542 0-30-13.458-30-30s13.458-30 30-30 30 13.458 30 30-13.458 30-30 30zm0-40c-5.514 0-10 4.486-10 10s4.486 10 10 10 10-4.486 10-10-4.486-10-10-10z"/><path d="m341 426c-22.057 0-40-17.944-40-40s17.943-40 40-40 40 17.944 40 40-17.943 40-40 40zm0-60c-11.027 0-20 8.972-20 20s8.973 20 20 20 20-8.972 20-20-8.973-20-20-20z"/></g></g></svg>