<svg enable-background="new 0 0 512 512" height="512" viewBox="0 0 512 512" width="512" xmlns="http://www.w3.org/2000/svg"><g id="_x39_90_x2C__Arrows_x2C__Reload_x2C__Up_x2C__Left"><g><path d="m57.83 396.51c-5.24 1.75-8.07 7.41-6.32 12.65 1.74 5.24 7.41 8.07 12.65 6.33 5.23-1.75 8.07-7.41 6.32-12.65s-7.41-8.07-12.65-6.33z"/><path d="m71 76c-11.05 0-20 8.96-20 20 0 11.05 8.95 20 20 20 11.04 0 20-8.95 20-20 0-11.04-8.96-20-20-20z" fill="#d7e816"/><path d="m93.84 193.64 107.16 102.36v-60-80-60z" fill="#3256c1"/><path d="m107.83 286.51c-5.24 1.75-8.07 7.41-6.32 12.65 1.74 5.24 7.41 8.07 12.65 6.33 5.23-1.75 8.07-7.41 6.32-12.65s-7.41-8.07-12.65-6.33z"/><path d="m171 356c-16.57 0-30 13.43-30 30s13.43 30 30 30c16.56 0 30-13.43 30-30s-13.44-30-30-30z" fill="#d7e816"/><path d="m157.84 46.51c-5.24 1.75-8.08 7.41-6.33 12.65s7.41 8.07 12.65 6.33c5.24-1.75 8.07-7.41 6.33-12.65-1.75-5.24-7.41-8.07-12.65-6.33z"/><path d="m201 156v80h68.5c28.439 0 51.5 23.06 51.5 51.5v118.5h80v-170c0-22.09-8.96-42.09-23.43-56.57-14.48-14.47-34.48-23.43-56.57-23.43z" fill="#bce4ff"/><path d="m237.84 446.51c-5.24 1.75-8.08 7.41-6.33 12.65s7.41 8.07 12.65 6.33c5.24-1.75 8.07-7.41 6.33-12.65-1.75-5.24-7.41-8.07-12.65-6.33z"/><path d="m337.84 86.51c-5.24 1.75-8.07 7.41-6.33 12.65 1.75 5.24 7.41 8.07 12.65 6.33 5.24-1.75 8.07-7.41 6.33-12.65-1.75-5.24-7.41-8.07-12.65-6.33z"/><path d="m436 96c-13.811 0-25 11.2-25 25 0 13.81 11.189 25 25 25 13.801 0 25-11.19 25-25 0-13.8-11.199-25-25-25z" fill="#d7e816"/><path d="m447.83 346.51c-5.24 1.75-8.07 7.41-6.32 12.65 1.74 5.24 7.41 8.07 12.65 6.33 5.24-1.75 8.07-7.41 6.32-12.65s-7.41-8.07-12.65-6.33z"/><path d="m401 416h-80c-5.523 0-10-4.478-10-10v-118.5c0-22.883-18.617-41.5-41.5-41.5h-68.5c-5.523 0-10-4.477-10-10s4.477-10 10-10h68.5c33.911 0 61.5 27.589 61.5 61.5v108.5h60v-160c0-18.69-7.281-36.27-20.504-49.501-13.225-13.217-30.805-20.499-49.496-20.499h-120c-5.523 0-10-4.477-10-10s4.477-10 10-10h120c24.03 0 46.631 9.36 63.639 26.357 17.001 17.013 26.361 39.613 26.361 63.643v170c0 5.522-4.477 10-10 10z"/><path d="m201.002 306c-2.525 0-5.011-.956-6.909-2.769l-107.16-102.36c-2.005-1.915-3.125-4.576-3.092-7.349.033-2.772 1.215-5.407 3.264-7.274l107.16-97.64c2.927-2.667 7.153-3.355 10.775-1.756 3.623 1.601 5.96 5.188 5.96 9.148v200c0 4.003-2.387 7.62-6.067 9.194-1.268.542-2.605.806-3.931.806zm-92.503-112.187 82.501 78.806v-153.979z"/><path d="m436 156c-19.299 0-35-15.701-35-35s15.701-35 35-35 35 15.701 35 35-15.701 35-35 35zm0-50c-8.271 0-15 6.729-15 15s6.729 15 15 15 15-6.729 15-15-6.729-15-15-15z"/><path d="m71 126c-16.542 0-30-13.458-30-30s13.458-30 30-30 30 13.458 30 30-13.458 30-30 30zm0-40c-5.514 0-10 4.486-10 10s4.486 10 10 10 10-4.486 10-10-4.486-10-10-10z"/><path d="m171 426c-22.056 0-40-17.944-40-40s17.944-40 40-40 40 17.944 40 40-17.944 40-40 40zm0-60c-11.028 0-20 8.972-20 20s8.972 20 20 20 20-8.972 20-20-8.972-20-20-20z"/></g></g></svg>