<svg enable-background="new 0 0 512 512" height="512" viewBox="0 0 512 512" width="512" xmlns="http://www.w3.org/2000/svg"><g id="_x39_91_x2C__Arrows_x2C__Reload_x2C__Right"><g><path d="m115.49 454.171c-1.75 5.239-7.41 8.069-12.65 6.319-5.24-1.74-8.07-7.41-6.33-12.649 1.75-5.23 7.41-8.07 12.65-6.32s8.07 7.41 6.33 12.65z"/><path d="m436 441c0 11.051-8.96 20-20 20-11.05 0-20-8.949-20-20 0-11.04 8.95-20 20-20 11.04 0 20 8.961 20 20z" fill="#d7e816"/><path d="m318.36 418.16-102.36-107.16h60 80 60z" fill="#3256c1"/><path d="m225.49 404.171c-1.75 5.239-7.41 8.069-12.65 6.319-5.24-1.74-8.07-7.41-6.33-12.649 1.75-5.23 7.41-8.07 12.65-6.32s8.07 7.41 6.33 12.65z"/><path d="m156 341c0 16.57-13.43 30-30 30s-30-13.43-30-30c0-16.56 13.43-30 30-30s30 13.44 30 30z" fill="#d7e816"/><path d="m465.49 354.16c-1.75 5.24-7.41 8.08-12.65 6.33s-8.07-7.41-6.33-12.649c1.75-5.24 7.41-8.07 12.65-6.33 5.24 1.75 8.069 7.41 6.33 12.649z"/><path d="m356 311h-80v-68.5c0-28.439-23.06-51.5-51.5-51.5h-118.5v-80h170c22.09 0 42.09 8.96 56.57 23.431 14.47 14.479 23.43 34.479 23.43 56.569z" fill="#bce4ff"/><path d="m65.49 274.16c-1.75 5.24-7.41 8.08-12.65 6.33s-8.07-7.41-6.33-12.649c1.75-5.24 7.41-8.07 12.65-6.33 5.24 1.75 8.07 7.41 6.33 12.649z"/><path d="m425.49 174.16c-1.75 5.24-7.41 8.07-12.65 6.33-5.24-1.75-8.07-7.41-6.33-12.65 1.75-5.239 7.41-8.069 12.65-6.33 5.24 1.75 8.069 7.41 6.33 12.65z"/><path d="m416 76c0 13.811-11.2 25-25 25-13.811 0-25-11.189-25-25 0-13.8 11.189-25 25-25 13.8 0 25 11.2 25 25z" fill="#d7e816"/><path d="m165.49 64.17c-1.75 5.24-7.41 8.07-12.65 6.32-5.24-1.74-8.07-7.41-6.33-12.65 1.75-5.239 7.41-8.069 12.65-6.319s8.07 7.41 6.33 12.649z"/><path d="m356 321c-5.523 0-10-4.478-10-10v-120c0-18.69-7.282-36.27-20.504-49.501-13.225-13.217-30.806-20.499-49.496-20.499h-160v60h108.5c33.911 0 61.5 27.589 61.5 61.5v68.5c0 5.522-4.478 10-10 10-5.523 0-10-4.478-10-10v-68.5c0-22.883-18.617-41.5-41.5-41.5h-118.5c-5.523 0-10-4.477-10-10v-80c0-5.522 4.477-10 10-10h170c24.03 0 46.631 9.36 63.639 26.357 17.001 17.013 26.361 39.614 26.361 63.643v120c0 5.522-4.478 10-10 10z"/><path d="m318.36 428.16c-2.73 0-5.344-1.116-7.231-3.093l-102.36-107.16c-2.765-2.895-3.538-7.159-1.963-10.84s5.191-6.067 9.194-6.067h200c3.96 0 7.547 2.337 9.147 5.96 1.6 3.622.911 7.848-1.756 10.775l-97.64 107.16c-1.867 2.049-4.502 3.231-7.274 3.264-.039.001-.078.001-.117.001zm-78.979-107.16 78.807 82.502 75.171-82.502z"/><path d="m391 111c-19.299 0-35-15.701-35-35s15.701-35 35-35 35 15.701 35 35-15.701 35-35 35zm0-50c-8.271 0-15 6.729-15 15s6.729 15 15 15 15-6.729 15-15-6.729-15-15-15z"/><path d="m416 471c-16.542 0-30-13.458-30-30s13.458-30 30-30 30 13.458 30 30-13.458 30-30 30zm0-40c-5.515 0-10 4.486-10 10s4.485 10 10 10c5.514 0 10-4.486 10-10s-4.486-10-10-10z"/><path d="m126 381c-22.056 0-40-17.944-40-40s17.944-40 40-40 40 17.944 40 40-17.944 40-40 40zm0-60c-11.028 0-20 8.972-20 20s8.972 20 20 20 20-8.972 20-20-8.972-20-20-20z"/></g></g></svg>