<svg enable-background="new 0 0 512 512" height="512" viewBox="0 0 512 512" width="512" xmlns="http://www.w3.org/2000/svg"><g id="_x39_92_x2C__Arrows_x2C__Reload_x2C__Left"><g><path d="m396.51 57.83c1.75-5.24 7.41-8.07 12.65-6.32 5.24 1.74 8.069 7.41 6.33 12.65-1.75 5.229-7.41 8.07-12.65 6.32s-8.07-7.41-6.33-12.65z"/><path d="m76 71c0-11.05 8.96-20 20-20 11.05 0 20 8.95 20 20 0 11.04-8.95 20-20 20-11.04 0-20-8.96-20-20z" fill="#d7e816"/><path d="m193.64 93.84 102.36 107.16h-60-80-60z" fill="#3256c1"/><path d="m286.51 107.83c1.75-5.24 7.41-8.07 12.65-6.32 5.24 1.74 8.069 7.41 6.33 12.65-1.75 5.229-7.41 8.07-12.65 6.32s-8.07-7.41-6.33-12.65z"/><path d="m356 171c0-16.57 13.43-30 30-30s30 13.43 30 30c0 16.56-13.43 30-30 30s-30-13.44-30-30z" fill="#d7e816"/><path d="m46.51 157.84c1.75-5.24 7.41-8.08 12.65-6.33s8.07 7.41 6.33 12.65c-1.75 5.24-7.41 8.07-12.65 6.33-5.24-1.75-8.07-7.41-6.33-12.65z"/><path d="m156 201h80v68.5c0 28.44 23.06 51.5 51.5 51.5h118.5v80h-170c-22.09 0-42.09-8.96-56.57-23.43-14.47-14.48-23.43-34.48-23.43-56.57z" fill="#bce4ff"/><path d="m446.51 237.84c1.75-5.24 7.41-8.08 12.65-6.33s8.069 7.41 6.33 12.65c-1.75 5.24-7.41 8.07-12.65 6.33-5.24-1.75-8.07-7.41-6.33-12.65z"/><path d="m86.51 337.84c1.75-5.239 7.41-8.069 12.65-6.329 5.24 1.75 8.07 7.409 6.33 12.649-1.75 5.24-7.41 8.07-12.65 6.33-5.24-1.75-8.07-7.41-6.33-12.65z"/><path d="m96 436c0-13.81 11.2-25 25-25 13.81 0 25 11.19 25 25 0 13.801-11.19 25-25 25-13.8 0-25-11.199-25-25z" fill="#d7e816"/><path d="m346.51 447.83c1.75-5.24 7.41-8.069 12.65-6.319 5.24 1.739 8.069 7.409 6.33 12.649-1.75 5.24-7.41 8.07-12.65 6.32s-8.07-7.41-6.33-12.65z"/><path d="m406 411h-170c-24.03 0-46.63-9.36-63.638-26.356-17.002-17.013-26.362-39.615-26.362-63.644v-120c0-5.522 4.477-10 10-10s10 4.478 10 10v120c0 18.69 7.282 36.271 20.504 49.502 13.226 13.217 30.806 20.498 49.496 20.498h160v-60h-108.5c-33.911 0-61.5-27.589-61.5-61.5v-68.5c0-5.522 4.477-10 10-10s10 4.478 10 10v68.5c0 22.883 18.616 41.5 41.5 41.5h118.5c5.522 0 10 4.478 10 10v80c0 5.522-4.478 10-10 10z"/><path d="m296.02 211c-.007 0-.014-.001-.02 0h-200c-3.96 0-7.547-2.337-9.147-5.959-1.6-3.623-.912-7.849 1.756-10.775l97.64-107.161c1.867-2.049 4.501-3.231 7.274-3.264 2.742-.038 5.434 1.087 7.349 3.092l101.998 106.781c1.939 1.824 3.15 4.414 3.15 7.286 0 5.523-4.477 10-10 10zm-177.38-20h153.979l-78.807-82.502z"/><path d="m121 471c-19.299 0-35-15.701-35-35s15.701-35 35-35 35 15.701 35 35-15.701 35-35 35zm0-50c-8.271 0-15 6.729-15 15s6.729 15 15 15 15-6.729 15-15-6.729-15-15-15z"/><path d="m96 101c-16.542 0-30-13.458-30-30s13.458-30 30-30 30 13.458 30 30-13.458 30-30 30zm0-40c-5.514 0-10 4.486-10 10 0 5.515 4.486 10 10 10s10-4.485 10-10c0-5.514-4.486-10-10-10z"/><path d="m386 211c-22.057 0-40-17.943-40-40 0-22.056 17.943-40 40-40 22.056 0 40 17.944 40 40 0 22.057-17.944 40-40 40zm0-60c-11.028 0-20 8.973-20 20 0 11.028 8.972 20 20 20 11.027 0 20-8.972 20-20 0-11.027-8.973-20-20-20z"/></g></g></svg>