<svg enable-background="new 0 0 512 512" height="512" viewBox="0 0 512 512" width="512" xmlns="http://www.w3.org/2000/svg"><g id="_x39_93_x2C__Arrow_x2C__Keyboard_x2C__Left"><g><g fill="#d94556"><path d="m81.863 46c11.04 0 20 8.95 20 20s-8.96 20-20 20c-11.05 0-20-8.95-20-20s8.95-20 20-20z"/><path d="m386.863 426c8.28 0 15 6.72 15 15s-6.72 15-15 15c-8.29 0-15-6.72-15-15s6.71-15 15-15z"/><path d="m91.863 406c16.56 0 30 13.43 30 30s-13.44 30-30 30c-16.57 0-30-13.43-30-30s13.43-30 30-30z"/></g><path d="m438.913 126.06c0 5.15-1.359 10.44-4.33 15.39l-62.72 104.55 62.72 104.55c12.01 20-2.399 45.45-25.729 45.45-5.271 0-10.351-1.38-14.79-3.9-4.431-2.51-8.23-6.149-10.95-10.67l-81.251-135.43 81.25-135.43c5.43-9.04 15.2-14.57 25.74-14.57 17.55 0 30.06 14.41 30.06 30.06z" fill="#5cbeff"/><path d="m318.913 126.06c0 5.15-1.359 10.44-4.33 15.39l-62.72 104.55 62.72 104.55c12.01 20-2.399 45.45-25.729 45.45-5.271 0-10.351-1.38-14.79-3.9-4.431-2.51-8.23-6.149-10.95-10.67l-81.251-135.43 81.25-135.43c5.43-9.04 15.2-14.57 25.74-14.57 17.55 0 30.06 14.41 30.06 30.06z" fill="#079cff"/><path d="m198.913 126.06c0 5.15-1.36 10.44-4.33 15.39l-62.72 104.55 62.72 104.55c12.01 20-2.4 45.45-25.73 45.45-5.27 0-10.35-1.38-14.79-3.9-4.43-2.51-8.23-6.149-10.95-10.67l-81.25-135.43 81.25-135.43c5.43-9.04 15.2-14.57 25.74-14.57 17.55 0 30.06 14.41 30.06 30.06z" fill="#5cbeff"/><path d="m475.023 196.51c5.229 1.75 8.069 7.41 6.319 12.65s-7.409 8.07-12.649 6.32c-5.24-1.74-8.07-7.41-6.32-12.65 1.74-5.23 7.41-8.07 12.65-6.32z"/><path d="m355.023 56.51c5.24 1.75 8.069 7.41 6.33 12.65-1.75 5.24-7.41 8.07-12.65 6.32-5.24-1.74-8.07-7.41-6.33-12.65 1.75-5.23 7.41-8.07 12.65-6.32z"/><path d="m335.023 416.52c5.229 1.74 8.069 7.41 6.319 12.65-1.75 5.23-7.409 8.07-12.649 6.32s-8.07-7.41-6.32-12.65c1.74-5.24 7.41-8.07 12.65-6.32z"/><path d="m215.023 426.51c5.24 1.75 8.07 7.41 6.33 12.65-1.75 5.24-7.41 8.07-12.65 6.32-5.24-1.74-8.07-7.41-6.33-12.65 1.75-5.23 7.41-8.07 12.65-6.32z"/><path d="m205.023 36.52c5.24 1.74 8.07 7.41 6.33 12.65-1.75 5.23-7.41 8.07-12.65 6.32s-8.07-7.41-6.33-12.65c1.75-5.24 7.41-8.07 12.65-6.32z"/><path d="m65.023 136.51c5.23 1.75 8.07 7.41 6.32 12.65s-7.41 8.07-12.65 6.32c-5.24-1.74-8.07-7.41-6.32-12.65 1.74-5.23 7.41-8.07 12.65-6.32z"/><path d="m43.303 274.8c5.24 1.74 8.07 7.41 6.33 12.65-1.75 5.24-7.41 8.069-12.65 6.319s-8.07-7.409-6.33-12.649c1.75-5.24 7.41-8.07 12.65-6.32z"/><path d="m408.854 406c-6.908 0-13.73-1.8-19.728-5.204-5.982-3.39-11.027-8.305-14.581-14.21l-81.257-135.441c-1.9-3.167-1.9-7.123 0-10.289l81.25-135.43c7.198-11.985 20.346-19.426 34.316-19.426 22.089 0 40.06 17.971 40.06 40.06 0 7.159-1.99 14.26-5.755 20.535l-59.635 99.405 59.634 99.405c7.517 12.518 7.711 27.581.518 40.291-7.196 12.714-20.213 20.304-34.822 20.304zm-95.33-160 78.164 130.285c1.774 2.95 4.303 5.414 7.304 7.113 3 1.704 6.407 2.602 9.861 2.602 7.307 0 13.818-3.796 17.416-10.154 3.598-6.355 3.5-13.887-.26-20.147l-62.722-104.554c-1.9-3.167-1.9-7.123 0-10.289l62.72-104.55c1.928-3.213 2.905-6.66 2.905-10.246 0-9.647-7.669-20.06-20.06-20.06-6.988 0-13.567 3.724-17.168 9.719z"/><path d="m288.854 406c-6.908 0-13.73-1.8-19.728-5.204-5.982-3.39-11.027-8.305-14.582-14.21l-81.257-135.441c-1.9-3.167-1.9-7.123 0-10.289l81.25-135.43c7.199-11.985 20.347-19.426 34.317-19.426 22.089 0 40.06 17.971 40.06 40.06 0 7.159-1.99 14.26-5.755 20.535l-59.635 99.405 59.634 99.405c7.517 12.518 7.711 27.581.518 40.291-7.196 12.714-20.213 20.304-34.822 20.304zm-95.33-160 78.164 130.285c1.774 2.95 4.303 5.414 7.304 7.113 3 1.704 6.407 2.602 9.861 2.602 7.307 0 13.818-3.796 17.416-10.154 3.598-6.355 3.5-13.887-.26-20.147l-62.722-104.554c-1.9-3.167-1.9-7.123 0-10.289l62.72-104.55c1.928-3.213 2.905-6.66 2.905-10.246 0-9.647-7.669-20.06-20.06-20.06-6.988 0-13.567 3.724-17.168 9.719z"/><path d="m168.853 406c-6.908 0-13.73-1.8-19.727-5.204-5.983-3.39-11.028-8.305-14.582-14.21l-81.256-135.441c-1.9-3.167-1.9-7.123 0-10.289l81.25-135.43c7.198-11.985 20.346-19.426 34.315-19.426 22.089 0 40.06 17.971 40.06 40.06 0 7.159-1.99 14.26-5.755 20.535l-59.634 99.405 59.634 99.405c7.517 12.518 7.711 27.581.517 40.291-7.195 12.714-20.213 20.304-34.822 20.304zm-95.329-160 78.164 130.285c1.775 2.95 4.303 5.414 7.304 7.113 3 1.704 6.407 2.602 9.861 2.602 7.307 0 13.818-3.796 17.417-10.154 3.597-6.355 3.5-13.887-.26-20.147l-62.722-104.554c-1.9-3.167-1.9-7.123 0-10.289l62.72-104.55c1.928-3.213 2.905-6.66 2.905-10.246 0-9.647-7.669-20.06-20.06-20.06-6.988 0-13.567 3.724-17.168 9.719z"/><path d="m81.863 96c-16.542 0-30-13.458-30-30s13.458-30 30-30 30 13.458 30 30-13.458 30-30 30zm0-40c-5.514 0-10 4.486-10 10s4.486 10 10 10 10-4.486 10-10-4.486-10-10-10z"/><path d="m386.863 466c-13.785 0-25-11.215-25-25s11.215-25 25-25 25 11.215 25 25-11.215 25-25 25zm0-30c-2.757 0-5 2.243-5 5s2.243 5 5 5 5-2.243 5-5-2.243-5-5-5z"/><path d="m91.863 476c-22.056 0-40-17.944-40-40s17.944-40 40-40 40 17.944 40 40-17.944 40-40 40zm0-60c-11.028 0-20 8.972-20 20s8.972 20 20 20 20-8.972 20-20-8.972-20-20-20z"/></g></g></svg>