<svg enable-background="new 0 0 512 512" height="512" viewBox="0 0 512 512" width="512" xmlns="http://www.w3.org/2000/svg"><g id="_x39_94_x2C__Arrow_x2C__Right_x2C__Keyboard"><g><path d="m36.977 315.49c-5.23-1.75-8.07-7.41-6.32-12.65s7.41-8.07 12.65-6.32c5.24 1.74 8.07 7.41 6.32 12.65-1.74 5.23-7.41 8.07-12.65 6.32z"/><path d="m73.087 385.94c0-5.15 1.36-10.44 4.33-15.391l62.72-104.549-62.72-104.55c-12.01-20 2.4-45.45 25.73-45.45 5.27 0 10.35 1.38 14.79 3.9 4.43 2.51 8.23 6.15 10.95 10.67l81.25 135.43-81.25 135.43c-5.43 9.04-15.2 14.57-25.74 14.57-17.55 0-30.06-14.41-30.06-30.06z" fill="#5cbeff"/><path d="m125.137 86c-8.28 0-15-6.72-15-15s6.72-15 15-15c8.29 0 15 6.72 15 15s-6.71 15-15 15z" fill="#d94556"/><path d="m156.977 455.49c-5.24-1.75-8.07-7.41-6.33-12.65 1.75-5.24 7.41-8.07 12.65-6.32 5.24 1.74 8.07 7.41 6.33 12.65-1.75 5.23-7.41 8.07-12.65 6.32z"/><path d="m176.977 95.48c-5.23-1.74-8.07-7.41-6.32-12.65 1.75-5.23 7.41-8.07 12.65-6.32s8.07 7.41 6.32 12.65c-1.74 5.24-7.41 8.07-12.65 6.32z"/><path d="m193.087 385.94c0-5.15 1.36-10.44 4.33-15.391l62.72-104.549-62.72-104.55c-12.01-20 2.4-45.45 25.73-45.45 5.27 0 10.35 1.38 14.79 3.9 4.43 2.51 8.23 6.15 10.95 10.67l81.25 135.43-81.25 135.43c-5.43 9.04-15.2 14.57-25.74 14.57-17.55 0-30.06-14.41-30.06-30.06z" fill="#079cff"/><path d="m296.977 85.49c-5.24-1.75-8.069-7.41-6.33-12.65 1.75-5.24 7.41-8.07 12.65-6.32 5.24 1.74 8.07 7.41 6.33 12.65-1.75 5.23-7.41 8.07-12.65 6.32z"/><path d="m306.977 475.48c-5.24-1.74-8.069-7.41-6.33-12.65 1.75-5.23 7.41-8.07 12.65-6.32s8.07 7.41 6.33 12.65c-1.75 5.24-7.41 8.07-12.65 6.32z"/><path d="m313.087 385.94c0-5.15 1.359-10.44 4.33-15.391l62.72-104.549-62.72-104.55c-12.01-20 2.399-45.45 25.729-45.45 5.271 0 10.351 1.38 14.79 3.9 4.431 2.51 8.23 6.15 10.95 10.67l81.251 135.43-81.25 135.43c-5.43 9.04-15.2 14.57-25.74 14.57-17.55 0-30.06-14.41-30.06-30.06z" fill="#5cbeff"/><path d="m420.137 106c-16.56 0-30-13.43-30-30s13.44-30 30-30c16.57 0 30 13.43 30 30s-13.43 30-30 30z" fill="#d94556"/><path d="m430.137 466c-11.04 0-20-8.95-20-20s8.96-20 20-20c11.05 0 20 8.95 20 20s-8.95 20-20 20z" fill="#d94556"/><path d="m446.977 375.49c-5.229-1.75-8.069-7.41-6.319-12.65s7.409-8.07 12.649-6.32c5.24 1.74 8.07 7.41 6.32 12.65-1.74 5.23-7.41 8.07-12.65 6.32z"/><path d="m468.696 237.2c-5.239-1.74-8.069-7.41-6.329-12.65 1.75-5.24 7.409-8.07 12.649-6.32s8.07 7.41 6.33 12.65c-1.749 5.24-7.409 8.07-12.65 6.32z"/><path d="m103.147 426c-22.089 0-40.06-17.971-40.06-40.06 0-7.159 1.99-14.261 5.755-20.536l59.634-99.404-59.634-99.405c-7.517-12.518-7.711-27.581-.517-40.291 7.195-12.714 20.213-20.304 34.822-20.304 6.908 0 13.729 1.799 19.726 5.203 5.984 3.391 11.029 8.306 14.582 14.21l81.257 135.442c1.9 3.167 1.9 7.122 0 10.289l-81.25 135.43c-7.198 11.985-20.346 19.426-34.315 19.426zm0-300c-7.307 0-13.818 3.796-17.417 10.154-3.597 6.355-3.5 13.887.26 20.148l62.722 104.553c1.9 3.167 1.9 7.122 0 10.289l-62.72 104.55c-1.928 3.213-2.905 6.66-2.905 10.246 0 9.647 7.669 20.06 20.06 20.06 6.988 0 13.567-3.725 17.168-9.72l78.161-130.28-78.164-130.286c-1.775-2.949-4.303-5.414-7.305-7.114-2.999-1.702-6.406-2.6-9.86-2.6z"/><path d="m223.147 426c-22.089 0-40.06-17.971-40.06-40.06 0-7.159 1.99-14.261 5.755-20.536l59.634-99.404-59.634-99.405c-7.517-12.518-7.711-27.581-.517-40.291 7.195-12.714 20.213-20.304 34.822-20.304 6.908 0 13.729 1.799 19.726 5.203 5.984 3.391 11.029 8.306 14.582 14.21l81.257 135.442c1.9 3.167 1.9 7.122 0 10.289l-81.25 135.43c-7.198 11.985-20.346 19.426-34.315 19.426zm0-300c-7.307 0-13.818 3.796-17.417 10.154-3.597 6.355-3.5 13.887.26 20.148l62.722 104.553c1.9 3.167 1.9 7.122 0 10.289l-62.72 104.55c-1.928 3.213-2.905 6.66-2.905 10.246 0 9.647 7.669 20.06 20.06 20.06 6.988 0 13.567-3.725 17.168-9.72l78.161-130.28-78.164-130.286c-1.775-2.949-4.303-5.414-7.305-7.114-2.999-1.702-6.406-2.6-9.86-2.6z"/><path d="m343.146 426c-22.089 0-40.06-17.971-40.06-40.06 0-7.159 1.99-14.261 5.755-20.536l59.635-99.404-59.634-99.405c-7.517-12.518-7.711-27.581-.518-40.291 7.196-12.714 20.213-20.304 34.822-20.304 6.908 0 13.729 1.799 19.727 5.203 5.984 3.391 11.028 8.306 14.582 14.21l81.257 135.442c1.9 3.167 1.9 7.122 0 10.289l-81.25 135.43c-7.198 11.985-20.346 19.426-34.316 19.426zm0-300c-7.307 0-13.818 3.796-17.416 10.154-3.598 6.355-3.5 13.887.26 20.148l62.722 104.553c1.9 3.167 1.9 7.122 0 10.289l-62.72 104.55c-1.928 3.213-2.905 6.66-2.905 10.246 0 9.647 7.669 20.06 20.06 20.06 6.988 0 13.567-3.725 17.168-9.72l78.161-130.28-78.164-130.286c-1.774-2.949-4.303-5.414-7.305-7.114-2.999-1.702-6.406-2.6-9.861-2.6z"/><path d="m430.137 476c-16.542 0-30-13.458-30-30s13.458-30 30-30 30 13.458 30 30-13.458 30-30 30zm0-40c-5.514 0-10 4.486-10 10s4.486 10 10 10c5.515 0 10-4.486 10-10s-4.486-10-10-10z"/><path d="m125.137 96c-13.785 0-25-11.215-25-25s11.215-25 25-25 25 11.215 25 25-11.215 25-25 25zm0-30c-2.757 0-5 2.243-5 5s2.243 5 5 5 5-2.243 5-5-2.243-5-5-5z"/><path d="m420.137 116c-22.056 0-40-17.944-40-40s17.944-40 40-40c22.057 0 40 17.944 40 40s-17.944 40-40 40zm0-60c-11.027 0-20 8.972-20 20s8.973 20 20 20c11.028 0 20-8.972 20-20s-8.972-20-20-20z"/></g></g></svg>