<svg enable-background="new 0 0 512 512" height="512" viewBox="0 0 512 512" width="512" xmlns="http://www.w3.org/2000/svg"><g id="_x39_95_x2C__Arrow_x2C__Down_x2C__Keyboard"><g><path d="m196.51 36.977c1.75-5.23 7.41-8.07 12.65-6.32s8.07 7.41 6.32 12.65c-1.74 5.24-7.41 8.07-12.65 6.32-5.23-1.74-8.07-7.41-6.32-12.65z"/><path d="m126.06 73.087c5.15 0 10.44 1.36 15.39 4.33l104.55 62.72 104.551-62.72c20-12.01 45.449 2.4 45.449 25.73 0 5.27-1.38 10.35-3.9 14.79-2.51 4.43-6.149 8.23-10.67 10.95l-135.43 81.25-135.43-81.25c-9.04-5.43-14.57-15.2-14.57-25.74 0-17.55 14.41-30.06 30.06-30.06z" fill="#5cbeff"/><path d="m426 125.137c0-8.28 6.721-15 15-15 8.28 0 15 6.72 15 15 0 8.29-6.72 15-15 15-8.279 0-15-6.71-15-15z" fill="#d94556"/><path d="m56.51 156.977c1.75-5.24 7.41-8.07 12.65-6.33 5.24 1.75 8.07 7.41 6.32 12.65-1.74 5.24-7.41 8.07-12.65 6.33-5.23-1.75-8.07-7.41-6.32-12.65z"/><path d="m416.52 176.977c1.74-5.23 7.41-8.07 12.65-6.32 5.23 1.75 8.07 7.41 6.32 12.65s-7.41 8.07-12.65 6.32c-5.24-1.74-8.07-7.41-6.32-12.65z"/><path d="m126.06 193.087c5.15 0 10.44 1.36 15.39 4.33l104.55 62.72 104.551-62.72c20-12.01 45.449 2.4 45.449 25.73 0 5.27-1.38 10.35-3.9 14.79-2.51 4.43-6.149 8.23-10.67 10.95l-135.43 81.25-135.43-81.25c-9.04-5.43-14.57-15.2-14.57-25.74 0-17.55 14.41-30.06 30.06-30.06z" fill="#079cff"/><path d="m426.51 296.978c1.75-5.24 7.41-8.07 12.65-6.33 5.24 1.75 8.07 7.41 6.32 12.649-1.74 5.24-7.41 8.07-12.65 6.33-5.23-1.75-8.07-7.41-6.32-12.649z"/><path d="m36.52 306.978c1.74-5.24 7.41-8.07 12.65-6.33 5.23 1.75 8.07 7.41 6.32 12.649-1.75 5.24-7.41 8.07-12.65 6.33-5.24-1.75-8.07-7.41-6.32-12.649z"/><path d="m126.06 313.087c5.15 0 10.44 1.36 15.39 4.33l104.55 62.72 104.551-62.72c20-12.01 45.449 2.4 45.449 25.73 0 5.27-1.38 10.35-3.9 14.79-2.51 4.43-6.149 8.229-10.67 10.949l-135.43 81.251-135.43-81.25c-9.04-5.43-14.57-15.199-14.57-25.739 0-17.551 14.41-30.061 30.06-30.061z" fill="#5cbeff"/><path d="m406 420.137c0-16.56 13.43-30 30-30s30 13.44 30 30c0 16.57-13.43 30-30 30s-30-13.43-30-30z" fill="#d94556"/><path d="m46 430.137c0-11.04 8.95-20 20-20s20 8.96 20 20c0 11.051-8.95 20-20 20s-20-8.949-20-20z" fill="#d94556"/><path d="m136.51 446.978c1.75-5.23 7.41-8.07 12.65-6.32s8.07 7.41 6.32 12.65c-1.74 5.239-7.41 8.069-12.65 6.319-5.23-1.74-8.07-7.41-6.32-12.649z"/><path d="m274.801 468.697c1.739-5.24 7.409-8.07 12.649-6.33 5.239 1.75 8.069 7.41 6.319 12.65-1.75 5.239-7.409 8.069-12.649 6.329-5.239-1.749-8.069-7.408-6.319-12.649z"/><path d="m246 220.137c-1.781 0-3.562-.475-5.145-1.425l-135.43-81.25c-11.983-7.198-19.425-20.346-19.425-34.315 0-22.089 17.971-40.06 40.06-40.06 7.158 0 14.259 1.99 20.535 5.755l99.405 59.634 99.406-59.634c6.266-3.763 13.367-5.752 20.533-5.752 22.09 0 40.061 17.97 40.061 40.058 0 6.908-1.799 13.729-5.203 19.726-3.39 5.983-8.305 11.028-14.211 14.582l-135.441 81.257c-1.584.949-3.364 1.424-5.145 1.424zm-119.94-137.05c-9.647 0-20.06 7.669-20.06 20.06 0 6.988 3.724 13.567 9.72 17.168l130.28 78.161 130.285-78.164c2.95-1.775 5.414-4.303 7.114-7.304 1.702-3 2.601-6.407 2.601-9.861 0-12.389-10.413-20.058-20.061-20.058-3.59 0-7.036.976-10.241 2.901l-104.554 62.722c-3.167 1.899-7.123 1.9-10.289 0l-104.55-62.72c-3.213-1.928-6.66-2.905-10.245-2.905z"/><path d="m246 340.137c-1.781 0-3.561-.475-5.145-1.425l-135.43-81.25c-11.983-7.198-19.425-20.346-19.425-34.315 0-22.089 17.971-40.06 40.06-40.06 7.158 0 14.259 1.99 20.535 5.755l99.405 59.633 99.406-59.633c6.266-3.763 13.367-5.752 20.533-5.752 22.09 0 40.061 17.97 40.061 40.058 0 6.908-1.799 13.729-5.203 19.726-3.39 5.983-8.305 11.028-14.211 14.582l-135.441 81.257c-1.584.949-3.364 1.424-5.145 1.424zm-119.94-137.05c-9.647 0-20.06 7.669-20.06 20.06 0 6.988 3.724 13.567 9.72 17.168l130.28 78.161 130.285-78.164c2.95-1.775 5.414-4.303 7.114-7.304 1.702-3 2.601-6.407 2.601-9.861 0-12.389-10.413-20.058-20.061-20.058-3.59 0-7.036.976-10.241 2.901l-104.554 62.722c-3.167 1.9-7.122 1.9-10.289 0l-104.55-62.72c-3.213-1.928-6.66-2.905-10.245-2.905z"/><path d="m246 460.137c-1.781 0-3.562-.475-5.145-1.425l-135.43-81.25c-11.983-7.198-19.425-20.346-19.425-34.315 0-22.09 17.971-40.061 40.06-40.061 7.158 0 14.259 1.99 20.535 5.755l99.405 59.635 99.406-59.634c6.266-3.763 13.367-5.752 20.533-5.752 22.09 0 40.061 17.97 40.061 40.058 0 6.907-1.799 13.729-5.203 19.726-3.391 5.984-8.306 11.029-14.211 14.582l-135.441 81.257c-1.584.949-3.364 1.424-5.145 1.424zm-119.94-137.05c-9.647 0-20.06 7.67-20.06 20.061 0 6.988 3.724 13.566 9.719 17.167l130.281 78.161 130.285-78.164c2.951-1.775 5.414-4.303 7.114-7.304 1.702-3 2.601-6.407 2.601-9.86 0-12.39-10.413-20.058-20.061-20.058-3.591 0-7.036.976-10.241 2.9l-104.554 62.722c-3.167 1.9-7.122 1.9-10.289 0l-104.55-62.72c-3.213-1.928-6.66-2.905-10.245-2.905z"/><path d="m66 460.137c-16.542 0-30-13.458-30-30s13.458-30 30-30 30 13.458 30 30-13.458 30-30 30zm0-40c-5.514 0-10 4.486-10 10s4.486 10 10 10 10-4.486 10-10-4.486-10-10-10z"/><path d="m441 150.137c-13.785 0-25-11.215-25-25s11.215-25 25-25 25 11.215 25 25-11.215 25-25 25zm0-30c-2.757 0-5 2.243-5 5s2.243 5 5 5 5-2.243 5-5-2.243-5-5-5z"/><path d="m436 460.137c-22.057 0-40-17.944-40-40s17.943-40 40-40 40 17.944 40 40-17.943 40-40 40zm0-60c-11.027 0-20 8.972-20 20s8.973 20 20 20 20-8.972 20-20-8.973-20-20-20z"/></g></g></svg>