<svg enable-background="new 0 0 512 512" height="512" viewBox="0 0 512 512" width="512" xmlns="http://www.w3.org/2000/svg"><g id="_x39_96_x2C__Arrow_x2C__Arrows_x2C__Up_x2C__Direction"><g><path d="m315.49 475.023c-1.75 5.229-7.41 8.069-12.65 6.319s-8.07-7.409-6.32-12.649c1.74-5.24 7.41-8.07 12.65-6.32 5.23 1.74 8.07 7.41 6.32 12.65z"/><path d="m385.939 438.913c-5.149 0-10.439-1.36-15.389-4.33l-104.55-62.72-104.55 62.72c-20 12.01-45.45-2.399-45.45-25.729 0-5.271 1.38-10.351 3.9-14.79 2.51-4.431 6.15-8.23 10.67-10.95l135.43-81.251 135.43 81.25c9.041 5.43 14.57 15.2 14.57 25.74 0 17.55-14.41 30.06-30.061 30.06z" fill="#5cbeff"/><path d="m86 386.863c0 8.28-6.72 15-15 15s-15-6.72-15-15c0-8.29 6.72-15 15-15s15 6.71 15 15z" fill="#d94556"/><path d="m455.49 355.023c-1.75 5.239-7.41 8.069-12.65 6.33-5.24-1.75-8.07-7.41-6.32-12.65 1.74-5.24 7.41-8.07 12.65-6.33 5.23 1.75 8.07 7.41 6.32 12.65z"/><path d="m95.48 335.023c-1.74 5.229-7.41 8.069-12.65 6.319-5.23-1.75-8.07-7.409-6.32-12.649s7.41-8.07 12.65-6.32c5.24 1.74 8.07 7.41 6.32 12.65z"/><path d="m385.939 318.913c-5.149 0-10.439-1.36-15.389-4.33l-104.55-62.72-104.55 62.72c-20 12.01-45.45-2.399-45.45-25.729 0-5.271 1.38-10.351 3.9-14.79 2.51-4.431 6.15-8.23 10.67-10.95l135.43-81.251 135.43 81.25c9.041 5.43 14.57 15.2 14.57 25.74 0 17.55-14.41 30.06-30.061 30.06z" fill="#079cff"/><path d="m85.49 215.023c-1.75 5.24-7.41 8.07-12.65 6.33-5.24-1.75-8.07-7.41-6.32-12.65 1.74-5.24 7.41-8.07 12.65-6.33 5.23 1.75 8.07 7.41 6.32 12.65z"/><path d="m475.48 205.023c-1.74 5.24-7.41 8.07-12.65 6.33-5.23-1.75-8.07-7.41-6.32-12.65s7.41-8.07 12.65-6.33c5.24 1.75 8.07 7.41 6.32 12.65z"/><path d="m385.939 198.913c-5.149 0-10.439-1.36-15.389-4.33l-104.55-62.72-104.55 62.72c-20 12.01-45.45-2.4-45.45-25.73 0-5.27 1.38-10.35 3.9-14.79 2.51-4.43 6.15-8.23 10.67-10.95l135.43-81.25 135.43 81.25c9.041 5.43 14.57 15.2 14.57 25.74 0 17.55-14.41 30.06-30.061 30.06z" fill="#5cbeff"/><path d="m106 91.863c0 16.56-13.43 30-30 30s-30-13.44-30-30c0-16.57 13.43-30 30-30s30 13.43 30 30z" fill="#d94556"/><path d="m466 81.863c0 11.04-8.949 20-20 20-11.05 0-20-8.96-20-20 0-11.05 8.95-20 20-20 11.051 0 20 8.95 20 20z" fill="#d94556"/><path d="m375.49 65.023c-1.75 5.23-7.41 8.07-12.65 6.32s-8.07-7.41-6.32-12.65c1.74-5.24 7.41-8.07 12.65-6.32 5.23 1.74 8.07 7.41 6.32 12.65z"/><path d="m237.2 43.303c-1.74 5.24-7.41 8.07-12.65 6.33-5.24-1.75-8.07-7.41-6.32-12.65s7.41-8.07 12.65-6.33c5.24 1.75 8.07 7.41 6.32 12.65z"/><path d="m385.939 448.913c-7.158 0-14.259-1.99-20.534-5.755l-99.405-59.634-99.405 59.634c-6.266 3.763-13.367 5.752-20.534 5.752-22.09 0-40.061-17.969-40.061-40.057 0-6.908 1.799-13.729 5.204-19.727 3.39-5.983 8.305-11.028 14.211-14.582l135.441-81.257c3.166-1.9 7.122-1.9 10.289 0l135.43 81.25c11.984 7.199 19.425 20.347 19.425 34.317 0 22.088-17.971 40.059-40.061 40.059zm-119.939-87.05c1.781 0 3.561.475 5.145 1.425l104.551 62.72c3.213 1.928 6.66 2.905 10.244 2.905 9.648 0 20.061-7.669 20.061-20.06 0-6.989-3.725-13.567-9.719-17.168l-130.282-78.161-130.285 78.164c-2.95 1.775-5.414 4.303-7.113 7.304-1.704 3.001-2.602 6.408-2.602 9.861 0 12.389 10.413 20.057 20.061 20.057 3.59 0 7.036-.976 10.241-2.9l104.553-62.722c1.584-.95 3.364-1.425 5.145-1.425z"/><path d="m385.939 328.913c-7.158 0-14.259-1.99-20.534-5.755l-99.405-59.634-99.405 59.634c-6.266 3.763-13.367 5.752-20.534 5.752-22.09 0-40.061-17.969-40.061-40.057 0-6.908 1.799-13.729 5.204-19.727 3.39-5.983 8.305-11.028 14.211-14.582l135.441-81.257c3.166-1.899 7.122-1.899 10.289 0l135.43 81.25c11.984 7.198 19.425 20.347 19.425 34.317 0 22.088-17.971 40.059-40.061 40.059zm-119.939-87.05c1.781 0 3.561.475 5.145 1.425l104.551 62.72c3.213 1.928 6.66 2.905 10.244 2.905 9.648 0 20.061-7.669 20.061-20.06 0-6.989-3.725-13.567-9.719-17.168l-130.282-78.16-130.285 78.164c-2.95 1.775-5.414 4.303-7.114 7.304-1.703 3.001-2.601 6.408-2.601 9.861 0 12.389 10.413 20.057 20.061 20.057 3.59 0 7.036-.976 10.241-2.9l104.553-62.722c1.584-.951 3.364-1.426 5.145-1.426z"/><path d="m385.939 208.913c-7.159 0-14.26-1.99-20.535-5.755l-99.404-59.633-99.405 59.633c-6.266 3.763-13.367 5.752-20.534 5.752-22.09 0-40.061-17.97-40.061-40.058 0-6.907 1.799-13.729 5.204-19.726 3.391-5.984 8.306-11.029 14.211-14.582l135.441-81.257c3.166-1.899 7.122-1.899 10.289 0l135.43 81.25c11.984 7.199 19.425 20.346 19.425 34.316 0 22.089-17.971 40.06-40.061 40.06zm-119.939-87.05c1.781 0 3.561.475 5.145 1.425l104.551 62.72c3.213 1.928 6.659 2.905 10.244 2.905 9.648 0 20.061-7.669 20.061-20.06 0-6.988-3.725-13.566-9.719-17.167l-130.282-78.161-130.285 78.164c-2.95 1.775-5.414 4.303-7.114 7.304-1.703 3-2.601 6.407-2.601 9.86 0 12.389 10.413 20.058 20.061 20.058 3.59 0 7.036-.976 10.241-2.9l104.554-62.722c1.583-.951 3.363-1.426 5.144-1.426z"/><path d="m446 111.863c-16.542 0-30-13.458-30-30s13.458-30 30-30 30 13.458 30 30-13.458 30-30 30zm0-40c-5.514 0-10 4.486-10 10s4.486 10 10 10 10-4.486 10-10-4.486-10-10-10z"/><path d="m71 411.863c-13.785 0-25-11.215-25-25s11.215-25 25-25 25 11.215 25 25-11.215 25-25 25zm0-30c-2.757 0-5 2.243-5 5s2.243 5 5 5 5-2.243 5-5-2.243-5-5-5z"/><path d="m76 131.863c-22.056 0-40-17.944-40-40s17.944-40 40-40 40 17.944 40 40-17.944 40-40 40zm0-60c-11.028 0-20 8.972-20 20s8.972 20 20 20 20-8.972 20-20-8.972-20-20-20z"/></g></g></svg>