<svg enable-background="new 0 0 512 512" height="512" viewBox="0 0 512 512" width="512" xmlns="http://www.w3.org/2000/svg"><g id="_x39_97_x2C__Arrow_x2C__Share_x2C__Down_Right"><g><g fill="#d7e816"><circle cx="406.022" cy="76" r="35"/><path d="m221.022 431c11.05 0 20 8.95 20 20 0 11.04-8.95 20-20 20-11.04 0-20-8.96-20-20 0-11.05 8.96-20 20-20z"/><path d="m91.022 251c16.569 0 30 13.43 30 30s-13.431 30-30 30c-16.561 0-30-13.43-30-30s13.44-30 30-30z"/></g><path d="m47.842 157.67c112.311-117.64 278.5-53.29 343.551 87.15l54.83-17.21c7.54-2.37 15.699.98 19.399 7.96 1.28 2.4 1.92 5.05 1.92 7.7 0 2.37-.52 4.74-1.55 6.95l-70.32 150.25c-2.51 5.36-7.04 9.511-12.609 11.54-5.58 2.03-11.74 1.75-17.12-.77l-150.17-70.28c-4.72-2.21-8.13-6.52-9.19-11.62-.229-1.13-.35-2.25-.35-3.359 0-6.53 3.88-12.58 10.07-15.221l52.229-22.229c-35.86-79.33-121.36-180.56-216.79-124.8-7.62 4.459-9.809.149-3.9-6.061z" fill="#d94556"/><path d="m464.192 391.51c5.24 1.75 8.07 7.41 6.32 12.65-1.74 5.24-7.41 8.07-12.641 6.33-5.24-1.75-8.08-7.41-6.33-12.65s7.411-8.07 12.651-6.33z"/><path d="m424.183 151.51c5.239 1.74 8.08 7.41 6.33 12.65s-7.41 8.07-12.65 6.32-8.07-7.41-6.32-12.65c1.739-5.24 7.399-8.07 12.64-6.32z"/><path d="m304.192 451.51c5.24 1.74 8.07 7.41 6.32 12.65-1.74 5.24-7.41 8.07-12.641 6.32-5.24-1.74-8.08-7.41-6.33-12.65s7.411-8.07 12.651-6.32z"/><path d="m144.192 451.51c5.24 1.75 8.07 7.41 6.33 12.65-1.75 5.24-7.42 8.07-12.65 6.33-5.24-1.75-8.08-7.41-6.33-12.65s7.41-8.07 12.65-6.33z"/><path d="m94.192 71.51c5.24 1.75 8.07 7.41 6.33 12.65-1.75 5.24-7.42 8.07-12.65 6.33-5.24-1.75-8.08-7.41-6.33-12.65s7.41-8.07 12.65-6.33z"/><path d="m64.183 351.51c5.239 1.74 8.08 7.41 6.33 12.65s-7.41 8.07-12.65 6.32c-5.24-1.74-8.07-7.41-6.32-12.65 1.739-5.24 7.409-8.07 12.64-6.32z"/><path d="m375.435 423.354c-4.714 0-9.463-1.057-13.733-3.058l-150.168-70.279c-7.539-3.529-13.049-10.498-14.741-18.642-.374-1.837-.56-3.638-.56-5.395 0-10.649 6.338-20.234 16.146-24.419l42.681-18.165c-31.408-64.013-87.601-125.715-147.436-125.715-17.059 0-34.163 4.94-50.837 14.683-3.678 2.152-7.014 3.201-10.192 3.201-5.004 0-9.28-2.723-11.16-7.107-1.354-3.156-2.481-9.648 5.163-17.682 40.189-42.097 89.533-64.341 142.709-64.341 43.222 0 86.669 14.662 125.643 42.4 36.512 25.985 66.698 61.766 87.703 103.853l46.575-14.619c2.564-.806 5.227-1.215 7.908-1.215 9.797 0 18.733 5.376 23.322 14.032 2.014 3.777 3.084 8.067 3.084 12.384 0 3.874-.836 7.633-2.485 11.173l-70.327 150.266c-3.659 7.813-10.138 13.743-18.244 16.696-3.555 1.294-7.272 1.949-11.051 1.949zm-267.811-285.672c34.97 0 70.816 17.124 103.663 49.521 35.193 34.71 56.682 75.804 66.357 97.209 1.108 2.452 1.182 5.247.204 7.753-.978 2.507-2.925 4.514-5.4 5.567l-52.229 22.229c-2.419 1.032-3.986 3.396-3.986 6.02 0 .42.05.879.149 1.365.408 1.967 1.77 3.687 3.631 4.558l150.168 70.279c2.944 1.379 6.419 1.537 9.463.43 3.096-1.128 5.573-3.396 6.972-6.383l70.32-150.248c.4-.859.606-1.777.606-2.711 0-1.047-.257-2.083-.744-2.995-1.123-2.119-3.288-3.421-5.662-3.421-.646 0-1.29.1-1.915.296l-54.834 17.211c-4.792 1.505-9.957-.781-12.068-5.338-39.504-85.287-119.48-142.588-199.012-142.588-36.365 0-70.839 11.744-101.283 34.264 8.479-2.008 17.028-3.018 25.6-3.018z"/><path d="m221.022 481c-16.542 0-30-13.458-30-30s13.458-30 30-30 30 13.458 30 30-13.458 30-30 30zm0-40c-5.515 0-10 4.486-10 10s4.485 10 10 10c5.514 0 10-4.486 10-10s-4.486-10-10-10z"/><path d="m91.022 321c-22.057 0-40-17.944-40-40s17.943-40 40-40c22.056 0 40 17.944 40 40s-17.944 40-40 40zm0-60c-11.028 0-20 8.972-20 20s8.972 20 20 20c11.027 0 20-8.972 20-20s-8.972-20-20-20z"/><path d="m406.022 121c-24.813 0-45-20.187-45-45s20.187-45 45-45 45 20.187 45 45-20.187 45-45 45zm0-70c-13.785 0-25 11.215-25 25s11.215 25 25 25 25-11.215 25-25-11.214-25-25-25z"/></g></g></svg>