<svg enable-background="new 0 0 512 512" height="512" viewBox="0 0 512 512" width="512" xmlns="http://www.w3.org/2000/svg"><g id="_x39_98_x2C__Arrow_x2C__Share_x2C__Down_x2C__Left"><g><path d="m47.808 391.51c-5.24 1.75-8.07 7.41-6.32 12.65 1.74 5.24 7.41 8.07 12.64 6.33 5.24-1.75 8.08-7.41 6.33-12.65s-7.41-8.07-12.65-6.33z"/><path d="m44.458 243.27c0 2.37.52 4.74 1.55 6.95l70.32 150.25c2.51 5.36 7.04 9.511 12.61 11.54 5.58 2.03 11.74 1.75 17.12-.77l150.17-70.28c4.72-2.21 8.13-6.52 9.189-11.62.23-1.13.351-2.25.351-3.359 0-6.53-3.88-12.58-10.07-15.221l-52.23-22.229c35.86-79.33 121.36-180.56 216.79-124.8 7.62 4.46 9.811.15 3.9-6.06-112.31-117.64-278.5-53.29-343.55 87.15l-54.83-17.21c-7.54-2.37-15.7.98-19.4 7.96-1.28 2.399-1.92 5.049-1.92 7.699z" fill="#d94556"/><circle cx="105.978" cy="76" fill="#d7e816" r="35"/><path d="m87.818 151.51c-5.24 1.74-8.08 7.41-6.33 12.65s7.41 8.07 12.65 6.32 8.07-7.41 6.32-12.65c-1.74-5.24-7.4-8.07-12.64-6.32z"/><path d="m207.808 451.51c-5.24 1.74-8.07 7.41-6.32 12.65 1.74 5.24 7.41 8.07 12.64 6.32 5.24-1.74 8.08-7.41 6.33-12.65s-7.41-8.07-12.65-6.32z"/><path d="m290.979 431c-11.05 0-20 8.95-20 20 0 11.04 8.95 20 20 20 11.04 0 20-8.96 20-20 0-11.05-8.96-20-20-20z" fill="#d7e816"/><path d="m367.809 451.51c-5.24 1.75-8.07 7.41-6.33 12.65 1.75 5.24 7.42 8.07 12.649 6.33 5.24-1.75 8.08-7.41 6.33-12.65s-7.41-8.07-12.649-6.33z"/><path d="m420.979 251c-16.57 0-30 13.43-30 30s13.43 30 30 30c16.56 0 30-13.43 30-30s-13.441-30-30-30z" fill="#d7e816"/><path d="m417.809 71.51c-5.24 1.75-8.07 7.41-6.33 12.65 1.75 5.24 7.42 8.07 12.649 6.33 5.24-1.75 8.08-7.41 6.33-12.65s-7.41-8.07-12.649-6.33z"/><path d="m447.818 351.51c-5.24 1.74-8.08 7.41-6.33 12.65s7.41 8.07 12.65 6.32c5.239-1.74 8.069-7.41 6.319-12.65-1.739-5.24-7.409-8.07-12.639-6.32z"/><path d="m136.567 423.354c-3.781 0-7.498-.654-11.048-1.946-8.11-2.955-14.589-8.885-18.248-16.697l-70.32-150.252c-1.657-3.556-2.493-7.315-2.493-11.189 0-4.317 1.071-8.606 3.096-12.405 4.577-8.635 13.514-14.011 23.311-14.011 2.682 0 5.344.409 7.912 1.216l46.572 14.618c21.005-42.087 51.192-77.868 87.703-103.853 38.974-27.738 82.421-42.4 125.644-42.4 53.175 0 102.52 22.245 142.697 64.33 7.655 8.044 6.527 14.538 5.175 17.693-1.88 4.384-6.156 7.108-11.16 7.108-3.179 0-6.515-1.048-10.199-3.205-16.668-9.739-33.771-14.679-50.83-14.679-59.836 0-116.027 61.702-147.436 125.715l42.673 18.162c9.816 4.188 16.154 13.772 16.154 24.422 0 1.757-.186 3.558-.552 5.354-1.7 8.185-7.211 15.153-14.748 18.683l-150.172 70.281c-4.27 1.998-9.019 3.055-13.731 3.055zm-75.703-186.5c-2.374 0-4.539 1.302-5.651 3.399-.498.934-.755 1.97-.755 3.017 0 .935.207 1.852.614 2.728l70.313 150.233c1.398 2.986 3.876 5.254 6.976 6.384 1.348.49 2.764.739 4.205.739 1.801 0 3.616-.404 5.25-1.169l150.172-70.282c1.86-.87 3.221-2.59 3.638-4.598.091-.445.142-.904.142-1.324 0-2.624-1.568-4.987-3.994-6.022l-52.223-22.227c-2.476-1.054-4.422-3.061-5.4-5.567s-.904-5.301.204-7.753c9.676-21.405 31.164-62.499 66.357-97.209 32.848-32.396 68.693-49.521 103.664-49.521 8.573 0 17.122 1.01 25.603 3.018-30.441-22.519-64.917-34.265-101.285-34.265-79.532 0-159.509 57.301-199.013 142.588-2.111 4.557-7.277 6.842-12.068 5.338l-54.83-17.21c-.628-.197-1.273-.297-1.919-.297z"/><path d="m290.979 481c-16.542 0-30-13.458-30-30s13.458-30 30-30 30 13.458 30 30-13.458 30-30 30zm0-40c-5.515 0-10 4.486-10 10s4.485 10 10 10c5.514 0 10-4.486 10-10s-4.487-10-10-10z"/><path d="m420.979 321c-22.057 0-40-17.944-40-40s17.943-40 40-40c22.056 0 40 17.944 40 40s-17.945 40-40 40zm0-60c-11.028 0-20 8.972-20 20s8.972 20 20 20c11.027 0 20-8.972 20-20s-8.973-20-20-20z"/><path d="m105.978 121c-24.813 0-45-20.187-45-45s20.187-45 45-45 45 20.187 45 45-20.187 45-45 45zm0-70c-13.785 0-25 11.215-25 25s11.215 25 25 25 25-11.215 25-25-11.215-25-25-25z"/></g></g></svg>