<svg enable-background="new 0 0 512 512" height="512" viewBox="0 0 512 512" width="512" xmlns="http://www.w3.org/2000/svg"><g id="_x39_99_x2C__Arrow_x2C__Share_x2C__Up_x2C__Left"><g><path d="m120.49 47.812c-1.75-5.24-7.41-8.07-12.65-6.32-5.24 1.74-8.07 7.41-6.33 12.64 1.75 5.24 7.41 8.08 12.65 6.33s8.07-7.41 6.33-12.65z"/><path d="m268.73 44.461c-2.37 0-4.74.52-6.95 1.55l-150.25 70.32c-5.36 2.51-9.51 7.04-11.54 12.61-2.03 5.58-1.75 11.74.77 17.12l70.28 150.171c2.21 4.719 6.52 8.129 11.62 9.189 1.13.23 2.25.35 3.36.35 6.53 0 12.58-3.881 15.22-10.07l22.23-52.229c79.331 35.86 180.56 121.36 124.799 216.79-4.459 7.619-.149 9.811 6.061 3.9 117.641-112.311 53.29-278.5-87.15-343.551l17.211-54.83c2.369-7.54-.98-15.7-7.961-19.4-2.4-1.279-5.049-1.92-7.7-1.92z" fill="#d94556"/><circle cx="436" cy="105.981" fill="#d7e816" r="35"/><path d="m360.49 87.821c-1.74-5.24-7.41-8.08-12.65-6.33s-8.07 7.41-6.32 12.65 7.41 8.07 12.65 6.32c5.24-1.739 8.07-7.399 6.32-12.64z"/><path d="m60.49 207.812c-1.74-5.24-7.41-8.07-12.65-6.32-5.24 1.74-8.07 7.41-6.32 12.64 1.74 5.24 7.41 8.08 12.65 6.33 5.24-1.751 8.07-7.41 6.32-12.65z"/><path d="m81 290.982c0-11.051-8.95-20-20-20-11.04 0-20 8.949-20 20 0 11.039 8.96 20 20 20 11.05 0 20-8.961 20-20z" fill="#d7e816"/><path d="m60.49 367.813c-1.75-5.24-7.41-8.07-12.65-6.33-5.24 1.75-8.07 7.42-6.33 12.648 1.75 5.24 7.41 8.08 12.65 6.33s8.07-7.41 6.33-12.648z"/><path d="m261 420.982c0-16.57-13.43-30-30-30s-30 13.43-30 30c0 16.559 13.43 30 30 30s30-13.441 30-30z" fill="#d7e816"/><path d="m440.49 417.813c-1.75-5.24-7.41-8.07-12.65-6.33-5.24 1.75-8.07 7.42-6.33 12.648 1.75 5.24 7.41 8.08 12.65 6.33s8.07-7.41 6.33-12.648z"/><path d="m160.49 447.822c-1.74-5.24-7.41-8.08-12.65-6.33s-8.07 7.41-6.32 12.648c1.74 5.24 7.41 8.07 12.65 6.32 5.24-1.739 8.07-7.409 6.32-12.638z"/><path d="m348.34 477.539c-4.336 0-8.182-2.191-10.285-5.861-1.818-3.17-3.02-8.602 1.585-16.469 15.246-26.092 18.611-53.02 9.999-80.025-16.441-51.551-73.464-94.738-121.041-118.226l-18.157 42.66c-4.878 11.438-17.101 18.195-29.78 15.602-8.179-1.699-15.148-7.209-18.678-14.746l-70.28-150.174c-3.621-7.731-4.026-16.763-1.11-24.778 2.956-8.11 8.885-14.589 16.697-18.247l150.251-70.32c3.554-1.657 7.313-2.493 11.189-2.493 4.316 0 8.607 1.071 12.404 3.096 11.221 5.948 16.611 19.084 12.795 31.223l-14.618 46.574c76.584 38.273 131.279 107.145 143.611 181.558 10.665 64.357-11.242 126.322-61.688 174.482-4.287 4.08-8.621 6.144-12.894 6.144zm-124.87-244.067c1.407 0 2.812.297 4.119.888 55.429 25.057 121.606 73.611 141.103 134.748 6.509 20.41 7.396 40.713 2.688 60.693 28.239-38.408 39.474-83.383 31.811-129.617-11.686-70.521-65.413-135.852-140.215-170.499-4.557-2.111-6.842-7.276-5.338-12.068l17.211-54.83c.926-2.945-.381-6.127-3.104-7.57-1.768-.942-3.887-1.005-5.74-.142l-150.237 70.313c-2.986 1.398-5.253 3.876-6.383 6.977-1.11 3.051-.954 6.499.43 9.455l70.281 150.174c.871 1.859 2.59 3.219 4.597 3.637.448.092.906.141 1.326.141 2.624 0 4.987-1.566 6.022-3.994l22.227-52.222c1.054-2.476 3.061-4.422 5.567-5.4 1.171-.457 2.404-.684 3.635-.684z"/><path d="m61 320.982c-16.542 0-30-13.459-30-30 0-16.543 13.458-30 30-30s30 13.457 30 30c0 16.541-13.458 30-30 30zm0-40c-5.514 0-10 4.486-10 10s4.486 10 10 10 10-4.486 10-10-4.486-10-10-10z"/><path d="m231 460.982c-22.056 0-40-17.945-40-40 0-22.057 17.944-40 40-40s40 17.943 40 40c0 22.055-17.944 40-40 40zm0-60c-11.028 0-20 8.971-20 20 0 11.027 8.972 20 20 20s20-8.973 20-20c0-11.029-8.972-20-20-20z"/><path d="m436 150.981c-24.813 0-45-20.187-45-45s20.188-45 45-45 45 20.187 45 45-20.187 45-45 45zm0-70c-13.785 0-25 11.215-25 25s11.215 25 25 25 25-11.215 25-25-11.215-25-25-25z"/></g></g></svg>