<svg enable-background="new 0 0 512 512" height="512" viewBox="0 0 512 512" width="512" xmlns="http://www.w3.org/2000/svg"><g id="_x33_51_x2C__Android_x2C__Cloud_x2C__Computing_x2C__Home"><g><g><g><path d="m75.829 193.249c-9.039-71.711 47.101-134.749 118.783-134.749 41.059 0 78.725 20.544 100.758 54.955 1.489 2.326.811 5.418-1.515 6.907s-5.417.812-6.907-1.515c-20.186-31.526-54.703-50.347-92.336-50.347-65.713 0-117.148 57.796-108.861 123.499.345 2.74-1.596 5.241-4.336 5.587-2.769.343-5.245-1.619-5.586-4.337z"/></g><path d="m397.668 348.5c-1.126 0-285.732-.051-286.114-.068-38.316-1.476-68.33-32.682-68.33-71.042 0-35.823 26.358-65.561 61.135-70.412-19.458-60.898 26.208-123.477 90.253-123.477 39.023 0 73.509 23.557 87.862 59.292 11.66-7.822 25.497-12.07 39.639-12.07 40.991 0 73.602 34.731 70.962 75.703 40.939-2.635 75.702 29.941 75.702 70.962 0 39.212-31.9 71.112-71.109 71.112z"/><path d="m111.844 338.435 285.823.065c33.696 0 61.109-27.414 61.109-61.111 0-37.302-33.349-66.167-70.577-60.378-3.341.518-6.229-2.361-5.709-5.71 5.799-37.212-23.078-70.577-60.378-70.577-14.164 0-27.97 4.956-38.874 13.955-2.718 2.241-6.863 1.043-7.944-2.331-11.278-35.198-43.702-58.847-80.683-58.847-59.664 0-100.833 60.449-78.73 116.008 1.27 3.189-.986 6.684-4.416 6.843-32.658 1.509-58.242 28.32-58.242 61.038 0 32.934 25.74 59.731 58.621 61.045z" fill="#e4f0fd"/><g><path d="m136.463 178.037c-2.762 0-5-2.239-5-5 0-32.829 26.708-59.537 59.537-59.537 2.762 0 5 2.239 5 5s-2.238 5-5 5c-27.314 0-49.537 22.222-49.537 49.537 0 2.761-2.238 5-5 5z"/></g></g><g id="XMLID_25536_"><g><g><path d="m344.906 268.5v100c-19.51 0-150.487 0-169.999 0v-100z" fill="#445f80"/></g><g><path d="m294.906 368.5h50v30h-50z" fill="#384466"/></g><g><path d="m174.907 368.5h50v30h-50z" fill="#384466"/></g><g><path d="m294.906 368.5v30h-69.999v-30-30c0-19.33 15.67-35 34.999-35 9.67 0 18.41 3.92 24.75 10.25 6.33 6.33 10.25 15.09 10.25 24.75z" fill="#2a2b4c"/></g><g><path d="m379.906 268.5c-24.215 0-216.472 0-239.999 0l120.289-75z" fill="#ff8848"/></g></g><g><g><path d="m379.906 273.5h-35c-2.762 0-5-2.238-5-5s2.238-5 5-5h17.602l-102.318-64.104-102.814 64.104h17.531c2.761 0 5 2.238 5 5s-2.239 5-5 5h-35c-2.232 0-4.193-1.478-4.808-3.624s.269-4.439 2.161-5.619l120.29-75c1.622-1.012 3.681-1.009 5.3.005l119.71 75c1.89 1.184 2.767 3.476 2.151 5.618-.616 2.143-2.576 3.62-4.805 3.62z"/></g><g><path d="m344.906 403.5h-50c-2.762 0-5-2.238-5-5s2.238-5 5-5h45v-120h-159.999v120h45c2.761 0 5 2.238 5 5s-2.239 5-5 5h-50c-2.762 0-5-2.238-5-5v-130c0-2.762 2.238-5 5-5h169.999c2.762 0 5 2.238 5 5v130c0 2.762-2.238 5-5 5z"/></g><g><path d="m294.906 403.5h-69.999c-2.762 0-5-2.238-5-5v-60c0-22.056 17.943-40 39.999-40 10.675 0 20.719 4.159 28.283 11.712 7.557 7.557 11.717 17.603 11.717 28.288v60c0 2.762-2.238 5-5 5zm-64.999-10h59.999v-55c0-8.015-3.12-15.549-8.785-21.215-5.674-5.664-13.209-8.785-21.215-8.785-16.542 0-29.999 13.458-29.999 30z"/></g><g><path d="m344.906 373.5h-50c-2.762 0-5-2.238-5-5s2.238-5 5-5h50c2.762 0 5 2.238 5 5s-2.238 5-5 5z"/></g><g><path d="m224.907 373.5h-50c-2.762 0-5-2.238-5-5s2.238-5 5-5h50c2.761 0 5 2.238 5 5s-2.239 5-5 5z"/></g></g></g><circle cx="419.906" cy="93.5" fill="#cadbfd" r="25"/><path d="m419.906 123.5c-16.542 0-30-13.458-30-30s13.458-30 30-30 30 13.458 30 30-13.458 30-30 30zm0-50c-11.028 0-20 8.972-20 20s8.972 20 20 20 20-8.972 20-20-8.972-20-20-20z"/><circle cx="94.906" cy="423.5" fill="#cadbfd" r="35"/><path d="m94.906 463.5c-22.056 0-40-17.944-40-40s17.944-40 40-40 40 17.944 40 40-17.945 40-40 40zm0-70c-16.542 0-30 13.458-30 30s13.458 30 30 30 30-13.458 30-30-13.458-30-30-30z"/><circle cx="317.406" cy="56" r="7.5"/><circle cx="57.406" cy="66" r="7.5"/><circle cx="447.406" cy="166" r="7.5"/><circle cx="459.906" cy="376" r="7.5"/><circle cx="314.906" cy="441" r="7.5"/><circle cx="52.406" cy="366" r="7.5"/></g></g></svg>