<svg enable-background="new 0 0 512 512" height="512" viewBox="0 0 512 512" width="512" xmlns="http://www.w3.org/2000/svg"><g id="_x33_52_x2C__Cloud_x2C__Error_x2C__Warning_x2C_"><g><g><g><path d="m75.829 190.749c-9.039-71.711 47.101-134.749 118.783-134.749 41.059 0 78.725 20.544 100.758 54.955 1.489 2.326.811 5.418-1.515 6.907s-5.417.812-6.907-1.515c-20.186-31.526-54.703-50.347-92.336-50.347-65.713 0-117.148 57.796-108.861 123.499.345 2.74-1.596 5.241-4.336 5.587-2.769.343-5.245-1.619-5.586-4.337z"/></g><path d="m397.668 346c-1.126 0-285.732-.051-286.114-.068-38.316-1.476-68.33-32.682-68.33-71.042 0-35.823 26.358-65.561 61.135-70.412-19.458-60.898 26.208-123.477 90.253-123.477 39.023 0 73.509 23.557 87.862 59.292 11.66-7.822 25.497-12.07 39.639-12.07 40.991 0 73.602 34.731 70.962 75.703 40.939-2.635 75.702 29.941 75.702 70.962 0 39.212-31.9 71.112-71.109 71.112z"/><path d="m111.844 335.935 285.824.065c33.696 0 61.109-27.414 61.109-61.111 0-37.302-33.349-66.167-70.577-60.378-3.341.518-6.229-2.361-5.709-5.71 5.799-37.212-23.078-70.577-60.378-70.577-14.164 0-27.97 4.956-38.874 13.955-2.718 2.241-6.863 1.043-7.944-2.331-11.278-35.198-43.702-58.847-80.683-58.847-59.664 0-100.833 60.449-78.73 116.008 1.27 3.189-.986 6.684-4.416 6.843-32.658 1.509-58.242 28.32-58.242 61.038-.001 32.934 25.739 59.731 58.62 61.045z" fill="#e4f0fd"/><g><path d="m136.463 175.537c-2.762 0-5-2.239-5-5 0-32.829 26.708-59.537 59.537-59.537 2.762 0 5 2.239 5 5s-2.238 5-5 5c-27.314 0-49.537 22.222-49.537 49.537 0 2.761-2.238 5-5 5z"/></g></g><path d="m390.226 418.13c9.35 16.21-2.34 36.47-21.06 36.47h-213.59c-18.711 0-30.41-20.26-21.051-36.47l106.801-184.98c9.35-16.2 32.749-16.2 42.1 0z" fill="#384466"/><path d="m277.377 414.5c0 9.647-7.84 17.5-17.5 17.5-9.671 0-17.501-7.84-17.501-17.5 0-9.668 7.82-17.5 17.501-17.5 9.612 0 17.5 7.782 17.5 17.5z" fill="#fdd82e"/><path d="m277.377 289.5v69c0 9.67-7.841 17.5-17.5 17.5-9.671 0-17.501-7.83-17.501-17.5v-69c0-9.67 7.83-17.5 17.501-17.5 9.612 0 17.5 7.782 17.5 17.5z" fill="#fdd82e"/><path d="m259.877 381c-12.407 0-22.501-10.094-22.501-22.5v-69c0-12.406 10.094-22.5 22.501-22.5 5.996 0 11.642 2.336 15.899 6.578 4.259 4.259 6.601 9.911 6.601 15.922v69c0 12.406-10.094 22.5-22.5 22.5zm0-104c-6.893 0-12.501 5.607-12.501 12.5v69c0 6.893 5.608 12.5 12.501 12.5 6.892 0 12.5-5.607 12.5-12.5v-69c0-3.34-1.302-6.48-3.665-8.845-2.364-2.354-5.503-3.655-8.835-3.655z"/><path d="m259.877 437c-12.407 0-22.501-10.094-22.501-22.5 0-6.004 2.337-11.654 6.58-15.91 4.266-4.253 9.917-6.59 15.921-6.59 5.996 0 11.642 2.336 15.899 6.578 4.259 4.259 6.601 9.911 6.601 15.922 0 6.005-2.342 11.653-6.595 15.905-4.254 4.253-9.903 6.595-15.905 6.595zm0-35c-3.339 0-6.483 1.3-8.851 3.661-2.35 2.357-3.65 5.5-3.65 8.839 0 6.893 5.608 12.5 12.501 12.5 3.333 0 6.471-1.302 8.835-3.666 2.363-2.363 3.665-5.501 3.665-8.834 0-3.34-1.302-6.48-3.665-8.845-2.364-2.354-5.503-3.655-8.835-3.655z"/><path d="m369.167 459.6h-213.59c-10.596 0-20.084-5.479-25.382-14.656-5.299-9.178-5.298-20.136.001-29.313l106.801-184.98c5.294-9.173 14.781-14.649 25.379-14.65 10.598 0 20.086 5.477 25.381 14.65l106.8 184.98c5.297 9.183 5.293 20.143-.008 29.32-5.299 9.172-14.788 14.649-25.382 14.649zm-106.791-233.6c-6.982 0-13.232 3.607-16.719 9.649l-106.801 184.981c-3.492 6.047-3.492 13.267-.001 19.313 3.491 6.047 9.741 9.656 16.722 9.656h213.59c6.98 0 13.232-3.608 16.723-9.651 3.493-6.047 3.495-13.27.006-19.32l-106.8-184.978c-3.488-6.043-9.738-9.65-16.72-9.65zm-127.85 192.13h.01z"/><circle cx="438.516" cy="91" fill="#cadbfd" r="25"/><path d="m438.516 121c-16.542 0-30-13.458-30-30s13.458-30 30-30 30 13.458 30 30-13.458 30-30 30zm0-50c-11.028 0-20 8.972-20 20s8.972 20 20 20 20-8.972 20-20-8.972-20-20-20z"/><circle cx="73.516" cy="411" fill="#cadbfd" r="20"/><path d="m73.516 436c-13.785 0-25-11.215-25-25s11.215-25 25-25 25 11.215 25 25-11.215 25-25 25zm0-40c-8.271 0-15 6.728-15 15s6.729 15 15 15 15-6.728 15-15-6.728-15-15-15z"/><circle cx="321.016" cy="53.5" r="7.5"/><circle cx="446.016" cy="158.5" r="7.5"/><circle cx="451.016" cy="403.5" r="7.5"/><circle cx="106.016" cy="458.5" r="7.5"/><circle cx="81.016" cy="63.5" r="7.5"/></g></g></svg>