<svg enable-background="new 0 0 512 512" height="512" viewBox="0 0 512 512" width="512" xmlns="http://www.w3.org/2000/svg"><g id="_x33_53_x2C__Cloud_x2C__Data_x2C__Storage_x2C__Technology"><g><g><g><path d="m75.829 193.249c-9.039-71.711 47.101-134.749 118.783-134.749 41.059 0 78.725 20.544 100.758 54.955 1.489 2.326.811 5.418-1.515 6.907s-5.417.812-6.907-1.515c-20.186-31.526-54.703-50.347-92.336-50.347-65.713 0-117.148 57.796-108.861 123.499.345 2.74-1.596 5.241-4.336 5.587-2.769.343-5.245-1.619-5.586-4.337z"/></g><path d="m397.668 348.5c-1.126 0-285.732-.051-286.114-.068-38.316-1.476-68.33-32.682-68.33-71.042 0-35.823 26.358-65.561 61.135-70.412-19.458-60.898 26.208-123.477 90.253-123.477 39.023 0 73.509 23.557 87.862 59.292 11.66-7.822 25.497-12.07 39.639-12.07 40.991 0 73.602 34.731 70.962 75.703 40.939-2.635 75.702 29.941 75.702 70.962 0 39.212-31.9 71.112-71.109 71.112z"/><path d="m111.844 338.435 285.823.065c33.696 0 61.109-27.414 61.109-61.111 0-37.302-33.349-66.167-70.577-60.378-3.341.518-6.229-2.361-5.709-5.71 5.799-37.212-23.078-70.577-60.378-70.577-14.164 0-27.97 4.956-38.874 13.955-2.718 2.241-6.863 1.043-7.944-2.331-11.278-35.198-43.702-58.847-80.683-58.847-59.664 0-100.833 60.449-78.73 116.008 1.27 3.189-.986 6.684-4.416 6.843-32.658 1.509-58.242 28.32-58.242 61.038 0 32.934 25.74 59.731 58.621 61.045z" fill="#e4f0fd"/><g><path d="m136.463 178.037c-2.762 0-5-2.239-5-5 0-32.829 26.708-59.537 59.537-59.537 2.762 0 5 2.239 5 5s-2.238 5-5 5c-27.314 0-49.537 22.222-49.537 49.537 0 2.761-2.238 5-5 5z"/></g></g><g id="XMLID_25538_"><g><g><path d="m333.516 316.37c-.071 41.884.16 39.617-.21 42.1-2.88 20.351-36.49 36.41-75.64 36.41-39.141 0-71.2-16.05-73.95-36.399-.362-2.429-.141-1.111-.2-42.11l.109-.01c2.08 20.689 34.431 37.14 74.041 37.14 39.609 0 73.55-16.45 75.739-37.14z" fill="#fdd82e"/></g><g><path d="m333.516 358.5v39.26c0 21.681-34.9 39.25-75.85 39.25s-74.15-17.569-74.15-39.25v-39.26l.2-.02c2.75 20.35 34.81 36.399 73.95 36.399 39.149 0 72.76-16.06 75.64-36.41z" fill="#fbbd00"/></g><g><path d="m333.516 274.99c-.04 40.95.091 39.366-.11 41.37-2.189 20.689-36.13 37.14-75.739 37.14-39.61 0-71.961-16.45-74.041-37.14-.207-2.08-.068-.308-.109-41.37l.12-.01c2.17 20.649 34.489 37.029 74.03 37.029 39.55 0 73.449-16.39 75.72-37.04h.01z" fill="#fbbd00"/></g><g><path d="m333.396 274.97h-.01c-2.271 20.65-36.17 37.04-75.72 37.04-29.249 0-74.15-12.179-74.15-39.25 0-21.68 33.2-39.26 74.15-39.26 40.605 0 78.304 17.98 75.73 41.47z" fill="#fdd82e"/></g></g><g><g><path d="m257.667 358.5c-42.66 0-76.629-17.901-79.016-41.64-.09-.9-.135-1.779-.135-2.62v-39.25c0-2.762 2.238-5 5-5s5 2.238 5 5v39.25c0 .511.029 1.058.085 1.624 1.809 17.993 32.792 32.636 69.065 32.636 36.486 0 68.893-14.959 70.767-32.666.055-.537.083-1.082.083-1.594v-39.25c0-2.762 2.238-5 5-5s5 2.238 5 5v39.25c0 .844-.046 1.726-.136 2.62-2.471 23.361-37.924 41.64-80.713 41.64z"/></g><g><path d="m257.667 399.88c-41.846 0-75.768-17.51-78.905-40.73-.161-1.084-.245-2.257-.245-3.52v-39.26c0-2.762 2.238-5 5-5s5 2.238 5 5v39.26c0 .765.048 1.456.146 2.113 2.399 17.751 33.351 32.137 69.005 32.137 35.854 0 68.226-14.705 70.689-32.11.109-.739.16-1.428.16-2.14v-39.26c0-2.762 2.238-5 5-5s5 2.238 5 5v39.26c0 1.192-.089 2.395-.265 3.575-1.627 11.501-11.218 22.028-26.999 29.608-14.86 7.137-33.89 11.067-53.586 11.067z"/></g><g><path d="m257.667 442.01c-44.383 0-79.15-19.437-79.15-44.25v-39.26c0-2.762 2.238-5 5-5s5 2.238 5 5v39.26c0 18.565 31.667 34.25 69.15 34.25 37.742 0 70.85-16.005 70.85-34.25v-39.26c0-2.762 2.238-5 5-5s5 2.238 5 5v39.26c0 12.401-8.98 23.838-25.286 32.204-15.143 7.767-34.875 12.046-55.564 12.046z"/></g><g><path d="m257.667 317.01c-42.547 0-76.508-17.841-79.002-41.499-.099-.902-.148-1.828-.148-2.751 0-24.818 34.768-44.26 79.15-44.26 20.688 0 40.421 4.28 55.563 12.052 16.306 8.369 25.286 19.807 25.286 32.208 0 .922-.051 1.849-.15 2.756-.013.117-.029.233-.05.349-2.873 23.1-38.175 41.145-80.649 41.145zm0-78.51c-37.483 0-69.15 15.689-69.15 34.26 0 .565.03 1.129.09 1.676.002.008.002.015.003.023 1.886 17.949 32.865 32.552 69.058 32.552 36.408 0 68.808-14.923 70.75-32.587.01-.09.021-.179.036-.268.042-.46.064-.928.064-1.396-.002-18.251-33.109-34.26-70.851-34.26z"/></g></g></g><circle cx="423.516" cy="93.5" fill="#cadbfd" r="30"/><path d="m423.516 128.5c-19.299 0-35-15.701-35-35s15.701-35 35-35 35 15.701 35 35-15.701 35-35 35zm0-60c-13.785 0-25 11.215-25 25s11.215 25 25 25 25-11.215 25-25-11.215-25-25-25z"/><circle cx="88.516" cy="408.5" fill="#cadbfd" r="25"/><path d="m88.516 438.5c-16.542 0-30-13.458-30-30s13.458-30 30-30 30 13.458 30 30-13.458 30-30 30zm0-50c-11.027 0-20 8.972-20 20s8.973 20 20 20 20-8.972 20-20-8.973-20-20-20z"/><circle cx="456.016" cy="166" r="7.5"/><circle cx="441.016" cy="381" r="7.5"/><circle cx="351.016" cy="441" r="7.5"/><circle cx="321.016" cy="56" r="7.5"/><circle cx="61.016" cy="76" r="7.5"/><circle cx="146.016" cy="456" r="7.5"/></g></g></svg>