<svg enable-background="new 0 0 512 512" height="512" viewBox="0 0 512 512" width="512" xmlns="http://www.w3.org/2000/svg"><g id="_x33_54_x2C__Computing_x2C__Folder_x2C__Syncronize_x2C_"><g><g><g><path d="m75.829 195.749c-9.039-71.711 47.101-134.749 118.783-134.749 41.059 0 78.725 20.544 100.758 54.955 1.489 2.326.811 5.418-1.515 6.907s-5.417.812-6.907-1.515c-20.186-31.526-54.703-50.347-92.336-50.347-65.713 0-117.148 57.796-108.861 123.499.345 2.74-1.596 5.241-4.336 5.587-2.769.343-5.245-1.619-5.586-4.337z"/></g><path d="m397.668 351c-1.126 0-285.732-.051-286.114-.068-38.316-1.476-68.33-32.682-68.33-71.042 0-35.823 26.358-65.561 61.135-70.412-19.458-60.898 26.208-123.477 90.253-123.477 39.023 0 73.509 23.557 87.862 59.292 11.66-7.822 25.497-12.07 39.639-12.07 40.991 0 73.602 34.731 70.962 75.703 40.939-2.635 75.702 29.941 75.702 70.962 0 39.212-31.9 71.112-71.109 71.112z"/><path d="m111.844 340.935 285.824.065c33.696 0 61.109-27.414 61.109-61.111 0-37.302-33.349-66.167-70.577-60.378-3.341.518-6.229-2.361-5.709-5.71 5.799-37.212-23.078-70.577-60.378-70.577-14.164 0-27.97 4.956-38.874 13.955-2.718 2.241-6.863 1.043-7.944-2.331-11.278-35.198-43.702-58.847-80.683-58.847-59.664 0-100.833 60.449-78.73 116.008 1.27 3.189-.986 6.684-4.416 6.843-32.658 1.509-58.242 28.32-58.242 61.038-.001 32.934 25.739 59.731 58.62 61.045z" fill="#e4f0fd"/><g><path d="m136.463 180.537c-2.762 0-5-2.239-5-5 0-32.829 26.708-59.537 59.537-59.537 2.762 0 5 2.239 5 5s-2.238 5-5 5c-27.314 0-49.537 22.222-49.537 49.537 0 2.761-2.238 5-5 5z"/></g></g><path d="m138.516 366h240v25h-240z" fill="#ff8848"/><path d="m378.516 391v17.25c0 15.33-12.42 27.75-27.75 27.75h-184.5c-15.33 0-27.75-12.42-27.75-27.75v-17.25z" fill="#fdd82e"/><path d="m378.516 308.75v57.25h-240c0-17.897 0-66.414 0-87.25 0-15.32 12.42-27.75 27.75-27.75h67.25l20 30h97.25c15.33 0 27.75 12.43 27.75 27.75z" fill="#fdd82e"/><path d="m350.766 441h-184.5c-18.059 0-32.75-14.691-32.75-32.75v-129.5c0-18.059 14.691-32.75 32.75-32.75h67.25c1.672 0 3.232.835 4.16 2.227l18.516 27.773h94.574c18.059 0 32.75 14.691 32.75 32.75v99.5c0 18.059-14.691 32.75-32.75 32.75zm-184.5-185c-12.545 0-22.75 10.206-22.75 22.75v129.5c0 12.544 10.205 22.75 22.75 22.75h184.5c12.544 0 22.75-10.206 22.75-22.75v-99.5c0-12.544-10.206-22.75-22.75-22.75h-97.25c-1.672 0-3.232-.836-4.16-2.227l-18.516-27.773z"/><path d="m378.516 371h-240c-2.762 0-5-2.238-5-5s2.238-5 5-5h240c2.762 0 5 2.238 5 5s-2.238 5-5 5z"/><path d="m378.516 396h-240c-2.762 0-5-2.238-5-5s2.238-5 5-5h240c2.762 0 5 2.238 5 5s-2.238 5-5 5z"/><circle cx="423.516" cy="101" fill="#cadbfd" r="25"/><path d="m423.516 131c-16.542 0-30-13.458-30-30s13.458-30 30-30 30 13.458 30 30-13.458 30-30 30zm0-50c-11.028 0-20 8.972-20 20s8.972 20 20 20 20-8.972 20-20-8.972-20-20-20z"/><circle cx="78.516" cy="436" fill="#cadbfd" r="20"/><path d="m78.516 461c-13.785 0-25-11.215-25-25s11.215-25 25-25 25 11.215 25 25-11.215 25-25 25zm0-40c-8.271 0-15 6.728-15 15s6.729 15 15 15 15-6.728 15-15-6.728-15-15-15z"/><circle cx="456.016" cy="168.5" r="7.5"/><circle cx="316.016" cy="43.5" r="7.5"/><circle cx="66.016" cy="66" r="7.5"/><circle cx="456.016" cy="378.5" r="7.5"/><circle cx="351.016" cy="468.5" r="7.5"/><circle cx="66.016" cy="373.5" r="7.5"/></g></g></svg>