<svg enable-background="new 0 0 512 512" height="512" viewBox="0 0 512 512" width="512" xmlns="http://www.w3.org/2000/svg"><g id="_x33_55_x2C__Cloud_x2C__Location_x2C__Map_x2C__Pin"><g><g><g><path d="m74.16 187.415c-9.039-71.711 47.102-134.749 118.785-134.749 41.057 0 78.724 20.544 100.757 54.955 1.489 2.326.811 5.418-1.515 6.907s-5.417.812-6.907-1.515c-20.186-31.526-54.704-50.347-92.335-50.347-65.715 0-117.15 57.796-108.863 123.499.346 2.74-1.596 5.241-4.335 5.587-2.769.342-5.244-1.62-5.587-4.337z"/></g><path d="m396 342.665c-.388 0-34.379-.006-78.805-.015l-7.75-63.735-94.88.25-12.87 63.461c-50.8-.012-91.665-.022-91.81-.029-38.315-1.475-68.329-32.682-68.329-71.042 0-35.823 26.358-65.561 61.135-70.413-19.458-60.897 26.209-123.476 90.254-123.476 39.021 0 73.508 23.557 87.861 59.292 11.66-7.822 25.497-12.07 39.639-12.07 40.991 0 73.602 34.731 70.962 75.703 40.939-2.635 75.702 29.941 75.702 70.962 0 39.212-31.9 71.112-71.109 71.112z"/><path d="m110.176 332.601 93.548.021 10.841-53.457 94.88-.25 6.533 53.732 80.022.018c33.696 0 61.109-27.414 61.109-61.111 0-37.302-33.349-66.167-70.577-60.378-3.341.519-6.23-2.361-5.709-5.71 5.799-37.212-23.079-70.577-60.378-70.577-14.164 0-27.97 4.956-38.874 13.955-2.718 2.241-6.863 1.044-7.944-2.331-11.278-35.198-43.703-58.847-80.682-58.847-59.666 0-100.834 60.449-78.731 116.008 1.269 3.189-.986 6.684-4.415 6.843-32.66 1.509-58.243 28.32-58.243 61.038-.001 32.935 25.739 59.731 58.62 61.046z" fill="#e4f0fd"/><g><path d="m134.795 172.202c-2.761 0-5-2.239-5-5 0-32.829 26.708-59.537 59.537-59.537 2.761 0 5 2.239 5 5s-2.239 5-5 5c-27.315 0-49.537 22.222-49.537 49.537 0 2.762-2.239 5-5 5z"/></g></g><path d="m258.955 246.785c40.98 0 74.391 33.42 74.391 74.39 0 40.98-33.41 74.391-74.391 74.391-40.97 0-74.39-33.41-74.39-74.391 0-40.97 33.42-74.39 74.39-74.39zm44.39 74.39c0-24.45-19.94-44.39-44.391-44.39-24.449 0-44.39 19.939-44.39 44.39s19.94 44.391 44.39 44.391c24.451 0 44.391-19.941 44.391-44.391z" fill="#ff4c4c"/><path d="m258.955 212.665c59.94 0 108.521 48.58 108.521 108.51 0 70.16-65.351 93.99-108.521 153.16-43.16-59.17-108.51-83-108.51-153.16 0-59.93 48.58-108.51 108.51-108.51zm74.39 108.51c0-40.97-33.41-74.39-74.391-74.39-40.97 0-74.39 33.42-74.39 74.39 0 40.98 33.42 74.391 74.39 74.391 40.981 0 74.391-33.41 74.391-74.391z" fill="#ff8848"/><path d="m254.915 477.282c-42.653-58.474-109.471-83.434-109.471-156.106 0-62.59 50.92-113.51 113.51-113.51 62.596 0 113.521 50.92 113.521 113.51 0 72.673-66.834 97.652-109.482 156.107-1.99 2.727-6.076 2.745-8.078-.001zm4.04-259.617c-57.076 0-103.51 46.435-103.51 103.51 0 65.431 60.229 89.15 103.51 144.851 43.315-55.729 103.521-79.409 103.521-144.851-.001-57.075-46.44-103.51-103.521-103.51z"/><path d="m258.955 400.566c-43.775 0-79.39-35.614-79.39-79.391 0-43.775 35.614-79.39 79.39-79.39s79.391 35.614 79.391 79.39c-.001 43.776-35.615 79.391-79.391 79.391zm0-148.781c-38.262 0-69.39 31.128-69.39 69.39s31.128 69.391 69.39 69.391 69.391-31.129 69.391-69.391c-.001-38.262-31.13-69.39-69.391-69.39z"/><path d="m258.955 370.566c-27.233 0-49.39-22.156-49.39-49.391 0-27.233 22.156-49.39 49.39-49.39s49.391 22.156 49.391 49.39c-.001 27.234-22.157 49.391-49.391 49.391zm0-88.781c-21.72 0-39.39 17.67-39.39 39.39s17.67 39.391 39.39 39.391 39.391-17.671 39.391-39.391c-.001-21.72-17.672-39.39-39.391-39.39z"/><circle cx="430.445" cy="92.665" fill="#cadbfd" r="30"/><path d="m430.445 127.665c-19.299 0-35-15.701-35-35s15.701-35 35-35 35 15.701 35 35-15.701 35-35 35zm0-60c-13.785 0-25 11.215-25 25s11.215 25 25 25 25-11.215 25-25-11.215-25-25-25z"/><circle cx="85.445" cy="397.665" fill="#cadbfd" r="20"/><path d="m85.445 422.665c-13.785 0-25-11.215-25-25s11.215-25 25-25 25 11.215 25 25c0 13.786-11.215 25-25 25zm0-40c-8.271 0-15 6.729-15 15 0 8.272 6.729 15 15 15s15-6.728 15-15c0-8.271-6.729-15-15-15z"/><circle cx="462.945" cy="365.165" r="7.5"/><circle cx="457.945" cy="160.165" r="7.5"/><circle cx="297.945" cy="40.165" r="7.5"/><circle cx="87.945" cy="60.165" r="7.5"/><circle cx="162.945" cy="442.665" r="7.5"/><circle cx="377.945" cy="430.165" r="7.5"/></g></g></svg>