<svg enable-background="new 0 0 512 512" height="512" viewBox="0 0 512 512" width="512" xmlns="http://www.w3.org/2000/svg"><g id="_x33_58_x2C__Cloud_x2C__Connection_x2C__Network_x2C_"><g><g><g><path d="m73.459 198.249c-9.039-71.711 47.102-134.749 118.783-134.749 41.059 0 78.725 20.544 100.758 54.955 1.489 2.326.811 5.418-1.515 6.907s-5.417.812-6.907-1.515c-20.185-31.526-54.703-50.347-92.336-50.347-65.713 0-117.148 57.796-108.861 123.499.345 2.74-1.596 5.241-4.336 5.587-2.769.343-5.244-1.619-5.586-4.337z"/></g><path d="m395.298 353.5c-1.126 0-285.732-.051-286.114-.068-38.316-1.476-68.33-32.682-68.33-71.042 0-35.823 26.358-65.561 61.135-70.412-19.458-60.898 26.208-123.477 90.253-123.477 39.023 0 73.509 23.557 87.862 59.292 11.66-7.822 25.497-12.07 39.639-12.07 40.991 0 73.602 34.731 70.962 75.703 40.939-2.635 75.702 29.941 75.702 70.962 0 39.212-31.899 71.112-71.109 71.112z"/><path d="m109.475 343.435 285.823.065c33.696 0 61.109-27.414 61.109-61.111 0-37.302-33.349-66.167-70.577-60.378-3.341.518-6.23-2.361-5.709-5.71 5.799-37.212-23.078-70.577-60.378-70.577-14.164 0-27.97 4.956-38.874 13.955-2.718 2.241-6.863 1.043-7.944-2.331-11.278-35.198-43.702-58.847-80.683-58.847-59.664 0-100.833 60.449-78.73 116.008 1.27 3.189-.986 6.684-4.416 6.843-32.658 1.509-58.242 28.32-58.242 61.038 0 32.934 25.74 59.731 58.621 61.045z" fill="#e4f0fd"/><g><path d="m134.094 183.037c-2.762 0-5-2.239-5-5 0-32.829 26.708-59.537 59.537-59.537 2.762 0 5 2.239 5 5s-2.238 5-5 5c-27.314 0-49.537 22.222-49.537 49.537 0 2.761-2.239 5-5 5z"/></g></g><path d="m336.147 398.5c8.28 0 15 6.72 15 15 0 4.14-1.68 7.89-4.4 10.6-2.71 2.721-6.46 4.4-10.6 4.4h-170c-8.279 0-15-6.72-15-15 0-4.14 1.68-7.89 4.4-10.6 2.709-2.721 6.459-4.4 10.6-4.4h85z" fill="#65cafd"/><circle cx="251.146" cy="278.5" fill="#ff8848" r="45"/><path d="m251.146 328.5c-27.57 0-50-22.43-50-50s22.43-50 50-50 50 22.43 50 50-22.429 50-50 50zm0-90c-22.057 0-40 17.944-40 40s17.943 40 40 40c22.056 0 40-17.944 40-40s-17.944-40-40-40z"/><path d="m336.147 433.5h-170c-11.027 0-20-8.972-20-20 0-5.347 2.085-10.369 5.871-14.142 3.758-3.773 8.78-5.858 14.129-5.858h170c11.028 0 20 8.972 20 20 0 5.348-2.085 10.37-5.872 14.143-3.758 3.772-8.781 5.857-14.128 5.857zm-170.001-30c-2.67 0-5.176 1.04-7.058 2.929-1.902 1.895-2.942 4.402-2.942 7.071 0 5.514 4.486 10 10 10h170c2.67 0 5.176-1.04 7.057-2.929 1.903-1.895 2.943-4.401 2.943-7.071 0-5.514-4.486-10-10-10z"/><path d="m251.146 403.5c-2.762 0-5-2.238-5-5v-75c0-2.762 2.238-5 5-5s5 2.238 5 5v75c.001 2.762-2.238 5-5 5z"/><circle cx="431.147" cy="98.5" fill="#cadbfd" r="35"/><path d="m431.147 138.5c-22.056 0-40-17.944-40-40s17.944-40 40-40 40 17.944 40 40-17.945 40-40 40zm0-70c-16.542 0-30 13.458-30 30s13.458 30 30 30 30-13.458 30-30-13.458-30-30-30z"/><circle cx="81.146" cy="423.5" fill="#cadbfd" r="20"/><path d="m81.146 448.5c-13.785 0-25-11.215-25-25s11.215-25 25-25 25 11.215 25 25-11.214 25-25 25zm0-40c-8.271 0-15 6.728-15 15s6.729 15 15 15 15-6.728 15-15-6.728-15-15-15z"/><circle cx="333.647" cy="56" r="7.5"/><circle cx="443.647" cy="176" r="7.5"/><circle cx="58.646" cy="71" r="7.5"/><circle cx="138.646" cy="456" r="7.5"/><circle cx="443.647" cy="396" r="7.5"/><circle cx="393.647" cy="451" r="7.5"/></g></g></svg>