<svg enable-background="new 0 0 512 512" height="512" viewBox="0 0 512 512" width="512" xmlns="http://www.w3.org/2000/svg"><g id="_x33_59_x2C__Cloud_x2C__Mail_x2C__Recieved_x2C__Message"><g><g><g><path d="m73.459 185.747c-9.039-71.711 47.102-134.75 118.783-134.75 41.059 0 78.725 20.544 100.758 54.955 1.489 2.326.811 5.418-1.515 6.907s-5.417.812-6.907-1.515c-20.185-31.526-54.703-50.347-92.336-50.347-65.713 0-117.148 57.796-108.861 123.499.345 2.74-1.596 5.241-4.336 5.587-2.769.344-5.244-1.618-5.586-4.336z"/></g><path d="m395.298 340.998c-1.126 0-285.732-.051-286.114-.068-38.316-1.475-68.33-32.682-68.33-71.042 0-35.823 26.358-65.561 61.135-70.412-19.457-60.897 26.209-123.476 90.254-123.476 39.023 0 73.509 23.557 87.862 59.292 11.66-7.822 25.497-12.07 39.639-12.07 40.991 0 73.602 34.731 70.962 75.703 40.939-2.635 75.702 29.941 75.702 70.962-.001 39.21-31.9 71.111-71.11 71.111z"/><path d="m109.475 330.933 285.823.065c33.696 0 61.109-27.414 61.109-61.111 0-37.302-33.349-66.167-70.577-60.378-3.341.519-6.23-2.361-5.709-5.71 5.799-37.212-23.078-70.577-60.378-70.577-14.164 0-27.97 4.956-38.874 13.955-2.718 2.241-6.863 1.044-7.944-2.331-11.278-35.198-43.702-58.847-80.683-58.847-59.664 0-100.833 60.449-78.73 116.008 1.27 3.189-.986 6.684-4.416 6.843-32.658 1.509-58.242 28.32-58.242 61.038 0 32.934 25.74 59.731 58.621 61.045z" fill="#e4f0fd"/><g><path d="m134.094 170.535c-2.762 0-5-2.239-5-5 0-32.829 26.708-59.537 59.537-59.537 2.762 0 5 2.239 5 5s-2.238 5-5 5c-27.314 0-49.537 22.222-49.537 49.537 0 2.761-2.239 5-5 5z"/></g></g><path d="m376.147 470.998-36.67-40h-203.33v-155l120 95 120-95z" fill="#4694e4"/><path d="m376.147 275.998-120 95-120.001-95z" fill="#65cafd"/><path d="m256.147 375.998c-1.097 0-2.194-.36-3.104-1.08l-120-95c-2.165-1.714-2.531-4.858-.816-7.023 1.715-2.163 4.859-2.531 7.023-.816l116.897 92.543 116.896-92.543c2.164-1.716 5.31-1.35 7.023.816 1.714 2.165 1.349 5.31-.816 7.023l-120 95c-.909.719-2.007 1.08-3.103 1.08z"/><path d="m372.461 474.377-35.184-38.379h-201.131c-2.762 0-5-2.238-5-5v-155c0-2.762 2.238-5 5-5h240c2.762 0 5 2.238 5 5v195c.001 4.547-5.611 6.733-8.685 3.379zm-231.315-48.379h198.33c1.401 0 2.738.588 3.686 1.621l27.984 30.525v-177.146h-230z"/><path d="m301.147 300.998h-90c-2.762 0-5-2.238-5-5s2.238-5 5-5h90c2.762 0 5 2.238 5 5s-2.239 5-5 5z"/><path d="m281.147 320.998h-50c-2.762 0-5-2.238-5-5s2.238-5 5-5h50c2.762 0 5 2.238 5 5s-2.239 5-5 5z"/><circle cx="436.147" cy="80.998" fill="#cadbfd" r="30"/><path d="m436.147 115.998c-19.299 0-35-15.701-35-35s15.701-35 35-35 35 15.701 35 35-15.702 35-35 35zm0-60c-13.785 0-25 11.215-25 25s11.215 25 25 25 25-11.215 25-25-11.215-25-25-25z"/><circle cx="66.146" cy="420.998" fill="#cadbfd" r="20"/><path d="m66.146 445.998c-13.785 0-25-11.215-25-25s11.215-25 25-25 25 11.215 25 25-11.214 25-25 25zm0-40c-8.271 0-15 6.728-15 15 0 8.271 6.729 15 15 15s15-6.729 15-15c0-8.272-6.728-15-15-15z"/><circle cx="448.647" cy="163.498" r="7.5"/><circle cx="333.647" cy="43.498" r="7.5"/><circle cx="68.646" cy="63.498" r="7.5"/><circle cx="103.646" cy="368.498" r="7.5"/><circle cx="463.647" cy="358.498" r="7.5"/><circle cx="418.647" cy="428.498" r="7.5"/></g></g></svg>