<svg enable-background="new 0 0 512 512" height="512" viewBox="0 0 512 512" width="512" xmlns="http://www.w3.org/2000/svg"><g id="_x33_61_x2C__Analytics_x2C__Chart_x2C__Cloud_x2C__Data"><g><g><g><path d="m75.829 190.749c-9.039-71.711 47.101-134.749 118.783-134.749 41.059 0 78.725 20.544 100.758 54.955 1.489 2.326.811 5.418-1.515 6.907s-5.417.812-6.907-1.515c-20.186-31.526-54.703-50.347-92.336-50.347-65.713 0-117.148 57.796-108.861 123.499.345 2.74-1.596 5.241-4.336 5.587-2.769.343-5.245-1.619-5.586-4.337z"/></g><path d="m397.668 346c-1.126 0-285.732-.051-286.114-.068-38.316-1.476-68.33-32.682-68.33-71.042 0-35.823 26.358-65.561 61.135-70.412-19.458-60.898 26.208-123.477 90.253-123.477 39.023 0 73.509 23.557 87.862 59.292 11.66-7.822 25.497-12.07 39.639-12.07 40.991 0 73.602 34.731 70.962 75.703 40.939-2.635 75.702 29.941 75.702 70.962 0 39.212-31.9 71.112-71.109 71.112z"/><path d="m111.844 335.935 285.824.065c33.696 0 61.109-27.414 61.109-61.111 0-37.302-33.349-66.167-70.577-60.378-3.341.518-6.229-2.361-5.709-5.71 5.799-37.212-23.078-70.577-60.378-70.577-14.164 0-27.97 4.956-38.874 13.955-2.718 2.241-6.863 1.043-7.944-2.331-11.278-35.198-43.702-58.847-80.683-58.847-59.664 0-100.833 60.449-78.73 116.008 1.27 3.189-.986 6.684-4.416 6.843-32.658 1.509-58.242 28.32-58.242 61.038-.001 32.934 25.739 59.731 58.62 61.045z" fill="#e4f0fd"/><g><path d="m136.463 175.537c-2.762 0-5-2.239-5-5 0-32.829 26.708-59.537 59.537-59.537 2.762 0 5 2.239 5 5s-2.238 5-5 5c-27.314 0-49.537 22.222-49.537 49.537 0 2.761-2.238 5-5 5z"/></g></g><path d="m336.016 316h27.5c0 51.25-35.06 94.32-82.5 106.54v-.01l-27.5-106.53h12.68 23.33 23.34z" fill="#ff4c4c"/><path d="m336.016 316h-23.15l20.561-20.56c1.689 6.58 2.589 13.46 2.589 20.56z" fill="#65cafd"/><path d="m333.426 295.44-20.56 20.56h-23.34l37.5-37.49c2.721 5.34 4.891 11.01 6.4 16.93z" fill="#3e6dca"/><path d="m327.026 278.51-37.5 37.49h-23.33l51.65-51.65c3.52 4.38 6.6 9.12 9.18 14.16z" fill="#4694e4"/><path d="m317.846 264.35-51.65 51.65h-12.68v-10.66l52.76-52.76c4.24 3.52 8.12 7.47 11.57 11.77z" fill="#65cafd"/><path d="m306.276 252.58-52.76 52.76v-23.33l38.82-38.82c4.97 2.66 9.64 5.81 13.94 9.39z" fill="#3e6dca"/><path d="m292.336 243.19-38.82 38.82v-23.34l22.16-22.15c5.84 1.62 11.42 3.87 16.66 6.67z" fill="#4694e4"/><path d="m281.016 422.53v.01c-8.79 2.26-18 3.46-27.5 3.46-23.24 0-44.79-7.2-62.54-19.5l62.54-90.5z" fill="#ff8848"/><path d="m275.676 236.52-22.16 22.15v-25.17c7.68 0 15.111 1.05 22.16 3.02z" fill="#65cafd"/><path d="m253.516 305.34v10.66l-62.54 90.5c-28.681-19.85-47.46-52.98-47.46-90.5 0-60.75 49.25-110 110-110v27.5 25.17 23.34z" fill="#fdd82e"/><path d="m281.012 427.531c-2.225 0-4.255-1.496-4.837-3.751l-24.766-95.936-56.32 81.499c-1.569 2.272-4.685 2.841-6.956 1.271-2.271-1.569-2.84-4.684-1.27-6.956l62.54-90.5c1.112-1.61 3.059-2.422 4.989-2.08 1.927.343 3.477 1.778 3.965 3.673l27.5 106.53c.69 2.674-.917 5.401-3.591 6.091-.419.107-.84.159-1.254.159z"/><path d="m253.516 263.67c-1.28 0-2.561-.488-3.536-1.465-1.952-1.953-1.952-5.119.001-7.071l22.16-22.15c1.954-1.953 5.119-1.953 7.071.001 1.952 1.953 1.951 5.119-.001 7.071l-22.16 22.15c-.976.976-2.256 1.464-3.535 1.464z"/><path d="m336.016 321c-2.762 0-5-2.238-5-5 0-6.531-.818-13.029-2.433-19.316-1.391-5.453-3.413-10.802-6.013-15.904-2.4-4.689-5.304-9.167-8.622-13.298-3.245-4.044-6.9-7.762-10.866-11.054-4.051-3.373-8.458-6.342-13.105-8.83-4.964-2.652-10.227-4.759-15.638-6.26-6.741-1.884-13.744-2.838-20.823-2.838-2.762 0-5-2.239-5-5s2.238-5 5-5c7.989 0 15.897 1.078 23.506 3.205 6.108 1.694 12.057 4.076 17.671 7.075 5.246 2.809 10.219 6.158 14.782 9.958 4.477 3.717 8.607 7.918 12.27 12.483 3.742 4.657 7.017 9.709 9.731 15.011 2.939 5.769 5.224 11.813 6.794 17.974 1.821 7.09 2.745 14.426 2.745 21.795.001 2.761-2.237 4.999-4.999 4.999z"/><path d="m312.866 321c-1.279 0-2.56-.488-3.535-1.465-1.953-1.952-1.953-5.118 0-7.07l20.54-20.54c1.873-1.898 4.933-1.999 6.924-.189 2.043 1.857 2.199 5.015.341 7.058l-.01.011c-.053.059-.107.116-.164.172l-20.561 20.56c-.976.975-2.256 1.463-3.535 1.463z"/><path d="m266.196 321c-1.279 0-2.56-.488-3.535-1.465-1.953-1.952-1.953-5.118 0-7.07l51.65-51.65c1.951-1.953 5.119-1.953 7.07 0 1.953 1.952 1.953 5.118 0 7.07l-51.65 51.65c-.976.977-2.256 1.465-3.535 1.465z"/><path d="m289.526 321c-1.28 0-2.56-.488-3.536-1.465-1.952-1.953-1.952-5.119.001-7.071l37.5-37.49c1.953-1.953 5.118-1.952 7.071.001 1.952 1.953 1.952 5.119-.001 7.071l-37.5 37.49c-.976.976-2.256 1.464-3.535 1.464z"/><path d="m253.516 310.34c-1.279 0-2.559-.488-3.535-1.465-1.953-1.952-1.953-5.118 0-7.07l52.76-52.76c1.951-1.953 5.119-1.953 7.07 0 1.953 1.952 1.953 5.118 0 7.07l-52.76 52.76c-.975.977-2.256 1.465-3.535 1.465z"/><path d="m253.516 287.01c-1.279 0-2.559-.488-3.535-1.465-1.953-1.952-1.953-5.118 0-7.07l38.82-38.82c1.951-1.952 5.119-1.952 7.07 0 1.953 1.953 1.953 5.119 0 7.071l-38.82 38.819c-.975.977-2.256 1.465-3.535 1.465z"/><path d="m253.516 431c-23.527 0-46.138-7.051-65.388-20.391-31.065-21.5-49.612-56.868-49.612-94.609 0-63.411 51.589-115 115-115 2.762 0 5 2.239 5 5v105h105c2.762 0 5 2.238 5 5 0 52.499-35.469 98.301-86.253 111.382-9.339 2.401-19.01 3.618-28.747 3.618zm-5-219.882c-55.586 2.617-100 48.66-100 104.882 0 34.46 16.937 66.755 45.306 86.389 17.571 12.176 38.213 18.611 59.694 18.611 8.897 0 17.731-1.111 26.255-3.303 44.744-11.525 76.467-50.875 78.627-96.697h-104.882c-2.762 0-5-2.238-5-5z"/><circle cx="423.516" cy="86" fill="#cadbfd" r="35"/><path d="m423.516 126c-22.056 0-40-17.944-40-40s17.944-40 40-40 40 17.944 40 40-17.944 40-40 40zm0-70c-16.542 0-30 13.458-30 30s13.458 30 30 30 30-13.458 30-30-13.458-30-30-30z"/><circle cx="103.516" cy="431" fill="#cadbfd" r="25"/><path d="m103.516 461c-16.542 0-30-13.458-30-30s13.458-30 30-30 30 13.458 30 30-13.458 30-30 30zm0-50c-11.027 0-20 8.972-20 20s8.973 20 20 20 20-8.972 20-20-8.973-20-20-20z"/><circle cx="456.016" cy="183.5" r="7.5"/><circle cx="321.016" cy="53.5" r="7.5"/><circle cx="53.516" cy="58.5" r="7.5"/><circle cx="196.016" cy="458.5" r="7.5"/><circle cx="436.016" cy="398.5" r="7.5"/><circle cx="371.016" cy="453.5" r="7.5"/></g></g></svg>