<svg enable-background="new 0 0 512 512" height="512" viewBox="0 0 512 512" width="512" xmlns="http://www.w3.org/2000/svg"><g id="_x33_62_x2C__Cloud_x2C__Delete_x2C__Remove_x2C_"><g><g><g><path d="m75.829 198.249c-9.039-71.711 47.101-134.749 118.783-134.749 41.059 0 78.725 20.544 100.758 54.955 1.489 2.326.811 5.418-1.515 6.907s-5.417.812-6.907-1.515c-20.186-31.526-54.703-50.347-92.336-50.347-65.713 0-117.148 57.796-108.861 123.499.345 2.74-1.596 5.241-4.336 5.587-2.769.343-5.245-1.619-5.586-4.337z"/></g><path d="m397.668 353.5c-1.126 0-285.732-.051-286.114-.068-38.316-1.476-68.33-32.682-68.33-71.042 0-35.823 26.358-65.561 61.135-70.412-19.458-60.898 26.208-123.477 90.253-123.477 39.023 0 73.509 23.557 87.862 59.292 11.66-7.822 25.497-12.07 39.639-12.07 40.991 0 73.602 34.731 70.962 75.703 40.939-2.635 75.702 29.941 75.702 70.962 0 39.212-31.9 71.112-71.109 71.112z"/><path d="m111.844 343.435 285.823.065c33.696 0 61.109-27.414 61.109-61.111 0-37.302-33.349-66.167-70.577-60.378-3.341.518-6.229-2.361-5.709-5.71 5.799-37.212-23.078-70.577-60.378-70.577-14.164 0-27.97 4.956-38.874 13.955-2.718 2.241-6.863 1.043-7.944-2.331-11.278-35.198-43.702-58.847-80.683-58.847-59.664 0-100.833 60.449-78.73 116.008 1.27 3.189-.986 6.684-4.416 6.843-32.658 1.509-58.242 28.32-58.242 61.038 0 32.934 25.74 59.731 58.621 61.045z" fill="#e4f0fd"/><g><path d="m136.463 183.037c-2.762 0-5-2.239-5-5 0-32.829 26.708-59.537 59.537-59.537 2.762 0 5 2.239 5 5s-2.238 5-5 5c-27.314 0-49.537 22.222-49.537 49.537 0 2.761-2.238 5-5 5z"/></g></g><path d="m263.516 236v12.5h-35v-12.5c0-9.66 7.83-17.5 17.5-17.5 9.725 0 17.5 7.894 17.5 17.5z" fill="#384466"/><path d="m258.516 278.5h25v100h-25z" fill="#2a2b4c"/><path d="m208.516 278.5h25v100h-25z" fill="#2a2b4c"/><g fill="#384466"><path d="m283.516 278.5h25v100h-25z"/><path d="m233.516 278.5h25v100h-25z"/><path d="m208.516 278.5v100h-24.88-.12v-100z"/></g><path d="m308.516 378.5v12.5c0 12.43-10.07 22.5-22.5 22.5h-80c-12.43 0-22.5-10.07-22.5-22.5v-12.5h.12 24.88 25 25 25z" fill="#445f80"/><path d="m312.546 248.5c8.819 0 15.97 6.72 15.97 15 0 8.155-7.039 15-15.97 15-7.412 0-21.602 0-29.03 0-21.358 0-50.891 0-75 0h-25-4.029c-8.82 0-15.971-6.72-15.971-15 0-8.155 7.039-15 15.971-15z" fill="#445f80"/><path d="m183.516 283.5h-4.029c-11.563 0-20.971-8.972-20.971-20 0-11.202 9.551-20 20.971-20h49.029c2.762 0 5 2.239 5 5s-2.238 5-5 5h-49.029c-5.912 0-10.971 4.383-10.971 10 0 5.514 4.922 10 10.971 10h4.029c2.762 0 5 2.238 5 5s-2.238 5-5 5z"/><path d="m312.546 283.5h-4.03c-2.762 0-5-2.238-5-5s2.238-5 5-5h4.03c5.923 0 10.97-4.394 10.97-10 0-5.514-4.921-10-10.97-10h-49.03c-2.762 0-5-2.239-5-5s2.238-5 5-5h49.03c11.563 0 20.97 8.972 20.97 20 0 11.202-9.553 20-20.97 20z"/><path d="m263.516 253.5h-35c-2.762 0-5-2.239-5-5v-12.5c0-12.407 10.094-22.5 22.5-22.5 12.451 0 22.5 10.087 22.5 22.5v12.5c0 2.761-2.238 5-5 5zm-30-10h25v-7.5c0-6.876-5.561-12.5-12.5-12.5-6.893 0-12.5 5.607-12.5 12.5z"/><path d="m286.016 418.5h-80c-15.164 0-27.5-12.337-27.5-27.5v-112.5c0-2.762 2.238-5 5-5h125c2.762 0 5 2.238 5 5v112.5c0 15.163-12.337 27.5-27.5 27.5zm-97.5-135v107.5c0 9.649 7.851 17.5 17.5 17.5h80c9.649 0 17.5-7.851 17.5-17.5v-107.5z"/><path d="m308.516 383.5h-124.88c-2.761 0-5-2.238-5-5s2.239-5 5-5h124.88c2.762 0 5 2.238 5 5s-2.238 5-5 5z"/><path d="m258.516 383.5c-2.762 0-5-2.238-5-5v-100c0-2.762 2.238-5 5-5s5 2.238 5 5v100c0 2.762-2.238 5-5 5z"/><path d="m283.516 383.5c-2.762 0-5-2.238-5-5v-100c0-2.762 2.238-5 5-5s5 2.238 5 5v100c0 2.762-2.238 5-5 5z"/><path d="m233.516 383.5c-2.762 0-5-2.238-5-5v-100c0-2.762 2.238-5 5-5s5 2.238 5 5v100c0 2.762-2.238 5-5 5z"/><path d="m208.516 383.5c-2.762 0-5-2.238-5-5v-100c0-2.762 2.238-5 5-5s5 2.238 5 5v100c0 2.762-2.238 5-5 5z"/><circle cx="428.516" cy="103.5" fill="#cadbfd" r="30"/><path d="m428.516 138.5c-19.299 0-35-15.701-35-35s15.701-35 35-35 35 15.701 35 35-15.701 35-35 35zm0-60c-13.785 0-25 11.215-25 25s11.215 25 25 25 25-11.215 25-25-11.215-25-25-25z"/><circle cx="93.516" cy="428.5" fill="#cadbfd" r="25"/><path d="m93.516 458.5c-16.542 0-30-13.458-30-30s13.458-30 30-30 30 13.458 30 30-13.458 30-30 30zm0-50c-11.027 0-20 8.972-20 20s8.973 20 20 20 20-8.972 20-20-8.973-20-20-20z"/><circle cx="461.016" cy="396" r="7.5"/><circle cx="316.016" cy="61" r="7.5"/><circle cx="456.016" cy="191" r="7.5"/><circle cx="61.016" cy="111" r="7.5"/><circle cx="161.016" cy="436" r="7.5"/><circle cx="356.016" cy="441" r="7.5"/></g></g></svg>