<svg enable-background="new 0 0 512 512" height="512" viewBox="0 0 512 512" width="512" xmlns="http://www.w3.org/2000/svg"><g id="_x33_63_x2C__Cloud_x2C__Movie_x2C__Storage_x2C_"><g><g><g><path d="m75.829 198.249c-9.039-71.711 47.101-134.749 118.783-134.749 41.059 0 78.725 20.544 100.758 54.955 1.489 2.326.811 5.418-1.515 6.907s-5.417.812-6.907-1.515c-20.186-31.526-54.703-50.347-92.336-50.347-65.713 0-117.148 57.796-108.861 123.499.345 2.74-1.596 5.241-4.336 5.587-2.769.343-5.245-1.619-5.586-4.337z"/></g><path d="m397.668 353.5c-1.126 0-285.732-.051-286.114-.068-38.316-1.476-68.33-32.682-68.33-71.042 0-35.823 26.358-65.561 61.135-70.412-19.458-60.898 26.208-123.477 90.253-123.477 39.023 0 73.509 23.557 87.862 59.292 11.66-7.822 25.497-12.07 39.639-12.07 40.991 0 73.602 34.731 70.962 75.703 40.939-2.635 75.702 29.941 75.702 70.962 0 39.212-31.9 71.112-71.109 71.112z"/><path d="m111.844 343.435 285.823.065c33.696 0 61.109-27.414 61.109-61.111 0-37.302-33.349-66.167-70.577-60.378-3.341.518-6.229-2.361-5.709-5.71 5.799-37.212-23.078-70.577-60.378-70.577-14.164 0-27.97 4.956-38.874 13.955-2.718 2.241-6.863 1.043-7.944-2.331-11.278-35.198-43.702-58.847-80.683-58.847-59.664 0-100.833 60.449-78.73 116.008 1.27 3.189-.986 6.684-4.416 6.843-32.658 1.509-58.242 28.32-58.242 61.038 0 32.934 25.74 59.731 58.621 61.045z" fill="#e4f0fd"/><g><path d="m136.463 183.037c-2.762 0-5-2.239-5-5 0-32.829 26.708-59.537 59.537-59.537 2.762 0 5 2.239 5 5s-2.238 5-5 5c-27.314 0-49.537 22.222-49.537 49.537 0 2.761-2.238 5-5 5z"/></g></g><path d="m328.516 413.5v25h-20-10v-25z" fill="#384466"/><path d="m298.516 388.5h30v25h-30z" fill="#445f80"/><path d="m328.516 363.5v25h-30v-10-15z" fill="#384466"/><path d="m298.516 338.5h30v25h-30z" fill="#445f80"/><path d="m298.516 313.5h30v25h-30z" fill="#384466"/><path d="m328.516 288.5v25h-30v-15-10z" fill="#445f80"/><path d="m298.516 263.5h30v25h-30z" fill="#384466"/><path d="m298.516 238.5h30v25h-30z" fill="#445f80"/><path d="m298.516 363.5v15h-90v-15-25-25-15h90v15 25z" fill="#ff4c4c"/><path d="m298.516 413.5v25h-90v-25-25-10h90v10z" fill="#ff8848"/><path d="m298.516 298.5h-90c0-20.521 0-37.98 0-60h90z" fill="#ff8848"/><path d="m208.516 363.5v15 10h-30v-25z" fill="#384466"/><path d="m178.516 338.5h30v25h-30z" fill="#445f80"/><path d="m178.516 313.5h30v25h-30z" fill="#384466"/><path d="m208.516 298.5v15h-30v-25h30z" fill="#445f80"/><path d="m208.516 413.5v25h-10-20v-25z" fill="#384466"/><path d="m178.516 388.5h30v25h-30z" fill="#445f80"/><path d="m178.516 263.5h30v25h-30z" fill="#384466"/><path d="m178.516 238.5h30v25h-30z" fill="#445f80"/><path d="m328.516 443.5h-20c-2.762 0-5-2.238-5-5s2.238-5 5-5h15v-190h-140v190h15c2.762 0 5 2.238 5 5s-2.238 5-5 5h-20c-2.762 0-5-2.238-5-5v-200c0-2.761 2.238-5 5-5h150c2.762 0 5 2.239 5 5v200c0 2.762-2.238 5-5 5z"/><path d="m298.516 443.5h-90c-2.762 0-5-2.238-5-5s2.238-5 5-5h90c2.762 0 5 2.238 5 5s-2.238 5-5 5z"/><path d="m298.516 303.5h-90c-2.762 0-5-2.238-5-5s2.238-5 5-5h90c2.762 0 5 2.238 5 5s-2.238 5-5 5z"/><path d="m298.516 383.5h-90c-2.762 0-5-2.238-5-5s2.238-5 5-5h90c2.762 0 5 2.238 5 5s-2.238 5-5 5z"/><path d="m308.516 443.5h-10c-2.762 0-5-2.238-5-5v-200c0-2.761 2.238-5 5-5s5 2.239 5 5v195h5c2.762 0 5 2.238 5 5s-2.238 5-5 5z"/><path d="m328.516 418.5h-30c-2.762 0-5-2.238-5-5s2.238-5 5-5h30c2.762 0 5 2.238 5 5s-2.238 5-5 5z"/><path d="m328.516 393.5h-30c-2.762 0-5-2.238-5-5s2.238-5 5-5h30c2.762 0 5 2.238 5 5s-2.238 5-5 5z"/><path d="m328.516 368.5h-30c-2.762 0-5-2.238-5-5s2.238-5 5-5h30c2.762 0 5 2.238 5 5s-2.238 5-5 5z"/><path d="m328.516 343.5h-30c-2.762 0-5-2.238-5-5s2.238-5 5-5h30c2.762 0 5 2.238 5 5s-2.238 5-5 5z"/><path d="m328.516 318.5h-30c-2.762 0-5-2.238-5-5s2.238-5 5-5h30c2.762 0 5 2.238 5 5s-2.238 5-5 5z"/><path d="m328.516 293.5h-30c-2.762 0-5-2.238-5-5s2.238-5 5-5h30c2.762 0 5 2.238 5 5s-2.238 5-5 5z"/><path d="m328.516 268.5h-30c-2.762 0-5-2.238-5-5s2.238-5 5-5h30c2.762 0 5 2.238 5 5s-2.238 5-5 5z"/><path d="m208.516 443.5h-10c-2.762 0-5-2.238-5-5s2.238-5 5-5h5v-195c0-2.761 2.238-5 5-5s5 2.239 5 5v200c0 2.762-2.238 5-5 5z"/><path d="m208.516 418.5h-30c-2.762 0-5-2.238-5-5s2.238-5 5-5h30c2.762 0 5 2.238 5 5s-2.238 5-5 5z"/><path d="m208.516 393.5h-30c-2.762 0-5-2.238-5-5s2.238-5 5-5h30c2.762 0 5 2.238 5 5s-2.238 5-5 5z"/><path d="m208.516 368.5h-30c-2.762 0-5-2.238-5-5s2.238-5 5-5h30c2.762 0 5 2.238 5 5s-2.238 5-5 5z"/><path d="m208.516 343.5h-30c-2.762 0-5-2.238-5-5s2.238-5 5-5h30c2.762 0 5 2.238 5 5s-2.238 5-5 5z"/><path d="m208.516 318.5h-30c-2.762 0-5-2.238-5-5s2.238-5 5-5h30c2.762 0 5 2.238 5 5s-2.238 5-5 5z"/><path d="m208.516 293.5h-30c-2.762 0-5-2.238-5-5s2.238-5 5-5h30c2.762 0 5 2.238 5 5s-2.238 5-5 5z"/><path d="m208.516 268.5h-30c-2.762 0-5-2.238-5-5s2.238-5 5-5h30c2.762 0 5 2.238 5 5s-2.238 5-5 5z"/><circle cx="428.516" cy="93.5" fill="#cadbfd" r="35"/><path d="m428.516 133.5c-22.056 0-40-17.944-40-40s17.944-40 40-40 40 17.944 40 40-17.944 40-40 40zm0-70c-16.542 0-30 13.458-30 30s13.458 30 30 30 30-13.458 30-30-13.458-30-30-30z"/><circle cx="108.516" cy="428.5" fill="#cadbfd" r="25"/><path d="m108.516 458.5c-16.542 0-30-13.458-30-30s13.458-30 30-30 30 13.458 30 30-13.458 30-30 30zm0-50c-11.027 0-20 8.972-20 20s8.973 20 20 20 20-8.972 20-20-8.973-20-20-20z"/><circle cx="451.016" cy="171" r="7.5"/><circle cx="326.016" cy="66" r="7.5"/><circle cx="461.016" cy="396" r="7.5"/><circle cx="391.016" cy="451" r="7.5"/><circle cx="61.016" cy="76" r="7.5"/><circle cx="61.016" cy="381" r="7.5"/></g></g></svg>