<svg enable-background="new 0 0 512 512" height="512" viewBox="0 0 512 512" width="512" xmlns="http://www.w3.org/2000/svg"><g id="_x33_64_x2C__Computer_x2C__Computing_x2C__Syncronize_x2C_"><g><g><g><path d="m75.829 203.249c-9.039-71.711 47.101-134.749 118.783-134.749 41.059 0 78.725 20.544 100.758 54.955 1.489 2.326.811 5.418-1.515 6.907s-5.417.811-6.907-1.515c-20.186-31.526-54.703-50.347-92.336-50.347-65.713 0-117.148 57.796-108.861 123.499.345 2.74-1.596 5.241-4.336 5.587-2.769.343-5.245-1.619-5.586-4.337z"/></g><path d="m397.668 358.5c-1.126 0-285.732-.051-286.114-.068-38.316-1.476-68.33-32.682-68.33-71.042 0-35.823 26.358-65.561 61.135-70.412-19.458-60.898 26.208-123.477 90.253-123.477 39.023 0 73.509 23.557 87.862 59.292 11.66-7.822 25.497-12.07 39.639-12.07 40.991 0 73.602 34.731 70.962 75.703 40.939-2.635 75.702 29.941 75.702 70.962 0 39.212-31.9 71.112-71.109 71.112z"/><path d="m111.844 348.435 285.823.065c33.696 0 61.109-27.414 61.109-61.111 0-37.302-33.349-66.167-70.577-60.378-3.341.518-6.229-2.361-5.709-5.71 5.799-37.212-23.078-70.577-60.378-70.577-14.164 0-27.97 4.956-38.874 13.955-2.718 2.241-6.863 1.043-7.944-2.331-11.278-35.198-43.702-58.847-80.683-58.847-59.664 0-100.833 60.449-78.73 116.008 1.27 3.189-.986 6.684-4.416 6.843-32.658 1.509-58.242 28.32-58.242 61.038 0 32.934 25.74 59.731 58.621 61.045z" fill="#e4f0fd"/><g><path d="m136.463 188.037c-2.762 0-5-2.239-5-5 0-32.829 26.708-59.537 59.537-59.537 2.762 0 5 2.239 5 5s-2.238 5-5 5c-27.314 0-49.537 22.222-49.537 49.537 0 2.761-2.238 5-5 5z"/></g></g><circle cx="413.516" cy="103.5" fill="#cadbfd" r="25"/><path d="m413.516 133.5c-16.542 0-30-13.458-30-30s13.458-30 30-30 30 13.458 30 30-13.458 30-30 30zm0-50c-11.028 0-20 8.972-20 20s8.972 20 20 20 20-8.972 20-20-8.972-20-20-20z"/><circle cx="93.516" cy="443.5" fill="#cadbfd" r="30"/><path d="m93.516 478.5c-19.299 0-35-15.701-35-35s15.701-35 35-35 35 15.701 35 35-15.701 35-35 35zm0-60c-13.785 0-25 11.215-25 25s11.215 25 25 25 25-11.215 25-25-11.215-25-25-25z"/><circle cx="451.016" cy="176" r="7.5"/><circle cx="281.016" cy="41" r="7.5"/><circle cx="56.016" cy="141" r="7.5"/><circle cx="161.016" cy="466" r="7.5"/><circle cx="396.016" cy="446" r="7.5"/><path d="m368.516 383.5v13.83c0 8.93-7.24 16.17-16.17 16.17h-63.83-35-63.83c-8.93 0-16.17-7.24-16.17-16.17v-13.83z" fill="#445f80"/><path d="m352.346 278.5c8.93 0 16.17 7.24 16.17 16.17v88.83h-195v-88.83c0-8.93 7.24-16.17 16.17-16.17z" fill="#65cafd"/><path d="m253.516 413.5h35v40h-35z" fill="#384466"/><path d="m352.346 418.5h-63.83c-2.762 0-5-2.238-5-5s2.238-5 5-5h63.83c6.159 0 11.17-5.011 11.17-11.17v-102.66c0-6.159-5.011-11.17-11.17-11.17h-162.66c-6.159 0-11.17 5.011-11.17 11.17v102.66c0 6.159 5.011 11.17 11.17 11.17h63.83c2.762 0 5 2.238 5 5s-2.238 5-5 5h-63.83c-11.674 0-21.17-9.497-21.17-21.17v-102.66c0-11.673 9.496-21.17 21.17-21.17h162.66c11.673 0 21.17 9.497 21.17 21.17v102.66c0 11.673-9.497 21.17-21.17 21.17z"/><path d="m288.516 458.5c-2.762 0-5-2.238-5-5v-35h-25v35c0 2.762-2.238 5-5 5s-5-2.238-5-5v-40c0-2.762 2.238-5 5-5h35c2.762 0 5 2.238 5 5v40c0 2.762-2.238 5-5 5z"/><path d="m298.516 458.5h-55c-2.762 0-5-2.238-5-5s2.238-5 5-5h55c2.762 0 5 2.238 5 5s-2.238 5-5 5z"/><path d="m368.516 388.5h-195c-2.762 0-5-2.238-5-5s2.238-5 5-5h195c2.762 0 5 2.238 5 5s-2.238 5-5 5z"/><path d="m276.016 336c-1.279 0-2.56-.488-3.535-1.465-1.953-1.952-1.953-5.118 0-7.07l52.5-52.5c1.951-1.953 5.119-1.953 7.07 0 1.953 1.952 1.953 5.118 0 7.07l-52.5 52.5c-.975.977-2.256 1.465-3.535 1.465z"/><path d="m226.016 351c-1.279 0-2.559-.488-3.535-1.465-1.953-1.952-1.953-5.118 0-7.07l32.5-32.5c1.951-1.953 5.119-1.953 7.07 0 1.953 1.952 1.953 5.118 0 7.07l-32.5 32.5c-.976.977-2.256 1.465-3.535 1.465z"/></g></g></svg>