<svg enable-background="new 0 0 512 512" height="512" viewBox="0 0 512 512" width="512" xmlns="http://www.w3.org/2000/svg"><g id="_x33_65_x2C__Cloud_x2C__Media_x2C__Multimedia_x2C__Music"><g><g><g><path d="m75.829 195.749c-9.039-71.711 47.101-134.749 118.783-134.749 41.059 0 78.725 20.544 100.758 54.955 1.489 2.326.811 5.418-1.515 6.907s-5.417.812-6.907-1.515c-20.186-31.526-54.703-50.347-92.336-50.347-65.713 0-117.148 57.796-108.861 123.499.345 2.74-1.596 5.241-4.336 5.587-2.769.343-5.245-1.619-5.586-4.337z"/></g><path d="m397.668 351c-1.126 0-285.732-.051-286.114-.068-38.316-1.476-68.33-32.682-68.33-71.042 0-35.823 26.358-65.561 61.135-70.412-19.458-60.898 26.208-123.477 90.253-123.477 39.023 0 73.509 23.557 87.862 59.292 11.66-7.822 25.497-12.07 39.639-12.07 40.991 0 73.602 34.731 70.962 75.703 40.939-2.635 75.702 29.941 75.702 70.962 0 39.212-31.9 71.112-71.109 71.112z"/><path d="m111.844 340.935 285.824.065c33.696 0 61.109-27.414 61.109-61.111 0-37.302-33.349-66.167-70.577-60.378-3.341.518-6.229-2.361-5.709-5.71 5.799-37.212-23.078-70.577-60.378-70.577-14.164 0-27.97 4.956-38.874 13.955-2.718 2.241-6.863 1.043-7.944-2.331-11.278-35.198-43.702-58.847-80.683-58.847-59.664 0-100.833 60.449-78.73 116.008 1.27 3.189-.986 6.684-4.416 6.843-32.658 1.509-58.242 28.32-58.242 61.038-.001 32.934 25.739 59.731 58.62 61.045z" fill="#e4f0fd"/><g><path d="m136.463 180.537c-2.762 0-5-2.239-5-5 0-32.829 26.708-59.537 59.537-59.537 2.762 0 5 2.239 5 5s-2.238 5-5 5c-27.314 0-49.537 22.222-49.537 49.537 0 2.761-2.238 5-5 5z"/></g></g><path d="m258.516 236c60.75 0 110 49.25 110 110s-49.25 110-110 110-110-49.25-110-110 49.25-110 110-110z" fill="#384466"/><path d="m326.676 365.64s2.5-30.39-28.37-32.809c-28.85-2.271-29.79-18.98-29.79-21.16 0-.15 0-.229 0-.229v-41.242c.77 8.72 6.68 28.68 43.77 36.92 26.32 6.99 14.39 58.52 14.39 58.52z" fill="#00ce66"/><path d="m268.516 387.52v.011c-.01 16.64-16.63 28.47-37.01 28.47-20.391 0-37.99-11.83-37.99-28.48 0-16.64 17.6-31.52 37.99-31.52 20.38-.001 37.01 14.879 37.01 31.519z" fill="#00ce66"/><path d="m231.506 421c-24.106 0-42.99-14.706-42.99-33.48 0-19.454 20.089-36.52 42.99-36.52 22.771 0 42.01 16.724 42.01 36.52v.005.009c-.011 19.078-18.071 33.466-42.01 33.466zm0-60c-17.266 0-32.99 12.641-32.99 26.52 0 13.167 14.491 23.48 32.99 23.48 18.24 0 32.002-10.091 32.01-23.473 0-.001 0-.002 0-.003 0-.002 0-.003 0-.005 0-14.126-14.958-26.519-32.01-26.519z"/><path d="m268.516 392.524c-2.762 0-5-2.232-5-4.994v-75.86c0-2.762 2.238-5 5-5s5 2.238 5 5v75.85c0 2.761-2.238 5.004-5 5.004z"/><path d="m268.516 316.44c-2.762 0-5-2.238-5-5v-41.24c0-2.762 2.238-5 5-5s5 2.238 5 5v41.24c0 2.762-2.238 5-5 5z"/><path d="m268.513 275.2c-2.592 0-4.771-1.991-4.98-4.598-.077-.951-.116-1.84-.116-2.643 0-1.521.123-2.479.148-2.654.364-2.6 2.673-4.457 5.3-4.294 2.619.184 4.651 2.362 4.651 4.988v4.2c0 2.683-2.117 4.888-4.799 4.996-.068.004-.136.005-.204.005z"/><path d="m326.681 370.641c-.256 0-.516-.021-.775-.06-2.59-.404-4.428-2.738-4.213-5.351.004-.049.468-6.77-2.373-13.482-3.56-8.41-10.761-13.098-21.404-13.933-33.435-2.631-34.399-23.745-34.399-26.145v-.229c0-2.762 2.238-5 5-5s5 2.238 5 5v.229c0 1.453.707 14.249 25.183 16.176 10.558.827 18.841 4.689 24.619 11.476.349.41.684.824 1.005 1.244-.03-12.472-2.686-25.716-13.229-28.588-40.422-9.021-46.726-31.909-47.558-41.338-.243-2.751 1.79-5.178 4.541-5.42 2.739-.253 5.177 1.79 5.42 4.541.64 7.244 5.805 24.909 39.873 32.479.067.015.134.031.199.049 30.648 8.139 18.511 62.183 17.979 64.48-.533 2.295-2.578 3.872-4.868 3.872z"/><path d="m258.516 461c-63.411 0-115-51.589-115-115s51.589-115 115-115 115 51.589 115 115-51.589 115-115 115zm0-220c-57.896 0-105 47.103-105 105s47.104 105 105 105c57.897 0 105-47.103 105-105s-47.102-105-105-105z"/><circle cx="418.516" cy="101" fill="#cadbfd" r="25"/><path d="m418.516 131c-16.542 0-30-13.458-30-30s13.458-30 30-30 30 13.458 30 30-13.458 30-30 30zm0-50c-11.028 0-20 8.972-20 20s8.972 20 20 20 20-8.972 20-20-8.972-20-20-20z"/><circle cx="88.516" cy="426" fill="#cadbfd" r="25"/><path d="m88.516 456c-16.542 0-30-13.458-30-30s13.458-30 30-30 30 13.458 30 30-13.458 30-30 30zm0-50c-11.027 0-20 8.972-20 20s8.973 20 20 20 20-8.972 20-20-8.973-20-20-20z"/><circle cx="461.016" cy="373.5" r="7.5"/><circle cx="386.016" cy="443.5" r="7.5"/><circle cx="451.016" cy="168.5" r="7.5"/><circle cx="311.016" cy="58.5" r="7.5"/><circle cx="71.016" cy="73.5" r="7.5"/><circle cx="151.016" cy="448.5" r="7.5"/></g></g></svg>