<svg enable-background="new 0 0 512 512" height="512" viewBox="0 0 512 512" width="512" xmlns="http://www.w3.org/2000/svg"><g id="_x33_66_x2C__Cloud_x2C__Mail_x2C__Message_x2C__Invelop"><g><g><g><path d="m75.829 188.249c-9.039-71.711 47.101-134.749 118.783-134.749 41.059 0 78.725 20.544 100.758 54.955 1.489 2.326.811 5.418-1.515 6.907s-5.417.812-6.907-1.515c-20.186-31.526-54.703-50.347-92.336-50.347-65.713 0-117.148 57.796-108.861 123.499.345 2.74-1.596 5.241-4.336 5.587-2.769.343-5.245-1.619-5.586-4.337z"/></g><path d="m397.668 343.5c-1.126 0-285.732-.051-286.114-.068-38.316-1.476-68.33-32.682-68.33-71.042 0-35.823 26.358-65.561 61.135-70.412-19.458-60.898 26.208-123.477 90.253-123.477 39.023 0 73.509 23.557 87.862 59.292 11.66-7.822 25.497-12.07 39.639-12.07 40.991 0 73.602 34.731 70.962 75.703 40.939-2.635 75.702 29.941 75.702 70.962 0 39.212-31.9 71.112-71.109 71.112z"/><path d="m111.844 333.435 285.823.065c33.696 0 61.109-27.414 61.109-61.111 0-37.302-33.349-66.167-70.577-60.378-3.341.518-6.229-2.361-5.709-5.71 5.799-37.212-23.078-70.577-60.378-70.577-14.164 0-27.97 4.956-38.874 13.955-2.718 2.241-6.863 1.043-7.944-2.331-11.278-35.198-43.702-58.847-80.683-58.847-59.664 0-100.833 60.449-78.73 116.008 1.27 3.189-.986 6.684-4.416 6.843-32.658 1.509-58.242 28.32-58.242 61.038 0 32.934 25.74 59.731 58.621 61.045z" fill="#e4f0fd"/><g><path d="m136.463 173.037c-2.762 0-5-2.239-5-5 0-32.829 26.708-59.537 59.537-59.537 2.762 0 5 2.239 5 5s-2.238 5-5 5c-27.314 0-49.537 22.222-49.537 49.537 0 2.761-2.238 5-5 5z"/></g></g><g><path d="m193.516 393.5h-85c-2.762 0-5-2.238-5-5s2.238-5 5-5h85c2.762 0 5 2.238 5 5s-2.238 5-5 5z"/></g><g><path d="m178.516 368.5h-50c-2.762 0-5-2.238-5-5s2.238-5 5-5h50c2.762 0 5 2.238 5 5s-2.238 5-5 5z"/></g><path d="m203.516 318.5h-90c-2.762 0-5-2.238-5-5s2.238-5 5-5h90c2.762 0 5 2.238 5 5s-2.238 5-5 5z"/><g><path d="m193.516 288.5h-100c-2.762 0-5-2.238-5-5s2.238-5 5-5h100c2.762 0 5 2.238 5 5s-2.238 5-5 5z"/></g><path d="m418.516 273.5-20 120h-180l20-120 85 50z" fill="#4694e4"/><path d="m418.516 273.5-95 70-85-70z" fill="#65cafd"/><path d="m323.516 348.5c-1.13 0-2.258-.382-3.179-1.141l-85-70c-2.132-1.755-2.436-4.906-.681-7.038 1.755-2.131 4.905-2.438 7.038-.681l81.992 67.522 91.863-67.688c2.221-1.639 5.352-1.165 6.991 1.06 1.638 2.223 1.164 5.353-1.06 6.991l-95 70c-.882.652-1.924.975-2.964.975z"/><path d="m398.516 398.5h-180c-1.47 0-2.865-.647-3.814-1.769-.951-1.121-1.359-2.604-1.117-4.054l20-120c.401-2.411 2.487-4.178 4.932-4.178h180c1.47 0 2.865.647 3.815 1.769.949 1.121 1.358 2.604 1.116 4.054l-20 120c-.402 2.411-2.488 4.178-4.932 4.178zm-174.098-10h169.862l18.333-110h-169.861z"/><circle cx="433.516" cy="93.5" fill="#cadbfd" r="30"/><path d="m433.516 128.5c-19.299 0-35-15.701-35-35s15.701-35 35-35 35 15.701 35 35-15.701 35-35 35zm0-60c-13.785 0-25 11.215-25 25s11.215 25 25 25 25-11.215 25-25-11.215-25-25-25z"/><circle cx="78.516" cy="438.5" fill="#cadbfd" r="20"/><path d="m78.516 463.5c-13.785 0-25-11.215-25-25s11.215-25 25-25 25 11.215 25 25-11.215 25-25 25zm0-40c-8.271 0-15 6.728-15 15s6.729 15 15 15 15-6.728 15-15-6.728-15-15-15z"/><circle cx="326.016" cy="56" r="7.5"/><circle cx="456.016" cy="171" r="7.5"/><circle cx="461.016" cy="401" r="7.5"/><circle cx="276.016" cy="441" r="7.5"/><circle cx="61.016" cy="366" r="7.5"/><circle cx="66.016" cy="61" r="7.5"/></g></g></svg>