<svg enable-background="new 0 0 512 512" height="512" viewBox="0 0 512 512" width="512" xmlns="http://www.w3.org/2000/svg"><g id="_x33_67_x2C__Cloud_x2C__Config_x2C__Repair_x2C__Tool"><g><g><g><path d="m75.829 188.249c-9.039-71.711 47.101-134.749 118.783-134.749 41.059 0 78.725 20.544 100.758 54.955 1.489 2.326.811 5.418-1.515 6.907s-5.417.812-6.907-1.515c-20.186-31.526-54.703-50.347-92.336-50.347-65.713 0-117.148 57.796-108.861 123.499.345 2.74-1.596 5.241-4.336 5.587-2.769.343-5.245-1.619-5.586-4.337z"/></g><path d="m397.668 343.5c-1.126 0-285.732-.051-286.114-.068-38.316-1.476-68.33-32.682-68.33-71.042 0-35.823 26.358-65.561 61.135-70.412-19.458-60.898 26.208-123.477 90.253-123.477 39.023 0 73.509 23.557 87.862 59.292 11.66-7.822 25.497-12.07 39.639-12.07 40.991 0 73.602 34.731 70.962 75.703 40.939-2.635 75.702 29.941 75.702 70.962 0 39.212-31.9 71.112-71.109 71.112z"/><path d="m111.844 333.435 285.823.065c33.696 0 61.109-27.414 61.109-61.111 0-37.302-33.349-66.167-70.577-60.378-3.341.518-6.229-2.361-5.709-5.71 5.799-37.212-23.078-70.577-60.378-70.577-14.164 0-27.97 4.956-38.874 13.955-2.718 2.241-6.863 1.043-7.944-2.331-11.278-35.198-43.702-58.847-80.683-58.847-59.664 0-100.833 60.449-78.73 116.008 1.27 3.189-.986 6.684-4.416 6.843-32.658 1.509-58.242 28.32-58.242 61.038 0 32.934 25.74 59.731 58.621 61.045z" fill="#e4f0fd"/><g><path d="m136.463 173.037c-2.762 0-5-2.239-5-5 0-32.829 26.708-59.537 59.537-59.537 2.762 0 5 2.239 5 5s-2.238 5-5 5c-27.314 0-49.537 22.222-49.537 49.537 0 2.761-2.238 5-5 5z"/></g></g><path d="m188.516 233.5c0-22.55 13.58-41.92 33-50.41v50.41h44v-50.41c19.42 8.49 33 27.86 33 50.41 0 30.376-24.621 55-55 55-30.375 0-55-24.62-55-55z" fill="#4694e4"/><path d="m243.516 373.09c30.448 0 55 24.679 55 55 0 22.55-13.58 41.92-33 50.41v-50.41h-44v50.41c-19.42-8.49-33-27.86-33-50.41 0-30.329 24.563-55 55-55z" fill="#4694e4"/><path d="m268.516 282.5v96.58c-15.648-7.991-34.352-7.991-50 0v-96.58c15.62 7.998 34.353 8.012 50 0z" fill="#65cafd"/><path d="m218.516 384.09c-2.762 0-5-2.229-5-4.99v-96.6c0-2.762 2.238-5.01 5-5.01s5 2.229 5 4.99v96.6c0 2.762-2.238 5.01-5 5.01z"/><path d="m268.516 384.09c-2.762 0-5-2.229-5-4.99v-96.6c0-2.762 2.238-5.01 5-5.01s5 2.229 5 4.99v96.6c0 2.762-2.238 5.01-5 5.01z"/><path d="m243.516 293.5c-9.477 0-18.91-2.265-27.279-6.55-20.182-10.311-32.721-30.793-32.721-53.45 0-23.846 14.13-45.431 35.997-54.992 1.546-.675 3.329-.526 4.74.398 1.411.923 2.263 2.497 2.263 4.184v45.41h34v-45.41c0-1.687.851-3.261 2.263-4.184 1.412-.924 3.194-1.072 4.74-.398 21.867 9.561 35.997 31.146 35.997 54.992 0 22.655-12.538 43.137-32.722 53.45-8.368 4.285-17.801 6.55-27.278 6.55zm-27-102.082c-14.182 9.104-23 24.888-23 42.082 0 18.882 10.451 35.952 27.275 44.548 7.067 3.618 14.712 5.452 22.725 5.452s15.657-1.834 22.722-5.45c.001-.001.002-.002.003-.002 16.824-8.597 27.275-25.666 27.275-44.548 0-17.194-8.818-32.979-23-42.082v42.082c0 2.761-2.238 5-5 5h-44c-2.762 0-5-2.239-5-5z"/><path d="m265.516 483.5c-.958 0-1.911-.275-2.737-.815-1.412-.924-2.263-2.497-2.263-4.185v-45.41h-34v45.41c0 1.688-.852 3.261-2.263 4.185-1.411.923-3.194 1.072-4.74.396-21.867-9.56-35.997-31.146-35.997-54.991 0-22.651 12.539-43.137 32.723-53.461 8.378-4.278 17.809-6.539 27.277-6.539 9.469 0 18.899 2.261 27.274 6.537.001.001.002.001.003.002 20.184 10.325 32.723 30.81 32.723 53.461 0 23.846-14.13 45.432-35.997 54.991-.642.28-1.323.419-2.003.419zm-44-60.41h44c2.762 0 5 2.238 5 5v42.082c14.182-9.104 23-24.889 23-42.082 0-18.878-10.452-35.951-27.277-44.559-7.071-3.61-14.717-5.441-22.723-5.441-8.008 0-15.653 1.831-22.727 5.443-16.821 8.604-27.273 25.679-27.273 44.557 0 17.193 8.818 32.979 23 42.082v-42.082c0-2.762 2.238-5 5-5z"/><circle cx="428.516" cy="98.5" fill="#cadbfd" r="25"/><path d="m428.516 128.5c-16.542 0-30-13.458-30-30s13.458-30 30-30 30 13.458 30 30-13.458 30-30 30zm0-50c-11.028 0-20 8.972-20 20s8.972 20 20 20 20-8.972 20-20-8.972-20-20-20z"/><circle cx="103.516" cy="418.5" fill="#cadbfd" r="15"/><path d="m103.516 438.5c-11.027 0-20-8.972-20-20s8.973-20 20-20 20 8.972 20 20-8.973 20-20 20zm0-30c-5.514 0-10 4.486-10 10s4.486 10 10 10 10-4.486 10-10-4.486-10-10-10z"/><circle cx="446.016" cy="156" r="7.5"/><circle cx="306.016" cy="36" r="7.5"/><circle cx="66.016" cy="73.5" r="7.5"/><circle cx="151.016" cy="391" r="7.5"/><circle cx="446.016" cy="381" r="7.5"/><circle cx="371.016" cy="426" r="7.5"/></g></g></svg>