<svg enable-background="new 0 0 512 512" height="512" viewBox="0 0 512 512" width="512" xmlns="http://www.w3.org/2000/svg"><g id="_x33_68_x2C__Computing_x2C__Device_x2C__Mobile_x2C__Phone"><g><g><g><path d="m75.829 205.749c-9.039-71.711 47.101-134.749 118.783-134.749 41.059 0 78.725 20.544 100.758 54.955 1.489 2.326.811 5.418-1.515 6.907s-5.417.811-6.907-1.515c-20.186-31.526-54.703-50.347-92.336-50.347-65.713 0-117.148 57.796-108.861 123.499.345 2.74-1.596 5.241-4.336 5.587-2.769.343-5.245-1.619-5.586-4.337z"/></g><path d="m397.668 361c-1.126 0-285.732-.051-286.114-.068-38.316-1.476-68.33-32.682-68.33-71.042 0-35.823 26.358-65.561 61.135-70.412-19.458-60.898 26.208-123.477 90.253-123.477 39.023 0 73.509 23.557 87.862 59.292 11.66-7.822 25.497-12.07 39.639-12.07 40.991 0 73.602 34.731 70.962 75.703 40.939-2.635 75.702 29.941 75.702 70.962 0 39.212-31.9 71.112-71.109 71.112z"/><path d="m111.844 350.935 285.824.065c33.696 0 61.109-27.414 61.109-61.111 0-37.302-33.349-66.167-70.577-60.378-3.341.518-6.229-2.361-5.709-5.71 5.799-37.212-23.078-70.577-60.378-70.577-14.164 0-27.97 4.956-38.874 13.955-2.718 2.241-6.863 1.043-7.944-2.331-11.278-35.198-43.702-58.847-80.683-58.847-59.664 0-100.833 60.449-78.73 116.008 1.27 3.189-.986 6.684-4.416 6.843-32.658 1.509-58.242 28.32-58.242 61.038-.001 32.934 25.739 59.731 58.62 61.045z" fill="#e4f0fd"/><g><path d="m136.463 190.537c-2.762 0-5-2.239-5-5 0-32.829 26.708-59.537 59.537-59.537 2.762 0 5 2.239 5 5s-2.238 5-5 5c-27.314 0-49.537 22.222-49.537 49.537 0 2.761-2.238 5-5 5z"/></g></g><path d="m313.516 416v8.25c0 12.01-9.74 21.75-21.75 21.75h-86.5c-12.01 0-21.75-9.74-21.75-21.75v-8.25z" fill="#445f80"/><path d="m313.516 416h-130v-140h130z" fill="#65cafd"/><path d="m313.516 267.75v8.25h-130v-8.25c0-12.01 9.74-21.75 21.75-21.75h86.5c12.01 0 21.75 9.74 21.75 21.75z" fill="#445f80"/><path d="m291.766 451h-86.5c-14.75 0-26.75-12-26.75-26.75v-156.5c0-14.75 12-26.75 26.75-26.75h86.5c14.75 0 26.75 12 26.75 26.75v156.5c0 14.75-12 26.75-26.75 26.75zm-86.5-200c-9.236 0-16.75 7.514-16.75 16.75v156.5c0 9.236 7.514 16.75 16.75 16.75h86.5c9.236 0 16.75-7.514 16.75-16.75v-156.5c0-9.236-7.514-16.75-16.75-16.75z"/><path d="m313.516 281h-130c-2.762 0-5-2.238-5-5s2.238-5 5-5h130c2.762 0 5 2.238 5 5s-2.238 5-5 5z"/><path d="m313.516 421h-130c-2.762 0-5-2.238-5-5s2.238-5 5-5h130c2.762 0 5 2.238 5 5s-2.238 5-5 5z"/><path d="m258.516 361c-1.279 0-2.56-.488-3.535-1.465-1.953-1.952-1.953-5.118 0-7.07l55-55c1.951-1.953 5.119-1.953 7.07 0 1.953 1.952 1.953 5.118 0 7.07l-55 55c-.975.977-2.256 1.465-3.535 1.465z"/><path d="m223.516 366c-1.279 0-2.559-.488-3.535-1.465-1.953-1.952-1.953-5.118 0-7.07l45-45c1.951-1.953 5.119-1.953 7.07 0 1.953 1.952 1.953 5.118 0 7.07l-45 45c-.976.977-2.256 1.465-3.535 1.465z"/><circle cx="418.516" cy="106" fill="#cadbfd" r="20"/><path d="m418.516 131c-13.785 0-25-11.215-25-25s11.215-25 25-25 25 11.215 25 25-11.215 25-25 25zm0-40c-8.271 0-15 6.729-15 15s6.729 15 15 15c8.272 0 15-6.729 15-15s-6.728-15-15-15z"/><circle cx="113.516" cy="436" fill="#cadbfd" r="25"/><path d="m113.516 466c-16.542 0-30-13.458-30-30s13.458-30 30-30 30 13.458 30 30-13.458 30-30 30zm0-50c-11.027 0-20 8.972-20 20s8.973 20 20 20 20-8.972 20-20-8.973-20-20-20z"/><circle cx="311.016" cy="53.5" r="7.5"/><circle cx="446.016" cy="173.5" r="7.5"/><circle cx="451.016" cy="388.5" r="7.5"/><circle cx="376.016" cy="458.5" r="7.5"/><circle cx="61.016" cy="388.5" r="7.5"/><circle cx="71.016" cy="78.5" r="7.5"/></g></g></svg>