<svg enable-background="new 0 0 512 512" height="512" viewBox="0 0 512 512" width="512" xmlns="http://www.w3.org/2000/svg"><g id="_x33_69_x2C__Cloud_x2C__Reload_x2C__Refresh_x2C_"><g><g><g><path d="m75.829 200.749c-9.039-71.711 47.101-134.749 118.783-134.749 41.059 0 78.725 20.544 100.758 54.955 1.489 2.326.811 5.418-1.515 6.907s-5.417.811-6.907-1.515c-20.186-31.526-54.703-50.347-92.336-50.347-65.713 0-117.148 57.796-108.861 123.499.345 2.74-1.596 5.241-4.336 5.587-2.769.343-5.245-1.619-5.586-4.337z"/></g><path d="m397.668 356c-1.126 0-285.732-.051-286.114-.068-38.316-1.476-68.33-32.682-68.33-71.042 0-35.823 26.358-65.561 61.135-70.412-19.458-60.898 26.208-123.477 90.253-123.477 39.023 0 73.509 23.557 87.862 59.292 11.66-7.822 25.497-12.07 39.639-12.07 40.991 0 73.602 34.731 70.962 75.703 40.939-2.635 75.702 29.941 75.702 70.962 0 39.212-31.9 71.112-71.109 71.112z"/><path d="m111.844 345.935 285.824.065c33.696 0 61.109-27.414 61.109-61.111 0-37.302-33.349-66.167-70.577-60.378-3.341.518-6.229-2.361-5.709-5.71 5.799-37.212-23.078-70.577-60.378-70.577-14.164 0-27.97 4.956-38.874 13.955-2.718 2.241-6.863 1.043-7.944-2.331-11.278-35.198-43.702-58.847-80.683-58.847-59.664 0-100.833 60.449-78.73 116.008 1.27 3.189-.986 6.684-4.416 6.843-32.658 1.509-58.242 28.32-58.242 61.038-.001 32.934 25.739 59.731 58.62 61.045z" fill="#e4f0fd"/><g><path d="m136.463 185.537c-2.762 0-5-2.239-5-5 0-32.829 26.708-59.537 59.537-59.537 2.762 0 5 2.239 5 5s-2.238 5-5 5c-27.314 0-49.537 22.222-49.537 49.537 0 2.761-2.238 5-5 5z"/></g></g><path d="m350.596 247.63.88 68.96-64.18-6.91c1.568-1.537-11.5 11.273 63.3-62.05z" fill="#ff4c4c"/><path d="m321.476 376.21 23.91 24.38c-37.913 54.696-115.751 60.787-161.78 13.83-40.689-41.51-40.029-108.16 1.49-148.86 40.99-40.169 106.46-40.03 147.29-.069l-23.75 23.27c-27.96-26.85-72.399-26.779-100.271.54-28.41 27.851-28.859 73.45-1.02 101.851 33.547 34.231 90.601 26.672 114.131-14.942z" fill="#ff8848"/><path d="m351.476 321.59c-.178 0-.356-.01-.535-.028l-64.18-6.91c-1.923-.207-3.554-1.505-4.189-3.332-.634-1.827-.157-3.856 1.224-5.21l21.34-20.92c1.97-1.934 5.136-1.903 7.07.07 1.934 1.972 1.901 5.138-.07 7.07l-13.782 13.512 48.051 5.173-.659-51.624-9.858 9.669c-1.97 1.934-5.138 1.902-7.07-.068-1.934-1.972-1.903-5.137.068-7.07l18.21-17.861c1.429-1.402 3.556-1.816 5.407-1.053 1.851.764 3.067 2.557 3.094 4.559l.88 68.96c.018 1.43-.577 2.8-1.636 3.762-.925.841-2.127 1.301-3.365 1.301z"/><path d="m258.789 450.944c-28.608.001-57.194-11.03-78.753-33.024-42.561-43.417-41.86-113.368 1.561-155.931 20.736-20.321 48.143-31.513 77.169-31.513h.038c29 .01 56.374 11.176 77.08 31.441.961.94 1.503 2.228 1.503 3.572s-.541 2.632-1.501 3.572l-23.75 23.27c-1.931 1.893-5.014 1.906-6.962.035-26.286-25.241-67.269-25.019-93.308.504-26.392 25.873-26.817 68.391-.949 94.78 25.861 26.391 68.38 26.817 94.78.948 4.508-4.417 8.353-9.413 11.427-14.85.774-1.367 2.145-2.292 3.702-2.496 1.558-.211 3.121.336 4.22 1.456l23.91 24.38c1.681 1.713 1.907 4.378.54 6.35-3.976 5.735-8.526 11.132-13.526 16.04-21.427 20.999-49.316 31.465-77.181 31.466zm-.002-210.257c-25.423 0-50.841 9.48-70.19 28.444-39.482 38.702-40.119 102.31-1.42 141.789 38.698 39.478 102.305 40.116 141.79 1.419 3.567-3.501 6.885-7.277 9.896-11.261l-16.51-16.834c-2.824 4.12-6.058 7.971-9.657 11.497-30.338 29.728-79.198 29.237-108.92-1.091-29.728-30.327-29.239-79.188 1.091-108.921 14.395-14.11 33.424-21.928 53.581-22.013.11-.001.222-.001.332-.001 18.366 0 35.828 6.417 49.715 18.184l16.652-16.315c-18.802-16.599-42.582-24.897-66.36-24.897z"/><circle cx="428.516" cy="106" fill="#cadbfd" r="30"/><path d="m428.516 141c-19.299 0-35-15.701-35-35s15.701-35 35-35 35 15.701 35 35-15.701 35-35 35zm0-60c-13.785 0-25 11.215-25 25s11.215 25 25 25 25-11.215 25-25-11.215-25-25-25z"/><circle cx="108.516" cy="441" fill="#cadbfd" r="20"/><path d="m108.516 466c-13.785 0-25-11.215-25-25s11.215-25 25-25 25 11.215 25 25-11.215 25-25 25zm0-40c-8.271 0-15 6.728-15 15s6.729 15 15 15 15-6.728 15-15-6.728-15-15-15z"/><circle cx="451.016" cy="183.5" r="7.5"/><circle cx="311.016" cy="48.5" r="7.5"/><circle cx="66.016" cy="93.5" r="7.5"/><circle cx="161.016" cy="448.5" r="7.5"/><circle cx="456.016" cy="388.5" r="7.5"/><circle cx="373.516" cy="463.5" r="7.5"/></g></g></svg>