<svg enable-background="new 0 0 512 512" height="512" viewBox="0 0 512 512" width="512" xmlns="http://www.w3.org/2000/svg"><g id="_x33_70_x2C__Call_x2C__Cloud_x2C__Phone_x2C__Telephone"><g><g><g><path d="m75.829 188.249c-9.039-71.711 47.101-134.749 118.783-134.749 41.059 0 78.725 20.544 100.758 54.955 1.489 2.326.811 5.418-1.515 6.907s-5.417.812-6.907-1.515c-20.186-31.526-54.703-50.347-92.336-50.347-65.713 0-117.148 57.796-108.861 123.499.345 2.74-1.596 5.241-4.336 5.587-2.769.343-5.245-1.619-5.586-4.337z"/></g><path d="m397.668 343.5c-1.126 0-285.732-.051-286.114-.068-38.316-1.476-68.33-32.682-68.33-71.042 0-35.823 26.358-65.561 61.135-70.412-19.458-60.898 26.208-123.477 90.253-123.477 39.023 0 73.509 23.557 87.862 59.292 11.66-7.822 25.497-12.07 39.639-12.07 40.991 0 73.602 34.731 70.962 75.703 40.939-2.635 75.702 29.941 75.702 70.962 0 39.212-31.9 71.112-71.109 71.112z"/><path d="m111.844 333.435 285.823.065c33.696 0 61.109-27.414 61.109-61.111 0-37.302-33.349-66.167-70.577-60.378-3.341.518-6.229-2.361-5.709-5.71 5.799-37.212-23.078-70.577-60.378-70.577-14.164 0-27.97 4.956-38.874 13.955-2.718 2.241-6.863 1.043-7.944-2.331-11.278-35.198-43.702-58.847-80.683-58.847-59.664 0-100.833 60.449-78.73 116.008 1.27 3.189-.986 6.684-4.416 6.843-32.658 1.509-58.242 28.32-58.242 61.038 0 32.934 25.74 59.731 58.621 61.045z" fill="#e4f0fd"/><g><path d="m136.463 173.037c-2.762 0-5-2.239-5-5 0-32.829 26.708-59.537 59.537-59.537 2.762 0 5 2.239 5 5s-2.238 5-5 5c-27.314 0-49.537 22.222-49.537 49.537 0 2.761-2.238 5-5 5z"/></g></g><path d="m374.877 353.98c20.1 20.09 19.949 52.8-.351 73.09-62.35 62.35-271.56-147.851-209.699-209.7 20.289-20.3 53-20.45 73.09-.36 20.09 20.1 19.939 52.8-.351 73.101-1.47 1.46-4.38 4.229-5.97 5.46l64.7 64.71c1.26-1.57 4-4.511 5.47-5.971 20.29-20.3 53.02-20.43 73.111-.33z" fill="#65cafd"/><path d="m228.956 261.44c-1.279 0-2.559-.488-3.535-1.465l-31.931-31.94c-1.952-1.953-1.952-5.119.001-7.071 1.954-1.952 5.119-1.952 7.071.001l31.931 31.941c1.951 1.953 1.951 5.119-.002 7.071-.977.975-2.256 1.463-3.535 1.463z"/><path d="m365.836 398.32c-1.279 0-2.56-.488-3.535-1.465l-31.941-31.94c-1.953-1.952-1.953-5.118 0-7.07 1.951-1.953 5.119-1.953 7.07 0l31.94 31.94c1.953 1.952 1.953 5.118 0 7.07-.974.977-2.254 1.465-3.534 1.465z"/><path d="m344.468 443.469c-6.583 0-13.684-1.006-21.238-3.03-30.992-8.306-68.786-33.139-103.692-68.133-34.873-34.961-59.641-72.804-67.951-103.825-6.213-23.191-2.856-42.087 9.705-54.646 10.748-10.754 25.001-16.718 40.131-16.791.094 0 .188-.001.281-.001 15.039 0 29.146 5.829 39.748 16.431 21.996 22.007 21.839 57.971-.35 80.17-.541.538-1.336 1.312-2.217 2.144l57.198 57.208c.827-.88 1.602-1.68 2.159-2.233 10.737-10.743 24.994-16.702 40.132-16.768.084-.001.168-.001.253-.001 15.055 0 29.174 5.836 39.784 16.45.001.001.001.001.001.001 10.672 10.668 16.51 24.884 16.438 40.028-.072 15.13-6.035 29.383-16.791 40.133-8.535 8.537-19.943 12.862-33.591 12.863zm-142.766-236.426c-.078 0-.154 0-.231.001-12.476.061-24.233 4.983-33.107 13.861-10.032 10.031-12.427 25.167-7.116 44.989 7.755 28.948 32.192 66.088 65.371 99.35 33.205 33.289 70.289 57.788 99.201 65.536 19.851 5.319 35.046 2.881 45.172-7.244 8.879-8.876 13.801-20.633 13.86-33.108.059-12.456-4.738-24.144-13.51-32.91 0 0-.001-.001-.001-.002-8.72-8.723-20.331-13.52-32.715-13.52-.069 0-.138 0-.208.001-12.482.054-24.242 4.973-33.115 13.85-1.438 1.428-4.027 4.221-5.105 5.565-.89 1.108-2.208 1.786-3.628 1.863-1.41.075-2.804-.452-3.809-1.457l-64.699-64.71c-1.016-1.016-1.546-2.419-1.455-3.852.092-1.434.795-2.759 1.93-3.638 1.31-1.014 4.008-3.565 5.506-5.053 18.28-18.29 18.438-47.911.338-66.019-8.713-8.713-20.311-13.503-32.679-13.503z"/><circle cx="428.516" cy="88.5" fill="#cadbfd" r="25"/><path d="m428.516 118.5c-16.542 0-30-13.458-30-30s13.458-30 30-30 30 13.458 30 30-13.458 30-30 30zm0-50c-11.028 0-20 8.972-20 20s8.972 20 20 20 20-8.972 20-20-8.972-20-20-20z"/><circle cx="133.516" cy="418.5" fill="#cadbfd" r="20"/><path d="m133.516 443.5c-13.785 0-25-11.215-25-25s11.215-25 25-25 25 11.215 25 25-11.215 25-25 25zm0-40c-8.271 0-15 6.728-15 15s6.729 15 15 15 15-6.728 15-15-6.728-15-15-15z"/><circle cx="451.016" cy="171" r="7.5"/><circle cx="321.016" cy="61" r="7.5"/><circle cx="236.016" cy="451" r="7.5"/><circle cx="71.016" cy="371" r="7.5"/><circle cx="66.016" cy="81" r="7.5"/></g></g></svg>