<svg enable-background="new 0 0 512 512" height="512" viewBox="0 0 512 512" width="512" xmlns="http://www.w3.org/2000/svg"><g id="_x33_72_x2C__Rating_x2C__Cloud_x2C__Computing_x2C__Star"><g><g><g><path d="m75.829 195.749c-9.039-71.711 47.101-134.749 118.783-134.749 41.059 0 78.725 20.544 100.758 54.955 1.489 2.326.811 5.418-1.515 6.907s-5.417.812-6.907-1.515c-20.186-31.526-54.703-50.347-92.336-50.347-65.713 0-117.148 57.796-108.861 123.499.345 2.74-1.596 5.241-4.336 5.587-2.769.343-5.245-1.619-5.586-4.337z"/></g><path d="m397.668 351c-1.126 0-285.732-.051-286.114-.068-38.316-1.476-68.33-32.682-68.33-71.042 0-35.823 26.358-65.561 61.135-70.412-19.458-60.898 26.208-123.477 90.253-123.477 39.023 0 73.509 23.557 87.862 59.292 11.66-7.822 25.497-12.07 39.639-12.07 40.991 0 73.602 34.731 70.962 75.703 40.939-2.635 75.702 29.941 75.702 70.962 0 39.212-31.9 71.112-71.109 71.112z"/><path d="m111.844 340.935 285.824.065c33.696 0 61.109-27.414 61.109-61.111 0-37.302-33.349-66.167-70.577-60.378-3.341.518-6.229-2.361-5.709-5.71 5.799-37.212-23.078-70.577-60.378-70.577-14.164 0-27.97 4.956-38.874 13.955-2.718 2.241-6.863 1.043-7.944-2.331-11.278-35.198-43.702-58.847-80.683-58.847-59.664 0-100.833 60.449-78.73 116.008 1.27 3.189-.986 6.684-4.416 6.843-32.658 1.509-58.242 28.32-58.242 61.038-.001 32.934 25.739 59.731 58.62 61.045z" fill="#e4f0fd"/><g><path d="m136.463 180.537c-2.762 0-5-2.239-5-5 0-32.829 26.708-59.537 59.537-59.537 2.762 0 5 2.239 5 5s-2.238 5-5 5c-27.314 0-49.537 22.222-49.537 49.537 0 2.761-2.238 5-5 5z"/></g></g><circle cx="418.516" cy="101" fill="#cadbfd" r="25"/><path d="m418.516 131c-16.542 0-30-13.458-30-30s13.458-30 30-30 30 13.458 30 30-13.458 30-30 30zm0-50c-11.028 0-20 8.972-20 20s8.972 20 20 20 20-8.972 20-20-8.972-20-20-20z"/><circle cx="88.516" cy="426" fill="#cadbfd" r="25"/><path d="m88.516 456c-16.542 0-30-13.458-30-30s13.458-30 30-30 30 13.458 30 30-13.458 30-30 30zm0-50c-11.027 0-20 8.972-20 20s8.973 20 20 20 20-8.972 20-20-8.973-20-20-20z"/><circle cx="461.016" cy="373.5" r="7.5"/><circle cx="386.016" cy="443.5" r="7.5"/><circle cx="451.016" cy="168.5" r="7.5"/><circle cx="311.016" cy="58.5" r="7.5"/><circle cx="71.016" cy="73.5" r="7.5"/><circle cx="151.016" cy="448.5" r="7.5"/><path d="m258.516 236c60.75 0 110 49.25 110 110s-49.25 110-110 110-110-49.25-110-110 49.25-110 110-110z" fill="#384466"/><path d="m321.116 327.35-39.43 28.65 15.061 46.35-39.431-28.64-39.43 28.64 15.06-46.35-39.43-28.65h48.74l15.06-46.35 15.061 46.35z" fill="#fdd82e"/><path d="m258.516 461c-63.411 0-115-51.589-115-115s51.589-115 115-115 115 51.589 115 115-51.589 115-115 115zm0-220c-57.896 0-105 47.103-105 105s47.104 105 105 105c57.897 0 105-47.103 105-105s-47.102-105-105-105z"/><path d="m217.886 407.35c-1.032 0-2.063-.318-2.938-.955-1.753-1.273-2.486-3.53-1.816-5.59l13.938-42.895-36.492-26.515c-1.752-1.273-2.485-3.53-1.816-5.59.67-2.061 2.59-3.455 4.756-3.455h45.107l13.938-42.895c.669-2.061 2.589-3.455 4.755-3.455s4.086 1.395 4.755 3.455l13.938 42.895h45.106c2.166 0 4.086 1.395 4.755 3.455.67 2.06-.063 4.316-1.815 5.59l-36.491 26.515 13.938 42.895c.67 2.06-.064 4.316-1.816 5.59-1.752 1.273-4.126 1.272-5.878.001l-36.492-26.506-36.491 26.506c-.878.635-1.909.954-2.941.954zm39.43-38.64c1.031 0 2.063.318 2.939.954l26.982 19.599-10.306-31.718c-.67-2.059.064-4.316 1.815-5.59l26.982-19.605h-33.353c-2.166 0-4.086-1.395-4.755-3.455l-10.306-31.714-10.304 31.714c-.67 2.061-2.59 3.455-4.756 3.455h-33.354l26.982 19.605c1.752 1.273 2.486 3.53 1.816 5.59l-10.306 31.718 26.981-19.599c.88-.636 1.912-.954 2.943-.954z"/></g></g></svg>