<svg enable-background="new 0 0 512 512" height="512" viewBox="0 0 512 512" width="512" xmlns="http://www.w3.org/2000/svg"><g id="_x33_73_x2C__Cloud_x2C__Server_x2C__Storage_x2C_"><g><g><g><path d="m73.459 190.749c-9.039-71.711 47.102-134.749 118.783-134.749 41.059 0 78.725 20.544 100.758 54.955 1.489 2.326.811 5.418-1.515 6.907s-5.417.812-6.907-1.515c-20.185-31.526-54.703-50.347-92.336-50.347-65.713 0-117.148 57.796-108.861 123.499.345 2.74-1.596 5.241-4.336 5.587-2.769.343-5.244-1.619-5.586-4.337z"/></g><path d="m395.298 346c-1.126 0-285.732-.051-286.114-.068-38.316-1.476-68.33-32.682-68.33-71.042 0-35.823 26.358-65.561 61.135-70.412-19.458-60.898 26.208-123.477 90.253-123.477 39.023 0 73.509 23.557 87.862 59.292 11.66-7.822 25.497-12.07 39.639-12.07 40.991 0 73.602 34.731 70.962 75.703 40.939-2.635 75.702 29.941 75.702 70.962 0 39.212-31.899 71.112-71.109 71.112z"/><path d="m109.475 335.935 285.823.065c33.696 0 61.109-27.414 61.109-61.111 0-37.302-33.349-66.167-70.577-60.378-3.341.518-6.23-2.361-5.709-5.71 5.799-37.212-23.078-70.577-60.378-70.577-14.164 0-27.97 4.956-38.874 13.955-2.718 2.241-6.863 1.043-7.944-2.331-11.278-35.198-43.702-58.847-80.683-58.847-59.664 0-100.833 60.449-78.73 116.008 1.27 3.189-.986 6.684-4.416 6.843-32.658 1.509-58.242 28.32-58.242 61.038 0 32.934 25.74 59.731 58.621 61.045z" fill="#e4f0fd"/><g><path d="m134.094 175.537c-2.762 0-5-2.239-5-5 0-32.829 26.708-59.537 59.537-59.537 2.762 0 5 2.239 5 5s-2.238 5-5 5c-27.314 0-49.537 22.222-49.537 49.537 0 2.761-2.239 5-5 5z"/></g></g><path d="m351.147 326v60c-46.24 0-160.172 0-205 0v-60z" fill="#445f80"/><path d="m351.147 241v60c-46.24 0-160.172 0-205 0v-60z" fill="#445f80"/><circle cx="321.147" cy="271" fill="#fdd82e" r="10"/><circle cx="321.147" cy="356" fill="#fdd82e" r="10"/><path d="m176.146 386h145v25h-145z" fill="#2a2b4c"/><path d="m176.146 301h145v25h-145z" fill="#2a2b4c"/><circle cx="281.147" cy="271" fill="#00ce66" r="10"/><circle cx="281.147" cy="356" fill="#00ce66" r="10"/><path d="m176.146 391h-30c-2.762 0-5-2.238-5-5v-60c0-2.762 2.238-5 5-5h30c2.762 0 5 2.238 5 5s-2.238 5-5 5h-25v50h25c2.762 0 5 2.238 5 5s-2.238 5-5 5z"/><path d="m351.147 391h-30c-2.762 0-5-2.238-5-5s2.238-5 5-5h25v-50h-25c-2.762 0-5-2.238-5-5s2.238-5 5-5h30c2.762 0 5 2.238 5 5v60c0 2.762-2.239 5-5 5z"/><path d="m321.147 371c-8.272 0-15-6.728-15-15s6.728-15 15-15c8.271 0 15 6.728 15 15s-6.729 15-15 15zm0-20c-2.757 0-5 2.243-5 5s2.243 5 5 5 5-2.243 5-5-2.244-5-5-5z"/><path d="m281.147 371c-8.272 0-15-6.728-15-15s6.728-15 15-15c8.271 0 15 6.728 15 15s-6.729 15-15 15zm0-20c-2.757 0-5 2.243-5 5s2.243 5 5 5 5-2.243 5-5-2.244-5-5-5z"/><path d="m271.147 361h-105c-2.762 0-5-2.238-5-5s2.238-5 5-5h105c2.762 0 5 2.238 5 5s-2.239 5-5 5z"/><path d="m321.147 416h-145c-2.762 0-5-2.238-5-5v-25c0-2.762 2.238-5 5-5h145c2.762 0 5 2.238 5 5v25c0 2.762-2.239 5-5 5zm-140.001-10h135v-15h-135z"/><path d="m351.147 306h-30c-2.762 0-5-2.238-5-5s2.238-5 5-5h25v-50h-195v50h25c2.762 0 5 2.238 5 5s-2.238 5-5 5h-30c-2.762 0-5-2.238-5-5v-60c0-2.761 2.238-5 5-5h205c2.762 0 5 2.239 5 5v60c0 2.762-2.239 5-5 5z"/><path d="m321.147 286c-8.272 0-15-6.728-15-15s6.728-15 15-15c8.271 0 15 6.728 15 15s-6.729 15-15 15zm0-20c-2.757 0-5 2.243-5 5s2.243 5 5 5 5-2.243 5-5-2.244-5-5-5z"/><path d="m281.147 286c-8.272 0-15-6.728-15-15s6.728-15 15-15c8.271 0 15 6.728 15 15s-6.729 15-15 15zm0-20c-2.757 0-5 2.243-5 5s2.243 5 5 5 5-2.243 5-5-2.244-5-5-5z"/><path d="m271.147 276h-105c-2.762 0-5-2.238-5-5s2.238-5 5-5h105c2.762 0 5 2.238 5 5s-2.239 5-5 5z"/><path d="m321.147 331h-145c-2.762 0-5-2.238-5-5v-25c0-2.762 2.238-5 5-5h145c2.762 0 5 2.238 5 5v25c0 2.762-2.239 5-5 5zm-140.001-10h135v-15h-135z"/><circle cx="431.147" cy="96" fill="#cadbfd" r="25"/><path d="m431.147 126c-16.542 0-30-13.458-30-30s13.458-30 30-30 30 13.458 30 30-13.458 30-30 30zm0-50c-11.028 0-20 8.972-20 20s8.972 20 20 20 20-8.972 20-20-8.972-20-20-20z"/><circle cx="86.146" cy="431" fill="#cadbfd" r="30"/><path d="m86.146 466c-19.299 0-35-15.701-35-35s15.701-35 35-35 35 15.701 35 35-15.701 35-35 35zm0-60c-13.785 0-25 11.215-25 25s11.215 25 25 25 25-11.215 25-25-11.214-25-25-25z"/><circle cx="448.647" cy="173.5" r="7.5"/><circle cx="463.647" cy="368.5" r="7.5"/><circle cx="313.647" cy="53.5" r="7.5"/><circle cx="63.646" cy="78.5" r="7.5"/><circle cx="383.647" cy="453.5" r="7.5"/><circle cx="158.646" cy="453.5" r="7.5"/></g></g></svg>