<svg enable-background="new 0 0 512 512" height="512" viewBox="0 0 512 512" width="512" xmlns="http://www.w3.org/2000/svg"><g id="_x33_74_x2C__Cloud_x2C__Minus_x2C__Remove_x2C__Delete"><g><g><g><path d="m75.813 190.749c-9.04-71.711 47.101-134.749 118.783-134.749 41.059 0 78.725 20.544 100.758 54.955 1.489 2.326.811 5.418-1.515 6.907s-5.417.812-6.907-1.515c-20.186-31.526-54.703-50.347-92.336-50.347-65.713 0-117.148 57.796-108.861 123.499.345 2.74-1.596 5.241-4.336 5.587-2.769.343-5.245-1.619-5.586-4.337z"/></g><path d="m397.651 346c-1.126 0-285.732-.051-286.114-.068-38.316-1.476-68.33-32.682-68.33-71.042 0-35.823 26.358-65.561 61.135-70.412-19.457-60.898 26.209-123.477 90.254-123.477 39.023 0 73.509 23.557 87.862 59.292 11.66-7.822 25.497-12.07 39.639-12.07 40.991 0 73.602 34.731 70.962 75.703 40.939-2.635 75.702 29.941 75.702 70.962 0 39.212-31.9 71.112-71.11 71.112z"/><path d="m111.828 335.935 285.823.065c33.696 0 61.109-27.414 61.109-61.111 0-37.302-33.349-66.167-70.577-60.378-3.341.518-6.229-2.361-5.709-5.71 5.799-37.212-23.078-70.577-60.378-70.577-14.164 0-27.97 4.956-38.874 13.955-2.718 2.241-6.863 1.043-7.944-2.331-11.278-35.199-43.702-58.847-80.682-58.847-59.664 0-100.833 60.449-78.731 116.008 1.27 3.189-.986 6.684-4.416 6.843-32.658 1.509-58.242 28.32-58.242 61.038 0 32.934 25.74 59.731 58.621 61.045z" fill="#e4f0fd"/><g><path d="m136.447 175.537c-2.762 0-5-2.239-5-5 0-32.829 26.708-59.537 59.537-59.537 2.762 0 5 2.239 5 5s-2.238 5-5 5c-27.314 0-49.537 22.222-49.537 49.537 0 2.761-2.238 5-5 5z"/></g></g><circle cx="471" cy="363.5" r="7.5"/><circle cx="386" cy="423.5" r="7.5"/><circle cx="451" cy="173.5" r="7.5"/><circle cx="321" cy="58.5" r="7.5"/><circle cx="41" cy="63.5" r="7.5"/><circle cx="181" cy="453.5" r="7.5"/><circle cx="428.5" cy="91" fill="#cadbfd" r="35"/><path d="m428.5 131c-22.056 0-40-17.944-40-40s17.944-40 40-40 40 17.944 40 40-17.944 40-40 40zm0-70c-16.542 0-30 13.458-30 30s13.458 30 30 30 30-13.458 30-30-13.458-30-30-30z"/><circle cx="108.5" cy="421" fill="#cadbfd" r="25"/><path d="m108.5 451c-16.542 0-30-13.458-30-30s13.458-30 30-30 30 13.458 30 30-13.458 30-30 30zm0-50c-11.027 0-20 8.972-20 20s8.973 20 20 20 20-8.972 20-20-8.973-20-20-20z"/><path d="m253.5 251c49.71 0 90 40.29 90 90s-40.29 90-90 90-90-40.29-90-90 40.29-90 90-90z" fill="#384466"/><path d="m288.5 321c11.05 0 20 8.95 20 20 0 11.04-8.96 20-20 20h-70c-11.05 0-20-8.95-20-20 0-11.04 8.959-20 20-20z" fill="#00ce66"/><path d="m253.5 436c-52.383 0-95-42.617-95-95s42.617-95 95-95 95 42.617 95 95-42.617 95-95 95zm0-180c-46.869 0-85 38.131-85 85s38.131 85 85 85 85-38.131 85-85-38.131-85-85-85z"/><path d="m288.5 366h-70c-13.785 0-25-11.215-25-25 0-6.674 2.602-12.951 7.324-17.675 4.724-4.724 11.001-7.325 17.676-7.325h70c13.785 0 25 11.215 25 25 0 6.675-2.602 12.952-7.325 17.675s-11 7.325-17.675 7.325zm-70-40c-4.004 0-7.77 1.561-10.605 4.396s-4.395 6.602-4.395 10.604c0 8.272 6.729 15 15 15h70c4.004 0 7.77-1.561 10.604-4.396s4.396-6.601 4.396-10.604c0-8.272-6.728-15-15-15z"/></g></g></svg>