<svg enable-background="new 0 0 512 512" height="512" viewBox="0 0 512 512" width="512" xmlns="http://www.w3.org/2000/svg"><g id="_x33_75_x2C__Block_x2C__Cloud_x2C__Stop_x2C__Error"><g><g><g><path d="m75.829 195.749c-9.039-71.711 47.101-134.749 118.783-134.749 41.059 0 78.725 20.544 100.758 54.955 1.489 2.326.811 5.418-1.515 6.907s-5.417.812-6.907-1.515c-20.186-31.526-54.703-50.347-92.336-50.347-65.713 0-117.148 57.796-108.861 123.499.345 2.74-1.596 5.241-4.336 5.587-2.769.343-5.245-1.619-5.586-4.337z"/></g><path d="m397.668 351c-.222 0-11.42-.002-29.269-.005l-57.383-85.601h-111.5l-50.884 85.553c-22.466-.006-36.993-.012-37.079-.016-38.316-1.476-68.33-32.682-68.33-71.042 0-35.823 26.358-65.561 61.135-70.412-19.457-60.897 26.209-123.476 90.254-123.476 39.023 0 73.509 23.557 87.862 59.292 11.66-7.822 25.497-12.07 39.639-12.07 40.991 0 73.602 34.731 70.962 75.703 40.939-2.635 75.702 29.941 75.702 70.962 0 39.212-31.9 71.112-71.109 71.112z"/><path d="m111.844 340.935 46.672.011 42.01-82.438 110.49 6.886 43 75.596 43.651.01c33.696 0 61.109-27.414 61.109-61.111 0-37.302-33.349-66.167-70.577-60.378-3.341.518-6.229-2.361-5.709-5.71 5.799-37.212-23.078-70.577-60.378-70.577-14.164 0-27.97 4.956-38.874 13.955-2.718 2.241-6.863 1.043-7.944-2.331-11.278-35.198-43.702-58.847-80.683-58.847-59.664 0-100.833 60.449-78.73 116.008 1.27 3.189-.986 6.684-4.416 6.843-32.658 1.509-58.242 28.32-58.242 61.038 0 32.934 25.74 59.731 58.621 61.045z" fill="#e4f0fd"/><g><path d="m136.463 180.537c-2.762 0-5-2.239-5-5 0-32.829 26.708-59.537 59.537-59.537 2.762 0 5 2.239 5 5s-2.238 5-5 5c-27.314 0-49.537 22.222-49.537 49.537 0 2.761-2.238 5-5 5z"/></g></g><path d="m258.516 236c60.75 0 110 49.25 110 110s-49.25 110-110 110-110-49.25-110-110 49.25-110 110-110zm63.33 151.44c19.25-29.351 15.97-69.15-9.83-94.94-25.79-25.8-65.59-29.08-94.939-9.83zm-21.889 21.89-104.771-104.77c-19.25 29.351-15.97 69.15 9.83 94.94 25.79 25.8 65.59 29.08 94.941 9.83z" fill="#ff8848"/><path d="m258.516 461c-63.411 0-115-51.589-115-115s51.589-115 115-115 115 51.589 115 115-51.589 115-115 115zm0-220c-57.896 0-105 47.103-105 105s47.104 105 105 105c57.897 0 105-47.103 105-105s-47.102-105-105-105z"/><path d="m258.664 426.605c-20.891.001-41.651-8.032-57.184-23.57-26.899-26.89-31.306-69.458-10.476-101.218.826-1.258 2.174-2.078 3.67-2.232 1.5-.154 2.984.375 4.047 1.439l104.771 104.77c1.064 1.064 1.593 2.55 1.438 4.047-.153 1.496-.974 2.844-2.231 3.669-13.414 8.799-28.761 13.094-44.035 13.095zm-62.468-113.965c-14.512 27.102-9.733 61.244 12.355 83.324 0 0 0 .001.001.001 22.081 22.09 56.221 26.87 83.324 12.355z"/><path d="m321.846 392.44c-1.319 0-2.593-.522-3.535-1.465l-104.77-104.77c-1.063-1.064-1.592-2.55-1.438-4.047.154-1.496.974-2.844 2.232-3.669 31.76-20.83 74.328-16.424 101.218 10.476l-.001-.001c26.9 26.891 31.306 69.459 10.475 101.219-.825 1.258-2.173 2.078-3.669 2.232-.171.017-.342.025-.512.025zm-96.689-108.76 95.68 95.681c14.513-27.102 9.733-61.244-12.355-83.324l-.001-.001c-22.08-22.09-56.223-26.87-83.324-12.356z"/><circle cx="418.516" cy="101" fill="#cadbfd" r="25"/><path d="m418.516 131c-16.542 0-30-13.458-30-30s13.458-30 30-30 30 13.458 30 30-13.458 30-30 30zm0-50c-11.028 0-20 8.972-20 20s8.972 20 20 20 20-8.972 20-20-8.972-20-20-20z"/><circle cx="88.516" cy="426" fill="#cadbfd" r="25"/><path d="m88.516 456c-16.542 0-30-13.458-30-30s13.458-30 30-30 30 13.458 30 30-13.458 30-30 30zm0-50c-11.027 0-20 8.972-20 20s8.973 20 20 20 20-8.972 20-20-8.973-20-20-20z"/><circle cx="461.016" cy="373.5" r="7.5"/><circle cx="386.016" cy="443.5" r="7.5"/><circle cx="451.016" cy="168.5" r="7.5"/><circle cx="311.016" cy="58.5" r="7.5"/><circle cx="71.016" cy="73.5" r="7.5"/><circle cx="151.016" cy="448.5" r="7.5"/></g></g></svg>