<svg enable-background="new 0 0 512 512" height="512" viewBox="0 0 512 512" width="512" xmlns="http://www.w3.org/2000/svg"><g id="_x33_77_x2C__Cloud_x2C__Internet_x2C__Technology_x2C__Wifi"><g><g><g><path d="m75.829 188.249c-9.039-71.711 47.101-134.749 118.783-134.749 41.059 0 78.725 20.544 100.758 54.955 1.489 2.326.811 5.418-1.515 6.907s-5.417.812-6.907-1.515c-20.186-31.526-54.703-50.347-92.336-50.347-65.713 0-117.148 57.796-108.861 123.499.345 2.74-1.596 5.241-4.336 5.587-2.769.343-5.245-1.619-5.586-4.337z"/></g><path d="m397.668 343.5c-1.126 0-285.732-.051-286.114-.068-38.316-1.476-68.33-32.682-68.33-71.042 0-35.823 26.358-65.561 61.135-70.412-19.458-60.898 26.208-123.477 90.253-123.477 39.023 0 73.509 23.557 87.862 59.292 11.66-7.822 25.497-12.07 39.639-12.07 40.991 0 73.602 34.731 70.962 75.703 40.939-2.635 75.702 29.941 75.702 70.962 0 39.212-31.9 71.112-71.109 71.112z"/><path d="m111.844 333.435 285.823.065c33.696 0 61.109-27.414 61.109-61.111 0-37.302-33.349-66.167-70.577-60.378-3.341.518-6.229-2.361-5.709-5.71 5.799-37.212-23.078-70.577-60.378-70.577-14.164 0-27.97 4.956-38.874 13.955-2.718 2.241-6.863 1.043-7.944-2.331-11.278-35.198-43.702-58.847-80.683-58.847-59.664 0-100.833 60.449-78.73 116.008 1.27 3.189-.986 6.684-4.416 6.843-32.658 1.509-58.242 28.32-58.242 61.038 0 32.934 25.74 59.731 58.621 61.045z" fill="#e4f0fd"/><g><path d="m136.463 173.037c-2.762 0-5-2.239-5-5 0-32.829 26.708-59.537 59.537-59.537 2.762 0 5 2.239 5 5s-2.238 5-5 5c-27.314 0-49.537 22.222-49.537 49.537 0 2.761-2.238 5-5 5z"/></g></g><path d="m263.516 213.5c69.04 0 125 55.96 125 125s-55.96 125-125 125-125-55.96-125-125 55.96-125 125-125z" fill="#384466"/><path d="m357.686 317.57c5.08 4.29 5.34 12.04.64 16.75h-.01c-4.17 4.18-10.87 4.51-15.39.699-45.26-38.22-111.801-38.22-157.07 0-4.51 3.811-11.21 3.48-15.39-.699-4.704-4.704-4.446-12.476.63-16.75 53.77-45.43 132.83-45.43 186.59 0z" fill="#65cafd"/><path d="m324.766 349.72c5.44 4.2 5.91 12.24 1.05 17.101-4.007 4.007-10.393 4.549-14.96 1.04-27.31-21.061-65.619-21.061-92.93 0-4.51 3.479-10.93 2.989-14.96-1.04-4.839-4.838-4.394-12.879 1.06-17.101 35.48-27.35 85.25-27.35 120.74 0z" fill="#4694e4"/><path d="m290.426 381.69c6.6 3.699 7.83 12.69 2.479 18.05-3.67 3.67-9.276 4.309-13.8 1.81-9.13-5.04-20.3-5.04-29.43 0-4.53 2.5-10.131 1.851-13.79-1.81-5.365-5.342-4.136-14.357 2.47-18.05 16.131-9.03 35.951-9.03 52.071 0z" fill="#3e6dca"/><path d="m243.891 408.068c-4.241 0-8.386-1.638-11.541-4.793-3.107-3.094-4.824-7.222-4.824-11.615 0-5.947 3.214-11.439 8.388-14.333 17.57-9.835 39.395-9.836 56.956.001 4.519 2.532 7.517 6.929 8.228 12.063.713 5.146-.983 10.205-4.653 13.882-3.082 3.082-7.189 4.777-11.568 4.777-2.842 0-5.673-.734-8.188-2.123-7.585-4.188-17.011-4.187-24.597 0-2.606 1.438-5.424 2.141-8.201 2.141zm20.504-28.128c-8.159 0-16.317 2.037-23.597 6.113-.001 0-.001.001-.003.001-2.047 1.145-3.27 3.24-3.27 5.605 0 1.714.67 3.324 1.888 4.536 2.048 2.049 5.198 2.438 7.847.976 10.567-5.833 23.695-5.832 34.262.001 1.04.574 2.199.877 3.354.877 1.708 0 3.304-.655 4.494-1.845 1.437-1.44 2.102-3.424 1.822-5.442-.278-2.006-1.449-3.723-3.211-4.711-7.271-4.073-15.429-6.111-23.586-6.111zm-26.039 1.75h.01z"/><path d="m317.696 375.19c-3.55 0-7.061-1.195-9.886-3.365-25.567-19.717-61.271-19.717-86.831-.006-6.463 4.985-15.727 4.357-21.548-1.463-3.105-3.105-4.815-7.234-4.815-11.626 0-5.115 2.314-9.841 6.35-12.964.002-.003.006-.005.008-.007 37.338-28.782 89.499-28.78 126.845-.001 3.719 2.871 6.022 7.209 6.323 11.902.303 4.722-1.443 9.349-4.79 12.694-3.118 3.12-7.258 4.836-11.656 4.836zm-53.305-28.152c17.471 0 34.94 5.621 49.519 16.863 1.096.841 2.407 1.289 3.786 1.289 1.727 0 3.355-.677 4.585-1.905 1.313-1.314 1.999-3.131 1.881-4.984-.119-1.853-.989-3.495-2.451-4.623-33.746-26.007-80.886-26.006-114.628-.001-1.568 1.216-2.467 3.058-2.467 5.054 0 1.721.67 3.338 1.887 4.555 2.276 2.276 5.875 2.543 8.369.616 14.579-11.243 32.049-16.864 49.519-16.864z"/><path d="m178.581 342.648c-4.236 0-8.471-1.613-11.65-4.793-3.111-3.111-4.824-7.247-4.824-11.646 0-4.832 2.1-9.372 5.764-12.459 26.906-22.733 61.187-35.254 96.525-35.254s69.616 12.521 96.519 35.254c3.462 2.924 5.559 7.209 5.753 11.757.195 4.591-1.555 9.091-4.802 12.345-.073.073-.149.145-.228.214-5.99 5.783-15.566 6.146-21.934.775-43.636-36.848-106.979-36.848-150.622-.002-3.017 2.55-6.761 3.808-10.501 3.809zm85.814-41.294c29.932 0 58.967 10.6 81.757 29.845 2.501 2.108 6.291 1.928 8.624-.41.048-.048.097-.095.146-.141 1.207-1.282 1.828-2.948 1.753-4.716-.076-1.787-.863-3.4-2.215-4.542-52.186-44.101-127.944-44.1-180.138-.001-.002.002-.004.004-.007.006-1.425 1.2-2.21 2.909-2.21 4.814 0 1.728.674 3.353 1.896 4.575 2.341 2.342 6.131 2.524 8.627.415 22.798-19.245 51.835-29.845 81.767-29.845zm-93.299 16.216h.01z"/><path d="m263.516 468.5c-71.682 0-130-58.317-130-130s58.318-130 130-130c71.683 0 130 58.317 130 130s-58.317 130-130 130zm0-250c-66.168 0-120 53.832-120 120s53.832 120 120 120 120-53.832 120-120-53.832-120-120-120z"/><circle cx="428.516" cy="98.5" fill="#cadbfd" r="30"/><path d="m428.516 133.5c-19.299 0-35-15.701-35-35s15.701-35 35-35 35 15.701 35 35-15.701 35-35 35zm0-60c-13.785 0-25 11.215-25 25s11.215 25 25 25 25-11.215 25-25-11.215-25-25-25z"/><circle cx="78.516" cy="428.5" fill="#cadbfd" r="25"/><path d="m78.516 458.5c-16.542 0-30-13.458-30-30s13.458-30 30-30 30 13.458 30 30-13.458 30-30 30zm0-50c-11.027 0-20 8.972-20 20s8.973 20 20 20 20-8.972 20-20-8.973-20-20-20z"/><circle cx="326.016" cy="51" r="7.5"/><circle cx="446.016" cy="176" r="7.5"/><circle cx="431.016" cy="416" r="7.5"/><circle cx="146.016" cy="446" r="7.5"/><circle cx="71.016" cy="76" r="7.5"/></g></g></svg>