<svg enable-background="new 0 0 512 512" height="512" viewBox="0 0 512 512" width="512" xmlns="http://www.w3.org/2000/svg"><g id="_x33_78_x2C__Cloud_x2C__Computing_x2C__Search_x2C__Find"><g><g><g><path d="m75.813 187.28c-9.039-71.711 47.102-134.75 118.783-134.75 41.059 0 78.725 20.544 100.758 54.955 1.489 2.326.811 5.418-1.515 6.907s-5.417.812-6.907-1.515c-20.186-31.526-54.703-50.347-92.336-50.347-65.713 0-117.148 57.796-108.861 123.498.345 2.74-1.596 5.241-4.336 5.587-2.769.344-5.245-1.618-5.586-4.335z"/></g><path d="m397.651 342.53c-1.126 0-285.732-.051-286.114-.068-38.316-1.475-68.33-32.682-68.33-71.042 0-35.823 26.358-65.561 61.135-70.413-19.457-60.897 26.209-123.476 90.254-123.476 39.023 0 73.509 23.557 87.862 59.292 11.66-7.822 25.497-12.07 39.639-12.07 40.991 0 73.602 34.731 70.962 75.703 40.939-2.635 75.702 29.941 75.702 70.962 0 39.212-31.9 71.112-71.11 71.112z"/><path d="m111.828 332.466 285.823.064c33.696 0 61.109-27.414 61.109-61.111 0-37.302-33.349-66.166-70.577-60.378-3.341.519-6.229-2.361-5.709-5.71 5.799-37.212-23.078-70.577-60.378-70.577-14.164 0-27.97 4.956-38.874 13.955-2.718 2.241-6.863 1.044-7.944-2.331-11.278-35.198-43.702-58.847-80.682-58.847-59.664 0-100.833 60.449-78.731 116.008 1.27 3.189-.986 6.684-4.416 6.843-32.658 1.509-58.242 28.32-58.242 61.038 0 32.934 25.74 59.731 58.621 61.046z" fill="#e4f0fd"/><g><path d="m136.447 172.067c-2.762 0-5-2.239-5-5 0-32.829 26.708-59.537 59.537-59.537 2.762 0 5 2.239 5 5s-2.238 5-5 5c-27.314 0-49.537 22.222-49.537 49.537 0 2.762-2.238 5-5 5z"/></g></g><path d="m397.22 427.75c8.4 8.4 8.4 22.03 0 30.431-8.399 8.399-22.029 8.399-30.43 0l-38.62-38.62c-8.4-8.4-8.4-22.03 0-30.431 8.41-8.39 22.021-8.409 30.43 0z" fill="#384466"/><path d="m307.11 236.99c36.189 36.2 36.189 94.88 0 131.08-36.2 36.19-94.88 36.19-131.07 0-36.2-36.2-36.2-94.88 0-131.08 36.19-36.19 94.87-36.19 131.07 0z" fill="#445f80"/><circle cx="241.57" cy="302.53" fill="#65cafd" r="56.93"/><path d="m241.57 364.46c-34.148 0-61.93-27.781-61.93-61.93s27.781-61.93 61.93-61.93c34.148 0 61.93 27.781 61.93 61.93s-27.782 61.93-61.93 61.93zm0-113.859c-28.635 0-51.93 23.296-51.93 51.93s23.295 51.93 51.93 51.93c28.634 0 51.93-23.296 51.93-51.93 0-28.635-23.296-51.93-51.93-51.93z"/><path d="m241.57 400.166c-25.014 0-50.025-9.52-69.066-28.561-38.088-38.088-38.088-100.063 0-138.151 38.08-38.08 100.05-38.08 138.142 0l.001.001c38.077 38.088 38.077 100.063 0 138.15-19.046 19.041-44.062 28.561-69.077 28.561zm.001-185.276c-22.453 0-44.905 8.545-61.995 25.636-16.564 16.564-25.686 38.583-25.686 62.004s9.121 45.44 25.686 62.005c34.182 34.182 89.808 34.182 123.999-.001 34.179-34.189 34.179-89.819-.001-124.009-17.095-17.09-39.55-25.635-62.003-25.635z"/><path d="m382.005 469.47c-6.79 0-13.58-2.584-18.75-7.753l-38.62-38.621c-5.008-5.007-7.765-11.666-7.765-18.751 0-7.084 2.757-13.743 7.765-18.75 5.021-5.009 11.68-7.765 18.755-7.765 7.081 0 13.738 2.758 18.745 7.765l38.62 38.62c10.34 10.339 10.34 27.162 0 37.501-5.169 5.17-11.959 7.754-18.75 7.754zm-38.615-81.64c-4.408 0-8.559 1.719-11.688 4.84-3.114 3.114-4.831 7.262-4.831 11.675 0 4.414 1.717 8.561 4.835 11.681l38.62 38.62c6.441 6.44 16.92 6.44 23.359 0s6.439-16.92 0-23.36l-38.62-38.62c-3.119-3.119-7.265-4.836-11.675-4.836z"/><path d="m328.17 394.13c-1.279 0-2.559-.488-3.535-1.465l-21.06-21.06c-1.953-1.952-1.953-5.118 0-7.07 1.951-1.953 5.119-1.953 7.07 0l21.06 21.06c1.953 1.952 1.953 5.118 0 7.07-.976.977-2.256 1.465-3.535 1.465z"/><circle cx="438.5" cy="87.53" fill="#cadbfd" r="30"/><path d="m438.5 122.53c-19.299 0-35-15.701-35-35s15.701-35 35-35 35 15.701 35 35-15.701 35-35 35zm0-60c-13.785 0-25 11.215-25 25s11.215 25 25 25 25-11.215 25-25-11.215-25-25-25z"/><circle cx="113.5" cy="427.53" fill="#cadbfd" r="25"/><path d="m113.5 457.53c-16.542 0-30-13.458-30-30s13.458-30 30-30 30 13.458 30 30-13.458 30-30 30zm0-50c-11.027 0-20 8.972-20 20s8.973 20 20 20 20-8.972 20-20-8.973-20-20-20z"/><circle cx="451" cy="170.03" r="7.5"/><circle cx="326" cy="50.03" r="7.5"/><circle cx="456" cy="380.03" r="7.5"/><circle cx="251" cy="450.03" r="7.5"/><circle cx="46" cy="65.03" r="7.5"/><circle cx="71" cy="365.03" r="7.5"/></g></g></svg>