<svg enable-background="new 0 0 512 512" height="512" viewBox="0 0 512 512" width="512" xmlns="http://www.w3.org/2000/svg"><g id="_x33_80_x2C__Cloud_Hosting_x2C__Internet_Connection_x2C__Power_Plug_x2C_"><g><g><g><path d="m75.829 180.749c-9.039-71.711 47.101-134.749 118.783-134.749 41.059 0 78.725 20.544 100.758 54.955 1.489 2.326.811 5.418-1.515 6.907s-5.417.812-6.907-1.515c-20.186-31.526-54.703-50.347-92.336-50.347-65.713 0-117.148 57.796-108.861 123.499.345 2.74-1.596 5.241-4.336 5.587-2.769.343-5.245-1.619-5.586-4.337z"/></g><path d="m397.668 336c-1.126 0-285.732-.051-286.114-.068-38.316-1.476-68.33-32.682-68.33-71.042 0-35.823 26.358-65.561 61.135-70.412-19.458-60.898 26.208-123.477 90.253-123.477 39.023 0 73.509 23.557 87.862 59.292 11.66-7.822 25.497-12.07 39.639-12.07 40.991 0 73.602 34.731 70.962 75.703 40.939-2.635 75.702 29.941 75.702 70.962 0 39.212-31.9 71.112-71.109 71.112z"/><path d="m111.844 325.935 285.824.065c33.696 0 61.109-27.414 61.109-61.111 0-37.302-33.349-66.167-70.577-60.378-3.341.518-6.229-2.361-5.709-5.71 5.799-37.212-23.078-70.577-60.378-70.577-14.164 0-27.97 4.956-38.874 13.955-2.718 2.241-6.863 1.043-7.944-2.331-11.278-35.198-43.702-58.847-80.683-58.847-59.664 0-100.833 60.449-78.73 116.008 1.27 3.189-.986 6.684-4.416 6.843-32.658 1.509-58.242 28.32-58.242 61.038-.001 32.934 25.739 59.731 58.62 61.045z" fill="#e4f0fd"/><g><path d="m136.463 165.537c-2.762 0-5-2.239-5-5 0-32.829 26.708-59.537 59.537-59.537 2.762 0 5 2.239 5 5s-2.238 5-5 5c-27.314 0-49.537 22.222-49.537 49.537 0 2.761-2.238 5-5 5z"/></g></g><path d="m308.516 276v80l-35 35h-55l-35-40v-75z" fill="#384466"/><path d="m308.516 246v30c-15.123 0-109.777 0-125 0v-30z" fill="#445f80"/><path d="m288.516 198.5v47.5h-25v-47.5c0-6.9 5.6-12.5 12.5-12.5 6.912 0 12.5 5.6 12.5 12.5z" fill="#abc7f0"/><path d="m273.516 391v25c-17.496 0-37.504 0-55 0v-25z" fill="#2a2b4c"/><circle cx="246.016" cy="328.5" fill="#ff8848" r="17.5"/><path d="m228.516 198.5v47.5h-25v-47.5c0-6.9 5.6-12.5 12.5-12.5 6.912 0 12.5 5.6 12.5 12.5z" fill="#abc7f0"/><path d="m246.016 476c-2.762 0-5-2.238-5-5v-55c0-2.762 2.238-5 5-5s5 2.238 5 5v55c0 2.762-2.238 5-5 5z"/><path d="m246.016 351c-12.406 0-22.5-10.094-22.5-22.5s10.094-22.5 22.5-22.5 22.5 10.094 22.5 22.5-10.094 22.5-22.5 22.5zm0-35c-6.893 0-12.5 5.607-12.5 12.5s5.607 12.5 12.5 12.5 12.5-5.607 12.5-12.5-5.607-12.5-12.5-12.5z"/><path d="m273.516 396c-1.279 0-2.56-.488-3.535-1.465-1.953-1.952-1.953-5.118 0-7.07l33.535-33.536v-102.929h-15c-2.762 0-5-2.238-5-5s2.238-5 5-5h20c2.762 0 5 2.238 5 5v110c0 1.326-.526 2.598-1.465 3.535l-35 35c-.975.977-2.256 1.465-3.535 1.465z"/><path d="m263.516 251h-35c-2.762 0-5-2.238-5-5s2.238-5 5-5h35c2.762 0 5 2.238 5 5s-2.238 5-5 5z"/><path d="m218.518 396c-1.392 0-2.776-.578-3.765-1.707l-35-40c-.798-.912-1.237-2.082-1.237-3.293v-105c0-2.762 2.238-5 5-5h20c2.762 0 5 2.238 5 5s-2.238 5-5 5h-15v98.121l33.763 38.586c1.818 2.079 1.608 5.237-.47 7.056-.949.83-2.123 1.237-3.291 1.237z"/><path d="m273.516 421h-55c-2.762 0-5-2.238-5-5v-25c0-2.762 2.238-5 5-5h55c2.762 0 5 2.238 5 5v25c0 2.762-2.238 5-5 5zm-50-10h45v-15h-45z"/><path d="m228.516 251h-25c-2.762 0-5-2.238-5-5v-47.5c0-9.649 7.851-17.5 17.5-17.5 4.676 0 9.072 1.82 12.376 5.125 3.304 3.303 5.124 7.699 5.124 12.375v47.5c0 2.762-2.238 5-5 5zm-20-10h15v-42.5c0-2.005-.779-3.889-2.195-5.304-1.416-1.417-3.3-2.196-5.305-2.196-4.136 0-7.5 3.364-7.5 7.5z"/><path d="m288.516 251h-25c-2.762 0-5-2.238-5-5v-47.5c0-9.649 7.851-17.5 17.5-17.5 4.677 0 9.071 1.82 12.376 5.125 3.304 3.304 5.124 7.699 5.124 12.375v47.5c0 2.762-2.238 5-5 5zm-20-10h15v-42.5c0-2.004-.779-3.888-2.195-5.304s-3.3-2.196-5.305-2.196c-4.136 0-7.5 3.364-7.5 7.5z"/><path d="m308.516 281h-125c-2.762 0-5-2.238-5-5s2.238-5 5-5h125c2.762 0 5 2.238 5 5s-2.238 5-5 5z"/><path d="m246.016 316c-2.762 0-5-2.238-5-5v-35c0-2.762 2.238-5 5-5s5 2.238 5 5v35c0 2.762-2.238 5-5 5z"/><path d="m278.516 333.5h-15c-2.762 0-5-2.238-5-5s2.238-5 5-5h15c2.762 0 5 2.238 5 5s-2.238 5-5 5z"/><path d="m228.516 333.5h-15c-2.762 0-5-2.238-5-5s2.238-5 5-5h15c2.762 0 5 2.238 5 5s-2.238 5-5 5z"/><circle cx="423.516" cy="76" fill="#cadbfd" r="30"/><path d="m423.516 111c-19.299 0-35-15.701-35-35s15.701-35 35-35 35 15.701 35 35-15.701 35-35 35zm0-60c-13.785 0-25 11.215-25 25s11.215 25 25 25 25-11.215 25-25-11.215-25-25-25z"/><circle cx="103.516" cy="416" fill="#cadbfd" r="25"/><path d="m103.516 446c-16.542 0-30-13.458-30-30s13.458-30 30-30 30 13.458 30 30-13.458 30-30 30zm0-50c-11.027 0-20 8.972-20 20s8.973 20 20 20 20-8.972 20-20-8.973-20-20-20z"/><circle cx="456.016" cy="163.5" r="7.5"/><circle cx="321.016" cy="43.5" r="7.5"/><circle cx="81.016" cy="48.5" r="7.5"/><circle cx="166.016" cy="403.5" r="7.5"/><circle cx="456.016" cy="368.5" r="7.5"/><circle cx="341.016" cy="423.5" r="7.5"/></g></g></svg>