<svg enable-background="new 0 0 512 512" height="512" viewBox="0 0 512 512" width="512" xmlns="http://www.w3.org/2000/svg"><g id="_x33_81_x2C__Cloud_x2C__Network_x2C__Server_x2C_"><g><g><g><path d="m75.829 188.249c-9.039-71.711 47.101-134.749 118.783-134.749 41.059 0 78.725 20.544 100.758 54.955 1.489 2.326.811 5.418-1.515 6.907s-5.417.812-6.907-1.515c-20.186-31.526-54.703-50.347-92.336-50.347-65.713 0-117.148 57.796-108.861 123.499.345 2.74-1.596 5.241-4.336 5.587-2.769.343-5.245-1.619-5.586-4.337z"/></g><path d="m397.668 343.5c-1.126 0-285.732-.051-286.114-.068-38.316-1.476-68.33-32.682-68.33-71.042 0-35.823 26.358-65.561 61.135-70.412-19.458-60.898 26.208-123.477 90.253-123.477 39.023 0 73.509 23.557 87.862 59.292 11.66-7.822 25.497-12.07 39.639-12.07 40.991 0 73.602 34.731 70.962 75.703 40.939-2.635 75.702 29.941 75.702 70.962 0 39.212-31.9 71.112-71.109 71.112z"/><path d="m111.844 333.435 285.823.065c33.696 0 61.109-27.414 61.109-61.111 0-37.302-33.349-66.167-70.577-60.378-3.341.518-6.229-2.361-5.709-5.71 5.799-37.212-23.078-70.577-60.378-70.577-14.164 0-27.97 4.956-38.874 13.955-2.718 2.241-6.863 1.043-7.944-2.331-11.278-35.198-43.702-58.847-80.683-58.847-59.664 0-100.833 60.449-78.73 116.008 1.27 3.189-.986 6.684-4.416 6.843-32.658 1.509-58.242 28.32-58.242 61.038 0 32.934 25.74 59.731 58.621 61.045z" fill="#e4f0fd"/><g><path d="m136.463 173.037c-2.762 0-5-2.239-5-5 0-32.829 26.708-59.537 59.537-59.537 2.762 0 5 2.239 5 5s-2.238 5-5 5c-27.314 0-49.537 22.222-49.537 49.537 0 2.761-2.238 5-5 5z"/></g></g><path d="m318.516 393.5h60v60h-60z" fill="#65cafd"/><path d="m223.516 393.5h60v60h-60z" fill="#ff8848"/><path d="m223.516 253.5h60v60h-60z" fill="#00ce66"/><path d="m128.516 393.5h60v60h-60z" fill="#fdd82e"/><path d="m188.516 458.5h-60c-2.762 0-5-2.238-5-5v-60c0-2.762 2.238-5 5-5h60c2.762 0 5 2.238 5 5v60c0 2.762-2.238 5-5 5zm-55-10h50v-50h-50z"/><path d="m283.516 458.5h-60c-2.762 0-5-2.238-5-5v-60c0-2.762 2.238-5 5-5h60c2.762 0 5 2.238 5 5v60c0 2.762-2.238 5-5 5zm-55-10h50v-50h-50z"/><path d="m283.516 318.5h-60c-2.762 0-5-2.238-5-5v-60c0-2.762 2.238-5 5-5h60c2.762 0 5 2.238 5 5v60c0 2.762-2.238 5-5 5zm-55-10h50v-50h-50z"/><path d="m378.516 458.5h-60c-2.762 0-5-2.238-5-5v-60c0-2.762 2.238-5 5-5h60c2.762 0 5 2.238 5 5v60c0 2.762-2.238 5-5 5zm-55-10h50v-50h-50z"/><path d="m348.516 398.5c-2.762 0-5-2.238-5-5v-25h-180v25c0 2.762-2.238 5-5 5s-5-2.238-5-5v-30c0-2.762 2.238-5 5-5h190c2.762 0 5 2.238 5 5v30c0 2.762-2.238 5-5 5z"/><path d="m253.516 398.5c-2.762 0-5-2.238-5-5v-80c0-2.762 2.238-5 5-5s5 2.238 5 5v80c0 2.762-2.238 5-5 5z"/><circle cx="423.516" cy="88.5" fill="#cadbfd" r="30"/><path d="m423.516 123.5c-19.299 0-35-15.701-35-35s15.701-35 35-35 35 15.701 35 35-15.701 35-35 35zm0-60c-13.785 0-25 11.215-25 25s11.215 25 25 25 25-11.215 25-25-11.215-25-25-25z"/><circle cx="68.516" cy="413.5" fill="#cadbfd" r="20"/><path d="m68.516 438.5c-13.785 0-25-11.215-25-25s11.215-25 25-25 25 11.215 25 25-11.215 25-25 25zm0-40c-8.271 0-15 6.728-15 15s6.729 15 15 15 15-6.728 15-15-6.728-15-15-15z"/><circle cx="456.016" cy="171" r="7.5"/><circle cx="336.016" cy="61" r="7.5"/><circle cx="66.016" cy="56" r="7.5"/><circle cx="461.016" cy="356" r="7.5"/><circle cx="426.016" cy="456" r="7.5"/><circle cx="56.016" cy="356" r="7.5"/></g></g></svg>