<svg enable-background="new 0 0 512 512" height="512" viewBox="0 0 512 512" width="512" xmlns="http://www.w3.org/2000/svg"><g id="_x33_82_x2C__Cloud_x2C__Info_x2C__Server_x2C__Up"><g><g><g><path d="m78.182 200.749c-9.039-71.711 47.102-134.749 118.783-134.749 41.059 0 78.725 20.544 100.758 54.955 1.489 2.326.811 5.418-1.515 6.907s-5.417.811-6.907-1.515c-20.185-31.526-54.703-50.347-92.336-50.347-65.713 0-117.148 57.796-108.861 123.499.345 2.74-1.596 5.241-4.336 5.587-2.768.343-5.244-1.619-5.586-4.337z"/></g><path d="m400.021 356c-1.126 0-285.732-.051-286.114-.068-38.316-1.476-68.33-32.682-68.33-71.042 0-35.823 26.358-65.561 61.135-70.412-19.458-60.898 26.208-123.477 90.253-123.477 39.023 0 73.509 23.557 87.862 59.292 11.66-7.822 25.497-12.07 39.639-12.07 40.991 0 73.602 34.731 70.962 75.703 40.939-2.635 75.702 29.941 75.702 70.962 0 39.212-31.899 71.112-71.109 71.112z"/><path d="m114.198 345.935 285.823.065c33.696 0 61.109-27.414 61.109-61.111 0-37.302-33.349-66.167-70.577-60.378-3.341.518-6.229-2.361-5.709-5.71 5.799-37.212-23.078-70.577-60.378-70.577-14.164 0-27.97 4.956-38.874 13.955-2.718 2.241-6.863 1.043-7.944-2.331-11.278-35.198-43.702-58.847-80.683-58.847-59.664 0-100.833 60.449-78.73 116.008 1.27 3.189-.986 6.684-4.416 6.843-32.658 1.509-58.242 28.32-58.242 61.038 0 32.934 25.74 59.731 58.621 61.045z" fill="#e4f0fd"/><g><path d="m138.817 185.537c-2.762 0-5-2.239-5-5 0-32.829 26.708-59.537 59.537-59.537 2.762 0 5 2.239 5 5s-2.238 5-5 5c-27.314 0-49.537 22.222-49.537 49.537 0 2.761-2.238 5-5 5z"/></g></g><path d="m260.87 251c55.23 0 100 44.77 100 100s-44.77 100-100 100-100-44.77-100-100 44.769-100 100-100z" fill="#384466"/><path d="m275.87 341v70c0 8.28-6.72 15-15 15-8.279 0-15-6.72-15-15v-70c0-8.28 6.721-15 15-15 8.266 0 15 6.72 15 15z" fill="#00ce66"/><circle cx="260.87" cy="291" fill="#00ce66" r="15"/><path d="m260.87 456c-57.897 0-105-47.103-105-105s47.104-105 105-105c57.897 0 105 47.103 105 105s-47.103 105-105 105zm0-200c-52.383 0-95 42.617-95 95s42.617 95 95 95 95-42.617 95-95-42.618-95-95-95z"/><path d="m260.87 431c-11.027 0-20-8.972-20-20v-70c0-11.028 8.973-20 20-20 5.348 0 10.37 2.085 14.143 5.872 3.772 3.758 5.857 8.78 5.857 14.128v70c0 11.028-8.972 20-20 20zm0-100c-5.514 0-10 4.486-10 10v70c0 5.514 4.486 10 10 10s10-4.486 10-10v-70c0-2.67-1.04-5.176-2.929-7.057-1.896-1.903-4.401-2.943-7.071-2.943z"/><path d="m260.87 311c-11.027 0-20-8.972-20-20 0-5.347 2.085-10.369 5.871-14.142 3.758-3.773 8.78-5.858 14.129-5.858 5.348 0 10.37 2.085 14.143 5.872 3.772 3.758 5.857 8.78 5.857 14.128s-2.085 10.37-5.872 14.143c-3.758 3.772-8.781 5.857-14.128 5.857zm0-30c-2.67 0-5.177 1.04-7.058 2.929-1.902 1.895-2.942 4.402-2.942 7.071 0 5.514 4.486 10 10 10 2.67 0 5.176-1.04 7.057-2.929 1.903-1.895 2.943-4.401 2.943-7.071s-1.04-5.176-2.929-7.057c-1.896-1.903-4.401-2.943-7.071-2.943z"/><circle cx="415.87" cy="101" fill="#cadbfd" r="25"/><path d="m415.87 131c-16.542 0-30-13.458-30-30s13.458-30 30-30 30 13.458 30 30-13.458 30-30 30zm0-50c-11.028 0-20 8.972-20 20s8.972 20 20 20 20-8.972 20-20-8.972-20-20-20z"/><circle cx="95.87" cy="426" fill="#cadbfd" r="30"/><path d="m95.87 461c-19.299 0-35-15.701-35-35s15.701-35 35-35 35 15.701 35 35-15.702 35-35 35zm0-60c-13.785 0-25 11.215-25 25s11.215 25 25 25 25-11.215 25-25-11.215-25-25-25z"/><circle cx="458.37" cy="183.5" r="7.5"/><circle cx="308.37" cy="53.5" r="7.5"/><circle cx="48.37" cy="98.5" r="7.5"/><circle cx="158.37" cy="453.5" r="7.5"/><circle cx="458.37" cy="383.5" r="7.5"/><circle cx="368.37" cy="458.5" r="7.5"/></g></g></svg>