<svg enable-background="new 0 0 512 512" height="512" viewBox="0 0 512 512" width="512" xmlns="http://www.w3.org/2000/svg"><g id="_x33_84_x2C__Cloud_x2C__Player_x2C__Video_x2C_"><g><g><g><path d="m75.829 198.249c-9.039-71.711 47.101-134.749 118.783-134.749 41.059 0 78.725 20.544 100.758 54.955 1.489 2.326.811 5.418-1.515 6.907s-5.417.812-6.907-1.515c-20.186-31.526-54.703-50.347-92.336-50.347-65.713 0-117.148 57.796-108.861 123.499.345 2.74-1.596 5.241-4.336 5.587-2.769.343-5.245-1.619-5.586-4.337z"/></g><path d="m397.668 353.5c-1.126 0-285.732-.051-286.114-.068-38.316-1.476-68.33-32.682-68.33-71.042 0-35.823 26.358-65.561 61.135-70.412-19.458-60.898 26.208-123.477 90.253-123.477 39.023 0 73.509 23.557 87.862 59.292 11.66-7.822 25.497-12.07 39.639-12.07 40.991 0 73.602 34.731 70.962 75.703 40.939-2.635 75.702 29.941 75.702 70.962 0 39.212-31.9 71.112-71.109 71.112z"/><path d="m111.844 343.435 285.823.065c33.696 0 61.109-27.414 61.109-61.111 0-37.302-33.349-66.167-70.577-60.378-3.341.518-6.229-2.361-5.709-5.71 5.799-37.212-23.078-70.577-60.378-70.577-14.164 0-27.97 4.956-38.874 13.955-2.718 2.241-6.863 1.043-7.944-2.331-11.278-35.198-43.702-58.847-80.683-58.847-59.664 0-100.833 60.449-78.73 116.008 1.27 3.189-.986 6.684-4.416 6.843-32.658 1.509-58.242 28.32-58.242 61.038 0 32.934 25.74 59.731 58.621 61.045z" fill="#e4f0fd"/><g><path d="m136.463 183.037c-2.762 0-5-2.239-5-5 0-32.829 26.708-59.537 59.537-59.537 2.762 0 5 2.239 5 5s-2.238 5-5 5c-27.314 0-49.537 22.222-49.537 49.537 0 2.761-2.238 5-5 5z"/></g></g><path d="m253.516 263.5c46.94 0 85 38.06 85 85s-38.06 85-85 85c-46.939 0-85-38.06-85-85s38.061-85 85-85z" fill="#384466"/><path d="m285.946 351.11-47.43 27.39v-54.77z" fill="#ff8848"/><path d="m253.516 438.5c-49.626 0-90-40.374-90-90s40.374-90 90-90 90 40.374 90 90-40.374 90-90 90zm0-170c-44.112 0-80 35.888-80 80s35.888 80 80 80 80-35.888 80-80-35.888-80-80-80z"/><path d="m238.516 383.5c-.863 0-1.727-.224-2.5-.67-1.547-.893-2.5-2.544-2.5-4.33v-54.77c0-1.786.953-3.437 2.5-4.33s3.453-.893 5 0l47.43 27.38c1.547.893 2.5 2.543 2.5 4.33 0 1.786-.953 3.436-2.5 4.33l-47.43 27.39c-.773.446-1.637.67-2.5.67zm5-51.109v37.448l32.43-18.728z"/><circle cx="428.516" cy="103.5" fill="#cadbfd" r="30"/><path d="m428.516 138.5c-19.299 0-35-15.701-35-35s15.701-35 35-35 35 15.701 35 35-15.701 35-35 35zm0-60c-13.785 0-25 11.215-25 25s11.215 25 25 25 25-11.215 25-25-11.215-25-25-25z"/><circle cx="98.516" cy="428.5" fill="#cadbfd" r="25"/><path d="m98.516 458.5c-16.542 0-30-13.458-30-30s13.458-30 30-30 30 13.458 30 30-13.458 30-30 30zm0-50c-11.027 0-20 8.972-20 20s8.973 20 20 20 20-8.972 20-20-8.973-20-20-20z"/><circle cx="441.016" cy="421" r="7.5"/><circle cx="451.016" cy="176" r="7.5"/><circle cx="321.016" cy="46" r="7.5"/><circle cx="56.016" cy="81" r="7.5"/><circle cx="173.516" cy="451" r="7.5"/><circle cx="336.016" cy="466" r="7.5"/></g></g></svg>