<svg enable-background="new 0 0 512 512" height="512" viewBox="0 0 512 512" width="512" xmlns="http://www.w3.org/2000/svg"><g id="_x33_85_x2C__Check_x2C__Cloud_x2C__Mark_x2C__Ok"><g><g><g><path d="m75.829 193.249c-9.039-71.711 47.101-134.749 118.783-134.749 41.059 0 78.725 20.544 100.758 54.955 1.489 2.326.811 5.418-1.515 6.907s-5.417.812-6.907-1.515c-20.186-31.526-54.703-50.347-92.336-50.347-65.713 0-117.148 57.796-108.861 123.499.345 2.74-1.596 5.241-4.336 5.587-2.769.343-5.245-1.619-5.586-4.337z"/></g><path d="m397.668 348.5c-1.126 0-285.732-.051-286.114-.068-38.316-1.476-68.33-32.682-68.33-71.042 0-35.823 26.358-65.561 61.135-70.412-19.458-60.898 26.208-123.477 90.253-123.477 39.023 0 73.509 23.557 87.862 59.292 11.66-7.822 25.497-12.07 39.639-12.07 40.991 0 73.602 34.731 70.962 75.703 40.939-2.635 75.702 29.941 75.702 70.962 0 39.212-31.9 71.112-71.109 71.112z"/><path d="m111.844 338.435 285.823.065c33.696 0 61.109-27.414 61.109-61.111 0-37.302-33.349-66.167-70.577-60.378-3.341.518-6.229-2.361-5.709-5.71 5.799-37.212-23.078-70.577-60.378-70.577-14.164 0-27.97 4.956-38.874 13.955-2.718 2.241-6.863 1.043-7.944-2.331-11.278-35.198-43.702-58.847-80.683-58.847-59.664 0-100.833 60.449-78.73 116.008 1.27 3.189-.986 6.684-4.416 6.843-32.658 1.509-58.242 28.32-58.242 61.038 0 32.934 25.74 59.731 58.621 61.045z" fill="#e4f0fd"/><g><path d="m136.463 178.037c-2.762 0-5-2.239-5-5 0-32.829 26.708-59.537 59.537-59.537 2.762 0 5 2.239 5 5s-2.238 5-5 5c-27.314 0-49.537 22.222-49.537 49.537 0 2.761-2.238 5-5 5z"/></g></g><path d="m333.516 263.5v160h-160v-160z" fill="#445f80"/><path d="m298.976 326.13c-1.538 1.538 11.288-11.288-60.101 60.101-11.252-11.252-24.107-24.108-35.359-35.36l17.68-17.67 17.68 17.67 42.421-42.42z" fill="#00ce66"/><path d="m333.516 428.5h-160c-2.762 0-5-2.238-5-5v-160c0-2.762 2.238-5 5-5h160c2.762 0 5 2.238 5 5v160c0 2.762-2.238 5-5 5zm-155-10h150v-150h-150z"/><path d="m238.877 391.23c-1.326 0-2.599-.526-3.536-1.465l-35.359-35.36c-.938-.938-1.465-2.21-1.465-3.536s.527-2.598 1.465-3.535l17.681-17.67c1.952-1.951 5.116-1.953 7.069 0l14.145 14.136 38.886-38.885c1.951-1.953 5.119-1.953 7.07 0l17.68 17.68c.938.938 1.465 2.209 1.465 3.535s-.527 2.599-1.465 3.536l-60.099 60.099c-.939.938-2.21 1.465-3.537 1.465zm-28.289-40.359 28.287 28.287 53.029-53.028-10.608-10.608-38.885 38.884c-1.952 1.952-5.116 1.955-7.07.001l-14.146-14.137z"/><circle cx="423.516" cy="88.5" fill="#cadbfd" r="25"/><path d="m423.516 118.5c-16.542 0-30-13.458-30-30s13.458-30 30-30 30 13.458 30 30-13.458 30-30 30zm0-50c-11.028 0-20 8.972-20 20s8.972 20 20 20 20-8.972 20-20-8.972-20-20-20z"/><circle cx="88.516" cy="423.5" fill="#cadbfd" r="20"/><path d="m88.516 448.5c-13.785 0-25-11.215-25-25s11.215-25 25-25 25 11.215 25 25-11.215 25-25 25zm0-40c-8.271 0-15 6.728-15 15s6.729 15 15 15 15-6.728 15-15-6.728-15-15-15z"/><circle cx="456.016" cy="176" r="7.5"/><circle cx="316.016" cy="51" r="7.5"/><circle cx="61.016" cy="71" r="7.5"/><circle cx="136.016" cy="386" r="7.5"/><circle cx="361.016" cy="461" r="7.5"/><circle cx="441.016" cy="416" r="7.5"/></g></g></svg>