<svg enable-background="new 0 0 512 512" height="512" viewBox="0 0 512 512" width="512" xmlns="http://www.w3.org/2000/svg"><g id="_x33_87_x2C__Cloud_x2C__Setting_x2C__Gear_x2C_"><g><g><g><path d="m75.829 200.749c-9.039-71.711 47.101-134.749 118.783-134.749 41.059 0 78.725 20.544 100.758 54.955 1.489 2.326.811 5.418-1.515 6.907s-5.417.811-6.907-1.515c-20.186-31.526-54.703-50.347-92.336-50.347-65.713 0-117.148 57.796-108.861 123.499.345 2.74-1.596 5.241-4.336 5.587-2.769.343-5.245-1.619-5.586-4.337z"/></g><path d="m397.668 356c-1.126 0-285.732-.051-286.114-.068-38.316-1.476-68.33-32.682-68.33-71.042 0-35.823 26.358-65.561 61.135-70.412-19.458-60.898 26.208-123.477 90.253-123.477 39.023 0 73.509 23.557 87.862 59.292 11.66-7.822 25.497-12.07 39.639-12.07 40.991 0 73.602 34.731 70.962 75.703 40.939-2.635 75.702 29.941 75.702 70.962 0 39.212-31.9 71.112-71.109 71.112z"/><path d="m111.844 345.935 285.824.065c33.696 0 61.109-27.414 61.109-61.111 0-37.302-33.349-66.167-70.577-60.378-3.341.518-6.229-2.361-5.709-5.71 5.799-37.212-23.078-70.577-60.378-70.577-14.164 0-27.97 4.956-38.874 13.955-2.718 2.241-6.863 1.043-7.944-2.331-11.278-35.198-43.702-58.847-80.683-58.847-59.664 0-100.833 60.449-78.73 116.008 1.27 3.189-.986 6.684-4.416 6.843-32.658 1.509-58.242 28.32-58.242 61.038-.001 32.934 25.739 59.731 58.62 61.045z" fill="#e4f0fd"/><g><path d="m136.463 185.537c-2.762 0-5-2.239-5-5 0-32.829 26.708-59.537 59.537-59.537 2.762 0 5 2.239 5 5s-2.238 5-5 5c-27.314 0-49.537 22.222-49.537 49.537 0 2.761-2.238 5-5 5z"/></g></g><path d="m351.196 319.71-13.12 8.62 13.12 8.59c-.98 10.72-3.779 20.941-8.109 30.271l-15.7.909 7.07 14.011c-6.091 8.59-13.56 16.059-22.12 22.149l-14.03-7.069-.92 15.69c-9.33 4.33-19.51 7.14-30.23 8.12l-8.63-13.16-8.62 13.159c-10.721-.98-20.9-3.79-30.24-8.12l-.91-15.69-14.03 7.069c-8.56-6.09-16.069-13.56-22.12-22.149l7.03-14.011-15.69-.909c-4.3-9.33-7.1-19.551-8.09-30.23l13.131-8.63-13.131-8.62c.99-10.72 3.79-20.91 8.09-30.27l15.69-.881-7.03-14.04c6.051-8.56 13.561-16.06 22.12-22.149l14.03 7.07.91-15.7c9.34-4.29 19.52-7.1 30.24-8.08l8.619 13.12 8.63-13.12c10.69.98 20.9 3.79 30.23 8.08l.92 15.7 14-7.07c8.59 6.09 16.1 13.59 22.15 22.149l-7.07 14.04 15.729.881c4.302 9.36 7.101 19.55 8.081 30.27zm-45.67 8.62c0-25.91-21.09-47-47-47-25.9 0-47 21.09-47 47s21.1 47 47 47c25.91 0 47-21.09 47-47z" fill="#ff8848"/><path d="m258.526 281.33c25.91 0 47 21.09 47 47s-21.09 47-47 47c-25.9 0-47-21.09-47-47s21.1-47 47-47zm22 47c0-12.13-9.87-22-22-22-12.119 0-22 9.87-22 22s9.881 22 22 22c12.13 0 22-9.87 22-22z" fill="#ff4c4c"/><path d="m258.526 380.33c-28.673 0-52-23.327-52-52s23.327-52 52-52 52 23.327 52 52-23.327 52-52 52zm0-94c-23.158 0-42 18.841-42 42s18.842 42 42 42c23.159 0 42-18.841 42-42s-18.841-42-42-42z"/><path d="m258.526 355.33c-14.888 0-27-12.112-27-27s12.112-27 27-27 27 12.112 27 27-12.112 27-27 27zm0-44c-9.374 0-17 7.626-17 17s7.626 17 17 17 17-7.626 17-17-7.626-17-17-17z"/><path d="m249.907 426c-.15 0-.303-.007-.456-.021-11.091-1.015-21.819-3.895-31.888-8.564-1.672-.775-2.781-2.407-2.889-4.247l-.469-8.087-7.229 3.643c-1.656.835-3.638.684-5.148-.391-9.133-6.497-16.976-14.352-23.31-23.345-1.061-1.506-1.207-3.475-.381-5.121l3.621-7.217-8.102-.47c-1.844-.106-3.479-1.221-4.252-2.898-4.629-10.045-7.498-20.765-8.527-31.861-.171-1.841.688-3.625 2.232-4.641l6.77-4.449-6.768-4.442c-1.545-1.015-2.404-2.799-2.234-4.64 1.023-11.08 3.892-21.811 8.525-31.897.773-1.683 2.414-2.801 4.264-2.904l8.092-.454-3.623-7.236c-.826-1.648-.677-3.618.388-5.124 6.376-9.02 14.217-16.873 23.305-23.338 1.511-1.075 3.492-1.226 5.148-.391l7.229 3.643.469-8.097c.107-1.846 1.225-3.483 2.904-4.254 10.105-4.641 20.828-7.506 31.873-8.516 1.836-.167 3.62.69 4.634 2.233l4.443 6.763 4.449-6.765c1.015-1.542 2.799-2.404 4.634-2.231 11.058 1.014 21.777 3.879 31.863 8.516 1.679.772 2.795 2.406 2.902 4.251l.475 8.096 7.2-3.637c1.656-.835 3.635-.686 5.146.384 9.1 6.452 16.953 14.305 23.342 23.343 1.066 1.509 1.214 3.483.383 5.135l-3.639 7.226 8.111.454c1.85.104 3.49 1.222 4.264 2.904 4.64 10.096 7.505 20.829 8.517 31.902.168 1.839-.691 3.62-2.234 4.634l-6.748 4.434 6.741 4.414c1.548 1.014 2.409 2.797 2.241 4.639-1.019 11.147-3.897 21.886-8.554 31.92-.775 1.672-2.407 2.78-4.246 2.887l-8.092.469 3.637 7.207c.835 1.654.687 3.634-.385 5.145-6.413 9.045-14.253 16.895-23.301 23.332-1.512 1.074-3.493 1.225-5.148.391l-7.234-3.645-.475 8.093c-.107 1.838-1.217 3.468-2.887 4.242-10.058 4.668-20.783 7.55-31.88 8.564-1.834.164-3.623-.692-4.637-2.237l-4.445-6.78-4.439 6.777c-.929 1.417-2.506 2.259-4.182 2.259zm8.619-23.16c1.686 0 3.257.849 4.182 2.258l6.952 10.602c7.915-.994 15.599-3.059 22.913-6.153l.742-12.648c.099-1.681 1.036-3.198 2.495-4.039 1.458-.842 3.242-.892 4.746-.133l11.288 5.688c6.33-4.83 11.952-10.46 16.767-16.789l-5.688-11.271c-.759-1.505-.71-3.29.132-4.749.841-1.46 2.361-2.398 4.043-2.495l12.655-.733c3.088-7.303 5.148-14.998 6.144-22.948l-10.559-6.913c-1.41-.924-2.261-2.494-2.262-4.18-.001-1.685.846-3.258 2.255-4.183l10.565-6.942c-.991-7.908-3.045-15.604-6.123-22.948l-12.666-.709c-1.684-.095-3.206-1.03-4.05-2.489-.844-1.46-.895-3.246-.137-4.752l5.693-11.307c-4.799-6.321-10.43-11.95-16.792-16.787l-11.262 5.686c-1.503.76-3.287.712-4.748-.13-1.46-.84-2.398-2.359-2.497-4.041l-.741-12.646c-7.338-3.079-15.022-5.133-22.92-6.126l-6.95 10.567c-.925 1.406-2.495 2.253-4.178 2.253h-.001c-1.684-.001-3.254-.848-4.178-2.254l-6.941-10.565c-7.89.991-15.575 3.045-22.925 6.126l-.732 12.644c-.098 1.682-1.035 3.201-2.494 4.042-1.459.843-3.244.893-4.748.134l-11.288-5.689c-6.357 4.848-11.983 10.48-16.774 16.794l5.663 11.311c.754 1.505.7 3.289-.145 4.745-.845 1.457-2.364 2.391-4.046 2.485l-12.627.709c-3.076 7.34-5.133 15.035-6.131 22.949l10.572 6.94c1.407.924 2.255 2.494 2.256 4.179 0 1.684-.848 3.255-2.254 4.18l-10.574 6.949c1.002 7.922 3.057 15.607 6.13 22.918l12.637.732c1.681.097 3.198 1.033 4.04 2.49s.895 3.239.14 4.743l-5.661 11.284c4.764 6.292 10.389 11.922 16.773 16.787l11.289-5.688c1.504-.758 3.288-.709 4.748.134 1.459.841 2.396 2.36 2.494 4.042l.732 12.643c7.322 3.096 15.008 5.159 22.92 6.154l6.942-10.599c.925-1.412 2.496-2.262 4.184-2.262-.001 0-.001 0 0 0z"/><circle cx="418.516" cy="101" fill="#cadbfd" r="30"/><path d="m418.516 136c-19.299 0-35-15.701-35-35s15.701-35 35-35 35 15.701 35 35-15.701 35-35 35zm0-60c-13.785 0-25 11.215-25 25s11.215 25 25 25 25-11.215 25-25-11.215-25-25-25z"/><circle cx="108.516" cy="431" fill="#cadbfd" r="20"/><path d="m108.516 456c-13.785 0-25-11.215-25-25s11.215-25 25-25 25 11.215 25 25-11.215 25-25 25zm0-40c-8.271 0-15 6.728-15 15s6.729 15 15 15 15-6.728 15-15-6.728-15-15-15z"/><circle cx="461.016" cy="178.5" r="7.5"/><circle cx="306.016" cy="53.5" r="7.5"/><circle cx="51.016" cy="88.5" r="7.5"/><circle cx="181.016" cy="443.5" r="7.5"/><circle cx="451.016" cy="386" r="7.5"/><circle cx="356.016" cy="458.5" r="7.5"/></g></g></svg>