<svg enable-background="new 0 0 512 512" height="512" viewBox="0 0 512 512" width="512" xmlns="http://www.w3.org/2000/svg"><g id="_x33_88_x2C__Access_x2C__Cloud_x2C__User_x2C_"><g><g><g><path d="m75.829 190.749c-9.039-71.711 47.101-134.749 118.783-134.749 41.059 0 78.725 20.544 100.758 54.955 1.489 2.326.811 5.418-1.515 6.907s-5.417.812-6.907-1.515c-20.186-31.526-54.703-50.347-92.336-50.347-65.713 0-117.148 57.796-108.861 123.499.345 2.74-1.596 5.241-4.336 5.587-2.769.343-5.245-1.619-5.586-4.337z"/></g><path d="m397.668 346c-1.126 0-285.732-.051-286.114-.068-38.316-1.476-68.33-32.682-68.33-71.042 0-35.823 26.358-65.561 61.135-70.412-19.458-60.898 26.208-123.477 90.253-123.477 39.023 0 73.509 23.557 87.862 59.292 11.66-7.822 25.497-12.07 39.639-12.07 40.991 0 73.602 34.731 70.962 75.703 40.939-2.635 75.702 29.941 75.702 70.962 0 39.212-31.9 71.112-71.109 71.112z"/><path d="m111.844 335.935 285.824.065c33.696 0 61.109-27.414 61.109-61.111 0-37.302-33.349-66.167-70.577-60.378-3.341.518-6.229-2.361-5.709-5.71 5.799-37.212-23.078-70.577-60.378-70.577-14.164 0-27.97 4.956-38.874 13.955-2.718 2.241-6.863 1.043-7.944-2.331-11.278-35.198-43.702-58.847-80.683-58.847-59.664 0-100.833 60.449-78.73 116.008 1.27 3.189-.986 6.684-4.416 6.843-32.658 1.509-58.242 28.32-58.242 61.038-.001 32.934 25.739 59.731 58.62 61.045z" fill="#e4f0fd"/><g><path d="m136.463 175.537c-2.762 0-5-2.239-5-5 0-32.829 26.708-59.537 59.537-59.537 2.762 0 5 2.239 5 5s-2.238 5-5 5c-27.314 0-49.537 22.222-49.537 49.537 0 2.761-2.238 5-5 5z"/></g></g><path d="m258.516 241c55.23 0 100 44.77 100 100s-44.77 100-100 100-100-44.77-100-100 44.77-100 100-100z" fill="#384466"/><path d="m286.016 392.91h-50-21.35c-2.351-5.79-3.65-12.12-3.65-18.75 0-27.62 22.391-50 50-50l-12.5 31.25 12.5 12.5 12.5-12.5-12.5-31.25c27.61 0 50 22.38 50 50 0 6.63-1.3 12.96-3.65 18.75z" fill="#ff8848"/><circle cx="261.016" cy="299.16" fill="#ffdbca" r="25"/><path d="m261.016 324.16 12.5 31.25-12.5 12.5-12.5-12.5z" fill="#fdd82e"/><path d="m258.516 446c-57.896 0-105-47.103-105-105s47.104-105 105-105c57.897 0 105 47.103 105 105s-47.102 105-105 105zm0-200c-52.383 0-95 42.617-95 95s42.617 95 95 95 95-42.617 95-95-42.617-95-95-95z"/><path d="m261.016 329.16c-16.542 0-30-13.458-30-30s13.458-30 30-30 30 13.458 30 30-13.458 30-30 30zm0-50c-11.027 0-20 8.972-20 20s8.973 20 20 20c11.028 0 20-8.972 20-20s-8.972-20-20-20z"/><path d="m236.016 397.91c-2.762 0-5-2.238-5-5v-18.75c0-2.762 2.238-5 5-5s5 2.238 5 5v18.75c0 2.762-2.238 5-5 5z"/><path d="m286.016 397.91c-2.762 0-5-2.238-5-5v-18.75c0-2.762 2.238-5 5-5s5 2.238 5 5v18.75c0 2.762-2.238 5-5 5z"/><path d="m261.016 372.91c-1.279 0-2.56-.488-3.535-1.465l-12.5-12.5c-1.414-1.414-1.85-3.535-1.107-5.393l12.5-31.25c.76-1.897 2.598-3.143 4.643-3.143s3.883 1.245 4.643 3.143l12.5 31.25c.742 1.857.308 3.979-1.107 5.393l-12.5 12.5c-.977.977-2.258 1.465-3.537 1.465zm-6.633-18.704 6.633 6.633 6.633-6.633-6.633-16.583z"/><path d="m307.366 397.91h-92.699c-2.035 0-3.868-1.233-4.633-3.119-2.666-6.567-4.018-13.509-4.018-20.631 0-30.327 24.673-55 55-55s55 24.673 55 55c0 7.123-1.352 14.064-4.018 20.631-.765 1.886-2.597 3.119-4.632 3.119zm-89.201-10h85.703c1.427-4.429 2.148-9.04 2.148-13.75 0-24.813-20.186-45-45-45-24.813 0-45 20.187-45 45 0 4.71.722 9.321 2.149 13.75z"/><circle cx="428.516" cy="86" fill="#cadbfd" r="30"/><path d="m428.516 121c-19.299 0-35-15.701-35-35s15.701-35 35-35 35 15.701 35 35-15.701 35-35 35zm0-60c-13.785 0-25 11.215-25 25s11.215 25 25 25 25-11.215 25-25-11.215-25-25-25z"/><circle cx="113.516" cy="421" fill="#cadbfd" r="20"/><path d="m113.516 446c-13.785 0-25-11.215-25-25s11.215-25 25-25 25 11.215 25 25-11.215 25-25 25zm0-40c-8.271 0-15 6.728-15 15s6.729 15 15 15 15-6.728 15-15-6.728-15-15-15z"/><circle cx="341.016" cy="63.5" r="7.5"/><circle cx="71.016" cy="73.5" r="7.5"/><circle cx="461.016" cy="168.5" r="7.5"/><circle cx="441.016" cy="408.5" r="7.5"/><circle cx="171.016" cy="453.5" r="7.5"/></g></g></svg>