<svg enable-background="new 0 0 512 512" height="512" viewBox="0 0 512 512" width="512" xmlns="http://www.w3.org/2000/svg"><g id="_x33_89_x2C__Image_x2C__Landscape_x2C__Photo_x2C__Picture"><g><g><g><path d="m70.959 200.749c-9.039-71.711 47.102-134.749 118.783-134.749 41.059 0 78.725 20.544 100.758 54.955 1.489 2.326.811 5.418-1.515 6.907s-5.417.811-6.907-1.515c-20.185-31.526-54.703-50.347-92.336-50.347-65.713 0-117.148 57.796-108.861 123.499.345 2.74-1.596 5.241-4.336 5.587-2.769.343-5.244-1.619-5.586-4.337z"/></g><path d="m392.798 356c-1.126 0-285.732-.051-286.114-.068-38.316-1.476-68.33-32.682-68.33-71.042 0-35.823 26.358-65.561 61.135-70.412-19.458-60.898 26.208-123.477 90.253-123.477 39.023 0 73.509 23.557 87.862 59.292 11.66-7.822 25.497-12.07 39.639-12.07 40.991 0 73.602 34.731 70.962 75.703 40.939-2.635 75.702 29.941 75.702 70.962 0 39.212-31.899 71.112-71.109 71.112z"/><path d="m106.975 345.935 285.823.065c33.696 0 61.109-27.414 61.109-61.111 0-37.302-33.349-66.167-70.577-60.378-3.341.518-6.23-2.361-5.709-5.71 5.799-37.212-23.078-70.577-60.378-70.577-14.164 0-27.97 4.956-38.874 13.955-2.718 2.241-6.863 1.043-7.944-2.331-11.278-35.198-43.702-58.847-80.683-58.847-59.664 0-100.833 60.449-78.73 116.008 1.27 3.189-.986 6.684-4.416 6.843-32.658 1.509-58.242 28.32-58.242 61.038 0 32.934 25.74 59.731 58.621 61.045z" fill="#e4f0fd"/><g><path d="m131.594 185.537c-2.762 0-5-2.239-5-5 0-32.829 26.708-59.537 59.537-59.537 2.762 0 5 2.239 5 5s-2.238 5-5 5c-27.314 0-49.537 22.222-49.537 49.537 0 2.761-2.239 5-5 5z"/></g></g><circle cx="428.647" cy="91" fill="#cadbfd" r="35"/><path d="m428.647 131c-22.056 0-40-17.944-40-40s17.944-40 40-40 40 17.944 40 40-17.945 40-40 40zm0-70c-16.542 0-30 13.458-30 30s13.458 30 30 30 30-13.458 30-30-13.458-30-30-30z"/><circle cx="98.646" cy="416" fill="#cadbfd" r="20"/><path d="m98.646 441c-13.785 0-25-11.215-25-25s11.215-25 25-25 25 11.215 25 25-11.214 25-25 25zm0-40c-8.271 0-15 6.728-15 15s6.729 15 15 15 15-6.728 15-15-6.728-15-15-15z"/><circle cx="336.147" cy="73.5" r="7.5"/><circle cx="441.147" cy="168.5" r="7.5"/><circle cx="66.146" cy="73.5" r="7.5"/><circle cx="466.147" cy="373.5" r="7.5"/><circle cx="381.147" cy="453.5" r="7.5"/><circle cx="46.146" cy="443.5" r="7.5"/><path d="m348.647 391v30h-200.001v-30h25 104.29 45.711z" fill="#65cafd"/><path d="m348.647 281v110c-8.305 0-191.503 0-200 0v-110z" fill="#cadbfd"/><path d="m272.936 329.15 50.711 61.85h-45.711l-27.849-33.97z" fill="#009a85"/><path d="m250.087 357.03 27.849 33.97h-104.29l53.59-61.85z" fill="#00ce66"/><circle cx="183.646" cy="316" fill="#fdd82e" r="15"/><path d="m348.647 426h-200c-2.762 0-5-2.238-5-5v-140c0-2.762 2.238-5 5-5h200c2.762 0 5 2.238 5 5v140c0 2.762-2.239 5-5 5zm-195.001-10h190v-130h-190z"/><path d="m323.649 396c-1.446 0-2.881-.624-3.869-1.83l-46.843-57.133-18.983 23.162c-1.751 2.136-4.902 2.447-7.036.698-2.137-1.75-2.449-4.9-.698-7.036l22.85-27.88c.949-1.159 2.369-1.831 3.867-1.831 1.497 0 2.917.672 3.866 1.83l50.71 61.85c1.751 2.135 1.44 5.285-.696 7.036-.93.763-2.052 1.134-3.168 1.134z"/><path d="m277.94 396c-1.446 0-2.881-.624-3.869-1.83l-46.94-57.262-49.704 57.366c-1.81 2.086-4.966 2.313-7.054.505-2.087-1.809-2.313-4.967-.505-7.054l53.59-61.85c.967-1.113 2.403-1.707 3.848-1.726 1.475.021 2.864.69 3.799 1.83l50.699 61.85c1.751 2.136 1.439 5.286-.696 7.036-.931.764-2.053 1.135-3.168 1.135z"/><path d="m348.647 396h-200c-2.762 0-5-2.238-5-5s2.238-5 5-5h200c2.762 0 5 2.238 5 5s-2.239 5-5 5z"/><path d="m183.646 336c-11.027 0-20-8.972-20-20s8.973-20 20-20 20 8.972 20 20-8.972 20-20 20zm0-30c-5.514 0-10 4.486-10 10s4.486 10 10 10 10-4.486 10-10-4.486-10-10-10z"/></g></g></svg>