<svg enable-background="new 0 0 512 512" height="512" viewBox="0 0 512 512" width="512" xmlns="http://www.w3.org/2000/svg"><g id="_x33_92_x2C__Cloud_x2C__Security_x2C__Protection_x2C_"><g><g><g><path d="m75.829 190.93c-9.039-71.712 47.101-134.75 118.783-134.75 41.059 0 78.725 20.544 100.758 54.955 1.489 2.326.811 5.418-1.515 6.907s-5.417.812-6.907-1.515c-20.186-31.526-54.703-50.347-92.336-50.347-65.713 0-117.148 57.796-108.861 123.498.345 2.74-1.596 5.241-4.336 5.587-2.769.344-5.245-1.618-5.586-4.335z"/></g><path d="m397.668 346.18c-1.126 0-285.732-.051-286.114-.068-38.316-1.475-68.33-32.682-68.33-71.042 0-35.823 26.358-65.561 61.135-70.412-19.458-60.898 26.208-123.477 90.253-123.477 39.023 0 73.509 23.557 87.862 59.292 11.66-7.822 25.497-12.07 39.639-12.07 40.991 0 73.602 34.731 70.962 75.703 40.939-2.635 75.702 29.941 75.702 70.962 0 39.212-31.9 71.112-71.109 71.112z"/><path d="m111.844 336.116 285.823.065c33.696 0 61.109-27.414 61.109-61.111 0-37.302-33.349-66.167-70.577-60.378-3.341.518-6.229-2.361-5.709-5.71 5.799-37.212-23.078-70.577-60.378-70.577-14.164 0-27.97 4.956-38.874 13.955-2.718 2.241-6.863 1.044-7.944-2.331-11.278-35.198-43.702-58.847-80.683-58.847-59.664 0-100.833 60.449-78.73 116.008 1.27 3.189-.986 6.684-4.416 6.843-32.658 1.509-58.242 28.32-58.242 61.038 0 32.933 25.74 59.73 58.621 61.045z" fill="#e4f0fd"/><g><path d="m136.463 175.717c-2.762 0-5-2.239-5-5 0-32.829 26.708-59.537 59.537-59.537 2.762 0 5 2.239 5 5s-2.238 5-5 5c-27.314 0-49.537 22.222-49.537 49.537 0 2.762-2.238 5-5 5z"/></g></g><path d="m358.066 323.2c3.391 36.44-12.7 71.961-42.33 93.44l-60.92 44.18-60.93-44.18c-29.63-21.479-45.72-57-42.33-93.44l5.399-58.09c58.951-1.17 97.86-48.93 97.86-48.93s38.9 47.76 97.851 48.93z" fill="#384466"/><path d="m332.176 328.97c2.54 27.3-9.521 53.91-31.72 70.01l-45.641 33.09-45.649-33.09c-22.2-16.1-34.26-42.71-31.721-70.01l4.051-43.521c44.17-.869 73.319-36.659 73.319-36.659s29.15 35.79 73.311 36.659z" fill="#ff8848"/><path d="m254.816 437.07c-1.029 0-2.06-.317-2.935-.952l-45.65-33.09c-23.516-17.054-36.453-45.608-33.764-74.521l4.051-43.521c.235-2.534 2.336-4.486 4.88-4.536 41.235-.812 69.267-34.482 69.545-34.822.95-1.16 2.372-1.835 3.871-1.835h.006c1.502.002 2.925.676 3.873 1.84.274.336 28.306 34.006 69.532 34.818 2.544.05 4.645 2.002 4.88 4.536l4.05 43.521c2.69 28.911-10.247 57.466-33.763 74.521l-45.642 33.09c-.874.634-1.905.951-2.934.951zm-68.745-146.821-3.646 39.185c-2.363 25.411 9.008 50.51 29.678 65.499l42.714 30.962 42.706-30.962c20.669-14.99 32.04-40.088 29.676-65.499l-3.646-39.185c-34.69-2.426-59.537-24.489-68.735-34.01-9.2 9.52-34.05 31.584-68.747 34.01z"/><path d="m254.816 465.82c-1.03 0-2.06-.317-2.935-.952l-60.93-44.18c-30.907-22.405-47.91-59.938-44.374-97.951l5.399-58.09c.236-2.533 2.336-4.485 4.88-4.536 55.987-1.111 93.708-46.629 94.083-47.089.949-1.165 2.373-1.842 3.876-1.842 1.504 0 2.928.677 3.877 1.842.373.456 38.227 45.98 94.073 47.088 2.543.051 4.644 2.003 4.879 4.536l5.399 58.09c3.537 38.013-13.466 75.546-44.374 97.951l-60.919 44.18c-.874.636-1.904.953-2.934.953zm-93.286-195.885-4.995 53.728c-3.211 34.512 12.226 68.588 40.286 88.93l57.995 42.052 57.984-42.052c28.061-20.342 43.498-54.418 40.287-88.93l-4.994-53.728c-48.136-2.789-82.158-34.409-93.277-46.236-11.119 11.824-45.148 43.447-93.286 46.236z"/><circle cx="428.516" cy="91.18" fill="#cadbfd" r="30"/><path d="m428.516 126.18c-19.299 0-35-15.701-35-35s15.701-35 35-35 35 15.701 35 35-15.701 35-35 35zm0-60c-13.785 0-25 11.215-25 25s11.215 25 25 25 25-11.215 25-25-11.215-25-25-25z"/><circle cx="108.516" cy="426.18" fill="#cadbfd" r="25"/><path d="m108.516 456.18c-16.542 0-30-13.458-30-30s13.458-30 30-30 30 13.458 30 30-13.458 30-30 30zm0-50c-11.027 0-20 8.972-20 20s8.973 20 20 20 20-8.972 20-20-8.973-20-20-20z"/><circle cx="321.016" cy="53.68" r="7.5"/><circle cx="446.016" cy="168.68" r="7.5"/><circle cx="461.016" cy="368.68" r="7.5"/><circle cx="366.016" cy="443.68" r="7.5"/><circle cx="51.016" cy="83.68" r="7.5"/><circle cx="71.016" cy="373.68" r="7.5"/></g></g></svg>