<svg enable-background="new 0 0 512 512" height="512" viewBox="0 0 512 512" width="512" xmlns="http://www.w3.org/2000/svg"><g id="_x33_93_x2C__bell_x2C__cloud_x2C__alarm__x2C_"><g><g><g><path d="m75.829 198.249c-9.039-71.711 47.101-134.749 118.783-134.749 41.059 0 78.725 20.544 100.758 54.955 1.489 2.326.811 5.418-1.515 6.907s-5.417.812-6.907-1.515c-20.186-31.526-54.703-50.347-92.336-50.347-65.713 0-117.148 57.796-108.861 123.499.345 2.74-1.596 5.241-4.336 5.587-2.769.343-5.245-1.619-5.586-4.337z"/></g><path d="m397.668 353.5c-1.126 0-285.732-.051-286.114-.068-38.316-1.476-68.33-32.682-68.33-71.042 0-35.823 26.358-65.561 61.135-70.412-19.458-60.898 26.208-123.477 90.253-123.477 39.023 0 73.509 23.557 87.862 59.292 11.66-7.822 25.497-12.07 39.639-12.07 40.991 0 73.602 34.731 70.962 75.703 40.939-2.635 75.702 29.941 75.702 70.962 0 39.212-31.9 71.112-71.109 71.112z"/><path d="m111.844 343.435 285.823.065c33.696 0 61.109-27.414 61.109-61.111 0-37.302-33.349-66.167-70.577-60.378-3.341.518-6.229-2.361-5.709-5.71 5.799-37.212-23.078-70.577-60.378-70.577-14.164 0-27.97 4.956-38.874 13.955-2.718 2.241-6.863 1.043-7.944-2.331-11.278-35.198-43.702-58.847-80.683-58.847-59.664 0-100.833 60.449-78.73 116.008 1.27 3.189-.986 6.684-4.416 6.843-32.658 1.509-58.242 28.32-58.242 61.038 0 32.934 25.74 59.731 58.621 61.045z" fill="#e4f0fd"/><g><path d="m136.463 183.037c-2.762 0-5-2.239-5-5 0-32.829 26.708-59.537 59.537-59.537 2.762 0 5 2.239 5 5s-2.238 5-5 5c-27.314 0-49.537 22.222-49.537 49.537 0 2.761-2.238 5-5 5z"/></g></g><path d="m328.516 388.5c8.28 0 15 6.72 15 15 0 8.267-6.72 15-15 15-15.327 0-129.283 0-145 0-8.279 0-15-6.72-15-15 0-8.267 6.72-15 15-15z" fill="#fbbd00"/><path d="m323.516 311v77.5h-135v-77.5c0-37.28 30.221-67.5 67.5-67.5 37.277 0 67.5 30.219 67.5 67.5z" fill="#fdd82e"/><path d="m278.516 418.5v7.5c0 12.43-10.07 22.5-22.5 22.5s-22.5-10.07-22.5-22.5v-7.5z" fill="#ff4c4c"/><circle cx="256.016" cy="223.5" fill="#fbbd00" r="20"/><path d="m323.516 393.5c-2.762 0-5-2.238-5-5v-77.5c0-16.694-6.501-32.39-18.306-44.195-11.805-11.804-27.5-18.305-44.194-18.305-34.463 0-62.5 28.037-62.5 62.5v77.5c0 2.762-2.238 5-5 5s-5-2.238-5-5v-77.5c0-39.977 32.523-72.5 72.5-72.5 19.365 0 37.571 7.541 51.266 21.233 13.693 13.694 21.234 31.901 21.234 51.267v77.5c0 2.762-2.238 5-5 5z"/><path d="m328.516 423.5h-50c-2.762 0-5-2.238-5-5s2.238-5 5-5h50c2.67 0 5.176-1.04 7.057-2.929 1.903-1.895 2.943-4.401 2.943-7.071 0-5.514-4.486-10-10-10h-145c-2.67 0-5.176 1.04-7.058 2.929-1.902 1.895-2.942 4.402-2.942 7.071 0 5.514 4.486 10 10 10h50c2.762 0 5 2.238 5 5s-2.238 5-5 5h-50c-11.027 0-20-8.972-20-20 0-5.347 2.085-10.369 5.871-14.142 3.758-3.773 8.78-5.858 14.129-5.858h145c11.028 0 20 8.972 20 20 0 5.348-2.085 10.37-5.872 14.143-3.758 3.772-8.78 5.857-14.128 5.857z"/><path d="m256.016 453.5c-15.164 0-27.5-12.337-27.5-27.5v-7.5c0-2.762 2.238-5 5-5h45c2.762 0 5 2.238 5 5v7.5c0 15.163-12.337 27.5-27.5 27.5zm-17.5-30v2.5c0 9.649 7.851 17.5 17.5 17.5s17.5-7.851 17.5-17.5v-2.5z"/><path d="m256.016 248.5c-13.785 0-25-11.215-25-25s11.215-25 25-25 25 11.215 25 25-11.215 25-25 25zm0-40c-8.271 0-15 6.729-15 15s6.729 15 15 15c8.272 0 15-6.729 15-15s-6.728-15-15-15z"/><circle cx="423.516" cy="103.5" fill="#cadbfd" r="25"/><path d="m423.516 133.5c-16.542 0-30-13.458-30-30s13.458-30 30-30 30 13.458 30 30-13.458 30-30 30zm0-50c-11.028 0-20 8.972-20 20s8.972 20 20 20 20-8.972 20-20-8.972-20-20-20z"/><circle cx="98.516" cy="433.5" fill="#cadbfd" r="25"/><path d="m98.516 463.5c-16.542 0-30-13.458-30-30s13.458-30 30-30 30 13.458 30 30-13.458 30-30 30zm0-50c-11.027 0-20 8.972-20 20s8.973 20 20 20 20-8.972 20-20-8.973-20-20-20z"/><circle cx="321.016" cy="61" r="7.5"/><circle cx="451.016" cy="166" r="7.5"/><circle cx="441.016" cy="416" r="7.5"/><circle cx="171.016" cy="456" r="7.5"/><circle cx="71.016" cy="56" r="7.5"/><circle cx="66.016" cy="371" r="7.5"/></g></g></svg>