<svg enable-background="new 0 0 512 512" height="512" viewBox="0 0 512 512" width="512" xmlns="http://www.w3.org/2000/svg"><g id="_x33_95_x2C__Cloud_x2C__Lock_x2C__Padlock_x2C__Security"><g><g><g><path d="m73.459 198.249c-9.039-71.711 47.102-134.749 118.783-134.749 41.059 0 78.725 20.544 100.758 54.955 1.489 2.326.811 5.418-1.515 6.907s-5.417.812-6.907-1.515c-20.185-31.526-54.703-50.347-92.336-50.347-65.713 0-117.148 57.796-108.861 123.499.345 2.74-1.596 5.241-4.336 5.587-2.769.343-5.244-1.619-5.586-4.337z"/></g><path d="m395.298 353.5c-1.126 0-285.732-.051-286.114-.068-38.316-1.476-68.33-32.682-68.33-71.042 0-35.823 26.358-65.561 61.135-70.412-19.458-60.898 26.208-123.477 90.253-123.477 39.023 0 73.509 23.557 87.862 59.292 11.66-7.822 25.497-12.07 39.639-12.07 40.991 0 73.602 34.731 70.962 75.703 40.939-2.635 75.702 29.941 75.702 70.962 0 39.212-31.899 71.112-71.109 71.112z"/><path d="m109.475 343.435 285.823.065c33.696 0 61.109-27.414 61.109-61.111 0-37.302-33.349-66.167-70.577-60.378-3.341.518-6.23-2.361-5.709-5.71 5.799-37.212-23.078-70.577-60.378-70.577-14.164 0-27.97 4.956-38.874 13.955-2.718 2.241-6.863 1.043-7.944-2.331-11.278-35.198-43.702-58.847-80.683-58.847-59.664 0-100.833 60.449-78.73 116.008 1.27 3.189-.986 6.684-4.416 6.843-32.658 1.509-58.242 28.32-58.242 61.038 0 32.934 25.74 59.731 58.621 61.045z" fill="#e4f0fd"/><g><path d="m134.094 183.037c-2.762 0-5-2.239-5-5 0-32.829 26.708-59.537 59.537-59.537 2.762 0 5 2.239 5 5s-2.238 5-5 5c-27.314 0-49.537 22.222-49.537 49.537 0 2.761-2.239 5-5 5z"/></g></g><path d="m326.147 333.5v27.5c0 34.52-27.981 62.5-62.5 62.5-34.52 0-62.5-27.98-62.5-62.5v-27.5z" fill="#ff8848"/><path d="m326.147 308.5v25h-125v-25z" fill="#ff4c4c"/><path d="m263.647 358.5c7.519 0 13.61 6.09 13.61 13.61s-6.091 13.609-13.61 13.609c-7.52 0-13.609-6.09-13.609-13.609-.001-7.52 6.089-13.61 13.609-13.61z" fill="#2a2b4c"/><path d="m263.647 428.5c-37.22 0-67.5-30.28-67.5-67.5v-52.5c0-2.762 2.238-5 5-5h15c2.762 0 5 2.238 5 5s-2.238 5-5 5h-10v47.5c0 31.706 25.795 57.5 57.5 57.5 31.706 0 57.5-25.794 57.5-57.5v-47.5h-10c-2.762 0-5-2.238-5-5s2.238-5 5-5h15c2.762 0 5 2.238 5 5v52.5c0 37.22-30.281 67.5-67.5 67.5z"/><path d="m311.147 313.5h-95c-2.762 0-5-2.238-5-5v-22.5c0-28.948 23.551-52.5 52.5-52.5 14.016 0 27.199 5.46 37.123 15.373 9.918 9.928 15.377 23.113 15.377 37.127v22.5c0 2.762-2.239 5-5 5zm-90.001-10h85v-17.5c0-11.346-4.421-22.021-12.447-30.057-8.032-8.023-18.706-12.443-30.053-12.443-23.435 0-42.5 19.065-42.5 42.5z"/><path d="m326.147 338.5h-125c-2.762 0-5-2.238-5-5s2.238-5 5-5h125c2.762 0 5 2.238 5 5s-2.239 5-5 5z"/><path d="m263.647 390.72c-10.262 0-18.609-8.348-18.609-18.609 0-10.262 8.348-18.61 18.609-18.61 10.262 0 18.61 8.349 18.61 18.61s-8.349 18.609-18.61 18.609zm0-27.22c-4.747 0-8.609 3.862-8.609 8.61 0 4.747 3.862 8.609 8.609 8.609 4.748 0 8.61-3.862 8.61-8.609 0-4.748-3.862-8.61-8.61-8.61z"/><path d="m263.647 398.5c-2.762 0-5-2.238-5-5v-7.78c0-2.762 2.238-5 5-5s5 2.238 5 5v7.78c0 2.762-2.239 5-5 5z"/><circle cx="431.147" cy="98.5" fill="#cadbfd" r="35"/><path d="m431.147 138.5c-22.056 0-40-17.944-40-40s17.944-40 40-40 40 17.944 40 40-17.945 40-40 40zm0-70c-16.542 0-30 13.458-30 30s13.458 30 30 30 30-13.458 30-30-13.458-30-30-30z"/><circle cx="126.146" cy="428.5" fill="#cadbfd" r="25"/><path d="m126.146 458.5c-16.542 0-30-13.458-30-30s13.458-30 30-30 30 13.458 30 30-13.457 30-30 30zm0-50c-11.027 0-20 8.972-20 20s8.973 20 20 20 20-8.972 20-20-8.972-20-20-20z"/><circle cx="443.647" cy="166" r="7.5"/><circle cx="458.647" cy="386" r="7.5"/><circle cx="373.647" cy="451" r="7.5"/><circle cx="213.646" cy="451" r="7.5"/><circle cx="318.647" cy="61" r="7.5"/><circle cx="63.646" cy="66" r="7.5"/><circle cx="58.646" cy="381" r="7.5"/></g></g></svg>