<svg enable-background="new 0 0 512 512" height="512" viewBox="0 0 512 512" width="512" xmlns="http://www.w3.org/2000/svg"><g id="_x33_97_x2C__Fast_Hosting_x2C__Internet_Speed_x2C__Speed_x2C__Speedometer"><g><g><g><path d="m70.959 206.999c-9.039-71.711 47.102-134.749 118.783-134.749 41.059 0 78.725 20.544 100.758 54.955 1.489 2.326.811 5.418-1.515 6.907s-5.417.811-6.907-1.515c-20.185-31.526-54.703-50.347-92.336-50.347-65.713 0-117.148 57.796-108.861 123.499.345 2.74-1.596 5.241-4.336 5.587-2.769.343-5.244-1.619-5.586-4.337z"/></g><path d="m392.798 362.25c-1.126 0-285.732-.051-286.114-.068-38.316-1.476-68.33-32.682-68.33-71.042 0-35.823 26.358-65.561 61.135-70.412-19.458-60.898 26.208-123.477 90.253-123.477 39.023 0 73.509 23.557 87.862 59.292 11.66-7.822 25.497-12.07 39.639-12.07 40.991 0 73.602 34.731 70.962 75.703 40.939-2.635 75.702 29.941 75.702 70.962 0 39.212-31.899 71.112-71.109 71.112z"/><path d="m106.975 352.185 285.823.065c33.696 0 61.109-27.414 61.109-61.111 0-37.302-33.349-66.167-70.577-60.378-3.341.518-6.23-2.361-5.709-5.71 5.799-37.212-23.078-70.577-60.378-70.577-14.164 0-27.97 4.956-38.874 13.955-2.718 2.241-6.863 1.043-7.944-2.331-11.278-35.198-43.702-58.847-80.683-58.847-59.664 0-100.833 60.449-78.73 116.008 1.27 3.189-.986 6.684-4.416 6.843-32.658 1.509-58.242 28.32-58.242 61.038 0 32.934 25.74 59.731 58.621 61.045z" fill="#e4f0fd"/><g><path d="m131.594 191.787c-2.762 0-5-2.239-5-5 0-32.829 26.708-59.537 59.537-59.537 2.762 0 5 2.239 5 5s-2.238 5-5 5c-27.314 0-49.537 22.222-49.537 49.537 0 2.761-2.239 5-5 5z"/></g></g><path d="m348.647 357.25c0 55.225-44.759 100-100 100-55.225 0-100-44.759-100-100 0-55.225 44.758-100 100-100 55.224 0 100 44.759 100 100z" fill="#cadbfd"/><circle cx="248.646" cy="357.25" fill="#ff8848" r="15"/><path d="m248.646 462.25c-28.057 0-54.424-10.923-74.246-30.756-19.832-19.819-30.754-46.188-30.754-74.244s10.922-54.425 30.756-74.246c19.82-19.832 46.188-30.754 74.244-30.754s54.424 10.922 74.246 30.756c19.831 19.82 30.754 46.188 30.754 74.244s-10.923 54.424-30.756 74.246c-19.82 19.831-46.187 30.754-74.244 30.754zm0-200c-25.385 0-49.24 9.882-67.174 27.824-17.944 17.936-27.826 41.791-27.826 67.176s9.882 49.24 27.824 67.174c17.936 17.944 41.791 27.826 67.176 27.826 25.384 0 49.24-9.882 67.174-27.824 17.944-17.936 27.826-41.792 27.826-67.176s-9.882-49.24-27.824-67.174c-17.935-17.944-41.792-27.826-67.176-27.826z"/><path d="m248.646 377.25c-11.027 0-20-8.972-20-20s8.973-20 20-20c11.028 0 20 8.972 20 20s-8.971 20-20 20zm0-30c-5.514 0-10 4.486-10 10s4.486 10 10 10 10-4.486 10-10-4.486-10-10-10z"/><path d="m248.646 262.25c-16.542 0-30-13.458-30-30s13.458-30 30-30 30 13.458 30 30-13.457 30-30 30zm0-50c-11.027 0-20 8.972-20 20s8.973 20 20 20c11.028 0 20-8.972 20-20s-8.971-20-20-20z"/><path d="m248.646 277.25c-2.762 0-5-2.238-5-5v-15c0-2.761 2.238-5 5-5s5 2.239 5 5v15c0 2.762-2.238 5-5 5z"/><path d="m248.646 462.25c-2.762 0-5-2.238-5-5v-15c0-2.762 2.238-5 5-5s5 2.238 5 5v15c0 2.762-2.238 5-5 5z"/><path d="m188.547 302.15c-1.28 0-2.56-.488-3.536-1.465l-10.61-10.61c-1.952-1.952-1.952-5.118 0-7.07 1.955-1.953 5.119-1.952 7.072 0l10.609 10.61c1.953 1.952 1.953 5.118 0 7.07-.977.977-2.256 1.465-3.535 1.465z"/><path d="m319.357 432.96c-1.279 0-2.56-.488-3.535-1.465l-10.61-10.61c-1.953-1.952-1.953-5.118 0-7.07 1.951-1.953 5.119-1.953 7.07 0l10.61 10.61c1.953 1.952 1.953 5.118 0 7.07-.976.977-2.256 1.465-3.535 1.465z"/><path d="m308.746 302.15c-1.279 0-2.56-.488-3.535-1.465-1.953-1.952-1.953-5.118 0-7.07l10.61-10.61c1.951-1.953 5.119-1.953 7.07 0 1.953 1.952 1.953 5.118 0 7.07l-10.61 10.61c-.975.977-2.256 1.465-3.535 1.465z"/><path d="m177.936 432.96c-1.28 0-2.559-.488-3.536-1.465-1.952-1.952-1.952-5.118 0-7.07l10.61-10.61c1.953-1.953 5.118-1.953 7.071 0 1.953 1.952 1.953 5.118 0 7.07l-10.609 10.61c-.976.977-2.255 1.465-3.536 1.465z"/><path d="m348.647 362.25h-15c-2.762 0-5-2.238-5-5s2.238-5 5-5h15c2.762 0 5 2.238 5 5s-2.239 5-5 5z"/><path d="m163.646 362.25h-15c-2.762 0-5-2.238-5-5s2.238-5 5-5h15c2.762 0 5 2.238 5 5s-2.238 5-5 5z"/><path d="m248.646 347.25c-2.762 0-5-2.238-5-5v-35c0-2.762 2.238-5 5-5s5 2.238 5 5v35c0 2.762-2.238 5-5 5z"/><circle cx="413.647" cy="107.25" fill="#cadbfd" r="30"/><path d="m413.647 142.25c-19.299 0-35-15.701-35-35s15.701-35 35-35 35 15.701 35 35-15.702 35-35 35zm0-60c-13.785 0-25 11.215-25 25s11.215 25 25 25 25-11.215 25-25-11.215-25-25-25z"/><circle cx="103.646" cy="437.25" fill="#cadbfd" r="20"/><path d="m103.646 462.25c-13.785 0-25-11.215-25-25s11.215-25 25-25 25 11.215 25 25-11.214 25-25 25zm0-40c-8.271 0-15 6.728-15 15s6.729 15 15 15 15-6.728 15-15-6.728-15-15-15z"/><circle cx="466.147" cy="379.75" r="7.5"/><circle cx="456.147" cy="169.75" r="7.5"/><circle cx="291.147" cy="57.25" r="7.5"/><circle cx="56.146" cy="104.75" r="7.5"/><circle cx="56.146" cy="389.75" r="7.5"/><circle cx="381.147" cy="444.75" r="7.5"/></g></g></svg>