<svg enable-background="new 0 0 512 512" height="512" viewBox="0 0 512 512" width="512" xmlns="http://www.w3.org/2000/svg"><g id="_x33_98_x2C__Cloud_x2C__Error_x2C__Warning_x2C__Cross"><g><g><g><path d="m70.959 200.749c-9.039-71.711 47.102-134.749 118.783-134.749 41.059 0 78.725 20.544 100.758 54.955 1.489 2.326.811 5.418-1.515 6.907s-5.417.811-6.907-1.515c-20.185-31.526-54.703-50.347-92.336-50.347-65.713 0-117.148 57.796-108.861 123.499.345 2.74-1.596 5.241-4.336 5.587-2.769.343-5.244-1.619-5.586-4.337z"/></g><path d="m392.798 356c-1.126 0-285.732-.051-286.114-.068-38.316-1.476-68.33-32.682-68.33-71.042 0-35.823 26.358-65.561 61.135-70.412-19.458-60.898 26.208-123.477 90.253-123.477 39.023 0 73.509 23.557 87.862 59.292 11.66-7.822 25.497-12.07 39.639-12.07 40.991 0 73.602 34.731 70.962 75.703 40.939-2.635 75.702 29.941 75.702 70.962 0 39.212-31.899 71.112-71.109 71.112z"/><path d="m106.975 345.935 285.823.065c33.696 0 61.109-27.414 61.109-61.111 0-37.302-33.349-66.167-70.577-60.378-3.341.518-6.23-2.361-5.709-5.71 5.799-37.212-23.078-70.577-60.378-70.577-14.164 0-27.97 4.956-38.874 13.955-2.718 2.241-6.863 1.043-7.944-2.331-11.278-35.198-43.702-58.847-80.683-58.847-59.664 0-100.833 60.449-78.73 116.008 1.27 3.189-.986 6.684-4.416 6.843-32.658 1.509-58.242 28.32-58.242 61.038 0 32.934 25.74 59.731 58.621 61.045z" fill="#e4f0fd"/><g><path d="m131.594 185.537c-2.762 0-5-2.239-5-5 0-32.829 26.708-59.537 59.537-59.537 2.762 0 5 2.239 5 5s-2.238 5-5 5c-27.314 0-49.537 22.222-49.537 49.537 0 2.761-2.239 5-5 5z"/></g></g><path d="m333.647 266v170h-170v-170z" fill="#445f80"/><path d="m291.076 372.21-21.219 21.22-21.211-21.22-21.21 21.22-21.219-21.22 21.219-21.21-21.219-21.21 21.219-21.22 21.21 21.22 21.211-21.22 21.219 21.22-21.219 21.21z" fill="#ff8848"/><path d="m333.647 441h-170c-2.762 0-5-2.238-5-5v-170c0-2.762 2.238-5 5-5h170c2.762 0 5 2.238 5 5v170c0 2.762-2.239 5-5 5zm-165.001-10h160v-160h-160z"/><path d="m313.647 311c-2.762 0-5-2.238-5-5v-15h-15c-2.762 0-5-2.238-5-5s2.238-5 5-5h20c2.762 0 5 2.238 5 5v20c0 2.762-2.239 5-5 5z"/><path d="m183.646 311c-2.762 0-5-2.238-5-5v-20c0-2.762 2.238-5 5-5h20c2.762 0 5 2.238 5 5s-2.238 5-5 5h-15v15c0 2.762-2.238 5-5 5z"/><path d="m313.647 421h-20c-2.762 0-5-2.238-5-5s2.238-5 5-5h15v-15c0-2.762 2.238-5 5-5s5 2.238 5 5v20c0 2.762-2.239 5-5 5z"/><path d="m203.646 421h-20c-2.762 0-5-2.238-5-5v-20c0-2.762 2.238-5 5-5s5 2.238 5 5v15h15c2.762 0 5 2.238 5 5s-2.238 5-5 5z"/><path d="m269.857 398.43s0 0-.001 0c-1.326 0-2.598-.527-3.535-1.465l-17.674-17.683-17.674 17.683c-.938.938-2.209 1.465-3.535 1.465s-2.599-.526-3.537-1.465l-21.22-21.22c-.938-.938-1.464-2.209-1.464-3.536 0-1.326.527-2.598 1.465-3.535l17.681-17.674-17.682-17.674c-.938-.938-1.465-2.209-1.465-3.535 0-1.327.526-2.599 1.464-3.536l21.22-21.22c.938-.938 2.21-1.465 3.536-1.465h.001c1.326 0 2.598.527 3.535 1.465l17.674 17.683 17.674-17.683c.938-.938 2.209-1.465 3.535-1.465 1.327 0 2.599.526 3.536 1.465l21.22 21.22c.939.938 1.465 2.209 1.465 3.536 0 1.326-.527 2.598-1.465 3.535l-17.682 17.674 17.683 17.674c.938.938 1.465 2.209 1.465 3.535 0 1.327-.526 2.599-1.465 3.536l-21.22 21.22c-.938.938-2.209 1.465-3.535 1.465zm-56.569-26.219 14.147 14.146 17.675-17.683c.938-.938 2.21-1.465 3.536-1.465s2.599.527 3.536 1.465l17.675 17.683 14.147-14.146-17.683-17.675c-.938-.938-1.465-2.21-1.465-3.536s.527-2.599 1.465-3.536l17.683-17.675-14.147-14.146-17.675 17.683c-.938.938-2.21 1.465-3.536 1.465s-2.599-.527-3.536-1.465l-17.675-17.683-14.147 14.146 17.683 17.675c.938.938 1.466 2.21 1.466 3.536s-.527 2.599-1.466 3.536z"/><circle cx="428.647" cy="91" fill="#cadbfd" r="35"/><path d="m428.647 131c-22.056 0-40-17.944-40-40s17.944-40 40-40 40 17.944 40 40-17.945 40-40 40zm0-70c-16.542 0-30 13.458-30 30s13.458 30 30 30 30-13.458 30-30-13.458-30-30-30z"/><circle cx="98.646" cy="416" fill="#cadbfd" r="20"/><path d="m98.646 441c-13.785 0-25-11.215-25-25s11.215-25 25-25 25 11.215 25 25-11.214 25-25 25zm0-40c-8.271 0-15 6.728-15 15s6.729 15 15 15 15-6.728 15-15-6.728-15-15-15z"/><circle cx="336.147" cy="73.5" r="7.5"/><circle cx="441.147" cy="168.5" r="7.5"/><circle cx="66.146" cy="73.5" r="7.5"/><circle cx="466.147" cy="373.5" r="7.5"/><circle cx="381.147" cy="453.5" r="7.5"/><circle cx="46.146" cy="443.5" r="7.5"/></g></g></svg>