<svg enable-background="new 0 0 512 512" height="512" viewBox="0 0 512 512" width="512" xmlns="http://www.w3.org/2000/svg"><g id="_x33_99_x2C__Cloud_Computing_x2C__Computing_x2C__Globe_x2C_"><g><g><g><path d="m75.829 190.749c-9.039-71.711 47.101-134.749 118.783-134.749 41.059 0 78.725 20.544 100.758 54.955 1.489 2.326.811 5.418-1.515 6.907s-5.417.812-6.907-1.515c-20.186-31.526-54.703-50.347-92.336-50.347-65.713 0-117.148 57.796-108.861 123.499.345 2.74-1.596 5.241-4.336 5.587-2.769.343-5.245-1.619-5.586-4.337z"/></g><path d="m397.668 346c-1.126 0-285.732-.051-286.114-.068-38.316-1.476-68.33-32.682-68.33-71.042 0-35.823 26.358-65.561 61.135-70.412-19.458-60.898 26.208-123.477 90.253-123.477 39.023 0 73.509 23.557 87.862 59.292 11.66-7.822 25.497-12.07 39.639-12.07 40.991 0 73.602 34.731 70.962 75.703 40.939-2.635 75.702 29.941 75.702 70.962 0 39.212-31.9 71.112-71.109 71.112z"/><path d="m111.844 335.935 285.824.065c33.696 0 61.109-27.414 61.109-61.111 0-37.302-33.349-66.167-70.577-60.378-3.341.518-6.229-2.361-5.709-5.71 5.799-37.212-23.078-70.577-60.378-70.577-14.164 0-27.97 4.956-38.874 13.955-2.718 2.241-6.863 1.043-7.944-2.331-11.278-35.198-43.702-58.847-80.683-58.847-59.664 0-100.833 60.449-78.73 116.008 1.27 3.189-.986 6.684-4.416 6.843-32.658 1.509-58.242 28.32-58.242 61.038-.001 32.934 25.739 59.731 58.62 61.045z" fill="#e4f0fd"/><g><path d="m136.463 175.537c-2.762 0-5-2.239-5-5 0-32.829 26.708-59.537 59.537-59.537 2.762 0 5 2.239 5 5s-2.238 5-5 5c-27.314 0-49.537 22.222-49.537 49.537 0 2.761-2.238 5-5 5z"/></g></g><g fill="#65cafd"><path d="m363.516 333.93h-46.63c0-17.479-2.4-33.89-6.61-48.09 9.78-5.02 18.61-11.649 26.141-19.53l.01-.01c16.78 17.58 27.089 41.4 27.089 67.63z"/><path d="m316.886 333.93h46.63c0 26.221-10.31 50.03-27.09 67.62-7.521-7.89-16.36-14.52-26.15-19.54 4.21-14.2 6.61-30.61 6.61-48.08z"/><path d="m336.426 401.55c-17.84 18.67-42.98 30.311-70.84 30.311 19.18 0 35.899-20.091 44.689-49.851 9.791 5.02 18.631 11.65 26.151 19.54z"/><path d="m336.426 266.3-.01.01c-7.53 7.881-16.36 14.511-26.141 19.53-8.79-29.76-25.51-49.84-44.689-49.84 27.85 0 53 11.63 70.84 30.3z"/><path d="m316.886 333.93h-51.3v-37.31c16.1 0 31.29-3.89 44.689-10.78 4.211 14.2 6.611 30.61 6.611 48.09z"/><path d="m265.586 333.93h51.3c0 17.471-2.4 33.88-6.61 48.08-13.399-6.89-28.59-10.779-44.689-10.779v-37.301z"/><path d="m265.586 371.23c16.1 0 31.29 3.89 44.689 10.779-8.79 29.76-25.51 49.851-44.689 49.851z"/><path d="m310.276 285.84c-13.399 6.891-28.59 10.78-44.689 10.78v-60.62c19.179 0 35.899 20.08 44.689 49.84z"/><path d="m265.586 371.23v60.63c-19.17 0-35.891-20.091-44.69-49.841 13.399-6.899 28.591-10.789 44.69-10.789z"/><path d="m265.586 333.93v37.301c-16.1 0-31.291 3.89-44.69 10.789-4.21-14.199-6.61-30.609-6.61-48.09z"/><path d="m265.586 296.62v37.31h-51.301c0-17.479 2.4-33.89 6.601-48.09 13.4 6.89 28.601 10.78 44.7 10.78z"/><path d="m265.586 236v60.62c-16.1 0-31.301-3.89-44.7-10.78 8.8-29.76 25.521-49.84 44.7-49.84z"/><path d="m265.586 236c-19.18 0-35.9 20.08-44.7 49.84-9.78-5.02-18.601-11.649-26.13-19.53l-.01-.01c17.84-18.67 42.991-30.3 70.84-30.3z"/><path d="m220.896 382.02c8.8 29.75 25.52 49.841 44.69 49.841-27.86 0-53-11.641-70.84-30.311l.27-.27c7.46-7.76 16.2-14.3 25.88-19.26z"/><path d="m220.886 285.84c-4.2 14.2-6.601 30.61-6.601 48.09h-46.629c0-26.229 10.31-50.05 27.09-67.63l.01.01c7.53 7.88 16.35 14.51 26.13 19.53z"/><path d="m214.286 333.93c0 17.48 2.4 33.891 6.61 48.09-9.68 4.961-18.42 11.5-25.88 19.261l-.27.27c-16.78-17.59-27.09-41.399-27.09-67.62h46.63z"/></g><path d="m265.586 436.86c-20.775 0-39.737-20.471-49.484-53.423-4.459-15.036-6.816-32.157-6.816-49.508 0-17.336 2.354-34.456 6.807-49.508 9.742-32.951 28.707-53.421 49.493-53.421 20.79 0 39.752 20.471 49.484 53.424 4.458 15.036 6.815 32.157 6.815 49.506 0 17.343-2.357 34.46-6.816 49.501-9.733 32.955-28.694 53.429-49.483 53.429zm0-195.86c-16.178 0-31.469 17.725-39.905 46.258-4.184 14.144-6.396 30.283-6.396 46.672 0 16.401 2.215 32.539 6.404 46.669 8.441 28.536 23.729 46.262 39.896 46.262 16.179 0 31.465-17.729 39.895-46.267 4.19-14.137 6.405-30.272 6.405-46.664 0-16.399-2.215-32.537-6.404-46.669-8.428-28.536-23.714-46.261-39.895-46.261z"/><path d="m265.586 301.62c-16.32 0-32.568-3.919-46.986-11.334-10.221-5.245-19.459-12.15-27.459-20.522-1.908-1.997-1.836-5.161.161-7.069 1.996-1.906 5.161-1.837 7.069.161 7.227 7.563 15.57 13.8 24.798 18.536 13.2 6.788 27.47 10.228 42.417 10.228 14.94 0 29.207-3.44 42.403-10.227 9.244-4.745 17.591-10.981 24.812-18.538 1.907-1.997 5.071-2.069 7.069-.161 1.997 1.908 2.068 5.073.161 7.069-7.993 8.365-17.236 15.271-27.473 20.524-14.62 7.52-30.425 11.333-46.972 11.333z"/><path d="m336.427 406.55c-1.32 0-2.638-.52-3.62-1.55-7.197-7.551-15.545-13.788-24.813-18.541-13.202-6.788-27.469-10.229-42.408-10.229-14.946 0-29.212 3.443-42.401 10.234-9.147 4.688-17.409 10.837-24.564 18.28-1.913 1.991-5.079 2.054-7.069.14-1.99-1.913-2.054-5.079-.14-7.069 7.924-8.244 17.077-15.056 27.204-20.245 14.61-7.523 30.416-11.34 46.971-11.34 16.546 0 32.351 3.813 46.976 11.333 10.263 5.263 19.512 12.173 27.483 20.536 1.905 1.999 1.829 5.164-.169 7.069-.969.924-2.21 1.382-3.45 1.382z"/><path d="m363.516 338.93h-195.859c-2.762 0-5-2.238-5-5s2.238-5 5-5h195.859c2.762 0 5 2.238 5 5 0 2.761-2.238 5-5 5z"/><path d="m265.586 436.86c-2.762 0-5-2.238-5-5v-195.86c0-2.761 2.238-5 5-5s5 2.239 5 5v195.86c0 2.762-2.238 5-5 5z"/><path d="m265.586 436.86c-28.384 0-54.826-11.314-74.455-31.857-18.363-19.25-28.475-44.49-28.475-71.074 0-26.602 10.111-51.846 28.473-71.082 19.625-20.537 46.067-31.847 74.457-31.847s54.832 11.31 74.455 31.846c18.362 19.238 28.475 44.482 28.475 71.084 0 26.585-10.111 51.825-28.472 71.071-19.632 20.546-46.074 31.859-74.458 31.859zm0-195.86c-25.633 0-49.508 10.212-67.226 28.754-16.575 17.366-25.704 40.158-25.704 64.176 0 24.002 9.129 46.791 25.707 64.169 17.722 18.546 41.596 28.762 67.223 28.762 25.626 0 49.5-10.216 67.225-28.765 16.575-17.375 25.705-40.164 25.705-64.166 0-24.019-9.13-46.811-25.707-64.178-17.716-18.54-41.59-28.752-67.223-28.752z"/><circle cx="438.516" cy="91" fill="#cadbfd" r="25"/><path d="m438.516 121c-16.542 0-30-13.458-30-30s13.458-30 30-30 30 13.458 30 30-13.458 30-30 30zm0-50c-11.028 0-20 8.972-20 20s8.972 20 20 20 20-8.972 20-20-8.972-20-20-20z"/><circle cx="108.516" cy="426" fill="#cadbfd" r="20"/><path d="m108.516 451c-13.785 0-25-11.215-25-25s11.215-25 25-25 25 11.215 25 25-11.215 25-25 25zm0-40c-8.271 0-15 6.728-15 15s6.729 15 15 15 15-6.728 15-15-6.728-15-15-15z"/><circle cx="441.016" cy="178.5" r="7.5"/><circle cx="341.016" cy="63.5" r="7.5"/><circle cx="456.016" cy="383.5" r="7.5"/><circle cx="371.016" cy="448.5" r="7.5"/><circle cx="181.016" cy="448.5" r="7.5"/><circle cx="61.016" cy="368.5" r="7.5"/><circle cx="63.516" cy="68.5" r="7.5"/></g></g></svg>