<svg enable-background="new 0 0 512 512" height="512" viewBox="0 0 512 512" width="512" xmlns="http://www.w3.org/2000/svg"><g id="_x34_00_x2C__Cloud_Cd_x2C__Compact_Disk_x2C__Dvd_x2C_"><g><g><g><path d="m68.459 195.749c-9.039-71.711 47.102-134.749 118.783-134.749 41.059 0 78.725 20.544 100.758 54.955 1.489 2.326.811 5.418-1.515 6.907s-5.417.812-6.907-1.515c-20.185-31.526-54.703-50.347-92.336-50.347-65.713 0-117.148 57.796-108.861 123.499.345 2.74-1.596 5.241-4.336 5.587-2.769.343-5.244-1.619-5.586-4.337z"/></g><path d="m390.298 351c-.278 0-17.846-.003-44.151-.008l-110-44.992-109.883 44.943c-13.723-.005-22.016-.009-22.08-.012-38.316-1.476-68.33-32.682-68.33-71.042 0-35.823 26.358-65.561 61.135-70.412-19.458-60.897 26.208-123.476 90.253-123.476 39.023 0 73.509 23.557 87.862 59.292 11.66-7.822 25.497-12.07 39.639-12.07 40.991 0 73.602 34.731 70.962 75.703 40.939-2.635 75.702 29.941 75.702 70.962 0 39.212-31.899 71.112-71.109 71.112z"/><path d="m104.475 340.935 38.172.009 93.5-31.944 94.5 31.986 59.651.014c33.696 0 61.109-27.414 61.109-61.111 0-37.302-33.349-66.167-70.577-60.378-3.341.518-6.23-2.361-5.709-5.71 5.799-37.212-23.078-70.577-60.378-70.577-14.164 0-27.97 4.956-38.874 13.955-2.718 2.241-6.863 1.043-7.944-2.331-11.278-35.198-43.702-58.847-80.683-58.847-59.664 0-100.833 60.449-78.73 116.008 1.27 3.189-.986 6.684-4.416 6.843-32.658 1.509-58.242 28.32-58.242 61.038 0 32.934 25.74 59.731 58.621 61.045z" fill="#e4f0fd"/><g><path d="m129.094 180.537c-2.762 0-5-2.239-5-5 0-32.829 26.708-59.537 59.537-59.537 2.762 0 5 2.239 5 5s-2.238 5-5 5c-27.314 0-49.537 22.222-49.537 49.537 0 2.761-2.239 5-5 5z"/></g></g><path d="m236.146 236c60.75 0 110 49.25 110 110s-49.25 110-110 110-110-49.25-110-110 49.25-110 110-110zm25.001 110c0-13.81-11.19-25-25-25-13.811 0-25 11.19-25 25s11.189 25 25 25c13.809 0 25-11.19 25-25z" fill="#445f80"/><path d="m236.146 376c-16.542 0-30-13.458-30-30s13.458-30 30-30 30 13.458 30 30-13.457 30-30 30zm0-50c-11.027 0-20 8.972-20 20s8.973 20 20 20c11.028 0 20-8.972 20-20s-8.971-20-20-20z"/><path d="m236.146 461c-63.411 0-115-51.589-115-115s51.589-115 115-115 115 51.589 115 115-51.588 115-115 115zm0-220c-57.896 0-105 47.103-105 105s47.104 105 105 105c57.898 0 105-47.103 105-105s-47.102-105-105-105z"/><path d="m156.146 351c-2.762 0-5-2.238-5-5 0-46.869 38.131-85 85-85 2.762 0 5 2.238 5 5s-2.238 5-5 5c-41.355 0-75 33.645-75 75 0 2.762-2.238 5-5 5z"/><path d="m236.146 431c-2.762 0-5-2.238-5-5s2.238-5 5-5c41.356 0 75-33.645 75-75 0-2.762 2.238-5 5-5s5 2.238 5 5c.001 46.869-38.13 85-85 85z"/><path d="m236.146 406c-2.762 0-5-2.238-5-5s2.238-5 5-5c27.57 0 50-22.43 50-50 0-2.762 2.238-5 5-5s5 2.238 5 5c.001 33.084-26.916 60-60 60z"/><path d="m181.146 351c-2.762 0-5-2.238-5-5 0-33.084 26.916-60 60-60 2.762 0 5 2.238 5 5s-2.238 5-5 5c-27.57 0-50 22.43-50 50 0 2.762-2.238 5-5 5z"/><circle cx="436.147" cy="101" fill="#cadbfd" r="35"/><path d="m436.147 141c-22.056 0-40-17.944-40-40s17.944-40 40-40 40 17.944 40 40-17.945 40-40 40zm0-70c-16.542 0-30 13.458-30 30s13.458 30 30 30 30-13.458 30-30-13.458-30-30-30z"/><circle cx="66.146" cy="436" fill="#cadbfd" r="20"/><path d="m66.146 461c-13.785 0-25-11.215-25-25s11.215-25 25-25 25 11.215 25 25-11.214 25-25 25zm0-40c-8.271 0-15 6.728-15 15s6.729 15 15 15 15-6.728 15-15-6.728-15-15-15z"/><circle cx="313.647" cy="48.5" r="7.5"/><circle cx="433.647" cy="183.5" r="7.5"/><circle cx="348.647" cy="463.5" r="7.5"/><circle cx="83.646" cy="383.5" r="7.5"/><circle cx="68.646" cy="68.5" r="7.5"/></g></g></svg>